<svg id="svg548" xmlns="http://www.w3.org/2000/svg" height="512" width="512" version="1.1"><defs id="defs550"><clipPath id="clipPath3440" clipPathUnits="userSpaceOnUse"><path id="rect3442" fill="gray" d="M496.06 15.937h496.06v496.06H496.06z"/></clipPath></defs><g id="flag" clip-path="url(#clipPath3440)" transform="translate(-512 -16.449) scale(1.0321)"><path id="rect877" stroke-width="1pt" fill="#006" d="M0 15.937h992.13v496.06H0z"/><path id="path1241" d="M0 263.97L992.13 512V15.94L0 263.97z" fill-rule="evenodd" stroke-width="1pt" fill="#bd1021"/><path id="path1244" d="M992.13 42.512v442.91L106.3 263.962l885.83-221.46z" fill-rule="evenodd" stroke-width="1pt" fill="#fff"/><g id="g1279" stroke="#000" transform="translate(645.58 82.001) scale(1.3649)"><path id="path1211" stroke-linejoin="round" d="M131.81 174.07s-4.538-3.713.825-9.695c-2.888-2.475-.206-7.219-.206-7.219s-4.951-1.857.206-9.489c-3.713-2.475-2.063-8.045-2.063-8.045s-12.17-4.538-.618-8.869c-9.489 4.125-18.359-5.57-18.359-5.57l-13.82.413c-2.344-11.48-20.565-1.51-7.019-34.443-3.507-.619-7.426-1.65-11.345 1.238-3.92 2.887-15.058 9.075-21.659 2.887s4.331-15.058 4.538-15.264c.206-.206 14.645-7.632 16.708-12.582-.206-3.714-4.744-6.601-.619-14.646 4.744-7.632 33.826-14.852 47.036-17.327 6.394-2.888 9.282-8.457 9.282-8.457l1.444 5.363s29.291-8.664 30.735-12.79.619 3.714.619 3.714c11.551-1.032 26.196-10.932 28.259-6.395 9.695-1.856 28.26-10.107 28.26-10.107s6.394-.206 1.856 6.807c2.888 4.538-.825 8.458-1.031 8.458-.207 0 1.237 4.538-2.476 7.013 1.239 3.92-2.269 7.013-2.269 7.013s1.651 4.745-4.95 7.22c.619 4.125-3.713 4.95-3.713 4.95s.619 4.332-2.269 6.189c0 3.3-3.3 4.95-3.3 4.95s2.062 1.238-.826 3.3c-2.887 2.063-32.797 20.422-32.797 20.216 0-.207 21.865 3.919 23.309 4.744s17.946 11.758 17.946 11.758l-16.709 20.627s-18.564-2.062-19.389-1.031 3.919 1.444 4.95 3.094c1.032 1.65 2.682 5.57 5.982 5.157 3.301-.413-6.188 5.982-12.376 6.6 0 2.27 7.838 2.476 9.901.62 2.063-1.857-4.951 5.363-5.776 6.394s9.283-1.444 9.283-1.444-1.651 6.807-10.52 8.87c3.506 5.776 2.062 9.489 1.856 9.489s-5.776-5.776-11.139-4.745c1.444 5.57 5.776 10.726 7.014 11.552 1.237.825-9.695.618-11.139-2.476s-2.682 7.426 1.237 10.727c-4.537.206-8.457-2.476-8.457-2.476s-2.681 6.188-.825 9.283c1.857 3.094-6.394-6.19-6.394-6.19l-15.677 6.602-3.507-5.982z" fill-rule="evenodd" stroke-width="1.25" fill="#9c3900"/><path id="path1173" d="M10.652 161.79c.367 0 22.774-.368 33.06-6.245 5.143 8.081 12.122 13.591 12.122 13.591l3.306-11.754s8.081.367 8.816 2.204c-1.102 2.203-1.47 5.142-1.47 5.142s5.51.368 5.878 1.102c.367.735-1.47 6.979-1.47 6.979l23.51 5.51s1.836-9.183 3.673-8.081c1.836 1.102 9.918 12.489 21.305 13.224s12.122-9.551 12.122-9.551l2.57 1.47s4.776-10.285 5.51-10.285 1.838 1.469 8.082 1.469c1.837 2.204 2.572 7.346 2.572 7.346s-6.98 6.98-4.776 12.49 2.572 4.04 2.572 4.04l50.69 12.122s2.573 4.041-1.835 6.245c0 .367-51.06-11.755-51.06-11.755s-4.775 5.51-8.448 4.408-1.102 2.204-1.102 2.204l55.099 4.408s4.04 5.143 1.102 6.612c-3.673.367-59.507-3.673-59.507-3.673s-3.306 6.979-6.98 1.102c-2.57 4.04-5.51-1.102-5.51-1.102s-4.774 3.673-5.51-.368c-4.04 2.939-6.611-1.836-6.611-1.836l-23.51-1.47-1.469 2.204s4.041 1.102-2.204 3.674c-6.244 2.571 37.467 1.469 38.57 1.836 1.101.368-2.939 3.674-2.939 3.674s22.407 1.469 26.447-3.306c4.041-4.776-1.469 6.244-1.469 6.244s17.632-.734 17.632-1.469-.368 5.51-12.489 4.775c7.346 4.776 16.53 7.714 16.53 7.714s-9.184 2.204-19.836-.367c1.836 4.775 9.918 9.183 9.918 9.183s-5.878 5.143-19.102-7.347c3.674 6.612.735 9.184.368 8.449-.368-.735-6.612-9.918-21.305-13.224 9.183 5.877 5.142 8.449 5.142 8.449s-4.775-8.449-12.489 0c-2.939-7.714-14.326-12.122-28.284-12.857-4.408-5.142-6.979-3.673-17.264-6.612-5.877-6.611-14.326-13.958-14.326-13.958s.368-9.918 10.285-8.816c1.102 3.306 1.102 2.204 1.102 2.204s11.02-4.041 14.326 1.469c4.776-8.449 11.387-1.263 12.49 1.675 3.164.464 19.1.896 19.1.896s-1.837-3.306-.735-2.938c1.102.367 9.918-3.306 9.551-4.408-.368-1.102-.735-4.775.734-4.408 1.47.367-12.489-1.837-20.203 4.041-2.57-2.572-.734-9.551-.734-9.551l-22.774-4.775-1.102 5.877s-6.612 1.102-6.245-.367c.367-1.47-1.47 5.142-1.47 5.142s-8.815-2.204-8.815-2.571 2.571-13.224 2.571-12.857c0 .368-7.346.735-17.632 8.449-2.938-9.183-26.08-21.305-26.08-21.672z" fill-rule="evenodd" stroke-width="1pt" fill="#ffc221"/><path id="path1174" d="M66.487 165.1l-4.775 21.305" stroke-width="1pt" fill="none"/><path id="path1175" d="M70.894 173.18l-1.47 6.979" stroke-width="1pt" fill="none"/><path id="path1176" d="M94.404 178.69l-2.204 6.612" stroke-width="1pt" fill="none"/><path id="path1177" d="M135.18 223.5c-.367 0-11.754 1.469-13.224 1.102-1.469-.367 17.999 5.877 17.999 8.448" stroke-width="1pt" fill="none"/><path id="path1179" d="M114.61 226.08s-11.388-7.346-13.224-6.612c-1.837.735 11.387-.367 12.489-1.469" stroke-width="1pt" fill="none"/><path id="path1180" d="M91.098 217.63s-11.754.367-12.856-.735 11.387 8.081 13.591 7.347" stroke-width="1pt" fill="none"/><path id="path1181" d="M68.323 212.48c-.367 0-8.081-2.938-11.387-3.674 2.939 2.939 5.143 6.98 12.489 8.449" stroke-width="1pt" fill="none"/><path id="path1182" d="M71.262 207.71c-.367-.735-14.693-5.143-14.693-7.347 3.306 1.102 8.081 2.571 12.489 1.469" stroke-width="1pt" fill="none"/><path id="path1183" d="M147.3 190.81l-1.469 6.611" stroke-width="1pt" fill="none"/><path id="path1184" d="M39.304 131.67s-15.428 13.223 0 20.937c.735-5.143 1.837-5.877 1.837-5.877s12.856 4.775 20.57-6.612c-3.306-4.775-9.183-2.938-9.183-2.938s-12.122-.001-13.224-5.51z" fill-rule="evenodd" stroke-width="1pt" fill="#ffc221"/><path id="path1185" d="M52.161 137.55l-10.652 9.183" stroke-width="1pt" fill="none"/><path id="path1186" d="M84.969 201.33s2.455 2.707.251 6.013" stroke-width="1pt" fill="none"/><path id="path1187" d="M136.65 204.04l-4.04.368" stroke-width="1pt" fill="none"/><path id="path1188" d="M103.59 201.83l7.346 1.102" stroke-width="1pt" fill="none"/><path id="path1189" d="M123.35 182.94s.206 7.426-5.982 7.22c-6.188-.207-4.126.206-4.126.206" stroke-width="1pt" fill="none"/><path id="path1190" d="M128.1 181.7s2.475.825 1.857 2.682c-.619 1.856.618 7.219-6.601 12.376-7.633 1.65-6.807-6.394-6.807-6.394" stroke-width="1pt" fill="none"/><path id="path1191" d="M130.78 183.97s4.538-2.681 5.157 1.651c.618 4.331-3.713 12.376-6.807 13.614-3.095 1.237-6.601-.207-6.189-2.269" stroke-width="1pt" fill="none"/><path id="path1192" d="M136.35 185.83s4.126-3.301 5.363 1.031c1.238 4.332-3.3 14.027-5.157 14.233" stroke-width="1pt" fill="none"/><path id="path1193" d="M142.12 186.86s2.063-1.031 3.506.206" stroke-width="1pt" fill="none"/><path id="path1194" d="M135.52 201.71c-.825.206-4.332.412-5.569-2.269" stroke-width="1pt" fill="none"/><path id="path1195" d="M116.96 194.49c-.206 0-4.331.207-4.331.207" stroke-width="1pt" fill="none"/><path id="path1196" d="M132.84 210.79l-.412-6.807-1.65-2.269-2.888 2.888s-.413 6.807-1.65 7.426" stroke-width="1pt" fill="none"/><path id="path1197" d="M127.89 204.39a909.133 909.133 0 00-2.269-4.331l-3.507 4.331s-.412 6.189-1.65 6.808" stroke-width="1pt" fill="none"/><path id="path1198" d="M122.11 204.18c0-.206-1.444-4.125-1.444-4.125s-4.125 2.269-4.538 3.919c-.412 1.65-.619 6.188-1.65 6.601" stroke-width="1pt" fill="none"/><path id="path1199" d="M116.13 203.15s.413-3.713-.825-3.713c-1.237 0-6.807 5.157-7.013 9.695" stroke-width="1pt" fill="none"/><path id="path1200" stroke-linejoin="round" d="M39.811 131.78s2.063-2.063 2.682-4.538c.618-2.475-.825-5.157 1.65-7.426 2.475-2.269 35.066-16.089 37.748-18.771 2.681-2.681 7.632-8.457 8.25-9.695.62-1.237 2.476 6.189-3.093 9.489 5.982-1.65 9.9-3.507 12.376-2.682-2.476 3.507-9.076 9.283-12.17 9.283 7.22-2.682 13.82-4.951 15.677-3.507 1.856 1.444-8.87 8.664-13.202 9.076 7.22-1.856 16.915-4.744 18.152-1.65-3.92 1.238-2.682 2.268-10.726 6.807-1.032.826-6.188 1.031-6.188 1.031 6.188-.619 14.645-3.094 15.47 1.444-4.95 1.856-6.807 4.332-10.932 5.363-4.126 1.032-13.614 2.888-19.39 5.157s-14.233 8.87-14.233 8.87-18.358.619-18.358.412c0-.206-3.507-8.457-3.713-8.663z" fill-rule="evenodd" stroke-width="1pt" fill="#fff"/><path id="path1201" d="M48.474 130.34s.206-4.125 2.063-5.569c1.856-1.444 11.139-4.951 13.202-8.045 2.062-3.094-3.094 5.363-2.27 7.632" stroke-width="1pt" fill="none"/><path id="path1202" d="M52.187 124.15s4.538 1.651 3.507 5.157" stroke-width="1pt" fill="none"/><path id="path1203" d="M57.55 126.525a3.404 3.404 0 11-6.807 0 3.404 3.404 0 016.807 0z" stroke-width="1.158" fill="none"/><path id="path1205" d="M197.2 119.2l35.685 6.807s3.92-4.538 1.857-7.013c5.363-1.237 3.919-8.251 3.919-8.251s6.188-2.681 1.031-8.87c3.508-3.507-.825-6.188-.825-6.188s1.444-6.188-3.094-6.807c1.238-4.95-7.838-6.6-7.838-6.6s-18.771 5.156-31.973 5.569c4.332 4.331-1.65 7.013-1.65 7.013s3.507 2.475 2.475 4.538c-1.031 2.063.619 4.332-3.919 5.776 5.982 2.682-.619 7.219-.619 7.219s6.601 4.538 4.951 6.807z" fill-rule="evenodd" stroke-width="1pt" fill="#fff"/><path id="path1206" d="M193.69 111.57s31.56 3.713 33.004 3.713 7.013 1.857 8.045 3.713" stroke-width="1pt" fill="none"/><path id="path1207" d="M195.34 109.71l43.936 1.031" stroke-width="1pt" fill="none"/><path id="path1208" d="M195.55 108.68s41.667-2.475 44.555-6.807" stroke-width="1pt" fill="none"/><path id="path1209" d="M196.78 99.604s41.874-4.538 42.287-3.92" stroke-width="1pt" fill="none"/><path id="path1210" d="M195.34 94.447s40.636-6.394 41.048-5.363" stroke-width="1pt" fill="none"/><path id="path1212" d="M79.416 68.251s12.789 14.027 11.551 23.515" stroke-width="1pt" fill="none"/><path id="path1213" d="M90.142 84.34s4.125 5.982 5.776 6.6 16.09 1.445 16.915 7.633c.825 3.919-3.094 2.681-2.475 5.569 1.03 3.713 10.726 8.457 21.246 2.888" stroke-width="1pt" fill="none"/><path id="path1214" d="M121.91 109.92s8.663 12.789 21.452-1.031" stroke-width="1pt" fill="none"/><path id="path1215" d="M136.76 114.46s10.52 5.569 19.183-8.87" stroke-width="1pt" fill="none"/><path id="path1216" d="M144.8 115.69s5.157 4.332 15.884-1.443" stroke-width="1pt" fill="none"/><path id="path1217" d="M175.54 108.47s15.883 3.3 16.915 4.332" stroke-width="1pt" fill="none"/><path id="path1218" d="M181.52 104.97c.206 0 11.139.413 11.139.413" stroke-width="1pt" fill="none"/><path id="path1219" d="M174.71 98.779s18.977-1.238 21.453 2.682" stroke-width="1pt" fill="none"/><path id="path1220" d="M166.46 92.797s26.61 1.031 27.847 2.475" stroke-width="1pt" fill="none"/><path id="path1221" d="M172.44 120.02s4.538-1.237 5.157-.618" stroke-width="1pt" fill="none"/><path id="path1222" d="M162.13 131.16s5.982 5.157 13.615 2.888" stroke-width="1pt" fill="none"/><path id="path1223" d="M165.43 139.83s6.807 3.094 14.852 1.237" stroke-width="1pt" fill="none"/><path id="path1224" d="M167.7 144.98s6.807 4.538 11.345 3.712" stroke-width="1pt" fill="none"/><path id="path1225" d="M164.61 147.67s4.744 3.507 4.95 5.363" stroke-width="1pt" fill="none"/><path id="path1226" d="M158.01 151.79s1.444 7.425 6.601 10.107" stroke-width="1pt" fill="none"/><path id="path1227" d="M154.5 155.09s-2.269 9.695 3.507 15.677" stroke-width="1pt" fill="none"/><path id="path1228" d="M148.52 162.72c0 .206-.412 4.538-.206 4.951" stroke-width="1pt" fill="none"/><path id="path1229" d="M111.39 125.18l11.139-.619s4.125-1.65 1.237-4.331" stroke-width="1pt" fill="none"/><path id="path1230" d="M125.21 122.71c.207 0 10.52.825 13.202 3.919 2.681 3.094 5.982 9.282 7.838 10.314 1.857 1.031 2.269-.413 2.269-.413" stroke-width="1pt" fill="none"/><path id="path1231" d="M143.98 134.88s-5.569 9.489-1.237 12.377" stroke-width="1pt" fill="none"/><path id="path1232" d="M140.88 145.4s-4.95 6.601-1.031 9.901" stroke-width="1pt" fill="none"/><path id="path1233" d="M138.82 154.47s-3.919 6.395.826 10.726" stroke-width="1pt" fill="none"/><path id="path1235" d="M137.09 137.51c-.266.266-4.791 3.46-6.388 2.662" stroke-width="1pt" fill="none"/><path id="path1236" d="M132.3 147.62s1.863 1.863 3.46 1.597" stroke-width="1pt" fill="none"/><path id="path1237" d="M132.52 157.3l2.973 2.039" stroke-width="1pt" fill="none"/><path id="path1238" d="M132.92 164.71l2.572 1.552" stroke-width="1pt" fill="none"/><path id="path1246" d="M86.33 63.544s5.423 2.82 9.761 0c4.339-2.82 25.162-13.448 30.585-15.184 5.422-1.735 8.459-11.713 9.544-16.051" stroke-width="1pt" fill="none"/><path id="path1247" d="M132.1 44.022l30.368-8.893s4.989-4.122 5.206-11.713" stroke-width="1pt" fill="none"/><path id="path1248" d="M165.5 31.658s30.367-3.037 30.367-14.316" stroke-width="1pt" fill="none"/><path id="path1249" d="M191.1 25.15s31.886-8.676 34.923-11.93" stroke-width="1pt" fill="none"/><path id="path1250" d="M102.16 70.485s19.305-9.978 22.342-11.062c3.036-1.085 9.977-9.761-.434-9.761" stroke-width="1pt" fill="none"/><path id="path1251" d="M111.49 74.389c.217 0 15.834-10.195 21.04-11.496 2.82-3.904 1.302-8.026-3.47-7.158" stroke-width="1pt" fill="none"/><path id="path1252" d="M133.83 60.29c.434-.217 8.46-.434 5.64 5.857-4.12 3.036-21.908 11.93-21.908 11.93" stroke-width="1pt" fill="none"/><path id="path1253" d="M129.71 53.566l33.84-11.28s2.82-5.857-1.301-6.724" stroke-width="1pt" fill="none"/><path id="path1254" d="M190.45 25.367c0 .217 4.339 2.603 1.736 6.507-4.772 2.82-27.331 8.243-27.331 8.243" stroke-width="1pt" fill="none"/><path id="path1255" d="M224.72 21.897l-31.886 8.893" stroke-width="1pt" fill="none"/><path id="path1256" d="M222.33 29.055l-27.764 8.46" stroke-width="1pt" fill="none"/><path id="path1257" d="M219.95 35.996l-24.511 7.375" stroke-width="1pt" fill="none"/><path id="path1258" d="M215.39 42.937c-.651 0-18.22 5.423-18.22 5.423" stroke-width="1pt" fill="none"/><path id="path1259" d="M211.49 48.36l-11.28 4.555" stroke-width="1pt" fill="none"/><path id="path1260" d="M208.67 54.433c-.434 0-9.761 4.121-9.761 4.121" stroke-width="1pt" fill="none"/><path id="path1261" d="M205.85 59.422l-8.676 4.121" stroke-width="1pt" fill="none"/><path id="path1262" d="M190.88 68.75s1.085.434.868 1.735" stroke-width="1pt" fill="none"/><path id="path1263" d="M168.97 80.68s3.688 1.301.217 4.772c-1.735 2.386-6.724 1.735-9.761 6.074" stroke-width="1pt" fill="none"/><path id="path1264" d="M192.62 32.092s4.556 1.085 1.085 6.941c-9.111 3.47-27.548 9.11-27.548 9.11s-.867 1.519-3.253 2.82c-2.386 1.302-28.632 8.677-28.632 8.677" stroke-width="1pt" fill="none"/><path id="path1265" d="M194.14 38.816s4.989 2.17 0 5.857C188.5 47.926 168.761 54 168.761 54s-.217 1.735-1.084 2.386c-.868.65-26.897 9.327-26.897 9.327" stroke-width="1pt" fill="none"/><path id="path1266" d="M195.44 44.672s5.206 1.518.651 5.856c-5.423 3.254-22.776 9.11-22.776 9.11s-1.735 2.17-4.555 3.037c-2.82.868-20.823 8.243-20.823 8.243" stroke-width="1pt" fill="none"/><path id="path1267" d="M196.74 50.529c1.519.65 5.64 1.302.651 5.206-5.856 2.603-20.172 8.243-20.172 8.243l-1.302 2.386-22.775 9.76" stroke-width="1pt" fill="none"/><path id="path1268" d="M198.04 56.386s2.169 2.603-2.603 5.64c-5.206 2.82-16.485 7.158-16.485 7.158" stroke-width="1pt" fill="none"/><path id="path1269" d="M195.44 62.459s2.386 1.518-.65 3.688c-3.471 1.735-17.136 8.893-17.136 8.893l-8.894 5.856" stroke-width="1pt" fill="none"/><path id="path1270" d="M164.2 42.503c0 .217 3.688 3.254 2.386 6.724 3.254 2.386 2.603 4.99 2.603 4.99s4.555 2.602 3.905 6.29c4.555 1.084 4.338 3.687 4.338 3.687l-1.519 2.386s4.555-.217.651 5.64c2.386 1.301 1.302 2.82 1.302 2.82" stroke-width="1pt" fill="none"/><path id="path1271" d="M176.56 72.437c-.651 0-15.834 5.64-19.739 9.11" stroke-width="1pt" fill="none"/><path id="path1272" d="M139.91 65.713s4.555-.217 3.905 4.772c5.206-1.735 4.121 3.254 4.121 3.254s6.073-2.386 4.989 5.206c3.904-.868 3.253 3.036 3.253 3.036s3.471-.217 3.471 1.736c2.386-2.17 4.989-1.085 4.989-1.085s1.735-2.386 4.121-1.735" stroke-width="1pt" fill="none"/><path id="path1273" d="M144.03 70.268c0 .434-20.39 11.713-20.39 11.713" stroke-width="1pt" fill="none"/><path id="path1274" d="M147.93 73.955l-15.401 9.544" stroke-width="1pt" fill="none"/><path id="path1275" d="M153.14 78.727c0 .217-13.449 8.026-13.449 8.026" stroke-width="1pt" fill="none"/><path id="path1276" d="M156.18 81.764s-9.544 7.809-11.713 7.375" stroke-width="1pt" fill="none"/><path id="path1277" d="M159.43 84.15s-5.423 4.121-9.978 6.074" stroke-width="1pt" fill="none"/><path id="path1278" d="M165.07 82.415s1.735 2.17-9.11 7.809" stroke-width="1pt" fill="none"/></g></g></svg>