<svg id="svg1358" xmlns="http://www.w3.org/2000/svg" height="512" width="512" version="1.1"><defs id="defs1558"><clipPath id="clipPath3640" clipPathUnits="userSpaceOnUse"><path id="rect3642" fill="gray" d="M0 0h512v512H0z"/></clipPath></defs><g id="flag" clip-path="url(#clipPath3640)"><g id="g3442" transform="scale(2.3704)"><path id="path1359" fill="#39c" d="M0 0v216h324V0H0z"/><path id="path1553" fill="#ff0" d="M0 144v12h324v-12H0z"/><path id="path1555" fill="#ff0" d="M0 168v12h324v-12H0z"/></g><g id="g3256" transform="translate(7.806 -.498) scale(2.3804)"><path id="path1360" fill="#9cc" d="M48 12l1 1-1-1z"/><path id="path1362" fill="#9cc" d="M47 14l1 1-1-1m2 0l1 1-1-1z"/><path id="path1363" fill="#ccf" d="M47 15l1 1-1-1m2 0l1 1-1-1z"/><path id="path1364" fill="#6cc" d="M46 17l1 1-1-1z"/><path id="path1365" fill="#c66" d="M48 17l1 1-1-1z"/><path id="path1366" fill="#6cc" d="M50 17l1 1-1-1z"/><path id="path1367" fill="#ccf" d="M46 18l1 1-1-1z"/><path id="path1369" fill="#ccf" d="M50 18l1 1-1-1z"/><path id="path1370" fill="#fcc" d="M47 19l1 1-1-1m2 0l1 1-1-1z"/><path id="path1371" fill="#6cc" d="M45 20l1 1-1-1z"/><path id="path1372" d="M47.835 14.032l-7.01 26.574-26.652 7.238 26.575 6.936 7.087 26.574 7.086-26.574 26.575-7.087-26.575-7.087-7.086-26.574z" stroke="#fff" stroke-width="1.25" fill="#c00"/><path id="path1373" fill="#6cc" d="M51 20l1 1-1-1z"/><path id="path1374" fill="#9cf" d="M45 21l1 1-1-1m6 0l1 1-1-1z"/><path id="path1375" fill="#fcc" d="M46 22l1 1-1-1m4 0l1 1-1-1z"/><path id="path1376" fill="#69c" d="M44 23l1 1-1-1z"/><path id="path1377" fill="#c33" d="M46.333 23.667l.333.667-.333-.667m4 0l.333.667-.333-.667z"/><path id="path1378" fill="#69c" d="M52 23l1 1-1-1z"/><path id="path1379" fill="#9cf" d="M44 24l1 1-1-1m8 0l1 1-1-1z"/><path id="path1380" fill="#fcc" d="M45 25l1 1-1-1m6 0l1 1-1-1z"/><path id="path1381" fill="#69c" d="M43 26l1 1-1-1z"/><path id="path1383" fill="#69c" d="M53 26l1 1-1-1z"/><path id="path1384" fill="#9cc" d="M43 27l1 1-1-1m10 0l1 1-1-1z"/><path id="path1385" fill="#cff" d="M43 28l1 1-1-1m10 0l1 1-1-1z"/><path id="path1386" fill="#69c" d="M42 29l1 1-1-1z"/><path id="path1387" fill="#fcc" d="M44 29l1 1-1-1m8 0l1 1-1-1z"/><path id="path1388" fill="#69c" d="M54 29l1 1-1-1z"/><path id="path1389" fill="#9cc" d="M42 30l1 1-1-1z"/><path id="path1390" fill="#c33" d="M44.333 30.667l.333.667-.333-.667m8 0l.333.667-.333-.667z"/><path id="path1391" fill="#9cc" d="M54 30l1 1-1-1z"/><path id="path1392" fill="#cff" d="M42 31l1 1-1-1m12 0l1 1-1-1z"/><path id="path1393" fill="#fcc" d="M43 32l1 1-1-1m10 0l1 1-1-1z"/><path id="path1394" fill="#9cc" d="M41 33l1 1-1-1z"/><path id="path1395" fill="#c33" d="M43.333 33.667l.333.667-.333-.667m10 0l.333.667-.333-.667z"/><path id="path1396" fill="#9cc" d="M55 33l1 1-1-1z"/><path id="path1397" fill="#ccf" d="M41 34l1 1-1-1m14 0l1 1-1-1z"/><path id="path1398" fill="#fcc" d="M42 35l1 1-1-1m12 0l1 1-1-1z"/><path id="path1399" fill="#9cc" d="M40 36l1 1-1-1z"/><path id="path1400" fill="#c33" d="M42.333 36.667l.333.667-.333-.667m12 0l.333.667-.333-.667z"/><path id="path1401" fill="#9cc" d="M56 36l1 1-1-1z"/><path id="path1402" fill="#ccf" d="M40 37l1 1-1-1m16 0l1 1-1-1z"/><path id="path1403" fill="#fcc" d="M41 38l1 1-1-1m14 0l1 1-1-1z"/><path id="path1404" fill="#9cc" d="M39 39l1 1-1-1z"/><path id="path1405" fill="#c33" d="M41 39l1 1-1-1m14 0l1 1-1-1z"/><path id="path1406" fill="#9cc" d="M57 39l1 1-1-1m-21 1l1 1-1-1z"/><path id="path1407" fill="#ccf" d="M37 40l1 1-1-1m22 0l1 1-1-1z"/><path id="path1408" fill="#9cc" d="M60 40l1 1-1-1m-27 1l1 1-1-1z"/><path id="path1409" fill="#ccf" d="M34 41l1 1-1-1z"/><path id="path1410" fill="#fcc" d="M38 41l1 1-1-1z"/><path id="path1411" fill="#c33" d="M39 41l1 1-1-1m18 0l1 1-1-1z"/><path id="path1412" fill="#fcc" d="M58 41l1 1-1-1z"/><path id="path1413" fill="#ccf" d="M62 41l1 1-1-1z"/><path id="path1414" fill="#9cc" d="M63 41l1 1-1-1z"/><path id="path1415" fill="#69c" d="M29 42l1 1-1-1z"/><path id="path1416" fill="#9cc" d="M30 42l1 1-1-1z"/><path id="path1417" fill="#cff" d="M31 42l1 1-1-1z"/><path id="path1418" fill="#fcc" d="M35 42l1 1-1-1z"/><path id="path1419" fill="#c33" d="M36.667 42.333l.667.333-.667-.333m23 0l.667.333-.667-.333z"/><path id="path1420" fill="#fcc" d="M61 42l1 1-1-1z"/><path id="path1421" fill="#cff" d="M65 42l1 1-1-1z"/><path id="path1422" fill="#9cc" d="M66 42l1 1-1-1z"/><path id="path1423" fill="#69c" d="M67 42l1 1-1-1m-41 1l1 1-1-1z"/><path id="path1424" fill="#9cc" d="M27 43l1 1-1-1z"/><path id="path1425" fill="#cff" d="M28 43l1 1-1-1z"/><path id="path1426" fill="#fcc" d="M32 43l1 1-1-1z"/><path id="path1427" fill="#c33" d="M33.667 43.333l.667.333-.667-.333m29 0l.667.333-.667-.333z"/><path id="path1428" fill="#fcc" d="M64 43l1 1-1-1z"/><path id="path1429" fill="#cff" d="M68 43l1 1-1-1z"/><path id="path1430" fill="#9cc" d="M69 43l1 1-1-1z"/><path id="path1431" fill="#69c" d="M70 43l1 1-1-1m-47 1l1 1-1-1z"/><path id="path1432" fill="#9cf" d="M24 44l1 1-1-1z"/><path id="path1433" fill="#fcc" d="M29 44l1 1-1-1z"/><path id="path1434" fill="#c33" d="M30.667 44.333l.667.333-.667-.333m35 0l.667.333-.667-.333z"/><path id="path1435" fill="#fcc" d="M67 44l1 1-1-1z"/><path id="path1436" fill="#9cf" d="M72 44l1 1-1-1z"/><path id="path1437" fill="#69c" d="M73 44l1 1-1-1z"/><path id="path1438" fill="#6cc" d="M20 45l1 1-1-1z"/><path id="path1439" fill="#9cf" d="M21 45l1 1-1-1z"/><path id="path1440" fill="#fcc" d="M25 45l1 1-1-1z"/><path id="path1442" fill="#fcc" d="M71 45l1 1-1-1z"/><path id="path1443" fill="#9cf" d="M75 45l1 1-1-1z"/><path id="path1444" fill="#6cc" d="M76 45l1 1-1-1m-59 1l1 1-1-1z"/><path id="path1445" fill="#ccf" d="M18 46l1 1-1-1z"/><path id="path1446" fill="#fcc" d="M22 46l1 1-1-1z"/><path id="path1447" fill="#c33" d="M23.667 46.333l.667.333-.667-.333m49 0l.667.333-.667-.333z"/><path id="path1448" fill="#fcc" d="M74 46l1 1-1-1z"/><path id="path1449" fill="#ccf" d="M78 46l1 1-1-1z"/><path id="path1450" fill="#6cc" d="M79 46l1 1-1-1z"/><path id="path1451" fill="#9cc" d="M14 47l1 1-1-1z"/><path id="path1452" fill="#ccf" d="M15 47l1 1-1-1z"/><path id="path1453" fill="#fcc" d="M19 47l1 1-1-1z"/><path id="path1455" fill="#fcc" d="M77 47l1 1-1-1z"/><path id="path1456" fill="#ccf" d="M81 47l1 1-1-1z"/><path id="path1457" fill="#9cc" d="M82 47l1 1-1-1m-70 1l1 1-1-1z"/><path id="path1458" fill="#c66" d="M17 48l1 1-1-1z"/><path id="path1460" fill="#c66" d="M79 48l1 1-1-1z"/><path id="path1461" fill="#9cc" d="M84 48l1 1-1-1m-70 1l1 1-1-1z"/><path id="path1462" fill="#ccf" d="M15 49l1 1-1-1z"/><path id="path1463" fill="#fcc" d="M19 49l1 1-1-1m58 0l1 1-1-1z"/><path id="path1464" fill="#ccf" d="M81 49l1 1-1-1z"/><path id="path1465" fill="#9cc" d="M82 49l1 1-1-1z"/><path id="path1466" fill="#6cc" d="M17 50l1 1-1-1z"/><path id="path1467" fill="#ccf" d="M18 50l1 1-1-1z"/><path id="path1468" fill="#fcc" d="M22 50l1 1-1-1z"/><path id="path1469" fill="#c33" d="M23.667 50.333l.667.333-.667-.333m49 0l.667.333-.667-.333z"/><path id="path1470" fill="#fcc" d="M74 50l1 1-1-1z"/><path id="path1471" fill="#ccf" d="M78 50l1 1-1-1z"/><path id="path1472" fill="#6cc" d="M79 50l1 1-1-1m-59 1l1 1-1-1z"/><path id="path1473" fill="#9cf" d="M21 51l1 1-1-1z"/><path id="path1474" fill="#fcc" d="M25 51l1 1-1-1z"/><path id="path1476" fill="#fcc" d="M71 51l1 1-1-1z"/><path id="path1477" fill="#9cf" d="M75 51l1 1-1-1z"/><path id="path1478" fill="#6cc" d="M76 51l1 1-1-1z"/><path id="path1479" fill="#69c" d="M23 52l1 1-1-1z"/><path id="path1480" fill="#9cf" d="M24 52l1 1-1-1z"/><path id="path1481" fill="#fcc" d="M29 52l1 1-1-1z"/><path id="path1482" fill="#c33" d="M30.667 52.333l.667.333-.667-.333m35 0l.667.333-.667-.333z"/><path id="path1483" fill="#fcc" d="M67 52l1 1-1-1z"/><path id="path1484" fill="#9cf" d="M72 52l1 1-1-1z"/><path id="path1485" fill="#69c" d="M73 52l1 1-1-1m-47 1l1 1-1-1z"/><path id="path1486" fill="#9cc" d="M27 53l1 1-1-1z"/><path id="path1487" fill="#cff" d="M28 53l1 1-1-1z"/><path id="path1488" fill="#fcc" d="M32 53l1 1-1-1z"/><path id="path1489" fill="#c33" d="M33.667 53.333l.667.333-.667-.333m29 0l.667.333-.667-.333z"/><path id="path1490" fill="#fcc" d="M64 53l1 1-1-1z"/><path id="path1491" fill="#cff" d="M68 53l1 1-1-1z"/><path id="path1492" fill="#9cc" d="M69 53l1 1-1-1z"/><path id="path1493" fill="#69c" d="M70 53l1 1-1-1m-41 1l1 1-1-1z"/><path id="path1494" fill="#9cc" d="M30 54l1 1-1-1z"/><path id="path1495" fill="#cff" d="M31 54l1 1-1-1z"/><path id="path1496" fill="#fcc" d="M35 54l1 1-1-1z"/><path id="path1497" fill="#c33" d="M36.667 54.333l.667.333-.667-.333m23 0l.667.333-.667-.333z"/><path id="path1498" fill="#fcc" d="M61 54l1 1-1-1z"/><path id="path1499" fill="#cff" d="M65 54l1 1-1-1z"/><path id="path1500" fill="#9cc" d="M66 54l1 1-1-1z"/><path id="path1501" fill="#69c" d="M67 54l1 1-1-1z"/><path id="path1502" fill="#9cc" d="M33 55l1 1-1-1z"/><path id="path1503" fill="#ccf" d="M34 55l1 1-1-1z"/><path id="path1504" fill="#fcc" d="M38 55l1 1-1-1z"/><path id="path1505" fill="#c33" d="M39 55l1 1-1-1m18 0l1 1-1-1z"/><path id="path1506" fill="#fcc" d="M58 55l1 1-1-1z"/><path id="path1507" fill="#ccf" d="M62 55l1 1-1-1z"/><path id="path1508" fill="#9cc" d="M63 55l1 1-1-1m-27 1l1 1-1-1z"/><path id="path1509" fill="#ccf" d="M37 56l1 1-1-1m22 0l1 1-1-1z"/><path id="path1510" fill="#9cc" d="M60 56l1 1-1-1m-21 1l1 1-1-1z"/><path id="path1511" fill="#c33" d="M41 57l1 1-1-1m14 0l1 1-1-1z"/><path id="path1512" fill="#9cc" d="M57 57l1 1-1-1z"/><path id="path1513" fill="#fcc" d="M41 58l1 1-1-1m14 0l1 1-1-1z"/><path id="path1514" fill="#ccf" d="M40 59l1 1-1-1z"/><path id="path1515" fill="#c33" d="M42.333 59.667l.333.667-.333-.667m12 0l.333.667-.333-.667z"/><path id="path1516" fill="#ccf" d="M56 59l1 1-1-1z"/><path id="path1517" fill="#9cc" d="M40 60l1 1-1-1m16 0l1 1-1-1z"/><path id="path1518" fill="#fcc" d="M42 61l1 1-1-1m12 0l1 1-1-1z"/><path id="path1519" fill="#ccf" d="M41 62l1 1-1-1z"/><path id="path1520" fill="#c33" d="M43.333 62.667l.333.667-.333-.667m10 0l.333.667-.333-.667z"/><path id="path1521" fill="#ccf" d="M55 62l1 1-1-1z"/><path id="path1522" fill="#9cc" d="M41 63l1 1-1-1m14 0l1 1-1-1z"/><path id="path1523" fill="#fcc" d="M43 64l1 1-1-1m10 0l1 1-1-1z"/><path id="path1524" fill="#cff" d="M42 65l1 1-1-1z"/><path id="path1525" fill="#c33" d="M44.333 65.667l.333.667-.333-.667m8 0l.333.667-.333-.667z"/><path id="path1526" fill="#cff" d="M54 65l1 1-1-1z"/><path id="path1527" fill="#9cc" d="M42 66l1 1-1-1m12 0l1 1-1-1z"/><path id="path1528" fill="#69c" d="M42 67l1 1-1-1z"/><path id="path1529" fill="#fcc" d="M44 67l1 1-1-1m8 0l1 1-1-1z"/><path id="path1530" fill="#69c" d="M54 67l1 1-1-1z"/><path id="path1531" fill="#cff" d="M43 68l1 1-1-1z"/><path id="path1533" fill="#cff" d="M53 68l1 1-1-1z"/><path id="path1534" fill="#9cc" d="M43 69l1 1-1-1m10 0l1 1-1-1z"/><path id="path1535" fill="#69c" d="M43 70l1 1-1-1m10 0l1 1-1-1z"/><path id="path1536" fill="#fcc" d="M45 71l1 1-1-1m6 0l1 1-1-1z"/><path id="path1537" fill="#9cf" d="M44 72l1 1-1-1z"/><path id="path1538" fill="#c33" d="M46.333 72.667l.333.667-.333-.667m4 0l.333.667-.333-.667z"/><path id="path1539" fill="#9cf" d="M52 72l1 1-1-1z"/><path id="path1540" fill="#69c" d="M44 73l1 1-1-1m8 0l1 1-1-1z"/><path id="path1541" fill="#fcc" d="M46 74l1 1-1-1m4 0l1 1-1-1z"/><path id="path1542" fill="#9cf" d="M45 75l1 1-1-1z"/><path id="path1544" fill="#9cf" d="M51 75l1 1-1-1z"/><path id="path1545" fill="#6cc" d="M45 76l1 1-1-1m6 0l1 1-1-1z"/><path id="path1546" fill="#fcc" d="M47 77l1 1-1-1m2 0l1 1-1-1z"/><path id="path1547" fill="#ccf" d="M46 78l1 1-1-1m4 0l1 1-1-1z"/><path id="path1548" fill="#6cc" d="M46 79l1 1-1-1z"/><path id="path1549" fill="#c66" d="M48 79l1 1-1-1z"/><path id="path1550" fill="#6cc" d="M50 79l1 1-1-1z"/><path id="path1551" fill="#ccf" d="M47 81l1 1-1-1m2 0l1 1-1-1z"/><path id="path1552" fill="#9cc" d="M47 82l1 1-1-1m2 0l1 1-1-1m-1 2l1 1-1-1z"/></g></g></svg>