<svg id="svg618" xmlns="http://www.w3.org/2000/svg" height="512" width="512" version="1.0" y="0" x="0"><g id="flag" stroke-width="1pt"><g id="g646" fill-rule="evenodd" transform="scale(4.2667 8.5333)"><path id="rect622" fill="#c33" d="M0 20h120v20H0z"/><path id="rect621" fill="#09c" d="M0 0h120v20H0z"/><path id="rect623" fill="#093" d="M0 40h120v20H0z"/></g><g id="g575" transform="translate(-238.75 6.13) scale(8.3333)"><g id="g638"><path id="path637" fill="#fff" d="M66 30a8.995 8.995 0 01-8.993 9c-4.968.008-9.003-4.018-9.007-8.986A8.994 8.994 0 0156.978 21 8.995 8.995 0 0166 29.971V30z"/><path id="path636" fill="#c33" d="M66.5 30a7.396 7.396 0 01-7.394 7.4 7.396 7.396 0 01-7.406-7.388 7.396 7.396 0 017.382-7.412 7.396 7.396 0 017.418 7.376V30z"/></g><path id="polygon574" fill-rule="evenodd" fill="#fff" d="M63.464 33.536l1.226-2.579L62 30l2.69-.957-1.226-2.579 2.579 1.226L67 25l.957 2.69 2.579-1.226-1.226 2.579L72 30l-2.69.957 1.226 2.579-2.579-1.226L67 35l-.957-2.69z"/></g></g></svg>