<svg id="svg609" xmlns="http://www.w3.org/2000/svg" height="512" width="512" version="1.0" y="0" x="0"><defs id="defs611"><clipPath id="clipPath5084" clipPathUnits="userSpaceOnUse"><path id="rect5086" fill-opacity=".67" d="M0 0h512v512H0z"/></clipPath></defs><g id="flag" fill-rule="evenodd" clip-path="url(#clipPath5084)"><path id="rect614" fill="#009" d="M0 0h512v512H0z"/><path id="path615" d="M77 .006l436.91 436.91V.006H77z" fill="#fc0"/><g id="g629" fill="#fff" transform="translate(-93.246 54.433) scale(.43691)"><path id="polygon621" d="M304.67-43.357L326-109l21.33 65.643h69.02l-55.84 40.57 21.33 65.644L326 22.287l-55.84 40.57 21.33-65.644-55.84-40.57z"/><path id="polygon622" transform="translate(125 125)" d="M304.67-43.357L326-109l21.33 65.643h69.02l-55.84 40.57 21.33 65.644L326 22.287l-55.84 40.57 21.33-65.644-55.84-40.57z"/><path id="polygon616" transform="translate(250 250)" d="M304.67-43.357L326-109l21.33 65.643h69.02l-55.84 40.57 21.33 65.644L326 22.287l-55.84 40.57 21.33-65.644-55.84-40.57z"/><path id="polygon623" transform="translate(375 375)" d="M304.67-43.357L326-109l21.33 65.643h69.02l-55.84 40.57 21.33 65.644L326 22.287l-55.84 40.57 21.33-65.644-55.84-40.57z"/><path id="polygon624" transform="translate(500 500)" d="M304.67-43.357L326-109l21.33 65.643h69.02l-55.84 40.57 21.33 65.644L326 22.287l-55.84 40.57 21.33-65.644-55.84-40.57z"/><path id="polygon625" transform="translate(625 625)" d="M304.67-43.357L326-109l21.33 65.643h69.02l-55.84 40.57 21.33 65.644L326 22.287l-55.84 40.57 21.33-65.644-55.84-40.57z"/><path id="polygon626" transform="translate(750 750)" d="M304.67-43.357L326-109l21.33 65.643h69.02l-55.84 40.57 21.33 65.644L326 22.287l-55.84 40.57 21.33-65.644-55.84-40.57z"/><path id="polygon627" transform="translate(875 875)" d="M304.67-43.357L326-109l21.33 65.643h69.02l-55.84 40.57 21.33 65.644L326 22.287l-55.84 40.57 21.33-65.644-55.84-40.57z"/><path id="polygon628" transform="translate(1000 1000)" d="M304.67-43.357L326-109l21.33 65.643h69.02l-55.84 40.57 21.33 65.644L326 22.287l-55.84 40.57 21.33-65.644-55.84-40.57z"/></g></g></svg>