<svg id="svg548" xmlns="http://www.w3.org/2000/svg" height="512" width="512" version="1.1"><defs id="defs550"><clipPath id="clipPath3072" clipPathUnits="userSpaceOnUse"><path id="rect3074" fill="gray" d="M60.84 337h175v175h-175z"/></clipPath></defs><g id="flag" clip-path="url(#clipPath3072)" fill-rule="evenodd" transform="translate(-178 -985.97) scale(2.9257)"><path id="path551" d="M0 337l146.56 87.5L0 512z" stroke-width="1pt" fill="#00cf00"/><path id="path552" d="M293.12 337l-146.56 87.5L293.12 512z" stroke-width="1pt" fill="#00cf00"/><path id="path556" d="M0 337l146.56 87.5L293.12 337z" stroke-width="1pt" fill="red"/><path id="path557" d="M0 512l146.56-87.5L293.12 512z" stroke-width="1pt" fill="red"/><path id="path558" d="M293.12 337h-27.31L0 495.7v16.305h27.31l265.81-158.7z" stroke-width="1pt" fill="#fff"/><path id="path571" d="M196.84 88.136c0 27.948-22.656 50.604-50.604 50.604s-50.604-22.656-50.604-50.604 22.656-50.604 50.604-50.604 50.604 22.656 50.604 50.604z" transform="translate(.328 336.36)" fill="#fff"/><path id="path566" d="M0 337v16.305l265.81 158.7h27.31V495.7L27.31 337z" stroke-width="1pt" fill="#fff"/><path id="polygon576" stroke="#00de00" stroke-width="1pt" fill="red" d="M156.523 405.41l-6.58.11-3.4 5.62-3.39-5.63-6.57-.14 3.18-5.75-3.16-5.768 6.57-.113 3.41-5.625 3.39 5.638 6.57.14-3.19 5.748z"/><path id="polygon577" stroke="#00de00" stroke-width="1pt" fill="red" d="M134.48 443.57l-6.58.11-3.4 5.62-3.39-5.63-6.57-.14 3.18-5.75-3.16-5.768 6.57-.113 3.41-5.625 3.39 5.638 6.57.14-3.19 5.748z"/><path id="polygon578" stroke="#00de00" stroke-width="1pt" fill="red" d="M179.107 443.57l-6.58.11-3.4 5.62-3.39-5.63-6.57-.14 3.18-5.75-3.16-5.768 6.57-.113 3.41-5.625 3.39 5.638 6.57.14-3.19 5.748z"/></g></svg>