<svg id="svg378" xmlns="http://www.w3.org/2000/svg" height="512" width="512" version="1" y="0" x="0"><g id="flag" stroke-width="1pt"><path id="rect552" fill-rule="evenodd" fill="#229e45" d="M0 0h512v512H0z"/><g id="g3551" transform="translate(65.576 64.496) scale(.74806)"><path id="path554" d="M261.72 455.71l307.29-199.44L259.86 56.29l-308.3 200.46 310.16 198.96z" fill-rule="evenodd" fill="#f8e509"/><path id="path557" d="M293.25 149.98c0 41.878-34.418 75.827-76.874 75.827-42.457 0-76.874-33.949-76.874-75.827s34.418-75.827 76.874-75.827c42.457 0 76.874 33.949 76.874 75.827z" fill-rule="evenodd" transform="matrix(1.6911 0 0 1.7117 -100.3 -.715)" fill="#2b49a3"/><path id="polygon559" fill-rule="evenodd" transform="matrix(1.5567 0 0 1.5877 -132.89 162.78)" fill="#ffffef" d="M228.54 107.68l-2.58-1.46-2.68 1.3.6-2.92-2.07-2.14 2.96-.34 1.39-2.619 1.24 2.709 2.92.52-2.19 2.01z"/><path id="polygon560" fill-rule="evenodd" transform="matrix(1.5567 0 0 1.5877 -45.771 184.84)" fill="#ffffef" d="M228.54 107.68l-2.58-1.46-2.68 1.3.6-2.92-2.07-2.14 2.96-.34 1.39-2.619 1.24 2.709 2.92.52-2.19 2.01z"/><path id="polygon561" fill-rule="evenodd" transform="matrix(1.3448 0 0 1.3716 -34.894 172.87)" fill="#ffffef" d="M228.54 107.68l-2.58-1.46-2.68 1.3.6-2.92-2.07-2.14 2.96-.34 1.39-2.619 1.24 2.709 2.92.52-2.19 2.01z"/><path id="polygon562" fill-rule="evenodd" transform="matrix(1.3204 0 0 1.3467 58.669 162.88)" fill="#ffffef" d="M228.54 107.68l-2.58-1.46-2.68 1.3.6-2.92-2.07-2.14 2.96-.34 1.39-2.619 1.24 2.709 2.92.52-2.19 2.01z"/><path id="polygon563" fill-rule="evenodd" transform="matrix(1.5567 0 0 1.5877 -84.912 110.55)" fill="#ffffef" d="M228.54 107.68l-2.58-1.46-2.68 1.3.6-2.92-2.07-2.14 2.96-.34 1.39-2.619 1.24 2.709 2.92.52-2.19 2.01z"/><path id="polygon564" fill-rule="evenodd" transform="matrix(1.5567 0 0 1.5877 -192.18 70.278)" fill="#ffffef" d="M228.54 107.68l-2.58-1.46-2.68 1.3.6-2.92-2.07-2.14 2.96-.34 1.39-2.619 1.24 2.709 2.92.52-2.19 2.01z"/><path id="polygon565" fill-rule="evenodd" transform="matrix(1.5567 0 0 1.5877 -179.28 123.85)" fill="#ffffef" d="M228.54 107.68l-2.58-1.46-2.68 1.3.6-2.92-2.07-2.14 2.96-.34 1.39-2.619 1.24 2.709 2.92.52-2.19 2.01z"/><path id="polygon566" fill-rule="evenodd" transform="matrix(1.3751 0 0 1.4025 -3.919 70.499)" fill="#ffffef" d="M228.54 107.68l-2.58-1.46-2.68 1.3.6-2.92-2.07-2.14 2.96-.34 1.39-2.619 1.24 2.709 2.92.52-2.19 2.01z"/><path id="polygon567" fill-rule="evenodd" transform="matrix(1.083 0 0 1.1046 55.481 137.43)" fill="#ffffef" d="M228.54 107.68l-2.58-1.46-2.68 1.3.6-2.92-2.07-2.14 2.96-.34 1.39-2.619 1.24 2.709 2.92.52-2.19 2.01z"/><path id="polygon568" fill-rule="evenodd" transform="matrix(1.0393 0 0 1.06 -79.913 190.38)" fill="#ffffef" d="M228.54 107.68l-2.58-1.46-2.68 1.3.6-2.92-2.07-2.14 2.96-.34 1.39-2.619 1.24 2.709 2.92.52-2.19 2.01z"/><path id="polygon569" fill-rule="evenodd" transform="matrix(.84693 0 0 .79301 167.62 231.47)" fill="#ffffef" d="M228.54 107.68l-2.58-1.46-2.68 1.3.6-2.92-2.07-2.14 2.96-.34 1.39-2.619 1.24 2.709 2.92.52-2.19 2.01z"/><path id="polygon570" fill-rule="evenodd" transform="matrix(1.0393 0 0 1.06 -79.913 190.38)" fill="#ffffef" d="M228.54 107.68l-2.58-1.46-2.68 1.3.6-2.92-2.07-2.14 2.96-.34 1.39-2.619 1.24 2.709 2.92.52-2.19 2.01z"/><path id="polygon571" fill-rule="evenodd" transform="matrix(1.0393 0 0 1.06 -79.913 190.38)" fill="#ffffef" d="M228.54 107.68l-2.58-1.46-2.68 1.3.6-2.92-2.07-2.14 2.96-.34 1.39-2.619 1.24 2.709 2.92.52-2.19 2.01z"/><path id="polygon572" fill-rule="evenodd" transform="matrix(1.0393 0 0 1.06 -37.226 190.37)" fill="#ffffef" d="M228.54 107.68l-2.58-1.46-2.68 1.3.6-2.92-2.07-2.14 2.96-.34 1.39-2.619 1.24 2.709 2.92.52-2.19 2.01z"/><path id="polygon573" fill-rule="evenodd" transform="matrix(1.0393 0 0 1.06 -42.53 204.57)" fill="#ffffef" d="M228.54 107.68l-2.58-1.46-2.68 1.3.6-2.92-2.07-2.14 2.96-.34 1.39-2.619 1.24 2.709 2.92.52-2.19 2.01z"/><path id="polygon574" fill-rule="evenodd" transform="matrix(1.0393 0 0 1.06 46.108 178.72)" fill="#ffffef" d="M228.54 107.68l-2.58-1.46-2.68 1.3.6-2.92-2.07-2.14 2.96-.34 1.39-2.619 1.24 2.709 2.92.52-2.19 2.01z"/><path id="polygon575" fill-rule="evenodd" transform="matrix(1.0393 0 0 1.06 20.098 178.71)" fill="#ffffef" d="M228.54 107.68l-2.58-1.46-2.68 1.3.6-2.92-2.07-2.14 2.96-.34 1.39-2.619 1.24 2.709 2.92.52-2.19 2.01z"/><path id="polygon576" fill-rule="evenodd" transform="matrix(.65125 0 0 .66422 38.233 212.26)" fill="#ffffef" d="M228.54 107.68l-2.58-1.46-2.68 1.3.6-2.92-2.07-2.14 2.96-.34 1.39-2.619 1.24 2.709 2.92.52-2.19 2.01z"/><path id="polygon577" fill-rule="evenodd" transform="matrix(1.0393 0 0 1.06 120.35 213.95)" fill="#ffffef" d="M228.54 107.68l-2.58-1.46-2.68 1.3.6-2.92-2.07-2.14 2.96-.34 1.39-2.619 1.24 2.709 2.92.52-2.19 2.01z"/><path id="polygon578" fill-rule="evenodd" transform="matrix(.86091 0 0 .88028 139.46 236.14)" fill="#ffffef" d="M228.54 107.68l-2.58-1.46-2.68 1.3.6-2.92-2.07-2.14 2.96-.34 1.39-2.619 1.24 2.709 2.92.52-2.19 2.01z"/><path id="polygon579" fill-rule="evenodd" transform="matrix(.80183 0 0 .81855 163.18 242.54)" fill="#ffffef" d="M228.54 107.68l-2.58-1.46-2.68 1.3.6-2.92-2.07-2.14 2.96-.34 1.39-2.619 1.24 2.709 2.92.52-2.19 2.01z"/><path id="polygon580" fill-rule="evenodd" transform="matrix(.7723 0 0 .78768 199.27 220.26)" fill="#ffffef" d="M228.54 107.68l-2.58-1.46-2.68 1.3.6-2.92-2.07-2.14 2.96-.34 1.39-2.619 1.24 2.709 2.92.52-2.19 2.01z"/><path id="polygon581" fill-rule="evenodd" transform="matrix(1.0086 0 0 .97287 105.45 240.62)" fill="#ffffef" d="M228.54 107.68l-2.58-1.46-2.68 1.3.6-2.92-2.07-2.14 2.96-.34 1.39-2.619 1.24 2.709 2.92.52-2.19 2.01z"/><path id="polygon582" fill-rule="evenodd" transform="matrix(.91998 0 0 .97287 125.85 252.28)" fill="#ffffef" d="M228.54 107.68l-2.58-1.46-2.68 1.3.6-2.92-2.07-2.14 2.96-.34 1.39-2.619 1.24 2.709 2.92.52-2.19 2.01z"/><path id="polygon583" fill-rule="evenodd" transform="matrix(.7723 0 0 .78768 139.93 245.86)" fill="#ffffef" d="M228.54 107.68l-2.58-1.46-2.68 1.3.6-2.92-2.07-2.14 2.96-.34 1.39-2.619 1.24 2.709 2.92.52-2.19 2.01z"/><path id="polygon584" fill-rule="evenodd" transform="matrix(.7723 0 0 .78768 121.49 245.86)" fill="#ffffef" d="M228.54 107.68l-2.58-1.46-2.68 1.3.6-2.92-2.07-2.14 2.96-.34 1.39-2.619 1.24 2.709 2.92.52-2.19 2.01z"/><path id="polygon585" fill-rule="evenodd" transform="matrix(.7723 0 0 .78768 90.179 218.48)" fill="#ffffef" d="M228.54 107.68l-2.58-1.46-2.68 1.3.6-2.92-2.07-2.14 2.96-.34 1.39-2.619 1.24 2.709 2.92.52-2.19 2.01z"/><path id="polygon586" fill-rule="evenodd" transform="matrix(.65415 0 0 .66718 120.67 287.26)" fill="#ffffef" d="M228.54 107.68l-2.58-1.46-2.68 1.3.6-2.92-2.07-2.14 2.96-.34 1.39-2.619 1.24 2.709 2.92.52-2.19 2.01z"/><path id="polygon587" fill-rule="evenodd" transform="matrix(1.5567 0 0 1.5877 -132.89 97.877)" fill="#ffffef" d="M228.54 107.68l-2.58-1.46-2.68 1.3.6-2.92-2.07-2.14 2.96-.34 1.39-2.619 1.24 2.709 2.92.52-2.19 2.01z"/><path id="path726" d="M387.05 302.7c1.981-5.181 4.537-12.995 5.894-20.167-69.048-60.656-146.02-91.728-243.28-85.335-3.486 6.686-6.278 13.683-8.63 21.256 115.24-10.994 199.71 40.026 246.02 84.246z" stroke-opacity=".503" fill-rule="evenodd" fill="#fff"/><path id="path790" d="M356.01 268.6l2.467 1.347c-.387.875-.49 1.64-.315 2.292.182.66.636 1.233 1.359 1.722.767.524 1.452.753 2.056.692.61-.062 1.065-.312 1.36-.748.186-.28.263-.574.229-.88-.027-.307-.196-.673-.505-1.096-.213-.286-.733-.89-1.558-1.81-1.06-1.183-1.693-2.181-1.898-2.994-.283-1.144-.11-2.183.52-3.12a3.673 3.673 0 011.644-1.343c.699-.294 1.46-.361 2.283-.202.827.161 1.696.55 2.6 1.166 1.48 1.005 2.373 2.086 2.678 3.244.312 1.16.121 2.297-.574 3.41l-2.45-1.512c.307-.678.382-1.263.221-1.756-.15-.495-.56-.97-1.232-1.424-.69-.47-1.329-.695-1.912-.677a1.034 1.034 0 00-.873.478c-.189.28-.231.6-.13.96.13.457.68 1.216 1.655 2.277.972 1.06 1.635 1.925 1.988 2.596.361.67.525 1.366.49 2.089-.023.72-.29 1.455-.792 2.203a4.183 4.183 0 01-1.847 1.521c-.774.338-1.6.42-2.484.243-.878-.18-1.83-.617-2.852-1.314-1.49-1.01-2.404-2.133-2.738-3.364-.33-1.235-.128-2.57.61-4z" stroke-opacity=".502" fill="#309e3a"/><path id="path791" d="M344.31 260.92l2.52 1.244c-.351.889-.425 1.659-.223 2.303.211.65.683 1.206 1.427 1.667.79.491 1.481.693 2.082.607.61-.087 1.055-.352 1.33-.8.177-.286.24-.584.194-.889-.04-.306-.224-.666-.55-1.077-.224-.277-.765-.857-1.63-1.745-1.106-1.14-1.778-2.113-2.015-2.915-.329-1.132-.197-2.176.393-3.138a3.695 3.695 0 011.589-1.407c.689-.322 1.447-.421 2.274-.296.834.13 1.717.483 2.645 1.061 1.52.943 2.455 1.99 2.806 3.132.358 1.149.213 2.29-.435 3.43l-2.511-1.412c.28-.688.332-1.275.152-1.76-.17-.49-.6-.947-1.288-1.375-.71-.442-1.357-.64-1.937-.598-.376.026-.66.199-.854.514-.175.287-.208.606-.092.962.148.452.728 1.188 1.744 2.21 1.013 1.018 1.712 1.857 2.09 2.512.39.654.58 1.344.575 2.066.007.723-.232 1.466-.702 2.236a4.245 4.245 0 01-1.785 1.595c-.76.368-1.586.483-2.474.343-.882-.144-1.85-.547-2.902-1.199-1.528-.951-2.486-2.035-2.87-3.252-.382-1.222-.233-2.562.447-4.019z" stroke-opacity=".502" fill="#309e3a"/><path id="path792" d="M329.83 257.04l7.417-12.196 9.007 5.52L345 252.43l-6.553-4.018-1.647 2.703 6.099 3.738-1.25 2.054-6.099-3.736-2.017 3.319 6.786 4.16-1.251 2.055-9.238-5.664z" stroke-opacity=".502" fill="#309e3a"/><path id="path795" d="M308.74 239.72l1.1-2.141 5.505 2.85-2.595 5.058c-.805.243-1.816.301-3.04.173a9.525 9.525 0 01-3.38-1.005c-1.324-.685-2.335-1.556-3.034-2.62a6.035 6.035 0 01-.992-3.539c.039-1.297.37-2.554.995-3.773.677-1.323 1.56-2.353 2.641-3.098 1.076-.74 2.292-1.11 3.637-1.11 1.028-.004 2.145.31 3.354.932 1.572.815 2.627 1.78 3.165 2.9.549 1.118.65 2.324.303 3.623l-2.78-.837c.14-.715.057-1.38-.255-1.994-.302-.618-.822-1.116-1.557-1.497-1.118-.579-2.187-.683-3.215-.312-1.02.37-1.888 1.253-2.604 2.652-.776 1.508-1.025 2.812-.745 3.914.283 1.094.963 1.922 2.048 2.484a4.955 4.955 0 001.763.517c.651.067 1.244.05 1.787-.052l.826-1.612-2.927-1.513z" stroke-opacity=".502" fill="#309e3a"/><path id="path804" d="M216.76 216.91l2.073-14.135 4.253.63 1.144 10.017 3.935-9.269 4.267.63-2.071 14.137-2.641-.39 1.633-11.128-4.428 10.715-2.736-.406-1.156-11.539-1.632 11.126-2.641-.388z" stroke-opacity=".502" fill="#309e3a"/><path id="path805" d="M202.38 215.24l1.33-14.229 10.506.993-.222 2.406-7.647-.72-.296 3.154 7.113.67-.223 2.398-7.115-.671-.36 3.872 7.913.744-.222 2.4-10.777-1.017z" stroke-opacity=".502" fill="#309e3a"/><g id="g812" transform="matrix(1.397 -.89423 .89074 1.4025 -199.05 128.1)" stroke-opacity=".502"><path id="path810" d="M154.79 154.48c.49-.725 1.01-1.26 1.56-1.605a4.073 4.073 0 011.319-.529 3.356 3.356 0 011.356-.016c.57.112 1.145.364 1.724.755 1.048.71 1.666 1.602 1.853 2.676.192 1.078-.105 2.196-.888 3.354-.777 1.148-1.698 1.837-2.763 2.064-1.062.225-2.116-.016-3.16-.723-1.059-.716-1.681-1.607-1.87-2.673-.187-1.07.103-2.171.869-3.303z" fill="#309e3a"/><path id="path811" d="M156.31 155.43c-.545.805-.773 1.543-.683 2.212.091.666.424 1.193.997 1.58.572.387 1.181.499 1.824.336.649-.165 1.252-.66 1.811-1.485.551-.815.783-1.545.696-2.189-.085-.642-.423-1.163-1.015-1.564-.592-.4-1.207-.519-1.846-.357-.636.159-1.231.648-1.784 1.467z" fill="#f7ffff"/></g><g id="g815" transform="matrix(1.383 -.91592 .91234 1.3884 -199.32 133.77)" stroke-opacity=".502"><path id="path808" d="M160.44 163.42l4.814-7.115 3.023 2.046c.761.515 1.269.952 1.524 1.314.261.36.384.774.37 1.241s-.163.91-.448 1.331c-.361.534-.817.869-1.367 1.006-.548.134-1.165.035-1.851-.297.188.391.31.764.363 1.116.058.354.07.924.039 1.71l-.07 1.975-1.718-1.162.009-2.251c.006-.802-.012-1.321-.051-1.555a1.3 1.3 0 00-.232-.589c-.115-.157-.337-.348-.668-.571l-.29-.197-2.01 2.97-1.437-.972z" fill="#309e3a"/><path id="path809" d="M164.66 160.29l1.063.719c.689.467 1.139.729 1.35.787.211.057.413.048.606-.029s.362-.222.507-.435c.162-.24.228-.476.196-.709-.025-.234-.141-.45-.348-.646-.106-.095-.45-.34-1.032-.734l-1.121-.758-1.221 1.805z" fill="#fff"/></g><g id="g818" transform="matrix(1.4175 -.86112 .85776 1.4231 -194.72 119.26)" stroke-opacity=".502"><path id="path806" d="M172.42 161.16l2.626 1.776c.592.401 1.012.751 1.261 1.052.334.405.544.866.629 1.381a3.746 3.746 0 01-.101 1.615c-.152.558-.452 1.17-.903 1.836-.396.586-.811 1.041-1.243 1.367-.529.397-1.065.644-1.613.741-.412.075-.877.036-1.393-.115-.385-.114-.843-.351-1.374-.71l-2.702-1.828 4.813-7.115z" fill="#309e3a"/><path id="path807" d="M173.05 163.33l-3.188 4.713 1.073.725c.4.272.706.445.914.52.272.099.532.131.778.095.25-.034.53-.177.841-.429.314-.254.657-.656 1.029-1.206s.609-1.006.712-1.366c.102-.36.121-.681.058-.965a1.65 1.65 0 00-.438-.784c-.17-.181-.548-.47-1.134-.866l-.645-.437z" fill="#fff"/></g><g id="g824" transform="matrix(1.5511 -.58458 .58229 1.5572 -164.55 46.058)" stroke-opacity=".502"><path id="path800" d="M200.75 190.69l4.813-7.115 2.306 1.56c.873.591 1.419 1.012 1.636 1.263.335.382.519.846.551 1.391.034.542-.141 1.096-.524 1.662-.295.437-.622.751-.983.941-.359.191-.72.288-1.082.294a2.513 2.513 0 01-.97-.168c-.388-.164-.908-.466-1.558-.906l-.936-.634-1.816 2.684-1.437-.972z" fill="#309e3a"/><path id="path801" d="M206.19 185.75l-1.366 2.019.786.532c.567.383.97.602 1.211.656a1.138 1.138 0 001.222-.489c.175-.259.244-.523.206-.794a1.201 1.201 0 00-.364-.706c-.15-.149-.483-.398-1.001-.748l-.694-.47z" fill="#fff"/></g><g id="g827" transform="matrix(1.6028 -.42116 .41952 1.6091 -143.19 2.888)" stroke-opacity=".502"><path id="path798" d="M207.39 195.18l4.813-7.114 3.024 2.046c.761.514 1.269.952 1.524 1.313.261.361.384.774.37 1.241s-.163.911-.448 1.331c-.361.534-.817.869-1.367 1.006-.548.134-1.165.035-1.851-.296.188.391.31.763.363 1.115.058.355.07.925.039 1.71l-.07 1.976-1.718-1.162.009-2.251c.005-.803-.012-1.321-.051-1.556a1.301 1.301 0 00-.232-.588c-.115-.158-.337-.348-.668-.572l-.29-.197-2.01 2.971-1.437-.973z" fill="#309e3a"/><path id="path799" d="M211.6 192.05l1.063.719c.689.466 1.138.728 1.349.785a.933.933 0 00.607-.028c.193-.076.362-.222.506-.435.162-.24.228-.476.197-.709-.025-.234-.142-.449-.348-.646-.106-.095-.45-.339-1.032-.733l-1.121-.759-1.221 1.806z" fill="#fff"/></g><g id="g830" transform="matrix(1.5864 -.47997 .47809 1.5926 -149.72 20.414)" stroke-opacity=".502"><path id="path796" d="M216.64 196.32c.491-.725 1.011-1.26 1.559-1.605.408-.253.847-.43 1.321-.529a3.37 3.37 0 011.355-.017c.571.112 1.145.364 1.724.756 1.049.709 1.666 1.601 1.854 2.676.191 1.077-.105 2.195-.889 3.353-.777 1.149-1.698 1.837-2.762 2.065-1.062.225-2.116-.017-3.161-.724-1.058-.715-1.681-1.606-1.87-2.672-.187-1.07.103-2.171.869-3.303z" fill="#309e3a"/><path id="path797" d="M218.16 197.28c-.545.805-.773 1.542-.683 2.212.092.665.424 1.192.997 1.58.573.387 1.18.499 1.824.335.649-.164 1.253-.659 1.811-1.484.552-.816.784-1.545.696-2.19-.084-.641-.423-1.163-1.015-1.563-.592-.401-1.207-.52-1.845-.357-.636.159-1.231.648-1.785 1.467z" fill="#fff"/></g><g id="g833" transform="matrix(1.6454 -.19485 .19409 1.6519 -103.71 -53.916)" stroke-opacity=".502"><path id="path793" d="M230.03 210.5l4.813-7.115 3.024 2.046c.76.515 1.268.952 1.524 1.314.26.36.384.774.37 1.241s-.164.91-.448 1.331c-.361.534-.817.869-1.368 1.006-.548.134-1.164.035-1.85-.297.188.391.309.764.363 1.116.057.355.07.924.039 1.71l-.071 1.975-1.717-1.162.008-2.25c.005-.804-.011-1.322-.051-1.556a1.294 1.294 0 00-.232-.589c-.114-.157-.337-.348-.667-.571l-.291-.197-2.009 2.97-1.437-.972z" fill="#309e3a"/><path id="path794" d="M234.24 207.36l1.063.719c.689.467 1.139.728 1.35.786a.94.94 0 00.607-.028c.193-.077.361-.222.506-.436.162-.239.227-.475.197-.708-.026-.234-.142-.45-.348-.646-.106-.095-.45-.34-1.033-.734l-1.12-.758-1.222 1.805z" fill="#fff"/></g><g id="g836" transform="matrix(1.6568 0 0 1.6633 -60.955 -99.344)" stroke-opacity=".502"><path id="path788" d="M259.17 225.1c.49-.725 1.01-1.26 1.56-1.605a4.078 4.078 0 011.32-.529 3.388 3.388 0 011.355-.017c.571.113 1.146.365 1.725.757 1.048.709 1.666 1.601 1.854 2.676.191 1.077-.106 2.194-.89 3.353-.777 1.148-1.697 1.837-2.761 2.065-1.063.224-2.116-.017-3.162-.724-1.057-.716-1.681-1.607-1.87-2.673-.187-1.07.103-2.171.869-3.303z" fill="#309e3a"/><path id="path789" d="M260.69 226.05c-.545.806-.773 1.543-.684 2.212.093.666.425 1.192.997 1.58.573.387 1.181.499 1.825.336.649-.165 1.253-.659 1.811-1.485.551-.815.783-1.545.695-2.189-.085-.642-.423-1.163-1.015-1.564s-1.207-.52-1.845-.357c-.636.159-1.23.649-1.784 1.467z" fill="#fff"/></g><path id="path872" d="M241.76 219.84l2.292-10.031 7.408 1.708-.386 1.695-5.389-1.241-.513 2.223 5.02 1.158-.39 1.687-5.012-1.153-.626 2.728 5.58 1.285-.385 1.692-7.599-1.751z" stroke-opacity=".502" fill="#309e3a"/></g></g></svg>