<svg id="svg548" xmlns="http://www.w3.org/2000/svg" height="512" width="512" version="1.1"><defs id="defs550"><clipPath id="clipPath5478" clipPathUnits="userSpaceOnUse"><path id="rect5480" fill-opacity=".67" d="M-.001 0h496.06v496.06H-.001z"/></clipPath></defs><g id="flag" fill-rule="evenodd" clip-path="url(#clipPath5478)" transform="translate(.001) scale(1.0321)"><path id="rect1535" stroke-width="1pt" fill="#b20000" d="M0 0h992.13v329.53H0z"/><path id="rect2026" stroke-width="1pt" fill="#429f00" d="M0 329.53h992.13v166.54H0z"/><path id="rect1291" stroke-width="1.334" fill="#fff" d="M0 0h109.84v496.06H0z"/><g id="g1528" stroke-width="1pt" fill="#b20000" transform="matrix(.29524 0 0 .23729 141.23 142.93)"><path id="rect557" transform="matrix(5 0 0 5 549.21 -35.433)" d="M-201.97-106.3h3.543v7.087h-3.543z"/><path id="rect560" transform="matrix(5 0 0 5 549.21 -35.433)" d="M-191.34-106.3h10.63v7.087h-10.63z"/><path id="rect561" transform="matrix(5 0 0 5 549.21 -35.433)" d="M-187.8-113.39h3.543v7.087h-3.543z"/><path id="rect562" transform="matrix(5 0 0 5 549.21 -35.433)" d="M-170.08-113.39h3.543v7.087h-3.543z"/><path id="rect563" transform="matrix(5 0 0 5 549.21 -35.433)" d="M-155.91-106.3h10.63v7.087h-10.63z"/><path id="rect564" transform="matrix(5 0 0 5 549.21 -35.433)" d="M-152.36-113.39h3.543v7.087h-3.543z"/><path id="rect565" transform="matrix(5 0 0 5 549.21 -35.433)" d="M-194.88-99.213h7.087v7.087h-7.087z"/><path id="rect566" transform="matrix(5 0 0 5 549.21 -35.433)" d="M-184.25-99.213h7.087v7.087h-7.087z"/><path id="rect567" transform="matrix(5 0 0 5 549.21 -35.433)" d="M-159.45-99.213h7.087v7.087h-7.087z"/><path id="rect568" transform="matrix(5 0 0 5 549.21 -35.433)" d="M-148.82-99.213h7.087v7.087h-7.087z"/><path id="rect569" transform="matrix(5 0 0 5 549.21 -35.433)" d="M-198.43-92.126h7.087v7.087h-7.087z"/><path id="rect570" transform="matrix(5 0 0 5 549.21 -35.433)" d="M-180.71-92.126h7.087v7.087h-7.087z"/><path id="rect571" transform="matrix(5 0 0 5 549.21 -35.433)" d="M-162.99-92.126h7.087v7.087h-7.087z"/><path id="rect572" transform="matrix(5 0 0 5 549.21 -35.433)" d="M-145.28-92.126h7.087v7.087h-7.087z"/><path id="rect573" transform="matrix(5 0 0 5 549.21 -35.433)" d="M-138.19-106.3h3.543v7.087h-3.543z"/><path id="rect574" transform="matrix(5 0 0 5 549.21 -35.433)" d="M-201.97-85.039h7.087v7.087h-7.087z"/><path id="rect575" transform="matrix(5 0 0 5 549.21 -35.433)" d="M-177.17-85.039h7.087v7.087h-7.087z"/><path id="rect576" transform="matrix(5 0 0 5 549.21 -35.433)" d="M-141.73-85.039h7.087v7.087h-7.087z"/><path id="rect577" transform="matrix(5 0 0 5 549.21 -35.433)" d="M-198.43-63.78h7.087v7.087h-7.087z"/><path id="rect578" transform="matrix(5 0 0 5 549.21 -35.433)" d="M-194.88-56.693h7.087v7.087h-7.087z"/><path id="rect580" transform="matrix(5 0 0 5 549.21 -35.433)" d="M-180.71-63.78h7.087v7.087h-7.087z"/><path id="rect581" transform="matrix(5 0 0 5 549.21 -35.433)" d="M-184.25-56.693h7.087v7.087h-7.087z"/><path id="rect582" transform="matrix(5 0 0 5 549.21 -35.433)" d="M-191.34-49.606h10.63v7.087h-10.63z"/><path id="rect583" transform="matrix(5 0 0 5 549.21 -35.433)" d="M-187.8-42.52h3.543v7.087h-3.543z"/><path id="rect584" transform="matrix(5 0 0 5 549.21 -35.433)" d="M-162.99-63.779h7.087v7.087h-7.087z"/><path id="rect585" transform="matrix(5 0 0 5 549.21 -35.433)" d="M-159.45-56.693h7.087v7.087h-7.087z"/><path id="rect587" transform="matrix(5 0 0 5 549.21 -35.433)" d="M-145.28-63.78h7.087v7.087h-7.087z"/><path id="rect588" transform="matrix(5 0 0 5 549.21 -35.433)" d="M-148.82-56.693h7.087v7.087h-7.087z"/><path id="rect589" transform="matrix(5 0 0 5 549.21 -35.433)" d="M-155.91-49.606h10.63v7.087h-10.63z"/><path id="rect590" transform="matrix(5 0 0 5 549.21 -35.433)" d="M-152.36-42.52h3.543v7.087h-3.543z"/><path id="rect591" transform="matrix(5 0 0 5 549.21 -35.433)" d="M-170.08-49.606h3.543v7.087h-3.543z"/><path id="rect592" transform="matrix(5 0 0 5 549.21 -35.433)" d="M-205.51-49.606h3.543v7.087h-3.543z"/><path id="rect593" transform="matrix(5 0 0 5 549.21 -35.433)" d="M-134.65-49.606h3.543v7.087h-3.543z"/><path id="rect594" transform="matrix(5 0 0 5 549.21 -35.433)" d="M-187.8-14.173h3.543v7.087h-3.543z"/><path id="rect595" transform="matrix(5 0 0 5 549.21 -35.433)" d="M-191.34-7.087h10.63V0h-10.63z"/><path id="rect596" transform="matrix(5 0 0 5 549.21 -35.433)" d="M-194.88 0h17.717v7.087h-17.717z"/><path id="rect597" transform="matrix(5 0 0 5 549.21 -35.433)" d="M-152.36-14.173h3.543v7.087h-3.543z"/><path id="rect598" transform="matrix(5 0 0 5 549.21 -35.433)" d="M-155.91-7.087h10.63V0h-10.63z"/><path id="rect599" transform="matrix(5 0 0 5 549.21 -35.433)" d="M-159.45 0h17.717v7.087h-17.717z"/><path id="rect600" transform="matrix(5 0 0 5 549.21 -35.433)" d="M-155.91 35.433h17.717v7.087h-17.717z"/><path id="rect601" transform="matrix(5 0 0 5 549.21 -35.433)" d="M-162.99 7.087h24.803v7.087h-24.803z"/><path id="rect602" transform="matrix(5 0 0 5 549.21 -35.433)" d="M-198.43 7.087h24.803v7.087h-24.803z"/><path id="rect604" transform="matrix(5 0 0 5 549.21 -35.433)" d="M-194.88 42.52h10.63v7.087h-10.63z"/><path id="rect605" transform="matrix(5 0 0 5 549.21 -35.433)" d="M-198.43 35.433h17.717v7.087h-17.717z"/><path id="rect606" transform="matrix(5 0 0 5 549.21 -35.433)" d="M-148.82 21.26h17.717v7.087h-17.717z"/><path id="rect607" transform="matrix(5 0 0 5 549.21 -35.433)" d="M-152.36 42.52h10.63v7.087h-10.63z"/><path id="rect609" transform="matrix(5 0 0 5 549.21 -35.433)" d="M-191.34 49.606h3.543v7.087h-3.543z"/><path id="rect610" transform="matrix(5 0 0 5 549.21 -35.433)" d="M-148.82 49.606h3.543v7.087h-3.543z"/><path id="rect611" transform="matrix(5 0 0 5 549.21 -35.433)" d="M-205.51 21.26h17.717v7.087h-17.717z"/><path id="rect612" transform="matrix(5 0 0 5 549.21 -35.433)" d="M-173.62 35.433h10.63v7.087h-10.63z"/><path id="rect614" transform="matrix(5 0 0 5 549.21 -35.433)" d="M-170.08 42.52h3.543v7.087h-3.543z"/><path id="rect615" transform="matrix(5 0 0 5 549.21 -35.433)" d="M-180.71 21.26h24.803v7.087h-24.803z"/><path id="rect616" transform="matrix(5 0 0 5 549.21 -35.433)" d="M-166.54-85.039h7.087v7.087h-7.087z"/><path id="rect617" transform="matrix(5 0 0 5 549.21 -35.433)" d="M-173.62-77.953h10.63v7.087h-10.63z"/><path id="rect618" transform="matrix(5 0 0 5 549.21 -35.433)" d="M-177.17-70.866h7.087v7.087h-7.087z"/><path id="rect619" transform="matrix(5 0 0 5 549.21 -35.433)" d="M-166.54-70.866h7.087v7.087h-7.087z"/><path id="rect620" transform="matrix(5 0 0 5 549.21 -35.433)" d="M-205.51-77.953h7.087v7.087h-7.087z"/><path id="rect621" transform="matrix(5 0 0 5 549.21 -35.433)" d="M-201.97-70.866h7.087v7.087h-7.087z"/><path id="rect622" transform="matrix(5 0 0 5 549.21 -35.433)" d="M-138.19-77.953h7.087v7.087h-7.087z"/><path id="rect623" transform="matrix(5 0 0 5 549.21 -35.433)" d="M-141.73-70.866h7.087v7.087h-7.087z"/><path id="rect624" transform="matrix(5 0 0 5 549.21 -35.433)" d="M-205.51-7.087h3.543V0h-3.543z"/><path id="rect625" transform="matrix(5 0 0 5 549.21 -35.433)" d="M-134.65-7.087h3.543V0h-3.543z"/><path id="rect664" transform="matrix(5 0 0 5 549.21 -35.433)" d="M-173.62 49.606h10.63v7.087h-10.63z"/><path id="rect665" transform="matrix(5 0 0 5 549.21 -35.433)" d="M-177.17 56.693h7.087v7.087h-7.087z"/><path id="rect666" transform="matrix(5 0 0 5 549.21 -35.433)" d="M-166.54 56.693h7.087v7.087h-7.087z"/><path id="rect667" transform="matrix(5 0 0 5 549.21 -35.433)" d="M-180.71 63.78h7.087v7.087h-7.087z"/><path id="rect668" transform="matrix(5 0 0 5 549.21 -35.433)" d="M-162.99 63.78h7.087v7.087h-7.087z"/><path id="rect669" transform="matrix(5 0 0 5 549.21 -35.433)" d="M-184.25 70.866h7.087v7.087h-7.087z"/><path id="rect670" transform="matrix(5 0 0 5 549.21 -35.433)" d="M-159.45 70.866h7.087v7.087h-7.087z"/><path id="rect671" transform="matrix(5 0 0 5 549.21 -35.433)" d="M-187.8 77.953h7.087v7.087h-7.087z"/><path id="rect672" transform="matrix(5 0 0 5 549.21 -35.433)" d="M-155.91 77.953h7.087v7.087h-7.087z"/><path id="rect673" transform="matrix(5 0 0 5 549.21 -35.433)" d="M-194.88 85.039h10.63v7.087h-10.63z"/><path id="rect674" transform="matrix(5 0 0 5 549.21 -35.433)" d="M-152.36 85.039h10.63v7.087h-10.63z"/><path id="rect675" transform="matrix(5 0 0 5 549.21 -35.433)" d="M-145.28 77.953h7.087v7.087h-7.087z"/><path id="rect676" transform="matrix(5 0 0 5 549.21 -35.433)" d="M-141.73 70.866h7.087v7.087h-7.087z"/><path id="rect677" transform="matrix(5 0 0 5 549.21 -35.433)" d="M-138.19 63.78h7.087v7.087h-7.087z"/><path id="rect680" transform="matrix(5 0 0 5 549.21 -35.433)" d="M-198.43 77.953h7.087v7.087h-7.087z"/><path id="rect681" transform="matrix(5 0 0 5 549.21 -35.433)" d="M-201.97 70.866h7.087v7.087h-7.087z"/><path id="rect682" transform="matrix(5 0 0 5 549.21 -35.433)" d="M-205.51 63.78h7.087v7.087h-7.087z"/><path id="rect683" transform="matrix(5 0 0 5 549.21 -35.433)" d="M-191.34 92.126h3.543v7.087h-3.543z"/><path id="rect685" transform="matrix(5 0 0 5 549.21 -35.433)" d="M-148.82 92.126h3.543v7.087h-3.543z"/><path id="rect708" transform="matrix(5 0 0 5 549.21 -35.433)" d="M-170.08 70.866h3.543v7.087h-3.543z"/><path id="rect709" transform="matrix(5 0 0 5 549.21 -35.433)" d="M-180.71 92.126h3.543v7.087h-3.543z"/><path id="rect711" transform="matrix(5 0 0 5 549.21 -35.433)" d="M-159.45 92.126h3.543v7.087h-3.543z"/><path id="rect712" transform="matrix(5 0 0 5 549.21 -35.433)" d="M-170.08 92.126h3.543v7.087h-3.543z"/><path id="rect721" transform="matrix(5 0 0 5 549.21 -35.433)" d="M-205.51 92.126h3.543v7.087h-3.543z"/><path id="rect722" transform="matrix(5 0 0 5 549.21 -35.433)" d="M-134.65 92.126h3.543v7.087h-3.543z"/><path id="rect723" transform="matrix(5 0 0 5 549.21 -35.433)" d="M-170.08-7.087h3.543V0h-3.543z"/><path id="rect881" transform="matrix(5 0 0 5 549.21 -35.433)" d="M-187.8-77.953h3.543v7.087h-3.543z"/><path id="rect882" transform="matrix(5 0 0 5 549.21 -35.433)" d="M-152.36-77.953h3.543v7.087h-3.543z"/><path id="rect883" transform="matrix(5 0 0 5 549.21 -35.433)" d="M-173.62-28.346h10.63v7.087h-10.63z"/><path id="rect887" transform="matrix(5 0 0 5 549.21 -35.433)" d="M-180.71-21.26h10.63v7.087h-10.63z"/><path id="rect888" transform="matrix(5 0 0 5 549.21 -35.433)" d="M-177.17-14.173h3.543v7.087h-3.543z"/><path id="rect889" transform="matrix(5 0 0 5 549.21 -35.433)" d="M-184.25-28.346h7.087v7.087h-7.087z"/><path id="rect890" transform="matrix(5 0 0 5 549.21 -35.433)" d="M-180.71-35.433h10.63v7.087h-10.63z"/><path id="rect891" transform="matrix(5 0 0 5 549.21 -35.433)" d="M-177.17-42.52h3.543v7.087h-3.543z"/><path id="rect893" transform="matrix(5 0 0 5 549.21 -35.433)" d="M-166.54-35.433h10.63v7.087h-10.63z"/><path id="rect894" transform="matrix(5 0 0 5 549.21 -35.433)" d="M-162.99-42.52h3.543v7.087h-3.543z"/><path id="rect895" transform="matrix(5 0 0 5 549.21 -35.433)" d="M-159.45-28.346h7.087v7.087h-7.087z"/><path id="rect896" transform="matrix(5 0 0 5 549.21 -35.433)" d="M-166.54-21.26h10.63v7.087h-10.63z"/><path id="rect897" transform="matrix(5 0 0 5 549.21 -35.433)" d="M-162.99-14.173h3.543v7.087h-3.543z"/><path id="rect898" transform="matrix(5 0 0 5 549.21 -35.433)" d="M-148.82-28.346h7.087v7.087h-7.087z"/><path id="rect901" transform="matrix(5 0 0 5 549.21 -35.433)" d="M-145.28-35.433h10.63v7.087h-10.63z"/><path id="rect902" transform="matrix(5 0 0 5 549.21 -35.433)" d="M-138.19-28.346h7.087v7.087h-7.087z"/><path id="rect903" transform="matrix(5 0 0 5 549.21 -35.433)" d="M-145.28-21.26h10.63v7.087h-10.63z"/><path id="rect904" transform="matrix(5 0 0 5 549.21 -35.433)" d="M-141.73-14.173h3.543v7.087h-3.543z"/><path id="rect905" transform="matrix(5 0 0 5 549.21 -35.433)" d="M-141.73-42.52h3.543v7.087h-3.543z"/><path id="rect907" transform="matrix(5 0 0 5 549.21 -35.433)" d="M-205.51-28.346h7.087v7.087h-7.087z"/><path id="rect908" transform="matrix(5 0 0 5 549.21 -35.433)" d="M-201.97-35.433h10.63v7.087h-10.63z"/><path id="rect909" transform="matrix(5 0 0 5 549.21 -35.433)" d="M-194.88-28.346h7.087v7.087h-7.087z"/><path id="rect910" transform="matrix(5 0 0 5 549.21 -35.433)" d="M-201.97-21.26h10.63v7.087h-10.63z"/><path id="rect911" transform="matrix(5 0 0 5 549.21 -35.433)" d="M-198.43-14.173h3.543v7.087h-3.543z"/><path id="rect912" transform="matrix(5 0 0 5 549.21 -35.433)" d="M-198.43-42.52h3.543v7.087h-3.543z"/><path id="rect913" transform="matrix(5 0 0 5 549.21 -35.433)" d="M-201.97 14.173h14.173v7.087h-14.173z"/><path id="rect914" transform="matrix(5 0 0 5 549.21 -35.433)" d="M-184.25 14.173h14.173v7.087h-14.173z"/><path id="rect915" transform="matrix(5 0 0 5 549.21 -35.433)" d="M-166.54 14.173h14.173v7.087h-14.173z"/><path id="rect918" transform="matrix(5 0 0 5 549.21 -35.433)" d="M-148.82 14.173h14.173v7.087h-14.173z"/><path id="rect919" transform="matrix(5 0 0 5 549.21 -35.433)" d="M-177.17 28.346h17.717v7.087h-17.717z"/><path id="rect920" transform="matrix(5 0 0 5 549.21 -35.433)" d="M-201.97 28.346h17.717v7.087h-17.717z"/><path id="rect921" transform="matrix(5 0 0 5 549.21 -35.433)" d="M-152.36 28.346h17.717v7.087h-17.717z"/><path id="rect922" transform="matrix(5 0 0 5 549.21 -35.433)" d="M-134.65 56.693h3.543v7.087h-3.543z"/><path id="rect923" transform="matrix(5 0 0 5 549.21 -35.433)" d="M-205.51 56.693h3.543v7.087h-3.543z"/><path id="rect924" transform="matrix(5 0 0 -5 549.21 -35.433)" d="M-201.97-297.64h3.543v7.087h-3.543z"/><path id="rect925" transform="matrix(5 0 0 -5 549.21 -35.433)" d="M-191.34-297.64h10.63v7.087h-10.63z"/><path id="rect926" transform="matrix(5 0 0 -5 549.21 -35.433)" d="M-187.8-304.72h3.543v7.087h-3.543z"/><path id="rect927" transform="matrix(5 0 0 -5 549.21 -35.433)" d="M-170.08-304.72h3.543v7.087h-3.543z"/><path id="rect928" transform="matrix(5 0 0 -5 549.21 -35.433)" d="M-155.91-297.64h10.63v7.087h-10.63z"/><path id="rect929" transform="matrix(5 0 0 -5 549.21 -35.433)" d="M-152.36-304.72h3.543v7.087h-3.543z"/><path id="rect930" transform="matrix(5 0 0 -5 549.21 -35.433)" d="M-194.88-290.55h7.087v7.087h-7.087z"/><path id="rect931" transform="matrix(5 0 0 -5 549.21 -35.433)" d="M-184.25-290.55h7.087v7.087h-7.087z"/><path id="rect932" transform="matrix(5 0 0 -5 549.21 -35.433)" d="M-159.45-290.55h7.087v7.087h-7.087z"/><path id="rect933" transform="matrix(5 0 0 -5 549.21 -35.433)" d="M-148.82-290.55h7.087v7.087h-7.087z"/><path id="rect935" transform="matrix(5 0 0 -5 549.21 -35.433)" d="M-180.71-283.46h7.087v7.087h-7.087z"/><path id="rect936" transform="matrix(5 0 0 -5 549.21 -35.433)" d="M-162.99-283.46h7.087v7.087h-7.087z"/><path id="rect937" transform="matrix(5 0 0 -5 549.21 -35.433)" d="M-145.28-283.46h7.087v7.087h-7.087z"/><path id="rect938" transform="matrix(5 0 0 -5 549.21 -35.433)" d="M-138.19-297.64h3.543v7.087h-3.543z"/><path id="rect939" transform="matrix(5 0 0 -5 549.21 -35.433)" d="M-201.97-276.38h7.087v7.087h-7.087z"/><path id="rect940" transform="matrix(5 0 0 -5 549.21 -35.433)" d="M-177.17-276.38h7.087v7.087h-7.087z"/><path id="rect941" transform="matrix(5 0 0 -5 549.21 -35.433)" d="M-141.73-276.38h7.087v7.087h-7.087z"/><path id="rect942" transform="matrix(5 0 0 -5 549.21 -35.433)" d="M-198.43-255.12h7.087v7.087h-7.087z"/><path id="rect943" transform="matrix(5 0 0 -5 549.21 -35.433)" d="M-194.88-248.03h7.087v7.087h-7.087z"/><path id="rect944" transform="matrix(5 0 0 -5 549.21 -35.433)" d="M-180.71-255.12h7.087v7.087h-7.087z"/><path id="rect945" transform="matrix(5 0 0 -5 549.21 -35.433)" d="M-184.25-248.03h7.087v7.087h-7.087z"/><path id="rect946" transform="matrix(5 0 0 -5 549.21 -35.433)" d="M-191.34-240.94h10.63v7.087h-10.63z"/><path id="rect947" transform="matrix(5 0 0 -5 549.21 -35.433)" d="M-187.8-233.86h3.543v7.087h-3.543z"/><path id="rect948" transform="matrix(5 0 0 -5 549.21 -35.433)" d="M-162.99-255.12h7.087v7.087h-7.087z"/><path id="rect949" transform="matrix(5 0 0 -5 549.21 -35.433)" d="M-159.45-248.03h7.087v7.087h-7.087z"/><path id="rect950" transform="matrix(5 0 0 -5 549.21 -35.433)" d="M-145.28-255.12h7.087v7.087h-7.087z"/><path id="rect951" transform="matrix(5 0 0 -5 549.21 -35.433)" d="M-148.82-248.03h7.087v7.087h-7.087z"/><path id="rect952" transform="matrix(5 0 0 -5 549.21 -35.433)" d="M-155.91-240.94h10.63v7.087h-10.63z"/><path id="rect953" transform="matrix(5 0 0 -5 549.21 -35.433)" d="M-152.36-233.86h3.543v7.087h-3.543z"/><path id="rect954" transform="matrix(5 0 0 -5 549.21 -35.433)" d="M-170.08-240.94h3.543v7.087h-3.543z"/><path id="rect955" transform="matrix(5 0 0 -5 549.21 -35.433)" d="M-205.51-240.94h3.543v7.087h-3.543z"/><path id="rect956" transform="matrix(5 0 0 -5 549.21 -35.433)" d="M-134.65-240.94h3.543v7.087h-3.543z"/><path id="rect957" transform="matrix(5 0 0 -5 549.21 -35.433)" d="M-187.8-205.51h3.543v7.087h-3.543z"/><path id="rect958" transform="matrix(5 0 0 -5 549.21 -35.433)" d="M-191.34-198.43h10.63v7.087h-10.63z"/><path id="rect959" transform="matrix(5 0 0 -5 549.21 -35.433)" d="M-194.88-191.34h17.717v7.087h-17.717z"/><path id="rect960" transform="matrix(5 0 0 -5 549.21 -35.433)" d="M-152.36-205.51h3.543v7.087h-3.543z"/><path id="rect961" transform="matrix(5 0 0 -5 549.21 -35.433)" d="M-155.91-198.43h10.63v7.087h-10.63z"/><path id="rect962" transform="matrix(5 0 0 -5 549.21 -35.433)" d="M-159.45-191.34h17.717v7.087h-17.717z"/><path id="rect963" transform="matrix(5 0 0 -5 549.21 -35.433)" d="M-155.91-155.91h17.717v7.087h-17.717z"/><path id="rect964" transform="matrix(5 0 0 -5 549.21 -35.433)" d="M-162.99-184.25h24.803v7.087h-24.803z"/><path id="rect965" transform="matrix(5 0 0 -5 549.21 -35.433)" d="M-198.43-184.25h24.803v7.087h-24.803z"/><path id="rect966" transform="matrix(5 0 0 -5 549.21 -35.433)" d="M-194.88-148.82h10.63v7.09h-10.63z"/><path id="rect967" transform="matrix(5 0 0 -5 549.21 -35.433)" d="M-198.43-155.91h17.717v7.087h-17.717z"/><path id="rect968" transform="matrix(5 0 0 -5 549.21 -35.433)" d="M-148.82-170.08h17.717v7.087h-17.717z"/><path id="rect969" transform="matrix(5 0 0 -5 549.21 -35.433)" d="M-152.36-148.82h10.63v7.087h-10.63z"/><path id="rect970" transform="matrix(5 0 0 -5 549.21 -35.433)" d="M-205.51-170.08h17.717v7.087h-17.717z"/><path id="rect971" transform="matrix(5 0 0 -5 549.21 -35.433)" d="M-173.62-155.91h10.63v7.087h-10.63z"/><path id="rect972" transform="matrix(5 0 0 -5 549.21 -35.433)" d="M-170.08-148.82h3.543v7.087h-3.543z"/><path id="rect973" transform="matrix(5 0 0 -5 549.21 -35.433)" d="M-180.71-170.08h24.803v7.087h-24.803z"/><path id="rect974" transform="matrix(5 0 0 -5 549.21 -35.433)" d="M-166.54-276.38h7.087v7.087h-7.087z"/><path id="rect975" transform="matrix(5 0 0 -5 549.21 -35.433)" d="M-173.62-269.29h10.63v7.087h-10.63z"/><path id="rect976" transform="matrix(5 0 0 -5 549.21 -35.433)" d="M-177.17-262.2h7.087v7.087h-7.087z"/><path id="rect977" transform="matrix(5 0 0 -5 549.21 -35.433)" d="M-166.54-262.2h7.087v7.087h-7.087z"/><path id="rect978" transform="matrix(5 0 0 -5 549.21 -35.433)" d="M-205.51-269.29h7.087v7.087h-7.087z"/><path id="rect979" transform="matrix(5 0 0 -5 549.21 -35.433)" d="M-201.97-262.2h7.087v7.087h-7.087z"/><path id="rect980" transform="matrix(5 0 0 -5 549.21 -35.433)" d="M-138.19-269.29h7.087v7.087h-7.087z"/><path id="rect981" transform="matrix(5 0 0 -5 549.21 -35.433)" d="M-141.73-262.2h7.087v7.087h-7.087z"/><path id="rect982" transform="matrix(5 0 0 -5 549.21 -35.433)" d="M-205.51-198.43h3.543v7.087h-3.543z"/><path id="rect983" transform="matrix(5 0 0 -5 549.21 -35.433)" d="M-134.65-198.43h3.543v7.087h-3.543z"/><path id="rect984" transform="matrix(5 0 0 -5 549.21 -35.433)" d="M-177.17-134.65h7.087v7.087h-7.087z"/><path id="rect985" transform="matrix(5 0 0 -5 549.21 -35.433)" d="M-166.54-134.65h7.087v7.087h-7.087z"/><path id="rect986" transform="matrix(5 0 0 -5 549.21 -35.433)" d="M-180.71-127.56h7.087v7.087h-7.087z"/><path id="rect987" transform="matrix(5 0 0 -5 549.21 -35.433)" d="M-162.99-127.56h7.087v7.087h-7.087z"/><path id="rect988" transform="matrix(5 0 0 -5 549.21 -35.433)" d="M-184.25-120.47h7.087v7.087h-7.087z"/><path id="rect989" transform="matrix(5 0 0 -5 549.21 -35.433)" d="M-159.45-120.47h7.087v7.087h-7.087z"/><path id="rect990" transform="matrix(5 0 0 -5 549.21 -35.433)" d="M-187.8-113.39h7.087v7.087h-7.087z"/><path id="rect991" transform="matrix(5 0 0 -5 549.21 -35.433)" d="M-155.91-113.39h7.087v7.087h-7.087z"/><path id="rect992" transform="matrix(5 0 0 -5 549.21 -35.433)" d="M-194.88-106.3h10.63v7.087h-10.63z"/><path id="rect993" transform="matrix(5 0 0 -5 549.21 -35.433)" d="M-152.36-106.3h10.63v7.087h-10.63z"/><path id="rect994" transform="matrix(5 0 0 -5 549.21 -35.433)" d="M-145.28-113.39h7.087v7.087h-7.087z"/><path id="rect995" transform="matrix(5 0 0 -5 549.21 -35.433)" d="M-141.73-120.47h7.087v7.087h-7.087z"/><path id="rect996" transform="matrix(5 0 0 -5 549.21 -35.433)" d="M-138.19-127.56h7.087v7.087h-7.087z"/><path id="rect997" transform="matrix(5 0 0 -5 549.21 -35.433)" d="M-198.43-113.39h7.087v7.087h-7.087z"/><path id="rect998" transform="matrix(5 0 0 -5 549.21 -35.433)" d="M-201.97-120.47h7.087v7.087h-7.087z"/><path id="rect999" transform="matrix(5 0 0 -5 549.21 -35.433)" d="M-205.51-127.56h7.087v7.087h-7.087z"/><path id="rect1000" transform="matrix(5 0 0 -5 549.21 -35.433)" d="M-191.34-99.213h3.543v7.087h-3.543z"/><path id="rect1002" transform="matrix(5 0 0 -5 549.21 -35.433)" d="M-170.08-120.47h3.543v7.087h-3.543z"/><path id="rect1011" transform="matrix(5 0 0 -5 549.21 -35.433)" d="M-170.08-198.43h3.543v7.087h-3.543z"/><path id="rect1012" transform="matrix(5 0 0 -5 549.21 -35.433)" d="M-187.8-269.29h3.543v7.087h-3.543z"/><path id="rect1013" transform="matrix(5 0 0 -5 549.21 -35.433)" d="M-152.36-269.29h3.543v7.087h-3.543z"/><path id="rect1014" transform="matrix(5 0 0 -5 549.21 -35.433)" d="M-173.62-219.69h10.63v7.087h-10.63z"/><path id="rect1015" transform="matrix(5 0 0 -5 549.21 -35.433)" d="M-180.71-212.6h10.63v7.087h-10.63z"/><path id="rect1016" transform="matrix(5 0 0 -5 549.21 -35.433)" d="M-177.17-205.51h3.543v7.087h-3.543z"/><path id="rect1017" transform="matrix(5 0 0 -5 549.21 -35.433)" d="M-184.25-219.69h7.087v7.087h-7.087z"/><path id="rect1018" transform="matrix(5 0 0 -5 549.21 -35.433)" d="M-180.71-226.77h10.63v7.087h-10.63z"/><path id="rect1019" transform="matrix(5 0 0 -5 549.21 -35.433)" d="M-177.17-233.86h3.543v7.087h-3.543z"/><path id="rect1020" transform="matrix(5 0 0 -5 549.21 -35.433)" d="M-166.54-226.77h10.63v7.087h-10.63z"/><path id="rect1021" transform="matrix(5 0 0 -5 549.21 -35.433)" d="M-162.99-233.86h3.543v7.087h-3.543z"/><path id="rect1022" transform="matrix(5 0 0 -5 549.21 -35.433)" d="M-159.45-219.69h7.087v7.087h-7.087z"/><path id="rect1023" transform="matrix(5 0 0 -5 549.21 -35.433)" d="M-166.54-212.6h10.63v7.087h-10.63z"/><path id="rect1024" transform="matrix(5 0 0 -5 549.21 -35.433)" d="M-162.99-205.51h3.543v7.087h-3.543z"/><path id="rect1025" transform="matrix(5 0 0 -5 549.21 -35.433)" d="M-148.82-219.69h7.087v7.087h-7.087z"/><path id="rect1026" transform="matrix(5 0 0 -5 549.21 -35.433)" d="M-145.28-226.77h10.63v7.087h-10.63z"/><path id="rect1027" transform="matrix(5 0 0 -5 549.21 -35.433)" d="M-138.19-219.69h7.087v7.087h-7.087z"/><path id="rect1028" transform="matrix(5 0 0 -5 549.21 -35.433)" d="M-145.28-212.6h10.63v7.087h-10.63z"/><path id="rect1029" transform="matrix(5 0 0 -5 549.21 -35.433)" d="M-141.73-205.51h3.543v7.087h-3.543z"/><path id="rect1030" transform="matrix(5 0 0 -5 549.21 -35.433)" d="M-141.73-233.86h3.543v7.087h-3.543z"/><path id="rect1031" transform="matrix(5 0 0 -5 549.21 -35.433)" d="M-205.51-219.69h7.087v7.087h-7.087z"/><path id="rect1032" transform="matrix(5 0 0 -5 549.21 -35.433)" d="M-201.97-226.77h10.63v7.087h-10.63z"/><path id="rect1033" transform="matrix(5 0 0 -5 549.21 -35.433)" d="M-194.88-219.69h7.087v7.087h-7.087z"/><path id="rect1034" transform="matrix(5 0 0 -5 549.21 -35.433)" d="M-201.97-212.6h10.63v7.087h-10.63z"/><path id="rect1035" transform="matrix(5 0 0 -5 549.21 -35.433)" d="M-198.43-205.51h3.543v7.087h-3.543z"/><path id="rect1036" transform="matrix(5 0 0 -5 549.21 -35.433)" d="M-198.43-233.86h3.543v7.087h-3.543z"/><path id="rect1037" transform="matrix(5 0 0 -5 549.21 -35.433)" d="M-201.97-177.17h14.173v7.087h-14.173z"/><path id="rect1038" transform="matrix(5 0 0 -5 549.21 -35.433)" d="M-184.25-177.17h14.173v7.087h-14.173z"/><path id="rect1039" transform="matrix(5 0 0 -5 549.21 -35.433)" d="M-166.54-177.17h14.173v7.087h-14.173z"/><path id="rect1040" transform="matrix(5 0 0 -5 549.21 -35.433)" d="M-148.82-177.17h14.173v7.087h-14.173z"/><path id="rect1041" transform="matrix(5 0 0 -5 549.21 -35.433)" d="M-177.17-162.99h17.717v7.087h-17.717z"/><path id="rect1042" transform="matrix(5 0 0 -5 549.21 -35.433)" d="M-201.97-162.99h17.717v7.087h-17.717z"/><path id="rect1043" transform="matrix(5 0 0 -5 549.21 -35.433)" d="M-152.36-162.99h17.717v7.087h-17.717z"/><path id="rect1044" transform="matrix(5 0 0 -5 549.21 -35.433)" d="M-134.65-134.65h3.543v7.087h-3.543z"/><path id="rect1045" transform="matrix(5 0 0 -5 549.21 -35.433)" d="M-205.51-134.65h3.543v7.087h-3.543z"/><path id="rect1046" transform="matrix(5 0 0 5 549.21 -35.433)" d="M-173.62 99.213h3.543v7.087h-3.543z"/><path id="rect1047" transform="matrix(5 0 0 5 549.21 -35.433)" d="M-166.54 99.213h3.543v7.087h-3.543z"/><path id="rect1048" transform="matrix(5 0 0 5 549.21 -35.433)" d="M-166.54 85.039h3.543v7.087h-3.543z"/><path id="rect1049" transform="matrix(5 0 0 5 549.21 -35.433)" d="M-173.62 85.039h3.543v7.087h-3.543z"/><path id="rect1050" transform="matrix(5 0 0 5 549.21 -35.433)" d="M-198.43 276.38h7.087v7.087h-7.087z"/><path id="rect1521" transform="matrix(5 0 0 -5 549.21 -35.433)" d="M-148.82-141.73h3.543v7.087h-3.543z"/><path id="rect1522" transform="matrix(5 0 0 -5 549.21 -35.433)" d="M-191.34-141.73h3.543v7.087h-3.543z"/><path id="rect1527" d="M-318.9 637.8h53.149v35.433H-318.9z"/></g></g></svg>