<svg id="svg1" xmlns="http://www.w3.org/2000/svg" height="512" width="512" version="1.1"><g id="flag"><path id="rect124" stroke-width="1pt" fill="#006" d="M0 0h512v512H0z"/><g id="g584" stroke-width="1pt" transform="scale(6.1)"><path id="path146" d="M0 0v3.354L53.292 30H60v-3.354L6.708 0H0zm60 0v3.354L6.708 30H0v-3.354L53.292 0H60z" fill="#fff"/><path id="path136" d="M25 0v30h10V0H25zM0 10v10h60V10H0z" fill="#fff"/><path id="path141" d="M0 12v6h60v-6H0zM27 0v30h6V0h-6z" fill="#c00"/><path id="path150" d="M0 30l20-10h4.472l-20 10H0zM0 0l20 10h-4.472L0 2.236V0zm35.528 10l20-10H60L40 10h-4.472zM60 30L40 20h4.472L60 27.764V30z" fill="#c00"/></g><g id="g808" fill-rule="evenodd" fill="#fff" transform="matrix(.76758 0 0 .77858 -234.75 154.37)"><path id="polygon791" transform="matrix(.81872 .03818 -.03719 .79758 211.47 -51.031)" d="M659.7 186.57l7.73-29.85-25.29-17.62 30.77-1.87 8.94-29.5 11.28 28.69 30.83-.62-23.8 19.6 10.11 29.13-25.99-16.58z"/><path id="polygon794" transform="matrix(.75849 .31057 -.30255 .7389 360.23 -215.16)" d="M659.7 186.57l7.73-29.85-25.29-17.62 30.77-1.87 8.94-29.5 11.28 28.69 30.83-.62-23.8 19.6 10.11 29.13-25.99-16.58z"/><path id="polygon795" transform="matrix(.78299 -.24225 .236 .76277 127.08 160.08)" d="M659.7 186.57l7.73-29.85-25.29-17.62 30.77-1.87 8.94-29.5 11.28 28.69 30.83-.62-23.8 19.6 10.11 29.13-25.99-16.58z"/><path id="polygon796" transform="matrix(.62728 -.52752 .5139 .61108 136.01 414.06)" d="M659.7 186.57l7.73-29.85-25.29-17.62 30.77-1.87 8.94-29.5 11.28 28.69 30.83-.62-23.8 19.6 10.11 29.13-25.99-16.58z"/><path id="polygon797" transform="matrix(.34058 -.74549 .72624 .33179 266.38 664.02)" d="M659.7 186.57l7.73-29.85-25.29-17.62 30.77-1.87 8.94-29.5 11.28 28.69 30.83-.62-23.8 19.6 10.11 29.13-25.99-16.58z"/><path id="polygon798" transform="matrix(.01584 -.81945 .79829 .01543 466.71 832.56)" d="M659.7 186.57l7.73-29.85-25.29-17.62 30.77-1.87 8.94-29.5 11.28 28.69 30.83-.62-23.8 19.6 10.11 29.13-25.99-16.58z"/><path id="polygon799" transform="matrix(-.31707 -.7558 .73628 -.30888 725.66 902.38)" d="M659.7 186.57l7.73-29.85-25.29-17.62 30.77-1.87 8.94-29.5 11.28 28.69 30.83-.62-23.8 19.6 10.11 29.13-25.99-16.58z"/><path id="polygon800" transform="matrix(-.55852 -.59985 .58436 -.54409 956.23 884.09)" d="M659.7 186.57l7.73-29.85-25.29-17.62 30.77-1.87 8.94-29.5 11.28 28.69 30.83-.62-23.8 19.6 10.11 29.13-25.99-16.58z"/><path id="polygon801" transform="matrix(-.79561 -.19686 .19178 -.77507 1238.3 669.37)" d="M659.7 186.57l7.73-29.85-25.29-17.62 30.77-1.87 8.94-29.5 11.28 28.69 30.83-.62-23.8 19.6 10.11 29.13-25.99-16.58z"/><path id="polygon802" transform="matrix(-.79806 .18671 -.18189 -.77745 1368.5 407.85)" d="M659.7 186.57l7.73-29.85-25.29-17.62 30.77-1.87 8.94-29.5 11.28 28.69 30.83-.62-23.8 19.6 10.11 29.13-25.99-16.58z"/><path id="polygon803" transform="matrix(-.42514 .70072 -.68263 -.41416 1277.6 -266.62)" d="M659.7 186.57l7.73-29.85-25.29-17.62 30.77-1.87 8.94-29.5 11.28 28.69 30.83-.62-23.8 19.6 10.11 29.13-25.99-16.58z"/><path id="polygon804" transform="matrix(-.68567 .44902 -.43743 -.66796 1454.9 1.486)" d="M659.7 186.57l7.73-29.85-25.29-17.62 30.77-1.87 8.94-29.5 11.28 28.69 30.83-.62-23.8 19.6 10.11 29.13-25.99-16.58z"/><path id="polygon805" transform="matrix(-.81122 .11694 -.11392 -.79028 1496.6 313.7)" d="M659.7 186.57l7.73-29.85-25.29-17.62 30.77-1.87 8.94-29.5 11.28 28.69 30.83-.62-23.8 19.6 10.11 29.13-25.99-16.58z"/><path id="polygon806" transform="matrix(-.802 -.169 .16464 -.78129 1425 574.38)" d="M659.7 186.57l7.73-29.85-25.29-17.62 30.77-1.87 8.94-29.5 11.28 28.69 30.83-.62-23.8 19.6 10.11 29.13-25.99-16.58z"/><path id="polygon807" transform="matrix(-.59473 -.56396 .5494 -.57938 1179.6 862.83)" d="M659.7 186.57l7.73-29.85-25.29-17.62 30.77-1.87 8.94-29.5 11.28 28.69 30.83-.62-23.8 19.6 10.11 29.13-25.99-16.58z"/></g></g></svg>