<svg id="svg559" xmlns="http://www.w3.org/2000/svg" height="512" width="512" version="1.1"><g id="flag"><path id="rect4964" fill="#fff" d="M-2.086 2.086h512v512h-512z"/><path id="polygon565" transform="translate(-63.823 10.873) scale(.4561)" fill-rule="evenodd" stroke-width="1pt" fill="gray" d="M699.33 498.15l3.02-3.98-1.57-4.74 4.72 1.64 4.02-2.96-.1 4.99 4.05 2.92-4.77 1.44-1.52 4.76-2.85-4.1z"/><path id="path568" d="M128.27 257.88h.25c-.668 0-.317-.05.752.765.873.355 1.642.51 3.005.51 1.195.087 2.23.255 3.507.255 1.175.504 1.844.965 2.755 1.274.402.62 1.278 2.007 1.753 2.55.882.66 1.947 1.063 2.755 1.784 1.008.28 1.65.716 2.755 1.53.833.4 1.62.731 2.755 1.274 1.09.383 2.282.897 3.256 1.275.858.205 2.006.556 2.755 1.02 1.065.234 1.958.537 3.257.764 1.326.16 1.995.517 3.255.765 1.132.583 2.014 1.018 3.257 1.53.504.754.937 1.433 2.003 1.783.548.676 1.456.855 2.004 1.53.807.389 1.695.647 2.755 1.02 1.277.093 2.198.462 3.506.51h7.014c1.118.135 2.37.313 3.255.51 1.226 0 2.421.02 3.507-.255 1.402-.017 2.055-.416 3.256-.51 1.34.216 2.249.097 2.755 1.275.83.844 1.335 1.672 1.503 2.804.264.806.25 2.138.25 3.313 0 1.108.007 2.314.251 3.06.797.783 1.419 1.014 2.505 1.274.805.273 2.288.511 3.005 1.02.592.632.882 1.636 1.753 2.294.763.596 2.037.72 3.256.764h3.507c1.095 0 2.547.107 3.256-.254 1.085-.402 1.37-1.148 2.755-1.275 1.305.2 1.278.83 2.254 1.275.621.91 1.21 1.287 2.004 1.784.515.75 1.188 1.331 2.254 1.53 1.305-.135 2.486-.524 3.507-.765.357-.91.794-1.538 1.252-2.295.34-.584.5-.735.5-1.784.375-.762.329-2.312 0-3.314-.047-1.297-.345-1.982-.5-3.314 0-1.235.058-2.411.25-3.313.515-.605.85-1.594 1.253-2.295.683-.834 1.316-1.148 2.254-1.53.792-.268 2.101-.255 3.256-.255.613-.186 1.63-.124 1.252-.509-.325.33-1.57.435-.25.51.719-.497 2.03-.725 2.755-1.02 1.07-.164 1.711-.534 2.755-.764.78-.466 1.654-.688 2.755-1.02a42.105 42.105 0 013.006-1.02c1.153-.552 1.864-.863 3.005-1.02.785-.421 1.772-.51 3.006-.51 1.157.756 1.765 1.348 2.755 2.295.473.709.897 1.135 1.252 2.039.802.555 1.23.964 2.755 1.02 1.206 0 1.685.21 2.004-.765.659-.598 1-1.656 1.753-2.294.748-.748 1.67-1.127 2.505-1.53.94-.26 1.7-.607 3.005-.764.87-.324 1.767-.392 2.755.254.736 1.046 1.566 2.112 2.505 3.315.637.42 1.417.51 2.504.51.765-.39 2.343-.256 3.507-.256 1.026.3 1.474.988 2.505 1.275.576.059.887.255 1.503.255 1.832.242 2.594.058 4.007-.255h3.507c1.23.047 1.894.255 3.255.255.761.47 2.066.688 3.006 1.02 1.186.284 1.412.742 2.505 1.274.708.36 2.161.255 3.256.255a13.925 13.925 0 003.256-.765c.95-.236 1.352-.48 1.753-1.274.623-.431 1.482-1.12 2.004-1.785a6.696 6.696 0 001.753-1.784c.674-.453 1.808-1.608 2.254-2.294.64-.522 1.324-1.614 1.754-2.295.55-.83 1.243-1.313 1.753-2.549.39-1.192.442-2.126.751-3.314.258-.963.732-1.778 1.002-3.059.51-1.116.917-2.204 1.252-3.059.615-.702 1.023-1.55 1.754-2.294.419-.66.977-.995 1.503-1.53.596-.578 1.496-1.007 2.504-1.274 1.034-.287 1.482-.749 2.003-1.53.947-.32 1.506-.736 2.755-1.02a39.093 39.093 0 013.006-.764h3.507c1.263 0 2.35.115 3.506.255 1.142.332 2.213.621 3.256.765.717.345 1.91.976 2.505 1.529.748.503 1.565 1.314 2.004 2.04.327 1 .86 1.441 1.502 2.294.67.886 1.233 1.446 2.505 2.039 1.014.239 1.844.674 3.005.765 1.331 0 2.136.167 3.257.255 1.225 0 2.42.02 3.506-.255 1.094-.643 1.486-.815 2.254-1.785 1.01-.505 1.744-.907 3.006-1.02.83-.183 1.858-.254 3.006-.254.65.454 1.34.625 1.753 1.274.66.476.703.734 1.753.765.717.427 1.771.63 2.755.765h3.506-3.506 3.506c.96-.82 1.253-.727 1.253-1.784.775-.632 1.16-1.52 2.004-2.55.457-.756.895-1.384 1.252-2.294.273-.835.614-2.116.751-3.059.317-.846.615-2.145.752-3.314.303-1.178.5-2.23.5-3.569v-3.569c-.014-1.26-.2-2.141-.5-3.058-.397-1.127-1.061-1.95-1.503-2.804a29.376 29.376 0 01-2.254-2.04 113.923 113.923 0 00-3.006-1.784c-1.097-.692-2.15-1.292-3.006-1.785-.502-.572-1.318-1.357-1.752-1.784-.344-.698-.344-2.361 0-3.059.029-1.061.14-1.673.75-2.295 1.142-.416 1.903-.965 2.756-1.53.553-.788 1.421-.94 2.504-1.783 1.084-.484 1.699-.738 2.505-1.53 1.172-.398 2.265-1.208 3.256-1.53.536-.66 1.54-1.205 2.755-1.529.869-.602 1.909-1.242 2.755-1.53 1.18-.636 2.056-.86 3.256-1.529 1.225-.311 2.319-.872 3.507-1.274.305-.38.668-.66 1.252-.765 1.56-.094 2.859-.265 3.757-1.02 1.007-.363 1.112-1.099 1.753-1.784.461-.844.964-1.217 1.252-2.294.797-.871.357-1.127-1.001-1.275-.428-.435-.813.004-1.002-.765-.899-.41-1.134-1.123-1.753-1.784-.379-1.054-.37-1.527.751-2.04.699-.483 1.693-.645 2.255-1.274 1.043-.16 1.836-.619 2.755-1.02 1.36-.099 2.085-.412 3.255-.765.997-.541 1.644-.86 2.505-1.274 1.03-.454 2.258-1.094 3.256-1.53.898-.609 2.039-1.205 3.256-1.529.897-.464 2-.829 3.006-1.275.858-.206 2.005-.556 2.755-1.02a16.759 16.759 0 003.256-1.02c.838-.384 1.825-.869 2.504-1.274 1.038-.456 1.778-1.003 2.756-1.275.592-.574 1.39-.981 2.254-1.274.705-.666 2.204-1.586 3.005-2.04.76-.366 1.648-.739 2.255-1.274.583-.066.418-.189 1.001-.255 1.826-.56 2.758-.767 3.757-1.784.777-.375 1.575-.781 2.254-1.275.836-.675 1.501-1.286 2.004-2.04.912-.328 1.411-.971 2.254-1.529.874-.355 1.643-.51 3.006-.51 1.095 0 2.547.106 3.256-.255 1.572-.019 1.98-.402 3.005-1.02.34-.972 1.064-1.459 2.004-2.038.554-.515 1.955-1.286 2.505-1.785 1.084-.528 1.552-1.202 2.505-2.04.735-.805 1.656-1.55 2.504-2.038 1.053-.467 1.807-.677 2.755-1.02 1.186-.215 2.378-.437 3.504-.765 1.281-.1 1.734-.481 2.76-.765.709-.688 1.138-1.035 2.002-2.039.423-1.171 1.049-1.6 2.253-1.784 1.21-.644 2.18-.72 3.01-1.53.845-.863 1.43-1.834 2.252-2.804.465-1.099.9-1.76 1.001-3.059-.018-1.564-.352-1.79-1.001-2.804-.626-.914-1.02-1.495-1.502-2.295-.78-.449-1.89-.894-2.76-1.274-1.191.093-1.924.366-2.753.765-.852.701-1.442 1.277-2.002 2.294-.381.821-.638 1.725-1.001 2.804-.477.693-1.615 1.351-2.51 1.784-1.048.467-1.799.677-2.752 1.02-1.186.417-1.74.778-3.005 1.275-.741.357-1.766.905-2.505 1.274a21.825 21.825 0 01-3.005 1.53c-1.111.642-1.746.994-2.756 1.275-1.138.69-2.24 1.212-3.256 1.784-.842.421-1.664.967-2.755 1.53-.886.196-2.138.374-3.256.51h-3.757c-1.07-.252-2.344-.47-3.506-1.02-1.247-.658-1.858-1.074-2.755-1.785-.55-1.087-.734-1.607-.752-3.059-.778-.396-1.855-.495-3.005-.51-1.27 0-2.449-.048-3.256.51a5.282 5.282 0 00-2.756 1.275c-1.153.558-1.906 1.23-2.755 1.784-.882.542-2.024 1.353-3.005 1.785-.922.402-2.364.842-3.507 1.274-1.47.43-2.534.904-4.007 1.02-1.257.579-2.243.751-3.506 1.275-1.283.485-2.189.843-3.507 1.274-.87.45-2.44 1.202-3.256 1.785-1.496.76-2.59 1.407-3.757 2.039-1.172.5-2.022.976-3.256 1.53-.607.55-1.809.98-2.505 1.53-1.117.284-2.4.753-3.005 1.274-.988.12-1.537.385-2.004 1.02-.892 1.09-.502 1.019-1.503 1.019-.856.529-2.186.51-3.506.51-1.336-.036-2.388-.255-3.757-.255-1.175-.214-2.25-.464-3.507-.51H365.21c-1.331 0-2.136.167-3.257.255-1.246.09-2.217.367-3.255.51-1.13.173-1.645.605-2.505 1.02-.791.381-1.588.765-2.505 1.02-1.23.66-2.644 1.008-4.007 1.274-1.029.485-2.49.745-3.257 1.275-1.174.091-1.942.414-3.255.509-1.116.514-2.035.787-3.006 1.02-.9.305-1.767.495-3.006.51-1.158.16-1.797.491-3.005.765-.43.368-1.116.63-1.753.764-1.472.71-1.954.765-3.507.765h-3.507c-1.67-.165-3.328-.378-5.009-.765-1.714-.084-3.35-.304-5.01-.51h-11.02c-1.323-.048-2.498-.305-3.756-.51-1.178-.214-2.422-.318-3.506-.764-1.558-.084-3.134-.298-4.509-.765-1.253-.227-2.453-.656-3.757-.765-.723-.447-2.142-.595-2.755-1.02-1.145-.09-2.097-.451-2.755-1.019-1.172-.177-1.85-.703-3.006-1.02-1.04-.64-2.297-.855-3.757-1.53-1.244-.27-2.489-.718-3.757-1.019-.999-.352-2.216-.686-3.005-1.274-1.107-.308-1.743-.64-3.006-1.02-.59-.535-1.75-1.095-2.504-1.53-.548-.496-1.987-1.35-2.755-1.784a57.835 57.835 0 00-2.756-3.059 10.484 10.484 0 00-2.504-2.04 27.831 27.831 0 01-3.006-1.529c-.948-.263-1.714-.85-2.254-1.53-.854-.492-1.411-.931-2.254-1.529-1.309.505-1.447.255-2.755.255-1.493-.125-2.591-.171-4.007 0-1.225.147-2.423.255-3.758.255h-3.506c-1.585.02-1.84.228-2.254 1.53-.73.815-1.034 1.77-1.754 2.294-.618.797-1.51 1.34-2.505 1.784-1.236.87-1.61 1.185-2.253 2.295-.82.731-1.504 1.778-2.004 2.548-.455.792-.76 1.525-1.002 2.805 0 1.22.098 2.503-.25 3.569 0 1.22.098 2.503-.251 3.569v7.137c.522.782 1.225 1.081 1.503 2.294.371 1.008-.316.647-1.002 1.275h-7.013c-1.277 0-2.311-.168-3.507-.255-1.012-.184-2.493-.251-3.255-.51h-3.507c-1.246-.09-2.217-.366-3.256-.51-1.45-.28-2.454-.708-3.757-1.53-1.334-.29-2.352-.801-3.507-1.528-1.244-.332-2.23-.997-3.506-1.275-.86-.414-1.474-.815-2.505-1.275-.606-.844-1.19-1.315-2.504-1.53-1.008-.526-1.862-.509-3.256-.509-1.305.158-2.065.504-3.006.765-1.044.48-2.404.89-3.256 1.274-.851.347-1.625.813-2.505 1.275-.673.882-1.067 1.409-1.503 2.294-.333 0-.25-.085-.25.255-1.349.05-2.768 0-4.257 0-.707.36-2.082.437-3.006.51-.734.578-1.602 1.078-2.254 1.53-.432.879-.734 1.113-.752 2.549.054 1.523.591 1.965 1.002 3.058-.301 1.39-.837 1.506-2.004 1.785-.886.196-2.041.255-3.256.255h-7.514c-1.442 0-2.12.016-2.755-.765-.435-.864-.476-1.965-.751-2.804-.746-1.033-1.08-1.726-2.254-2.549-.259-.79-.88-1.949-1.252-2.804-.402-.862-.712-1.623-1.503-2.295-.833-.786-1.776-1.297-2.505-2.039-.838-.547-1.51-1.001-3.005-1.02-1.214 0-2.37.06-3.257.255-.61.54-1.63 1.115-2.504 1.785-.692.94-1.306 1.625-2.254 2.55-1.069.996-2.132 1.602-3.006 2.038-.8.408-1.617.91-2.254 1.785-.744.33-1.105.884-1.503 1.784-.653.593-1.028 1.582-1.252 2.55-.409 1.247-.465 2.68-.501 4.078v3.569c-.396.48-.61.989-1.252 1.53-.613.555-1.535 1.163-2.255 1.529-.697.913-1.133 1.45-1.252 2.804 0 1.114-.103 2.593.25 3.314.507.722 1.53 1.22 2.505 1.785.938.338 1.425 1.078 2.004 2.039 1.073.49.94.944 2.254 1.02.795.636 2.016.835 3.006 1.274 1.002.278 1.502.742 2.504 1.02.65.86 1.364 1.417 1.753 2.803.106.891.452 1.784 0 2.55-1.02.618-2.389 1.011-3.005 1.53-.81.043-.75.234-1.252.509-.01 1.704-.234 2.572-.501 3.824-.086 1.14-.25 1.96-.25 3.314v3.569c.532 1.132 1.236 1.343 2.003 2.04.763.554 1.001 1.208 1.252 2.293.43.997.887 1.829 1.253 2.804.456.977.751 1.863.751 3.314-.125 1.396-.698 1.636-1.753 2.294-.56.69-.376 1.912-.752 3.06 0 1.175-.013 2.507.25 3.313.43.583.326.826.502 1.785z" fill-rule="evenodd" fill="#ffce00"/><g id="g588" fill-rule="evenodd" transform="matrix(.59595 0 0 .60655 -117.78 -72.873)" fill="#009a00"><path id="path569" d="M460.16 634.92l-.683-.683c1.55 1.549.802.981-.683-2.731-.145-3.936-1.098-4.57-3.413-6.145-2.715-.904-3.875-2.064-4.779-4.779-1.736-1.433-3.042-3.351-4.097-5.462a18.088 18.088 0 01-4.779-4.779 18.103 18.103 0 01-4.779-4.779c-2.594-.906-4.306-2.751-7.51-4.096-1.803-1.719-3.497-2.567-6.145-4.097-2.963-1.419-3.132-2.446-6.827-2.731-1.13 1.244-2.92.755-3.414 2.731.15 4.046.955 4.894 2.731 8.193.138 3.729 1.14 5.484 2.731 8.193 1.939 1.357 3.431 3.769 5.462 5.462 2.168 1.474 3.03 3.04 6.145 4.779 1.627 2.035 4.347 3.126 6.827 4.779 3.054 1.178 5.559 2.087 7.51 3.414 2.74.644 4.611 1.681 6.827 2.731 3.277.307 4.611.673 8.876 0z"/><path id="path570" d="M474.5 654.03l-.682-.682c1.621 1.621.848.958-1.366-2.731-2.524-2.39-3.07-4.221-6.827-4.78-2.006-.802-5.262-1.298-7.51-2.048-3.887 0-5.668-.415-8.876-1.365-2.293-.626-5.194-1.738-7.51-2.731-2.746-.408-5.589-1.482-8.193-2.048h-9.558c-3.067.721-4.793.753-5.462 4.096 1.4 1.695 3.248 3.173 4.779 4.779.863 2.999 2.946 3.714 4.779 5.462 3.161 1.094 3.803 1.911 7.51 2.048 3.143 1.048 5.428 1.324 8.876 1.366 3.657 0 6.287.742 9.558 1.365 2.724.368 5.396.683 8.876.683 2.966 0 6.197-.017 8.193-.683 4.302-3.441 3.413-4.188 3.413.683l1.366 1.365"/><path id="path571" d="M497.71 664.27h-.682c1.843 0 .907.045-2.731-.682-3.405-.973-5.339-1.918-8.876-2.049-2.101-1.228-4.68-1.365-8.193-1.365h-9.558c-3.38.26-4.813 1.105-8.193 1.365-1.794 1.05-5.358 1.912-7.51 2.731-1.92 1.306-3.559 2.929-6.145 4.097.596 3.391 2.479 4.668 4.78 6.144 2.31.925 4.685 1.798 8.192 2.049 3.355.124 5.163.682 8.876.682 3.479 0 6.152-.314 8.876-.682 2.266-1.074 4.194-2.199 7.51-2.731 1.653-1.433 4.073-2.433 6.144-3.414 1.834-.868 4.329-1.669 6.145-2.731l-6.145 2.731c1.834-.868 4.329-1.669 7.51-6.145z"/><path id="path573" d="M529.8 679.98v-.682c0 1.908.085.894-1.365-2.731-2.527-1.332-5.559-2.273-7.511-3.414-2.984 0-6.944-.283-8.875.683-3.448.041-5.733.318-8.876 1.365-2.996.452-4.723 1.5-6.827 2.731-2.378 1.283-5.824 2.934-8.876 4.096-2.698 1.881-3.612 2.984-6.827 4.78-2.025 2.219-4.098 3.552-5.462 5.462-.606 2.304.039 5.022 2.731 6.144 1.702 1.406 4.316 2.14 6.827 2.731 3.187-.118 6.001-.56 8.193-2.048 3.383-.448 5.393-1.44 8.193-2.048 2.396-.851 4.69-1.667 7.51-2.049 1.953-1.324 5.416-2.467 7.51-3.413 3.43-1.389 5.621-3.221 8.193-4.779 1.226-1.419 2.862-2.951 4.779-3.414l-4.779 3.414c1.226-1.419 2.862-2.951 5.462-6.828z" transform="matrix(1 0 0 .85157 1.189 101.1)"/><path id="path574" d="M557.11 693.63c-.127-.032-3.176-1.365-5.461-1.365-2.024-1.184-5.299-1.422-8.193-2.731-3.731 0-6.271.418-8.193 2.048-2.838.383-5.375 1.217-7.51 2.731-2.658.625-5.07 1.21-7.51 2.731-3.294 1.382-4.744 2.679-6.828 4.096-1.405 1.701-4.441 2.652-6.144 4.097-1.529 1.851-1.526 4.299-.683 6.827 1.748 1.076 4.736 2.144 6.827 3.414 3.052.545 6.162.682 9.559.682 3.031-.233 5.588-.741 7.51-2.048 3.434-1.654 4.348-2.876 6.827-4.779 1.434-1.736 3.833-3.133 6.145-4.096 1.742-1.51 3.856-2.614 6.827-3.414a138.941 138.941 0 004.779-4.779c1.909 0 .598.211 2.048-3.414z" transform="matrix(1 0 0 .88839 0 76.96)"/><path id="path575" d="M587.15 696.36c-.164-.025-3.855-.683-6.145-.683-1.931-.965-5.891-.683-8.875-.683-3.762.14-4.925.917-6.828 2.731-1.935 1.191-4.271 2.261-6.144 4.097-2.394 1.467-4.551 3.489-6.828 4.779-2.505 1.073-4.664 2.302-7.51 2.731-1.372 1.661-3.778 3.096-5.462 4.779-1.874 1.406-2.669 2.082-2.731 5.462-1.39 1.121-2.329 3.322-2.048 4.096 2.763 1.419 5.047 2.003 8.876 2.049 3.647.043 6.208.837 9.558 0 3.414-1.012 4.778-1.72 8.193-2.731 1.743-2.271 3.052-3.791 5.462-5.462 1.302-1.915 2.862-3.677 5.462-4.779 1.948-1.772 4.83-3.729 6.827-4.78 1.221-1.709 3.602-3.527 5.462-4.779 1.368-2.315 1.757-2.7 2.731-6.827z" transform="matrix(1 0 0 .86641 -.594 95.81)"/><path id="path577" d="M589.88 693.63v-20.482c-3.17-1.875-3.645-2.997-4.779-6.827-1.683-2.73-2.969-4.447-4.097-6.828-1.581-1.659-2.884-3.812-3.414-6.827-1.304-2.528-2.113-5.07-4.779-6.145-2.415-.525-5.565-.683-8.875-.683-4.522.168-4.097.965-4.097 5.462.318 3.497 1.433 4.412 2.731 7.51 1.003 2.118 2.092 4.294 3.414 6.145 1.021 2.262 2.623 5.174 4.096 6.827 1.196 2.511 2.915 4.786 3.414 7.511 1.871 2.374 3.164 4.451 4.779 6.144 1.337 2.791 2.343 4.37 4.779 5.462 1.393 2.088 3.748 2.26 6.828 2.731z"/><path id="path578" d="M557.11 682.71h.683c-1.908 0-.894.085 2.731-1.365.966-1.932.683-5.891.683-8.876 0-3.887-.643-5.542-1.366-8.193-1.242-2.965-2.255-4.355-2.731-7.51-1.021-2.156-2.049-4.329-2.731-6.827-1.227-1.806-2.104-4.529-2.73-6.827-2.305-1.306-4.433-2.616-6.828-3.414-2.171-1.028-4.193-2.561-6.827-3.414-3.425.627-3.812 1.756-4.097 5.462-.787 2.754.293 5.244 1.366 7.51 1.128 2.694 1.801 5.426 3.414 7.51.984 3.063 1.986 4.131 2.048 7.51 1.175 2.01 1.666 4.969 2.731 7.51 1.371 3.171 2.647 4.538 4.779 6.828 2.915 1.982 3.916 2.814 8.875 4.096z"/><path id="path579" d="M529.8 673.83c0-.327 2.168-1.67 3.414-3.414 1.02-2.041.894-6.191 0-8.876-1.295-3.199-2.706-5.597-3.414-8.192-.72-2.16-.683-5.728-.683-8.876-.623-2.868-1.649-4.988-2.731-8.193-.882-2.206-2.602-4.966-3.413-7.51-1.065-1.006-2.269-3.071-3.414-4.096-1.335-1.092-1.382-1.366-4.096-1.366-3.629.135-5.455.47-7.511 2.731-.719 2.16-.682 5.728-.682 8.876.045 3.762.395 5.541 2.048 8.193 1.206 2.869 3.736 5.663 5.462 8.192 1.415 2.396 2.316 4.675 4.096 6.145.464 3.076 1.621 4.484 2.731 6.827.464 3.076 1.621 4.484 2.731 6.828 1.786.198.952.634 2.048 1.365l-2.048-1.365c1.786.198.952.634 5.462 2.731z"/><path id="path581" d="M502.49 653.35c.417-.939 2.951-4.593 3.413-6.828-.046-3.872-.497-6.515-2.731-8.875-.554-2.389-1.894-5.998-2.731-8.193 0-3.148.038-6.716-.682-8.876 0-3.587-.496-5.742-1.366-8.193-1.542-2.267-3.203-2.931-6.827-4.096-2.937-.979-4.967-.273-8.193.683v9.558c.043 3.613.688 6.193 2.048 8.193 1.11 2.342 2.182 4.016 3.414 6.827.132 3.711 1.116 5.629 1.365 8.876.269 3.491.597 5.298 2.731 7.51 2.907 1.374 3.794 2.703 6.145 3.414l-6.145-3.414c2.907 1.374 3.794 2.703 9.559 3.414z"/><path id="path582" d="M477.92 638.33v-.682c0 1.908-.084.894 1.366-2.731.739-2.96.682-6.218.682-9.559-.211-2.751-.61-5.928-1.365-8.192-.624-3.495-1.339-5.682-2.048-8.876-.488-2.773-2.366-5.834-3.414-8.193-.67-2.01-1.353-6.2-2.048-8.193-.489-2.552-1.715-3.355-4.097-4.096-1.869-.935-6.323-.935-8.193 0-2.009.696-2.006 2.284-2.73 4.096-.253 3.533-.854 6.143 0 9.559 1.155 1.975 2.377 4.071 3.413 6.144 1.342 2.423 2.687 6.059 4.097 8.193 1.027 3.467 1.407 5.068 3.413 8.193.738 2.213 1.902 4.873 3.414 6.827.972 2.43 2.39 4.152 3.414 6.828 1.842 0 .461-.045 4.096.682z"/><path id="path583" d="M618.13 711.13h-11.293c-1.735 1.648-2.339 2.595-5.349 2.972-1.52 1.317-2.96 2.534-5.349 2.971-2.103.458-4.845.595-7.727.595-3.523-.043-4.733.109-5.349-2.972.056-3.063.2-3.234 2.972-3.566 1.484-1.226 3.971-1.807 6.538-2.377 1.962-.697 4.365-1.311 6.538-1.784 2.107-.748 4.118-1.512 5.943-2.377-.454-1.815-1.921-1.417-3.566-.594-2.135 0-4.682.162-5.944-.595-1.483-2.204-2.286-2.927-5.943-2.971-3.47-.042-4.062-.953-7.132-1.189-2.94-.036-4.995-.476-7.133-1.189-3.138-.224-5.246-.702-7.726-1.783-.797-.797 1.094-.962 2.377-1.189 1.758-1.195 3.617-1.675 6.538-1.783h8.321c3.049 0 5.395.49 8.321.595 2.385.825 4.891 1.257 6.538 2.377 2.151.717 3.505 1.978 4.755 3.566 2.091.571 4.195 1.274 6.538 1.783 2.74 0 5.846-.032 7.726.595 1.361 2.268.285 5.986-.594 8.915z"/></g><g id="g601" fill-rule="evenodd" transform="matrix(-.59595 0 0 .60655 620.4 -72.512)" fill="#009a00"><path id="path602" d="M460.16 634.92l-.683-.683c1.55 1.549.802.981-.683-2.731-.145-3.936-1.098-4.57-3.413-6.145-2.715-.904-3.875-2.064-4.779-4.779-1.736-1.433-3.042-3.351-4.097-5.462a18.088 18.088 0 01-4.779-4.779 18.103 18.103 0 01-4.779-4.779c-2.594-.906-4.306-2.751-7.51-4.096-1.803-1.719-3.497-2.567-6.145-4.097-2.963-1.419-3.132-2.446-6.827-2.731-1.13 1.244-2.92.755-3.414 2.731.15 4.046.955 4.894 2.731 8.193.138 3.729 1.14 5.484 2.731 8.193 1.939 1.357 3.431 3.769 5.462 5.462 2.168 1.474 3.03 3.04 6.145 4.779 1.627 2.035 4.347 3.126 6.827 4.779 3.054 1.178 5.559 2.087 7.51 3.414 2.74.644 4.611 1.681 6.827 2.731 3.277.307 4.611.673 8.876 0z"/><path id="path603" d="M474.5 654.03l-.682-.682c1.621 1.621.848.958-1.366-2.731-2.524-2.39-3.07-4.221-6.827-4.78-2.006-.802-5.262-1.298-7.51-2.048-3.887 0-5.668-.415-8.876-1.365-2.293-.626-5.194-1.738-7.51-2.731-2.746-.408-5.589-1.482-8.193-2.048h-9.558c-3.067.721-4.793.753-5.462 4.096 1.4 1.695 3.248 3.173 4.779 4.779.863 2.999 2.946 3.714 4.779 5.462 3.161 1.094 3.803 1.911 7.51 2.048 3.143 1.048 5.428 1.324 8.876 1.366 3.657 0 6.287.742 9.558 1.365 2.724.368 5.396.683 8.876.683 2.966 0 6.197-.017 8.193-.683 4.302-3.441 3.413-4.188 3.413.683l1.366 1.365"/><path id="path604" d="M497.71 664.27h-.682c1.843 0 .907.045-2.731-.682-3.405-.973-5.339-1.918-8.876-2.049-2.101-1.228-4.68-1.365-8.193-1.365h-9.558c-3.38.26-4.813 1.105-8.193 1.365-1.794 1.05-5.358 1.912-7.51 2.731-1.92 1.306-3.559 2.929-6.145 4.097.596 3.391 2.479 4.668 4.78 6.144 2.31.925 4.685 1.798 8.192 2.049 3.355.124 5.163.682 8.876.682 3.479 0 6.152-.314 8.876-.682 2.266-1.074 4.194-2.199 7.51-2.731 1.653-1.433 4.073-2.433 6.144-3.414 1.834-.868 4.329-1.669 6.145-2.731l-6.145 2.731c1.834-.868 4.329-1.669 7.51-6.145z"/><path id="path605" d="M529.8 679.98v-.682c0 1.908.085.894-1.365-2.731-2.527-1.332-5.559-2.273-7.511-3.414-2.984 0-6.944-.283-8.875.683-3.448.041-5.733.318-8.876 1.365-2.996.452-4.723 1.5-6.827 2.731-2.378 1.283-5.824 2.934-8.876 4.096-2.698 1.881-3.612 2.984-6.827 4.78-2.025 2.219-4.098 3.552-5.462 5.462-.606 2.304.039 5.022 2.731 6.144 1.702 1.406 4.316 2.14 6.827 2.731 3.187-.118 6.001-.56 8.193-2.048 3.383-.448 5.393-1.44 8.193-2.048 2.396-.851 4.69-1.667 7.51-2.049 1.953-1.324 5.416-2.467 7.51-3.413 3.43-1.389 5.621-3.221 8.193-4.779 1.226-1.419 2.862-2.951 4.779-3.414l-4.779 3.414c1.226-1.419 2.862-2.951 5.462-6.828z" transform="matrix(1 0 0 .85157 1.189 101.1)"/><path id="path606" d="M557.11 693.63c-.127-.032-3.176-1.365-5.461-1.365-2.024-1.184-5.299-1.422-8.193-2.731-3.731 0-6.271.418-8.193 2.048-2.838.383-5.375 1.217-7.51 2.731-2.658.625-5.07 1.21-7.51 2.731-3.294 1.382-4.744 2.679-6.828 4.096-1.405 1.701-4.441 2.652-6.144 4.097-1.529 1.851-1.526 4.299-.683 6.827 1.748 1.076 4.736 2.144 6.827 3.414 3.052.545 6.162.682 9.559.682 3.031-.233 5.588-.741 7.51-2.048 3.434-1.654 4.348-2.876 6.827-4.779 1.434-1.736 3.833-3.133 6.145-4.096 1.742-1.51 3.856-2.614 6.827-3.414a138.941 138.941 0 004.779-4.779c1.909 0 .598.211 2.048-3.414z" transform="matrix(1 0 0 .88839 0 76.96)"/><path id="path607" d="M587.15 696.36c-.164-.025-3.855-.683-6.145-.683-1.931-.965-5.891-.683-8.875-.683-3.762.14-4.925.917-6.828 2.731-1.935 1.191-4.271 2.261-6.144 4.097-2.394 1.467-4.551 3.489-6.828 4.779-2.505 1.073-4.664 2.302-7.51 2.731-1.372 1.661-3.778 3.096-5.462 4.779-1.874 1.406-2.669 2.082-2.731 5.462-1.39 1.121-2.329 3.322-2.048 4.096 2.763 1.419 5.047 2.003 8.876 2.049 3.647.043 6.208.837 9.558 0 3.414-1.012 4.778-1.72 8.193-2.731 1.743-2.271 3.052-3.791 5.462-5.462 1.302-1.915 2.862-3.677 5.462-4.779 1.948-1.772 4.83-3.729 6.827-4.78 1.221-1.709 3.602-3.527 5.462-4.779 1.368-2.315 1.757-2.7 2.731-6.827z" transform="matrix(1 0 0 .86641 -.594 95.81)"/><path id="path608" d="M589.88 693.63v-20.482c-3.17-1.875-3.645-2.997-4.779-6.827-1.683-2.73-2.969-4.447-4.097-6.828-1.581-1.659-2.884-3.812-3.414-6.827-1.304-2.528-2.113-5.07-4.779-6.145-2.415-.525-5.565-.683-8.875-.683-4.522.168-4.097.965-4.097 5.462.318 3.497 1.433 4.412 2.731 7.51 1.003 2.118 2.092 4.294 3.414 6.145 1.021 2.262 2.623 5.174 4.096 6.827 1.196 2.511 2.915 4.786 3.414 7.511 1.871 2.374 3.164 4.451 4.779 6.144 1.337 2.791 2.343 4.37 4.779 5.462 1.393 2.088 3.748 2.26 6.828 2.731z"/><path id="path609" d="M557.11 682.71h.683c-1.908 0-.894.085 2.731-1.365.966-1.932.683-5.891.683-8.876 0-3.887-.643-5.542-1.366-8.193-1.242-2.965-2.255-4.355-2.731-7.51-1.021-2.156-2.049-4.329-2.731-6.827-1.227-1.806-2.104-4.529-2.73-6.827-2.305-1.306-4.433-2.616-6.828-3.414-2.171-1.028-4.193-2.561-6.827-3.414-3.425.627-3.812 1.756-4.097 5.462-.787 2.754.293 5.244 1.366 7.51 1.128 2.694 1.801 5.426 3.414 7.51.984 3.063 1.986 4.131 2.048 7.51 1.175 2.01 1.666 4.969 2.731 7.51 1.371 3.171 2.647 4.538 4.779 6.828 2.915 1.982 3.916 2.814 8.875 4.096z"/><path id="path610" d="M529.8 673.83c0-.327 2.168-1.67 3.414-3.414 1.02-2.041.894-6.191 0-8.876-1.295-3.199-2.706-5.597-3.414-8.192-.72-2.16-.683-5.728-.683-8.876-.623-2.868-1.649-4.988-2.731-8.193-.882-2.206-2.602-4.966-3.413-7.51-1.065-1.006-2.269-3.071-3.414-4.096-1.335-1.092-1.382-1.366-4.096-1.366-3.629.135-5.455.47-7.511 2.731-.719 2.16-.682 5.728-.682 8.876.045 3.762.395 5.541 2.048 8.193 1.206 2.869 3.736 5.663 5.462 8.192 1.415 2.396 2.316 4.675 4.096 6.145.464 3.076 1.621 4.484 2.731 6.827.464 3.076 1.621 4.484 2.731 6.828 1.786.198.952.634 2.048 1.365l-2.048-1.365c1.786.198.952.634 5.462 2.731z"/><path id="path611" d="M502.49 653.35c.417-.939 2.951-4.593 3.413-6.828-.046-3.872-.497-6.515-2.731-8.875-.554-2.389-1.894-5.998-2.731-8.193 0-3.148.038-6.716-.682-8.876 0-3.587-.496-5.742-1.366-8.193-1.542-2.267-3.203-2.931-6.827-4.096-2.937-.979-4.967-.273-8.193.683v9.558c.043 3.613.688 6.193 2.048 8.193 1.11 2.342 2.182 4.016 3.414 6.827.132 3.711 1.116 5.629 1.365 8.876.269 3.491.597 5.298 2.731 7.51 2.907 1.374 3.794 2.703 6.145 3.414l-6.145-3.414c2.907 1.374 3.794 2.703 9.559 3.414z"/><path id="path612" d="M477.92 638.33v-.682c0 1.908-.084.894 1.366-2.731.739-2.96.682-6.218.682-9.559-.211-2.751-.61-5.928-1.365-8.192-.624-3.495-1.339-5.682-2.048-8.876-.488-2.773-2.366-5.834-3.414-8.193-.67-2.01-1.353-6.2-2.048-8.193-.489-2.552-1.715-3.355-4.097-4.096-1.869-.935-6.323-.935-8.193 0-2.009.696-2.006 2.284-2.73 4.096-.253 3.533-.854 6.143 0 9.559 1.155 1.975 2.377 4.071 3.413 6.144 1.342 2.423 2.687 6.059 4.097 8.193 1.027 3.467 1.407 5.068 3.413 8.193.738 2.213 1.902 4.873 3.414 6.827.972 2.43 2.39 4.152 3.414 6.828 1.842 0 .461-.045 4.096.682z"/><path id="path613" d="M618.13 711.13h-11.293c-1.735 1.648-2.339 2.595-5.349 2.972-1.52 1.317-2.96 2.534-5.349 2.971-2.103.458-4.845.595-7.727.595-3.523-.043-4.733.109-5.349-2.972.056-3.063.2-3.234 2.972-3.566 1.484-1.226 3.971-1.807 6.538-2.377 1.962-.697 4.365-1.311 6.538-1.784 2.107-.748 4.118-1.512 5.943-2.377-.454-1.815-1.921-1.417-3.566-.594-2.135 0-4.682.162-5.944-.595-1.483-2.204-2.286-2.927-5.943-2.971-3.47-.042-4.062-.953-7.132-1.189-2.94-.036-4.995-.476-7.133-1.189-3.138-.224-5.246-.702-7.726-1.783-.797-.797 1.094-.962 2.377-1.189 1.758-1.195 3.617-1.675 6.538-1.783h8.321c3.049 0 5.395.49 8.321.595 2.385.825 4.891 1.257 6.538 2.377 2.151.717 3.505 1.978 4.755 3.566 2.091.571 4.195 1.274 6.538 1.783 2.74 0 5.846-.032 7.726.595 1.361 2.268.285 5.986-.594 8.915z"/></g></g></svg>