<svg id="svg5907" xmlns="http://www.w3.org/2000/svg" height="512" width="512" version="1" y="0" x="0"><defs id="defs5909"><clipPath id="clipPath4826" clipPathUnits="userSpaceOnUse"><path id="rect4828" fill-opacity=".67" d="M0 0h512v512H0z"/></clipPath></defs><g id="flag" fill-rule="evenodd" clip-path="url(#clipPath4826)"><path id="rect8587" stroke-width="1pt" fill="#108c00" d="M-258.27 0h1027.5v512h-1027.5z"/><path id="rect8594" stroke-width="1pt" fill="#ffd600" d="M-260 178.16H772.6v50.162H-260z"/><path id="rect8595" stroke-width="1pt" fill="#ffd600" d="M181.08 0h48.432v512H181.08z"/><path id="rect8596" stroke-width="1pt" d="M227.78 0h48.432v512H227.78z"/><path id="rect8597" stroke-width="1pt" d="M-260 226.59H772.6v50.162H-260z"/><path id="rect8598" stroke-width="1pt" fill="#fff" d="M-260 276.76H772.6v50.162H-260z"/><path id="rect8599" stroke-width="1pt" fill="#fff" d="M276.22 0h48.432v512H276.22z"/><rect id="rect8601" stroke-width="1pt" transform="scale(-1)" ry="137.51" width="273.75" y="-393.87" x="-394.56" height="275.03" fill="#e72910"/><g id="g597" stroke-width="1pt" transform="translate(82.476 178.92) scale(.35309)"><path id="path598" d="M130.3 124.25c0-.83 18.259-51.456 18.259-51.456l16.599 50.626s55.606 1.66 55.606.83-43.987 33.198-43.987 33.198 20.748 58.096 19.919 56.436c-.83-1.66-48.137-34.858-48.137-34.858s-48.136 33.198-47.306 33.198 18.258-54.776 18.258-54.776l-43.156-32.37 53.946-.83z" transform="matrix(.86997 0 0 .88048 362.54 -228.35)"/><g id="g599" transform="translate(27.96 -31.866)"><path id="path601" d="M130.3 124.25c0-.83 18.259-51.456 18.259-51.456l16.599 50.626s55.606 1.66 55.606.83-43.987 33.198-43.987 33.198 20.748 58.096 19.919 56.436c-.83-1.66-48.137-34.858-48.137-34.858s-48.136 33.198-47.306 33.198 18.258-54.776 18.258-54.776l-43.156-32.37 53.946-.83z" transform="matrix(.75348 0 0 .76258 351.92 -179.57)" fill="#ffe700"/><path id="path602" d="M130.3 124.25c0-.83 18.259-51.456 18.259-51.456l16.599 50.626s55.606 1.66 55.606.83-43.987 33.198-43.987 33.198 20.748 58.096 19.919 56.436c-.83-1.66-48.137-34.858-48.137-34.858s-48.136 33.198-47.306 33.198 18.258-54.776 18.258-54.776l-43.156-32.37 53.946-.83z" transform="matrix(.43444 0 0 .43969 399.31 -133.03)" fill="#108c00"/></g></g><g id="g625" stroke-width="1pt" transform="translate(188.84 253.8) scale(.35309)"><path id="path626" d="M130.3 124.25c0-.83 18.259-51.456 18.259-51.456l16.599 50.626s55.606 1.66 55.606.83-43.987 33.198-43.987 33.198 20.748 58.096 19.919 56.436c-.83-1.66-48.137-34.858-48.137-34.858s-48.136 33.198-47.306 33.198 18.258-54.776 18.258-54.776l-43.156-32.37 53.946-.83z" transform="matrix(.86997 0 0 .88048 362.54 -228.35)"/><g id="g627" transform="translate(27.96 -31.866)"><path id="path629" d="M130.3 124.25c0-.83 18.259-51.456 18.259-51.456l16.599 50.626s55.606 1.66 55.606.83-43.987 33.198-43.987 33.198 20.748 58.096 19.919 56.436c-.83-1.66-48.137-34.858-48.137-34.858s-48.136 33.198-47.306 33.198 18.258-54.776 18.258-54.776l-43.156-32.37 53.946-.83z" transform="matrix(.75348 0 0 .76258 351.92 -179.57)" fill="#ffe700"/><path id="path630" d="M130.3 124.25c0-.83 18.259-51.456 18.259-51.456l16.599 50.626s55.606 1.66 55.606.83-43.987 33.198-43.987 33.198 20.748 58.096 19.919 56.436c-.83-1.66-48.137-34.858-48.137-34.858s-48.136 33.198-47.306 33.198 18.258-54.776 18.258-54.776l-43.156-32.37 53.946-.83z" transform="matrix(.43444 0 0 .43969 399.31 -133.03)" fill="#108c00"/></g></g><g id="g631" stroke-width="1pt" transform="translate(157.84 372.65) scale(.35309)"><path id="path632" d="M130.3 124.25c0-.83 18.259-51.456 18.259-51.456l16.599 50.626s55.606 1.66 55.606.83-43.987 33.198-43.987 33.198 20.748 58.096 19.919 56.436c-.83-1.66-48.137-34.858-48.137-34.858s-48.136 33.198-47.306 33.198 18.258-54.776 18.258-54.776l-43.156-32.37 53.946-.83z" transform="matrix(.86997 0 0 .88048 362.54 -228.35)"/><g id="g633" transform="translate(27.96 -31.866)"><path id="path635" d="M130.3 124.25c0-.83 18.259-51.456 18.259-51.456l16.599 50.626s55.606 1.66 55.606.83-43.987 33.198-43.987 33.198 20.748 58.096 19.919 56.436c-.83-1.66-48.137-34.858-48.137-34.858s-48.136 33.198-47.306 33.198 18.258-54.776 18.258-54.776l-43.156-32.37 53.946-.83z" transform="matrix(.75348 0 0 .76258 351.92 -179.57)" fill="#ffe700"/><path id="path636" d="M130.3 124.25c0-.83 18.259-51.456 18.259-51.456l16.599 50.626s55.606 1.66 55.606.83-43.987 33.198-43.987 33.198 20.748 58.096 19.919 56.436c-.83-1.66-48.137-34.858-48.137-34.858s-48.136 33.198-47.306 33.198 18.258-54.776 18.258-54.776l-43.156-32.37 53.946-.83z" transform="matrix(.43444 0 0 .43969 399.31 -133.03)" fill="#108c00"/></g></g><g id="g637" stroke-width="1pt" transform="translate(9.132 372.65) scale(.35309)"><path id="path638" d="M130.3 124.25c0-.83 18.259-51.456 18.259-51.456l16.599 50.626s55.606 1.66 55.606.83-43.987 33.198-43.987 33.198 20.748 58.096 19.919 56.436c-.83-1.66-48.137-34.858-48.137-34.858s-48.136 33.198-47.306 33.198 18.258-54.776 18.258-54.776l-43.156-32.37 53.946-.83z" transform="matrix(.86997 0 0 .88048 362.54 -228.35)"/><g id="g639" transform="translate(27.96 -31.866)"><path id="path641" d="M130.3 124.25c0-.83 18.259-51.456 18.259-51.456l16.599 50.626s55.606 1.66 55.606.83-43.987 33.198-43.987 33.198 20.748 58.096 19.919 56.436c-.83-1.66-48.137-34.858-48.137-34.858s-48.136 33.198-47.306 33.198 18.258-54.776 18.258-54.776l-43.156-32.37 53.946-.83z" transform="matrix(.75348 0 0 .76258 351.92 -179.57)" fill="#ffe700"/><path id="path642" d="M130.3 124.25c0-.83 18.259-51.456 18.259-51.456l16.599 50.626s55.606 1.66 55.606.83-43.987 33.198-43.987 33.198 20.748 58.096 19.919 56.436c-.83-1.66-48.137-34.858-48.137-34.858s-48.136 33.198-47.306 33.198 18.258-54.776 18.258-54.776l-43.156-32.37 53.946-.83z" transform="matrix(.43444 0 0 .43969 399.31 -133.03)" fill="#108c00"/></g></g><g id="g643" stroke-width="1pt" transform="translate(-18.025 250.74) scale(.35309)"><path id="path644" d="M130.3 124.25c0-.83 18.259-51.456 18.259-51.456l16.599 50.626s55.606 1.66 55.606.83-43.987 33.198-43.987 33.198 20.748 58.096 19.919 56.436c-.83-1.66-48.137-34.858-48.137-34.858s-48.136 33.198-47.306 33.198 18.258-54.776 18.258-54.776l-43.156-32.37 53.946-.83z" transform="matrix(.86997 0 0 .88048 362.54 -228.35)"/><g id="g645" transform="translate(27.96 -31.866)"><path id="path647" d="M130.3 124.25c0-.83 18.259-51.456 18.259-51.456l16.599 50.626s55.606 1.66 55.606.83-43.987 33.198-43.987 33.198 20.748 58.096 19.919 56.436c-.83-1.66-48.137-34.858-48.137-34.858s-48.136 33.198-47.306 33.198 18.258-54.776 18.258-54.776l-43.156-32.37 53.946-.83z" transform="matrix(.75348 0 0 .76258 351.92 -179.57)" fill="#ffe700"/><path id="path648" d="M130.3 124.25c0-.83 18.259-51.456 18.259-51.456l16.599 50.626s55.606 1.66 55.606.83-43.987 33.198-43.987 33.198 20.748 58.096 19.919 56.436c-.83-1.66-48.137-34.858-48.137-34.858s-48.136 33.198-47.306 33.198 18.258-54.776 18.258-54.776l-43.156-32.37 53.946-.83z" transform="matrix(.43444 0 0 .43969 399.31 -133.03)" fill="#108c00"/></g></g><g id="g649" stroke-width="1pt" transform="rotate(180 246.325 66.07) scale(.35309)"><path id="path650" d="M130.3 124.25c0-.83 18.259-51.456 18.259-51.456l16.599 50.626s55.606 1.66 55.606.83-43.987 33.198-43.987 33.198 20.748 58.096 19.919 56.436c-.83-1.66-48.137-34.858-48.137-34.858s-48.136 33.198-47.306 33.198 18.258-54.776 18.258-54.776l-43.156-32.37 53.946-.83z" transform="matrix(.86997 0 0 .88048 362.54 -228.35)"/><g id="g651" transform="translate(27.96 -31.866)"><path id="path653" d="M130.3 124.25c0-.83 18.259-51.456 18.259-51.456l16.599 50.626s55.606 1.66 55.606.83-43.987 33.198-43.987 33.198 20.748 58.096 19.919 56.436c-.83-1.66-48.137-34.858-48.137-34.858s-48.136 33.198-47.306 33.198 18.258-54.776 18.258-54.776l-43.156-32.37 53.946-.83z" transform="matrix(.75348 0 0 .76258 351.92 -179.57)" fill="#ffe700"/><path id="path654" d="M130.3 124.25c0-.83 18.259-51.456 18.259-51.456l16.599 50.626s55.606 1.66 55.606.83-43.987 33.198-43.987 33.198 20.748 58.096 19.919 56.436c-.83-1.66-48.137-34.858-48.137-34.858s-48.136 33.198-47.306 33.198 18.258-54.776 18.258-54.776l-43.156-32.37 53.946-.83z" transform="matrix(.43444 0 0 .43969 399.31 -133.03)" fill="#108c00"/></g></g><g id="g595" stroke-width="1pt" transform="rotate(180 267.675 124.14) scale(.35309)"><path id="path596" d="M130.3 124.25c0-.83 18.259-51.456 18.259-51.456l16.599 50.626s55.606 1.66 55.606.83-43.987 33.198-43.987 33.198 20.748 58.096 19.919 56.436c-.83-1.66-48.137-34.858-48.137-34.858s-48.136 33.198-47.306 33.198 18.258-54.776 18.258-54.776l-43.156-32.37 53.946-.83z" transform="matrix(.86997 0 0 .88048 362.54 -228.35)"/><g id="g598" transform="translate(27.96 -31.866)"><path id="path600" d="M130.3 124.25c0-.83 18.259-51.456 18.259-51.456l16.599 50.626s55.606 1.66 55.606.83-43.987 33.198-43.987 33.198 20.748 58.096 19.919 56.436c-.83-1.66-48.137-34.858-48.137-34.858s-48.136 33.198-47.306 33.198 18.258-54.776 18.258-54.776l-43.156-32.37 53.946-.83z" transform="matrix(.75348 0 0 .76258 351.92 -179.57)" fill="#ffe700"/><path id="path603" d="M130.3 124.25c0-.83 18.259-51.456 18.259-51.456l16.599 50.626s55.606 1.66 55.606.83-43.987 33.198-43.987 33.198 20.748 58.096 19.919 56.436c-.83-1.66-48.137-34.858-48.137-34.858s-48.136 33.198-47.306 33.198 18.258-54.776 18.258-54.776l-43.156-32.37 53.946-.83z" transform="matrix(.43444 0 0 .43969 399.31 -133.03)" fill="#108c00"/></g></g><g id="g604" stroke-width="1pt" transform="rotate(180 214.73 166.625) scale(.35309)"><path id="path605" d="M130.3 124.25c0-.83 18.259-51.456 18.259-51.456l16.599 50.626s55.606 1.66 55.606.83-43.987 33.198-43.987 33.198 20.748 58.096 19.919 56.436c-.83-1.66-48.137-34.858-48.137-34.858s-48.136 33.198-47.306 33.198 18.258-54.776 18.258-54.776l-43.156-32.37 53.946-.83z" transform="matrix(.86997 0 0 .88048 362.54 -228.35)"/><g id="g606" transform="translate(27.96 -31.866)"><path id="path608" d="M130.3 124.25c0-.83 18.259-51.456 18.259-51.456l16.599 50.626s55.606 1.66 55.606.83-43.987 33.198-43.987 33.198 20.748 58.096 19.919 56.436c-.83-1.66-48.137-34.858-48.137-34.858s-48.136 33.198-47.306 33.198 18.258-54.776 18.258-54.776l-43.156-32.37 53.946-.83z" transform="matrix(.75348 0 0 .76258 351.92 -179.57)" fill="#ffe700"/><path id="path609" d="M130.3 124.25c0-.83 18.259-51.456 18.259-51.456l16.599 50.626s55.606 1.66 55.606.83-43.987 33.198-43.987 33.198 20.748 58.096 19.919 56.436c-.83-1.66-48.137-34.858-48.137-34.858s-48.136 33.198-47.306 33.198 18.258-54.776 18.258-54.776l-43.156-32.37 53.946-.83z" transform="matrix(.43444 0 0 .43969 399.31 -133.03)" fill="#108c00"/></g></g><g id="g610" stroke-width="1pt" transform="rotate(180 164.985 124.14) scale(.35309)"><path id="path611" d="M130.3 124.25c0-.83 18.259-51.456 18.259-51.456l16.599 50.626s55.606 1.66 55.606.83-43.987 33.198-43.987 33.198 20.748 58.096 19.919 56.436c-.83-1.66-48.137-34.858-48.137-34.858s-48.136 33.198-47.306 33.198 18.258-54.776 18.258-54.776l-43.156-32.37 53.946-.83z" transform="matrix(.86997 0 0 .88048 362.54 -228.35)"/><g id="g612" transform="translate(27.96 -31.866)"><path id="path614" d="M130.3 124.25c0-.83 18.259-51.456 18.259-51.456l16.599 50.626s55.606 1.66 55.606.83-43.987 33.198-43.987 33.198 20.748 58.096 19.919 56.436c-.83-1.66-48.137-34.858-48.137-34.858s-48.136 33.198-47.306 33.198 18.258-54.776 18.258-54.776l-43.156-32.37 53.946-.83z" transform="matrix(.75348 0 0 .76258 351.92 -179.57)" fill="#ffe700"/><path id="path615" d="M130.3 124.25c0-.83 18.259-51.456 18.259-51.456l16.599 50.626s55.606 1.66 55.606.83-43.987 33.198-43.987 33.198 20.748 58.096 19.919 56.436c-.83-1.66-48.137-34.858-48.137-34.858s-48.136 33.198-47.306 33.198 18.258-54.776 18.258-54.776l-43.156-32.37 53.946-.83z" transform="matrix(.43444 0 0 .43969 399.31 -133.03)" fill="#108c00"/></g></g><g id="g616" stroke-width="1pt" transform="rotate(180 183.345 66.925) scale(.35309)"><path id="path617" d="M130.3 124.25c0-.83 18.259-51.456 18.259-51.456l16.599 50.626s55.606 1.66 55.606.83-43.987 33.198-43.987 33.198 20.748 58.096 19.919 56.436c-.83-1.66-48.137-34.858-48.137-34.858s-48.136 33.198-47.306 33.198 18.258-54.776 18.258-54.776l-43.156-32.37 53.946-.83z" transform="matrix(.86997 0 0 .88048 362.54 -228.35)"/><g id="g618" transform="translate(27.96 -31.866)"><path id="path620" d="M130.3 124.25c0-.83 18.259-51.456 18.259-51.456l16.599 50.626s55.606 1.66 55.606.83-43.987 33.198-43.987 33.198 20.748 58.096 19.919 56.436c-.83-1.66-48.137-34.858-48.137-34.858s-48.136 33.198-47.306 33.198 18.258-54.776 18.258-54.776l-43.156-32.37 53.946-.83z" transform="matrix(.75348 0 0 .76258 351.92 -179.57)" fill="#ffe700"/><path id="path621" d="M130.3 124.25c0-.83 18.259-51.456 18.259-51.456l16.599 50.626s55.606 1.66 55.606.83-43.987 33.198-43.987 33.198 20.748 58.096 19.919 56.436c-.83-1.66-48.137-34.858-48.137-34.858s-48.136 33.198-47.306 33.198 18.258-54.776 18.258-54.776l-43.156-32.37 53.946-.83z" transform="matrix(.43444 0 0 .43969 399.31 -133.03)" fill="#108c00"/></g></g><g id="g1112" transform="translate(-250.6 359.43) scale(1.0355)"><g id="g1014" transform="matrix(.1635 -.01628 .01182 .18436 429.84 -215.63)" stroke="#000" stroke-width="2.5" fill="#009200"><ellipse id="path1011" rx="30.805" ry="189.82" transform="matrix(1.4051 -.00581 .00817 .99998 -534.29 263.72)" cy="586.13" cx="680.21"/><ellipse id="path1012" rx="30.805" ry="189.82" transform="matrix(1.4862 -.00581 .00864 .99998 -547.22 267.05)" cy="586.13" cx="680.21"/><ellipse id="path1013" rx="30.805" ry="189.82" transform="matrix(1.189 -.00642 .00691 1.1052 -364.93 214.1)" cy="586.13" cx="680.21"/></g><g id="g1105" stroke="#000" transform="translate(72.865 -9.797)"><path id="path1010" d="M238.34 971.79c29.972-1.665 16.651-16.652 31.637-24.977 14.986-8.326 36.633-3.33 43.293 6.66 6.661 9.991 1.666 19.982 9.991 19.982 8.326 0 234.56-12.675 242.88-4.349 8.326 8.325 9.991 24.977 1.665 31.634-8.325 6.66-294.5 14.34-304.49 7.68-9.991-6.66-24.977-34.965-24.977-36.63z" transform="matrix(.20244 .00349 -.00394 .21385 340.86 -247.31)" stroke-width="2.505" fill="#a95600"/><path id="path1506" d="M529.59 405.46c0 39.983 45.562 27.879 46.81 61.249-.724 35.408-76.706 3.467-78.635-61.249 1.929-64.716 75.107-97.929 76.705-61.011 1.246 30.686-44.88 21.028-44.88 61.011z" transform="matrix(.14799 .00195 -.00275 .11459 340.42 -81.691)" stroke-width="3.853" fill="#ff0"/><path id="path1507" d="M529.59 405.46c0 39.983 45.562 27.879 46.81 61.249-.724 35.408-76.706 3.467-78.635-61.249 1.929-64.716 75.107-97.929 76.705-61.011 1.246 30.686-44.88 21.028-44.88 61.011z" transform="matrix(.14799 .00195 -.00275 .11459 344.42 -81.638)" stroke-width="3.853" fill="#ff0"/><path id="path1508" d="M529.59 405.46c0 39.983 45.562 27.879 46.81 61.249-.724 35.408-76.706 3.467-78.635-61.249 1.929-64.716 75.107-97.929 76.705-61.011 1.246 30.686-44.88 21.028-44.88 61.011z" transform="matrix(.14799 .00195 -.00275 .11459 348.71 -81.8)" stroke-width="3.853" fill="#ff0"/><path id="path1509" d="M529.59 405.46c0 39.983 45.562 27.879 46.81 61.249-.724 35.408-76.706 3.467-78.635-61.249 1.929-64.716 75.107-97.929 76.705-61.011 1.246 30.686-44.88 21.028-44.88 61.011z" transform="matrix(.14799 .00195 -.00275 .11459 352.71 -81.747)" stroke-width="3.853" fill="#ff0"/><ellipse id="path1091" rx="3.534" ry="3.403" transform="matrix(1.0945 .01648 -.02429 1.1537 -75.571 4.678)" cy="-41.086" cx="478.38" stroke-width=".399" fill="#a95600"/></g><g id="g1048" transform="rotate(-5.798 688.344 -625.25)" stroke="#000" stroke-width="2.5" fill="#009200"><ellipse id="path1049" rx="20.814" ry="24.144" transform="matrix(.16619 -.00807 .00169 .3152 369.8 -361.65)" cy="905" cx="427.11"/><ellipse id="path1050" rx="20.814" ry="24.144" transform="matrix(.16619 -.00807 .00169 .3152 364.04 -362.7)" cy="905" cx="427.11"/><ellipse id="path1052" rx="20.814" ry="24.144" transform="matrix(.16619 -.00807 .00169 .3152 360.64 -370.55)" cy="905" cx="427.11"/><ellipse id="path1053" rx="20.814" ry="24.144" transform="matrix(.1599 -.0089 .00162 .34772 369.3 -399.35)" cy="905" cx="427.11"/><ellipse id="path1054" rx="20.814" ry="24.144" transform="matrix(.1599 -.00835 .00162 .32604 377.41 -379.07)" cy="905" cx="427.11"/><ellipse id="path1055" rx="20.814" ry="24.144" transform="matrix(.1599 -.00835 .00162 .32604 373.22 -382.21)" cy="905" cx="427.11"/><ellipse id="path1056" rx="20.814" ry="24.144" transform="matrix(.1599 -.00835 .00162 .32604 367.99 -386.66)" cy="905" cx="427.11"/><ellipse id="path1057" rx="20.814" ry="24.144" transform="matrix(.1599 -.00835 .00162 .32604 363.01 -389.54)" cy="905" cx="427.11"/></g><path id="path851" d="M173.17 346.35s-54.198 64.893-21.252 208.82c33.958 144.59 178.96 189.78 178.96 189.78s26.496-47.423 1.726-164.04c-39.96-169.85-116.14-234.56-116.14-234.56h-43.293z" transform="matrix(.17689 .0322 -.03142 .18236 461.79 -208.61)" stroke="#000" stroke-width="2.5" fill="#804bff"/><g id="g1026" transform="rotate(4.469 180.984 769.886)" stroke="#000" stroke-width="2.5" fill="#009200"><ellipse id="path1025" rx="20.814" ry="24.144" transform="matrix(.16619 -.00807 .00169 .3152 369.8 -361.65)" cy="905" cx="427.11"/><ellipse id="path1017" rx="20.814" ry="24.144" transform="matrix(.16619 -.00807 .00169 .3152 364.04 -362.7)" cy="905" cx="427.11"/><ellipse id="path1016" rx="20.814" ry="24.144" transform="matrix(.16619 -.00807 .00169 .3152 360.64 -370.55)" cy="905" cx="427.11"/><ellipse id="path1018" rx="20.814" ry="24.144" transform="matrix(.1599 -.0089 .00162 .34772 369.3 -399.35)" cy="905" cx="427.11"/><ellipse id="path1020" rx="20.814" ry="24.144" transform="matrix(.1599 -.00835 .00162 .32604 377.41 -379.07)" cy="905" cx="427.11"/><ellipse id="path1019" rx="20.814" ry="24.144" transform="matrix(.1599 -.00835 .00162 .32604 373.22 -382.21)" cy="905" cx="427.11"/><ellipse id="path1005" rx="20.814" ry="24.144" transform="matrix(.1599 -.00835 .00162 .32604 367.99 -386.66)" cy="905" cx="427.11"/><ellipse id="path988" rx="20.814" ry="24.144" transform="matrix(.1599 -.00835 .00162 .32604 363.01 -389.54)" cy="905" cx="427.11"/></g><ellipse id="path985" rx="58.28" ry="186.49" stroke="#000" transform="matrix(.15695 -.06063 .06364 .1484 369.61 -145.05)" cy="606.11" cx="624.42" stroke-width="1pt" fill="#c90000"/><g id="g1072" stroke="#000" fill="#009200" transform="rotate(1.025 242.403 -1957.802)"><ellipse id="path872" rx="10.823" ry="12.905" transform="matrix(.3953 0 0 .2927 445.07 -230.53)" cy="356.75" cx="218.13" stroke-width="1.464"/><ellipse id="path888" rx="10.823" ry="12.905" transform="matrix(.35412 0 0 .2927 457.17 -235.92)" cy="356.75" cx="218.13" stroke-width="1.546"/><ellipse id="path887" rx="10.823" ry="12.905" transform="matrix(.35412 0 0 .2927 452 -235.92)" cy="356.75" cx="218.13" stroke-width="1.546"/><ellipse id="path879" rx="10.823" ry="12.905" transform="matrix(.37059 0 0 .27478 449.48 -233.46)" cy="356.75" cx="218.13" stroke-width="1.56"/><ellipse id="path878" rx="10.823" ry="12.905" transform="matrix(.37059 0 0 .27478 448.95 -237.93)" cy="356.75" cx="218.13" stroke-width="1.56"/><ellipse id="path867" rx="10.823" ry="12.905" transform="matrix(.35412 0 0 .2927 447.01 -238.85)" cy="356.75" cx="218.13" stroke-width="1.546"/><ellipse id="path877" rx="10.823" ry="12.905" transform="matrix(.35412 0 0 .28673 448.08 -241.58)" cy="356.75" cx="218.13" stroke-width="1.562"/><ellipse id="path876" rx="10.823" ry="12.905" transform="matrix(.3953 0 0 .2927 432.77 -243.48)" cy="356.75" cx="218.13" stroke-width="1.464"/><ellipse id="path874" rx="10.823" ry="12.905" transform="matrix(.37059 0 0 .27478 445.92 -243.48)" cy="356.75" cx="218.13" stroke-width="1.56"/><ellipse id="path873" rx="10.823" ry="12.905" transform="matrix(.35412 0 0 .28673 444.16 -246.97)" cy="356.75" cx="218.13" stroke-width="1.562"/><ellipse id="path871" rx="10.823" ry="12.905" transform="matrix(.35412 0 0 .2927 436.14 -243.17)" cy="356.75" cx="218.13" stroke-width="1.546"/><ellipse id="path1070" rx="10.823" ry="12.905" transform="matrix(.35412 0 0 .28673 437.42 -243.88)" cy="356.75" cx="218.13" stroke-width="1.562"/><ellipse id="path869" rx="10.823" ry="12.905" transform="matrix(.35412 0 0 .28673 438.99 -247.02)" cy="356.75" cx="218.13" stroke-width="1.562"/></g><g id="g946" stroke="#000" fill="#009200" transform="matrix(.17961 -.00452 .0042 .18512 420.99 -216.8)"><ellipse id="path889" rx="67.438" ry="205.64" transform="matrix(.97574 -.30793 .36304 .87448 -245.81 324.4)" cy="564.48" cx="528.68" stroke-width="2.545"/><ellipse id="path894" rx="13.321" ry="40.796" transform="rotate(-23.381 630.524 660.846)" cy="646.07" cx="528.68" stroke-width="2.5"/><path id="path893" d="M139.87 643.99c0 57.677-18.755 86.171-34.551 110.32 7.517-32.47 12.905-52.637 12.905-110.31 0-57.677 29.579-85.337 40.379-101.99-4.186 16.652-18.733 44.312-18.733 101.99z" transform="matrix(1.8828 -.45598 .95342 1.1822 -352.26 -10.02)" stroke-width="1.533"/><path id="path892" d="M139.87 643.99c0 57.677-18.755 86.171-34.551 110.32 7.517-32.47 12.905-52.637 12.905-110.31 0-57.677 29.579-85.337 40.379-101.99-4.186 16.652-18.733 44.312-18.733 101.99z" transform="matrix(1.8828 -.45598 .95342 1.1822 -348.42 44.058)" stroke-width="1.533"/><path id="path891" d="M139.87 643.99c0 57.677-18.755 86.171-34.551 110.32 7.517-32.47 12.905-52.637 12.905-110.31 0-57.677 29.579-85.337 40.379-101.99-4.186 16.652-18.733 44.312-18.733 101.99z" transform="matrix(1.873 -.49468 .97758 1.1623 -361.92 105.78)" stroke-width="1.533"/><ellipse id="path895" rx="13.321" ry="40.796" transform="matrix(1.8105 -.40052 .69907 1.6353 -915.63 -221.01)" cy="646.07" cx="528.68" stroke-width="1.389"/><ellipse id="path896" rx="13.321" ry="40.796" transform="matrix(1.6257 -.23068 .54158 1.3528 -739.49 -91.775)" cy="646.07" cx="528.68" stroke-width="1.64"/><ellipse id="path897" rx="13.321" ry="40.796" transform="matrix(1.6304 -.19719 .51251 1.3635 -750.62 -91.826)" cy="646.07" cx="528.68" stroke-width="1.64"/><ellipse id="path898" rx="13.321" ry="40.796" transform="matrix(1.3144 -.2006 .46889 1.0101 -531.06 47.568)" cy="646.07" cx="528.68" stroke-width="2.097"/><ellipse id="path899" rx="13.321" ry="40.796" transform="matrix(1.3258 -.13044 .40342 1.0327 -517.87 12.211)" cy="646.07" cx="528.68" stroke-width="2.097"/><path id="path945" d="M145.7 569.47c0 34.006-6.712 61.61-14.985 61.61-8.272 0-14.986-27.604-14.986-61.61" transform="matrix(1.0254 -.49277 .46438 1.1773 12.767 -14.519)" stroke-width="2.086"/><ellipse id="path902" rx="13.321" ry="40.796" transform="matrix(1.3258 -.13044 .40342 1.0327 -519.53 -34.412)" cy="646.07" cx="528.68" stroke-width="2.097"/><ellipse id="path903" rx="13.321" ry="40.796" transform="matrix(1.3288 -.10511 .37955 1.04 -533.98 -40.121)" cy="646.07" cx="528.68" stroke-width="2.097"/><path id="path909" d="M145.7 569.47c0 34.006-6.712 61.61-14.985 61.61-8.272 0-14.986-27.604-14.986-61.61" transform="matrix(.6722 -.47182 .45894 .7991 39.486 143.28)" stroke-width="2.88"/><path id="path906" d="M145.7 569.47c0 34.006-6.712 61.61-14.985 61.61-8.272 0-14.986-27.604-14.986-61.61" transform="matrix(.6722 -.47182 .45894 .7991 51.142 125.79)" stroke-width="2.88"/><path id="path907" d="M145.7 569.47c0 34.006-6.712 61.61-14.985 61.61-8.272 0-14.986-27.604-14.986-61.61" transform="matrix(.9374 -.64468 .64 1.0919 -40.198 -10.744)" stroke-width="2.086"/><path id="path908" d="M145.7 569.47c0 34.006-6.712 61.61-14.985 61.61-8.272 0-14.986-27.604-14.986-61.61" transform="matrix(.6722 -.52022 .45894 .88108 68.626 71.179)" stroke-width="2.742"/></g><g id="g919" transform="matrix(1.1014 .27587 -.26559 .97437 -85.415 -157.9)" stroke="#000" stroke-width="2.5" fill="#804bff"><path id="path875" d="M276.27 345.41c-12.278 9.174.409 25.144 12.022 30.679 13.06 7.672 86.603 58.185 136.32 11.999-40.795.833-118.66-63.183-148.34-42.678z" transform="matrix(.13441 -.03045 .04851 .21681 448.75 -184.91)"/><path id="path870" d="M276.27 345.41c-12.278 9.174.409 25.144 12.022 30.679 13.06 7.672 86.603 58.185 136.32 11.999-40.795.833-118.66-63.183-148.34-42.678z" transform="matrix(.13441 -.03045 .04851 .21681 446.2 -190.22)"/><path id="path868" d="M276.27 345.41c-12.278 9.174.409 25.144 12.022 30.679 13.06 7.672 86.603 58.185 136.32 11.999-40.795.833-118.66-63.183-148.34-42.678z" transform="matrix(.13441 -.03045 .04851 .21681 443.39 -195.19)"/><path id="path866" d="M276.27 345.41c-12.278 9.174.409 25.144 12.022 30.679 13.06 7.672 86.603 58.185 136.32 11.999-40.795.833-118.66-63.183-148.34-42.678z" transform="matrix(.13441 -.03045 .04851 .21681 438.61 -200.44)"/></g><g id="g907" transform="rotate(1.025 -589.593 681.628)"><path id="path852" d="M211.17 247.3c21.773-12.065 56.618-9.749 79.734 11.165 19.36 16.943 45.307 75.194 70.322 92.834-20.227.019-31.298-5.769-42.241-15.18-28.767 15.442-38.127 16.724-63.89 15.632-35.881-1.334-62.459-17.654-68.178-40.604-6.166-21.804 4.925-52.498 24.253-63.847z" transform="matrix(.20883 -.04091 .0473 .1806 407.8 -213.64)" stroke="#000" stroke-width="2.5" fill="#804bff"/><ellipse id="path1051" rx="14.154" ry="14.986" stroke="#000" transform="matrix(.24521 0 0 .13433 401.82 -215.18)" cy="323.04" cx="287.23" stroke-width="2.5" fill="red"/><ellipse id="path1062" rx="23.254" ry="15.895" stroke="#000" transform="matrix(.19364 -.07599 .06759 .17273 398.66 -208.06)" cy="348.26" cx="204.58" stroke-width="2.5" fill="#ff0"/><circle id="path1059" transform="matrix(.21412 0 0 .18518 411.29 -233.74)" cy="333.86" cx="283.9" stroke-width="1pt" r="5.828"/><path id="path1061" d="M516.8 260.29c4.425 18.107-6.674 43.083-33.133 52.609-26.775 13.173-46.079 41.831-55.641 88.017-47.244-103.27-23.107-148.28 20.6-160.35 37.377-14.363 60.42-13.371 68.174 19.72z" transform="matrix(.09229 .00089 -.0034 .08482 417.85 -191.49)" stroke="#000" stroke-width="6.56" fill="#ff0"/><circle id="path1113" transform="matrix(.18697 -.01313 .01399 .19143 418.69 -234.98)" cy="362.39" cx="198.98" stroke-width="1pt" r="4.71"/></g></g></g></svg>