<svg id="svg378" xmlns="http://www.w3.org/2000/svg" height="512" width="512" version="1" y="0" x="0"><g id="flag" stroke-width="1pt" fill-rule="evenodd"><g id="g10429" transform="scale(.48166 .72249)"><path id="rect171" fill="#fff" d="M0 0h1063v708.66H0z"/><path id="rect186" fill="#00bf13" d="M0 0h531.5v708.66H0z"/></g><g id="g10433" transform="translate(-106.73 24.003) scale(.67903)" fill="#f21930"><path id="path184" d="M692.45 439.71c-50.15 90.2-160.76 122.25-248.65 73.84s-119.93-159.03-71.52-246.92c48.409-87.887 159.02-119.93 246.91-71.519 32.491 17.896 55.625 41.423 73.819 74.936-6.64-9.132-14.053-16.67-23.784-24.32-59.948-47.132-146.85-36.73-193.98 23.218-47.13 59.947-36.729 146.85 23.218 193.98 59.948 47.131 146.85 36.729 193.98-23.218z"/><path id="polygon185" transform="translate(2.181 -2.905)" d="M532.15 298.04l71.88 24.46 44.56-61.47-1.06 75.92 72.23 23.38-72.52 22.45.08 75.93-43.77-62.04-72.18 23.54 45.47-60.8z"/></g></g></svg>