<svg id="svg607" xmlns="http://www.w3.org/2000/svg" height="512" width="512" version="1.1"><defs id="defs609"><clipPath id="clipPath3036" clipPathUnits="userSpaceOnUse"><path id="rect3038" fill-opacity=".67" d="M0 0h512v512H0z"/></clipPath></defs><g id="flag" fill-rule="evenodd" clip-path="url(#clipPath3036)"><path id="rect611" stroke-width="1pt" d="M-180 0H844v256H-180z"/><path id="rect612" stroke-width="1pt" fill="#107b00" d="M-180 256H844v256H-180z"/><path id="rect643" stroke-width="1pt" fill="#fff" d="M-180 169.31H844v176.13H-180z"/><path id="path645" d="M309.98 195.55c-45.202-19.423-84.107 20.644-84.063 58.085.046 39.158 38.021 80.919 86.168 62.431-34.087-10.038-48.156-35.216-48.149-60.68-.246-25.217 15.886-54.541 46.044-59.836z" fill="#f0f"/><path id="polygon644" transform="rotate(.71 55.165 -14285.092) scale(1.6384)" stroke-width="1pt" fill="#ff1800" d="M331.88 176.56l-15.91-11.32-15.72 11.73 5.85-18.63-16.01-11.32 19.52-.2 5.83-18.72 6.22 18.5 19.6-.24-15.68 11.63z"/><path id="path648" d="M314.34 315.65c-50.517 17.536-88.554-20.48-89.216-59.456-.66-38.976 37.59-79.167 89.473-60.865-29.355 4.353-50.912 30.081-51.169 59.169-.197 21.994 12.811 53.345 50.912 61.152z" fill="red"/><path id="path615" d="M-179.98 0l348.61 256.62L-180 512l.002-509.38.015-2.622z" fill="red"/></g></svg>