<svg id="svg378" xmlns="http://www.w3.org/2000/svg" height="512" width="512" version="1" y="0" x="0"><defs id="defs380"><clipPath id="clipPath3804" clipPathUnits="userSpaceOnUse"><path id="rect3806" fill-opacity=".67" d="M229.34 6.346H718.6v489.26H229.34z"/></clipPath></defs><g id="flag" fill-rule="evenodd" clip-path="url(#clipPath3804)" transform="translate(-240 -6.641) scale(1.0465)" stroke-width="1pt"><path id="rect171" fill="#ffc621" d="M1.923 9.69h991.84v475.89H1.923z"/><path id="rect289" fill="#ef2118" d="M0 333.64h993.18v161.97H0z"/><path id="rect288" fill="#298c08" d="M1.923 6.346h991.93v172H1.923z"/><circle id="path316" cx="534.22" cy="352.97" transform="translate(204.68 77.013) scale(.51526)" fill="#006bc6" r="199.65"/><path id="path322" d="M445.21 211.89l-11.929 8.386 43.572 61.24 11.622-7.411-43.265-62.215zm54.544 144.55l-17.917-12.493 7.404-23.509-89.247 1.246-25.832-19.778 121.83-1.313 22.594-68.45 12.137 27.677-30.969 96.62zm141.92-131.08l-11.599-8.837-45.211 60.04 10.577 8.839 46.233-60.042zm-121.31 95.673l6.496-20.855 24.647-.045-28.156-84.699 11.049-30.601 38.064 115.74 72.077.854-22.715 19.933-101.46-.326zm168.16 94.891l4.849-13.752-71.021-24.595-5.165 12.779 71.337 25.568zm-128.3-86.082l21.842-.221 7.611 23.443 71.964-52.799 32.515 1.12-98.463 71.759 21.315 68.858-25.944-15.499-30.84-96.661zm-36.627 189.32l14.58.213.674-75.156-13.759-.822-1.495 75.765zm40.697-149.04l7.171 20.633-19.794 14.685 72.983 51.381 9.303 31.176-99.401-70.454-58.472 42.152 6.421-29.531 81.789-60.042zm-191.52 24.083l4.312 13.93 71.672-22.632-3.48-13.338-72.504 22.04zm154.32-7.455l-17.397 13.207-20.094-14.273-26.255 85.306-26.763 18.499 36.211-116.33-58.187-42.545 30.068-3.039 82.417 59.177z" transform="translate(204.68 77.013) scale(.51526)" fill="#ffc621"/></g></svg>