<svg id="svg555" xmlns="http://www.w3.org/2000/svg" height="512" width="512" version="1.0" y="0" x="0"><defs id="defs557"><clipPath id="clipPath3830" clipPathUnits="userSpaceOnUse"><path id="rect3832" fill-opacity=".67" d="M125.07 0h606.3v606.3h-606.3z"/></clipPath></defs><path id="rect562" fill-rule="evenodd" stroke-width="1pt" fill="#0062da" d="M.293-3764.3h49.872v8.546H.293z"/><path id="rect571" fill-rule="evenodd" stroke-width="1pt" fill="#0062da" d="M0-2800500h7472800v66033H0z"/><g id="flag" fill-rule="evenodd" clip-path="url(#clipPath3830)" transform="translate(-105.62) scale(.84447)" stroke-width="1pt"><path id="rect565" fill="#fff" d="M0 385.64h295.28v220.65H0z"/><path id="rect566" fill="#0062da" d="M295.08 0h177.56v606.29H295.08z"/><path id="rect567" fill="#0062da" d="M0 220.47h1063v165.35H0z"/><path id="rect568" fill="#fff" d="M0 .004h295.28v220.65H0z"/><path id="rect570" fill="#fff" d="M472.44 385.64h590.55v220.65H472.44z"/><path id="rect574" fill="#fff" d="M472.44.002h590.55v220.65H472.44z"/><path id="rect564" fill="#fff" d="M0 385.64h295.28v220.65H0z"/><path id="rect569" fill="#0062da" d="M295.08 0h177.56v606.29H295.08z"/><path id="rect572" fill="#fff" d="M0 .004h295.28v220.65H0z"/><path id="rect573" fill="#fff" d="M472.44 385.64h590.55v220.65H472.44z"/><path id="rect575" fill="#fff" d="M472.44.002h590.55v220.65H472.44z"/></g></svg>