<svg id="svg676" xmlns="http://www.w3.org/2000/svg" height="512" width="512" version="1.0" xmlns:xlink="http://www.w3.org/1999/xlink"><defs id="defs678"><linearGradient id="linearGradient1104"><stop id="stop1105" stop-color="#a43907" stop-opacity=".996" offset="0"/><stop id="stop1106" stop-color="#fff" offset="1"/></linearGradient><linearGradient id="linearGradient3933" y2="577.14" xlink:href="#linearGradient1104" gradientUnits="userSpaceOnUse" x2="470.9" gradientTransform="scale(1.0028 .99725)" y1="592.2" x1="444.4"/><linearGradient id="linearGradient3937" y2="552.83" xlink:href="#linearGradient1104" gradientUnits="userSpaceOnUse" x2="520.55" gradientTransform="scale(.93636 1.068)" y1="562.51" x1="458.24"/><linearGradient id="linearGradient3939" y2="580.2" xlink:href="#linearGradient1104" gradientUnits="userSpaceOnUse" x2="445.28" gradientTransform="scale(1.0028 .99725)" y1="578.68" x1="472.38"/><linearGradient id="linearGradient3941" y2="558.12" xlink:href="#linearGradient1104" gradientUnits="userSpaceOnUse" x2="456.44" gradientTransform="scale(.93636 1.068)" y1="553.74" x1="517.97"/><linearGradient id="linearGradient3943" y2="369.94" xlink:href="#linearGradient1104" gradientUnits="userSpaceOnUse" x2="646.19" y1="369.94" x1="851.78"/><linearGradient id="linearGradient3945" y2="508.75" xlink:href="#linearGradient1104" gradientUnits="userSpaceOnUse" x2="677.4" gradientTransform="scale(.82275 1.2154)" y1="507.23" x1="388.53"/><linearGradient id="linearGradient3947" y2="505.86" xlink:href="#linearGradient1104" gradientUnits="userSpaceOnUse" x2="556.8" gradientTransform="scale(.83508 1.1975)" y1="504.94" x1="579.84"/><linearGradient id="linearGradient3949" y2="514.33" xlink:href="#linearGradient1104" gradientUnits="userSpaceOnUse" x2="558.88" gradientTransform="scale(.82275 1.2154)" y1="512.01" x1="581.43"/><linearGradient id="linearGradient3951" y2="503.9" xlink:href="#linearGradient1104" gradientUnits="userSpaceOnUse" x2="589.77" gradientTransform="scale(.83508 1.1975)" y1="517.88" x1="552"/></defs><g id="flag"><path id="rect124" stroke-width="1pt" fill="#006" d="M0 0h512v512H0z"/><path id="rect5476" fill-rule="evenodd" fill="#006" d="M0 0h512v256H0z"/><g id="g584" stroke-width="1pt" transform="translate(0 .001) scale(8.5333)"><path id="path146" d="M0 0v3.354L53.292 30H60v-3.354L6.708 0H0zm60 0v3.354L6.708 30H0v-3.354L53.292 0H60z" fill="#fff"/><path id="path136" d="M25 0v30h10V0H25zM0 10v10h60V10H0z" fill="#fff"/><path id="path141" d="M0 12v6h60v-6H0zM27 0v30h6V0h-6z" fill="#c00"/><path id="path150" d="M0 30l20-10h4.472l-20 10H0zM0 0l20 10h-4.472L0 2.236V0zm35.528 10l20-10H60L40 10h-4.472zM60 30L40 20h4.472L60 27.764V30z" fill="#c00"/></g><g id="g8971" transform="translate(-509.21 19.211) scale(1.1682)"><path id="path10718" d="M670.97 321.56c-.734.012-1.438.084-2.031.188-3.388.59-8.733 11.63-11.688 18.094-4.622 5.644-7.089 10.03-9.031 13.28-.755 1.263-1.92 2.728-1.563 4.407-6.996 1.719-7.344 7.725-7.344 10.062 0 2.48.782 3.719.782 3.719l4.187 7.843.031.094c4.457 9.216 11.057 21.626 14.75 22.656 5.243 1.462 18.821-3.55 29-12.156 16.69 6.875 38.072 12.562 61.97 12.562 23.895 0 45.247-5.688 61.937-12.562 10.18 8.606 23.758 13.618 29 12.156 3.705-1.033 10.324-13.525 14.781-22.75l4.188-7.844s.781-1.24.781-3.719c0-2.338-.377-8.344-7.375-10.062.35-1.678-.776-3.143-1.531-4.406-1.957-3.274-4.42-7.7-9.094-13.406-2.966-6.479-8.289-17.382-11.656-17.969-4.742-.826-14.969 1.58-14.969 2.406 0 .02-.058.449-.063.5l-20.54 19.4c0 .557 1.09 14.594 4.938 27-13.749 5.006-30.626 8.532-50.406 8.532-19.793 0-36.715-3.521-50.469-8.532 3.848-12.406 4.969-26.443 4.969-27l-20.53-19.4c-.005-.051-.063-.48-.063-.5 0-.723-7.832-2.675-12.969-2.593zm5.25 24.094c2.582-.032 5.332 2.095 7.594 4.469-.078.466-.157.944-.25 1.375-.624 2.872-1.696 6.663-3.188 10.625-5.87-3.429-10.66-6.996-14.312-10.312 2.228-2.37 5.806-5.597 9.594-6.125.185-.026.375-.03.563-.031zm147.56 0c.187.002.377.005.563.031 3.788.528 7.397 3.756 9.625 6.125-3.66 3.324-8.457 6.909-14.344 10.344-1.498-3.97-2.563-7.778-3.188-10.656-.094-.432-.172-.907-.25-1.375 2.265-2.38 5.006-4.501 7.594-4.469zm-166 27.375c2.73 2.092 6.296 4.476 10.594 7-1.191.756-2.456 1.317-3.781 1.625-1.765.41-3.621.331-5.5-.063-.587-1.45-1.082-3.275-1.219-5.718a68.645 68.645 0 01-.094-2.844zm184.47 0c-.014.878-.068 1.826-.125 2.844-.137 2.443-.601 4.267-1.188 5.719-1.879.393-3.766.472-5.53.062-1.326-.308-2.56-.869-3.75-1.625 4.299-2.524 7.862-4.907 10.593-7z" fill-rule="evenodd" transform="translate(-.016 -1.005)" stroke="#fff" stroke-width="10" fill="url(#linearGradient3933)"/><path id="path8617" d="M445.63 595.48s5.625-8.75 10.313-8.125c4.687.625 9.062 6.25 9.375 6.562.312.313 7.187-7.187 6.875-7.5-.313-.312-7.188-16.562-10.938-17.187s-11.847 1.196-11.847 1.82-3.778 24.43-3.778 24.43z" fill-rule="evenodd" transform="matrix(-1.2646 0 0 1.3223 1252.2 -431.98)" stroke="#000" stroke-width="1.16" fill="url(#linearGradient3933)"/><path id="path8619" d="M433.13 586.11c0 .625 1.875 23.75 10 31.875s21.25 13.125 25.938 11.875c4.687-1.25 15.312-24.687 15.312-24.687s-11.25 11.25-19.687 9.375c-8.438-1.875-13.438-15.938-15-22.813-1.563-6.875-.313-20.313-.313-20.313l-16.25 14.688z" fill-rule="evenodd" transform="matrix(-1.2646 0 0 1.3223 1252.2 -431.98)" stroke="#000" stroke-width="1.16" fill="url(#linearGradient3937)"/><path id="path1097" d="M445.63 595.48s5.625-8.75 10.313-8.125c4.687.625 9.062 6.25 9.375 6.562.312.313 7.187-7.187 6.875-7.5-.313-.312-7.188-16.562-10.938-17.187s-11.847 1.196-11.847 1.82-3.778 24.43-3.778 24.43z" fill-rule="evenodd" transform="matrix(1.2646 0 0 1.3223 247.76 -431.98)" stroke="#000" stroke-width="1.16" fill="url(#linearGradient3939)"/><path id="path1098" d="M433.13 586.11c0 .625 1.875 23.75 10 31.875s21.25 13.125 25.938 11.875c4.687-1.25 15.312-24.687 15.312-24.687s-11.25 11.25-19.687 9.375c-8.438-1.875-13.438-15.938-15-22.813-1.563-6.875-.313-20.313-.313-20.313l-16.25 14.688z" fill-rule="evenodd" transform="matrix(1.2646 0 0 1.3223 247.76 -431.98)" stroke="#000" stroke-width="1.16" fill="url(#linearGradient3941)"/><path id="path1092" d="M656.44 338.56c-4.742 5.785-7.274 10.257-9.25 13.562-1.976 3.306-.814 7.906 3.75 14.469 4.92 7.073 45.374 34.719 98.062 34.719 52.689 0 93.142-27.646 98.062-34.719 4.564-6.563 5.695-11.163 3.719-14.469-1.976-3.306-4.477-7.777-9.219-13.562 0 8.677-33.512 40.031-92.562 40.031-59.051 0-92.562-31.354-92.562-40.031z" fill-rule="evenodd" transform="translate(1.002)" stroke="#000" stroke-width="1.5" fill="url(#linearGradient3943)"/><path id="path1102" d="M467.82 625.48c.625-.937 7.187-11.875 7.187-11.875l-3.598-2.538c-1.105 3.094-5.152 4.101-5.777 7.851s2.813 7.5 2.188 6.562z" fill-rule="evenodd" transform="matrix(1.2646 0 0 1.3223 248.6 -430.81)" stroke="#000" stroke-width="1.16" fill="url(#linearGradient3945)"/><path id="path1103" d="M475 622.98s1.25-5.312-2.812-5.937c-4.063-.625-6.214 2.973-5.625 1.562.654-1.567 3.125-3.125 3.437-8.437.313-5.313-.312-8.125-.312-8.125s1.562-6.876 8.125-5.938c6.562.938 6.875 5.938 6.875 7.813s-.625 2.812-.625 2.812L475 622.98z" fill-rule="evenodd" transform="matrix(1.2646 0 0 1.3223 247.76 -431.98)" stroke="#000" stroke-width="1.16" fill="url(#linearGradient3947)"/><path id="path1122" transform="matrix(1.3037 -.81376 .64946 1.1357 -171.7 -17.227)" stroke-width="1pt" d="M436.62 649.96v2.602h.875l.203-1.573.203-.191h1.522v7.996l-.215.235-.825.073v.72h3.793v-.72l-.824-.073-.216-.235v-7.996h1.523l.19.191.215 1.573h.876v-2.602h-7.32z"/><path id="path1123" transform="matrix(1.3555 -.71541 .57124 1.1806 -142.84 -89.134)" stroke-width="1pt" d="M427.15 649.96v.72l.736.074.203.235v7.805l-.203.235-.736.073v.72h3.591v-.72l-.762-.073-.203-.235v-3.704h3.667v3.704l-.19.235-.762.073v.72h3.578v-.72l-.736-.073-.203-.235v-7.805l.203-.235.736-.074v-.72h-3.578v.72l.762.074.19.235v3.219h-3.667v-3.219l.203-.235.762-.074v-.72h-3.591z"/><path id="path1124" transform="matrix(1.4551 -.45466 .3638 1.267 -48.925 -257.17)" stroke-width="1pt" d="M422.81 654.98v.72l.939.074.203.206v2.998c-.33.029-.571.044-.698.044-1.953 0-3.146-1.543-3.146-4.189 0-2.572 1.167-4.1 3.058-4.1.368 0 .71.073 1.053.235l.19.264.241 1.558h.926v-2.498c-.939-.324-1.839-.485-2.677-.485-2.816 0-4.63 2.013-4.63 5.026 0 3.057 1.801 5.174 4.465 5.174.926 0 1.865-.206 2.842-.603v-3.424l.203-.206.736-.074v-.72h-3.705z"/><path id="path1125" transform="matrix(1.4506 -.45679 .38067 1.2651 -58.062 -254.63)" stroke-width="1pt" d="M413.66 659.83h3.793v-.72l-.85-.073-.203-.235v-7.834l.203-.206.85-.074v-.72h-3.793v.72l.837.074.203.206v7.834l-.203.235-.837.073v.72z"/><path id="path1128" transform="matrix(1.4218 -.13018 .11226 1.3173 129.29 -421.88)" stroke-width="1pt" d="M393.88 659.83h6.813v-2.63h-.863l-.216 1.558-.165.235h-2.943v-3.822h1.649l.178.206.127 1.058h.748v-3.41h-.748l-.127 1.059-.178.205h-1.649v-3.498h2.525l.165.191.19 1.294h.888v-2.308h-6.394v.72l.774.074.203.206v7.834l-.203.235-.774.073v.72z"/><path id="path1129" transform="matrix(1.4272 -.02491 .02308 1.3221 185.56 -466.47)" stroke-width="1pt" d="M384.25 649.96v.72l.736.074.203.235v7.805l-.203.235-.736.073v.72h3.59v-.72l-.761-.073-.203-.235v-3.704h3.666v3.704l-.19.235-.761.073v.72h3.578v-.72l-.736-.073-.203-.235v-7.805l.203-.235.736-.074v-.72h-3.578v.72l.761.074.19.235v3.219h-3.666v-3.219l.203-.235.761-.074v-.72h-3.59z"/><path id="path1130" transform="matrix(1.4274 .01707 -.01249 1.3222 208.78 -482.9)" stroke-width="1pt" d="M376.42 649.96v2.602h.875l.203-1.573.203-.191h1.523v7.996l-.216.235-.825.073v.72h3.794v-.72l-.825-.073-.216-.235v-7.996h1.523l.19.191.216 1.573h.875v-2.602h-7.32z"/><path id="path1131" transform="matrix(1.3898 .06881 -.05785 1.3208 251.72 -502.75)" stroke-width="1pt" d="M365.33 659.83h6.813v-2.63h-.863l-.216 1.558-.165.235h-2.943v-3.822h1.649l.178.206.127 1.058h.748v-3.41h-.748l-.127 1.059-.178.205h-1.649v-3.498h2.525l.165.191.19 1.294h.888v-2.308h-6.394v.72l.774.074.203.206v7.834l-.203.235-.774.073v.72z"/><path id="path1134" transform="matrix(1.3248 .44669 -.38642 1.2584 487.78 -599.44)" stroke-width="1pt" d="M352.34 659.83h3.793v-.72l-.85-.073-.203-.235v-7.834l.203-.206.85-.074v-.72h-3.793v.72l.837.074.203.206v7.834l-.203.235-.837.073v.72z"/><path id="path1135" transform="matrix(1.3248 .44669 -.38642 1.2584 487.78 -599.44)" stroke-width="1pt" d="M345.5 659.5a6.518 6.518 0 002.449.485c2.081 0 3.362-1.264 3.362-3.013 0-.867-.406-1.661-1.142-2.205-.748-.558-1.421-.779-1.814-1.058-.672-.47-1.028-.911-1.028-1.587 0-.809.571-1.396 1.497-1.396.406 0 .698.073.926.205l.178.206.216 1.529h.913v-2.381c-.799-.324-1.598-.5-2.385-.5-1.814 0-2.994 1.264-2.994 2.895 0 .721.304 1.441.888 2.014.558.544 1.155.794 1.662 1.088.901.529 1.358 1.058 1.358 1.851 0 .809-.609 1.397-1.637 1.397-.393 0-.761-.074-1.116-.206l-.165-.22-.203-1.764h-.965v2.66z"/><path id="path1136" transform="matrix(1.256 .62785 -.544 1.1928 614.27 -618.93)" stroke-width="1pt" d="M337.56 659.83h6.813v-2.63h-.862l-.216 1.558-.165.235h-2.943v-3.822h1.649l.178.206.126 1.058h.749v-3.41h-.749l-.126 1.059-.178.205h-1.649v-3.498h2.524l.165.191.191 1.294h.888v-2.308h-6.395v.72l.774.074.203.206v7.834l-.203.235-.774.073v.72z"/><path id="path1141" transform="matrix(1.1627 .80092 -.69458 1.1039 743.08 -619.06)" stroke-width="1pt" d="M332.18 649.96h-3.704v.72l.774.074.203.235v7.805l-.203.235-.774.073v.72h3.704c1.269 0 2.22-.22 3.007-.925 1.028-.912 1.561-2.264 1.561-3.998 0-3.087-1.624-4.939-4.568-4.939zm-1.053.823h.736c2.017 0 2.994 1.338 2.994 4.101s-.977 4.115-2.994 4.115h-.736v-8.216z"/><path id="path1144" transform="matrix(1.3602 .30069 -.26641 1.2936 398.15 -570.11)" stroke-width="1pt" d="M356.84 649.96v.72l.749.074.203.206v7.834l-.203.235-.749.073v.72h3.578v-.72l-.774-.073-.203-.235v-3.307h.216c1.281 0 1.611.632 2.004 2.028.203.705.317 1.367.977 1.955.305.279.774.455 1.32.455.393 0 .824-.044 1.268-.117v-.706h-.165c-.85 0-1.23-.22-1.497-1.029-.241-.734-.342-1.528-.736-2.175-.291-.47-.723-.749-1.332-.911 1.434-.309 2.183-1.161 2.183-2.513 0-1.632-1.015-2.514-2.982-2.514h-3.857zm2.601.838h.584c1.23 0 1.877.676 1.877 1.881 0 1.353-.647 1.97-2.004 1.97-.14 0-.292 0-.457-.015v-3.836z"/><path id="path1147" transform="matrix(1.4991 -.25608 .20579 1.305 35.993 -363.5)" stroke-width="1pt" d="M405.15 649.96v.72l.749.074.203.206v7.834l-.203.235-.749.073v.72h3.578v-.72l-.774-.073-.203-.235v-3.307h.216c1.281 0 1.611.632 2.004 2.028.203.705.318 1.367.977 1.955.305.279.774.455 1.32.455.393 0 .824-.044 1.268-.117v-.706h-.165c-.85 0-1.23-.22-1.497-1.029-.241-.734-.342-1.528-.735-2.175-.292-.47-.724-.749-1.332-.911 1.433-.309 2.182-1.161 2.182-2.513 0-1.632-1.015-2.514-2.982-2.514h-3.857zm2.601.838h.584c1.23 0 1.877.676 1.877 1.881 0 1.353-.647 1.97-2.004 1.97-.14 0-.292 0-.457-.015v-3.836z"/><path id="path8623" d="M467.82 625.48c.625-.937 7.187-11.875 7.187-11.875l-3.598-2.538c-1.105 3.094-5.152 4.101-5.777 7.851s2.813 7.5 2.188 6.562z" fill-rule="evenodd" transform="matrix(-1.2646 0 0 1.3223 1251.4 -430.81)" stroke="#000" stroke-width="1.16" fill="url(#linearGradient3949)"/><path id="path8778" d="M475 622.98s1.25-5.312-2.812-5.937c-4.063-.625-6.214 2.973-5.625 1.562.654-1.567 3.125-3.125 3.437-8.437.313-5.313-.312-8.125-.312-8.125s1.562-6.876 8.125-5.938c6.562.938 6.875 5.938 6.875 7.813s-.625 2.812-.625 2.812L475 622.98z" fill-rule="evenodd" transform="matrix(-1.2646 0 0 1.3223 1252.2 -431.98)" stroke="#000" stroke-width="1.16" fill="url(#linearGradient3951)"/><path id="path703" d="M396.85 605.91s-75.43-21.26-74.99-102.14l.581-106.91h148.82l.583 106.3c.44 80.882-74.993 102.76-74.993 102.76z" fill-rule="evenodd" fill-opacity=".996" transform="matrix(1.2646 0 0 1.3223 248.14 -428.58)" stroke="#fff" stroke-width="3.867" fill="#0072c4"/><g id="g8591" fill-rule="evenodd"><path id="path1019" d="M339.69 420.17c.124 0 1.038-.83 1.875-1.562 1.169-.56 2.25-1.347 3.438-1.875.885-.49 2.634-.87 3.437-1.25 1.053-.527 1.912-1.134 2.813-2.188.108-1.398.313-2.402.313-4.062 1.243-.572 2.346-1.127 3.437-1.563 1.564-.421 1.903-1.019 3.438-1.25.988-.33 2.621-.313 4.062-.313 1.555 0 2.536 1.057 3.933 1.307 1.656.639 2.429 1.081 3.75 2.188.746.903 1.21 1.637 2.482 2.317 1.007.494 1.95 1.242 3.125 1.562 1.29.715 2.435 1.129 3.437 2.188.918.624 1.297 1.551 2.188 2.187 1.032.819 2.011 1.556 3.125 2.188 1.339.858 2.666 1.51 4.835 1.323 1.148-.065 2.384-.191 3.75.053 1.529 0 3.021-.026 4.375.313 1.594 0 2.884.206 4.375.312 1.397.25 2.821.313 4.375.313 1.355.338 2.846.312 4.375.312h8.75c1.592 0 3.204.062 4.375.313 1.577 0 2.933-.141 4.375-.313 1.697 0 2.991-.297 4.688-.312h5.313c1.364.357 3.107.602 4.062 1.25 1.251.341 1.874.908 3.125 1.25.958.47 2.413 1.214 3.125 2.187.882.882 1.788 2.145 2.5 3.438.87 1.2 1.201 2.572 1.875 4.062.357 1.428.606 2.786.625 4.375.339 1.355.313 2.846.313 4.375-.357 1.425-.435 3.011-.938 4.375-.054 1.525-.373 2.905-.625 4.063-.278 1.279-.605 2.102-.625 3.75v4.375c-.11 1.435-.438 2.489-.625 4.062-.756 1.365-1.48 2.961-2.187 4.688-1.04.693-1.942 1.679-2.5 2.5-.667.394-1.053.992-.938 1.25 1.249.416.938 1.247.938 2.812.162 1.205.284 2.699.625 4.063.114 1.492.448 2.404.937 3.437.493.616.589.313-.625.313-.903.677-1.817.323-2.187-.938-.729-.841-.969-1.859-1.25-3.437-.173-1.447-.415-2.857-.938-3.75-.16-1.761-.65-1.743-2.5-1.875-.88-.746-2.042-.938-3.75-.938-1.701 0-1.844-.166-1.875 1.563v4.375c-.294 1.268-.939 2.296-1.25 3.437-.932.653-1.417 1.749-2.5 2.5-.516 1.419-1.266 1.666-2.813 1.875-.541-.646-1.423-1.489-1.875-2.187.875-1.404 1.639-1.616 2.188-3.125a63.904 63.904 0 001.562-3.125c-.667-.982-1.266-1.425-1.875-2.813-.514-.756-1.226-2.383-1.562-3.437-1.026-.342-2.642-.397-3.438-.938-1.516-.337-1.94 1.25-3.749 1.25h-4.375c-1.935 0-2.418 1.033-4.063.938-.483.15-1.655-.066-3.438 0-1.306.435-2.879.312-4.375.312-1.585-.019-2.882-.368-4.062-.625-1.436-.376-2.864-.757-4.375-.937-1.835 0-2.518.14-3.75.937-.975.553-2.388 1.817-3.438 2.5-.444 1.037-.675 2.792-1.25 4.063-.332 1.219-.872 1.992-1.25 3.125-.423 1.057-.823 2.145-.937 3.75-.106 2.106-.587 1.848-1.875 1.25-.537-.872-1.393-1.831-1.875-2.813.284-1.59.604-2.381.625-4.062-.304-1.213-1.014-1.174-1.875-.313 0 1.636.079 2.898-.625 3.75-.352 1.291-.918 1.849-1.875 2.5-.468 1.16-1.507 1.691-2.5 2.188-.159-.053 0-.419 0-1.25-.749-1.429-.054-2.615-.054-4.375.019-1.578-.075-2.624.404-4.063 0-1.515-.735-2.956-.975-4.062-.581-1.161-.916-1.735-2.5-2.188-1.113-.423-2.717-.995-3.438-1.875-.907-1.125-1.486-1.588-2.812-2.187-1.438-.498-2.136-.954-3.125-1.563-.966-1.019-1.751-1.461-2.188-2.812-.652-.961-.764-2.746-1.25-4.063-.106-1.372-.517-2.647-.937-3.75-.186-1.372-.412-2.376-.938-3.75-.174-1.285-.562-2.629-.937-4.062 0-1.529.026-3.021-.313-4.375v-4.375c-.225-1.263-.308-3.112-.625-4.063 0-1.7-.189-2.66-.625-3.75-.715-1.104-.773-1.599-1.875-1.875-.796.971-2.108 1.367-3.75 1.563-1.147-.25-2.766-.413-4.063-.938-1.253-.295-2.11-.769-3.125-1.25-.555-.817-1.218-1.742-1.875-2.5-.194-1.632-.566-2.472-.625-4.062 0-1.193.03-.56 1.25-2.188z" stroke-opacity=".996" transform="matrix(1.2646 0 0 1.3223 239.42 -427.4)" stroke-width="1pt" fill="#bcbcbc"/><path id="path1022" d="M358.2 431.43l.221-.221c-.502.502-.318.26.884-.221.672-.405 1.95-1.118 2.431-1.547.577-.253 1.496-.583 1.988-1.104.616-.628 1.231-1.149 1.989-1.768.875-.71 1.691-.943 2.652-1.547 1.25-.089 1.703-.601 2.872-.221 1.097.238 1.552.245 2.431-.663.887-.543 1.863-1.071 2.21-1.989v-1.325c-.017 1.444-.289 1.912-1.326 2.43-.723.792-1.624 1.688-1.989 2.431-.702.972-.851 1.516-1.547 1.989-.571.696-1.551 1.064-1.767 2.209.315.526.027.814.662.884.64.526 1.306.302 2.21 0 .899-.995 1.303-1.638 1.768-2.651.742-.969 1.157-1.43 1.547-2.21.768-.533 1.256-.948 1.547-1.768a12.365 12.365 0 002.209-1.547c.661-.406 1.011-.736 1.989-.884-.014 1.187-.198 1.748-.663 2.431-.22 1.231-.176 1.814.221 2.652.635.375.522.702.884 1.547.36-.731.543-2.21.663-3.094v-.221c0 .966.092 2.248-.221 2.873.015 1.288.314 1.863.663 2.872.372.487.635.803 1.105 1.105.044-1.275.377-2.115.442-3.314.308.925.205 2.148.442 3.093.08 1.04.474 1.846.884 2.652.503.297.674 1.174.883.442.523-1.555.536-3.256.884-4.862.063-.815.131-2.028.442-2.651l-.442 2.651c.063-.815.131-2.028.442-2.651v-.221c.206 1.164.401 2.288.442 3.535 0 .995-.067 2.008.221 2.873.735-.325 1.161-1.088 1.547-1.989.589-1.068.992-1.542 1.768-2.43l-1.768 2.43c.589-1.068.992-1.542 1.768-2.43v-.221c-.122 1.019-.221 1.979-.221 3.093 0 1.019-.012 2.174.221 2.873.26 1.172.616 1.389.663 2.651 0 .615-.084 1.243.221 1.547.952.238.955-.292 1.105-1.547.012-1.425.393-2.397.441-3.756 0-1.677.248.204.442.884.446.984.585 1.859.663 2.872 0 .615-.083 1.243.221 1.547.854-.338 1.192-1.292 1.768-1.768.44-1.047.895-1.509 1.326-2.209 1.145-.229 1.089-.679 1.105-1.989 0-1.057-.087-2.17.221-3.094.354-.96.688-2.029.884-2.872.413-.236.859.348 1.104.884.484.712.442 1.751.442 2.872.213.978.638 1.742 1.105 2.652.554 1.021 1.004 1.64 1.547 2.21.233.699.221 1.854.221 2.872.861-.935 1.026-2.329 1.105-3.756-.116-.971-.137-2.18-.442-3.094-.035-.973-.217-1.978-.442-2.651-.746-.343-.864-.647-.221-1.547.711-.588 1.479-.361 2.652-.221.593.593.837.91.884 2.209 0 1.177.052 2.082.442 2.873.432.636.861 1.073 1.104 2.21.339.277.601.725 1.105.221.277-.647.44-1.982.663-2.652.216-.839.605-1.251 1.105-1.547 0 1.23-.015 1.984.442 2.873.433.987.733 1.358 1.105 2.431.471.314.531.991 1.105 1.325.135-1.038.221-2.226.221-3.535v-3.094c.081-1.053.348-1.645.663-2.43.712.848.663 1.199.663 2.43.727-.259.849-.758 1.104-1.546.519-.437.661-.641.884.441.155 1.156.45 2.197.663 3.315.455.51.98 1.745 1.547 2.21.389.632.826 1.243 1.326 1.768.344.727.432 1.107 1.326 1.325 0-1.495.052-2.995-.221-4.419 0-1.27-.29-1.723-.442-2.873-.368-.762-.585-1.885-.442-2.209 1.035.982 1.503 1.552 1.989 2.651.518 1.062.955 1.776 1.325 2.873.511.419 1.416 1.677 1.768 2.21.789.674 1.173 1.376 1.989 1.988.422.38 1.314.592 1.547.442-.041-1.296-.247-2.408-.663-3.535-.015-1.237-.311-1.909-.663-2.652-.869-.717-1.528-1.206-1.989-2.21-.342-.28-.409-.489-.442-1.104 1.27 1.005 2.157 1.901 3.094 3.093.633.785.955 1.141 1.768 1.547.44.472 1.723 1.06 2.651 1.326.557.706 1.301 1.112 2.21 1.326l-2.21-1.326c.557.706 1.301 1.112 2.21 1.326v.221c-.111-1.382-.642-2.392-1.326-3.536-.576-1.209-1.103-1.657-1.989-2.431-.578-.875-1.225-1.391-2.209-1.988-.61-.686-1.523-1.825-1.989-2.21.942-.566 2.049.383 3.094.884.862.894 1.668 2.059 2.209 2.651.589 1.136 1.04 1.838 1.989 2.873.952.54 1.613 1.074 2.431 1.768 1.266.335.761-.108.442-1.105-.437-1.247-.048-1.267.884-.442.615.419 1.3 1.117 2.209 1.547.393.487.986.757 1.547.442.234-.312.221-.277.221-.663-.465-1.371-.897-2.439-1.989-2.873-.5-.61-1.314-1.336-1.988-1.989-.44-.647-.953-1.02-1.326-1.767l1.326 1.767c-.44-.647-.953-1.02-1.326-1.767h-.221c1.334.047 1.809.371 2.872.884.757.264 1.575.955 1.989 1.546.431.547 1.121 1.135 1.547 1.768.679.5 1.429 1.069 2.21 1.547.735.922.867 1.522.884 2.873.424.625.5 1.903.662 2.651-.162 1.215-.597.261-.662-.442-.187-.976-.576-.925-1.326-.663 0 1.335.154 1.7.663 2.652-.138.912-.455 1.579-.884 2.21-.516.294-.627-.65-1.105-1.105-.051-1.367-.453-1.517-1.326-2.21v.884c.493.943 1.013 1.803 1.105 3.094.341.985.442 1.607.442 2.872 0 1.082.018 2.136-.221 3.094 0 1.199-.207 1.713-.221 2.873v6.187c-.17.782-.221 1.801-.221 2.872l.221-2.872c-.17.782-.221 1.801-.221 2.872v.221c-.42-1.11-.877-2.115-1.105-3.314-.716-.678-1.171-1.377-1.547-2.21-.169-.948-.275-2.106-.442-2.873-.311-.778-.641-1.609-1.326-1.104-.271 1.647.071 2.628.663 4.198.347 1.041.309 1.859.663 2.873.512 1.168.924 1.336 0 2.651-.456.701-.7.923-.884 1.768-.817.409-1.022.591-1.104 1.547-.275-.86-.943-1.867-1.326-2.873-.396-1.058-.885-2.145-1.105-3.093-.536-.74-1.165-1.937-1.768-2.431-.555-.714-1.352-1.904-1.768-2.652-.846-.943-1.033-1.489-1.767-1.988-.189-.441-.414-.992-.884-.663 0 1.057-.087 2.169.221 3.093.223 1.303.615 2.026.663 3.315v2.431c-.531-1.245-1.098-2.356-1.547-3.536-.483-.66-.955-1.945-1.547-2.431-.376-.857-.669-1.568-1.105-2.209-.113-.642-.41-.635-.663-1.105.015 1.253.413 1.692.663 2.651.431.842.569 2.253.442 2.652-.557-1.549-1.061-3.242-1.768-4.64-.67-.908-1.324-2.075-1.768-2.873-.657-.759-1.333-.784-1.988-1.326-.597-.283-1.168-.599-1.547-1.105.174 1.165.628 1.893.884 2.873.145 1.111.656 2.001.884 2.873-.246 1.512-.603-.419-.884-1.105-.233-1.244-.664-1.935-1.105-2.652-.592-.403-1.131-1.118-1.768-1.547-.62-.238-.442.043-.442.884 0 1.367.052 2.27.442 3.094.441.648.442 1.493.442 2.651-.039 1.088-.221 1.961-.221 3.094v1.768c-.507-.94-.989-1.473-1.326-2.652-.767-1.003-.994-1.74-1.547-2.872-.49-.197-1.288-.36-1.767 0 .086 1.118.603 1.61.663 2.872-.881.863-.722 1.109-1.326-.221-.504-1.007-1.091-.96-1.768-1.547-1.109-.138-.757-.817-1.105-1.767 0-.851.088-1.71-.221-2.431-1.211 0-1.906-.042-2.651.663-.351.7-.227 1.964 0 2.872v3.094c-.252.774-.751.816-.884 1.768-.427.943-.568 1.984-.884 2.652-.787.679-.445.765-.884-.442v-7.072c0-1.201.181-1.786.221-2.872-.458-.916-.583-1.088-1.989-1.105-.342.571-.212 1.631 0 2.21 0 1.071.051 2.091.221 2.872 0 1.174.145 1.885.221 2.873-.042 1.171-.27 2.105-.884 2.652-.797.199-.087.684-.884.884-.799-.383-1.738-.904-2.43-1.547-.859-.262-1.669-.442-2.873-.442-1.465-.018-1.49-.188-1.989-1.326-.448-1.217-.659-2.276-.884-3.536-.486-1.034-.6-1.739-.884-2.872-.371-.675-.767-1.185-1.325-1.547-.32 1.117-.621 2.052-.663 3.315-.259.517-.313 1.834-.442 2.43-.444-.654-.618-1.94-.884-2.872-.419-1.34-.777-2.21-2.21-1.768-1.487.018-1.529.059-1.547 1.547.64.959 1.324 1.89 1.768 2.651v3.094c0 1.277.078 1.647-.884 1.989-.366-1.326-1.143-2.592-1.989-3.757-.116-.901-.406-.663-1.325-.663-.615 0-1.243-.083-1.547.221 0 .77.066 1.839 0 1.989-.533.094-.748-.005-1.105-.442-.386.643-.095 1.549 0 2.431-.281.983-.616 1.881-1.105 2.43-.098-.294-.319-.221 0-.221-1.517-.557-2.703-.901-3.977-1.325-.767.095-1.324.77-1.768 1.325-1.123.361-1.62.648-2.873.663-1.202 0-1.787.181-2.873.221-.781.17-1.801.221-2.872.221-.594-.169-1.632-.174-1.989-.442.456-.651.964-.98 1.326-1.988.605-.412 1.172-.94 1.768-1.547.583-.397 1.266-1.219 1.767-1.768.345-1.064.819-1.248 1.547-1.768 1.314.049 1.57.448 2.873.663 1.272.461 1.976.597 2.652-.221 1.055-.427 1.951-1.094 3.093-1.326.885-.423 1.452-.834 2.21-1.326.94-.541 1.388-1.097 2.21-1.767.235-.901.901-1.597.663-2.652-1.196-.299-1.955-.179-2.652.442-.967.762-1.15 1.079-2.21 1.768-.915.249-1.306.634-2.431.884-.923.308-2.036.221-3.093.221-.966 0-2.248-.092-2.873.221.983-.633 2.164-1.291 3.094-1.547.892-.573 1.229-.863 2.431-.884.558-.698 1.133-.715 1.325-1.768.374-1.307-.815-.893-1.767-.442-.898.158-1.889.766-2.652 1.105-.737.246-1.814.429-2.873.442-.279-.398.218-.716.442-1.326 1.032-.35 1.198-.479 1.326-1.547-1.17.155-1.617.523-2.652.663-1.128.282-2.298.407-3.535.442h-3.094c-1.086-.04-1.671-.221-2.872-.221-.88-.44-.884-.649-.884-1.989.693-.762 1.367-.662 2.651-.662.989-.465 1.758-.712 2.431-1.105.8-.165 1.346-.492 1.105-.884h-3.094c-1.191-.482-.054-.703.663-1.105 1.075 0 2.184.061 2.873.442 1.329-.049 1.792-.451 2.872-1.326.847-.667 1.262-1.093 2.21-1.547.681-.719 1.324-1.115 1.768-1.768.909-.827 1.511-1.286 1.989-1.988.585-.308.942-.706.663-1.105-1.385.161-1.945.643-2.873 1.326-.539.513-1.062.973-1.768 1.326-.995.565-1.615.794-2.872.883-1.134 0-2.006-.182-3.094-.221-1.2-.12-.095-.387.221-.883.464-.31.826-.998.442-1.547-.924-.308-2.036-.221-3.094-.221h-3.093c-1.168-.043-1.662-.299-2.431-.663-.238-.62.043-.442.884-.442 1.065-.04 1.82-.179 2.873-.442 1.039-.283 1.169-.614 1.325-1.768-1.019 0-2.173.012-2.872-.221H358.2z" transform="matrix(1.2646 0 0 1.3223 239.42 -427.4)" stroke-width="1pt" fill="#fefefe"/><path id="path1023" d="M339.06 426.42c-.194-1.632-.566-2.472-.625-4.062 0-1.193.03-.56 1.25-2.188.124 0 1.038-.83 1.875-1.562 1.169-.56 2.25-1.347 3.438-1.875.885-.49 2.634-.87 3.437-1.25 1.053-.527 1.912-1.134 2.813-2.188.108-1.398.313-2.402.313-4.062 1.243-.572 2.346-1.127 3.437-1.563 1.564-.421 1.903-1.019 3.438-1.25.988-.33 2.621-.313 4.062-.313 1.555 0 2.536 1.057 3.933 1.307 1.656.639 2.429 1.081 3.75 2.188.746.903 1.21 1.637 2.482 2.317 1.007.494 1.95 1.242 3.125 1.562.01 1.128.261.933-.581.933-.089 1.156-.378 1.084-1.547 1.105a5.317 5.317 0 01-1.989-1.768c.442-1.148.149.929 0 1.326-.568.447-.906.923-1.547.442-.359-1.078-.662-1.823-.662-3.093-.168-1.381-.572-.379-.884.221-.299 1.114-.163 1.517.221 2.43-1.127 0-1.991-.102-2.873-.221-.82-.195-1.741.045-2.652.442-1.157.695-.797.7-.221 1.547 1.021.288 1.755.829 2.652 1.326a56.562 56.562 0 003.094-.663c1.053-.351 2.017-.128 3.093 0 .534.267 1.236.321 1.547.663 0 .683.057 1.397-.221 1.768-.46.292-.896 1.101-1.547 1.325-.974.534-1.996.87-3.093 1.105-1.354.049-1.849.333-2.873.884-.168 1.117-.509 1.432-1.547 1.768-1.033.431-1.854.663-3.093.663-.615 0-1.243.083-1.547-.221.984-1.074 1.28-1.58 1.768-2.652.191-.447.591-.734.221-1.105-1.309.049-1.651.041-1.768 1.326-.148 1.164-.616 1.359-1.547 1.768.251-1.078.293-1.906.663-2.873-.782.17-1.801.221-2.873.221-.669.406-.948.564-.663 1.326-.888.296-1.969.114-3.093 0-.939-.049-.421-.456-1.105-.884-.448-.841-.963-1.046-1.989-1.105-.509.609-1.452.861-1.989 1.326-.968.323-1.584.055-2.43-.442-1.104.033-.956.373-.663 1.105.421.281-.026.587.663.663.635.551 1.178.663 2.43.663.958-.239 2.013-.221 3.094-.221 1.091.032.884.279.884 1.326-.713.483-1.752.442-2.873.442-1.066-.127-1.884-.391-2.651-.663-1.035-.074-1.863-.263-2.652 0-.356.377-1.428.542-.221.663.475.428 3.032.221 3.214.949.603.641.469 1.482-.562 1.482-.626-.313-1.109-.236-1.547 0-.736.184-1.61.05-2.894.142 1.677.132-1.218-1.742-1.875-2.5z" transform="matrix(1.2646 0 0 1.3223 239.42 -427.4)" stroke-width="1pt" fill="#fefefe"/><path id="path1025" d="M346.04 419.06c-.073 0-.733.439-1.326.884-.971.497-2.008 1.343-2.652 1.768-.507.388-.504.557-1.104.663 1.053-.143 1.522-.399 2.43-.884 1.148-.132 2.26-.365 2.873-.884.575-.192-.043-1.073-.221-1.547z" transform="matrix(1.2646 0 0 1.3223 239.42 -427.4)" stroke-width="1pt" fill="#bcbcbc"/><path id="path1026" d="M356.21 408.67c.127 0 .386.691.883 1.105.318.848.611 1.447.663 2.431.271-1.08.734-1.948.884-3.094-.344-.582-.367-.855-1.326-.884 0 .597.073.207-1.104.442z" transform="matrix(1.2646 0 0 1.3223 239.42 -427.4)" stroke-width="1pt" fill="#bcbcbc"/><path id="path1024" d="M349.36 417.73c-.494 0 .871-.492 1.326-.663.364-.767.653-1.31 1.326-1.767 1.107.085 1.65.404 2.21 1.104.93.254 1.265.697 2.431.884.433.366 1.019.408 0 .663-.693.366-1.564.442-2.652.442-1.14.082-1.954.333-2.652.663-1.479 0-1.242.049-1.989-1.326z" transform="matrix(1.2646 0 0 1.3223 239.42 -427.4)" stroke="#000" stroke-width=".875" fill="#c4c4c2"/><path id="path1027" d="M360.18 408.89v.221c0-.596-.014-.292.221.884.365.741.442 1.536.442 2.652.58-.414 1.064-1.24 1.326-1.989 0-1.745-.247-1.642-1.989-1.768z" transform="matrix(1.2646 0 0 1.3223 239.42 -427.4)" stroke-width="1pt" fill="#bcbcbc"/><path id="path1028" d="M368.36 434.3h.221c-.65 0-.284.038.884-.663.756-.504 1.375-1.249 2.431-1.547 1.023-.803 1.81-1.179 2.872-1.546.518-.238.975-.651 1.547-.221-.164 1.09-.353 1.502-1.326 1.988-.503.63-1.295.998-1.988 1.326-.719.316-1.51.332-1.768 1.105-1.202.529-1.35.44-2.873-.442z" transform="matrix(1.2646 0 0 1.3223 239.42 -427.4)" stroke-width="1pt" fill="#bcbcbc"/><path id="path1029" d="M372.56 440.71c.394-.298 1.778-1.678 2.43-2.209.738-.973 1.484-1.717 2.21-2.21.644-.948 1.469-1.583 1.989-2.431.614-.743 1.066-1.372 1.768-2.209 0 .966-.092 2.247.22 2.872 0 1.335-.154 1.7-.662 2.652-.502.782-.876 1.3-1.989 1.768-1.004.532-1.606.719-2.431 1.325-.629.387-1.284.772-1.989 1.105-.632.271-.342.153-1.546-.663z" transform="matrix(1.2646 0 0 1.3223 239.42 -427.4)" stroke-width="1pt" fill="#bcbcbc"/><path id="path1030" d="M365.71 445.79h.221c-.65 0-.285.038.884-.663.943-.943 1.694-1.271 2.873-1.768.897-.069 1.982-.292 2.652-.663.534-.094.906-.419 1.325 0 .694.938.885 1.203-.221 1.768-.529.449-1.462.901-2.209 1.105-.552.455-1.644.483-2.652.663-.903 0-1.405.102-1.768-.442l1.768.442c-.903 0-1.405.102-2.873-.442z" transform="matrix(1.2646 0 0 1.3223 239.42 -427.4)" stroke-width="1pt" fill="#bcbcbc"/><path id="path1031" d="M375.21 445.79v-.221c0 .617-.027.29.442-.884.828-1.236 1.14-1.918 2.21-2.21.501-.606 1.369-.763 2.431-1.105.398.664.092 1.438 0 2.21-.289.825-1.077 1.407-1.547 1.989-.689.468-.97.918-1.989 1.105-.843 0-.396-.021-1.547-.884z" transform="matrix(1.2646 0 0 1.3223 239.42 -427.4)" stroke-width="1pt" fill="#bcbcbc"/><path id="path1078" d="M139.21 302.6a1.105 1.105 0 11-2.21 0 1.105 1.105 0 012.21 0z" transform="matrix(1.2646 0 0 1.3223 510.48 -276.05)"/></g><g id="g4116" stroke-opacity=".996" fill-rule="evenodd" fill-opacity=".996" transform="translate(-15.156 2.199) scale(1.0079)" stroke="#002b0d" stroke-width="1pt" fill="#005120"><path id="path993" d="M351.79 479.6h.884c-2.771 0-1.115-.185 3.535 3.535 1.948-1.623 1.925-1.842 3.536.884.93 1.552 1.203-.158 2.651-1.767.698 3.211 1.145 6.578 3.536 3.535 2.731 0 5.59-.227 7.071.884 1.79 3.325 1.204-.564 2.652.884 3.892.467 3.818-3.338 8.057-4.322 2.635 3.293 3.789.759 7.072-.883 2.438.682 4.736 4.381 5.2.785 1.996-3.256 2.17-2.979 3.536 0 1.941 1.748 2.759-.874 4.419-1.767 2.959 1.731 6.259 1.971 10.607.884.736 2.944 2.592 1.667 4.419.883 3.91 1.643 5.274 2.146 9.723 0 2.204-2.604.956.073 2.651 1.768 3.296-1.023 2.386-1.24 6.188-.884 3.821 0 4.13-.092 5.303-2.651 1.92 1.92 2.614 3.304 5.303.884 4.12.121 2.846.52 5.304-.884 1.818 4.026 2.245 1.117 4.419 2.651-1.432 3.631-3.632 5.334-6.187 7.071-1.7 2.816-2.763 5.857-6.187 7.072-2.498 2.548-5.16 4.025-7.955 6.187-3.832.958-8.05.884-12.375.884h-37.123c-2.64 1.319-6.958 1.948-10.607 2.651-4.075 0-8.694.048-11.49-.884-1.895-1.894-5.219-4.011-7.071-6.187-1.874-1.511-1.928-4.46-3.536-6.187-1.479-2.529-1.936-6.486-3.535-8.839V479.6z" transform="matrix(1.2546 0 0 1.3119 258.12 -427.38)"/><path id="path994" d="M437.52 487.56v.884c0-2.471.109-1.158-1.768 3.535-.38 1.14-1.212 1.408-2.652 1.768" transform="matrix(1.2546 0 0 1.3119 258.12 -427.38)"/><path id="path995" d="M429.57 491.09h.884c-3.273 3.091-5.476 4.515-6.188 7.955l6.188-7.955c-3.273 3.091-5.476 4.515-6.188 7.955" transform="matrix(1.2546 0 0 1.3119 258.12 -427.38)"/><path id="path996" d="M417.19 486.68c0 .079-.124 3.153-.884 4.419" transform="matrix(1.2546 0 0 1.3119 258.12 -427.38)"/><path id="path997" d="M413.66 492.86v.884-.884 0z" transform="matrix(1.2546 0 0 1.3119 258.12 -427.38)"/><path id="path998" d="M406.59 487.56h.884-.884c.294 0 .589 0 0 0z" transform="matrix(1.2546 0 0 1.3119 258.12 -427.38)"/><path id="path999" d="M357.09 487.56c.422 0 2.161 2.806 4.419 4.419-.562 2.586-1.426 5.578 0 7.955" transform="matrix(1.2546 0 0 1.3119 258.12 -427.38)"/><path id="path1000" d="M364.16 492.86c.422 0 2.161 2.807 4.42 4.42l-4.42-4.42c.422 0 2.161 2.807 4.42 4.42v.884c0-2.731-.227-5.591.883-7.072.983 1.663 2.224 4.337 2.652 1.768 4.978-.178 7.381-1.576 10.607-2.651 0 1.3-.209.675.884 1.767" transform="matrix(1.2546 0 0 1.3119 258.12 -427.38)"/><path id="path1001" d="M443.71 488.44h.884c-1.667 1.389-2.946 4.222-4.42 6.187" transform="matrix(1.2546 0 0 1.3119 258.12 -427.38)"/><path id="path1002" d="M407.47 485.79h7.071" transform="matrix(1.2546 0 0 1.3119 258.12 -427.38)"/></g><path id="path4267" d="M696.88 218.75c-13.337 0-17.757 13.938-31.094 13.938-.257 0-.5-.021-.75-.031v.844c-.05 9.66.71 18.66 2.094 27.062 12.303-.899 16.873-13.938 29.75-13.938 13.337 0 17.788 13.969 31.125 13.969s17.788-13.97 31.125-13.97 17.788 13.97 31.125 13.97 17.788-13.97 31.125-13.97c12.843 0 17.426 12.948 29.656 13.907 1.465-8.628 2.24-17.896 2.187-27.844v-.032c-.25.01-.493.032-.75.032-13.337 0-17.757-13.938-31.094-13.938s-17.788 13.938-31.125 13.938-17.788-13.938-31.125-13.938-17.788 13.938-31.125 13.938-17.788-13.938-31.125-13.938z" fill-rule="evenodd" transform="translate(-15.156 2.199) scale(1.0079)" stroke-width="1pt" fill="#fff"/><path id="path4280" d="M696.88 273.16c-10.375 0-15.366 8.41-23.344 12.156a128.476 128.476 0 009.906 21.094c3.789-2.865 7.816-5.344 13.438-5.344 13.33-.01 17.78 13.93 31.12 13.93 13.337 0 17.788-13.938 31.125-13.938s17.788 13.938 31.125 13.938 17.788-13.938 31.125-13.938c5.498 0 9.471 2.373 13.188 5.156a129.945 129.945 0 009.938-21c-7.852-3.795-12.845-12.062-23.125-12.062-13.337 0-17.788 13.938-31.125 13.938s-17.788-13.938-31.125-13.938S741.338 287.09 728 287.09s-17.788-13.938-31.125-13.938z" fill-rule="evenodd" transform="translate(-15.156 2.199) scale(1.0079)" stroke-width="1pt" fill="#fff"/><path id="path4288" d="M759.12 327.56c-13.337 0-17.788 13.969-31.125 13.969-12.613 0-17.281-12.487-29.031-13.844 15.704 17.494 33.512 28.085 45.656 33.906 4.107-3.188 8.36 3.875 14.5 3.875 6.096 0 10.326-7.1 14.406-3.938 12.01-5.847 29.601-16.455 45.219-33.78-11.366 1.661-16.078 13.78-28.5 13.78-13.337 0-17.788-13.969-31.125-13.969z" fill-rule="evenodd" transform="translate(-15.156 2.199) scale(1.0079)" stroke-width="1pt" fill="#fff"/><g id="g4128" transform="translate(-15.156 2.199) scale(1.0079)"><path id="path728" d="M332.54 541.35c1.744-.581 10.173-3.197 10.464-2.907.291.291 16.278 15.697 16.278 15.697l-13.371 2.616-13.371-15.406z" stroke-opacity=".996" transform="matrix(1.2546 0 0 1.3119 259.35 -430)" stroke="#512007" stroke-width=".475" fill="none"/><path id="path858" d="M413.64 471.01c.291-4.651 8.72-31.103 8.72-31.103" stroke-opacity=".996" transform="matrix(1.0628 0 0 1.029 276.8 -177.96)" stroke="#512007" stroke-width=".594" fill="none"/><path id="path859" d="M416.54 471.32c0-.291 6.686-31.127 6.686-31.127" stroke-opacity=".996" transform="matrix(1.0628 0 0 1.029 276.8 -177.96)" stroke="#512007" stroke-width=".594" fill="none"/><path id="path860" d="M418.83 471.37c.29-1.744 5.558-31.175 5.558-31.175" stroke-opacity=".996" transform="matrix(1.0628 0 0 1.029 276.8 -177.96)" stroke="#512007" stroke-width=".594" fill="none"/><path id="path861" d="M413.93 467.23c1.453-.872 5.813-2.035 5.813-2.035" stroke-opacity=".996" transform="matrix(1.0628 0 0 1.029 276.8 -177.96)" stroke="#512007" stroke-width=".594" fill="none"/><path id="path862" d="M415.96 462.58c1.453 0 4.36-1.163 4.36-1.163" stroke-opacity=".996" transform="matrix(1.0628 0 0 1.029 276.8 -177.96)" stroke="#512007" stroke-width=".594" fill="none"/><path id="path863" d="M416.83 459.09c0-.291 4.36-1.163 4.36-1.163" stroke-opacity=".996" transform="matrix(1.0628 0 0 1.029 276.8 -177.96)" stroke="#512007" stroke-width=".594" fill="none"/><path id="path864" d="M417.41 454.73l4.651-.872" stroke-opacity=".996" transform="matrix(1.0628 0 0 1.029 276.8 -177.96)" stroke="#512007" stroke-width=".594" fill="none"/><path id="path865" d="M419.45 450.95c0 .291 3.197.291 3.197.291" stroke-opacity=".996" transform="matrix(1.0628 0 0 1.029 276.8 -177.96)" stroke="#512007" stroke-width=".594" fill="none"/><path id="path866" d="M420.32 447.46c.581 0 3.197.581 3.197.581" stroke-opacity=".996" transform="matrix(1.0628 0 0 1.029 276.8 -177.96)" stroke="#512007" stroke-width=".594" fill="none"/><path id="path809" d="M413.64 471.01c.291-4.651 8.72-31.103 8.72-31.103" stroke-opacity=".996" transform="matrix(-1.2546 0 0 1.762 1290.4 -502.06)" stroke="#512007" stroke-width=".41" fill="none"/><path id="path810" d="M416.54 470.13c0-.291 6.686-29.94 6.686-29.94" stroke-opacity=".996" transform="matrix(-1.2546 0 0 1.762 1290.4 -502.06)" stroke="#512007" stroke-width=".41" fill="none"/><path id="path811" d="M419.45 467.81c.29-1.744 4.941-27.614 4.941-27.614" stroke-opacity=".996" transform="matrix(-1.2546 0 0 1.762 1290.4 -502.06)" stroke="#512007" stroke-width=".41" fill="none"/><path id="path812" d="M413.93 467.23c1.453-.872 5.813-2.035 5.813-2.035" stroke-opacity=".996" transform="matrix(-1.2546 0 0 1.762 1290.4 -502.06)" stroke="#512007" stroke-width=".41" fill="none"/><path id="path813" d="M415.96 462.58c1.453 0 4.36-1.163 4.36-1.163" stroke-opacity=".996" transform="matrix(-1.2546 0 0 1.762 1290.4 -502.06)" stroke="#512007" stroke-width=".41" fill="none"/><path id="path814" d="M416.83 459.09c0-.291 4.36-1.163 4.36-1.163" stroke-opacity=".996" transform="matrix(-1.2546 0 0 1.762 1290.4 -502.06)" stroke="#512007" stroke-width=".41" fill="none"/><path id="path815" d="M417.41 454.73l4.651-.872" stroke-opacity=".996" transform="matrix(-1.2546 0 0 1.762 1290.4 -502.06)" stroke="#512007" stroke-width=".41" fill="none"/><path id="path816" d="M419.45 450.95c0 .291 3.197.291 3.197.291" stroke-opacity=".996" transform="matrix(-1.2546 0 0 1.762 1290.4 -502.06)" stroke="#512007" stroke-width=".41" fill="none"/><path id="path817" d="M420.32 447.46c.581 0 3.197.581 3.197.581" stroke-opacity=".996" transform="matrix(-1.2546 0 0 1.762 1290.4 -502.06)" stroke="#512007" stroke-width=".41" fill="none"/><path id="path799" d="M413.64 471.01c.291-4.651 8.72-31.103 8.72-31.103" stroke-opacity=".996" transform="matrix(-1.2546 0 0 1.3119 1321.3 -301.92)" stroke="#512007" stroke-width=".475" fill="none"/><path id="path800" d="M416.54 470.13c0-.291 6.686-29.94 6.686-29.94" stroke-opacity=".996" transform="matrix(-1.2546 0 0 1.3119 1321.3 -301.92)" stroke="#512007" stroke-width=".475" fill="none"/><path id="path801" d="M419.45 467.81c.29-1.744 4.941-27.614 4.941-27.614" stroke-opacity=".996" transform="matrix(-1.2546 0 0 1.3119 1321.3 -301.92)" stroke="#512007" stroke-width=".475" fill="none"/><path id="path802" d="M413.93 467.23c1.453-.872 5.813-2.035 5.813-2.035" stroke-opacity=".996" transform="matrix(-1.2546 0 0 1.3119 1321.3 -301.92)" stroke="#512007" stroke-width=".475" fill="none"/><path id="path803" d="M415.96 462.58c1.453 0 4.36-1.163 4.36-1.163" stroke-opacity=".996" transform="matrix(-1.2546 0 0 1.3119 1321.3 -301.92)" stroke="#512007" stroke-width=".475" fill="none"/><path id="path804" d="M416.83 459.09c0-.291 4.36-1.163 4.36-1.163" stroke-opacity=".996" transform="matrix(-1.2546 0 0 1.3119 1321.3 -301.92)" stroke="#512007" stroke-width=".475" fill="none"/><path id="path805" d="M417.41 454.73l4.651-.872" stroke-opacity=".996" transform="matrix(-1.2546 0 0 1.3119 1321.3 -301.92)" stroke="#512007" stroke-width=".475" fill="none"/><path id="path806" d="M419.45 450.95c0 .291 3.197.291 3.197.291" stroke-opacity=".996" transform="matrix(-1.2546 0 0 1.3119 1321.3 -301.92)" stroke="#512007" stroke-width=".475" fill="none"/><path id="path807" d="M420.32 447.46c.581 0 3.197.581 3.197.581" stroke-opacity=".996" transform="matrix(-1.2546 0 0 1.3119 1321.3 -301.92)" stroke="#512007" stroke-width=".475" fill="none"/><path id="path723" d="M395.32 572.16c0-.291.872-72.96.872-72.96s2.616-.291 2.616 0-.29 72.669-.581 72.96-3.198.581-2.907 0z" stroke-opacity=".996" fill-rule="evenodd" transform="matrix(1.2546 0 0 1.3119 259.35 -430)" stroke="#512007" stroke-width=".475" fill="#dd8b59"/><path id="path724" d="M423.81 502.4c0 .582-.582 61.333-.582 61.333l-2.035 2.326.582-63.659h2.035z" stroke-opacity=".996" fill-rule="evenodd" transform="matrix(1.2546 0 0 1.3119 259.35 -430)" stroke="#512007" stroke-width=".475" fill="#dd8b59"/><path id="path719" d="M363.06 560.24s2.907 29.94 36.335 29.068 42.729-30.23 42.729-30.23-14.243-.582-14.534-.582c-.29 0-11.627 13.953-26.161 13.662s-19.184-3.779-22.382-6.685c-3.197-2.907-6.104-7.267-6.104-7.267l-16.859-6.686.872 6.395 6.104 2.325z" stroke-opacity=".996" fill-rule="evenodd" transform="matrix(1.2546 0 0 1.3119 259.35 -430)" stroke="#512007" stroke-width=".475" fill="#dd8b59"/><path id="path712" d="M453.3 557.13c-.291-.872-1.007-3.866-1.007-3.866v-3.488l1.609-3.532s-25.289 3.623-25.289 3.914c0-.335-.156 6.885-.156 6.885l24.843.087z" stroke-opacity=".996" fill-rule="evenodd" transform="matrix(1.2546 0 0 1.3119 259.35 -430)" stroke="#512007" stroke-width=".475" fill="#dd8b59"/><path id="path714" d="M448.52 549.78l-.581 6.104h4.069l-.29-6.104h-3.198z" stroke-opacity=".996" transform="matrix(1.2546 0 0 1.3119 259.35 -430)" stroke="#512007" stroke-width=".475" fill="none"/><path id="path715" d="M444.16 550.07l-.291 6.394 2.616-.29.291-6.104h-2.616z" stroke-opacity=".996" transform="matrix(1.2546 0 0 1.3119 259.35 -430)" stroke="#512007" stroke-width=".475" fill="none"/><path id="path716" d="M439.8 556.46v-4.941l2.616-.872.291 4.941-2.907.872z" stroke-opacity=".996" transform="matrix(1.2546 0 0 1.3119 259.35 -430)" stroke="#512007" stroke-width=".475" fill="none"/><path id="path717" d="M434.85 556.18l.582-4.36 2.906.29.291 4.651-3.779-.581z" stroke-opacity=".996" transform="matrix(1.2546 0 0 1.3119 259.35 -430)" stroke="#512007" stroke-width=".475" fill="none"/><path id="path718" d="M429.33 556.18l.291-3.779 2.907-.291v4.36l-3.198-.29z" stroke-opacity=".996" transform="matrix(1.2546 0 0 1.3119 259.35 -430)" stroke="#512007" stroke-width=".475" fill="none"/><path id="path720" d="M361.89 559.95c.872 0 7.558 1.453 7.558 1.453l6.976 9.302" stroke-opacity=".996" transform="matrix(1.2546 0 0 1.3119 259.35 -430)" stroke="#512007" stroke-width=".475" fill="none"/><path id="path721" d="M366.84 561.12c.29.291 6.104 19.766 34.009 19.766s34.591-22.091 34.591-22.091" stroke-opacity=".996" transform="matrix(1.2546 0 0 1.3119 259.35 -430)" stroke="#512007" stroke-width=".475" fill="none"/><path id="path722" d="M439.8 559.37s-13.371 29.068-38.951 27.033c-25.58-2.034-29.649-11.627-31.684-16.568-2.035-4.942-3.197-9.011-3.197-9.011" stroke-opacity=".996" transform="matrix(1.2546 0 0 1.3119 259.35 -430)" stroke="#512007" stroke-width=".475" fill="none"/><path id="path725" d="M373.23 558.21c.29-1.745.29-54.357.29-54.357l-1.744-.291-.29 53.776 1.744.872z" stroke-opacity=".996" fill-rule="evenodd" transform="matrix(1.2546 0 0 1.3119 259.35 -430)" stroke="#512007" stroke-width=".475" fill="#dd8b59"/><path id="path726" d="M331.66 541.06l22.091 10.755-.581 1.453s-21.22-9.883-21.22-10.174c0-.29.291-1.453-.29-2.034z" stroke-opacity=".996" fill-rule="evenodd" transform="matrix(1.2546 0 0 1.3119 259.35 -430)" stroke="#512007" stroke-width=".475" fill="#dd8b59"/><path id="path727" d="M341.84 537.86c0 .872 3.198 18.603 3.198 18.603s2.035.291 2.035 0c0-.29-3.489-18.312-3.489-18.312l-1.744-.291z" stroke-opacity=".996" fill-rule="evenodd" transform="matrix(1.2546 0 0 1.3119 259.35 -430)" stroke="#512007" stroke-width=".475" fill="#dd8b59"/><path id="path730" d="M362.18 538.44c1.163 0 20.929-3.197 20.929-3.197l-.291 3.197-19.475 2.035-1.163-2.035z" stroke-opacity=".996" fill-rule="evenodd" transform="matrix(1.2546 0 0 1.3119 259.35 -430)" stroke="#512007" stroke-width=".475" fill="#dd8b59"/><path id="path746" d="M365.09 514.32c.581 0 6.976 3.198 9.592 2.326s.872-2.907 1.453-2.907c.582 0 2.616 1.453 3.779.29 1.163-1.162 2.035-4.65 1.454-4.36-.582.291-15.988 5.814-16.278 4.651z" stroke-opacity=".996" fill-rule="evenodd" transform="matrix(1.2546 0 0 1.3119 259.35 -430)" stroke="#512007" stroke-width=".475" fill="#fecf3e"/><path id="path731" d="M362.48 521.58c1.163.291 23.836-6.104 23.836-6.104s0 2.035-.291 2.035c-.29 0-23.545 6.104-23.545 6.104v-2.035z" stroke-opacity=".996" fill-rule="evenodd" transform="matrix(1.2546 0 0 1.3119 259.35 -430)" stroke="#512007" stroke-width=".475" fill="#dd8b59"/><path id="path748" d="M415.09 512.57s1.454 3.488 2.907 2.907 2.907-1.744 2.907-1.744 1.163 2.907 3.197 2.325c2.035-.581 3.198-3.779 3.198-3.779s2.034.582 2.906.291c.873-.291 2.035-4.941 2.035-4.941l-17.15 4.941z" stroke-opacity=".996" fill-rule="evenodd" transform="matrix(1.2546 0 0 1.3119 259.35 -430)" stroke="#512007" stroke-width=".475" fill="#fecf3e"/><path id="path745" d="M413.34 540.77c-.291.581 1.454 2.035 2.907 2.035s2.035-2.035 2.325-1.454c.291.582.291 3.198 4.07 2.326s3.779-3.488 3.779-3.488-1.163.872 1.453 1.162c2.616.291 5.232-3.779 4.942-3.779-.291 0-18.894 3.489-19.476 3.198z" stroke-opacity=".996" fill-rule="evenodd" transform="matrix(1.2546 0 0 1.3119 259.35 -430)" stroke="#512007" stroke-width=".475" fill="#fecf3e"/><path id="path732" d="M363.35 513.15c-.291 1.163.29 2.617.29 2.617l18.894-6.395s.872-1.454 0-1.454-19.475 5.814-19.184 5.232z" stroke-opacity=".996" fill-rule="evenodd" transform="matrix(1.2546 0 0 1.3119 259.35 -430)" stroke="#512007" stroke-width=".475" fill="#dd8b59"/><path id="path733" d="M388.35 509.08c.581 0 19.475-6.104 19.475-6.104s.291 2.616 0 2.616c-.29 0-17.731 5.232-17.731 5.232l-1.744-1.744z" stroke-opacity=".996" fill-rule="evenodd" transform="matrix(1.2546 0 0 1.3119 259.35 -430)" stroke="#512007" stroke-width=".475" fill="#dd8b59"/><path id="path741" d="M413.34 521.88s-2.907 3.197-2.035 7.557c.872 4.361 2.035 8.139 2.326 8.139s3.488-5.813 6.976-6.104 9.883 3.198 9.883 3.198-.872-6.977-.581-10.174c.29-3.198 5.232-8.72 5.232-8.72l-21.801 6.104z" stroke-opacity=".996" fill-rule="evenodd" transform="matrix(1.2546 0 0 1.3119 259.35 -430)" stroke="#512007" stroke-width=".475" fill="#fecf3e"/><path id="path734" d="M386.89 516.64s-.581 2.616-.29 2.616c.29 0 24.707-6.395 24.707-6.395v-1.744l-24.417 5.523z" stroke-opacity=".996" fill-rule="evenodd" transform="matrix(1.2546 0 0 1.3119 259.35 -430)" stroke="#512007" stroke-width=".475" fill="#dd8b59"/><path id="path749" d="M355.5 551.82s-5.813-.872-5.523.581c.291 1.453 2.907 2.907 3.198 3.779.29.872-.872 4.069.872 3.779 1.744-.291 3.488-1.454 3.488-2.326s-.291-4.941-.291-4.941l-1.744-.872z" stroke-opacity=".996" fill-rule="evenodd" fill-opacity=".996" transform="matrix(1.2546 0 0 1.3119 259.35 -430)" stroke="#512007" stroke-width=".475" fill="#b6b6b4"/><path id="path735" d="M387.76 537.28v2.034l20.929-2.906-.581-1.454-20.348 2.326z" stroke-opacity=".996" fill-rule="evenodd" transform="matrix(1.2546 0 0 1.3119 259.35 -430)" stroke="#512007" stroke-width=".475" fill="#dd8b59"/><path id="path743" d="M363.06 540.77c.291 0 0 2.616 2.325 2.035 2.326-.582 2.907-2.035 2.907-2.035s.581 3.197 3.779 2.907c3.197-.291 4.941-3.779 4.941-3.779s.291 2.616 2.326 1.744 2.616-2.907 2.616-2.907l-18.313 2.616-.581-.581z" stroke-opacity=".996" fill-rule="evenodd" transform="matrix(1.2546 0 0 1.3119 259.35 -430)" stroke="#512007" stroke-width=".475" fill="#fecf3e"/><path id="path739" d="M363.06 523.62s-2.616.872-1.744 6.104 2.907 8.139 3.197 8.139c.291 0 2.616-4.941 6.104-5.813 3.489-.873 9.593 2.616 9.593 2.616s-.582-4.651.291-9.011c.872-4.361 3.778-7.558 3.778-7.558s-20.347 5.523-21.219 5.523z" stroke-opacity=".996" fill-rule="evenodd" transform="matrix(1.2546 0 0 1.3119 259.35 -430)" stroke="#512007" stroke-width=".475" fill="#fecf3e"/><path id="path736" d="M411.89 538.73l.29 1.744s20.929-2.616 20.929-2.907c0-.29 0-2.034-.29-2.034-.291 0-20.639 3.488-20.929 3.197z" stroke-opacity=".996" fill-rule="evenodd" transform="matrix(1.2546 0 0 1.3119 259.35 -430)" stroke="#512007" stroke-width=".475" fill="#dd8b59"/><path id="path737" d="M411.6 520.13l.291 2.034 24.707-6.685s.582-1.744.291-1.744-24.708 7.267-25.289 6.395z" stroke-opacity=".996" fill-rule="evenodd" transform="matrix(1.2546 0 0 1.3119 259.35 -430)" stroke="#512007" stroke-width=".475" fill="#dd8b59"/><path id="path738" d="M414.22 510.83s-.29 1.744 0 1.744c.291 0 18.313-4.36 18.313-4.651 0-.29 1.744-2.035.291-1.744-1.454.291-18.022 5.523-18.604 4.651z" stroke-opacity=".996" transform="matrix(1.2546 0 0 1.3119 259.35 -430)" stroke="#512007" stroke-width=".475" fill="none"/><path id="path750" d="M452.88 544.55l-18.03-28.49" stroke-opacity=".996" transform="matrix(1.2546 0 0 1.3119 259.35 -430)" stroke="#512007" stroke-width=".475" fill="none"/><path id="path751" d="M432.53 535.83c.291-.872 1.163-18.312 1.163-18.312" stroke-opacity=".996" transform="matrix(1.2546 0 0 1.3119 259.35 -430)" stroke="#512007" stroke-width=".475" fill="none"/><path id="path747" d="M388.93 509.96c1.163.291 3.198 3.197 4.36 2.616 1.163-.581 2.907-2.325 2.907-2.325s-.291 3.488 2.035 2.906c2.325-.581 2.616-2.906 2.616-2.906s1.744.872 3.197 0c1.454-.872 2.907-5.233 2.326-5.233s-16.859 5.233-17.441 4.942z" stroke-opacity=".996" fill-rule="evenodd" transform="matrix(1.2546 0 0 1.3119 259.35 -430)" stroke="#512007" stroke-width=".475" fill="#fecf3e"/><path id="path740" d="M388.35 518.39c0 .581-2.907 5.232-2.035 9.592s2.616 8.43 2.907 8.43 4.651-4.651 8.43-5.523c3.778-.872 9.301 2.907 9.011 2.907-.291 0-1.454-4.361-1.454-7.558 0-3.198 4.36-13.081 4.36-13.081l-21.219 5.233z" stroke-opacity=".996" fill-rule="evenodd" transform="matrix(1.2546 0 0 1.3119 259.35 -430)" stroke="#512007" stroke-width=".475" fill="#fecf3e"/><path id="path744" d="M388.35 539.32c0 .291.872 2.326 2.907 2.326 2.034 0 2.325-2.035 2.325-2.035s-.291 3.488 2.907 3.198c3.197-.291 4.36-3.489 4.36-3.489s.291 1.745 2.907.873c2.616-.873 6.104-3.779 5.813-3.779-.29 0-20.928 3.779-21.219 2.906z" stroke-opacity=".996" fill-rule="evenodd" transform="matrix(1.2546 0 0 1.3119 259.35 -430)" stroke="#512007" stroke-width=".475" fill="#fecf3e"/><use id="use4342" xlink:href="#path774" transform="translate(-6.564 7.275)" height="496.063" width="992.126" y="0" x="0"/><use id="use4344" xlink:href="#path774" transform="translate(6.564 3.758)" height="496.063" width="992.126" y="0" x="0"/><use id="use4346" xlink:href="#path774" transform="translate(0 11.033)" height="496.063" width="992.126" y="0" x="0"/><path id="path774" d="M408.98 476.96a1.89 1.89 0 11-3.779 0 1.89 1.89 0 013.779 0z" stroke-opacity=".996" fill-rule="evenodd" fill-opacity=".996" transform="matrix(.04064 -1.0717 1.0237 .04254 251.6 667.92)" stroke="#512007" stroke-width=".581" fill="#be0f17"/><path id="path753" d="M398.23 500.07c0-.291 9.011 3.779 9.011 4.069 0 .291 31.974 42.73 32.265 42.73" stroke-opacity=".996" transform="matrix(1.2546 0 0 1.3119 259.35 -430)" stroke="#512007" stroke-width=".475" fill="none"/><path id="path754" d="M423.52 504.14l8.139 3.489 2.616 6.394" stroke-opacity=".996" transform="matrix(1.2546 0 0 1.3119 259.35 -430)" stroke="#512007" stroke-width=".475" fill="none"/><path id="path755" d="M372.94 503.56c-.291 0 9.011 6.976 9.011 6.976l1.163 5.814" stroke-opacity=".996" transform="matrix(1.2546 0 0 1.3119 259.35 -430)" stroke="#512007" stroke-width=".475" fill="none"/><path id="path756" d="M341.26 546c4.069-1.744 32.265-26.452 32.265-26.452" stroke-opacity=".996" transform="matrix(1.2546 0 0 1.3119 259.35 -430)" stroke="#512007" stroke-width=".475" fill="none"/><path id="path757" d="M333.7 541.35c3.489-2.907 31.684-26.742 31.684-26.742" stroke-opacity=".996" transform="matrix(1.2546 0 0 1.3119 259.35 -430)" stroke="#512007" stroke-width=".475" fill="none"/><path id="path758" d="M386.6 518.68l29.94 49.706" stroke-opacity=".996" transform="matrix(1.2546 0 0 1.3119 259.35 -430)" stroke="#512007" stroke-width=".475" fill="none"/><path id="path759" d="M413.01 539.23s3.532 11.711 7.02 13.455 7.557 4.651 7.557 4.651" stroke-opacity=".996" transform="matrix(1.2546 0 0 1.3119 259.35 -430)" stroke="#512007" stroke-width=".475" fill="none"/><path id="path760" d="M412.61 539.48s2.481 13.793 5.969 16.409 6.977 5.523 6.977 5.523" stroke-opacity=".996" transform="matrix(1.2546 0 0 1.3119 259.35 -430)" stroke="#512007" stroke-width=".475" fill="none"/><path id="path761" d="M390.96 439.03s3.488 19.185 10.465 23.545a952.102 952.102 0 0112.789 8.139" stroke-opacity=".996" transform="matrix(1.2546 0 0 1.3119 256.26 -299.49)" stroke="#512007" stroke-width=".475" fill="none"/><path id="path762" d="M390.67 438.74s7.557 15.116 13.952 19.767c6.395 4.65 15.115 9.011 15.115 9.011" stroke-opacity=".996" transform="matrix(1.2546 0 0 1.3119 256.26 -299.49)" stroke="#512007" stroke-width=".475" fill="none"/><path id="path763" d="M366.26 439.9c2.034 3.488 1.744 10.174 4.069 12.499 2.325 2.326 5.814 7.558 5.814 7.558" stroke-opacity=".996" transform="matrix(1.2546 0 0 1.3119 256.26 -299.49)" stroke="#512007" stroke-width=".475" fill="none"/><path id="path764" d="M366.84 440.19c1.163 1.744 4.406 10.428 6.395 13.08 1.454 2.326 16.278 17.15 16.278 17.15" stroke-opacity=".996" transform="matrix(1.2546 0 0 1.3119 256.26 -299.49)" stroke="#512007" stroke-width=".475" fill="none"/><path id="path766" d="M384.57 471.15a2.18 2.18 0 11-4.36 0 2.18 2.18 0 014.36 0z" stroke-opacity=".996" fill-rule="evenodd" transform="matrix(1.2546 0 0 1.3119 256.26 -299.49)" stroke="#512007" stroke-width=".475"/><path id="path767" d="M395.32 475.8a1.89 1.89 0 11-3.779 0 1.89 1.89 0 013.779 0z" stroke-opacity=".996" fill-rule="evenodd" transform="matrix(1.2546 0 0 1.3119 256.26 -299.49)" stroke="#512007" stroke-width=".475"/><path id="path768" d="M408.98 476.96a1.89 1.89 0 11-3.779 0 1.89 1.89 0 013.779 0z" stroke-opacity=".996" fill-rule="evenodd" transform="matrix(1.2546 0 0 1.3119 256.26 -299.49)" stroke="#512007" stroke-width=".475"/><path id="path769" d="M420.9 472.46c0 .963-.716 1.744-1.599 1.744s-1.598-.78-1.598-1.744c0-.963.715-1.744 1.598-1.744.883 0 1.599.78 1.599 1.744z" stroke-opacity=".996" fill-rule="evenodd" transform="matrix(1.2546 0 0 1.3119 256.26 -299.49)" stroke="#512007" stroke-width=".475"/><path id="path770" d="M430.49 466.79c0 .883-.846 1.599-1.89 1.599s-1.889-.716-1.889-1.599.846-1.599 1.89-1.599 1.889.716 1.889 1.599z" stroke-opacity=".996" fill-rule="evenodd" transform="matrix(1.2546 0 0 1.3119 256.26 -299.49)" stroke="#512007" stroke-width=".475"/><path id="path776" d="M374.1 404.44c-.872.582-15.406 4.07-13.371 3.779 2.034-.29 13.662 2.907 13.371 2.035s0-5.232 0-5.814z" stroke-opacity=".996" fill-rule="evenodd" fill-opacity=".996" transform="matrix(1.2546 0 0 1.3119 256.26 -299.49)" stroke="#512007" stroke-width=".475" fill="red"/><path id="path777" d="M398.81 400.08c-.582 0-9.012 3.198-8.721 3.198s9.593 2.616 9.302 2.034c-.291-.581-.291-4.36-.581-5.232z" stroke-opacity=".996" fill-rule="evenodd" fill-opacity=".996" transform="matrix(1.2546 0 0 1.3119 256.26 -299.49)" stroke="#512007" stroke-width=".475" fill="red"/><path id="path778" d="M424.1 402.99c-.582.291-10.465 2.616-8.721 2.907s8.43 2.616 8.43 2.035c0-.582 0-4.651.291-4.942z" stroke-opacity=".996" fill-rule="evenodd" fill-opacity=".996" transform="matrix(1.2546 0 0 1.3119 256.26 -299.49)" stroke="#512007" stroke-width=".475" fill="red"/><path id="path779" d="M413.64 471.01c.291-4.651 8.72-31.103 8.72-31.103" stroke-opacity=".996" transform="matrix(1.2546 0 0 1.3119 256.26 -299.49)" stroke="#512007" stroke-width=".475" fill="none"/><path id="path780" d="M416.54 470.13c0-.291 6.686-29.94 6.686-29.94" stroke-opacity=".996" transform="matrix(1.2546 0 0 1.3119 256.26 -299.49)" stroke="#512007" stroke-width=".475" fill="none"/><path id="path781" d="M419.45 467.81c.29-1.744 4.941-27.614 4.941-27.614" stroke-opacity=".996" transform="matrix(1.2546 0 0 1.3119 256.26 -299.49)" stroke="#512007" stroke-width=".475" fill="none"/><path id="path782" d="M413.93 467.23c1.453-.872 5.813-2.035 5.813-2.035" stroke-opacity=".996" transform="matrix(1.2546 0 0 1.3119 256.26 -299.49)" stroke="#512007" stroke-width=".475" fill="none"/><path id="path783" d="M415.96 462.58c1.453 0 4.36-1.163 4.36-1.163" stroke-opacity=".996" transform="matrix(1.2546 0 0 1.3119 256.26 -299.49)" stroke="#512007" stroke-width=".475" fill="none"/><path id="path784" d="M416.83 459.09c0-.291 4.36-1.163 4.36-1.163" stroke-opacity=".996" transform="matrix(1.2546 0 0 1.3119 256.26 -299.49)" stroke="#512007" stroke-width=".475" fill="none"/><path id="path785" d="M417.41 454.73l4.651-.872" stroke-opacity=".996" transform="matrix(1.2546 0 0 1.3119 256.26 -299.49)" stroke="#512007" stroke-width=".475" fill="none"/><path id="path786" d="M419.45 450.95c0 .291 3.197.291 3.197.291" stroke-opacity=".996" transform="matrix(1.2546 0 0 1.3119 256.26 -299.49)" stroke="#512007" stroke-width=".475" fill="none"/><path id="path787" d="M420.32 447.46c.581 0 3.197.581 3.197.581" stroke-opacity=".996" transform="matrix(1.2546 0 0 1.3119 256.26 -299.49)" stroke="#512007" stroke-width=".475" fill="none"/><path id="path819" d="M413.64 471.01c.291-4.651 8.72-31.103 8.72-31.103" stroke-opacity=".996" transform="matrix(1.2546 0 0 1.3632 225.31 -323.36)" stroke="#512007" stroke-width=".475" fill="none"/><path id="path820" d="M416.54 471.32c0-.291 6.686-31.127 6.686-31.127" stroke-opacity=".996" transform="matrix(1.2546 0 0 1.3632 225.31 -323.36)" stroke="#512007" stroke-width=".475" fill="none"/><path id="path821" d="M418.83 471.37c.29-1.744 5.558-31.175 5.558-31.175" stroke-opacity=".996" transform="matrix(1.2546 0 0 1.3632 225.31 -323.36)" stroke="#512007" stroke-width=".475" fill="none"/><path id="path822" d="M413.93 467.23c1.453-.872 5.813-2.035 5.813-2.035" stroke-opacity=".996" transform="matrix(1.2546 0 0 1.3632 225.31 -323.36)" stroke="#512007" stroke-width=".475" fill="none"/><path id="path823" d="M415.96 462.58c1.453 0 4.36-1.163 4.36-1.163" stroke-opacity=".996" transform="matrix(1.2546 0 0 1.3632 225.31 -323.36)" stroke="#512007" stroke-width=".475" fill="none"/><path id="path824" d="M416.83 459.09c0-.291 4.36-1.163 4.36-1.163" stroke-opacity=".996" transform="matrix(1.2546 0 0 1.3632 225.31 -323.36)" stroke="#512007" stroke-width=".475" fill="none"/><path id="path825" d="M417.41 454.73l4.651-.872" stroke-opacity=".996" transform="matrix(1.2546 0 0 1.3632 225.31 -323.36)" stroke="#512007" stroke-width=".475" fill="none"/><path id="path826" d="M419.45 450.95c0 .291 3.197.291 3.197.291" stroke-opacity=".996" transform="matrix(1.2546 0 0 1.3632 225.31 -323.36)" stroke="#512007" stroke-width=".475" fill="none"/><path id="path827" d="M420.32 447.46c.581 0 3.197.581 3.197.581" stroke-opacity=".996" transform="matrix(1.2546 0 0 1.3632 225.31 -323.36)" stroke="#512007" stroke-width=".475" fill="none"/><path id="path848" d="M413.64 471.01c.291-4.651 8.72-31.103 8.72-31.103" stroke-opacity=".996" transform="matrix(-1.2546 0 0 1.3198 1259.2 -307.28)" stroke="#512007" stroke-width=".474" fill="none"/><path id="path849" d="M416.54 470.13c0-.291 6.686-29.94 6.686-29.94" stroke-opacity=".996" transform="matrix(-1.2546 0 0 1.3198 1259.2 -307.28)" stroke="#512007" stroke-width=".474" fill="none"/><path id="path850" d="M419.45 467.81c.29-1.744 4.941-27.614 4.941-27.614" stroke-opacity=".996" transform="matrix(-1.2546 0 0 1.3198 1259.2 -307.28)" stroke="#512007" stroke-width=".474" fill="none"/><path id="path851" d="M413.93 467.23c1.453-.872 5.813-2.035 5.813-2.035" stroke-opacity=".996" transform="matrix(-1.2546 0 0 1.3198 1259.2 -307.28)" stroke="#512007" stroke-width=".474" fill="none"/><path id="path852" d="M415.96 462.58c1.453 0 4.36-1.163 4.36-1.163" stroke-opacity=".996" transform="matrix(-1.2546 0 0 1.3198 1259.2 -307.28)" stroke="#512007" stroke-width=".474" fill="none"/><path id="path853" d="M416.83 459.09c0-.291 4.36-1.163 4.36-1.163" stroke-opacity=".996" transform="matrix(-1.2546 0 0 1.3198 1259.2 -307.28)" stroke="#512007" stroke-width=".474" fill="none"/><path id="path854" d="M417.41 454.73l4.651-.872" stroke-opacity=".996" transform="matrix(-1.2546 0 0 1.3198 1259.2 -307.28)" stroke="#512007" stroke-width=".474" fill="none"/><path id="path855" d="M419.45 450.95c0 .291 3.197.291 3.197.291" stroke-opacity=".996" transform="matrix(-1.2546 0 0 1.3198 1259.2 -307.28)" stroke="#512007" stroke-width=".474" fill="none"/><path id="path856" d="M420.32 447.46c.581 0 3.197.581 3.197.581" stroke-opacity=".996" transform="matrix(-1.2546 0 0 1.3198 1259.2 -307.28)" stroke="#512007" stroke-width=".474" fill="none"/><path id="path711" d="M426.42 558.5l27.614.582.291-2.035-28.487-.291.582 1.744z" stroke-opacity=".996" fill-rule="evenodd" transform="matrix(1.2546 0 0 1.3119 259.35 -430)" stroke="#512007" stroke-width=".475" fill="#dd8b59"/><path id="path713" d="M427.59 551.23c3.198 0 27.324-4.651 27.324-4.651s.872-2.906 0-2.906-27.324 5.523-27.324 5.523v2.034z" stroke-opacity=".996" fill-rule="evenodd" transform="matrix(1.2546 0 0 1.3119 259.35 -430)" stroke="#512007" stroke-width=".475" fill="#dd8b59"/><use id="use4351" xlink:href="#path774" transform="translate(0 5.516)" height="496.063" width="992.126" y="0" x="0"/></g></g></g></svg>