<svg id="svg986" xmlns="http://www.w3.org/2000/svg" height="512" width="512" version="1.1"><defs id="defs988"><clipPath id="clipPath3257" clipPathUnits="userSpaceOnUse"><path id="rect3259" fill-opacity=".67" d="M244.16 0h496.06v496.06H244.16z"/></clipPath></defs><g id="flag" fill-rule="evenodd" clip-path="url(#clipPath3257)" transform="translate(-252) scale(1.0321)" stroke-width="1pt"><path id="rect1390" fill="#6797d6" d="M0 0h992.13v496.06H0z"/><path id="polygon1351" transform="matrix(.54883 0 0 .51651 202.91 -83.045)" fill="#fff" d="M555.61 324.28l70.83-.05-57.34 41.58 21.94 67.35-57.27-41.68-57.27 41.67 21.95-67.34-57.33-41.6 70.83.07 21.83-67.38z"/><path id="polygon1387" transform="matrix(.54883 0 0 -.51651 202.91 580.11)" fill="#fff" d="M555.61 324.28l70.83-.05-57.34 41.58 21.94 67.35-57.27-41.68-57.27 41.67 21.95-67.34-57.33-41.6 70.83.07 21.83-67.38z"/><path id="polygon1388" transform="matrix(.52485 -.16046 .15101 .49394 5.499 159.08)" fill="#fff" d="M555.61 324.28l70.83-.05-57.34 41.58 21.94 67.35-57.27-41.68-57.27 41.67 21.95-67.34-57.33-41.6 70.83.07 21.83-67.38z"/><path id="polygon1389" transform="matrix(-.52485 -.16046 -.15101 .49394 986.13 159.08)" fill="#fff" d="M555.61 324.28l70.83-.05-57.34 41.58 21.94 67.35-57.27-41.68-57.27 41.67 21.95-67.34-57.33-41.6 70.83.07 21.83-67.38z"/></g></svg>