<svg id="svg1" xmlns="http://www.w3.org/2000/svg" height="512" width="512" version="1.1"><defs id="defs3"><clipPath id="clipPath3224" clipPathUnits="userSpaceOnUse"><path id="rect3226" fill-opacity=".67" d="M250 0h500v500H250z"/></clipPath></defs><g id="flag" clip-path="url(#clipPath3224)" transform="translate(-256) scale(1.024)"><g id="g578" stroke-width="1pt" transform="scale(16.667)"><path id="rect124" fill="#006" d="M0 0h60v30H0z"/><g id="g584"><path id="path146" d="M0 0v3.354L53.292 30H60v-3.354L6.708 0H0zm60 0v3.354L6.708 30H0v-3.354L53.292 0H60z" fill="#fff"/><path id="path136" d="M25 0v30h10V0H25zM0 10v10h60V10H0z" fill="#fff"/><path id="path141" d="M0 12v6h60v-6H0zM27 0v30h6V0h-6z" fill="#c00"/><path id="path150" d="M0 30l20-10h4.472l-20 10H0zM0 0l20 10h-4.472L0 2.236V0zm35.528 10l20-10H60L40 10h-4.472zM60 30L40 20h4.472L60 27.764V30z" fill="#c00"/></g></g></g></svg>