<svg id="svg559" xmlns="http://www.w3.org/2000/svg" height="512" width="512" version="1.1"><g id="flag" fill-rule="evenodd"><path id="rect575" stroke-width="1pt" fill="red" d="M0 0h512v512H0z"/><path id="rect567" stroke-width="1pt" fill="#009a00" d="M63.653 88.407h384.72v335.15H63.653z"/><path id="path571" d="M63.653 423.56h384.72L256.013 256 63.653 423.56z" stroke-width="1pt" fill="#ffca00"/><path id="path570" d="M63.653 88.485l192.36 167.56 192.36-167.56H63.653z" stroke-width="1pt" fill="#ffca00"/><path id="polygon578" fill="#ffce00" transform="translate(-164.38 6.429) scale(1.0211)" stroke-width="1pt" d="M256.44 57.228l-17.17-12.243-17.19 12.213 6.34-20.109-16.92-12.573 21.08-.185 6.73-19.983L246 24.343l21.08.222-16.95 12.543z"/><path id="polygon579" fill="#ffce00" transform="translate(11.382 6.95) scale(1.0211)" stroke-width="1pt" d="M256.44 57.228l-17.17-12.243-17.19 12.213 6.34-20.109-16.92-12.573 21.08-.185 6.73-19.983L246 24.343l21.08.222-16.95 12.543z"/><path id="polygon581" fill="#ffce00" transform="translate(187.26 6.668) scale(1.0211)" stroke-width="1pt" d="M256.44 57.228l-17.17-12.243-17.19 12.213 6.34-20.109-16.92-12.573 21.08-.185 6.73-19.983L246 24.343l21.08.222-16.95 12.543z"/><path id="polygon583" fill="#ffce00" transform="translate(-164.38 440.73) scale(1.0211)" stroke-width="1pt" d="M256.44 57.228l-17.17-12.243-17.19 12.213 6.34-20.109-16.92-12.573 21.08-.185 6.73-19.983L246 24.343l21.08.222-16.95 12.543z"/><path id="polygon584" fill="#ffce00" transform="translate(11.382 441.25) scale(1.0211)" stroke-width="1pt" d="M256.44 57.228l-17.17-12.243-17.19 12.213 6.34-20.109-16.92-12.573 21.08-.185 6.73-19.983L246 24.343l21.08.222-16.95 12.543z"/><path id="polygon585" fill="#ffce00" transform="translate(187.26 440.97) scale(1.0211)" stroke-width="1pt" d="M256.44 57.228l-17.17-12.243-17.19 12.213 6.34-20.109-16.92-12.573 21.08-.185 6.73-19.983L246 24.343l21.08.222-16.95 12.543z"/><path id="path577" d="M455.81 246.95a45.689 45.689 0 11-91.379 0 45.689 45.689 0 1191.379 0z" transform="translate(-163.27 6.429) scale(1.0211)" fill="red"/><path id="polygon586" fill="#ffce00" transform="translate(-34.434 217.89) scale(1.2128)" stroke-width="1pt" d="M256.44 57.228l-17.17-12.243-17.19 12.213 6.34-20.109-16.92-12.573 21.08-.185 6.73-19.983L246 24.343l21.08.222-16.95 12.543z"/><g id="g3182" transform="translate(92 -8)"><path id="path588" d="M-2.789 298.95s2.367-19.607 1.015-32.791c-1.353-13.184-35.158-16.903-35.158-16.903l-.338 30.763s27.045 21.974 34.481 18.931z" fill="red"/><path id="path587" d="M-52.145 221.2s3.258 17.276-1.352 51.723c-2.463 18.703 17.917 31.439 42.933 37.186-5.07-8.79-18.592-22.988-15.212-49.018C-7.52 263.457 9.72 298.953 9.72 298.953s13.658-50.331-13.86-58.145c-26.744-7.514-48.004-19.269-48.004-19.607z" fill="#ffce00"/></g></g></svg>