<svg id="svg2" xmlns="http://www.w3.org/2000/svg" height="512" width="512" version="1.1" xmlns:xlink="http://www.w3.org/1999/xlink" viewBox="0 0 170.667 170.667"><defs id="defs4"><g id="smallcross"><clipPath id="vclip"><path id="path8" d="M-109 104a104 104 0 000-208h218a104 104 0 000 208z"/></clipPath><path id="varm" clip-path="url(#vclip)" d="M-55 74a55 55 0 01110 0V-74a55 55 0 01-110 0z"/><use id="use11" xlink:href="#varm" transform="rotate(90)" height="200" width="300" y="0" x="0"/></g></defs><g id="flag"><path id="rect2993" fill="#fff" d="M0 0h170.67v170.67H0z"/><g id="sdsds" transform="translate(5.108 47.576) scale(.53484)"><path id="rect13" fill="#fff" d="M0-29.333h300v200H0z"/><path id="path15" fill="red" d="M130-29.333v80H0v40h130v80h40v-80h130v-40H170v-80h-40z"/><use id="use17" xlink:href="#smallcross" transform="translate(64.45 10.117)" height="200" width="300" y="0" x="0" fill="red"/><use id="use19" xlink:href="#smallcross" transform="translate(235.55 131.22)" height="200" width="300" y="0" x="0" fill="red"/><use id="use21" xlink:href="#smallcross" transform="translate(235.55 10.117)" height="200" width="300" y="0" x="0" fill="red"/><use id="use23" xlink:href="#smallcross" transform="translate(64.45 131.22)" height="200" width="300" y="0" x="0" fill="red"/></g></g></svg>