<svg id="svg611" xmlns="http://www.w3.org/2000/svg" height="512" width="512" version="1.1"><defs id="defs613"><clipPath id="clipPath10932" clipPathUnits="userSpaceOnUse"><path id="rect10934" fill-opacity=".67" d="M0 0h666v666H0z"/></clipPath></defs><g id="flag" clip-path="url(#clipPath10932)" transform="scale(.76877)"><g id="g644" fill-rule="evenodd" stroke-width="1pt" transform="scale(7.4)"><g id="g626"><path id="rect614" fill="#0061f3" d="M0 0h135v10H0z"/><path id="rect615" fill="#fff" d="M0 10h135v10H0z"/><path id="rect616" fill="#0061f3" d="M0 20h135v10H0z"/><path id="rect617" fill="#fff" d="M0 30h135v10H0z"/><path id="rect618" fill="#0061f3" d="M0 40h135v10H0z"/><path id="rect619" fill="#fff" d="M0 50h135v10H0z"/><path id="rect620" fill="#0061f3" d="M0 60h135v10H0z"/><path id="rect621" fill="#fff" d="M0 70h135v10H0z"/><path id="rect622" fill="#0061f3" d="M0 80h135v10H0z"/></g><g id="g639"><path id="rect623" fill="#0061f3" d="M0 0h50v50H0z"/><g id="g636" fill="#fff"><path id="rect624" d="M20 0h10v50H20z"/><path id="rect625" d="M0 20h50v10H0z"/></g></g></g></g></svg>