<svg id="svg780" xmlns="http://www.w3.org/2000/svg" height="512" width="512" version="1.1"><g id="flag"><path id="rect784" fill-rule="evenodd" stroke-width="1pt" fill="#be0027" d="M0 0h512v512H0z"/><path id="rect785" fill-rule="evenodd" stroke-width="1pt" fill="#3b5aa3" d="M20.48 20.48h470v471.04h-470z"/><g id="g10353" transform="translate(-256.29 5.09)"><path id="path794" d="M508.15 391.04c1.818.997 4.694.944 6.312.079 103.36-54.986 103.42-205.78.15-259.99-1.918-1.011-4.706-.956-6.613.078-100.72 55.105-100.99 204.19.151 259.84z" fill-rule="evenodd" fill="#cbe0e5"/><path id="path798" d="M508.15 393.76c1.607 1.31 4.847 1.184 6.312.079 76.168-57.026 76.615-92.573 73.239-92.572l-150.75.078c-2.305.002 1.328 36.086 71.199 92.414z" fill-rule="evenodd" fill="#add2d9"/><path id="path799" d="M448.89 329.52c6.536-1.7 14.431-2.15 20.863 1.286 5.715 2.987 9.026 2.958 15.183 3.04 6.444.086 11.51 4.821 18.478 5.006 12.829.336 18.235 6.698 8.26 6.711-4.714.007-14.822-3.142-19.7-2.466-10.191 1.052-16.658 3.308-26.25 13.976l11.086 7.596c9.588-3.908 11.195-8.303 16.504-8.479 5.998-.193 8.036-3.909 14.972-3.917 7.88 1.432 18.555-.978 24.807-2.379 11.09-2.579 5.815-10.328-.908-13.138-5.434-2.313-15.609-.085-21.927-2.38-4.782-1.857-.847-4.842 1.72-5.48 2.596-.478 5.38.37 8.607.89 5.762.498 12.999-.055 18.058-.848 10.46-1.62 10.019-4.688 15.07-4.77 3.683-.177 6.486-1.278 8.995-3.08 2.949-1.974 6.016-6.021 9.59-5.869l9.568.406-13.477 30.31-38.073 38.752-19.718 7.48-43.342-28.215-21.856-33.523 3.49-.908z" fill-rule="evenodd" fill="#fdf9a1"/><path id="path803" d="M498.7 300.05l87.027-.405 1.53-7.71s-3.104-.464-5.61-.61c-3.124-.193-8.48 3.268-12.068 3.246-2.537-.017-5.446-4.56-7.987-4.465-4.435-.042-4.83 3.95-9.01 4.06-3.373-.115-4.81-2.691-9.178-2.435-4.58.258-4.24 2.78-10.027 2.637-7.643-.192-10.713-6.825-16.828-6.9-10.207-.12-10.54 9.742-17.849 12.582z" fill-rule="evenodd" fill="#179a3b"/><path id="path802" d="M498.7 301.91l89.576-.456v-2.433l-91.614.456 2.038 2.433z" fill-rule="evenodd" fill="#fdf9a1"/><path id="path804" d="M535.51 328.83c1.38 5.29 2.834 7.09 8.398 8.438 5.496 1.351 13.88-4.006 8.67-9.179-4.962-4.812-10.175-6.034-14.619-10.368-9.353-9.24-23.446-31.882-23.459-47.849-.011-13.712-1.333-41.855-1.343-68.51.007-1.727-5.209 4.843-5.2 6.597.239 23.516.203 41.29 1.158 65.002 1.48 17.334 9.753 29.006 17.016 39.541 3.254 5.048 7.958 10.492 9.378 16.328z" fill-rule="evenodd" fill="#a79270"/><text id="text807" font-family="helvetica" font-size="25.614" stroke="#fff" y="269.487" x="465.114" stroke-width="1.638" fill="#bd0728"><tspan id="tspan808" stroke="#fff" stroke-width="1.638" fill="#bd0728">G</tspan></text><text id="text810" font-family="helvetica" font-size="25.614" stroke="#fff" y="269.607" x="488.065" stroke-width="1.638" fill="#bd0728"><tspan id="tspan811" stroke="#fff" stroke-width="1.638" fill="#bd0728">U</tspan></text><text id="text816" font-family="helvetica" font-size="25.614" stroke="#fff" y="269.59" x="516.053" stroke-width="1.638" fill="#bd0728"><tspan id="tspan817" stroke="#fff" stroke-width="1.638" fill="#bd0728">A</tspan></text><text id="text819" font-family="helvetica" font-size="25.614" stroke="#fff" y="269.542" x="539.532" stroke-width="1.638" fill="#bd0728"><tspan id="tspan820" stroke="#fff" stroke-width="1.638" fill="#bd0728">M</tspan></text><path id="path805" d="M468.19 202.22c-1.158 2.235 2.712-.652 3.588-.963 5.015-1.785 6.98-8.12 15.62-4.306 6.8 2.938 15.93 1.23 11.157 4.206-5.896 3.529-17.64 7.44-17.872 24.945.982 1.712 1.052 1.442 1.873-.393 1.784-4.08 10.296-15.16 14.508-14.238 1.695.439 6.675-5.007 6.791-3.453.45 4.372-6.762 13.214-6.685 25.051.018 2.741 3.39 3.63 5.015 1.701 1.616-1.7 2.525-3.459 5.355-5.693 5.002-4.104 3.62-21.511 4.238-20.693 3.54 4.584 4.085 17.513 9.359 22.816 4.382 4.407 7.926 2.297 6.97-3.824-1.904-12.27-7.704-8.762-10.464-21.453-.56-2.473-.698-4.706 2.573-3.672 4.001 1.16 6.35 3.018 9.334 7.532 2.984 4.304 8.58 8.43 11.813 10.963 5.641 4.335 7.622.55 4.93-5.014-2.98-6.242-9.697-11.418-15.807-13.682-4.628-1.599-6.278-1.751-10.356-2.534-1.133-.241-2.305-2.563-.29-3.846 4.32-2.64 9.487-5.621 14.726-5.772 5.045-.127 9.041 3.916 12.578 4.929 7.055 1.85 7.02-2.628 3.91-5.95-2.555-2.804-7.958-7.507-13.002-6.882-10.178 1.248-9.536.963-15.78 5.105-2.29 1.35-4.833 2.84-3.884 1.203 2.284-4.11.156-3.403 3.685-7.585 2.744-3.063 4.76-5.269 7.48-6.034 2.583-.622 5.996-3.367 7.052-4.76 2.535-3.506.35-5.508-3.568-4.333-3.4.935-5.228 3.198-7.565 3.824-5.482 1.727-9.905 14.269-10.58 16.046-.874 2.122-1.84 1.07-1.662-.728.792-8.855 1.54-23.682-1.587-29.786-4.708-9-4.272-4.803-6.079-.532-2.721 6.785-1.776 13.109-.062 19.759.749 3.32 3.529 7.096 4.027 9.701.359 2.046-1.188-.637-2.087-1.865-2.956-4.523-5.117-7.582-9.93-10.045-3.289-2.082-12.148-2.362-15.232-1.413-1.335.41 1.481 2.316 2.674 3.263 3.228 2.566 9.344 3.366 13.46 5.895 3.533 2.173 6.224 3.57 7.395 6.574.488 2.23 1.212 5.539-.257 5.459-3.855-.221-9.847-3.557-22.148-2.186-6.282.83-11.736 6.205-15.213 12.663z" fill-rule="evenodd" fill="#239e46"/><path id="rect806" fill-rule="evenodd" stroke-width="1pt" d="M495 314.75h3.569v5.949H495z"/><path id="path800" d="M477.28 275.12c14.154 19.599 36.841 31.025 37.295 39.926-14.334-.057-29.871.007-44.206-.05 10.156-12.21 16.346-20.454 6.91-39.876z" fill-rule="evenodd" fill="#fdf9ff"/><path id="path801" d="M464.41 315.49c19.23 4.288 42.187 6.65 56.851-.6.12 4.286-4.768 10.456-8.775 10.456h-36.898c4.286-.614 6.73-1.921 13.704-2.284l-19.59.241c-2.165.08-6.012-5.73-5.29-7.813z" fill-rule="evenodd" fill="#a68861"/><path id="path797" d="M508.02 400.84c1.955 1.071 5.045 1.014 6.785.085 111.1-59.135 111.16-221.3.162-279.61-2.063-1.087-5.06-1.028-7.11.085-108.26 59.262-108.55 219.59.163 279.44zm.552-13.35c1.707.945 4.404.896 5.923.074 92.997-54.731 94.136-199.32.14-251.15-1.798-1.322-4.415-.908-6.204.074-89.067 52.672-94.034 191.3.141 251z" fill-rule="evenodd" stroke-width="1pt" fill="#be0027"/><text id="text823" font-size="25.614" y="269.487" x="465.114" font-family="helvetica" fill="#bd0728"><tspan id="tspan824" fill="#bd0728">G</tspan></text><text id="text826" font-size="25.614" y="269.607" x="488.065" font-family="helvetica" fill="#bd0728"><tspan id="tspan827" fill="#bd0728">U</tspan></text><text id="text829" font-size="25.614" y="269.59" x="516.053" font-family="helvetica" fill="#bd0728"><tspan id="tspan830" fill="#bd0728">A</tspan></text><text id="text832" font-size="25.614" y="269.542" x="539.532" font-family="helvetica" fill="#bd0728"><tspan id="tspan833" fill="#bd0728">M</tspan></text></g></g></svg>