<svg id="svg1" xmlns="http://www.w3.org/2000/svg" height="512" width="512" version="1" y="0" x="0"><g id="flag" stroke-width="1pt"><path id="rect124" fill="#006" d="M0 0h512v512H0z"/><g id="g584" transform="scale(4.3911 5.7284)"><path id="path146" fill="#fff" d="M0 0v3.354L53.292 30H60v-3.354L6.708 0H0zm60 0v3.354L6.708 30H0v-3.354L53.292 0H60z"/><path id="path136" fill="#fff" d="M25 0v30h10V0H25zM0 10v10h60V10H0z"/><path id="path141" fill="#c00" d="M0 12v6h60v-6H0zM27 0v30h6V0h-6z"/><path id="path150" fill="#c00" d="M0 30l20-10h4.472l-20 10H0zM0 0l20 10h-4.472L0 2.236V0zm35.528 10l20-10H60L40 10h-4.472zM60 30L40 20h4.472L60 27.764V30z"/></g><path id="polygon589" fill-rule="evenodd" transform="translate(-56.416 238.54) scale(4.1843)" fill="#fff" d="M30 49l-3.905 4.109.778-5.615-5.647-.491L26.1 44.11l-3.136-4.721 5.3 2.007L30 36l1.736 5.396 5.3-2.007L33.9 44.11l4.874 2.893-5.647.491.778 5.615z"/><g id="g596" fill-rule="evenodd" transform="translate(-176.26 145.71) scale(6.1865)" fill="#fff"><path id="polygon590" d="M90 51.905l-1.86 1.956.371-2.673-2.689-.234 2.321-1.378-1.494-2.248 2.525.956.826-2.57.826 2.57 2.525-.956-1.494 2.248 2.321 1.378-2.689.234.371 2.673z"/><path id="polygon592" d="M90 11.905l-1.86 1.956.371-2.673-2.689-.234 2.321-1.378-1.494-2.248 2.525.956.826-2.57.826 2.57 2.525-.956-1.494 2.248 2.321 1.378-2.689.234.371 2.673z"/><path id="polygon593" d="M75 28.155l-1.86 1.956.371-2.673-2.689-.234 2.321-1.378-1.494-2.248 2.525.956.826-2.57.826 2.57 2.525-.956-1.494 2.248 2.321 1.378-2.689.234.371 2.673z"/><path id="polygon594" d="M103.33 24.155l-1.86 1.956.37-2.673-2.685-.234 2.325-1.378-1.497-2.248 2.527.956.82-2.57.83 2.57 2.52-.956-1.49 2.248 2.32 1.378-2.69.234.37 2.673z"/><path id="polygon595" d="M94.943 32.843l-1.321-1.115 1.725-.127L96 30l.653 1.601 1.725.127-1.321 1.115.413 1.679-1.47-.911-1.47.911z"/></g></g></svg>