<svg id="svg378" xmlns="http://www.w3.org/2000/svg" height="512" width="512" version="1" y="0" x="0"><defs id="defs380"><clipPath id="clipPath9847" clipPathUnits="userSpaceOnUse"><path id="rect9849" fill-opacity=".67" d="M218.92 2.603h494.61v494.61H218.92z"/></clipPath></defs><g id="flag" fill-rule="evenodd" clip-path="url(#clipPath9847)" transform="translate(-226.62 -2.695) scale(1.0352)" stroke-width="1pt"><path id="rect649" fill="#fff" d="M0 136.96h959.78v208.93H0z"/><path id="rect148" transform="rotate(180 0 -116.855) scale(1.5468)" fill="#087bce" d="M-619.34-472.52H-1.28v107.96h-618.06z"/><path id="rect585" transform="rotate(180 0 -116.855) scale(1.5468)" fill="#087bce" d="M-620.86-257.75H0v104.98h-620.86z"/><path id="polygon671" transform="matrix(.33337 -.00162 -.00363 .31606 304.57 139.65)" fill="#087bce" d="M533.77 391.48l-57.27 41.67 21.95-67.34-57.33-41.6 70.83.07 21.83-67.38 21.83 67.38 70.83-.05-57.34 41.58 21.94 67.35z"/><path id="polygon637" transform="matrix(.33337 -.00162 -.00363 .31606 442.66 175.2)" fill="#087bce" d="M533.77 391.48l-57.27 41.67 21.95-67.34-57.33-41.6 70.83.07 21.83-67.38 21.83 67.38 70.83-.05-57.34 41.58 21.94 67.35z"/><path id="polygon638" transform="matrix(.33337 -.00162 -.00363 .31606 442.66 101.37)" fill="#087bce" d="M533.77 391.48l-57.27 41.67 21.95-67.34-57.33-41.6 70.83.07 21.83-67.38 21.83 67.38 70.83-.05-57.34 41.58 21.94 67.35z"/><path id="polygon639" transform="matrix(.33337 -.00162 -.00363 .31606 137.77 175.2)" fill="#087bce" d="M533.77 391.48l-57.27 41.67 21.95-67.34-57.33-41.6 70.83.07 21.83-67.38 21.83 67.38 70.83-.05-57.34 41.58 21.94 67.35z"/><path id="polygon640" transform="matrix(.33337 -.00162 -.00363 .31606 137.77 101.37)" fill="#087bce" d="M533.77 391.48l-57.27 41.67 21.95-67.34-57.33-41.6 70.83.07 21.83-67.38 21.83 67.38 70.83-.05-57.34 41.58 21.94 67.35z"/></g></svg>