<svg id="svg378" xmlns="http://www.w3.org/2000/svg" height="512" width="512" version="1" y="0" x="0"><defs id="defs380"><clipPath id="clipPath3061" clipPathUnits="userSpaceOnUse"><path id="rect3063" fill-opacity=".67" d="M0 0h512v512H0z"/></clipPath></defs><g id="flag" fill-rule="evenodd" clip-path="url(#clipPath3061)"><path id="rect149" transform="scale(-1)" fill="#fff" d="M-619.43-512H112V0h-731.43z"/><path id="rect585" transform="scale(-1)" fill="#00c" d="M-619.43-115.23H112v67.227h-731.43z"/><path id="rect688" transform="scale(-1)" fill="#00c" d="M-619.43-465.68H112v67.227h-731.43z"/><path id="path706" d="M136.43 190.78l110.12 191.54 112.49-190.75-222.61-.79z" stroke-width="1.293" fill="#00c"/><path id="path704" d="M225.75 317.81l20.95 35.506 21.4-35.36-42.351-.145z" stroke-width="1.293" fill="#fff"/><path id="path707" d="M136.02 320.58l110.13-191.54 112.48 190.75-222.61.79z" stroke-width="1.293" fill="#00c"/><path id="path708" d="M225.75 191.61l20.95-35.506 21.4 35.36-42.351.145z" stroke-width="1.293" fill="#fff"/><path id="path709" d="M181.97 271.11l-21.64 35.982 40.899-.127-19.258-35.855z" stroke-width="1.293" fill="#fff"/><path id="path710" d="M160.7 204.61l41.225.29-19.834 36.261-21.391-36.55z" stroke-width="1.293" fill="#fff"/><path id="path711" d="M311.94 271.52l20.829 35.576-41.71-.533 20.881-35.043z" stroke-width="1.293" fill="#fff"/><path id="path712" d="M332.39 204.61l-41.225.29 19.834 36.261 21.391-36.55z" stroke-width="1.293" fill="#fff"/><path id="path716" d="M218.12 204.57l-28.394 51.515 28.799 50.297 52.731 1.217 32.044-51.514-29.611-51.92-55.571.405z" stroke-width="1pt" fill="#fff"/></g></svg>