<svg id="svg378" xmlns="http://www.w3.org/2000/svg" height="512" width="512" version="1" y="0" x="0"><defs id="defs380"><clipPath id="clipPath9267" clipPathUnits="userSpaceOnUse"><path id="rect9269" fill-opacity=".67" d="M148.24 0h744.09v744.09H148.24z"/></clipPath></defs><g id="flag" clip-path="url(#clipPath9267)" transform="translate(-102) scale(.68808)"><path id="rect148" fill-rule="evenodd" transform="scale(-1)" stroke-width="1pt" fill="#ba0000" d="M-1063-744.09H0V0h-1063z"/><path id="path747" d="M556.648 546.465c.29-.88.877-9.946.584-9.946s-13.747-15.794-13.454-15.794 17.257 3.803 17.257 3.217c0-.584 6.727-16.671 6.727-16.964 0-.291 8.19 19.597 8.19 19.597l16.671 7.313-11.7 9.65s2.633 18.721 2.633 19.014c0 .291-11.7-11.116-11.7-11.116l-12.87 1.463s-1.754-5.85-2.338-6.434z" fill-rule="evenodd" fill-opacity=".988" stroke="#000" stroke-width="3.203" fill="#ffef00"/><path id="path724" d="M466.026 300.69c-11.114 5.722-53.768 54.478-59.618 62.082-4.901 11.04-14.487 25.006-24.362 33.996-10.54 7.974-16.397 18.867-14.945 29.18-.118 12.835 7.077 21.573 12.81 30.604 3.392 4.125 7.957 6.791 12.81 7.116 9.956 1.314 10.84 4.38 15.823 6.278 19.628 26.725 48.91 46.433 69.999 62.044 13.442 7.085 22.79 14.17 25.993 18.038 6.174 11.79 5.038 23.285 4.192 28.933l-15.657 59.073c-2.633 16.087 11.347 12.469 12.099 9.252 6.309-8.19 15.724-2.438 29.178-49.82 6.167-8.304 12.337-16.607 18.504-24.91 0 0 7.119-2.847 7.119-3.558 10.823-12.995 2.582-20.433-3.56-22.773-4.508-1.66-9.015-3.323-13.522-4.983 0 0-15.657-15.657-16.368-15.657-7.44-21.644-43.961-67.851-52.444-74.285-5.872-6.12-8.666-8.726-14.24-12.13-8.57-4.1-11.335-5.433-16.584-7.528-4.37-1.753-1.26-6.551 1.52-8.745 28.926-15.746 51.856-33.245 79.612-51.038 1.422-.95 2.847-1.898 4.27-2.847-3.321-18.978-6.644-37.957-9.964-56.935l-46.26-16.37c-2.427 1.66-4.27 3.322-6.405 4.982z" fill-rule="evenodd" stroke="#000" stroke-width="3.832" fill="#fff"/><path id="path745" d="M217.25 246.97c.061-.243 12.052-2.435 12.052-2.435s-1.4 4.444-1.461 4.444l-11.93 3.591 1.339-5.6z" fill-rule="evenodd" transform="translate(-17.213 7.104) scale(2.4025)" stroke-width="1pt" fill="#ffec00"/><path id="path725" d="M429.652 491.976c5.557-14.77 20.983-26.465 31.345-29.692" stroke="#000" stroke-width="3.203" fill="none"/><path id="path744" d="M503.697 600.69c1.86-.524 10.117-2.934 12.522-3.309 2.566-.6 5.12-1.273 7.587-2.068 2.847-.582 4.63-1.117 7.587-1.656 2.316-.884 4.606-1.49 7.083-2.068m-39.995 26.913c.24-.322 2.203-2.057 3.614-2.895 1.66-.524 7.337-2.934 9.485-3.309 2.292-.6 4.572-1.273 6.775-2.068 2.544-.582 4.134-1.117 6.777-1.655 2.069-.885 4.113-1.49 6.324-2.069" stroke="#000" stroke-width="3.541" fill="none"/><path id="path726" d="M510.184 496.157h-.413c1.295 0 .5-.108-1.243 2.068-.62 1.672-5.929 5.377-9.927 5.377-1.929.207-4.894.413-6.825.413-.55 0-1.31-.413-1.862-.413" stroke="#000" stroke-width="3.203" fill="none"/><path id="path728" d="M509.775 581.35h2.067c2.145 0 4.298.381 6.205.413 2.069 0 4.137.586 6.206.586 2.088.295 4.603.2 6.763.507 2.422.082 4.365.56 6.885.56 2.033.076 3.128.415 5.38.415l-5.38-.415c2.033.076 3.128.415 5.38.415" stroke="#000" stroke-width="3.203" fill="none"/><path id="path727" d="M495.697 631.826c.22-.322 2.018-2.057 3.308-2.895 1.52-.524 6.72-2.933 8.687-3.308 2.098-.6 4.186-1.274 6.204-2.069 2.33-.581 3.786-1.117 6.205-1.655 1.896-.884 3.767-1.49 5.79-2.069" stroke="#000" stroke-width="3.203" fill="none"/><path id="path729" d="M534.45 559.92c-1.171 3.396.345 4.25.972 5.715 1.09 1.42 3.875 3.584 8.274 4.963 1.696.457 3.001.904 4.964 1.656 1.3.12 1.939.444 2.895.826" stroke="#000" stroke-width="3.203" fill="none"/><path id="path730" d="M370.79 435.35h.414c-1.297 0-.519.084 1.655-1.656 1.343-1.501 2.465-2.181 3.722-3.721" stroke="#000" stroke-width="3.203" fill="none"/><path id="path731" d="M397.555 464.804c.276 0 24.063-11.988 26.602-14.55 1.8-1.304 3.162-2.68 5.35-4.163 1.404-.733 2.41-1.672 3.725-2.482 1.093-1.583 2.52-2.54 3.308-3.988 1.46-1.266.834-2.638 2.018-4.163.56-1.562 1.607-4.193 1.948-5.622" stroke="#000" stroke-width="3.203" fill="none"/><path id="path733" d="M470.807 447.626c.13.856-.38 3.491-.344 5.497-.081 2.326-3.073 9.51-6.688 11.655" stroke="#000" stroke-width="3.203" fill="none"/><path id="path734" d="M428.066 447.362c.14 0 3.76 1.177 9.812 3.04 7.285 2.618 22.435 12.165 23.939 13.48 1.535 1.208 4.28 2.287 5.333 3.721 1.646 1.422 2.852 3.063 4.137 4.55 1.511 1.843 2.8 3.402 3.722 4.964 4.6 3.731 16.976 29.565 17.372 31.023a63.46 63.46 0 012.069 4.55c.918 1.058 1.54 2.552 2.482 4.138.865 2.056 1.833 2.993 2.897 4.55 1.37.952 3.215 2.758 4.964 3.722 1.864 1.595 3.613 2.244 4.963 3.31 1.951.83 23.751 14.61 24.763 15.3 1.991 1.6 8.072 7.901 3.803 12.485-1.812 1.55-3.443 3.602-4.99 4.479-1.576 1.578-3.77 2.284-5.581 3.101-9.822 2.902-14.824 1.862-16.755 1.862h-2.069" stroke="#000" stroke-width="3.203" fill="none"/><path id="path735" d="M379.92 398.64c2.792 1.092 1.665.285 4.178 1.429 1.69.74 2.802.759 4.462 1.364 1.76.565 6.681 1.452 9.045 3.825 1.735 1.567 3.058 2.89 4.964 4.034 2.253 1.554 3.88 2.246 6.674 3.412 2.357.881 4.992 1.86 7.375 1.943 2.477.144 3.07.022 5.447.022h5.792-5.792 5.792" stroke="#000" stroke-width="3.203" fill="none"/><path id="path738" d="M379.272 426.244c6.203-.413 16.543 1.449 16.75 1.449l13.65-.207c7.172-.692 8.756-3.447 9.928-5.38 2.688-4.134 4.55-5.582 6.619-8.684 3.308-2.482 7.86 3.308 8.067 3.308 11.58 10.963 2.273 24.405 1.653 24.818-5.79 5.31-7.032 5.653-10.547 2.275-3.517-4.137-4.55-5.996-7.445-7.445-5.583-2.689-17.166-.62-17.375-.62-.206 0-5.997 2.275-5.997 2.275-2.827 1.033-4.62 3.517-9.513 4.341-4.964.346-6.62-.137-9.101-4.134-3.308-5.17-1.655-11.376 3.31-11.996z" fill-rule="evenodd" stroke="#000" stroke-width="3.203" fill="#ffe606"/><path id="path770" d="M703.114 175.363c-.909.178-9.1 4.11-8.956 4.366s-7.03 19.723-7.174 19.467-5.142-16.906-5.653-16.619c-.509.286-17.828 2.306-18.084 2.45-.253.143 13.069-16.743 13.069-16.743l-1.795-18.116 14.146 5.47s15.028-11.47 15.283-11.614c.253-.142-3.956 15.647-3.956 15.647l7.583 10.501s-4.24 4.396-4.463 5.191z" fill-rule="evenodd" fill-opacity=".988" stroke="#000" stroke-width="3.203" fill="#ffef00"/><path id="path771" d="M533.289 374.804c10.435 6.884 73.838 20.17 83.333 21.543 12.025-1.138 28.897.373 41.572 4.575 12.116 5.28 24.482 5.046 32.76-1.273 11.246-6.187 15.336-16.741 20.399-26.164 1.933-4.979 2.02-10.264-.075-14.654-3.734-9.322-1.495-11.595-2.282-16.869 13.676-30.207 16.505-65.389 19.778-91.423-.412-15.189 1.183-26.81 2.985-31.497 7.25-11.16 17.828-15.803 23.166-17.834 19.721-5.1 39.444-10.2 59.165-15.302 15.313-5.588 5.308-16.001 2.135-15.08-10.23-1.486-9.831-12.512-57.727-1.018l-30.78-3.923s-5.97-4.81-6.59-4.461c-16.632-3.066-19.078 7.762-18.107 14.264.762 4.742 1.522 9.486 2.283 14.228 0 0-5.974 21.321-5.626 21.941-15.22 17.093-37.877 71.981-39.328 82.529-.687 9.911-4.43 8.121-3.427 17.755.038 7.528-.838 2.828 1.675 18.338.613 4.669-5.094 4.308-8.368 2.96-27.901-17.498-54.393-28.909-83.505-44.383l-4.574-2.326c-14.915 12.194-29.83 24.392-44.745 36.586l8.4 48.347c2.637 1.302 4.99 2.093 7.483 3.141z" fill-rule="evenodd" stroke="#000" stroke-width="3.832" fill="#fff"/><path id="path772" d="M217.25 246.97c.061-.243 12.052-2.435 12.052-2.435s-1.4 4.444-1.461 4.444l-11.93 3.591 1.339-5.6z" fill-rule="evenodd" transform="rotate(-119.345 532.02 319.556) scale(2.4025)" stroke-width="1pt" fill="#ffec00"/><path id="path773" d="M717.855 312.766c-15.598 2.395-33.353-5.32-41.244-12.772" stroke="#000" stroke-width="3.203" fill="none"/><path id="path774" d="M776.33 194.945c-1.368-1.364-7.515-7.38-9.02-9.293-1.781-1.943-3.62-3.84-5.522-5.6-1.902-2.197-3.242-3.488-5.16-5.802-1.906-1.586-3.556-3.285-5.275-5.16m43.06 21.673c-.399-.052-2.873-.913-4.295-1.731-1.27-1.19-6.152-4.958-7.532-6.647-1.647-1.703-3.35-3.361-5.123-4.892-1.754-1.933-3-3.056-4.764-5.096-1.785-1.37-3.315-2.856-4.902-4.499" stroke="#000" stroke-width="3.541" fill="none"/><path id="path775" d="M682.033 240.52l.202.36c-.635-1.129-.34-.383 2.412.069 1.761-.28 7.592 2.533 9.552 6.018 1.125 1.58 2.758 4.063 3.705 5.747.27.48.281 1.344.552 1.826" stroke="#000" stroke-width="3.203" fill="none"/><path id="path776" d="M756.493 199.125l-.203-.36-.81-1.44c-1.051-1.871-1.773-3.935-2.68-5.613-1.014-1.803-1.517-3.893-2.53-5.696-.766-1.965-2.083-4.11-2.873-6.144-1.116-2.151-1.652-4.08-2.887-6.276-.929-1.81-1.17-2.93-2.274-4.893l2.274 4.893c-.929-1.81-1.17-2.93-2.274-4.893" stroke="#000" stroke-width="3.203" fill="none"/><path id="path777" d="M807.392 186.66c-.39-.035-2.782-.751-4.145-1.465-1.202-1.069-5.85-4.42-7.141-5.951-1.552-1.534-3.161-3.024-4.843-4.394-1.65-1.746-2.83-2.753-4.485-4.598-1.7-1.219-3.144-2.554-4.64-4.033" stroke="#000" stroke-width="3.203" fill="none"/><path id="path778" d="M725.72 188.12c3.535-.645 3.536-2.384 4.506-3.65.703-1.646 1.225-5.134.272-9.644-.434-1.702-.683-3.058-.99-5.138-.532-1.192-.563-1.908-.698-2.928" stroke="#000" stroke-width="3.203" fill="none"/><path id="path779" d="M697.341 391.825l-.202-.36c.635 1.13.327.411-2.255-.632-1.967-.435-3.11-1.08-5.067-1.42" stroke="#000" stroke-width="3.203" fill="none"/><path id="path780" d="M709.9 354.06c-.136-.24-22.243-15.1-25.72-16.058-2.02-.93-3.887-1.442-6.251-2.623-1.327-.864-2.639-1.281-3.989-2.03-1.916-.177-3.448-.952-5.097-.93-1.82-.652-2.708.567-4.619.282-1.635.277-4.442.654-5.855 1.057" stroke="#000" stroke-width="3.203" fill="none"/><path id="path781" d="M659.027 298.627c.682-.532 3.23-1.38 4.96-2.394 2.067-1.069 9.795-1.982 13.437.118" stroke="#000" stroke-width="3.203" fill="none"/><path id="path782" d="M679.743 336.012c-.068-.121-.817-3.854-2.16-10.042-1.287-7.633-.389-25.518.02-27.473.3-1.93-.105-4.852.63-6.473.433-2.131 1.272-3.987 1.938-5.836.866-2.22 1.594-4.107 2.503-5.676.998-5.84 17.452-29.287 18.529-30.347a63.459 63.459 0 012.953-4.033c.471-1.318 1.469-2.593 2.39-4.191 1.368-1.762 1.71-3.065 2.546-4.756.158-1.66.829-4.153.811-6.15.477-2.407.186-4.25.454-5.95-.234-2.106 1.095-27.862 1.2-29.082.419-2.52 2.932-10.909 9.02-9.434 2.238.82 4.826 1.236 6.349 2.155 2.148.6 3.839 2.166 5.439 3.345 7.343 7.139 8.887 12.009 9.834 13.692l1.014 1.804" stroke="#000" stroke-width="3.203" fill="none"/><path id="path783" d="M660.751 401.014l-.202-.36c.547.973.244.488-.451-1.646-.183-1.835-.749-4.317-1.035-6.06-.37-1.812-1.22-3.876-.99-5.139-.648-1.84-.24-3.359-.066-5.182.515-2.28.748-3.93.811-6.15.251-2.727.05-4.659.205-7.235-.718-2.12-.865-3.896-1.96-6.015-.973-2.026-1.718-3.9-2.883-5.972l-2.838-5.049 2.838 5.05-2.838-5.05" stroke="#000" stroke-width="3.203" fill="none"/><path id="path785" d="M685.248 388.895c-3.4-5.205-6.845-15.13-6.946-15.31l-6.87-11.799c-4.118-5.912-7.296-5.941-9.554-6.017-4.922-.317-7.097-1.23-10.815-1.513-3.784-1.667-.968-8.474-1.07-8.654 3.881-15.466 20.16-13.94 20.824-13.603 7.465 2.445 8.373 3.36 7.152 8.079-1.883 5.093-2.998 6.905-2.842 10.138.393 6.185 7.873 15.267 7.975 15.45.101.18 4.922 4.111 4.922 4.111 2.286 1.959 5.33 2.304 8.447 6.166 2.734 4.157 3.124 5.837.856 9.959-2.886 5.417-9.105 7.018-12.08 2.993z" fill-rule="evenodd" stroke="#000" stroke-width="3.203" fill="#ffe606"/><g id="g786" transform="matrix(-1.107 2.1322 -2.1322 -1.107 1044.3 -15.63)"><path id="path787" d="M238.86 224.5c.121-.366.365-4.14.243-4.14s-5.722-6.574-5.6-6.574 7.183 1.583 7.183 1.339c0-.243 2.8-6.939 2.8-7.061 0-.121 3.409 8.157 3.409 8.157l6.939 3.044-4.87 4.017s1.096 7.792 1.096 7.914c0 .121-4.87-4.627-4.87-4.627l-5.357.609s-.73-2.435-.973-2.678z" fill-rule="evenodd" fill-opacity=".988" stroke="#000" stroke-width="1pt" fill="#ffef00"/><path id="path788" d="M201.14 122.2c-4.626 2.382-22.38 22.676-24.815 25.841-2.04 4.595-6.03 10.408-10.14 14.15-4.387 3.319-6.825 7.853-6.221 12.146-.049 5.342 2.946 8.979 5.332 12.738 1.412 1.717 3.312 2.827 5.332 2.962 4.144.547 4.512 1.823 6.586 2.613 8.17 11.124 20.358 19.327 29.136 25.825 5.595 2.949 9.486 5.898 10.819 7.508 2.57 4.907 2.097 9.692 1.745 12.043l-6.517 24.588c-1.096 6.696 4.723 5.19 5.036 3.851 2.626-3.409 6.545-1.015 12.145-20.737l7.702-10.368s2.963-1.185 2.963-1.481c4.505-5.409 1.075-8.505-1.482-9.479l-5.628-2.074s-6.517-6.517-6.813-6.517c-3.097-9.009-18.39-28.426-21.921-31.104-3.456-2.271-2.043-3.264-5.743-4.865-2.739-1.522-.855-.881-6.995-3.133-1.819-.73-.524-2.727.633-3.64 12.04-6.554 21.584-13.838 33.137-21.244l1.777-1.185-4.147-23.698-19.255-6.814c-1.01.691-1.777 1.383-2.666 2.074z" fill-rule="evenodd" stroke="#000" stroke-width="1.595" fill="#fff"/><path id="path789" d="M217.25 246.97c.061-.243 12.052-2.435 12.052-2.435s-1.4 4.444-1.461 4.444l-11.93 3.591 1.339-5.6z" fill-rule="evenodd" stroke-width="1pt" fill="#ffec00"/><path id="path790" d="M186 201.82c2.313-6.148 8.734-11.016 13.047-12.359" stroke="#000" stroke-width="1pt" fill="none"/><path id="path791" d="M216.82 247.07c.774-.218 4.211-1.221 5.212-1.377 1.068-.25 2.131-.53 3.158-.861 1.185-.242 1.927-.465 3.158-.689.964-.368 1.917-.62 2.948-.861m-16.647 11.202c.1-.134.917-.856 1.504-1.205.691-.218 3.054-1.221 3.948-1.377.954-.25 1.903-.53 2.82-.861 1.059-.242 1.721-.465 2.821-.689.861-.368 1.712-.62 2.632-.861" stroke="#000" stroke-width="1.474" fill="none"/><path id="path792" d="M219.52 203.56h-.172c.539 0 .208-.045-.517.861-.258.696-2.468 2.238-4.132 2.238-.803.086-2.037.172-2.841.172-.229 0-.545-.172-.775-.172" stroke="#000" stroke-width="1pt" fill="none"/><path id="path793" d="M219.35 239.02h.86c.893 0 1.789.159 2.583.172.861 0 1.722.244 2.583.244.869.123 1.916.083 2.815.211 1.008.034 1.817.233 2.866.233.846.032 1.302.173 2.239.173l-2.239-.173c.846.032 1.302.173 2.239.173" stroke="#000" stroke-width="1pt" fill="none"/><path id="path794" d="M213.49 260.03c.092-.134.84-.856 1.377-1.205.633-.218 2.797-1.221 3.616-1.377.873-.25 1.742-.53 2.582-.861.97-.242 1.576-.465 2.583-.689.789-.368 1.568-.62 2.41-.861" stroke="#000" stroke-width="1pt" fill="none"/><path id="path795" d="M229.62 230.1c-.487 1.414.144 1.769.405 2.379.454.591 1.613 1.492 3.444 2.066.706.19 1.249.376 2.066.689.541.05.807.185 1.205.344" stroke="#000" stroke-width="1pt" fill="none"/><path id="path796" d="M161.5 178.25h.172c-.54 0-.216.035.689-.689.559-.625 1.026-.908 1.549-1.549" stroke="#000" stroke-width="1pt" fill="none"/><path id="path797" d="M172.64 190.51c.115 0 10.016-4.99 11.073-6.056.749-.543 1.316-1.116 2.227-1.733.584-.305 1.003-.696 1.55-1.033.455-.659 1.049-1.057 1.377-1.66.608-.527.347-1.098.84-1.733.233-.65.669-1.745.811-2.34" stroke="#000" stroke-width="1pt" fill="none"/><path id="path798" d="M203.13 183.36c.054.356-.158 1.453-.143 2.288-.034.968-1.279 3.958-2.784 4.851" stroke="#000" stroke-width="1pt" fill="none"/><path id="path799" d="M185.34 183.25c.058 0 1.565.49 4.084 1.265 3.032 1.09 9.338 5.064 9.964 5.611.639.503 1.782.952 2.22 1.549.685.592 1.187 1.275 1.722 1.894.629.767 1.165 1.416 1.549 2.066 1.915 1.553 7.066 12.306 7.231 12.913.289.568.647 1.359.861 1.894.382.44.641 1.062 1.033 1.722.36.856.763 1.246 1.206 1.894.57.396 1.338 1.148 2.066 1.549.776.664 1.504.934 2.066 1.378.812.345 9.886 6.081 10.307 6.368.829.666 3.36 3.289 1.583 5.197-.754.645-1.433 1.499-2.077 1.864-.656.657-1.569.951-2.323 1.291-4.088 1.208-6.17.775-6.974.775h-.861" stroke="#000" stroke-width="1pt" fill="none"/><path id="path800" d="M165.63 163.1h.172c-.465 0-.227-.011.689.172.703.308 1.719.609 2.41.861.733.235 1.655.348 2.066.689.8.14 1.268.598 1.894 1.033.722.652 1.273 1.073 2.066 1.549.938.647 1.68.968 2.583 1.55.916.172 1.59.481 2.582.516.934.06 1.766.172 2.755.172h2.411-2.411 2.411" stroke="#000" stroke-width="1pt" fill="none"/><path id="path801" d="M221.24 142.95h-.345c.637 0 .458-.023-.516.172-1.017.525-2.371.922-3.272 1.377-1.028.34-2.133.717-3.099 1.206-1.094.641-2.102 1.162-3.099 1.893-.991.531-1.965 1.185-2.927 1.722-.959.521-1.751 1.024-2.582 1.722-.694.385-1.637.93-2.411 1.549-.727.261-1.252.779-1.721 1.206-.911.807-1.469 1.226-2.411 2.066-.495.468-1.153 1.018-1.894 1.721-.778.519-1.62 1.517-2.238 2.066-.396.517-.976 1.132-1.549 1.55-.441.555-.952 1.285-1.55 1.722-.355.528-.976 1.216-1.55 1.894-.465.569-1.105 1.142-1.549 1.721-.598.662-1.056 1.329-1.722 1.894-.119.398-.369.604-.516.861" stroke="#000" stroke-width="1pt" fill="none"/><path id="path802" d="M165.03 174.46c2.582-.172 6.886.603 6.972.603l5.682-.086c2.985-.288 3.644-1.435 4.132-2.239 1.119-1.721 1.894-2.324 2.755-3.615 1.377-1.033 3.272 1.377 3.358 1.377 4.82 4.563.946 10.158.688 10.33-2.41 2.21-2.927 2.353-4.39.947-1.464-1.722-1.894-2.496-3.099-3.099-2.324-1.119-7.145-.258-7.232-.258-.086 0-2.496.947-2.496.947-1.177.43-1.923 1.464-3.96 1.807-2.066.144-2.755-.057-3.788-1.721-1.377-2.152-.689-4.735 1.378-4.993z" fill-rule="evenodd" stroke="#000" stroke-width="1pt" fill="#ffe606"/></g><path id="path746" d="M469.84 290.15c-2.276-2.067 42.811 16.337 49.014 16.546 8.481-3.102 43.433-32.676 43.433-32.676.345 2.895 1.584 10.409 4.961 11.996-13.51 10.962-25.782 21.508-39.293 32.468.966 17.373-2.205 35.78 6.618 55.221 0 0-10.546.205-10.546 0-9.307-9.307-12.618-54.185-12.618-54.185-14.821-6.619-29.644-13.029-44.465-19.648 2.138-1.38 3.861-5.652 2.896-9.722z" fill-rule="evenodd" fill-opacity=".987" stroke="#000" stroke-width="3.203" fill="#ffef00"/><path id="path920" d="M512.74 336.15c.721-.523-8.133 4.113-10.407 5.277-40.961 21.85-62.04 53.634-63.354 54.835-.708 1.354-2.011 3.16-3.204 4.929-.96 1.483-2.338 3.018-3.246 4.518-1.255 1.738-3.893 5.17-5.334 6.694-.18.982.683-.336.401.317" stroke="#000" stroke-width="3.203" fill="none"/><path id="path923" d="M540.73 310.18c-.795-.402 7.378 5.351 9.453 6.84 38.166 26.431 76.072 30.638 77.741 31.257 1.528.01 3.73.343 5.848.595 1.759.175 3.753.698 5.503.82 2.119.32 6.378 1.096 8.393 1.681.954-.29-.611-.453.098-.502" stroke="#000" stroke-width="3.203" fill="none"/></g></svg>