<svg id="svg378" xmlns="http://www.w3.org/2000/svg" height="512" width="512" version="1" y="0" x="0"><defs id="defs380"><clipPath id="clipPath9097" clipPathUnits="userSpaceOnUse"><path id="rect9099" fill-opacity=".67" d="M177.17 0h708.66v708.66H177.17z"/></clipPath></defs><g id="flag" fill-rule="evenodd" clip-path="url(#clipPath9097)" transform="translate(-128) scale(.72249)" stroke-width="1pt"><path id="rect171" fill="#fff" d="M0 0h1063v708.66H0z"/><path id="rect256" fill="#329203" d="M0 472.44h1063v236.22H0z"/><path id="rect255" fill="#e77300" d="M0 0h1063v236.22H0z"/><g id="g228" transform="translate(398.44 219.6) scale(.36664)"><circle id="path200" cx="362.9" cy="367.47" fill="#08399c" r="305"/><path id="path175" d="M297.09 104.97c6.1-1.639 9.354-1.974 15.188-3.158 3.641 11.977 11.578 18.241 19.562 16.838 7.19-1.157 17.438-6.421 15.338-21.399 5.942-.356 9.356-.514 15.673-.498-.117 45.205-2.964 92.837-7.129 137.28-3.004 32.785 6.062 40.636 7.422 57.697 1.52 19.795.264 35.374 1.668 76.254-8.058-40.105-12.981-55.871-15.885-74.435-2.681-17.866 3.817-24.71-8.936-58-16.47-42.047-31.171-86.918-42.901-130.58z" transform="rotate(89.712 364.625 367.887)" fill="#fff"/><path id="path205" d="M297.09 104.97c6.1-1.639 9.354-1.974 15.188-3.158 3.641 11.977 11.578 18.241 19.562 16.838 7.19-1.157 17.438-6.421 15.338-21.399 5.942-.356 9.356-.514 15.673-.498-.117 45.205-2.964 92.837-7.129 137.28-3.004 32.785 6.062 40.636 7.422 57.697 1.52 19.795.264 35.374 1.668 76.254-8.058-40.105-12.981-55.871-15.885-74.435-2.681-17.866 3.817-24.71-8.936-58-16.47-42.047-31.171-86.918-42.901-130.58z" transform="translate(.54 -.432)" fill="#fff"/><path id="path206" d="M297.09 104.97c6.1-1.639 9.354-1.974 15.188-3.158 3.641 11.977 11.578 18.241 19.562 16.838 7.19-1.157 17.438-6.421 15.338-21.399 5.942-.356 9.356-.514 15.673-.498-.117 45.205-2.964 92.837-7.129 137.28-3.004 32.785 6.062 40.636 7.422 57.697 1.52 19.795.264 35.374 1.668 76.254-8.058-40.105-12.981-55.871-15.885-74.435-2.681-17.866 3.817-24.71-8.936-58-16.47-42.047-31.171-86.918-42.901-130.58z" transform="rotate(14.897 364.278 367.888)" fill="#fff"/><path id="path207" d="M297.09 104.97c6.1-1.639 9.354-1.974 15.188-3.158 3.641 11.977 11.578 18.241 19.562 16.838 7.19-1.157 17.438-6.421 15.338-21.399 5.942-.356 9.356-.514 15.673-.498-.117 45.205-2.964 92.837-7.129 137.28-3.004 32.785 6.062 40.636 7.422 57.697 1.52 19.795.264 35.374 1.668 76.254-8.058-40.105-12.981-55.871-15.885-74.435-2.681-17.866 3.817-24.71-8.936-58-16.47-42.047-31.171-86.918-42.901-130.58z" transform="rotate(29.866 364.491 367.89)" fill="#fff"/><path id="path208" d="M297.09 104.97c6.1-1.639 9.354-1.974 15.188-3.158 3.641 11.977 11.578 18.241 19.562 16.838 7.19-1.157 17.438-6.421 15.338-21.399 5.942-.356 9.356-.514 15.673-.498-.117 45.205-2.964 92.837-7.129 137.28-3.004 32.785 6.062 40.636 7.422 57.697 1.52 19.795.264 35.374 1.668 76.254-8.058-40.105-12.981-55.871-15.885-74.435-2.681-17.866 3.817-24.71-8.936-58-16.47-42.047-31.171-86.918-42.901-130.58z" transform="rotate(44.836 364.553 367.888)" fill="#fff"/><path id="path209" d="M297.09 104.97c6.1-1.639 9.354-1.974 15.188-3.158 3.641 11.977 11.578 18.241 19.562 16.838 7.19-1.157 17.438-6.421 15.338-21.399 5.942-.356 9.356-.514 15.673-.498-.117 45.205-2.964 92.837-7.129 137.28-3.004 32.785 6.062 40.636 7.422 57.697 1.52 19.795.264 35.374 1.668 76.254-8.058-40.105-12.981-55.871-15.885-74.435-2.681-17.866 3.817-24.71-8.936-58-16.47-42.047-31.171-86.918-42.901-130.58z" transform="rotate(59.716 364.59 367.89)" fill="#fff"/><path id="path210" d="M297.09 104.97c6.1-1.639 9.354-1.974 15.188-3.158 3.641 11.977 11.578 18.241 19.562 16.838 7.19-1.157 17.438-6.421 15.338-21.399 5.942-.356 9.356-.514 15.673-.498-.117 45.205-2.964 92.837-7.129 137.28-3.004 32.785 6.062 40.636 7.422 57.697 1.52 19.795.264 35.374 1.668 76.254-8.058-40.105-12.981-55.871-15.885-74.435-2.681-17.866 3.817-24.71-8.936-58-16.47-42.047-31.171-86.918-42.901-130.58z" transform="rotate(74.952 364.614 367.892)" fill="#fff"/><path id="path211" d="M297.09 104.97c6.1-1.639 9.354-1.974 15.188-3.158 3.641 11.977 11.578 18.241 19.562 16.838 7.19-1.157 17.438-6.421 15.338-21.399 5.942-.356 9.356-.514 15.673-.498-.117 45.205-2.964 92.837-7.129 137.28-3.004 32.785 6.062 40.636 7.422 57.697 1.52 19.795.264 35.374 1.668 76.254-8.058-40.105-12.981-55.871-15.885-74.435-2.681-17.866 3.817-24.71-8.936-58-16.47-42.047-31.171-86.918-42.901-130.58z" transform="rotate(-89.935 364.73 367.888)" fill="#fff"/><path id="path212" d="M297.09 104.97c6.1-1.639 9.354-1.974 15.188-3.158 3.641 11.977 11.578 18.241 19.562 16.838 7.19-1.157 17.438-6.421 15.338-21.399 5.942-.356 9.356-.514 15.673-.498-.117 45.205-2.964 92.837-7.129 137.28-3.004 32.785 6.062 40.636 7.422 57.697 1.52 19.795.264 35.374 1.668 76.254-8.058-40.105-12.981-55.871-15.885-74.435-2.681-17.866 3.817-24.71-8.936-58-16.47-42.047-31.171-86.918-42.901-130.58z" transform="rotate(104.507 364.639 367.887)" fill="#fff"/><path id="path213" d="M297.09 104.97c6.1-1.639 9.354-1.974 15.188-3.158 3.641 11.977 11.578 18.241 19.562 16.838 7.19-1.157 17.438-6.421 15.338-21.399 5.942-.356 9.356-.514 15.673-.498-.117 45.205-2.964 92.837-7.129 137.28-3.004 32.785 6.062 40.636 7.422 57.697 1.52 19.795.264 35.374 1.668 76.254-8.058-40.105-12.981-55.871-15.885-74.435-2.681-17.866 3.817-24.71-8.936-58-16.47-42.047-31.171-86.918-42.901-130.58z" transform="rotate(119.494 364.648 367.89)" fill="#fff"/><path id="path214" d="M297.09 104.97c6.1-1.639 9.354-1.974 15.188-3.158 3.641 11.977 11.578 18.241 19.562 16.838 7.19-1.157 17.438-6.421 15.338-21.399 5.942-.356 9.356-.514 15.673-.498-.117 45.205-2.964 92.837-7.129 137.28-3.004 32.785 6.062 40.636 7.422 57.697 1.52 19.795.264 35.374 1.668 76.254-8.058-40.105-12.981-55.871-15.885-74.435-2.681-17.866 3.817-24.71-8.936-58-16.47-42.047-31.171-86.918-42.901-130.58z" transform="rotate(134.493 364.654 367.888)" fill="#fff"/><path id="path215" d="M297.09 104.97c6.1-1.639 9.354-1.974 15.188-3.158 3.641 11.977 11.578 18.241 19.562 16.838 7.19-1.157 17.438-6.421 15.338-21.399 5.942-.356 9.356-.514 15.673-.498-.117 45.205-2.964 92.837-7.129 137.28-3.004 32.785 6.062 40.636 7.422 57.697 1.52 19.795.264 35.374 1.668 76.254-8.058-40.105-12.981-55.871-15.885-74.435-2.681-17.866 3.817-24.71-8.936-58-16.47-42.047-31.171-86.918-42.901-130.58z" transform="rotate(149.502 364.664 367.887)" fill="#fff"/><path id="path216" d="M297.09 104.97c6.1-1.639 9.354-1.974 15.188-3.158 3.641 11.977 11.578 18.241 19.562 16.838 7.19-1.157 17.438-6.421 15.338-21.399 5.942-.356 9.356-.514 15.673-.498-.117 45.205-2.964 92.837-7.129 137.28-3.004 32.785 6.062 40.636 7.422 57.697 1.52 19.795.264 35.374 1.668 76.254-8.058-40.105-12.981-55.871-15.885-74.435-2.681-17.866 3.817-24.71-8.936-58-16.47-42.047-31.171-86.918-42.901-130.58z" transform="rotate(164.627 364.67 367.889)" fill="#fff"/><path id="path217" d="M297.09 104.97c6.1-1.639 9.354-1.974 15.188-3.158 3.641 11.977 11.578 18.241 19.562 16.838 7.19-1.157 17.438-6.421 15.338-21.399 5.942-.356 9.356-.514 15.673-.498-.117 45.205-2.964 92.837-7.129 137.28-3.004 32.785 6.062 40.636 7.422 57.697 1.52 19.795.264 35.374 1.668 76.254-8.058-40.105-12.981-55.871-15.885-74.435-2.681-17.866 3.817-24.71-8.936-58-16.47-42.047-31.171-86.918-42.901-130.58z" transform="rotate(179.668 364.833 368.045)" fill="#fff"/><path id="path218" d="M297.09 104.97c6.1-1.639 9.354-1.974 15.188-3.158 3.641 11.977 11.578 18.241 19.562 16.838 7.19-1.157 17.438-6.421 15.338-21.399 5.942-.356 9.356-.514 15.673-.498-.117 45.205-2.964 92.837-7.129 137.28-3.004 32.785 6.062 40.636 7.422 57.697 1.52 19.795.264 35.374 1.668 76.254-8.058-40.105-12.981-55.871-15.885-74.435-2.681-17.866 3.817-24.71-8.936-58-16.47-42.047-31.171-86.918-42.901-130.58z" transform="rotate(-165.225 364.677 367.88)" fill="#fff"/><path id="path219" d="M297.09 104.97c6.1-1.639 9.354-1.974 15.188-3.158 3.641 11.977 11.578 18.241 19.562 16.838 7.19-1.157 17.438-6.421 15.338-21.399 5.942-.356 9.356-.514 15.673-.498-.117 45.205-2.964 92.837-7.129 137.28-3.004 32.785 6.062 40.636 7.422 57.697 1.52 19.795.264 35.374 1.668 76.254-8.058-40.105-12.981-55.871-15.885-74.435-2.681-17.866 3.817-24.71-8.936-58-16.47-42.047-31.171-86.918-42.901-130.58z" transform="rotate(-150.259 364.69 367.887)" fill="#fff"/><path id="path220" d="M297.09 104.97c6.1-1.639 9.354-1.974 15.188-3.158 3.641 11.977 11.578 18.241 19.562 16.838 7.19-1.157 17.438-6.421 15.338-21.399 5.942-.356 9.356-.514 15.673-.498-.117 45.205-2.964 92.837-7.129 137.28-3.004 32.785 6.062 40.636 7.422 57.697 1.52 19.795.264 35.374 1.668 76.254-8.058-40.105-12.981-55.871-15.885-74.435-2.681-17.866 3.817-24.71-8.936-58-16.47-42.047-31.171-86.918-42.901-130.58z" transform="rotate(-135.237 364.697 367.889)" fill="#fff"/><path id="path221" d="M297.09 104.97c6.1-1.639 9.354-1.974 15.188-3.158 3.641 11.977 11.578 18.241 19.562 16.838 7.19-1.157 17.438-6.421 15.338-21.399 5.942-.356 9.356-.514 15.673-.498-.117 45.205-2.964 92.837-7.129 137.28-3.004 32.785 6.062 40.636 7.422 57.697 1.52 19.795.264 35.374 1.668 76.254-8.058-40.105-12.981-55.871-15.885-74.435-2.681-17.866 3.817-24.71-8.936-58-16.47-42.047-31.171-86.918-42.901-130.58z" transform="rotate(-120.189 364.707 367.885)" fill="#fff"/><path id="path222" d="M297.09 104.97c6.1-1.639 9.354-1.974 15.188-3.158 3.641 11.977 11.578 18.241 19.562 16.838 7.19-1.157 17.438-6.421 15.338-21.399 5.942-.356 9.356-.514 15.673-.498-.117 45.205-2.964 92.837-7.129 137.28-3.004 32.785 6.062 40.636 7.422 57.697 1.52 19.795.264 35.374 1.668 76.254-8.058-40.105-12.981-55.871-15.885-74.435-2.681-17.866 3.817-24.71-8.936-58-16.47-42.047-31.171-86.918-42.901-130.58z" transform="rotate(-105.026 364.714 367.887)" fill="#fff"/><path id="path223" d="M297.09 104.97c6.1-1.639 9.354-1.974 15.188-3.158 3.641 11.977 11.578 18.241 19.562 16.838 7.19-1.157 17.438-6.421 15.338-21.399 5.942-.356 9.356-.514 15.673-.498-.117 45.205-2.964 92.837-7.129 137.28-3.004 32.785 6.062 40.636 7.422 57.697 1.52 19.795.264 35.374 1.668 76.254-8.058-40.105-12.981-55.871-15.885-74.435-2.681-17.866 3.817-24.71-8.936-58-16.47-42.047-31.171-86.918-42.901-130.58z" transform="rotate(-14.772 365.087 367.89)" fill="#fff"/><path id="path224" d="M297.09 104.97c6.1-1.639 9.354-1.974 15.188-3.158 3.641 11.977 11.578 18.241 19.562 16.838 7.19-1.157 17.438-6.421 15.338-21.399 5.942-.356 9.356-.514 15.673-.498-.117 45.205-2.964 92.837-7.129 137.28-3.004 32.785 6.062 40.636 7.422 57.697 1.52 19.795.264 35.374 1.668 76.254-8.058-40.105-12.981-55.871-15.885-74.435-2.681-17.866 3.817-24.71-8.936-58-16.47-42.047-31.171-86.918-42.901-130.58z" transform="rotate(-74.836 364.748 367.89)" fill="#fff"/><path id="path225" d="M297.09 104.97c6.1-1.639 9.354-1.974 15.188-3.158 3.641 11.977 11.578 18.241 19.562 16.838 7.19-1.157 17.438-6.421 15.338-21.399 5.942-.356 9.356-.514 15.673-.498-.117 45.205-2.964 92.837-7.129 137.28-3.004 32.785 6.062 40.636 7.422 57.697 1.52 19.795.264 35.374 1.668 76.254-8.058-40.105-12.981-55.871-15.885-74.435-2.681-17.866 3.817-24.71-8.936-58-16.47-42.047-31.171-86.918-42.901-130.58z" transform="rotate(-59.983 364.762 367.889)" fill="#fff"/><path id="path226" d="M297.09 104.97c6.1-1.639 9.354-1.974 15.188-3.158 3.641 11.977 11.578 18.241 19.562 16.838 7.19-1.157 17.438-6.421 15.338-21.399 5.942-.356 9.356-.514 15.673-.498-.117 45.205-2.964 92.837-7.129 137.28-3.004 32.785 6.062 40.636 7.422 57.697 1.52 19.795.264 35.374 1.668 76.254-8.058-40.105-12.981-55.871-15.885-74.435-2.681-17.866 3.817-24.71-8.936-58-16.47-42.047-31.171-86.918-42.901-130.58z" transform="rotate(-44.96 364.796 367.892)" fill="#fff"/><path id="path227" d="M297.09 104.97c6.1-1.639 9.354-1.974 15.188-3.158 3.641 11.977 11.578 18.241 19.562 16.838 7.19-1.157 17.438-6.421 15.338-21.399 5.942-.356 9.356-.514 15.673-.498-.117 45.205-2.964 92.837-7.129 137.28-3.004 32.785 6.062 40.636 7.422 57.697 1.52 19.795.264 35.374 1.668 76.254-8.058-40.105-12.981-55.871-15.885-74.435-2.681-17.866 3.817-24.71-8.936-58-16.47-42.047-31.171-86.918-42.901-130.58z" transform="rotate(-29.647 364.876 367.883)" fill="#fff"/></g></g></svg>