<svg id="svg378" xmlns="http://www.w3.org/2000/svg" height="512" width="512" version="1.1"><g id="flag" fill-rule="evenodd" transform="matrix(.66667 0 0 1 86.916 1.954)"><path id="rect171" stroke-width="1pt" fill="#fff" d="M-130.37-1.954h768v512h-768z"/><path id="rect140" d="M-130.37 339.38h768v170.67h-768z"/><path id="rect403" fill="#f30000" d="M-130.37-1.954h768v170.67h-768z"/></g><g id="g7389" fill-rule="evenodd" fill="#005623" transform="translate(43.799 43.035) scale(.82742)"><path id="polygon141" transform="translate(127.03 -1.955) scale(.72249)" stroke-width="1pt" d="M566.56 405.84l-35.32-25.55-35.15 25.9 13.38-41.5-35.49-25.42 43.6-.1 13.22-41.6L544.36 339l43.65-.29-35.21 25.7z"/><path id="path155" d="M180.61 229.79c.262 29.417 0 48.328 0 54.369-3.152 3.677-6.304 7.617-8.668 10.768-1.05-.788-1.313-.788-1.313-2.364 0-1.576-.262-40.186 0-54.369 4.728-2.364 7.88-8.93 9.981-8.405zm-10.769-.525c2.364-3.94 4.99-7.88 6.829-9.718 1.839 1.05 1.576 3.94 1.839 4.727-1.839 2.627-6.304 6.829-7.617 8.142-.526-.787 0-.525-1.051-3.151zm13.133-33.62c-16.022 10.506-34.146 23.114-40.712 28.629-6.567 5.516-8.93 8.93-8.93 18.386s.262 20.225-.525 25.215c-.788 4.99-3.152 10.243-8.93 5.515-5.78-4.727-9.981-9.455-12.608-11.556-2.626-2.101-7.354-4.99-13.658.525-6.304 5.516-35.721 36.51-41.237 39.923-5.515 3.415-6.566 4.203-10.506 6.304 8.142.525 17.335 1.05 24.689-.525 9.718-7.092 21.013-23.114 24.69-27.054 3.678-3.94 7.354-12.344 15.497-3.152 8.142 9.193 7.88 9.456 11.819 12.344 3.94 2.89 8.93 2.364 12.345-3.414 3.415-5.779 3.677-8.405 4.99-17.861 1.314-9.455 2.101-21.275 4.203-26.528 2.1-5.253 6.304-10.506 13.395-14.709 7.092-4.202 8.405-4.465 9.981-5.253 3.152-6.04 10.77-20.225 13.92-23.639 1.314-1.575 1.577-2.364 1.577-3.152zm-71.18 95.606c-3.94-2.626-5.253-4.728-7.354-4.465-2.101.263-6.566 6.303-9.193 7.88 3.414 2.888 6.567 5.515 9.193 4.99 2.627-.526 4.465-6.303 7.354-8.405z"/><path id="path161" d="M444.58 217.45c-5.516 1.313-8.405 8.668-13.133 13.658-.525 14.709-.525 60.411-.525 66.452 4.728-5.516 7.617-8.668 11.032-10.769.787-24.427 3.677-58.571 2.626-69.341zm-26.003-.262c-6.566 4.202-8.142 8.404-13.658 13.133-.262 17.598.525 42.55-.788 45.964-1.313 3.414-4.202 10.506-11.294 9.718-7.092-.788-9.193-2.101-9.193-9.455s1.576-54.37 1.576-61.987c-5.516 2.627-10.243 10.769-14.183 14.184 0 18.385.788 41.76.263 46.752-.526 4.99-2.627 13.133-11.557 12.87-8.93-.263-13.658-4.728-13.658-9.98 0-5.254-.263-39.662.263-45.703-7.88 5.516-26.265 16.547-29.943 30.73-3.677 14.183 2.101 18.386 7.354 15.76 5.253-2.627 7.617-4.991 10.506-7.092.788 8.93 1.05 18.648 9.98 24.427s20.225 3.678 24.427.525c4.202-3.151 5.779-5.253 6.83-6.829 7.879 6.041 19.435 9.193 27.053 2.626 7.617-6.566 11.82-13.133 12.607-20.487.788-7.354 4.466-45.177 3.415-55.157zm-82.473 35.72c-7.88 3.678-11.294 9.194-9.193 12.608 2.101 3.414 6.304-.526 9.193-1.839-.525-5.252 0-8.142 0-10.769zm50.692-55.681c-1.839 6.04-3.151 4.99-5.516 5.253-2.363.262-3.94-2.102-5.778-4.203-1.839.263-2.101.788-3.414 1.314 4.202 6.04 7.354 8.667 12.344 7.354 4.99-1.314 5.253-5.779 5.253-8.142-.789-.526-1.05-.789-2.89-1.576zm-4.465-7.617c-2.364.788-2.89 1.313-3.678 3.414 1.314 2.89 3.153 4.465 4.991 3.678 1.838-.789 2.101-3.94 1.051-4.728-1.05-.789-.525-1.314-2.364-2.364z"/><path id="polygon163" transform="translate(-386.72 -1.955) scale(.72249)" stroke-width="1pt" d="M566.56 405.84l-35.32-25.55-35.15 25.9 13.38-41.5-35.49-25.42 43.6-.1 13.22-41.6L544.36 339l43.65-.29-35.21 25.7z"/><path id="polygon164" transform="translate(-130.37 -1.954) scale(.72249)" stroke-width="1pt" d="M566.56 405.84l-35.32-25.55-35.15 25.9 13.38-41.5-35.49-25.42 43.6-.1 13.22-41.6L544.36 339l43.65-.29-35.21 25.7z"/></g></svg>