<svg id="svg548" xmlns="http://www.w3.org/2000/svg" height="512" width="512" version="1" y="0" x="0"><defs id="defs550"><clipPath id="clipPath5782" clipPathUnits="userSpaceOnUse"><path id="rect5784" fill-opacity=".67" d="M113.56 0h493.5v493.5h-493.5z"/></clipPath></defs><g id="flag" clip-path="url(#clipPath5782)" transform="translate(-117.82) scale(1.0375)"><g id="g558" fill-rule="evenodd" stroke-width="1pt" transform="scale(23.5)"><path id="rect551" d="M0 0h42v7H0z"/><path id="rect552" fill="#fff" d="M0 7h42v7H0z"/><path id="rect553" fill="#090" d="M0 14h42v7H0z"/><path id="path554" d="M0 21l21-10.5L0 0v21z" fill="red"/><path id="polygon557" fill="#fff" d="M7.011 10.381l.94.453H6.909l.232 1.018-.65-.817-.652.817.233-1.018H5.027l.94-.453-.65-.816.94.453L6.49 9l.233 1.018.94-.453z"/></g></g></svg>