<svg id="svg570" xmlns="http://www.w3.org/2000/svg" height="512" width="512" version="1.1"><defs id="defs572"><clipPath id="clipPath5131" clipPathUnits="userSpaceOnUse"><path id="rect5133" fill-opacity=".67" d="M161.78 5.753h491.68v491.68H161.78z"/></clipPath></defs><g id="flag" clip-path="url(#clipPath5131)" transform="translate(-168.47 -5.991) scale(1.0413)"><path id="rect574" fill-rule="evenodd" stroke-width="1pt" fill="#e73e2d" d="M4.023 5.753h802.62v294.33H4.023z"/><path id="path605" d="M357.969 276.643c-18.664-14.57-53.425-9.642-59.15-49.249 26.616 20.617 21.784-1.178 61.537 18.466l-2.387 30.783z" fill-rule="evenodd" stroke="#d8aa3f" stroke-width="1.599" fill="#fec74a"/><path id="path564" d="M362.933 258.643c-13.302-19.589-47.902-25.547-41.218-65.003 19.02 27.78 21.098 5.552 52.921 36.43l-11.703 28.573z" fill-rule="evenodd" stroke="#d8aa3f" stroke-width="1.599" fill="#fec74a"/><path id="path565" d="M368.987 245.845c-4.802-23.186-34.496-41.92-13.234-75.824 6.954 32.941 17.373 13.197 34.973 53.896l-21.739 21.928z" fill-rule="evenodd" stroke="#d8aa3f" stroke-width="1.599" fill="#fec74a"/><path id="path566" d="M382.935 233.945c2.548-23.542-19.96-50.488 10.684-76.228-3.495 33.487 12.482 17.894 16.738 62.032l-27.422 14.196z" fill-rule="evenodd" stroke="#d8aa3f" stroke-width="1.599" fill="#fec74a"/><path id="path567" d="M395.348 224.39c11.963-20.434 2.458-54.233 40.954-65.171-16.898 29.12 4.063 21.435-10.125 63.447l-30.83 1.725z" fill-rule="evenodd" stroke="#d8aa3f" stroke-width="1.599" fill="#fec74a"/><path id="path568" d="M413.472 226.904c17.822-15.59 19.52-50.658 59.498-48.832-25.256 22.264-2.94 21.618-29.712 56.967l-29.786-8.135z" fill-rule="evenodd" stroke="#d8aa3f" stroke-width="1.599" fill="#fec74a"/><path id="path569" d="M429.357 236.085c21.613-9.672 33.529-42.697 71.208-29.217-30.677 13.87-9.156 19.802-45.122 45.736l-26.086-16.52z" fill-rule="evenodd" stroke="#d8aa3f" stroke-width="1.599" fill="#fec74a"/><path id="path570" d="M442.632 250.571c23.461-3.198 44.191-31.534 76.555-7.993-33.343 4.675-14.36 16.425-56.173 31.187l-20.382-23.194z" fill-rule="evenodd" stroke="#d8aa3f" stroke-width="1.599" fill="#fec74a"/><path id="path598" d="M526.207 255.065l-107.62 2.362 4.519 28.996 103.1-31.358z" fill-rule="evenodd" stroke="#d8aa3f" stroke-width="1.599" fill="#fec74a"/><path id="path597" d="M510.382 215.489l-99.722 38.278 16.696 32.048 83.026-70.326z" fill-rule="evenodd" stroke="#d8aa3f" stroke-width="1.599" fill="#fec74a"/><path id="path596" d="M431.215 275.257l51.591-93.666-79.136 73.658 27.545 20.008z" fill-rule="evenodd" stroke="#d8aa3f" stroke-width="1.599" fill="#fec74a"/><path id="path595" d="M381.86 573.24l-13.513-82.602-15.405 82.535 28.918.067z" fill-rule="evenodd" transform="matrix(1.2145 .40191 -.39943 1.207 195.37 -577.79)" stroke="#d8aa3f" stroke-width="1.254" fill="#fec74a"/><path id="path594" d="M423.95 259.003l-17.32-105.871-19.195 106.334 36.515-.463z" fill-rule="evenodd" stroke="#d8aa3f" stroke-width="1.599" fill="#fec74a"/><path id="path604" d="M378.51 569.67l-10.159-79.033-17.918 83.552 28.077-4.519z" fill-rule="evenodd" transform="matrix(1.1791 -.4886 .48383 1.1816 -306.93 -238.21)" stroke="#d8aa3f" stroke-width="1.253" fill="#fec74a"/><path id="path603" d="M407.21 249.288l-77.884-65.762 55.379 94.114 22.504-28.352z" fill-rule="evenodd" stroke="#d8aa3f" stroke-width="1.599" fill="#fec74a"/><path id="path601" d="M301.936 215.962L385.549 285l12.856-36.114-96.47-32.924z" fill-rule="evenodd" stroke="#d8aa3f" stroke-width="1.599" fill="#fec74a"/><path id="path600" d="M384.658 256.275l-98.247-1.38 97.835 32.66.412-31.28z" fill-rule="evenodd" stroke="#d8aa3f" stroke-width="1.599" fill="#fec74a"/><path id="path575" d="M464.426 273.939c0 32.552-26.389 58.941-58.941 58.941s-58.942-26.389-58.942-58.941 26.39-58.942 58.942-58.942 58.941 26.39 58.941 58.942z" fill-rule="evenodd" stroke="#d8aa3f" stroke-width="1.599" fill="#fec74a"/><path id="rect586" fill-rule="evenodd" stroke-width="1pt" fill="#005989" d="M3.215 297.11h806.58v200.33H3.215z"/><path id="path573" d="M53.601 716.23c11.673 5.426 28.396 19.007 46.283 18.995 29.929-.195 30.726-20.588 61.043-19.618 30.396.777 24.898 22.246 65.942 22.139 33.911-.089 44.866-26.023 74.097-22.916 21.648-1.119 30.508 24.558 63.782 24.884 34.511.741 47.183-27.986 68.832-25.608 23.063 0 30.618 23.137 62.974 23.304 41.211.209 48.456-24.081 74.238-22.527 18.35-.389 32.82 17.802 59.711 18.255 21.457.367 39.42-15.925 51.555-21.751l.6-27.646c-12.718 4.75-31.681 20.324-50.644 20.495-27.288 1.003-44.169-17.976-63.132-17.805-22.72.205-31.774 23.485-70.316 23.485-35.211 0-43.29-23.485-66.011-23.485-22.208.171-29.012 25.543-67.459 25.073-31.363-.379-43.583-24.219-65.792-24.048-23.544 0-47.89 23.182-73.96 22.063-35.982-1.527-43.756-22.063-67.3-22.063-17.596 0-36.586 19.244-57.784 19.565-21.082.326-44.766-19.149-46.959-19.565l.3 28.774z" fill-rule="evenodd" transform="matrix(1.2848 0 0 1.2792 -66.112 -474.49)" fill="#fff"/><path id="path578" d="M53.601 716.23c11.673 5.426 28.396 19.007 46.283 18.995 29.929-.195 30.726-20.588 61.043-19.618 30.396.777 24.898 22.246 65.942 22.139 33.911-.089 44.866-26.023 74.097-22.916 21.648-1.119 30.508 24.558 63.782 24.884 34.511.741 47.183-27.986 68.832-25.608 23.063 0 30.618 23.137 62.974 23.304 41.211.209 48.456-24.081 74.238-22.527 18.35-.389 32.82 17.802 59.711 18.255 21.457.367 39.42-15.925 51.555-21.751l.6-27.646c-12.718 4.75-31.681 20.324-50.644 20.495-27.288 1.003-44.169-17.976-63.132-17.805-22.72.205-31.774 23.485-70.316 23.485-35.211 0-43.29-23.485-66.011-23.485-22.208.171-29.012 25.543-67.459 25.073-31.363-.379-43.583-24.219-65.792-24.048-23.544 0-47.89 23.182-73.96 22.063-35.982-1.527-43.756-22.063-67.3-22.063-17.596 0-36.586 19.244-57.784 19.565-21.082.326-44.766-19.149-46.959-19.565l.3 28.774z" fill-rule="evenodd" transform="matrix(1.2848 0 0 1.2792 -66.112 -544.53)" fill="#fff"/><path id="path579" d="M53.601 716.23c11.673 5.426 28.396 19.007 46.283 18.995 29.929-.195 30.726-20.588 61.043-19.618 30.396.777 24.898 22.246 65.942 22.139 33.911-.089 44.866-26.023 74.097-22.916 21.648-1.119 30.508 24.558 63.782 24.884 34.511.741 47.183-27.986 68.832-25.608 23.063 0 30.618 23.137 62.974 23.304 41.211.209 48.456-24.081 74.238-22.527 18.35-.389 32.82 17.802 59.711 18.255 21.457.367 39.42-15.925 51.555-21.751l.6-27.646c-12.718 4.75-31.681 20.324-50.644 20.495-27.288 1.003-44.169-17.976-63.132-17.805-22.72.205-31.774 23.485-70.316 23.485-35.211 0-43.29-23.485-66.011-23.485-22.208.171-29.012 25.543-67.459 25.073-31.363-.379-43.583-24.219-65.792-24.048-23.544 0-47.89 23.182-73.96 22.063-35.982-1.527-43.756-22.063-67.3-22.063-17.596 0-36.586 19.244-57.784 19.565-21.082.326-44.766-19.149-46.959-19.565l.3 28.774z" fill-rule="evenodd" transform="matrix(1.2836 0 0 1.2792 -66.048 -613.81)" fill="#fff"/><path id="path587" d="M293.164 78.674c58.625-4.014 47.94-9.02 71.536-12.786 29.735 4.088 33.135 22.09 49.703 33.135 0 0-6.227 21.055-26.606 18.075-2.74-8.447 9.865-11.058-26.405-33.169-21.087-1.254-58.818 3.701-68.228-5.255z" fill-rule="evenodd" stroke="#d8aa3f" stroke-width="1.706" fill="#ffc84b"/><path id="path591" d="M474.925 111.294l-42.232 1.739v10.434c28.486.911 33.62-2.898 42.232-12.173z" fill-rule="evenodd" stroke="#d8aa3f" stroke-width="1.706" fill="#ffc84b"/><path id="path590" stroke-linejoin="round" d="M329.685 109.516c7.361-3.765 11.022-2.228 17.399-2.477 4.389 7.95 8.53 8.695 18.135 9.69 14.657 20.619 35.277 20.867 38.257 20.867 28.735-.746 37.844-20.868 57.138-23.104h20.371c-3.395-5.796-6.045-9.11-13.415-9.44-15.154-.828-34.778-.414-51.92 3.478l-24.097 5.962c-7.04-3.395-24.263-21.447-35.277-21.116-6.459 1.739-6.459 3.975-9.688 6.459-6.211 2.65-12.423 1.38-16.903 9.681z" fill-rule="evenodd" stroke="#d8aa3f" stroke-width="1.599" fill="#ffc84b"/><path id="path589" d="M358.735 100.737a3.048 3.048 0 11-6.096 0 3.048 3.048 0 016.096 0z" fill-rule="evenodd" stroke="#d8aa3f" stroke-width="1.599" fill="#ffc84b"/><path id="path588" d="M378.385 109.273c43.143-52.003 80.82-45.628 129.928-49.188 1.656 6.046 1.077 15.072-22.358 23.104-32.046 4.72-89.434 38.505-89.682 38.505-10.684-.496-18.137-11.675-17.887-12.421z" fill-rule="evenodd" stroke="#d8aa3f" stroke-width="1.706" fill="#ffc84b"/><path id="path592" d="M467.02 75.387l31.82 1.379" stroke="#d9a43e" stroke-linecap="round" stroke-width="1.706" fill="none"/><path id="path593" d="M463.567 80.58l23.193 1.892" stroke="#d9a43e" stroke-linecap="round" stroke-width="1.706" fill="none"/></g></svg>