<svg id="svg660" xmlns="http://www.w3.org/2000/svg" height="512" width="512" version="1.1"><defs id="defs662"><clipPath id="clipPath4980" clipPathUnits="userSpaceOnUse"><path id="rect4982" fill-opacity=".67" d="M0 0h416.25v416.25H0z"/></clipPath></defs><g id="flag" clip-path="url(#clipPath4980)" fill-rule="evenodd" transform="scale(1.23)"><path id="rect665" stroke-width="1pt" fill="#ff0" d="M0 0h625v104.06H0z"/><path id="rect668" stroke-width="1pt" fill="#fff" d="M0 104.06h625v104.06H0z"/><path id="rect667" stroke-width="1pt" fill="#be0027" d="M0 208.12h625v104.06H0z"/><path id="rect666" stroke-width="1pt" fill="#3b5aa3" d="M0 312.19h625v104.06H0z"/><path id="path664" d="M0 .756v415.49l310.45-207.16L0 .756z" transform="matrix(1 0 0 1.0018 0 -.758)" fill="#239e46"/><path id="path673" d="M127.81 114.98c-69.183-3.51-100.7 51.6-100.63 94.2-.159 50.38 47.582 91.93 91.71 89.43-23.794-11.26-52.85-42.82-53.117-89.64-.244-42.423 23.977-79.31 62.038-93.99z" fill="#fff"/><path id="polygon674" stroke-width="1pt" fill="#fff" d="M126.77 160.21l-9.75-7.63-11.82 3.72 4.24-11.64-7.18-10.09 12.38.43 7.37-9.95 3.41 11.91 11.75 3.94-10.28 6.93z"/><path id="polygon675" transform="translate(-.207 42.327)" stroke-width="1pt" fill="#fff" d="M126.77 160.21l-9.75-7.63-11.82 3.72 4.24-11.64-7.18-10.09 12.38.43 7.37-9.95 3.41 11.91 11.75 3.94-10.28 6.93z"/><path id="polygon676" transform="translate(0 85.069)" stroke-width="1pt" fill="#fff" d="M126.77 160.21l-9.75-7.63-11.82 3.72 4.24-11.64-7.18-10.09 12.38.43 7.37-9.95 3.41 11.91 11.75 3.94-10.28 6.93z"/><path id="polygon677" transform="translate(-.207 128.23)" stroke-width="1pt" fill="#fff" d="M126.77 160.21l-9.75-7.63-11.82 3.72 4.24-11.64-7.18-10.09 12.38.43 7.37-9.95 3.41 11.91 11.75 3.94-10.28 6.93z"/></g></svg>