<svg id="svg378" xmlns="http://www.w3.org/2000/svg" height="512" width="512" version="1" y="0" x="0"><defs id="defs380"><clipPath id="clipPath4933" clipPathUnits="userSpaceOnUse"><path id="rect4935" fill-opacity=".67" d="M151.69-.347h745.12v745.12H151.69z"/></clipPath></defs><g id="flag" fill-rule="evenodd" clip-path="url(#clipPath4933)" transform="translate(-104.23 .239) scale(.68714)"><path id="rect628" transform="translate(-1149.6 -145.85)" fill="#ffe900" d="M1144.3 145.85h1073.5v744.09H1144.3z"/><path id="path623" d="M-2.662-3.57l1.246 536.41L833.914-3.92l-836.57.35z" transform="translate(-3.176 3.57)" fill="#35a100"/><path id="path624" d="M1069.5 744.09l-1.9-557.75-842.62 558.17 844.52-.42z" fill="#c70000"/><path id="path625" d="M-2.124 573.28l.708 167.92 182.28-.24 890.3-596.88-1-146-180.14-1.65-892.18 576.85z" transform="translate(-3.176 3.57)"/><path id="polygon136" transform="matrix(.7814 -.50566 .46724 .7486 153.82 243.69)" fill="#fff" d="M591.04 433.16l-57.27-41.68-57.27 41.67 21.95-67.34-57.33-41.6 70.83.07 21.83-67.38 21.83 67.38 70.83-.05-57.34 41.58z"/><path id="polygon638" transform="matrix(.7814 -.50566 .46724 .7486 -246.76 504.07)" fill="#fff" d="M591.04 433.16l-57.27-41.68-57.27 41.67 21.95-67.34-57.33-41.6 70.83.07 21.83-67.38 21.83 67.38 70.83-.05-57.34 41.58z"/></g></svg>