<svg id="svg378" xmlns="http://www.w3.org/2000/svg" height="512" width="512" version="1" y="0" x="0"><defs id="defs380"><clipPath id="clipPath9232" clipPathUnits="userSpaceOnUse"><path id="rect9234" fill-opacity=".67" d="M92.213 7.828h593.6v485.5h-593.6z"/></clipPath></defs><g id="flag" fill-rule="evenodd" clip-path="url(#clipPath9232)" transform="matrix(.86254 0 0 1.0546 -79.537 -8.255)"><path id="rect149" stroke="#000" stroke-width="1.063" fill="#fff" d="M991.81 492.88H4.18V8.38h987.63z"/><path id="rect148" transform="scale(-1 1)" stroke-width="1pt" fill="#3e5698" d="M-991.81 405.21H-4.18v87.672h-987.63z"/><path id="rect605" transform="scale(-1)" stroke-width="1pt" fill="#c60000" d="M-991.81-384.9H-4.18v268.55h-987.63z"/><path id="rect606" transform="scale(-1 1)" stroke-width="1pt" fill="#3e5698" d="M-991.81 8.374H-4.18v87.672h-987.63z"/><path id="path607" d="M495.86 1148c0 90.46-73.332 163.79-163.79 163.79-90.46 0-163.79-73.332-163.79-163.79 0-90.46 73.332-163.79 163.79-163.79 90.46 0 163.79 73.332 163.79 163.79z" transform="matrix(.83963 0 0 .66512 56.749 -512.91)" fill="#fff"/><path id="polygon136" transform="matrix(1.163 -.00479 -.01266 .93245 -279.04 -74.321)" fill="#c40000" d="M591.04 433.16l-57.27-41.68-57.27 41.67 21.95-67.34-57.33-41.6 70.83.07 21.83-67.38 21.83 67.38 70.83-.05-57.34 41.58z"/></g></svg>