<svg id="svg665" xmlns="http://www.w3.org/2000/svg" height="512" width="512" version="1.1"><defs id="defs667"><clipPath id="clipPath3051" clipPathUnits="userSpaceOnUse"><path id="rect3053" fill-opacity=".67" d="M0 0h512v512H0z"/></clipPath></defs><g id="flag" fill-rule="evenodd" clip-path="url(#clipPath3051)"><path id="rect560" stroke-width="1pt" fill="#fff" d="M0 .084h767.87v511.92H0z"/><path id="rect668" stroke-width="1pt" fill="#006" d="M0 0h232.74v232.75H0z"/><path id="rect669" stroke-width="1pt" fill="#c00" d="M0 464.87h767.89v47.127H0z"/><path id="rect670" stroke-width="1pt" fill="#c00" d="M0 465.43h767.89v46.574H0z"/><path id="rect672" stroke-width="1pt" fill="#c00" d="M0 372.52h767.89v46.21H0z"/><path id="rect673" stroke-width="1pt" fill="#c00" d="M0 279.26h765.96v46.7H0z"/><path id="rect675" stroke-width="1pt" fill="#c00" d="M232.67.055h535.17v46.494H232.67z"/><path id="rect676" stroke-width="1pt" fill="#c00" d="M232.67 186.06h535.17v46.796H232.67z"/><path id="rect677" stroke-width="1pt" fill="#c00" d="M232.67 93.361h535.17v46.494H232.67z"/><path id="path205" d="M166.35 177.47l-50.71-30.98-50.465 31.29 18.769-50.85-50.373-31.394 62.321-.438 19.328-50.691 19.744 50.574 62.321.067-50.115 31.693 19.184 50.732z" stroke-width=".113" fill="#fff"/></g></svg>