<svg id="svg548" xmlns="http://www.w3.org/2000/svg" height="512" width="512" version="1.1"><g id="flag" fill-rule="evenodd" transform="scale(4.26667 6.4)" stroke-width="1pt"><path id="rect551" fill="#00319c" d="M0 0h40v80H0z"/><path id="rect552" fill="#ffde00" d="M40 0h40v80H40z"/><path id="rect553" fill="#de2110" d="M80 0h40v80H80z"/></g><g id="g943" transform="matrix(.56007 0 0 .53518 9.84 -55.998)"><path id="path905" d="M499.522 705.338l35.218 53.174c1.957 2.955 3.913 5.909.96 7.865-2.955 1.957-1.996 9.822-.04 12.776 3.914 5.909 8.824 6.906 11.779 4.95l26.586-17.609c2.955-1.957 3.953-6.867.04-12.776-2.246-2.978-8.824-6.906-11.779-4.95-2.954 1.957-4.91-.997-6.867-3.951L520.2 691.642" fill-rule="evenodd" stroke="#000" stroke-width="1pt" fill="#ff1900"/><path id="path907" d="M513.268 667.746c15.747 18.718 21.229 40.02 12.244 47.579-8.985 7.558-29.035-1.489-44.781-20.207s-21.229-40.02-12.244-47.579c8.985-7.558 29.034 1.489 44.781 20.207z" fill-rule="evenodd" stroke="#000" stroke-width="3.125" fill="#a77b3b"/><path id="path898" d="M356.693 683.703l-31.09 55.687c-1.728 3.095-3.455 6.188-6.549 4.461-3.094-1.728-9.643 2.733-11.37 5.827-3.454 6.188-2.088 11.008 1.006 12.736l27.844 15.545c3.094 1.728 7.915.361 11.37-5.826 1.615-3.362 2.088-11.009-1.007-12.737-3.093-1.727-1.366-4.82.362-7.915l31.09-55.687" fill-rule="evenodd" stroke="#000" stroke-width="1pt" fill="#ff1900"/><path id="path895" d="M457.138 644.887h-28.347c-.937.938-8.998 54.066-17.716 74.409-10.63 24.803-42.465 46.69-42.465 46.69s19.073 6.045 24.748 10.003c1.411-.415 31.835-7.086 35.378-46.063 3.544 38.977-21.205 56.693-21.205 56.693s35.433 10.63 35.433 35.433c0-24.803 35.434-35.433 35.434-35.433s-17.772-17.716-21.315-56.693c7.086 38.977 34.077 45.648 35.488 46.063 5.675-3.958 24.748-10.003 24.748-10.003s-31.835-21.887-42.465-46.69c-8.718-20.343-16.779-73.471-17.716-74.409z" fill-rule="evenodd" stroke="#000" stroke-width="3.125" fill="#a77b3b"/><path id="path728" d="M336.61 467.7l53.15 17.716c17.716 0 35.433-17.697 35.433-35.414.59-39.414-14.174-53.168-17.717-53.168l7.087-7.087-10.63-10.63s3.554-18.382 38.976-17.698c35.421.685 35.433 17.717 35.433 35.433 0 17.717-17.716 17.717-17.716 53.15 0 17.717 17.716 35.433 35.433 35.433l53.15-17.716v177.16h-212.6v-177.18z" fill-rule="evenodd" stroke="#000" stroke-width="3.125" fill="#a77b3b"/><g id="g853" stroke="#000" fill="none"><path id="path732" d="M302.16 292.24l14.645 14.964 14.644-14.964 14.645 14.964 29.29-14.964 14.261 15.809 15.028-15.809 21.605 15.809 22.329-15.809 14.645 14.964 14.645-14.964" transform="matrix(.24195 0 0 .71037 345 267.2)" stroke-width=".603"/><path id="path827" d="M432.28 435.83l-7.086 38.976" stroke-width=".25"/><path id="path828" d="M435.83 435.83v38.976" stroke-width=".25"/><path id="path829" d="M442.91 435.83v38.976" stroke-width=".25"/><path id="path830" d="M450 435.83l3.543 38.976" stroke-width=".25"/><path id="path831" d="M457.09 435.83l3.543 38.976" stroke-width=".25"/></g><g id="g712" stroke="#000" stroke-width="3.125"><path id="path691" d="M318.9 361.42c35.433 17.717 35.433 53.149 35.433 70.866-1.251 16.117 0 354.33 0 354.33s-2.306-20.022-17.717-35.433L318.9 733.467l-17.717-17.717c-12.951-11.774-17.716-35.433-17.716-53.15V414.57s0-17.717 35.433-53.15z" fill-rule="evenodd" transform="matrix(-1 0 0 1 620.08 0)" fill="#a77b3b"/><path id="path692" d="M283.46 574.02c.417 0 17.716-17.717 17.716-17.717l17.717 17.717 17.716-17.717 17.717 17.717" transform="matrix(-1 0 0 1 620.08 -141.73)" fill="none"/><path id="path693" d="M283.46 574.02c.417 0 17.716-17.717 17.716-17.717l17.717 17.717 17.716-17.717 17.717 17.717" transform="rotate(180 310.04 512)" fill="none"/><path id="path694" d="M283.46 574.02c.417 0 17.716-17.717 17.716-17.717l17.717 17.717 17.716-17.717 17.717 17.717" transform="matrix(-1 0 0 1 620.08 -70.866)" fill="none"/><path id="path695" d="M301.39 556.99l-.208 158.76" transform="matrix(-1 0 0 1.8971 620.08 -642.07)" fill="none"/><path id="path696" d="M301.39 539.27l-.208 176.48" transform="matrix(-1 0 0 1.7027 602.57 -485.94)" fill="none"/><path id="path697" d="M301.39 539.27l-.208 176.48" transform="matrix(-1 0 0 1.9074 584.85 -614.03)" fill="none"/></g><g id="g720" stroke="#000" stroke-width="3.125"><path id="path675" d="M318.9 361.42c35.433 17.717 35.433 53.149 35.433 70.866-1.251 16.117 0 354.33 0 354.33s-2.306-20.022-17.717-35.433L318.9 733.467l-17.717-17.717c-12.951-11.774-17.716-35.433-17.716-53.15V414.57s0-17.717 35.433-53.15z" fill-rule="evenodd" transform="translate(265.75)" fill="#a77b3b"/><path id="path676" d="M283.46 574.02c.417 0 17.716-17.717 17.716-17.717l17.717 17.717 17.716-17.717 17.717 17.717" transform="translate(265.75 -141.73)" fill="none"/><path id="path677" d="M283.46 574.02c.417 0 17.716-17.717 17.716-17.717l17.717 17.717 17.716-17.717 17.717 17.717" transform="matrix(1 0 0 -1 265.75 1024)" fill="none"/><path id="path678" d="M283.46 574.02c.417 0 17.716-17.717 17.716-17.717l17.717 17.717 17.716-17.717 17.717 17.717" transform="translate(265.75 -70.866)" fill="none"/><path id="path679" d="M301.39 556.99l-.208 158.76" transform="matrix(1 0 0 1.8971 265.75 -642.07)" fill="none"/><path id="path680" d="M301.39 539.27l-.208 176.48" transform="matrix(1 0 0 1.7027 283.26 -485.94)" fill="none"/><path id="path681" d="M301.39 539.27l-.208 176.48" transform="matrix(1 0 0 1.9074 300.97 -614.03)" fill="none"/></g><path id="path903" d="M396.394 678.682c-9.408 22.58-25.821 37.223-36.66 32.707-10.838-4.515-11.998-26.481-2.59-49.06s25.821-37.224 36.66-32.708c10.837 4.516 11.997 26.482 2.59 49.061z" fill-rule="evenodd" stroke="#000" stroke-width="3.125" fill="#a77b3b"/><g id="g860"><path id="rect741" fill-rule="evenodd" stroke-width="1pt" fill="red" d="M336.61 485.43h212.6v106.3h-212.6z"/><path id="path742" d="M336.61 591.73h212.6v53.15c0 35.433-53.15 35.433-106.3 70.866-53.15-35.433-106.3-35.433-106.3-70.866v-53.15z" fill-rule="evenodd" stroke-width="2.5" fill="#564dff"/><path id="path740" d="M336.612 485.43h212.6v159.45c0 35.433-53.15 35.433-106.3 70.866-53.15-35.433-106.3-35.433-106.3-70.866V485.43z" stroke="#ff0" stroke-width="2.5" fill="none"/><path id="path744" d="M385.59 129.9s-50.618 55.447-50.618 108.6c0 53.149 53.149 70.866 53.149 70.866s-17.717 0-17.717 70.866c0 35.433 53.15 17.717 53.15 35.433 0 17.717-.751 60.578 0 88.583 0 17.716-35.433 0-35.433 17.716 0 8.859 26.575 53.15 53.15 53.15 26.574 0 53.149-44.291 53.149-53.15 0-17.716-35.433 0-35.433-17.716v-88.583c0-17.716 53.15 0 53.15-35.433 0-70.866-17.717-70.866-17.717-70.866s53.15-17.717 53.15-70.866-50.619-108.6-50.619-108.6c0-.001 28.473 73.163 28.473 108.6 0 17.717-13.287 53.149-48.72 53.149 0 0-8.961-17.716-17.717 0 0 0-10.189-17.716-17.716 0-2.598 6.115-7.207-17.716-17.717 0-4.465 4.697-7.984-17.716-17.717 0-17.716 0-53.148-17.716-53.149-53.149 0-35.433 32.902-108.6 32.902-108.6z" fill-rule="evenodd" transform="matrix(.7 0 0 .46956 134.02 431.52)" stroke="#000" stroke-width="3.011" fill="#ff0"/><path id="path746" d="M382.68 248.03c-3.543 3.543 4.581 61.274 7.087 63.779 3.543 3.543 24.803 3.543 28.346 0 2.525-2.525 0-56.693-3.543-60.236-3.543-3.544-29.384-6.049-31.89-3.543z" fill-rule="evenodd" transform="matrix(.7 0 0 .46956 136.69 524.92)" stroke="#000" stroke-width="3.011" fill="#ff0"/><path id="path747" d="M382.68 248.03c-3.543 3.543 4.581 61.274 7.087 63.779 3.543 3.543 24.803 3.543 28.346 0 2.525-2.525 0-56.693-3.543-60.236-3.543-3.544-29.384-6.049-31.89-3.543z" fill-rule="evenodd" transform="matrix(-.7 0 0 .46956 749.14 524.92)" stroke="#000" stroke-width="3.011" fill="#ff0"/><path id="path748" d="M414.57 228.54c0 8.806-7.139 15.945-15.945 15.945-8.806 0-15.945-7.139-15.945-15.945 0-8.806 7.139-15.945 15.945-15.945 8.806 0 15.945 7.139 15.945 15.945z" fill-rule="evenodd" transform="matrix(.80459 0 0 .58536 96.528 497.79)" stroke="#000" stroke-width="3.011" fill="#ff0"/><path id="path749" d="M414.57 228.54c0 8.806-7.139 15.945-15.945 15.945-8.806 0-15.945-7.139-15.945-15.945 0-8.806 7.139-15.945 15.945-15.945 8.806 0 15.945 7.139 15.945 15.945z" fill-rule="evenodd" transform="matrix(.8046 0 0 .58537 147.84 497.79)" stroke="#000" stroke-width="3.011" fill="#ff0"/><path id="path750" d="M414.57 228.54c0 8.806-7.139 15.945-15.945 15.945-8.806 0-15.945-7.139-15.945-15.945 0-8.806 7.139-15.945 15.945-15.945 8.806 0 15.945 7.139 15.945 15.945z" fill-rule="evenodd" transform="matrix(.38889 0 0 .26087 304.02 626.15)" stroke-width="1pt"/><path id="path751" d="M414.57 228.54c0 8.806-7.139 15.945-15.945 15.945-8.806 0-15.945-7.139-15.945-15.945 0-8.806 7.139-15.945 15.945-15.945 8.806 0 15.945 7.139 15.945 15.945z" fill-rule="evenodd" transform="matrix(.38889 0 0 .26087 271.77 626.15)" stroke-width="1pt"/><path id="polygon785" fill-rule="evenodd" stroke="#000" stroke-width="1.301" fill="#ff0" d="M442.914 552.755l-7.59-10.01-12.459 1.708 1.717-12.449-10.01-7.59 10.01-7.6-1.717-12.449 12.459 1.717 7.59-10.02 7.59 10.02 12.459-1.717-1.718 12.449 10.01 7.6-10.01 7.59 1.718 12.449-12.459-1.707z"/><path id="path786" d="M496.06 591.73l21.26 10.63 21.26-10.63-21.26-10.63-21.26 10.63z" fill-rule="evenodd" stroke="#000" stroke-width="1pt" fill="#ff0"/><path id="path788" d="M343.7 591.73l21.26 10.63 21.26-10.63-21.26-10.63-21.26 10.63z" fill-rule="evenodd" stroke="#000" stroke-width="1pt" fill="#ff0"/><path id="path790" d="M529.04 655.172c-6.602-4.38-17.585-2.16-23.73 1.369-6.146 3.53-12.291 7.059-13.142 19.806-7.058-12.29-1.48-23.666 7.848-29.024 9.328-5.357 23.666-1.48 29.023 7.849z" fill-rule="evenodd" stroke="#000" stroke-width="1pt" fill="#ff0"/><path id="path792" d="M382.677 634.253a7.087 7.087 0 11-14.173 0 7.087 7.087 0 0114.173 0z" fill-rule="evenodd" stroke="#000" stroke-width="1pt" fill="#ff0"/><path id="path793" d="M375.59 659.056a7.087 7.087 0 11-14.173 0 7.087 7.087 0 0114.173 0z" fill-rule="evenodd" stroke="#000" stroke-width="1pt" fill="#ff0"/><path id="path795" d="M372.047 644.883a7.087 7.087 0 11-14.173 0 7.087 7.087 0 0114.173 0z" fill-rule="evenodd" stroke="#000" stroke-width="1pt" fill="#ff0"/><path id="path796" d="M389.764 659.056a7.087 7.087 0 11-14.174 0 7.087 7.087 0 0114.174 0z" fill-rule="evenodd" stroke="#000" stroke-width="1pt" fill="#ff0"/><path id="path797" d="M393.307 644.883a7.087 7.087 0 11-14.173 0 7.087 7.087 0 0114.173 0z" fill-rule="evenodd" stroke="#000" stroke-width="1pt" fill="#ff0"/><path id="path791" d="M382.677 648.427a7.087 7.087 0 11-14.173 0 7.087 7.087 0 0114.173 0z" fill-rule="evenodd" stroke="#000" stroke-width="1pt" fill="#ff0"/></g><g id="g881" fill-rule="evenodd"><path id="path822" d="M389.76 386.22c-15.647 0-17.716 1.772-24.803 3.544 0-4.89 17.424-10.63 33.071-10.63 0 3.543-4.134 7.087-8.268 7.086z" transform="matrix(1.1429 0 0 1.6667 -36.784 -242.13)" stroke-width="1pt" fill="#da4500"/><path id="path823" d="M428.74 386.22a7.087 7.087 0 11-14.173 0 7.087 7.087 0 0114.173 0z" transform="translate(7.087 -3.543)" fill="#cac9c7"/><path id="path825" d="M361.42 357.87v10.63h17.717v53.15h10.63V368.5h17.716v-10.63h-17.716v-14.173h-10.63v14.173H361.42z" stroke="#000" stroke-width="1pt" fill="#ff0"/><path id="path821" d="M396.85 387.11c-15.647 0-24.803.885-31.89 2.657 0-4.89 9.156-10.63 24.803-10.63 3.543 0 7.087 5.315 7.087 7.973z" transform="matrix(1.3333 0 0 2.2222 -111.03 -470.46)" stroke-width="1pt" fill="#da4500"/></g><g id="g920" fill-rule="evenodd"><path id="path908" d="M67.323 612.99c-14.173-14.17-16.634-21.36 3.543-10.1l283.75 247.5-3.366 6.968-283.93-244.37z" transform="matrix(.5634 .45036 -.20424 .35982 321.13 327.02)" stroke="#000" stroke-width=".875" fill="#008500"/><path id="path912" d="M106.3 825.59c61.099-21.171 49.646-102.47 42.618-103.04-7.028-.572-33.42 18.668-36.963 36.385-7.086-28.346-23.102-54.578-32.342-51.546-13.861 3.032 2.466 47.491-4.62 54.578-7.087 3.543-39.117-21.736-46.203-18.193-7.087 3.544 18.48 100.06 77.51 81.813z" transform="matrix(.13171 -.18019 .3274 .2393 23.692 542.15)" fill="#008f00"/><path id="path913" d="M106.3 825.59c61.099-21.171 49.646-102.47 42.618-103.04-7.028-.572-33.42 18.668-36.963 36.385-7.086-28.346-23.102-54.578-32.342-51.546-13.861 3.032 2.466 47.491-4.62 54.578-7.087 3.543-39.117-21.736-46.203-18.193-7.087 3.544 18.48 100.06 77.51 81.813z" transform="matrix(.13171 -.18019 .3274 .2393 -4.41 495.32)" fill="#008f00"/><path id="path914" d="M106.3 825.59c61.099-21.171 49.646-102.47 42.618-103.04-7.028-.572-33.42 18.668-36.963 36.385-7.086-28.346-23.102-54.578-32.342-51.546-13.861 3.032 2.466 47.491-4.62 54.578-7.087 3.543-39.117-21.736-46.203-18.193-7.087 3.544 18.48 100.06 77.51 81.813z" transform="matrix(.13171 -.18019 .3274 .2393 -25.914 452.8)" fill="#008f00"/><path id="path915" d="M106.3 825.59c61.099-21.171 49.646-102.47 42.618-103.04-7.028-.572-33.42 18.668-36.963 36.385-7.086-28.346-23.102-54.578-32.342-51.546-13.861 3.032 2.466 47.491-4.62 54.578-7.087 3.543-39.117-21.736-46.203-18.193-7.087 3.544 18.48 100.06 77.51 81.813z" transform="matrix(.13171 -.18019 .3274 .2393 -47.174 406.73)" fill="#008f00"/><path id="path916" d="M106.3 825.59c61.099-21.171 49.646-102.47 42.618-103.04-7.028-.572-33.42 18.668-36.963 36.385-7.086-28.346-23.102-54.578-32.342-51.546-13.861 3.032 2.466 47.491-4.62 54.578-7.087 3.543-39.117-21.736-46.203-18.193-7.087 3.544 18.48 100.06 77.51 81.813z" transform="matrix(.2232 -.00074 .00134 .40553 219.6 248.33)" fill="#008f00"/><path id="path917" d="M106.3 825.59c61.099-21.171 49.646-102.47 42.618-103.04-7.028-.572-33.42 18.668-36.963 36.385-7.086-28.346-23.102-54.578-32.342-51.546-13.861 3.032 2.466 47.491-4.62 54.578-7.087 3.543-39.117-21.736-46.203-18.193-7.087 3.544 18.48 100.06 77.51 81.813z" transform="matrix(.21063 .07382 -.13413 .38271 352.49 299.69)" fill="#008f00"/><path id="path918" d="M106.3 825.59c61.099-21.171 49.646-102.47 42.618-103.04-7.028-.572-33.42 18.668-36.963 36.385-7.086-28.346-23.102-54.578-32.342-51.546-13.861 3.032 2.466 47.491-4.62 54.578-7.087 3.543-39.117-21.736-46.203-18.193-7.087 3.544 18.48 100.06 77.51 81.813z" transform="matrix(.22236 .01926 -.035 .40402 292.95 329.27)" fill="#008f00"/><path id="path919" d="M106.3 825.59c61.099-21.171 49.646-102.47 42.618-103.04-7.028-.572-33.42 18.668-36.963 36.385-7.086-28.346-23.102-54.578-32.342-51.546-13.861 3.032 2.466 47.491-4.62 54.578-7.087 3.543-39.117-21.736-46.203-18.193-7.087 3.544 18.48 100.06 77.51 81.813z" transform="matrix(.21927 .04166 -.0757 .39841 352.36 385.54)" fill="#008f00"/></g><path id="path899" d="M346.182 775.23c-3.816 6.835-15.913 7.348-27.018 1.148-11.106-6.2-17.016-16.768-13.2-23.602 3.816-6.835 15.912-7.348 27.018-1.148 11.106 6.201 17.016 16.768 13.2 23.602z" fill-rule="evenodd" stroke="#000" stroke-width="1pt" fill="#ff1900"/><g id="g935" stroke="#000" fill-rule="evenodd" fill="#ff0" transform="matrix(.72399 .2386 -.265 .71579 631.68 213.1)"><path id="path934" d="M155.91 414.57v-7.087h7.086v-7.086h7.087v7.086h7.086v7.087h-7.086v17.716h-7.087V414.57h-7.086z" stroke-width=".625"/><path id="rect930" stroke-width=".63" d="M162.99 474.8h7.087v205.51h-7.087z"/><path id="rect931" stroke-width=".625" d="M159.45 676.77h14.173v56.693H159.45z"/><path id="path932" d="M155.91 439.37h21.259c14.174 0-3.543 38.976-3.543 38.976h-14.173s-17.717-38.976-3.543-38.976z" stroke-width=".625"/><path id="path933" d="M173.62 434.06c0 2.935-3.173 5.315-7.087 5.315s-7.086-2.38-7.086-5.315 3.173-5.315 7.086-5.315 7.087 2.38 7.087 5.315z" stroke-width=".625"/></g><path id="path906" d="M576.027 756.67c4.323 6.525-.771 17.51-11.375 24.533-10.605 7.023-22.706 7.427-27.028.9-4.322-6.526.771-17.51 11.376-24.533 10.605-7.024 22.705-7.427 27.027-.9z" fill-rule="evenodd" stroke="#000" stroke-width="1pt" fill="#ff1900"/></g></svg>