<svg id="svg704" xmlns="http://www.w3.org/2000/svg" height="512" width="512" version="1.1"><defs id="defs706"><clipPath id="clipPath8093" clipPathUnits="userSpaceOnUse"><path id="rect8095" fill-opacity=".67" d="M0 0h512v512H0z"/></clipPath></defs><g id="flag" fill-rule="evenodd" clip-path="url(#clipPath8093)"><path id="rect707" fill="#ed3d00" d="M-126.62-.364h767.07v512h-767.07z"/><path id="path716" d="M-126.59 200.87l.156 109.9 385.87-54.964-386.03-54.936z" fill="#ffd100"/><path id="path713" d="M-128 512l159.3-.3 228.68-257.41L-128 512z" fill="#ffd100"/><path id="path725" d="M311.72 511.64l-109.9-.103 54.964-253.87 54.936 253.97z" fill="#ffd100"/><path id="path732" d="M641.24-1.46l-159.3.304-228.69 259.45L641.24-1.456z" fill="#ffd100"/><path id="path733" d="M201.52 0l109.9.103-54.97 253.87L201.52.003z" fill="#ffd100"/><path id="path738" d="M640.5 511.64l-159.3-.31-228.69-257.41L640.5 511.64z" fill="#ffd100"/><path id="path740" d="M640.5 200.87l-.16 109.9-385.87-54.97 386.03-54.93z" fill="#ffd100"/><path id="path748" d="M-126.96 0l159.3.302 228.69 257.41L-126.96.002z" fill="#ffd100"/><path id="path741" d="M517.42 231.14a97.275 99.345 0 11-194.55 0 97.275 99.345 0 11194.55 0z" transform="matrix(.92167 0 0 .88098 -130.46 52.184)" fill="#ed3d00"/><path id="path742" d="M517.42 231.14a97.275 99.345 0 11-194.55 0 97.275 99.345 0 11194.55 0z" transform="matrix(.85052 0 0 .8276 -100.57 64.523)" fill="#ffd100"/></g></svg>