<svg xmlns="http://www.w3.org/2000/svg" xmlns:xlink="http://www.w3.org/1999/xlink" width="512" height="512" viewBox="0 0 5.12 5.12" id="svg2" version="1.1"><defs id="defs4"><clipPath clipPathUnits="userSpaceOnUse" id="clipPath3013"><path id="rect3015" stroke="none" d="M1-7.2h16v12H1z"/></clipPath><clipPath clipPathUnits="userSpaceOnUse" id="clipPath3042"><path id="rect3044" stroke="none" d="M2.992-7.2h12v12h-12z"/></clipPath><path id="pt" transform="scale(8.844)" fill="#fff" d="M.162 0h-.324L0-.5z"/><g id="star"><use xlink:href="#pt" transform="rotate(-144)" id="use8" x="0" y="0" width="18" height="12"/><use xlink:href="#pt" transform="rotate(-72)" id="use10" x="0" y="0" width="18" height="12"/><use xlink:href="#pt" id="use12" x="0" y="0" width="18" height="12"/><use xlink:href="#pt" transform="rotate(72)" id="use14" x="0" y="0" width="18" height="12"/><use xlink:href="#pt" transform="rotate(144)" id="use16" x="0" y="0" width="18" height="12"/></g></defs><g id="flag" transform="translate(-1.277 3.072) scale(.42667)" clip-path="url(#clipPath3042)"><path id="rect18" fill="#fecb00" d="M0-7.2h18v6H0z"/><path id="rect20" fill="#ea2839" d="M0-1.2h18v6H0z"/><path id="rect22" fill="#34b233" d="M0-3.2h18v4H0z"/><use transform="translate(0 -7.2)" height="12" width="18" id="use24" y="6.422" x="9" xlink:href="#star"/></g></svg>