<svg id="svg378" xmlns="http://www.w3.org/2000/svg" height="512" width="512" version="1.1"><g id="flag" fill-rule="evenodd" transform="matrix(.50106 0 0 1 0 15.937)" stroke-width="1pt"><path id="rect171" fill="#d61517" d="M0-15.937h1021.8v512H0z"/><path id="rect403" fill="#018edf" d="M340.61-15.937h340.61v512H340.61z"/></g><g id="g6961" fill-rule="evenodd" fill-opacity=".867" fill="gold" transform="translate(-17.756 118.89) scale(.5822)"><path id="path226" d="M173.29 121.21c12.727.368 14.685-4.047 14.685-8.463V97.662c0-1.839 4.895-3.678 4.895-6.99 0-3.312-2.448-6.99-3.426-9.198-1.469 5.519-3.916 11.038-8.323 12.878-1.958-4.415-2.447-5.887-1.468-8.095.979-2.207 0-5.519-1.958-8.83-1.469 6.99-5.874 8.83-6.364 11.037-.49 2.208-1.958 8.463-4.895 5.151-2.937-3.311-4.895-7.358-6.364-11.773-2.938 8.83-1.469 10.67-.49 12.141.98 1.472 1.959 5.887 1.959 7.726 0 1.84-1.958 9.198-.98 11.406.98 2.207 1.469 8.83 12.728 8.094z" stroke-width="1pt"/><path id="path227" d="M221.01 236.08c0 21.656-17.556 39.212-39.212 39.212s-39.212-17.556-39.212-39.212 17.556-39.212 39.212-39.212 39.212 17.556 39.212 39.212z" transform="matrix(.81858 0 0 .61524 27.799 7.811)" stroke-width="1pt"/><path id="path232" d="M221.39 162.59c-16.946 23.674-49.582 30.254-73.781 14.383-6.379-4.182-11.044-8.865-15.482-14.863 4.002 17.019 16.134 29.067 32.922 33.368 24.711 6.33 49.952-8.405 56.341-32.889z" stroke-width="1pt"/><path id="rect233" stroke-width="1pt" d="M127.5 349.12h95.502v19.868H127.5z"/><path id="path235" d="M132.17 208.71l42.589 25.843 43.078-25.843H132.17z" stroke-width="1pt"/><path id="rect249" stroke-width="1pt" d="M132.17 236.69h86.157v19.868H132.17z"/><path id="path250" d="M132.17 381.72l42.589 20.235 43.078-20.235H132.17z" stroke-width="1pt"/><path id="rect251" stroke-width="1pt" d="M67.72 209h41.573v192.1H67.72z"/><path id="rect612" stroke-width="1pt" d="M238.74 209h41.573v192.1H238.74z"/><path id="path633" d="M145.83 276.48c12.711-9.408 31.701-16.454 38.53-8.83 6.864 7.889 8.495 14.936 6.991 21.276-2.031 5.501-11.157 12.073-17.9 8.585-7.75-3.656-20.112 9.018-21.533 16.016-1.852 7.466-2.034 16.343.098 24.578-20.302-23.67-21.683-51.057-6.185-61.625zm34.52 11.697c-3.502 2.06-8.596-.034-11.371-4.67-2.776-4.638-.645-6.364 2.855-8.423 3.503-2.058 7.057-3.674 9.832.963 2.775 4.637 2.185 10.072-1.316 12.13zm19.612 42.045c-12.552 9.64-33.231 13.361-40.128 5.819-6.936-7.807-1.193-17.662.228-24.047 1.956-5.552 10.993-10.413 17.756-7.02 7.765 3.546 20.235-10.365 18.76-19.28 1.756-7.519-.652-8.798-4.312-19.83 20.519 23.43 23.01 53.51 7.697 64.358zm-27.972-14.84c3.464-2.12 7.631-1.036 10.453 3.573 2.822 4.61 2.63 8.231-.834 10.353-3.465 2.12-8.896 1.94-11.717-2.668-2.822-4.61-1.366-9.137 2.098-11.258z" stroke-width=".625"/></g></svg>