<svg id="svg378" xmlns="http://www.w3.org/2000/svg" height="512" width="512" version="1" y="0" x="0"><defs id="defs380"><clipPath id="clipPath6009" clipPathUnits="userSpaceOnUse"><path id="rect6011" fill-opacity=".67" d="M179.71 0h708.66v708.66H179.71z"/></clipPath></defs><g id="flag" fill-rule="evenodd" clip-path="url(#clipPath6009)" transform="translate(-129.84) scale(.72249)" stroke-width="1pt"><path id="rect171" fill="#f41408" d="M0 0h1063v708.66H0z"/><path id="rect256" fill="#21873b" d="M0 472.44h1063v236.22H0z"/><path id="rect255" d="M0 0h1063v236.22H0z"/><path id="path386" d="M259.71 214.67C321.14 65.07 492.42-6.49 642.02 54.94c75.34 30.936 128.71 84.28 159.68 159.62l-541.99.112z" transform="translate(270.88 106.14) scale(.50262)" fill="#f31509"/><path id="path353" d="M537.98 92.591c-5.966-31.997-7.592-67.247-7.05-73.212.542-5.965 3.796-7.05 6.507-7.05 2.712 0 6.508 2.711 6.508 7.05 0 8.135.001 41.216-5.965 73.213z" transform="rotate(-75.183 536.912 270.212)" fill="#f31509"/><path id="path354" d="M537.98 92.591c-5.966-31.997-7.592-67.247-7.05-73.212.542-5.965 3.796-7.05 6.507-7.05 2.712 0 6.508 2.711 6.508 7.05 0 8.135.001 41.216-5.965 73.213z" transform="rotate(.256 530.841 92.565)" fill="#f31509"/><path id="path355" d="M537.98 92.591c-5.966-31.997-7.592-67.247-7.05-73.212.542-5.965 3.796-7.05 6.507-7.05 2.712 0 6.508 2.711 6.508 7.05 0 8.135.001 41.216-5.965 73.213z" transform="rotate(5.168 537.387 269.93)" fill="#f31509"/><path id="path356" d="M537.98 92.591c-5.966-31.997-7.592-67.247-7.05-73.212.542-5.965 3.796-7.05 6.507-7.05 2.712 0 6.508 2.711 6.508 7.05 0 8.135.001 41.216-5.965 73.213z" transform="rotate(9.888 537.379 269.928)" fill="#f31509"/><path id="path357" d="M537.98 92.591c-5.966-31.997-7.592-67.247-7.05-73.212.542-5.965 3.796-7.05 6.507-7.05 2.712 0 6.508 2.711 6.508 7.05 0 8.135.001 41.216-5.965 73.213z" transform="rotate(14.935 537.38 269.933)" fill="#f31509"/><path id="path358" d="M537.98 92.591c-5.966-31.997-7.592-67.247-7.05-73.212.542-5.965 3.796-7.05 6.507-7.05 2.712 0 6.508 2.711 6.508 7.05 0 8.135.001 41.216-5.965 73.213z" transform="rotate(20.028 537.384 269.918)" fill="#f31509"/><path id="path359" d="M537.98 92.591c-5.966-31.997-7.592-67.247-7.05-73.212.542-5.965 3.796-7.05 6.507-7.05 2.712 0 6.508 2.711 6.508 7.05 0 8.135.001 41.216-5.965 73.213z" transform="rotate(24.933 537.388 269.927)" fill="#f31509"/><path id="path360" d="M537.98 92.591c-5.966-31.997-7.592-67.247-7.05-73.212.542-5.965 3.796-7.05 6.507-7.05 2.712 0 6.508 2.711 6.508 7.05 0 8.135.001 41.216-5.965 73.213z" transform="rotate(29.956 537.379 269.925)" fill="#f31509"/><path id="path361" d="M537.98 92.591c-5.966-31.997-7.592-67.247-7.05-73.212.542-5.965 3.796-7.05 6.507-7.05 2.712 0 6.508 2.711 6.508 7.05 0 8.135.001 41.216-5.965 73.213z" transform="rotate(34.955 537.38 269.935)" fill="#f31509"/><path id="path362" d="M537.98 92.591c-5.966-31.997-7.592-67.247-7.05-73.212.542-5.965 3.796-7.05 6.507-7.05 2.712 0 6.508 2.711 6.508 7.05 0 8.135.001 41.216-5.965 73.213z" transform="rotate(39.963 537.386 269.923)" fill="#f31509"/><path id="path363" d="M537.98 92.591c-5.966-31.997-7.592-67.247-7.05-73.212.542-5.965 3.796-7.05 6.507-7.05 2.712 0 6.508 2.711 6.508 7.05 0 8.135.001 41.216-5.965 73.213z" transform="rotate(44.981 537.394 269.931)" fill="#f31509"/><path id="path364" d="M537.98 92.591c-5.966-31.997-7.592-67.247-7.05-73.212.542-5.965 3.796-7.05 6.507-7.05 2.712 0 6.508 2.711 6.508 7.05 0 8.135.001 41.216-5.965 73.213z" transform="rotate(50.014 537.383 269.929)" fill="#f31509"/><path id="path365" d="M537.98 92.591c-5.966-31.997-7.592-67.247-7.05-73.212.542-5.965 3.796-7.05 6.507-7.05 2.712 0 6.508 2.711 6.508 7.05 0 8.135.001 41.216-5.965 73.213z" transform="rotate(54.816 537.381 269.932)" fill="#f31509"/><path id="path366" d="M537.98 92.591c-5.966-31.997-7.592-67.247-7.05-73.212.542-5.965 3.796-7.05 6.507-7.05 2.712 0 6.508 2.711 6.508 7.05 0 8.135.001 41.216-5.965 73.213z" transform="rotate(59.724 537.385 269.928)" fill="#f31509"/><path id="path367" d="M537.98 92.591c-5.966-31.997-7.592-67.247-7.05-73.212.542-5.965 3.796-7.05 6.507-7.05 2.712 0 6.508 2.711 6.508 7.05 0 8.135.001 41.216-5.965 73.213z" transform="rotate(65.037 537.382 269.93)" fill="#f31509"/><path id="path368" d="M537.98 92.591c-5.966-31.997-7.592-67.247-7.05-73.212.542-5.965 3.796-7.05 6.507-7.05 2.712 0 6.508 2.711 6.508 7.05 0 8.135.001 41.216-5.965 73.213z" transform="rotate(69.957 537.381 269.927)" fill="#f31509"/><path id="path369" d="M537.98 92.591c-5.966-31.997-7.592-67.247-7.05-73.212.542-5.965 3.796-7.05 6.507-7.05 2.712 0 6.508 2.711 6.508 7.05 0 8.135.001 41.216-5.965 73.213z" transform="rotate(75.012 537.386 269.93)" fill="#f31509"/><path id="path370" d="M537.98 92.591c-5.966-31.997-7.592-67.247-7.05-73.212.542-5.965 3.796-7.05 6.507-7.05 2.712 0 6.508 2.711 6.508 7.05 0 8.135.001 41.216-5.965 73.213z" transform="rotate(-5.055 537.374 269.946)" fill="#f31509"/><path id="path371" d="M537.98 92.591c-5.966-31.997-7.592-67.247-7.05-73.212.542-5.965 3.796-7.05 6.507-7.05 2.712 0 6.508 2.711 6.508 7.05 0 8.135.001 41.216-5.965 73.213z" transform="rotate(-10.062 537.374 269.926)" fill="#f31509"/><path id="path372" d="M537.98 92.591c-5.966-31.997-7.592-67.247-7.05-73.212.542-5.965 3.796-7.05 6.507-7.05 2.712 0 6.508 2.711 6.508 7.05 0 8.135.001 41.216-5.965 73.213z" transform="rotate(-15.116 537.39 269.927)" fill="#f31509"/><path id="path373" d="M537.98 92.591c-5.966-31.997-7.592-67.247-7.05-73.212.542-5.965 3.796-7.05 6.507-7.05 2.712 0 6.508 2.711 6.508 7.05 0 8.135.001 41.216-5.965 73.213z" transform="rotate(-19.987 537.381 269.926)" fill="#f31509"/><path id="path374" d="M537.98 92.591c-5.966-31.997-7.592-67.247-7.05-73.212.542-5.965 3.796-7.05 6.507-7.05 2.712 0 6.508 2.711 6.508 7.05 0 8.135.001 41.216-5.965 73.213z" transform="rotate(-24.901 537.389 269.927)" fill="#f31509"/><path id="path375" d="M537.98 92.591c-5.966-31.997-7.592-67.247-7.05-73.212.542-5.965 3.796-7.05 6.507-7.05 2.712 0 6.508 2.711 6.508 7.05 0 8.135.001 41.216-5.965 73.213z" transform="rotate(-30.069 537.39 269.93)" fill="#f31509"/><path id="path376" d="M537.98 92.591c-5.966-31.997-7.592-67.247-7.05-73.212.542-5.965 3.796-7.05 6.507-7.05 2.712 0 6.508 2.711 6.508 7.05 0 8.135.001 41.216-5.965 73.213z" transform="rotate(-35.02 537.385 269.927)" fill="#f31509"/><path id="path377" d="M537.98 92.591c-5.966-31.997-7.592-67.247-7.05-73.212.542-5.965 3.796-7.05 6.507-7.05 2.712 0 6.508 2.711 6.508 7.05 0 8.135.001 41.216-5.965 73.213z" transform="rotate(-39.916 537.278 269.99)" fill="#f31509"/><path id="path378" d="M537.98 92.591c-5.966-31.997-7.592-67.247-7.05-73.212.542-5.965 3.796-7.05 6.507-7.05 2.712 0 6.508 2.711 6.508 7.05 0 8.135.001 41.216-5.965 73.213z" transform="rotate(-45.031 537.195 270.048)" fill="#f31509"/><path id="path379" d="M537.98 92.591c-5.966-31.997-7.592-67.247-7.05-73.212.542-5.965 3.796-7.05 6.507-7.05 2.712 0 6.508 2.711 6.508 7.05 0 8.135.001 41.216-5.965 73.213z" transform="rotate(-49.839 537.121 270.084)" fill="#f31509"/><path id="path380" d="M537.98 92.591c-5.966-31.997-7.592-67.247-7.05-73.212.542-5.965 3.796-7.05 6.507-7.05 2.712 0 6.508 2.711 6.508 7.05 0 8.135.001 41.216-5.965 73.213z" transform="rotate(-54.939 537.068 270.118)" fill="#f31509"/><path id="path381" d="M537.98 92.591c-5.966-31.997-7.592-67.247-7.05-73.212.542-5.965 3.796-7.05 6.507-7.05 2.712 0 6.508 2.711 6.508 7.05 0 8.135.001 41.216-5.965 73.213z" transform="rotate(-60.117 537.022 270.15)" fill="#f31509"/><path id="path382" d="M537.98 92.591c-5.966-31.997-7.592-67.247-7.05-73.212.542-5.965 3.796-7.05 6.507-7.05 2.712 0 6.508 2.711 6.508 7.05 0 8.135.001 41.216-5.965 73.213z" transform="rotate(-65.117 536.975 270.172)" fill="#f31509"/><path id="path383" d="M537.98 92.591c-5.966-31.997-7.592-67.247-7.05-73.212.542-5.965 3.796-7.05 6.507-7.05 2.712 0 6.508 2.711 6.508 7.05 0 8.135.001 41.216-5.965 73.213z" transform="rotate(-69.924 536.947 270.195)" fill="#f31509"/><path id="path384" d="M537.98 92.591c-5.966-31.997-7.592-67.247-7.05-73.212.542-5.965 3.796-7.05 6.507-7.05 2.712 0 6.508 2.711 6.508 7.05 0 8.135.001 41.216-5.965 73.213z" transform="rotate(-75.183 536.912 270.212)" fill="#f31509"/><path id="rect385" d="M275.33 214.74h527.66v19.174H275.33z"/></g></svg>