<svg id="svg378" xmlns="http://www.w3.org/2000/svg" height="512" width="512" version="1" y="0" x="0"><g id="flag" fill-rule="evenodd" stroke-width="1pt" transform="matrix(.50098 0 0 1.0013 0 15.301)"><path id="rect149" fill="#e80008" d="M0-15.281h1022v511.34H0z"/><path id="rect299" fill="#fff" d="M0 21.244h1022v36.525H0z"/><path id="rect300" fill="#fff" d="M0 94.293h1022v36.525H0z"/><path id="rect301" fill="#fff" d="M0 167.34h1022v36.525H0z"/><path id="rect302" fill="#fff" d="M0 240.39h1022v36.525H0z"/><path id="rect303" fill="#fff" d="M0 313.44h1022v36.525H0z"/><path id="rect304" fill="#fff" d="M0 386.49h1022v36.525H0z"/><path id="rect305" fill="#fff" d="M0 459.54h1022v36.525H0z"/></g><g id="g4539" fill-rule="evenodd" stroke-width="1pt" transform="translate(-.962 7.553) scale(.51574)"><path id="rect298" fill="#000689" d="M0-15.937h507.72v292.81H0z"/><g id="g4518" fill="#fe0"><path id="path297" d="M257.76 232.94c-54.627 30.397-122.92 9.857-152.44-45.2-29.517-55.058-9.138-123.89 45.49-153.64 33.777-18.395 70.875-18.76 104.58-.667-19.02-4.578-36.004-4.332-54.459 1.15-53.759 15.97-84.662 73.363-68.979 128.11 15.683 54.746 72.042 86.215 125.8 70.245z"/><path id="polygon291" transform="translate(34.931 -42.019) scale(.84992)" d="M240.04 122.22l67.02 40-22.48-74.738L327.6 152.6l12.18-77.093 10.5 77.343 44.42-64.184-24.09 74.244 67.87-38.56-53.92 56.44 77.88-5.29-73.07 27.46 72.46 29.02-77.74-6.96 52.69 57.58-67.02-40 22.48 74.74-43.02-65.12-12.18 77.09-10.5-77.34-44.42 64.19 24.09-74.25-67.87 38.56 53.92-56.44-77.88 5.29 73.07-27.46-72.46-29.02 77.74 6.96z"/></g></g></svg>