<svg id="svg571" xmlns="http://www.w3.org/2000/svg" height="512" width="512" version="1.1"><g id="flag" fill-rule="evenodd" transform="matrix(.5 0 0 1 130 0)" stroke-width="1pt"><path id="rect609" fill="#fff" d="M51.662 0h400.71v512H51.662z"/><path id="rect608" fill="#198200" d="M-260 0H51.66v512H-260z"/><path id="rect610" fill="#198200" d="M452.37 0H764v512H452.37z"/></g><g id="g9098" stroke-linejoin="round" fill-rule="evenodd" transform="translate(105.35 104.32) scale(.57525)" stroke="#000"><path id="path575" d="M239.22 396.41v71.317l28.824.297s-9.212-62.105-4.16-70.425 9.806-7.132 9.806-7.132 18.72 5.647 20.8 4.755c2.08-.891-.298-7.132 9.806-6.24 3.269-1.189 1.486-6.835 4.458-7.132 2.971-.297 60.322 16.046 72.802.595-3.269-8.618-14.56-.595-17.532-.298-2.674 0-13.966-5.348-20.504 0-5.943-4.456-32.984-7.429-32.984-7.429-3.566-3.566 64.482 1.784 68.345-.89 8.022-8.024-14.857-7.133-18.423-4.458-6.34-3.864-14.29-3.565-19.143-.891-2.328-5.567-24.44-3.17-36.722-4.755-3.932-2.306-3.259-3.617-.595-5.051 25.655 1.09 51.183 4.418 76.963 3.268 6.968-9.083-8.778-12.49-18.423-4.755-5.662-9.311-17.234-.297-24.96-1.188-7.726-.891-4.16-10.4 5.645-8.915 9.806 1.486 27.339-.594 30.608-5.051 3.268-4.457-1.952-8.985-18.127-4.754-5.474-5.35-17.532 0-23.177 1.782-7.512-4.19-24.961-.594-30.904.892-5.818-3.617 30.607-9.51 30.607-9.51 14.06-.248 21.989-2.673 26.446-3.862 21.256-11.393-.305-12.606-11.46-4.326-6.923-5.405-13.5.462-19.74 2.543-6.24 2.08-18.127 3.566-18.127 2.675 0-.892 16.938-11.292 16.938-11.292s20.8-1.486 24.96-2.08c4.161-.595 25.452-11.522-3.565-4.16-10.103.891-16.046.297-19.91.594-22.402-2.316 2.08-4.457 2.08-4.457s31.719-2.916 32.093-4.458c.622-12.367-25.852-6.537-26.15-6.537.077-8.835-24.663.297-24.663 0-4.728-2.786 2.674-5.646 2.674-5.646 6.537-1.584 16.31-2.05 18.866-4.131 0 0 18.464-.179 20.655-5.08-4.528-12.493-39.06 2.217-43.682 4.457-6.24 0 4.16-10.103 4.458-10.4.297-.298 28.527-1.486 41.898-19.613.929-11.033-15.75 6.24-15.75 6.24-1.244-14.309-18.125.892-27.931 2.081-9.805 1.188-10.102-4.458-3.268-5.35 6.834-.89 14.56-.295 18.423-10.696 3.862-10.401 15.452.594 17.532-3.27 2.08-3.862-4.16-7.131-4.16-7.131s8.617-8.915-5.349-8.617c-13.967.297-32.093-1.783-32.093-1.783s14.561-5.647 28.23-5.35c13.669.298 6.24-9.804-6.835-9.804-13.074 0-19.909-4.458-19.909-4.458l22.287-8.32-1.486-6.24s13.075-10.401-5.348-8.024c-18.423 2.378-20.503 2.674-20.503 2.674s-36.847 5.647-37.144 5.647c-.298 0-10.103-2.972-.595-5.35 9.509-2.377 43.087-9.211 48.138-7.428 5.052 1.783-.595-12.48-18.423-14.264-17.829-1.782-28.824 4.458-28.824 4.458s-11.589-4.16-.89-7.727c10.696-3.565 27.634 1.19 27.634 1.19s19.018-5.646 3.269-8.023c-15.749-2.378-20.716 2.128-27.932 2.377-2.88-3.596 24.724-4.456 26.446-7.43-2.912-5.35-20.008 0-30.012 0-4.256-1.805-4.53-4.732.297-6.537 10.203-.396 19.782.203 29.984-.193-.297-5.448.028-11.891-.27-17.34-12.94-2.364-28.123 1.707-35.39 1.362 1.944-5.944 29.903-7.47 33.014-9.086 6.47-8.088-27.338 0-27.635 0-5.897-.872-5.516-4.595-1.783-6.835 8.618-.991 27.936 1.254 26.474-4.589-1.12-5.475-13.4-2.543-18.45-1.354-5.052 1.188-12.48.297-12.48.297-3.235-4.355 29.12-2.584 28.823-5.943-.422-3.858-20.504-1.189-27.339-.892-5.34-3.684 25.652-6.115 26.15-6.537 1.12-9.878-20.8 0-24.96 0-4.161 0-2.08-6.24-2.08-6.24s8.617-3.863 8.32-4.458c-.298-.594-6.538-2.674-7.132-2.674-.594 0 0-6.834 0-6.834s7.132-5.35 6.537-6.835c-.594-1.486-8.32 1.189-8.32 1.189v-5.943s5.646-.595 6.24-3.269c.595-2.674-6.834-2.972-6.834-2.972l-2.972-31.2-2.674 29.12-9.806 1.486s6.834 3.863 8.024 7.726c1.188 3.863-8.321 2.674-8.321 2.674s7.726 6.538 8.32 8.915c.594 2.377-10.697 2.972-10.697 2.972s9.509 6.834 10.103 10.697c.594 3.863 0 5.943 0 5.943s-15.75-13.67-25.853-9.806c-5.25 2.743 12.028 4.012 23.476 13.966-.027 2.217-27.801-6.765-28.824-1.189.644 1.552 29.658 5.717 31.796 9.51-10.6.395-32.52-2.32-31.796 1.187-2.215 4.05 20.703 1.75 30.309 5.052 2.815 3.2 2.521 5.903-2.377 6.24-9.259-4.426-29.963-7.732-30.012-2.08.125 1.509 21.404.53 29.12 5.647-10.3 2.343-45.236-4.769-45.457-1.306.994 1.617 6.53 8.734 16.039 8.437 9.509-.298 31.497 3.863 32.984 6.834 1.485 2.972-28.527-6.24-39.818-.891-11.291 5.35 32.389 2.08 39.52 8.618s-14.262-.595-14.262-.595-29.716-4.16-34.173-2.08c-4.458 2.08-9.51 6.834-9.51 6.834s2.972 5.943 5.944 4.755c2.971-1.189-.892 3.566-.892 3.566s41.602 10.102 50.814 19.017c9.211 8.916-52.893-13.966-52.893-13.966s-24.961 9.212 1.485 9.807c-3.043 4.451 1.486 7.13 1.486 7.13s43.98 9.212 48.436 16.345c4.458 7.132-30.012-6.835-37.739-10.697-7.725-3.864-29.715 2.377-29.418 3.862.298 1.486 10.698 3.566 10.994 6.24.298 2.674-12.777 3.566-12.777 5.943 0 2.378 55.568 13.967 70.425 26.447s-43.682-14.857-43.682-14.857 3.269 4.457 0 5.646c-3.269 1.188-14.857-16.641-33.875-5.646-3.464 4.524 16.59 8.12 21.692 8.617-1.742 4.48-3.268 5.943 3.863 10.4 7.131 4.458-13.967-6.536-13.967-5.943 0 .595 1.487 7.727 1.487 7.727-6.584-5.349-14.534-6.964-21.99-1.487 0 0-.296 5.35 7.429 8.619-4.218 8.619 4.755 5.943 19.018 13.966-21.199-5.541-22.88 4.755-7.726 7.132 15.155 2.377 56.756 3.863 66.562 16.64 9.807 12.778-13.932-4.9-16.64-5.349-.594.297-1.189 6.538-1.189 6.538-6.339-3.67-12.18-6.966-19.764-8.52-.594 1.187-.441 2.874-1.036 4.062-6.88-4.963-12.889-8.432-22.88-8.915l-1.19 4.755s-8.32-10.4-24.664 0c-9.126 6.543 34.47 2.377 41.602 10.103 7.132 7.726 1.485 8.915 1.485 8.915l-17.829-6.538s-21.098-3.863-27.04.891c-5.944 4.755 86.768 16.344 89.442 29.121 1.804 6.93-21.789-7.276-42.195-13.372l-2.378 6.835s-8.103-8.14-17.234-9.51c-.297 0 1.783 8.024 1.783 8.024s-22.88-10.698-34.469-5.052c-11.59 5.646 40.413 8.617 45.167 13.967 4.754 5.349-15.749-3.566-17.532 0-1.784 3.566-27.042-6.537-26.744-1.783.297 4.755 3.566 7.429 3.566 7.429s52.596 5.051 54.38 11.29c1.782 6.241-29.121-3.565-29.121-3.565s-2.972 4.458-.595 6.537c2.377 2.081-17.829-11.886-16.046-2.674-6.553-2.609-23.475-10.697-21.098-4.457 2.377 6.24 47.842 15.155 47.842 15.155s-19.91 1.486-19.018 6.538c-25.612-15.604-24.96-5.647-24.366-5.35.595.298-32.984-8.32-7.726 5.35 25.258 13.668 13.669 11.291 13.967 11.589.297.297 2.674 6.835 2.08 6.835-.595 0-17.234-8.916-22.88-9.51-5.647-.594-32.39 7.429-3.864 19.91 28.527 12.48 46.06-2.972 61.808-1.188 15.75 1.782 23.177 4.456 21.692 9.509-1.486 5.051-16.089-16.554-31.458 2.135-17.483-3.46-29.349-5.467-20.324 7.381-28.552-10.67-45.982 3.26-10.026 8.907 35.333 1.042 57.053-8.618 57.053-8.618s5.943 10.995 14.561 3.269c8.618-7.726 8.915 2.971 9.212 2.971.296 0 8.32-3.566 8.32-3.566h2.08z" stroke-linecap="round" stroke-width="1.29" fill="#198200"/><path id="path580" d="M242.7 354.22v-4.977s-11.223-1.99-16.698-.871c-3.242-1.858-6.305-4.304-10.179-2.24-.747 1.618 7.093 5.848 9.705 5.848 3.06 1.937 17.171 2.489 17.171 2.24z" stroke-linecap="round" stroke-width="1.376" fill="#fff"/><path id="path581" d="M242.57 362.31s-11.224-4.104-15.704.624c.733 5.027 13.215 7.464 15.829 6.095 2.613-1.368 0-6.47-.125-6.719z" stroke-linecap="round" stroke-width="1.376" fill="#fff"/><path id="path582" d="M261.49 364.3v3.485s13.438 2.612 15.803-.25c2.364-2.861-10.701-4.727-15.803-3.235z" stroke-linecap="round" stroke-width="1.376" fill="#fff"/><path id="path583" d="M260.87 350.42l.495 3.931s11.571 2.613 16.051-3.733c4.48-6.345-10.169.05-16.546-.198z" stroke-linecap="round" stroke-width="1.376" fill="#fff"/><path id="path584" d="M261.49 336.93v2.612s8.71 1.37 10.701-2.363c1.991-3.733-10.452 0-10.701-.249z" stroke-linecap="round" stroke-width="1.376" fill="#fff"/><path id="path585" d="M243.29 328.89c-1.34-1.911-6.07-6.646-18.762-8.014-8.82-.03 15.933 12.979 18.762 8.014z" stroke-linecap="round" stroke-width="1.376" fill="#fff"/><path id="path586" d="M261.24 315.65s-.497 3.608-.374 3.608c.125 0 29.864-8.835 36.831-8.212 6.224-1.76 7.467-6.097 7.217-6.097-5.311-3.872-30.982 3.11-43.674 10.7z" stroke-linecap="round" stroke-width="1.376" fill="#fff"/><path id="path587" d="M261.86 305.07c-.125.622-.374 3.485-.374 3.485s21.03-4.107 26.628-8.088c5.6-3.982-26.005 4.728-26.254 4.603z" stroke-linecap="round" stroke-width="1.376" fill="#fff"/><path id="path588" d="M260.99 294.75l.002 3.508s14.036-.428 16.921-3.26c1.841-2.83-12.37-.402-16.923-.248z" stroke-linecap="round" stroke-width="1.376" fill="#fff"/><path id="path589" d="M290.28 324.21s7.291 1.019 8.66-1.096c-.27-3.754-8.66 1.22-8.66 1.096z" stroke-linecap="round" stroke-width="1.376" fill="#fff"/><path id="path590" d="M261.61 281.68c-.125.621.124 7.714.124 7.714s33.72-10.7 35.836-12.692c2.115-1.99 6.809-7.983-35.96 4.978z" stroke-linecap="round" stroke-width="1.376" fill="#fff"/><path id="path591" d="M260.61 270.98v5.6s13.563-.997 19.785-6.098c6.222-5.101-19.785.622-19.785.498z" stroke-linecap="round" stroke-width="1.376" fill="#fff"/><path id="path592" d="M244.31 258.29l.871 5.102s-44.67-14.434-44.546-14.434c.124 0-2.25-7.353 43.674 9.332z" stroke-linecap="round" stroke-width="1.376" fill="#fff"/><path id="path593" d="M245.06 240.37c-.125.497-.125 4.852-.25 4.728-.124-.125-30.982-12.94-32.102-11.82-4.097-9.603 32.352 7.34 32.352 7.092z" stroke-linecap="round" stroke-width="1.376" fill="#fff"/><path id="path594" d="M260.12 248.33c0 .125.497 4.356.497 4.356s18.914-3.982 20.034-5.848c1.12-1.867-20.53 1.617-20.53 1.492z" stroke-linecap="round" stroke-width="1.376" fill="#fff"/><path id="path595" d="M260.56 258.41c.175 1.07.548 4.48.548 4.48s7.59-.622 8.71-2.364c1.12-1.742-9.258-1.991-9.258-2.116z" stroke-linecap="round" stroke-width="1.376" fill="#fff"/><path id="path596" d="M259.37 235.39c0 .374.124 4.23.124 4.23s20.78-4.105 23.02-6.096c2.24-1.991-23.517 1.866-23.143 1.866z" stroke-linecap="round" stroke-width="1.376" fill="#fff"/><path id="path597" d="M259.49 223.94c0 .249-.746 4.23-.249 4.23.498 0 25.26-4.23 29.116-7.713 3.858-3.485-28.494 3.857-28.868 3.483z" stroke-linecap="round" stroke-width="1.376" fill="#fff"/><path id="path598" d="M259.12 203.79v4.356s16.052-3.36 19.039-6.72c2.986-3.36-19.039 2.613-19.039 2.364z" stroke-linecap="round" stroke-width="1.376" fill="#fff"/><path id="path599" d="M256.38 174.42l.374 6.594s21.526-2.986 24.637-6.594c3.11-3.608-25.134 0-25.01 0z" stroke-linecap="round" stroke-width="1.376" fill="#fff"/><path id="path600" d="M246.43 125.02v4.106s-10.204-.498-7.715-2.24c2.488-1.742 7.715-1.493 7.715-1.866z" stroke-linecap="round" stroke-width="1.376" fill="#fff"/><path id="path601" d="M255.89 130.5l.249 5.6s13.19-1.244 14.186-3.36c.995-2.115-14.186-2.24-14.434-2.24z" stroke-linecap="round" stroke-width="1.376" fill="#fff"/><path id="path602" d="M255.14 138.59s.249 3.485.497 3.485 5.226-.374 6.346-1.743-6.346-1.493-6.843-1.742z" stroke-linecap="round" stroke-width="1.376" fill="#fff"/><path id="path603" d="M243.94 154.51c0 .373.373 5.35.124 5.226-.249-.125-28.868-8.337-31.481-8.213-2.612.125-3.36-6.594 31.357 2.987z" stroke-linecap="round" stroke-width="1.376" fill="#fff"/><path id="path604" d="M246.3 163.85c0 .996.622 6.222-.374 5.973-.995-.249-19.41-6.097-17.544-7.84 1.866-1.741 17.918 2.24 17.918 1.867z" stroke-linecap="round" stroke-width="1.376" fill="#fff"/><path id="path605" d="M244.69 203.16l.124 4.728s-32.102-9.705-33.222-11.322c-1.12-1.617-4.23-9.207 33.098 6.594z" stroke-linecap="round" stroke-width="1.376" fill="#fff"/><path id="path606" d="M245.93 214.74c0 .125.25 4.48.125 4.48s-43.674-15.305-43.674-15.305-3.485-11.448 43.55 10.825z" stroke-linecap="round" stroke-width="1.376" fill="#fff"/><path id="path607" d="M194.17 365.77c0 .149-.149 4.765-.149 4.765s-8.488-2.383-11.169-7.147c4.914-1.34 11.466 2.53 11.317 2.382z" stroke-width="1.376" fill="#fff"/></g></svg>