<svg id="svg3473" xmlns="http://www.w3.org/2000/svg" height="512" width="512" version="1.1"><defs id="defs3475"><clipPath id="clipPath8527" clipPathUnits="userSpaceOnUse"><path id="rect8529" fill-opacity=".67" d="M135.64 0H631.7v496.06H135.64z"/></clipPath></defs><g id="flag" fill-rule="evenodd" clip-path="url(#clipPath8527)" transform="translate(-140) scale(1.0321)" stroke-width="1pt"><path id="rect3478" fill="#002170" d="M0 0h992.13v496.06H0z"/><path id="rect3477" fill="#ffb20d" d="M0 226.82h992.13v42.42H0z"/><path id="polygon3483" transform="rotate(-5.373 908.305 1557.988) scale(.85797)" fill="#fff" d="M467.72 433.18l-33.52-40.55-16.72 49.88-8.74-51.88-39.43 34.83 18.37-49.3-51.56 10.46 40.55-33.51-49.88-16.73 51.88-8.74-34.84-39.43 49.3 18.37-10.45-51.56 33.51 40.55 16.73-49.88 8.74 51.88 39.42-34.83-18.36 49.3 51.56-10.46-40.56 33.51 49.88 16.73-51.88 8.74 34.84 39.43-49.3-18.37z"/></g></svg>