<svg id="svg1646" xmlns="http://www.w3.org/2000/svg" height="512" width="512" version="1.1"><defs id="defs1648"><clipPath id="clipPath10940" clipPathUnits="userSpaceOnUse"><path id="rect10942" fill-opacity=".67" d="M0 0h512v512H0z"/></clipPath></defs><g id="flag" fill-rule="evenodd" clip-path="url(#clipPath10940)"><path id="rect555" stroke-width="1pt" fill="#fff" d="M-26.003-24.954h592.45v595.94h-592.45z"/><path id="rect1649" stroke-width="1pt" fill="#db0000" d="M255.34-20.417h312.09v275.22H255.34z"/><path id="rect1650" stroke-width="1pt" fill="#0000ab" d="M-54.446 254.81h309.82v316.17h-309.82z"/><path id="path205" d="M178.98 181.59l-46.477-29.211-46.249 29.498 17.201-47.936-46.164-29.6 57.113-.413 17.715-47.79 18.094 47.68 57.113.063-45.927 29.88 17.581 47.83z" stroke-width=".113" fill="#0000ab"/><path id="path1660" d="M435.24 449.04l-46.477-29.211-46.249 29.498 17.201-47.936-46.164-29.6 57.113-.413 17.715-47.79 18.094 47.68 57.113.063-45.927 29.88 17.581 47.83z" stroke-width=".113" fill="#d80000"/></g></svg>