<svg id="svg378" xmlns="http://www.w3.org/2000/svg" height="512" width="512" version="1" y="0" x="0"><defs id="defs380"><clipPath id="clipPath6532" clipPathUnits="userSpaceOnUse"><path id="rect6534" fill-opacity=".67" d="M192.39 0h708.66v708.66H192.39z"/></clipPath></defs><g id="flag" fill-rule="evenodd" clip-path="url(#clipPath6532)" transform="translate(-139) scale(.72249)"><path id="rect149" stroke-width="1pt" fill="#f50013" d="M0 0h1063v708.66H0z"/><path id="rect280" stroke-width="1pt" fill="#00189a" d="M0 0h1063v354.33H0z"/><path id="path279" d="M0 0l609.96 353.88L0 707.3V0z" stroke-width="1pt" fill="#feffff"/><path id="path205" d="M266.19 534.45l-10.408-7.432-10.357 7.505 3.852-12.196-10.338-7.531 12.79-.105 3.967-12.159 4.052 12.131 12.79.016-10.285 7.602 3.937 12.169z" transform="matrix(.87393 1.9702 -2.0604 .91397 897.48 -367.59)" stroke-width=".113" fill="#eca300"/><path id="path425" d="M212.74 285.32l11.383-41.98-7.826-9.962-9.249 51.229 5.692.713zm-24.192 0l-7.115-57.633 13.518-15.653 13.519 12.807-6.403 59.766-13.519.713zm-10.673.712l-11.383-41.98 7.826-9.962 9.249 51.229-5.692.713z" transform="rotate(-45.387 194.95 353.88)" stroke-width="1pt" fill="#eca300"/><path id="path426" d="M212.74 285.32l11.383-41.98-7.826-9.962-9.249 51.229 5.692.713zm-24.192 0l-7.115-57.633 13.518-15.653 13.519 12.807-6.403 59.766-13.519.713zm-10.673.712l-11.383-41.98 7.826-9.962 9.249 51.229-5.692.713z" transform="translate(.352 -.194)" stroke-width="1pt" fill="#eca300"/><path id="path427" d="M212.74 285.32l11.383-41.98-7.826-9.962-9.249 51.229 5.692.713zm-24.192 0l-7.115-57.633 13.518-15.653 13.519 12.807-6.403 59.766-13.519.713zm-10.673.712l-11.383-41.98 7.826-9.962 9.249 51.229-5.692.713z" transform="rotate(46.117 194.95 353.872)" stroke-width="1pt" fill="#eca300"/><path id="path428" d="M212.74 285.32l11.383-41.98-7.826-9.962-9.249 51.229 5.692.713zm-24.192 0l-7.115-57.633 13.518-15.653 13.519 12.807-6.403 59.766-13.519.713zm-10.673.712l-11.383-41.98 7.826-9.962 9.249 51.229-5.692.713z" transform="rotate(90.087 194.95 353.873)" stroke-width="1pt" fill="#eca300"/><path id="path429" d="M212.74 285.32l11.383-41.98-7.826-9.962-9.249 51.229 5.692.713zm-24.192 0l-7.115-57.633 13.518-15.653 13.519 12.807-6.403 59.766-13.519.713zm-10.673.712l-11.383-41.98 7.826-9.962 9.249 51.229-5.692.713z" transform="rotate(134.361 194.95 353.877)" stroke-width="1pt" fill="#eca300"/><path id="path430" d="M212.74 285.32l11.383-41.98-7.826-9.962-9.249 51.229 5.692.713zm-24.192 0l-7.115-57.633 13.518-15.653 13.519 12.807-6.403 59.766-13.519.713zm-10.673.712l-11.383-41.98 7.826-9.962 9.249 51.229-5.692.713z" transform="rotate(179.663 194.949 353.872)" stroke-width="1pt" fill="#eca300"/><path id="path431" d="M212.74 285.32l11.383-41.98-7.826-9.962-9.249 51.229 5.692.713zm-24.192 0l-7.115-57.633 13.518-15.653 13.519 12.807-6.403 59.766-13.519.713zm-10.673.712l-11.383-41.98 7.826-9.962 9.249 51.229-5.692.713z" transform="rotate(-134.804 194.953 353.877)" stroke-width="1pt" fill="#eca300"/><path id="path432" d="M212.74 285.32l11.383-41.98-7.826-9.962-9.249 51.229 5.692.713zm-24.192 0l-7.115-57.633 13.518-15.653 13.519 12.807-6.403 59.766-13.519.713zm-10.673.712l-11.383-41.98 7.826-9.962 9.249 51.229-5.692.713z" transform="rotate(-90.32 194.953 353.875)" stroke-width="1pt" fill="#eca300"/><path id="path433" d="M266.19 534.45l-10.408-7.432-10.357 7.505 3.852-12.196-10.338-7.531 12.79-.105 3.967-12.159 4.052 12.131 12.79.016-10.285 7.602 3.937 12.169z" transform="matrix(2.0518 .65988 -.69011 2.1458 327.17 -931.59)" stroke-width=".113" fill="#eca300"/><path id="path434" d="M266.19 534.45l-10.408-7.432-10.357 7.505 3.852-12.196-10.338-7.531 12.79-.105 3.967-12.159 4.052 12.131 12.79.016-10.285 7.602 3.937 12.169z" transform="matrix(1.579 1.467 -1.5342 1.6513 444.17 -1137)" stroke-width=".113" fill="#eca300"/><circle id="path418" cx="190.68" cy="353.88" transform="translate(4.269)" stroke-width="1pt" fill="#eca300" r="73.029"/></g></svg>