<svg id="svg378" xmlns="http://www.w3.org/2000/svg" height="512" width="512" version="1.0" y="0" x="0"><defs id="defs380"><clipPath id="clipPath6343" clipPathUnits="userSpaceOnUse"><path id="rect6345" fill-opacity=".67" d="M51.624 0h708.66v708.66H51.624z"/></clipPath></defs><g id="flag" fill-rule="evenodd" clip-path="url(#clipPath6343)" transform="translate(-37.298) scale(.72249)"><path id="rect149" stroke-width="1pt" fill="#ed0000" d="M0 0h1063v708.66H0z"/><path id="rect280" stroke-width="1pt" fill="#fff" d="M0 141.73h1063v141.73H0z"/><path id="rect281" stroke-width="1pt" fill="#fff" d="M0 425.2h1063v141.73H0z"/><path id="path279" d="M0 0l609.96 353.88L0 707.3V0z" stroke-width="1pt" fill="#0050f0"/><path id="path205" d="M266.19 534.45l-10.408-7.432-10.357 7.505 3.852-12.196-10.338-7.531 12.79-.105 3.967-12.159 4.052 12.131 12.79.016-10.285 7.602 3.937 12.169z" transform="matrix(6.3097 0 0 6.5987 -1411.4 -3076.2)" stroke-width=".113" fill="#fff"/></g></svg>