<svg id="svg548" xmlns="http://www.w3.org/2000/svg" height="512" width="512" version="1.1"><defs id="defs550"><clipPath id="clipPath5251" clipPathUnits="userSpaceOnUse"><path id="rect5253" fill-opacity=".67" d="M0 0h496.06v496.06H0z"/></clipPath></defs><g id="flag" fill-rule="evenodd" clip-path="url(#clipPath5251)" transform="scale(1.0321)" stroke-width="1pt"><path id="path1338" d="M0 491.39L956.69 0H0v491.39z" fill="#0000d6"/><path id="path552" d="M992.13 0L26.33 496.06h965.8V0z" fill="#006000"/><path id="path558" d="M119.06 0h-6.38L0 56.43v3.098h6.378l112.68-56.32V0z" transform="scale(8.3333)" fill="#fc0"/><path id="polygon1350" transform="matrix(.52623 0 0 .49524 -211.72 -118.39)" fill="#fff" d="M476.5 433.15l21.95-67.34-57.33-41.6 70.83.07 21.83-67.38 21.83 67.38 70.83-.05-57.34 41.58 21.94 67.35-57.27-41.68z"/><path id="polygon1351" transform="matrix(.52623 0 0 .49524 -26.526 -118.39)" fill="#fff" d="M476.5 433.15l21.95-67.34-57.33-41.6 70.83.07 21.83-67.38 21.83 67.38 70.83-.05-57.34 41.58 21.94 67.35-57.27-41.68z"/><path id="polygon1352" transform="matrix(.52623 0 0 .49524 -26.526 21.596)" fill="#fff" d="M476.5 433.15l21.95-67.34-57.33-41.6 70.83.07 21.83-67.38 21.83 67.38 70.83-.05-57.34 41.58 21.94 67.35-57.27-41.68z"/><path id="polygon1353" transform="matrix(.52623 0 0 .49524 -118.58 -47.579)" fill="#fff" d="M476.5 433.15l21.95-67.34-57.33-41.6 70.83.07 21.83-67.38 21.83 67.38 70.83-.05-57.34 41.58 21.94 67.35-57.27-41.68z"/><path id="polygon1354" transform="matrix(.52623 0 0 .49524 -211.72 21.596)" fill="#fff" d="M476.5 433.15l21.95-67.34-57.33-41.6 70.83.07 21.83-67.38 21.83 67.38 70.83-.05-57.34 41.58 21.94 67.35-57.27-41.68z"/></g></svg>