<svg id="svg378" xmlns="http://www.w3.org/2000/svg" height="512" width="512" version="1" y="0" x="0"><defs id="defs380"><clipPath id="clipPath5047" clipPathUnits="userSpaceOnUse"><path id="rect5049" fill-opacity=".67" d="M27.682 0h708.66v708.66H27.682z"/></clipPath></defs><g id="flag" fill-rule="evenodd" clip-path="url(#clipPath5047)" transform="translate(-20) scale(.72249)"><path id="rect149" stroke-width="1pt" fill="#fff" d="M0 0h1063v708.66H0z"/><path id="rect148" stroke-width="1pt" fill="#df0000" d="M0 0h1063v354.33H0z"/><path id="path141" d="M263.4 473.62c-23.186 5.316-40.414 22.484-45.285 45.826-6.618 31.712 14.039 62.762 45.812 69.39-32.101 9.152-65.273-9.301-74.341-41.106-9.067-31.804 9.386-64.976 41.191-74.044 11.165-3.184 21.444-3.204 32.623-.066z" transform="translate(-312.4 -943.16) scale(2.1168)" stroke-width=".524" fill="#fff"/><path id="polygon142" transform="translate(-255.13 -795.56) scale(1.8341)" stroke-width=".524" fill="#fff" d="M249.27 522.33l-10.33-7.53 12.78-.11 3.97-12.16 4.05 12.13 12.79.02-10.28 7.6 3.94 12.17-10.41-7.43-10.36 7.5z"/><path id="polygon144" transform="translate(-229.2 -718.7) scale(1.8341)" stroke-width=".524" fill="#fff" d="M249.27 522.33l-10.33-7.53 12.78-.11 3.97-12.16 4.05 12.13 12.79.02-10.28 7.6 3.94 12.17-10.41-7.43-10.36 7.5z"/><path id="polygon145" transform="translate(-142.94 -719.27) scale(1.8341)" stroke-width=".524" fill="#fff" d="M249.27 522.33l-10.33-7.53 12.78-.11 3.97-12.16 4.05 12.13 12.79.02-10.28 7.6 3.94 12.17-10.41-7.43-10.36 7.5z"/><path id="polygon146" transform="translate(-117.22 -795.5) scale(1.8341)" stroke-width=".524" fill="#fff" d="M249.27 522.33l-10.33-7.53 12.78-.11 3.97-12.16 4.05 12.13 12.79.02-10.28 7.6 3.94 12.17-10.41-7.43-10.36 7.5z"/><path id="polygon147" transform="translate(-185.51 -846.08) scale(1.8341)" stroke-width=".524" fill="#fff" d="M249.27 522.33l-10.33-7.53 12.78-.11 3.97-12.16 4.05 12.13 12.79.02-10.28 7.6 3.94 12.17-10.41-7.43-10.36 7.5z"/></g></svg>