<svg id="svg552" xmlns="http://www.w3.org/2000/svg" height="512" width="512" version="1.1"><defs id="defs554"><clipPath id="clipPath5006" clipPathUnits="userSpaceOnUse"><path id="rect5008" fill-opacity=".67" d="M60.224 0h497.33v497.33H60.224z"/></clipPath></defs><g id="flag" fill-rule="evenodd" clip-path="url(#clipPath5006)" transform="translate(-62) scale(1.0295)" stroke-width="1pt"><path id="rect555" fill="#fff" d="M0 0h994.66v497.33H0z"/><path id="rect556" fill="#de2918" d="M0 331.55h994.66v165.78H0z"/><path id="rect563" fill="#08399c" d="M0 165.78h994.66v165.78H0z"/><path id="path694" d="M311.66 103.35c-3.351 59.885-5.271 92.702-13.098 107.88-8.463 16.308-16.696 28.248-49.717 42.625-33.022-14.377-41.255-26.317-49.718-42.625-7.827-15.183-9.747-48-13.098-107.88l4.88-1.915c9.824-3.49 17.154-6.298 22.576-7.544 7.765-1.915 14.364-4.08 35.232-4.587 20.868.418 27.5 2.717 35.265 4.632 5.377 1.336 13.021 3.964 22.772 7.522l4.906 1.892z" transform="matrix(1.165 0 0 1 -81.045 -13.036)" fill="#de2918"/><path id="path675" d="M306.85 101.43c-3.17 59.739-5.822 87.096-9.958 100.25-8.026 22.522-20.732 34.87-48.079 46.648-27.346-11.778-40.052-24.126-48.078-46.648-4.136-13.153-6.749-40.432-9.828-100.31 9.617-3.498 17.156-6.232 22.578-7.478 7.765-1.914 14.364-4.169 35.232-4.587 20.868.418 27.545 2.673 35.31 4.587 5.422 1.246 13.117 3.98 22.823 7.538z" transform="matrix(1.165 0 0 1.0003 -81.045 -13.107)" fill="#08399c"/><path id="path651" d="M234.7 95.183l1.134 3.256 4.983.828-3.229 2.361 3.122 2.531-4.541.923-1.382 2.95-1.554-3.038-4.323-.744 2.942-2.586-3.029-2.353 4.785-.89 1.092-3.238z" transform="matrix(1.347 0 0 1.1107 -107.35 .922)" fill="#fc0"/><path id="path627" d="M294.92 187.51l-3.194-2.941-2.308-4.424-4.521-4.569-2.356-4.617-4.521-4.713-2.212-4.616-2.404-2.261-1.587-1.779-4.084 4.172-2.226 4.531-2.774 2.93-3.047-2.773-2.304-4.727-8.553-17.695-8.554 17.695-2.304 4.727-3.047 2.773-2.774-2.93-2.226-4.531-4.084-4.172-1.587 1.779-2.404 2.261-2.212 4.616-4.521 4.713-2.356 4.617-4.521 4.569-2.308 4.424-3.186 3.01c1.654 16.402 10.629 29.253 15.519 35.132 5.457 6.173 16.708 14.432 30.466 19.899 13.797-5.35 25.204-13.726 30.661-19.899 4.89-5.879 13.865-18.73 15.529-35.201z" transform="matrix(1.165 0 0 1 -81.045 -13.036)" fill="#fff"/><path id="path654" d="M234.7 95.183l1.134 3.256 4.983.828-3.229 2.361 3.122 2.531-4.541.923-1.382 2.95-1.554-3.038-4.323-.744 2.942-2.586-3.029-2.353 4.785-.89 1.092-3.238z" transform="matrix(1.347 0 0 1.1107 -91.327 -24.234)" fill="#fc0"/><path id="path655" d="M234.7 95.183l1.134 3.256 4.983.828-3.229 2.361 3.122 2.531-4.541.923-1.382 2.95-1.554-3.038-4.323-.744 2.942-2.586-3.029-2.353 4.785-.89 1.092-3.238z" transform="matrix(1.347 0 0 1.1107 -123.36 -24.289)" fill="#fc0"/><path id="path664" d="M287.78 210.25l-6.227.022-5.746-.498-6.96-3.977-7.845.055-6.794 3.867-5.359.552-5.359-.552-6.794-3.867-7.845-.055-6.96 3.977-5.746.498-6.305-.101-3.045-6.009.113-.138 9.315 1.795 5.746-.498 6.96-3.977 7.845.055 6.794 3.867 5.359.552 5.359-.552 6.794-3.867 7.845-.055 6.96 3.977 5.746.498 9.066-1.852.12.278-3.037 6.005z" transform="matrix(1.165 0 0 1 -81.045 -13.036)" fill="#08399c"/><path id="path665" d="M215.72 210.27l6.164-.498 6.96-3.977 7.845.055 6.794 3.867 5.359.552 5.359-.552 6.794-3.867 7.845-.055 6.96 3.977 6.248.498 4.031-5.789-.136-.131-4.319 1.467-5.746-.498-6.96-3.977-7.845.055-6.794 3.867-5.359.552-5.359-.552-6.794-3.867-7.845-.055-6.96 3.977-5.746.498-4.233-1.243-.051.242 3.788 5.454z" transform="matrix(1.165 0 0 1 -81.09 -3.818)" fill="#08399c"/></g></svg>