<svg id="svg378" xmlns="http://www.w3.org/2000/svg" height="512" width="512" version="1" y="0" x="0"><defs id="defs380"><clipPath id="clipPath3830" clipPathUnits="userSpaceOnUse"><path id="rect3832" fill-opacity=".67" d="M0 0h512v512H0z"/></clipPath></defs><g id="flag" fill-rule="evenodd" clip-path="url(#clipPath3830)"><rect id="rect171" rx="0" ry="0" height="512" width="512" y="0" x="0" fill="#fff"/><rect id="rect256" rx="0" ry="0" height="169.92" width="512" y="342.08" x="0" fill="#fff"/><path id="rect255" fill="#fff" d="M0 0h512v169.92H0z"/><path id="path205" d="M151.36 299.73l-30.743-22.258-30.592 22.476 11.378-36.525-30.536-22.554 37.779-.314 11.718-36.414 11.969 36.33 37.779.047-30.38 22.767 11.629 36.444z" fill="#fff"/><path id="path583" d="M436.84 299.73l-30.743-22.258-30.592 22.476 11.378-36.525-30.536-22.554 37.779-.314 11.718-36.414 11.969 36.33 37.779.047-30.38 22.767 11.629 36.444z" fill="#fff"/><rect id="rect7524" rx="0" ry="0" height="169.92" width="512" y="342.08" x="0" stroke-width="1pt"/><path id="rect7526" stroke-width="1pt" fill="red" d="M0 0h512v169.92H0z"/><path id="path7528" d="M151.36 299.73l-30.743-22.258-30.592 22.476 11.378-36.525-30.536-22.554 37.779-.314 11.718-36.414 11.969 36.33 37.779.047-30.38 22.767 11.629 36.444z" stroke-width=".113" fill="#090"/><path id="path7530" d="M436.84 299.73l-30.743-22.258-30.592 22.476 11.378-36.525-30.536-22.554 37.779-.314 11.718-36.414 11.969 36.33 37.779.047-30.38 22.767 11.629 36.444z" stroke-width=".113" fill="#090"/></g></svg>