<svg id="svg3446" xmlns="http://www.w3.org/2000/svg" height="512" width="512" version="1.1"><defs id="defs3448"><clipPath id="clipPath7106" clipPathUnits="userSpaceOnUse"><path id="rect7108" fill-opacity=".67" d="M248.38 0h496.76v496.76H248.38z"/></clipPath></defs><g id="flag" clip-path="url(#clipPath7106)" fill-rule="evenodd" transform="translate(-256) scale(1.0307)"><path id="rect3450" stroke-width="1pt" fill="#fff" d="M0 0h992.91v496.76H0z"/><path id="rect3449" stroke-width="1pt" fill="#239f40" d="M0 361.35h992.16v134.98H0z"/><path id="rect3452" stroke-width="1pt" fill="#cd1738" d="M0 0h992.16v134.98H0z"/><path id="polygon3940" transform="matrix(1 0 0 1.0461 11.932 -62.42)" fill="#ff0" d="M391.56 256.53l3.57 11.24 11.56-.25-9.59 6.87 3.81 10.92-9.49-6.99-9.21 6.99 3.72-11.19-9.5-6.6 11.79.08z"/><path id="polygon3941" transform="matrix(1 0 0 1.0461 .442 -12.038)" fill="#ff0" d="M391.56 256.53l3.57 11.24 11.56-.25-9.59 6.87 3.81 10.92-9.49-6.99-9.21 6.99 3.72-11.19-9.5-6.6 11.79.08z"/><path id="polygon3942" transform="matrix(1 0 0 1.0461 50.823 -103.52)" fill="#ff0" d="M391.56 256.53l3.57 11.24 11.56-.25-9.59 6.87 3.81 10.92-9.49-6.99-9.21 6.99 3.72-11.19-9.5-6.6 11.79.08z"/><path id="polygon3943" transform="matrix(1 0 0 1.0461 103.19 -117.22)" fill="#ff0" d="M391.56 256.53l3.57 11.24 11.56-.25-9.59 6.87 3.81 10.92-9.49-6.99-9.21 6.99 3.72-11.19-9.5-6.6 11.79.08z"/><path id="polygon3944" transform="matrix(1 0 0 1.0461 156.01 -103.52)" fill="#ff0" d="M391.56 256.53l3.57 11.24 11.56-.25-9.59 6.87 3.81 10.92-9.49-6.99-9.21 6.99 3.72-11.19-9.5-6.6 11.79.08z"/><path id="polygon3945" transform="matrix(1 0 0 1.0461 194.9 -62.199)" fill="#ff0" d="M391.56 256.53l3.57 11.24 11.56-.25-9.59 6.87 3.81 10.92-9.49-6.99-9.21 6.99 3.72-11.19-9.5-6.6 11.79.08z"/><path id="polygon3946" transform="matrix(1 0 0 1.0461 206.17 -12.038)" fill="#ff0" d="M391.56 256.53l3.57 11.24 11.56-.25-9.59 6.87 3.81 10.92-9.49-6.99-9.21 6.99 3.72-11.19-9.5-6.6 11.79.08z"/><path id="path3952" d="M516.09 230.63c0 9.255-9.34 16.758-20.859 16.758s-20.859-7.503-20.859-16.758c0-9.255 9.34-16.758 20.859-16.758s20.859 7.503 20.859 16.758z" transform="matrix(.96067 0 0 .9021 19.124 20.782)" fill="#ff0"/><path id="rect3953" fill="#ff0" d="M489.1 239.5h11.445v53.281H489.1z"/><path id="path4004" d="M595.32 288.76c-4.981 10.57-11.684 14.321-22.625 14.028-19.148.454-23.475-13.61-25.971-19.819-6.768 8.92-10.615 12.466-21.85 12.251-16.007.358-24.088-8.753-30.055-25.979-5.967 17.116-14.048 26.227-30.055 25.869-11.235.215-15.082-3.331-21.85-12.251-2.496 6.209-6.823 20.273-25.971 19.819-10.941.293-17.644-3.458-22.128-14.175 5.205 14.967 10.361 23.342 26.344 23.864 14.476.174 21.105-8.21 24.242-13.944 10.429 5.54 11.501 6.77 26.287 6.423 11.037-.355 17.377-7.566 23.089-14.427 5.712 6.861 12.052 14.072 23.089 14.427 14.786.347 15.858-.883 26.287-6.423 3.137 5.734 9.766 14.118 24.242 13.944 15.983-.522 21.139-8.897 26.925-23.607z" fill="#ff0"/><path id="path4048" d="M446.47 304.18l5.225 7.241 10.019-.294-7.732 8.762-15.137.387-4.735-6.342 8.743-1.413 3.671-8.32" fill="#ff0"/><path id="path4049" d="M446.47 304.18l5.225 7.241 10.019-.294-7.732 8.762-15.137.387-4.735-6.342 8.743-1.413 3.671-8.32" transform="matrix(-1 0 0 1 989.44 0)" fill="#ff0"/><path id="path4053" d="M482.23 308.84c0-.039 6.875.039 6.875.039l5.781-4.609 5.644 4.551 6.817.098-6.133 9.062h-12.891l-6.093-9.141z" fill="#ff0"/><path id="path4100" d="M569.2 341.11c-26.731-5.519-44.622-8.234-74.413-8.234s-47.682 2.715-74.244 8.168l-.037-11.525c26.599-5.503 44.49-8.219 74.281-8.219s47.682 2.716 74.281 8.219l.132 11.591z" fill="#ff0"/><path id="path4102" d="M505.31 228.88c0 3.28-4.687 5.938-10.469 5.938-5.782 0-10.469-2.659-10.469-5.938s4.687-5.938 10.469-5.938c5.782 0 10.469 2.659 10.469 5.938z" fill="#fff"/></g></svg>