<svg id="svg1" xmlns="http://www.w3.org/2000/svg" height="512" width="512" version="1.1"><defs id="defs3"><clipPath id="clipPath6050" clipPathUnits="userSpaceOnUse"><path id="rect6052" fill-opacity=".67" d="M0 0h512v512H0z"/></clipPath></defs><g id="flag" clip-path="url(#clipPath6050)"><path id="rect124" fill="#006" d="M0 0h1024v512H0z"/><path id="path146" d="M0 0v28.622l454.76 227.38H512v-28.62L57.24.002H0zm512 0v28.621L57.24 256.001H0v-28.62L454.76.001H512z" fill="#fff"/><path id="path136" d="M213.33 0v256h85.333V0H213.33zM0 85.333v85.333h512V85.333H0z" stroke-width="1pt" fill="#fff"/><path id="path141" d="M0 102.4v51.2h512v-51.2H0zM230.4 0v256h51.2V0h-51.2z" stroke-width="1pt" fill="#c00"/><path id="path150" d="M0 256l170.67-85.333h38.162l-170.67 85.33H.002zM0 0l170.67 85.333h-38.162L-.002 19.081V0zm303.17 85.333L473.84 0H512L341.33 85.333h-38.162zM512 256.003l-170.67-85.33h38.162l132.51 66.25v19.08z" fill="#c00"/><g id="g5930" transform="translate(-177.29 177.11) scale(.69449)"><g id="g141" transform="scale(8.5333)"><path id="path133" d="M90 7.995l.9 2.767h2.909l-2.354 1.71.9 2.768L90 13.531l-2.354 1.71.9-2.767-2.355-1.71h2.91z" fill="#fff"/><path id="path132" d="M90 8.846l.708 2.18H93l-1.854 1.346.708 2.18L90 13.205l-1.854 1.347.708-2.18L87 11.025h2.292z" fill="#c00"/></g><g id="g132" transform="translate(-118.3 119.03) scale(8.5333)"><path id="path134" d="M90 7.995l.9 2.767h2.909l-2.354 1.71.9 2.768L90 13.531l-2.354 1.71.9-2.767-2.355-1.71h2.91z" fill="#fff"/><path id="path135" d="M90 8.846l.708 2.18H93l-1.854 1.346.708 2.18L90 13.205l-1.854 1.347.708-2.18L87 11.025h2.292z" fill="#c00"/></g><g id="g139" transform="translate(101.4 -14.251) scale(8.5333)"><path id="path138" d="M90 20.648l.753 2.316h2.435l-1.97 1.432.752 2.316-1.972-1.432-1.97 1.432.753-2.316-1.97-1.432h2.435z" fill="#fff"/><path id="path137" d="M90 21.371l.59 1.816h1.91l-1.545 1.123.59 1.816L90 25.004l-1.545 1.123.59-1.816-1.545-1.123h1.91z" fill="#c00"/></g><path id="path142" d="M768 372.02l8.437 25.966h27.302l-22.088 16.048L790.088 440l-22.09-16.06-22.088 16.048 8.437-25.966-22.088-16.048h27.302z" fill-rule="evenodd" fill="#fff"/><path id="path143" d="M768 378.2l7.05 21.699h22.817l-18.46 13.411 7.051 21.699-18.46-13.41-18.459 13.411 7.05-21.699-18.458-13.411h22.816z" fill-rule="evenodd" fill="#c00"/></g></g></svg>