<svg id="svg378" xmlns="http://www.w3.org/2000/svg" height="512" width="512" version="1" y="0" x="0"><defs id="defs380"><clipPath id="clipPath7035" clipPathUnits="userSpaceOnUse"><path id="rect7037" fill-opacity=".67" d="M124.02 0h496.06v496.06H124.02z"/></clipPath></defs><g id="flag" fill-rule="evenodd" clip-path="url(#clipPath7035)" transform="translate(-128) scale(1.0321)"><path id="rect171" stroke-width="1pt" fill="#e70013" d="M0 0h744.09v496.06H0z"/><path id="path554" d="M485.97 255.06c0 67.28-54.541 121.82-121.82 121.82-67.28 0-121.82-54.541-121.82-121.82 0-67.28 54.541-121.82 121.82-121.82 67.28 0 121.82 54.541 121.82 121.82z" transform="translate(-1.281 -14.137) scale(1.027)" fill="#fff"/><path id="path556" d="M357.56 327.49c-45.799 0-82.969-37.17-82.969-82.969 0-45.8 37.17-82.97 82.969-82.97 11.45 0 24.483 2.634 33.336 9.136-60.681 2.284-76.029 53.75-76.029 74.492s9.813 67.001 76.028 73.833c-7.535 4.857-21.885 8.478-33.335 8.478z" transform="translate(15.145 3.292)" stroke-width="1pt" fill="#e70013"/><path id="polygon559" stroke-width="1pt" fill="#e70013" d="M445.8 282.71l-37.68-13.74-24.92 31.41 1.43-40.07-37.58-14 38.56-11.02 1.69-40.07 22.4 33.27 38.63-10.77-24.71 31.58z"/></g></svg>