<svg id="svg2498" xmlns="http://www.w3.org/2000/svg" height="512" width="512" version="1.1"><defs id="defs2500"><clipPath id="clipPath5808" clipPathUnits="userSpaceOnUse"><path id="rect5810" fill-opacity=".67" d="M0 0h512v512H0z"/></clipPath></defs><g id="flag" clip-path="url(#clipPath5808)"><g id="g5564" transform="translate(0 -2.23) scale(1.0043)"><path id="rect1310" fill-rule="evenodd" stroke-width="1pt" fill="#fff" d="M.003 0h256.68v127.48H.003z"/><path id="path549" d="M.003 0l-.01 9.568 61.253 31.474 23.048.668L.004 0z" fill="#c00"/><path id="path551" d="M26.229 0l74.261 38.79V0H26.229z" fill="#006"/><path id="path552" fill="#c00" d="M110.4 0v49.52H.01v28.296H110.4v49.52h33.968v-49.52h110.39V49.52h-110.39V0H110.4z"/><path id="path554" d="M154.27 0v36.55L226.92.283 154.27.001z" fill="#006"/><path id="path555" d="M156.57 40.535L177 40.37 256.37.283l-21.06.344-78.74 39.908z" fill="#c00"/><path id="path700" d="M.003 86.069v27.118L50.954 86.35l-50.95-.284z" fill="#006"/><path id="path701" d="M196.2 87.189l-21.24-.165 80.064 39.863-.527-9.12L196.2 87.19zM19.9 127.56l75.072-39.416-19.718.131L.004 127.5" fill="#c00"/><path id="path556" d="M255.83 11.199L195.2 41.266l59.824.224v44.803h-50.951l50.48 27.352.741 13.914-26.963-.322-73.794-36.228v36.55h-53.781v-36.55L31.533 127.46l-31.264.098v127.33h509.51V.219l-253.41-.21M.269 14.382L0 40.827l53.64.672L.27 14.382z" fill="#006"/><g id="g3304" fill-rule="evenodd" transform="translate(-.004) scale(.51383)" stroke-width="1pt" fill="#009fca"><path id="rect3302" d="M496.06 0h496.06v496.06H496.06z"/><path id="rect3303" d="M0 248.03h523.49v248.03H0z"/></g><g id="g5547" fill-rule="evenodd" transform="translate(-.004 260) scale(.51383)" stroke-width="1pt" fill="#009fca"><path id="rect5549" d="M505.97-19.81h486.16v515.87H505.97z"/><rect id="rect5551" ry="0" height="521.41" width="523.49" y="-25.343" x="0"/></g><g id="g5553" fill-rule="evenodd" transform="translate(-129.15 180.34) scale(1.2509)" stroke-width="1pt" fill="#fff40d"><path id="polygon136" transform="matrix(.25628 0 0 .24119 337.93 -50.489)" d="M569.1 365.81l21.94 67.35-57.27-41.68-57.27 41.67 21.95-67.34-57.33-41.6 70.83.07 21.83-67.38 21.83 67.38 70.83-.05z"/><path id="polygon3314" transform="matrix(.25628 0 0 .24119 292.37 79.065)" d="M569.1 365.81l21.94 67.35-57.27-41.68-57.27 41.67 21.95-67.34-57.33-41.6 70.83.07 21.83-67.38 21.83 67.38 70.83-.05z"/><path id="polygon3315" transform="matrix(.25628 0 0 .24119 337.93 49.738)" d="M569.1 365.81l21.94 67.35-57.27-41.68-57.27 41.67 21.95-67.34-57.33-41.6 70.83.07 21.83-67.38 21.83 67.38 70.83-.05z"/><path id="polygon3317" transform="matrix(.25628 0 0 .24119 142.03 143.7)" d="M569.1 365.81l21.94 67.35-57.27-41.68-57.27 41.67 21.95-67.34-57.33-41.6 70.83.07 21.83-67.38 21.83 67.38 70.83-.05z"/><path id="polygon3319" transform="matrix(-.25628 0 0 -.24119 468.01 249.77)" d="M569.1 365.81l21.94 67.35-57.27-41.68-57.27 41.67 21.95-67.34-57.33-41.6 70.83.07 21.83-67.38 21.83 67.38 70.83-.05z"/><path id="polygon3320" transform="matrix(-.25628 0 0 -.24119 521.54 175.74)" d="M569.1 365.81l21.94 67.35-57.27-41.68-57.27 41.67 21.95-67.34-57.33-41.6 70.83.07 21.83-67.38 21.83 67.38 70.83-.05z"/><path id="polygon3321" transform="matrix(-.25628 0 0 -.24119 566.53 160.36)" d="M569.1 365.81l21.94 67.35-57.27-41.68-57.27 41.67 21.95-67.34-57.33-41.6 70.83.07 21.83-67.38 21.83 67.38 70.83-.05z"/><path id="polygon3322" transform="matrix(-.25628 0 0 -.24119 521.54 288.49)" d="M569.1 365.81l21.94 67.35-57.27-41.68-57.27 41.67 21.95-67.34-57.33-41.6 70.83.07 21.83-67.38 21.83 67.38 70.83-.05z"/><path id="polygon3323" transform="matrix(-.25628 0 0 -.24119 468.01 301.59)" d="M569.1 365.81l21.94 67.35-57.27-41.68-57.27 41.67 21.95-67.34-57.33-41.6 70.83.07 21.83-67.38 21.83 67.38 70.83-.05z"/></g></g></g></svg>