<svg id="svg977" xmlns="http://www.w3.org/2000/svg" height="512" width="512" version="1.1"><defs id="defs979"><clipPath id="clipPath5411" clipPathUnits="userSpaceOnUse"><path id="rect5413" fill-opacity=".67" d="M0 0h496.06v496.06H0z"/></clipPath></defs><g id="flag" fill-rule="evenodd" clip-path="url(#clipPath5411)" transform="scale(1.0321)" stroke-width="1pt"><path id="rect983" fill="#de2110" d="M0 0h744.09v496.06H0z"/><path id="rect984" fill="#08399c" d="M0 0h373.69v248.03H0z"/><path id="polygon1007" transform="translate(.794 1.011)" fill="#fff" d="M272.53 171.99l-45.86-9.43 9.77 45.79-35.01-31.09-14.44 44.54-14.77-44.44-34.77 31.36 9.43-45.86-45.79 9.76 31.09-35-44.539-14.44 44.429-14.77-31.35-34.773 45.86 9.427-9.76-45.792 35 31.095 14.44-44.54 14.77 44.432 34.77-31.354-9.43 45.863 45.79-9.767-31.09 35.009 44.54 14.43-44.43 14.77z"/><path id="polygon1009" transform="matrix(1.0112 0 0 1.0085 -1.946 .435)" fill="#005387" d="M230.41 167.62l-14.31 7.62-13.96 8.27-16.21-.56-16.21.19-13.76-8.59-14.14-7.95-7.62-14.32-8.27-13.95.55-16.21-.18-16.22 8.59-13.757 7.95-14.138 14.31-7.622 13.96-8.269 16.21.557 16.22-.185 13.76 8.588 14.13 7.95 7.62 14.316 8.27 13.95-.55 16.21.18 16.22-8.59 13.76z"/><path id="path1011" d="M236.88 122.81c0 27.754-22.499 50.253-50.253 50.253s-50.253-22.499-50.253-50.253 22.499-50.253 50.253-50.253 50.253 22.499 50.253 50.253z" transform="translate(.148 1.481)" fill="#fff"/></g></svg>