<svg id="svg548" xmlns="http://www.w3.org/2000/svg" height="512" width="512" version="1.1"><defs id="defs550"><clipPath id="clipPath5874" clipPathUnits="userSpaceOnUse"><path id="rect5876" fill-opacity=".67" d="M0 0h496.06v496.06H0z"/></clipPath></defs><g id="flag" clip-path="url(#clipPath5874)" fill-rule="evenodd" transform="scale(1.0321)"><path id="rect568" stroke-width="1pt" fill="#fff" d="M0 0h992.13v496.06H0z"/><path id="rect558" stroke-width="1pt" fill="#94acd4" d="M0 0h992.13v171.7H0z"/><path id="rect555" stroke-width="1pt" fill="#b73000" d="M0 160.33h992.13v11.374H0z"/><path id="rect557" stroke-width="1pt" fill="#00a900" d="M0 335.73h992.13v160.33H0z"/><path id="rect556" stroke-width="1pt" fill="#b73000" d="M0 335.73h992.13v11.374H0z"/><path id="polygon561" transform="matrix(.92289 0 0 .92799 71.38 -68.428)" stroke-width="1pt" fill="#feffff" d="M205.58 128.74l-10.01-6.85-9.91 7.01 3.42-11.64-9.72-7.25 12.12-.35 3.89-11.495 4.08 11.425 12.13.15-9.6 7.41z"/><path id="polygon562" transform="matrix(.92289 0 0 .92799 27.81 17.296)" stroke-width="1pt" fill="#feffff" d="M205.58 128.74l-10.01-6.85-9.91 7.01 3.42-11.64-9.72-7.25 12.12-.35 3.89-11.495 4.08 11.425 12.13.15-9.6 7.41z"/><path id="polygon563" transform="matrix(.92289 0 0 .92799 71.798 17.296)" stroke-width="1pt" fill="#feffff" d="M205.58 128.74l-10.01-6.85-9.91 7.01 3.42-11.64-9.72-7.25 12.12-.35 3.89-11.495 4.08 11.425 12.13.15-9.6 7.41z"/><path id="polygon564" transform="matrix(.92289 0 0 .92799 112.44 17.296)" stroke-width="1pt" fill="#feffff" d="M205.58 128.74l-10.01-6.85-9.91 7.01 3.42-11.64-9.72-7.25 12.12-.35 3.89-11.495 4.08 11.425 12.13.15-9.6 7.41z"/><path id="polygon565" transform="matrix(.92289 0 0 .92799 150.14 17.296)" stroke-width="1pt" fill="#feffff" d="M205.58 128.74l-10.01-6.85-9.91 7.01 3.42-11.64-9.72-7.25 12.12-.35 3.89-11.495 4.08 11.425 12.13.15-9.6 7.41z"/><path id="polygon566" transform="matrix(.92289 0 0 .92799 -18.272 17.296)" stroke-width="1pt" fill="#feffff" d="M205.58 128.74l-10.01-6.85-9.91 7.01 3.42-11.64-9.72-7.25 12.12-.35 3.89-11.495 4.08 11.425 12.13.15-9.6 7.41z"/><path id="polygon567" transform="matrix(.92289 0 0 .92799 26.972 -25.25)" stroke-width="1pt" fill="#feffff" d="M205.58 128.74l-10.01-6.85-9.91 7.01 3.42-11.64-9.72-7.25 12.12-.35 3.89-11.495 4.08 11.425 12.13.15-9.6 7.41z"/><path id="polygon568" transform="matrix(.92289 0 0 .92799 71.38 -25.25)" stroke-width="1pt" fill="#feffff" d="M205.58 128.74l-10.01-6.85-9.91 7.01 3.42-11.64-9.72-7.25 12.12-.35 3.89-11.495 4.08 11.425 12.13.15-9.6 7.41z"/><path id="polygon569" transform="matrix(.92289 0 0 .92799 113.27 -25.25)" stroke-width="1pt" fill="#feffff" d="M205.58 128.74l-10.01-6.85-9.91 7.01 3.42-11.64-9.72-7.25 12.12-.35 3.89-11.495 4.08 11.425 12.13.15-9.6 7.41z"/><path id="polygon570" transform="matrix(.92289 0 0 .92799 149.72 -25.25)" stroke-width="1pt" fill="#feffff" d="M205.58 128.74l-10.01-6.85-9.91 7.01 3.42-11.64-9.72-7.25 12.12-.35 3.89-11.495 4.08 11.425 12.13.15-9.6 7.41z"/><path id="polygon571" transform="matrix(.92289 0 0 .92799 149.3 -68.428)" stroke-width="1pt" fill="#feffff" d="M205.58 128.74l-10.01-6.85-9.91 7.01 3.42-11.64-9.72-7.25 12.12-.35 3.89-11.495 4.08 11.425 12.13.15-9.6 7.41z"/><path id="polygon572" transform="matrix(.92289 0 0 .92799 112.85 -68.428)" stroke-width="1pt" fill="#feffff" d="M205.58 128.74l-10.01-6.85-9.91 7.01 3.42-11.64-9.72-7.25 12.12-.35 3.89-11.495 4.08 11.425 12.13.15-9.6 7.41z"/><path id="path575" d="M142.44 28.532C93.004 15.056 61.688 49.863 62.16 81.056c.471 31.194 29.377 64.224 73.99 55.984C66.052 169.71 30.2 118.25 31.63 77.39c2.462-48.294 57.045-87.679 110.81-48.858z" transform="matrix(1 0 0 1.0055 0 -2.739)" fill="#fff"/></g></svg>