<svg id="svg548" xmlns="http://www.w3.org/2000/svg" height="480" width="640" version="1.1"><g id="g3634"><g id="g3379" transform="scale(1.25 .9375)"><g id="g3111"><g id="g3105"><g id="flag" fill-rule="evenodd" transform="matrix(.72249 0 0 1.0321 0 -16.449)" stroke-width="1pt"><path id="rect895" fill="#0000bd" d="M0 15.937h237.4v496.06H0z"/><path id="rect896" fill="#cc1900" d="M471.26 15.937h237.4v496.06h-237.4z"/><path id="rect897" fill="#fff600" d="M237.4 15.937h233.86v496.06H237.4z"/></g></g></g></g><g id="g919" transform="matrix(1.4342 0 0 1.4102 -183.84 -822.43)"><g id="g853" stroke-width="1pt"><path id="path738" d="M398.54 290.22c47.823.818 44.515-29.149 61.974-32.126 17.458-2.977 33.928 12.489 33.302 29.972 1.873 20.814-29.714 20.963-31.637 38.298-1.923 17.336 15.378 22.628 33.302 19.982s30.646-20.363 39.804-28.689c-13.321 7.493-24.218 4.778-25.21-8.558.673-17.497 18.103-23.847 26.345-17.96 6.476-5.298 6.09-7.423 13.209-6.246 4.828 2.944 6.143 2.861 8.999 7.418 3.717-2.355 5.269-3.54 12.204-.597 4.306 1.767 7.181 4.961 9.841 9.808 3.146-2.486 8.086-3.413 13.762-.197 3.61 1.837 8.108 7.182 8.72 12.995 8.451 1.696 11.381 3.654 14.034 7.953 15.765 21.775-2.435 58.473-1.432 77.205 1.004 18.731 16.651 19.981 16.651 19.981-14.717-9.42-.201-15.9 6.745-16.55 22.252 2.292 18.508 35.135-5.18 29.366-18.978-5.18 38.921 3.281 37.525 62.637-1.396 61.021-32.815 49.01-32.815 49.01s26.838 10.109 21.646 30.09c-5.191 13.507-32.933 22.456-30.578-3.448-8.242 11.186-10.608 15.913-10.58 32.916-1.148 21.713.656 31.631 6.845 42.301 1.48-9.935 8.206-10.361 13.952-9.1 8.101.084 12.607 6.442 9.563 14.684 4.079-1.035 7.801 1.757 9.402 5.121 1.255 6.206 4.037 8.956-2.439 11.311 6.476 1.178 9.61 2.024 10.377 11.049.18 7.261-12.596 11.246-26.136 8.891 7.065 3.533 29.983 50.025 26.922 103.44-2.119 47.905-86.038 43.639-123.53 42.305-37.488-1.332-72.512.775-87.133 13.052 11.247 7.182-1.302 29.542-10.864 19.064 0 8.242-9.449 20.979-22.497 12.718.534 14.885-14.238 25.328-27.121 25.328s-27.655-10.443-27.121-25.328c-13.048 8.261-22.497-4.476-22.497-12.718-9.562 10.478-22.111-11.882-10.864-19.064-14.621-12.277-49.645-14.384-87.133-13.052-37.489 1.334-121.41 5.6-123.53-42.305-3.061-53.418 23.699-99.91 30.764-103.44-13.54 2.355-26.316-1.63-26.136-8.891.767-9.025 3.901-9.871 10.377-11.049-6.476-2.355-3.694-5.105-2.439-11.311 1.601-3.364 5.323-6.156 9.402-5.121-3.044-8.242 1.462-14.6 9.563-14.684 5.746-1.261 12.472-.835 13.952 9.1 6.189-10.67 7.993-20.588 6.845-42.301.028-17.003-2.338-21.73-10.58-32.916 2.355 25.904-25.387 16.955-30.578 3.448-5.192-19.981 21.646-30.09 21.646-30.09s-31.419 12.011-32.815-49.01c-1.396-59.356 56.503-67.817 37.525-62.637-23.688 5.769-27.432-27.074-5.18-29.366 6.946.65 21.462 7.13 6.745 16.55 0 0 15.647-1.25 16.651-19.981 1.003-18.732-17.197-55.43-1.432-77.205 2.653-4.299 5.583-6.257 14.034-7.953.612-5.813 5.11-11.158 8.72-12.995 5.676-3.216 10.616-2.289 13.762.197 2.66-4.847 5.535-8.041 9.841-9.808 6.935-2.943 8.487-1.758 12.204.597 2.856-4.557 4.171-4.474 8.999-7.418 7.119-1.177 6.733.948 13.209 6.246 8.242-5.887 25.672.463 26.345 17.96-.992 13.336-11.889 16.051-25.21 8.558 9.158 8.326 21.88 26.043 39.804 28.689s35.225-2.646 33.302-19.982c-1.923-17.335-33.51-17.484-31.637-38.298-.626-17.483 15.844-32.949 33.302-29.972 17.459 2.977 14.151 32.944 62.182 32.126z" fill-rule="evenodd" transform="matrix(.38925 0 0 .37394 196.25 536.23)" stroke="#000" fill="#cba323"/><path id="path619" d="M356.44 346.62c-.575 17.961-31.258 14.828-51.514 13.859-26.326-1.231-77.59-46.08-44.263-69.888" transform="matrix(.38925 0 0 .37394 196.25 536.23)" stroke="#000" fill="none"/><path id="path625" d="M164.84 449.52c-16.484 17.662 28.691 13.497 9.419-9.419-7.87-8.82-41.21 18.839-41.21 49.452s10.597 44.742 16.484 45.919c5.887 1.178 15.307-3.532 15.307-8.241 0-5.887-4.71-15.307-11.774-14.13-11.775 0-5.888 10.597-.001 10.597" transform="matrix(.38925 0 0 .37394 196.25 536.23)" stroke="#000" fill="none"/><path id="path626" d="M163.39 451.39s-24.453 9.908-24.453 39.343c0 29.436 7.065 28.259 7.065 28.259" transform="matrix(.38925 0 0 .37394 196.25 536.23)" stroke="#000" fill="none"/><path id="path627" d="M166.02 430.68s24.726-3.533 23.549 18.838c-1.178 22.371-9.42 23.549-22.371 22.371-12.952-1.177-5.887-16.483-5.887-16.483" transform="matrix(.38925 0 0 .37394 196.25 536.23)" stroke="#000" fill="none"/><path id="path628" d="M156.6 543.71s18.839-1.178 17.661-21.194c-1.177-20.016-15.306-21.194-23.548-20.016-8.242 1.177-10.74 5.803-8.242 12.88" transform="matrix(.38925 0 0 .37394 196.25 536.23)" stroke="#000" fill="none"/><path id="path630" d="M150.71 567.26s3.936-8.158 16.887-8.158c12.952 0 18.982 30.386 17.805 63.354-1.178 32.968-33.515 61.37-40.58 59.015-7.064-2.355-10.597-3.533-4.71-8.242" transform="matrix(.38925 0 0 .37394 196.25 536.23)" stroke="#000" fill="none"/><path id="path633" d="M172.39 643.31l-22.859 38.166" transform="matrix(.38925 0 0 .37394 196.25 536.23)" stroke="#000" fill="none"/><path id="path634" d="M141.29 667.34c0 .416 5.054-1.105 8.587 1.249 3.532 2.355 4.365 5.816 4.365 5.816" transform="matrix(.38925 0 0 .37394 195.85 536.34)" stroke="#000" fill="none"/><path id="path635" d="M144.82 650.86s4.517-1.819 10.404.536 5.695 7.662 5.695 7.662" transform="matrix(.35485 0 0 .26779 202.53 605.66)" stroke="#000" fill="none"/><path id="path636" d="M171.78 731.95c12.251 6.364 24.282-25.181.671-26.726-16.888-.69-29.085 23.268-26.73 35.041 6.431 40.061 10.444 66.861 50.568 72.045 30.613 2.355 78.451-5.101 108.3-1.523 29.44 3.433 61.94 14.272 73.714 26.047 11.774 11.774 19.112 11.892 19.112 23.667 0 11.774-16.815 17.816-23.476 10.74" transform="matrix(.38925 0 0 .37394 195.83 537.04)" stroke="#000" fill="none"/><path id="path637" d="M369.84 876.92c4.305-2.914 14.556-20.425 4.722-30.815-15.194-15.401-26.165-21.479-33.658-23.977" transform="matrix(.38925 0 0 .37394 195.83 537.04)" stroke="#000" fill="none"/><path id="path638" d="M347.55 863.28c5.828-3.532 6.684-15.298.594-24.274-6.091-8.975-21.941-16.165-53.073-18.799-23.583-1.982-87.844 8.444-111.39 1.379-33.059-12.721-53.845-34.149-48.773-87.391 1.521-20.621 11.917-34.465 32.278-37.105 22.858-.143 28.813 14.734 28.813 33.571 0 9.681-25.317 18.878-29.909 9.705-7.109-12.854-10.217-24.451 15.881-30.607" transform="matrix(.38925 0 0 .37394 195.83 537.04)" stroke="#000" fill="none"/><path id="path642" d="M337.41 844.59s9.765 5.685 7.41 10.395c-2.354 4.709-8.658 2.7-4.496-2.296" transform="matrix(.38925 0 0 .37394 195.83 537.04)" stroke="#000" fill="none"/><path id="path643" d="M238.95 291.4s-6.66 6.66-3.33 22.479 9.991 14.987 9.991 14.987" transform="matrix(.38925 0 0 .37394 196.25 536.23)" stroke="#000" fill="none"/><path id="path644" d="M216.47 300.55c-.833 1.665-9.706 11.858-4.71 22.681 4.995 10.824 8.956 12.977 8.956 12.977" transform="matrix(.38925 0 0 .37394 196.25 536.23)" stroke="#000" fill="none"/><path id="path645" d="M193.99 313.87s-7.195 10.622-8.567 29.555 7.789 45 7.533 54.698c-.581 20.609-24.012 30.839-24.012 30.839" transform="matrix(.38925 0 0 .37394 196.25 536.23)" stroke="#000" fill="none"/><path id="path652" d="M159.85 543.66c1.665 0 34.135-29.972 34.135 76.597-2.498 61.61-38.298 67.438-38.298 67.438" transform="matrix(.38925 0 0 .37394 196.25 536.23)" stroke="#000" fill="none"/><path id="path653" d="M162.49 689.71c13.148-3.336 40.425 10.99 30.613 35.324" transform="matrix(.38925 0 0 .37394 196.91 537.13)" stroke="#000" fill="none"/><path id="path654" d="M167.78 681.47c8.439.785 15.319 6.904 18.458 15.343" transform="matrix(.38925 0 0 .37394 196.12 536.47)" stroke="#000" fill="none"/><path id="path655" d="M148.2 477.06s9.991 14.154 24.977 14.154 19.982-15.819 19.982-15.819" transform="matrix(.38925 0 0 .37394 196.25 536.23)" stroke="#000" fill="none"/><path id="path656" d="M146.53 484.55s9.158 16.652 24.977 17.484c15.819.833 21.647-10.823 21.647-10.823" transform="matrix(.38925 0 0 .37394 196.25 536.23)" stroke="#000" fill="none"/><path id="path657" d="M179.84 509.52s11.657 4.996 11.657 19.15c0 14.153-10.824 10.823-10.824 10.823" transform="matrix(.38925 0 0 .37394 196.25 536.23)" stroke="#000" fill="none"/><path id="path712" d="M356.44 346.62c-.575 17.961-31.258 14.828-51.514 13.859-26.326-1.231-77.59-46.08-44.263-69.888" transform="matrix(-.38925 0 0 .37394 506.43 536.23)" stroke="#000" fill="none"/><path id="path713" d="M164.84 449.52c-16.484 17.662 28.691 13.497 9.419-9.419-7.87-8.82-41.21 18.839-41.21 49.452s10.597 44.742 16.484 45.919c5.887 1.178 15.307-3.532 15.307-8.241 0-5.887-4.71-15.307-11.774-14.13-11.775 0-5.888 10.597-.001 10.597" transform="matrix(-.38925 0 0 .37394 506.43 536.23)" stroke="#000" fill="none"/><path id="path714" d="M163.39 451.39s-24.453 9.908-24.453 39.343c0 29.436 7.065 28.259 7.065 28.259" transform="matrix(-.38925 0 0 .37394 506.43 536.23)" stroke="#000" fill="none"/><path id="path715" d="M166.02 430.68s24.726-3.533 23.549 18.838c-1.178 22.371-9.42 23.549-22.371 22.371-12.952-1.177-5.887-16.483-5.887-16.483" transform="matrix(-.38925 0 0 .37394 506.43 536.23)" stroke="#000" fill="none"/><path id="path716" d="M156.6 543.71s18.839-1.178 17.661-21.194c-1.177-20.016-15.306-21.194-23.548-20.016-8.242 1.177-10.74 5.803-8.242 12.88" transform="matrix(-.38925 0 0 .37394 506.43 536.23)" stroke="#000" fill="none"/><path id="path717" d="M150.71 567.26s3.936-8.158 16.887-8.158c12.952 0 18.982 30.386 17.805 63.354-1.178 32.968-33.515 61.37-40.58 59.015-7.064-2.355-10.597-3.533-4.71-8.242" transform="matrix(-.38925 0 0 .37394 506.43 536.23)" stroke="#000" fill="none"/><path id="path718" d="M172.39 643.31l-22.859 38.166" transform="matrix(-.38925 0 0 .37394 506.43 536.23)" stroke="#000" fill="none"/><path id="path719" d="M141.29 667.34c0 .416 5.054-1.105 8.587 1.249 3.532 2.355 4.365 5.816 4.365 5.816" transform="matrix(-.38925 0 0 .37394 506.83 536.47)" stroke="#000" fill="none"/><path id="path720" d="M144.82 650.86s4.517-1.819 10.404.536 5.695 7.662 5.695 7.662" transform="matrix(-.35485 0 0 .26779 500.15 605.66)" stroke="#000" fill="none"/><path id="path721" d="M170.42 741.5c-2.354 0 15.451-19.877-.688-23.897-20.284-3.872-28.744 16.55-26.389 28.323 5.072 28.746 16.897 64.033 52.945 66.388 30.613 2.355 78.451-5.101 108.3-1.523 29.44 3.433 61.94 14.272 73.714 26.047 11.774 11.774 19.112 11.892 19.112 23.667 0 11.774-16.815 17.816-23.476 10.74" transform="matrix(-.38925 0 0 .37394 505.26 537.04)" stroke="#000" fill="none"/><path id="path722" d="M369.84 876.92c4.305-2.914 14.556-20.425 4.722-30.815-15.194-15.401-26.165-21.479-33.658-23.977" transform="matrix(-.38925 0 0 .37394 505.26 537.04)" stroke="#000" fill="none"/><path id="path723" d="M347.55 863.28c5.828-3.532 6.684-15.298.594-24.274-6.091-8.975-21.941-16.165-53.073-18.799-23.583-1.982-87.844 8.444-111.39 1.379-43.929-18.378-53.505-42.635-52.509-81.734 1.521-20.621 12.257-36.587 32.618-39.227 22.858-.143 26.774 11.906 26.774 30.744 0 9.68-9.013 25.716-21.334 23.362-12.322-3.188-21.92-25.013-1.106-36.669" transform="matrix(-.38925 0 0 .37394 505.26 537.04)" stroke="#000" fill="none"/><path id="path724" d="M337.41 844.59s9.765 5.685 7.41 10.395c-2.354 4.709-8.658 2.7-4.496-2.296" transform="matrix(-.38925 0 0 .37394 505.26 537.04)" stroke="#000" fill="none"/><path id="path725" d="M238.95 291.4s-6.66 6.66-3.33 22.479 9.991 14.987 9.991 14.987" transform="matrix(-.38925 0 0 .37394 506.43 536.23)" stroke="#000" fill="none"/><path id="path726" d="M216.47 300.55c-.833 1.665-9.706 11.858-4.71 22.681 4.995 10.824 8.956 12.977 8.956 12.977" transform="matrix(-.38925 0 0 .37394 506.43 536.23)" stroke="#000" fill="none"/><path id="path727" d="M193.99 313.87s-7.195 10.622-8.567 29.555 7.789 45 7.533 54.698c-.581 20.609-24.012 30.839-24.012 30.839" transform="matrix(-.38925 0 0 .37394 506.43 536.23)" stroke="#000" fill="none"/><path id="path730" d="M159.85 543.66c1.665 0 34.135-29.972 34.135 76.597-2.498 61.61-38.298 67.438-38.298 67.438" transform="matrix(-.38925 0 0 .37394 506.43 536.23)" stroke="#000" fill="none"/><path id="path731" d="M158.07 701.03c16.205-14.296 47.219 13.112 35.708 38.506" transform="matrix(-.38925 0 0 .37394 506.56 534.49)" stroke="#000" fill="none"/><path id="path732" d="M167.78 681.47c8.439.785 17.357 6.197 20.496 14.636" transform="matrix(-.38925 0 0 .37394 508.02 537.4)" stroke="#000" fill="none"/><path id="path733" d="M148.2 477.06s9.991 14.154 24.977 14.154 19.982-15.819 19.982-15.819" transform="matrix(-.38925 0 0 .37394 506.43 536.23)" stroke="#000" fill="none"/><path id="path734" d="M146.53 484.55s9.158 16.652 24.977 17.484c15.819.833 21.647-10.823 21.647-10.823" transform="matrix(-.38925 0 0 .37394 506.43 536.23)" stroke="#000" fill="none"/><path id="path735" d="M179.84 509.52s11.657 4.996 11.657 19.15c0 14.153-10.824 10.823-10.824 10.823" transform="matrix(-.38925 0 0 .37394 506.43 536.23)" stroke="#000" fill="none"/><path id="path741" d="M353.01 313.46c.416-.416-1.665-9.159 8.326-8.742 9.99.416 6.244 9.574 14.57 12.904 7.909 2.082 22.063 4.164 22.528 4.164s14.619-2.082 22.528-4.164c8.326-3.33 4.58-12.488 14.57-12.904 9.991-.417 7.91 8.326 8.326 8.742" transform="matrix(.38925 0 0 .37394 196.25 536.23)" stroke="#000" fill="none"/><path id="path744" d="M373.28 349.42c-.294-4.121-1.249-9.55-6.871-9.966-10.525-.345-18.856 20.605 4.444 20.753 17.055.111 17.198-32.355.804-32.831-23.549-.667-26.788 13.389-26.402 16.143 5.957-50.397-33.246-40.206-31.373-59.77.207-10.606 10.849-11.822 22.479-9.857 17.459 2.799 14.151 30.967 62.078 30.198 47.927.769 44.619-27.399 62.078-30.198 11.63-1.965 22.272-.749 22.479 9.857 1.873 19.564-37.33 9.373-31.373 59.77.386-2.754-2.853-16.81-26.402-16.143-16.394.476-16.251 32.942.804 32.831 23.3-.148 14.969-21.098 4.444-20.753-5.622.416-6.577 5.845-6.871 9.966" transform="matrix(.38925 0 0 .37394 196.25 536.23)" stroke="#000" fill="none"/><path id="path814" d="M404.47 889.55v.217h-4.155v-.217h.264c.231 0 .416-.041.557-.123a.537.537 0 00.234-.281c.043-.094.065-.34.065-.738v-5.227c0-.406-.022-.66-.065-.762a.571.571 0 00-.264-.263c-.129-.079-.304-.118-.527-.118h-.264v-.216h4.155v.216h-.264c-.23 0-.416.041-.557.123a.567.567 0 00-.24.282c-.043.093-.064.34-.064.738v5.227c0 .406.021.66.064.761a.64.64 0 00.264.27c.133.074.31.111.533.111h.264z" transform="matrix(1.0544 -.26437 .21258 1.3113 -201.97 -224.59)"/><path id="path815" d="M399.64 881.82v2.15h-.211c-.125-.496-.264-.852-.416-1.066a1.6 1.6 0 00-.627-.522c-.149-.07-.409-.105-.78-.105h-.591v6.129c0 .406.021.66.064.761a.64.64 0 00.264.27c.132.074.312.111.539.111h.263v.217h-4.16v-.217h.264c.23 0 .416-.041.557-.123a.564.564 0 00.24-.281c.043-.094.064-.34.064-.738v-6.129h-.574c-.535 0-.924.113-1.166.34-.34.316-.555.767-.645 1.353h-.222v-2.15h7.137z" transform="matrix(1.0667 -.1721 .13839 1.3265 -141.19 -274.74)"/><path id="path820" d="M370.04 882.28v3.263h.229c.351 0 .638-.052.861-.158a1.33 1.33 0 00.562-.533c.157-.25.258-.588.305-1.014h.205v3.99h-.205c-.074-.753-.277-1.25-.609-1.488a1.839 1.839 0 00-1.119-.363h-.229v2.432c0 .406.021.66.064.761a.64.64 0 00.264.27c.133.074.311.111.533.111h.264v.217h-4.154v-.217h.263c.231 0 .416-.041.557-.123a.528.528 0 00.234-.281c.043-.094.065-.34.065-.738v-5.227c0-.406-.022-.66-.065-.762a.569.569 0 00-.263-.263c-.129-.079-.305-.118-.528-.118h-.263v-.216h6.703v2.279h-.24c-.055-.535-.196-.932-.422-1.19-.223-.257-.547-.439-.973-.544-.234-.059-.668-.088-1.301-.088h-.738z" transform="matrix(1.0721 -.1076 .08652 1.3333 -97.42 -305.95)"/><path id="path823" d="M354.64 881.82v2.15h-.211c-.125-.496-.264-.852-.416-1.066a1.6 1.6 0 00-.627-.522c-.149-.07-.409-.105-.78-.105h-.591v6.129c0 .406.021.66.064.761a.64.64 0 00.264.27c.132.074.312.111.539.111h.263v.217h-4.16v-.217h.264c.23 0 .416-.041.557-.123a.564.564 0 00.24-.281c.043-.094.064-.34.064-.738v-6.129h-.574c-.535 0-.924.113-1.166.34-.34.316-.555.767-.645 1.353h-.222v-2.15h7.137z" transform="matrix(1.0756 0 0 1.3376 -22.152 -348.78)"/><path id="path824" d="M346.8 889.55v.217h-4.154v-.217h.263c.231 0 .416-.041.557-.123a.532.532 0 00.234-.281c.043-.094.065-.34.065-.738v-5.227c0-.406-.022-.66-.065-.762a.573.573 0 00-.263-.263c-.129-.079-.305-.118-.528-.118h-.263v-.216h4.154v.216h-.264c-.23 0-.416.041-.556.123a.564.564 0 00-.241.282c-.043.093-.064.34-.064.738v5.227c0 .406.021.66.064.761a.64.64 0 00.264.27c.133.074.311.111.533.111h.264z" transform="matrix(1.0756 0 0 1.3376 -22.555 -348.78)"/><path id="path825" d="M336.73 881.82l3.92 4.927v-3.416c0-.476-.069-.798-.206-.966-.187-.227-.502-.336-.943-.329v-.216h2.625v.216c-.336.043-.562.1-.68.17a.678.678 0 00-.269.334c-.063.153-.094.416-.094.791v6.616h-.199l-5.373-6.616v5.051c0 .457.103.766.31.926.211.16.452.24.721.24h.188v.217h-2.819v-.217c.438-.004.742-.094.914-.269.172-.176.258-.475.258-.897v-5.607l-.17-.211c-.168-.211-.316-.35-.445-.416-.129-.067-.315-.104-.557-.112v-.216h2.819z" transform="matrix(1.0756 0 0 1.3376 -22.957 -348.78)"/><path id="path826" d="M333.61 881.82v.216c-.289.047-.547.202-.773.463-.164.196-.408.655-.733 1.377l-2.736 6.071h-.193l-2.725-6.317c-.328-.762-.549-1.209-.662-1.342-.109-.132-.318-.216-.627-.252v-.216h3.809v.216h-.129c-.344 0-.578.043-.703.129a.29.29 0 00-.135.258c0 .07.015.154.047.252.031.094.136.35.316.768l1.693 3.955 1.571-3.522c.187-.426.303-.711.345-.855a1.34 1.34 0 00.065-.369.527.527 0 00-.094-.311.574.574 0 00-.275-.205c-.168-.066-.391-.1-.668-.1v-.216h2.607z" transform="matrix(1.0747 .05465 -.04394 1.3365 15.894 -366.74)"/><path id="path827" d="M321.03 881.64l.065 2.648h-.241c-.113-.664-.392-1.197-.837-1.599-.442-.406-.92-.61-1.436-.61-.398 0-.715.108-.949.323-.231.211-.346.455-.346.732 0 .176.041.332.123.469.113.183.295.365.545.545.184.129.607.357 1.271.685.93.457 1.557.889 1.881 1.295.321.407.481.871.481 1.395 0 .664-.26 1.236-.779 1.717-.516.476-1.172.714-1.969.714-.25 0-.487-.025-.709-.076a5.327 5.327 0 01-.838-.287 1.273 1.273 0 00-.463-.117.572.572 0 00-.322.117.816.816 0 00-.276.358h-.216v-3h.216c.172.843.502 1.488.991 1.933.492.442 1.021.662 1.587.662.438 0 .786-.119 1.043-.357.262-.238.393-.516.393-.832a1.08 1.08 0 00-.152-.545 1.66 1.66 0 00-.451-.498c-.204-.16-.563-.367-1.079-.621-.722-.356-1.242-.658-1.558-.908a2.829 2.829 0 01-.733-.838 2.1 2.1 0 01-.252-1.02c0-.633.233-1.172.698-1.617s1.05-.668 1.757-.668c.258 0 .508.031.75.094.184.047.407.135.668.263.266.125.452.188.557.188a.31.31 0 00.24-.094c.059-.062.114-.213.164-.451h.176z" transform="matrix(1.0737 .07958 -.064 1.3353 32.323 -374.09)"/><path id="path828" d="M315.27 881.82v.216c-.289.047-.546.202-.773.463-.164.196-.408.655-.732 1.377l-2.737 6.071h-.193l-2.725-6.317c-.328-.762-.549-1.209-.662-1.342-.109-.132-.318-.216-.627-.252v-.216h3.809v.216h-.129c-.344 0-.578.043-.703.129a.29.29 0 00-.135.258c0 .07.016.154.047.252.031.094.137.35.316.768l1.694 3.955 1.57-3.522a9.57 9.57 0 00.346-.855c.043-.145.064-.268.064-.369a.527.527 0 00-.094-.311.574.574 0 00-.275-.205c-.168-.066-.391-.1-.668-.1v-.216h2.607z" transform="matrix(1.0684 .15492 -.12457 1.3286 87.767 -392.06)"/><path id="path829" d="M306.3 881.82v2.15h-.211c-.125-.496-.264-.852-.416-1.066a1.587 1.587 0 00-.627-.522c-.148-.07-.408-.105-.779-.105h-.592v6.129c0 .406.021.66.064.761a.64.64 0 00.264.27c.133.074.312.111.539.111h.264v.217h-4.16v-.217h.263c.231 0 .416-.041.557-.123a.56.56 0 00.24-.281c.043-.094.065-.34.065-.738v-6.129h-.575c-.535 0-.923.113-1.166.34-.34.316-.554.767-.644 1.353h-.223v-2.15h7.137z" transform="matrix(1.0645 .19192 -.15432 1.3238 115.07 -398.65)"/><path id="path832" d="M289.79 889.55v.217h-4.154v-.217h.264c.23 0 .416-.041.556-.123a.534.534 0 00.235-.281c.042-.094.064-.34.064-.738v-5.227c0-.406-.022-.66-.064-.762a.571.571 0 00-.264-.263c-.129-.079-.305-.118-.527-.118h-.264v-.216h4.154v.216h-.264c-.23 0-.416.041-.556.123a.558.558 0 00-.24.282c-.043.093-.065.34-.065.738v5.227c0 .406.022.66.065.761a.632.632 0 00.263.27c.133.074.311.111.533.111h.264z" transform="matrix(1.0454 .31493 -.25324 1.3 207.07 -413.52)"/><path id="path833" d="M285.27 881.82v.216c-.29.047-.547.202-.774.463-.164.196-.408.655-.732 1.377l-2.737 6.071h-.193l-2.725-6.317c-.328-.762-.548-1.209-.662-1.342-.109-.132-.318-.216-.627-.252v-.216h3.809v.216h-.129c-.344 0-.578.043-.703.129a.29.29 0 00-.135.258c0 .07.016.154.047.252.031.094.137.35.316.768l1.694 3.955 1.57-3.522a9.26 9.26 0 00.346-.855c.043-.145.064-.268.064-.369a.527.527 0 00-.094-.311.574.574 0 00-.275-.205c-.168-.066-.391-.1-.668-.1v-.216h2.608z" transform="matrix(1.0402 .34045 -.27376 1.2936 226.33 -414.79)"/><path id="path836" d="M409.38 881.71c1.265-.047 2.293.323 3.082 1.108.793.785 1.189 1.767 1.189 2.947 0 1.008-.295 1.895-.884 2.66-.782 1.016-1.885 1.524-3.311 1.524-1.43 0-2.535-.485-3.316-1.454-.618-.765-.926-1.673-.926-2.724 0-1.18.4-2.162 1.201-2.947.805-.789 1.793-1.161 2.965-1.114zm.07.375c-.726 0-1.279.371-1.658 1.114-.309.609-.463 1.484-.463 2.625 0 1.355.238 2.357.715 3.005.332.454.797.68 1.394.68.403 0 .739-.098 1.008-.293.344-.25.612-.648.803-1.195.191-.551.287-1.268.287-2.151 0-1.05-.098-1.835-.293-2.355-.195-.523-.445-.893-.75-1.107a1.747 1.747 0 00-1.043-.323z" transform="matrix(1.0667 -.1721 .13839 1.3265 -141.19 -275.24)"/><path id="path839" d="M378.71 881.71c1.266-.047 2.293.323 3.082 1.108.793.785 1.189 1.767 1.189 2.947 0 1.008-.294 1.895-.884 2.66-.782 1.016-1.885 1.524-3.311 1.524-1.43 0-2.535-.485-3.316-1.454-.617-.765-.926-1.673-.926-2.724 0-1.18.4-2.162 1.201-2.947.805-.789 1.793-1.161 2.965-1.114zm.07.375c-.726 0-1.279.371-1.658 1.114-.308.609-.463 1.484-.463 2.625 0 1.355.239 2.357.715 3.005.332.454.797.68 1.395.68.402 0 .738-.098 1.007-.293.344-.25.612-.648.803-1.195.192-.551.287-1.268.287-2.151 0-1.05-.097-1.835-.293-2.355-.195-.523-.445-.893-.75-1.107a1.745 1.745 0 00-1.043-.323z" transform="matrix(1.0721 -.1076 .08652 1.3333 -97.42 -305.95)"/><path id="path842" d="M386.6 886.15v2.226c0 .43.025.702.076.815a.604.604 0 00.281.264c.133.066.381.099.744.099v.217h-4.066v-.217c.367 0 .615-.033.744-.099a.594.594 0 00.275-.27c.055-.109.082-.379.082-.809v-5.156c0-.43-.027-.699-.082-.808-.05-.114-.142-.204-.275-.27s-.381-.1-.744-.1v-.216h3.691c.961 0 1.664.066 2.11.199.445.133.808.379 1.09.738.281.356.421.774.421 1.254 0 .586-.211 1.07-.632 1.453-.27.242-.647.424-1.131.545l1.91 2.69c.25.347.428.564.533.65.16.121.346.187.557.199v.217h-2.502l-2.561-3.621h-.521zm0-3.897v3.481h.334c.543 0 .949-.049 1.218-.147.27-.101.481-.281.633-.539.157-.261.235-.601.235-1.019 0-.606-.143-1.053-.428-1.342-.281-.289-.736-.434-1.365-.434h-.627z" transform="matrix(1.0667 -.1721 .13839 1.3265 -141.19 -275.24)"/><path id="path845" d="M417.27 886.15v2.226c0 .43.025.702.076.815a.6.6 0 00.281.264c.133.066.381.099.744.099v.217h-4.066v-.217c.367 0 .615-.033.744-.099a.6.6 0 00.275-.27c.055-.109.082-.379.082-.809v-5.156c0-.43-.027-.699-.082-.808-.051-.114-.142-.204-.275-.27s-.381-.1-.744-.1v-.216h3.691c.961 0 1.664.066 2.109.199.446.133.809.379 1.09.738.282.356.422.774.422 1.254 0 .586-.211 1.07-.633 1.453-.269.242-.646.424-1.13.545l1.91 2.69c.25.347.427.564.533.65.16.121.346.187.557.199v.217h-2.502l-2.561-3.621h-.521zm0-3.897v3.481h.334c.543 0 .949-.049 1.218-.147.27-.101.481-.281.633-.539.156-.261.234-.601.234-1.019 0-.606-.142-1.053-.427-1.342-.282-.289-.737-.434-1.365-.434h-.627z" transform="matrix(1.0417 -.33296 .26773 1.2955 -245.66 -181.16)"/><path id="path848" d="M293.25 886.15v2.226c0 .43.025.702.076.815a.609.609 0 00.281.264c.133.066.381.099.745.099v.217h-4.067v-.217c.367 0 .615-.033.744-.099a.602.602 0 00.276-.27c.054-.109.082-.379.082-.809v-5.156c0-.43-.028-.699-.082-.808a.558.558 0 00-.276-.27c-.132-.066-.381-.1-.744-.1v-.216h3.692c.961 0 1.664.066 2.109.199s.809.379 1.09.738c.281.356.422.774.422 1.254 0 .586-.211 1.07-.633 1.453-.27.242-.647.424-1.131.545l1.91 2.69c.25.347.428.564.533.65a.998.998 0 00.557.199v.217h-2.502l-2.56-3.621h-.522zm0-3.897v3.481h.334c.543 0 .949-.049 1.219-.147a1.22 1.22 0 00.633-.539c.156-.261.234-.601.234-1.019 0-.606-.143-1.053-.428-1.342-.281-.289-.736-.434-1.365-.434h-.627z" transform="matrix(1.0633 .20168 -.16217 1.3223 122.81 -400.27)"/><path id="path851" d="M360.07 887.51h-2.806l-.334.774c-.11.257-.164.47-.164.638 0 .223.089.387.269.493.106.062.365.109.779.14v.217h-2.642v-.217c.285-.043.519-.16.703-.351.184-.196.41-.596.68-1.202l2.842-6.339h.111l2.865 6.515c.274.617.498 1.006.674 1.166.133.121.32.192.562.211v.217h-3.843v-.217h.158c.308 0 .525-.043.65-.129a.312.312 0 00.129-.269.728.728 0 00-.035-.217 5.355 5.355 0 00-.176-.44l-.422-.99zm-.199-.433l-1.183-2.737-1.219 2.737h2.402z" transform="matrix(1.0746 -.05638 .04534 1.3364 -62.366 -327.47)"/></g><g id="g658" fill-rule="evenodd" transform="matrix(.38925 0 0 .37394 196.25 536.23)"><path id="rect584" fill="#fff600" d="M407.48 556.3h177.17v177.17H407.48z"/><path id="rect565" fill="#cc1900" d="M432.79 379.13h25.309V556.3H432.79z"/><path id="rect566" fill="#cc1900" d="M483.41 379.13h25.309V556.3H483.41z"/><path id="rect567" fill="#cc1900" d="M534.03 379.13h25.309V556.3H534.03z"/><path id="rect570" fill="#fff600" d="M407.48 379.13h25.309V556.3H407.48z"/><path id="rect571" fill="#fff600" d="M458.1 379.13h25.309V556.3H458.1z"/><path id="rect572" fill="#fff600" d="M508.72 379.13h25.309V556.3H508.72z"/><path id="rect573" fill="#fff600" d="M559.34 379.13h25.309V556.3H559.34z"/><path id="rect574" fill="#cc1900" d="M271.65 574.02h19.685v159.45H271.65z"/><path id="rect575" fill="#cc1900" d="M311.02 574.02h19.685v159.45H311.02z"/><path id="rect576" fill="#cc1900" d="M350.39 574.02h19.685v159.45H350.39z"/><path id="rect577" fill="#fff600" d="M251.97 574.02h19.685v159.45H251.97z"/><path id="rect578" fill="#fff600" d="M291.34 574.02h19.685v159.45H291.34z"/><path id="rect579" fill="#fff600" d="M330.71 574.02h19.685v159.45H330.71z"/><path id="rect580" fill="#fff600" d="M370.08 574.02h19.685v159.45H370.08z"/><path id="rect581" fill="#cc1900" d="M232.28 574.02h19.685v159.45H232.28z"/><path id="rect582" fill="#fff600" d="M212.6 574.02h19.685v159.45H212.6z"/><path id="rect583" fill="#cc1900" d="M212.6 379.13h177.17V556.3H212.6z"/><path id="path597" d="M274.92 206.71c8.913-4.302 8.549-19.089 8.549-31.313 0-24.449-19.843-44.292-44.292-44.292s-44.291 17.488-44.291 41.937l-17.717 11.213h26.52l-26.52 17.717h35.433l-248.03 318.9 17.717 17.717 248.03-318.9c6.549-8.42 0-17.716-9.158-24.793-10.805-8.349-8.559-10.64-8.559-21.579 0-15.936 11.906-24.494 26.575-24.494s26.575 11.905 26.575 26.575c0 7.335-1.502 16.184-7.787 18.788-9.93 7.787 7.787 25.503 16.955 12.525z" transform="matrix(.38555 .0508 -.04544 .34484 277.44 345.95)" stroke-width="1pt" fill="#fff600"/><path id="path564" d="M194.88 361.42v336.61c0 35.434 16.978 53.15 50.934 53.15h118.85c33.957 0 33.957 35.433 33.957 35.433s0-35.433 33.956-35.433h118.85c33.957 0 50.935-17.716 50.935-53.15V361.42h-407.48zm17.716 17.717v177.16h177.17v-177.16h-177.17zm194.88 0v177.16h177.17v-177.16h-177.17zm-194.88 194.88v106.3c0 35.434 16.978 53.15 50.934 53.15h126.231v-159.45h-177.16zm372.05 0v106.3c0 35.434-16.977 53.15-50.934 53.15H407.481v-159.45h177.16z" stroke="#000" stroke-width="1pt" fill="#cba323"/><path id="path585" d="M283.46 396.85l-53.149 50.619 16.354 91.114h73.591l16.354-91.114-53.15-50.619z" transform="matrix(.66667 0 0 .75 112.2 99.215)" fill="#fff"/><path id="path586" d="M283.46 406.97l-44.291 40.495 17.717 80.99h26.574v-121.48zm8.859 0v121.48h26.575l17.716-80.99-44.291-40.495z" transform="matrix(.61539 0 0 .7 124.02 126.14)" fill="#fff600"/><path id="path587" d="M212.6 201.97h-17.716s8.858 35.433 17.716 35.433c35.433 0 106.48-51.679 106.3-35.433 0 35.433-17.717 17.716-17.717 35.433 0 17.716 35.433 0 35.433-17.717 0-17.716 0-35.433-17.716-35.433-17.717 0-69.229 35.671-88.583 35.433-17.717 0-17.717-17.716-17.717-17.716z" transform="matrix(.5 0 0 .41421 203.74 419.49)" fill="#fffbff"/><path id="path588" d="M212.6 201.97h-17.716s8.858 35.433 17.716 35.433c35.433 0 106.48-51.679 106.3-35.433 0 35.433-17.717 17.716-17.717 35.433 0 17.716 35.433 0 35.433-17.717 0-17.716 0-35.433-17.716-35.433-17.717 0-69.229 35.671-88.583 35.433-17.717 0-17.717-17.716-17.717-17.716z" transform="matrix(-.5 0 0 .41421 398.62 419.49)" fill="#fffbff"/><g id="g657" transform="matrix(.38048 0 0 .3217 515.51 448.82)"><g id="g616" transform="translate(-2.506 -84.936)"><path id="path612" d="M21.492 576.05c-7.427 34.645 20.38 41.87 6.183 55.682l-45.787 44.542-17.323-3.713 28.464-48.257c9.487-16.084 31.025-60.207 28.463-48.255z" stroke="#fff600" stroke-width="5" fill="#cc1900"/><path id="path607" d="M35.433 423.42c0 3.667 2.242 31.888 0 35.067-2.242 3.179-8.969-18.684-12.977-16.279-4.008 2.405-7.603 24.158-12.902 25.504-5.298 1.35-12.3-17.71-18.412-17.71-6.112 0-11.937 19.062-17.235 17.717-5.298-1.346-10.071-23.099-14.079-25.504-4.008-2.405-10.735 19.458-12.977 16.279-2.242-3.179 0-31.4 0-35.067 0-14.669 19.842-26.575 44.291-26.575s44.291 11.906 44.291 26.575z" transform="matrix(.7824 0 0 .50048 24.647 401.29)" stroke="#fff600" stroke-width="7.99" fill="#cc1900"/><path id="path605" d="M-70.866 423.42c0 14.669-12.827 26.575-17.717 26.575-4.89 0 0-11.906 0-26.575s-4.89-26.575 0-26.575 17.717 11.906 17.717 26.575z" transform="matrix(.71447 -.39551 .69966 .40388 -390.91 291.35)" stroke-width="1pt" fill="#008d00"/><path id="path602" d="M-114.539 589.274l-44.917 28.415 28.415 44.917 14.972-9.472-18.943-29.944 29.945-18.943-9.471-14.972z" stroke="#fff600" stroke-width="5" fill="#cc1900"/><path id="path599" d="M70.866 574.02c0 35.433 28.704 36.668 17.717 53.149l-35.433 53.15H35.434l17.716-53.15c5.905-17.716-17.716-35.433-70.866 0-12.224 0-70.866-8.963-70.866 0v53.15h-17.716v-53.15c0-6.941-35.433-53.149-35.433-70.866 0-12.224-53.15 0-53.15-17.716 0-8.859 35.433-17.717 35.433-35.433 0-17.717 35.433 0 53.15 0 0 17.716-17.717 35.433 17.716 35.433 24.449 0 177.17 0 177.17 17.716 0 17.717-17.717 5.493-17.717 17.717z" stroke="#fff600" stroke-width="5" fill="#cc1900"/><path id="path608" d="M-70.866 423.42c0 14.669-12.827 26.575-17.717 26.575-4.89 0 0-11.906 0-26.575s-4.89-26.575 0-26.575 17.717 11.906 17.717 26.575z" transform="matrix(.3385 -.70209 .65562 -.00456 -354.02 632.49)" stroke-width="1pt" fill="#008d00"/><path id="path609" d="M-70.866 423.42c0 14.669-12.827 26.575-17.717 26.575-4.89 0 0-11.906 0-26.575s-4.89-26.575 0-26.575 17.717 11.906 17.717 26.575z" transform="matrix(.3385 -.70209 .65562 -.00456 -212.29 632.49)" stroke-width="1pt" fill="#008d00"/><path id="path610" d="M-70.866 423.42c0 14.669-12.827 26.575-17.717 26.575-4.89 0 0-11.906 0-26.575s-4.89-26.575 0-26.575 17.717 11.906 17.717 26.575z" transform="matrix(-.13112 -.76832 .53161 -.38374 -357.18 763.6)" stroke-width="1pt" fill="#008d00"/><path id="path613" d="M-70.866 423.42c0 14.669-12.827 26.575-17.717 26.575-4.89 0 0-11.906 0-26.575s-4.89-26.575 0-26.575 17.717 11.906 17.717 26.575z" transform="matrix(.31961 -.71089 .65527 -.02208 -282.41 624.63)" stroke-width="1pt" fill="#008d00"/><path id="rect614" transform="rotate(-37.469)" fill="#008d00" d="M-458.49 354.1h53.15v17.717h-53.15z"/><path id="path615" d="M-17.717 503.15c0 39.138-11.898 70.866-26.575 70.866s-26.575-31.728-26.575-70.866 11.898-70.866 26.575-70.866 26.575 31.728 26.575 70.866z" transform="matrix(.20249 0 0 .125 -127.38 519.98)" fill="#008d00"/></g><path id="path629" d="M47.995 681.85c34.086.02 34.086 12.901 19.835 12.901-19.835 0-67.83 4.38-67.83 3.28 0-1.103-16.484-14.203-16.484-14.203-1.232-3.513 1.177 14.128-1.232 14.203-2.41.074-16.43-15.381-16.43-15.381s1.288 15.232 0 15.307c-1.287.074-17.66-9.42-17.66-9.42l-1.178 8.242-15.306 9.42 15.306 10.597v8.242l15.306-8.242 1.178 15.306 18.839-15.306s4.764 16.299 2.354 16.484c-2.41.185 16.484-16.484 16.484-16.484-1.178-1.05 54.051 0 87.405-1.05 33.355-1.048 32.747-51.937 17.717-53.15-15.032-1.213-58.305 3.33-58.305-.203" transform="matrix(.51976 0 0 .7472 25.698 -30.033)" stroke="#fff600" stroke-width="5.055" fill="#cc1900"/></g><g id="g671" transform="matrix(.38048 0 0 .3217 515.51 519.69)"><g id="g672" transform="translate(-2.506 -84.936)"><path id="path673" d="M21.492 576.05c-7.427 34.645 20.38 41.87 6.183 55.682l-45.787 44.542-17.323-3.713 28.464-48.257c9.487-16.084 31.025-60.207 28.463-48.255z" stroke="#fff600" stroke-width="5" fill="#cc1900"/><path id="path674" d="M35.433 423.42c0 3.667 2.242 31.888 0 35.067-2.242 3.179-8.969-18.684-12.977-16.279-4.008 2.405-7.603 24.158-12.902 25.504-5.298 1.35-12.3-17.71-18.412-17.71-6.112 0-11.937 19.062-17.235 17.717-5.298-1.346-10.071-23.099-14.079-25.504-4.008-2.405-10.735 19.458-12.977 16.279-2.242-3.179 0-31.4 0-35.067 0-14.669 19.842-26.575 44.291-26.575s44.291 11.906 44.291 26.575z" transform="matrix(.7824 0 0 .50048 24.647 401.29)" stroke="#fff600" stroke-width="7.99" fill="#cc1900"/><path id="path675" d="M-70.866 423.42c0 14.669-12.827 26.575-17.717 26.575-4.89 0 0-11.906 0-26.575s-4.89-26.575 0-26.575 17.717 11.906 17.717 26.575z" transform="matrix(.71447 -.39551 .69966 .40388 -390.91 291.35)" stroke-width="1pt" fill="#008d00"/><path id="path676" d="M-114.539 589.274l-44.917 28.415 28.415 44.917 14.972-9.472-18.943-29.944 29.945-18.943-9.471-14.972z" stroke="#fff600" stroke-width="5" fill="#cc1900"/><path id="path677" d="M70.866 574.02c0 35.433 28.704 36.668 17.717 53.149l-35.433 53.15H35.434l17.716-53.15c5.905-17.716-17.716-35.433-70.866 0-12.224 0-70.866-8.963-70.866 0v53.15h-17.716v-53.15c0-6.941-35.433-53.149-35.433-70.866 0-12.224-53.15 0-53.15-17.716 0-8.859 35.433-17.717 35.433-35.433 0-17.717 35.433 0 53.15 0 0 17.716-17.717 35.433 17.716 35.433 24.449 0 177.17 0 177.17 17.716 0 17.717-17.717 5.493-17.717 17.717z" stroke="#fff600" stroke-width="5" fill="#cc1900"/><path id="path678" d="M-70.866 423.42c0 14.669-12.827 26.575-17.717 26.575-4.89 0 0-11.906 0-26.575s-4.89-26.575 0-26.575 17.717 11.906 17.717 26.575z" transform="matrix(.3385 -.70209 .65562 -.00456 -354.02 632.49)" stroke-width="1pt" fill="#008d00"/><path id="path679" d="M-70.866 423.42c0 14.669-12.827 26.575-17.717 26.575-4.89 0 0-11.906 0-26.575s-4.89-26.575 0-26.575 17.717 11.906 17.717 26.575z" transform="matrix(.3385 -.70209 .65562 -.00456 -212.29 632.49)" stroke-width="1pt" fill="#008d00"/><path id="path680" d="M-70.866 423.42c0 14.669-12.827 26.575-17.717 26.575-4.89 0 0-11.906 0-26.575s-4.89-26.575 0-26.575 17.717 11.906 17.717 26.575z" transform="matrix(-.13112 -.76832 .53161 -.38374 -357.18 763.6)" stroke-width="1pt" fill="#008d00"/><path id="path681" d="M-70.866 423.42c0 14.669-12.827 26.575-17.717 26.575-4.89 0 0-11.906 0-26.575s-4.89-26.575 0-26.575 17.717 11.906 17.717 26.575z" transform="matrix(.31961 -.71089 .65527 -.02208 -282.41 624.63)" stroke-width="1pt" fill="#008d00"/><path id="rect682" transform="rotate(-37.469)" fill="#008d00" d="M-458.49 354.1h53.15v17.717h-53.15z"/><path id="path683" d="M-17.717 503.15c0 39.138-11.898 70.866-26.575 70.866s-26.575-31.728-26.575-70.866 11.898-70.866 26.575-70.866 26.575 31.728 26.575 70.866z" transform="matrix(.20249 0 0 .125 -127.38 519.98)" fill="#008d00"/></g><path id="path684" d="M47.995 681.85c34.086.02 34.086 12.901 19.835 12.901-19.835 0-67.83 4.38-67.83 3.28 0-1.103-16.484-14.203-16.484-14.203-1.232-3.513 1.177 14.128-1.232 14.203-2.41.074-16.43-15.381-16.43-15.381s1.288 15.232 0 15.307c-1.287.074-17.66-9.42-17.66-9.42l-1.178 8.242-15.306 9.42 15.306 10.597v8.242l15.306-8.242 1.178 15.306 18.839-15.306s4.764 16.299 2.354 16.484c-2.41.185 16.484-16.484 16.484-16.484-1.178-1.05 54.051 0 87.405-1.05 33.355-1.048 32.747-51.937 17.717-53.15-15.032-1.213-58.305 3.33-58.305-.203" transform="matrix(.51976 0 0 .7472 25.698 -30.033)" stroke="#fff600" stroke-width="5.055" fill="#cc1900"/></g></g></g></g></svg>