<svg id="svg548" xmlns="http://www.w3.org/2000/svg" height="480" width="640" version="1.1"><defs id="defs1346"><clipPath id="clipPath9925" clipPathUnits="userSpaceOnUse"><path id="rect9927" fill-opacity=".67" d="M0 0h640v480H0z"/></clipPath></defs><g id="g7603" clip-path="url(#clipPath9925)"><g id="g4539" transform="translate(155.92) scale(.9375)"><path id="rect1310" fill-rule="evenodd" stroke-width="1pt" fill="#fff" d="M-165.86.449h429.52v256.07h-429.52z"/><path id="path549" d="M-165.86.45l-.018 19.219 102.5 63.22 38.565 1.342-141.05-83.78z" fill="#c00"/><path id="path551" d="M-121.97.45L2.29 78.366V.45h-124.26z" fill="#006"/><path id="path552" d="M18.866.45v99.468h-184.73v56.839h184.73v99.468h56.839v-99.468h184.73v-56.84H75.705V.45H18.866z" fill="#c00"/><path id="path554" d="M92.283.45v73.417l121.57-72.848-121.57-.57z" fill="#006"/><path id="path555" d="M96.12 81.871l34.19-.33L263.13 1.019l-35.24.689L96.12 81.87z" fill="#c00"/><path id="path556" d="M261.78 22.495L160.32 82.89l100.11.45v89.995h-85.258l84.47 54.942 1.239 27.948-45.116-.647-123.48-72.77v73.417H2.29v-73.417l-115.83 73.22-52.315.197v255.78h852.58V.455l-424.04-.46m-428.54 28.869l-.45 53.12 89.757 1.35-89.307-54.47z" fill="#006"/><path id="path700" d="M-165.86 173.33v54.471l85.258-53.902-85.258-.569z" fill="#006"/><path id="path701" d="M162.45 175.58l-35.543-.331 133.97 80.072-.881-18.32-97.55-61.421zm-295.02 81.091l125.62-79.172-32.994.263-125.92 78.79" fill="#c00"/></g><g id="g5283" transform="translate(-20.748 -474.95) scale(2.0302)"><path id="path557" d="M269 356l1 1-1-1z" fill="#49497d"/><path id="path558" d="M270 356l1 1-1-1z" fill="#0e0e6e"/><path id="path559" d="M267 357l1 1-1-1z" fill="#262678"/><path id="path560" d="M268 357l1 1-1-1z" fill="#808067"/><path id="path562" d="M271 357l1 1-1-1z" fill="#58587b"/><path id="path563" d="M234 358l1 1-1-1z" fill="#0e0e6e"/><path id="path564" d="M265 358l1 1-1-1z" fill="#1b1b74"/><path id="path565" d="M266 358l1 1-1-1z" fill="#6e6c70"/><path id="path567" d="M235.76 359.81c0 25.838-2.978 54.955 16.28 75.19 3.962 4.163 11.499 13.656 17.96 13.292 6.764-.381 15.462-10.39 19.331-15.292 16.764-22.052 14.099-48.355 14.669-73.95-7.57 3.4-11.34 4.52-17.96 4.5-4.903.504-12.467-2.792-16.99-4.948-2.956 1.974-7.244 4.328-14.95 4.593-8.9.391-11.72-1.117-18.34-3.385z" fill="#cc3"/><path id="path568" d="M272 358l1 1-1-1z" fill="#99994e"/><path id="path569" d="M273 358l1 1-1-1z" fill="#49497d"/><path id="path570" d="M304 358l1 1-1-1z" fill="#0e0e6e"/><path id="path572" d="M235 359l1 1-1-1z" fill="#a4a43d"/><path id="path573" d="M236 359l1 1-1-1z" fill="#6e6c70"/><path id="path574" d="M237 359l1 1-1-1z" fill="#3a3a7c"/><path id="path575" d="M263 359l1 1-1-1z" fill="#1b1b74"/><path id="path576" d="M264 359l1 1-1-1z" fill="#6e6c70"/><path id="path577" d="M265 359l1 1-1-1z" fill="#a4a43d"/><path id="path578" d="M269 359l1 1-1-1z" fill="#d0d045"/><path id="path579" d="M273 359l1 1-1-1z" fill="#a4a43d"/><path id="path580" d="M274 359l1 1-1-1z" fill="#8d8d5b"/><path id="path581" d="M275 359l1 1-1-1z" fill="#3a3a7c"/><path id="path582" d="M301 359l1 1-1-1z" fill="#262678"/><path id="path583" d="M302 359l1 1-1-1z" fill="#53527c"/><path id="path584" d="M303 359l1 1-1-1z" fill="#8d8d5b"/><path id="path586" d="M239 360l1 1-1-1z" fill="#737370"/><path id="path587" d="M240 360l1 1-1-1z" fill="#53527c"/><path id="path588" d="M241 360l1 1-1-1z" fill="#1b1b74"/><path id="path589" d="M261 360l1 1-1-1z" fill="#262678"/><path id="path590" d="M262 360l1 1-1-1z" fill="#6e6c70"/><path id="path591" d="M263 360l1 1-1-1z" fill="#a4a43d"/><path id="path592" d="M268 360l1 1-1-1z" fill="#e5e59d"/><path id="path593" d="M237.81 362.62c-.538 13.573-.125 28.857 1.997 43.38 2.346 7.587 2.032 11.755 5.518 16.302l48.798-.38c2.94-4.784 5.121-12.038 5.402-14.922 2.725-14.667 2.79-30.853 2.855-45.33-4.907 2.608-11.333 4.457-17.57 3.646-5-.381-9.62-1.523-15-4.563-4.667 2.796-6.294 4.072-14 4.398-6 .296-10.86.782-18-2.531z" fill="#fff"/><path id="path594" d="M270 360l1 1-1-1z" fill="#f2f1d7"/><path id="path595" d="M271 360l1 1-1-1z" fill="#d9d868"/><path id="path596" d="M275 360l1 1-1-1z" fill="#a4a43d"/><path id="path597" d="M276 360l1 1-1-1z" fill="#99994e"/><path id="path598" d="M277 360l1 1-1-1z" fill="#49497d"/><path id="path599" d="M278 360l1 1-1-1z" fill="#0e0e6e"/><path id="path600" d="M298 360l1 1-1-1z" fill="#3a3a7c"/><path id="path601" d="M299 360l1 1-1-1z" fill="#667"/><path id="path602" d="M300 360l1 1-1-1z" fill="#99994e"/><path id="path603" d="M301 360l1 1-1-1m-60 1l1 1-1-1z" fill="#a4a43d"/><path id="path604" d="M242 361l1 1-1-1z" fill="#99994e"/><path id="path605" d="M243 361l1 1-1-1z" fill="#6e6c70"/><path id="path606" d="M244 361l1 1-1-1z" fill="#49497d"/><path id="path607" d="M245 361l1 1-1-1m13 0l1 1-1-1z" fill="#1b1b74"/><path id="path608" d="M259 361l1 1-1-1z" fill="#53527c"/><path id="path609" d="M260 361l1 1-1-1z" fill="#8d8d5b"/><path id="path610" d="M261 361l1 1-1-1z" fill="#a4a43d"/><path id="path611" d="M266 361l1 1-1-1z" fill="#e5e59d"/><path id="path612" d="M267 361l1 1-1-1z" fill="#fbfaf2"/><path id="path613" d="M272 361l1 1-1-1z" fill="#f2f1d2"/><path id="path614" d="M273 361l1 1-1-1z" fill="#d9d868"/><path id="path615" d="M278 361l1 1-1-1z" fill="#a4a43d"/><path id="path616" d="M279 361l1 1-1-1z" fill="#6e6c70"/><path id="path617" d="M280 361l1 1-1-1z" fill="#3a3a7c"/><path id="path618" d="M293 361l1 1-1-1z" fill="#0e0e6e"/><path id="path619" d="M294 361l1 1-1-1z" fill="#32327b"/><path id="path620" d="M295 361l1 1-1-1z" fill="#58587b"/><path id="path621" d="M296 361l1 1-1-1z" fill="#808067"/><path id="path622" d="M297.67 361.33l.666.333-.666-.333z" fill="#a4a43d"/><path id="path624" d="M237 362l1 1-1-1z" fill="#dddc7a"/><path id="path625" d="M238 362l1 1-1-1z" fill="#d0d045"/><path id="path626" d="M245.67 362.33l.666.333-.666-.333z" fill="#a4a43d"/><path id="path627" d="M247 362l1 1-1-1z" fill="#808067"/><path id="path628" d="M248 362l1 1-1-1z" fill="#667"/><path id="path629" d="M249 362l1 1-1-1z" fill="#58587b"/><path id="path630" d="M250 362l1 1-1-1z" fill="#49497d"/><path id="path634" d="M256 362l1 1-1-1z" fill="#737370"/><path id="path635" d="M257 362l1 1-1-1z" fill="#99994e"/><path id="path636" d="M258 362l1 1-1-1z" fill="#a4a43d"/><path id="path637" d="M264 362l1 1-1-1z" fill="#e5e59d"/><path id="path638" d="M265 362l1 1-1-1z" fill="#fbfaf2"/><path id="path639" d="M274 362l1 1-1-1z" fill="#f2f1d2"/><path id="path640" d="M275 362l1 1-1-1z" fill="#d9d868"/><path id="path641" d="M280.67 362.33l.666.333-.666-.333z" fill="#a4a43d"/><path id="path642" d="M282 362l1 1-1-1z" fill="#808067"/><path id="path643" d="M283 362l1 1-1-1z" fill="#667"/><path id="path644" d="M284 362l1 1-1-1z" fill="#58587b"/><path id="path645" d="M285 362l1 1-1-1z" fill="#3a3a7c"/><path id="path647" d="M289.67 362.33l.666.333-.666-.333z" fill="#58587b"/><path id="path648" d="M291 362l1 1-1-1z" fill="#737370"/><path id="path649" d="M292 362l1 1-1-1z" fill="#99994e"/><path id="path650" d="M293 362l1 1-1-1z" fill="#a4a43d"/><path id="path651" d="M301 362l1 1-1-1z" fill="#dddc7a"/><path id="path652" d="M302 362l1 1-1-1z" fill="#d0d045"/><path id="path654" d="M239 363l1 1-1-1z" fill="#f2f1d7"/><path id="path655" d="M240 363l1 1-1-1z" fill="#e0dea1"/><path id="path656" d="M241 363l1 1-1-1z" fill="#dddc7a"/><path id="path657" d="M261 363l1 1-1-1z" fill="#d9d868"/><path id="path658" d="M262 363l1 1-1-1z" fill="#e5e3af"/><path id="path659" d="M276 363l1 1-1-1z" fill="#f6f6e4"/><path id="path660" d="M277 363l1 1-1-1z" fill="#e1e18c"/><path id="path661" d="M297 363l1 1-1-1z" fill="#d4d456"/><path id="path662" d="M298 363l1 1-1-1z" fill="#e1e18c"/><path id="path663" d="M299 363l1 1-1-1z" fill="#eeedc1"/><path id="path665" d="M243 364l1 1-1-1z" fill="#f2f1d2"/><path id="path666" d="M244 364l1 1-1-1z" fill="#e0dea1"/><path id="path667" d="M245 364l1 1-1-1z" fill="#dddc7a"/><path id="path668" d="M246 364l1 1-1-1z" fill="#d0d045"/><path id="path669" d="M258 364l1 1-1-1z" fill="#dddc7a"/><path id="path670" d="M259 364l1 1-1-1z" fill="#e5e3af"/><path id="path671" d="M260 364l1 1-1-1z" fill="#f6f6e4"/><path id="path672" d="M279 364l1 1-1-1z" fill="#eeedc1"/><path id="path673" d="M280 364l1 1-1-1z" fill="#e1e18c"/><path id="path674" d="M281 364l1 1-1-1z" fill="#d4d456"/><path id="path675" d="M293 364l1 1-1-1z" fill="#d9d868"/><path id="path676" d="M294 364l1 1-1-1z" fill="#e1e18c"/><path id="path677" d="M295 364l1 1-1-1z" fill="#eeedc1"/><path id="path678" d="M296 364l1 1-1-1z" fill="#f6f6e4"/><path id="path679" d="M248 365l1 1-1-1z" fill="#f2f1d7"/><path id="path680" d="M249 365l1 1-1-1z" fill="#f2f1d2"/><path id="path681" d="M250 365l1 1-1-1z" fill="#eeedc1"/><path id="path683" d="M254.67 365.33l.666.333-.666-.333z" fill="#f2f1d2"/><path id="path684" d="M256 365l1 1-1-1z" fill="#fbfaf2"/><path id="path685" d="M261 365l2 2v-2h-2z" fill="#fef8f1"/><path id="path686" d="M283 365l1 1-1-1z" fill="#f2f1d7"/><path id="path687" d="M284 365l1 1-1-1z" fill="#f2f1d2"/><path id="path688" d="M285 365l1 1-1-1z" fill="#e5e3af"/><path id="path689" d="M286.67 365.33l.666.333-.666-.333z" fill="#e5e59d"/><path id="path690" d="M288 365l1 1-1-1z" fill="#e0dea1"/><path id="path691" d="M289.67 365.33l.666.333-.666-.333z" fill="#f2f1d2"/><path id="path692" d="M291 365l1 1-1-1z" fill="#fbfaf2"/><path id="path693" d="M259 366l1 1-1-1z" fill="#fef8f1"/><path id="path694" d="M260 366l1 1-1-1z" fill="#fbbe66"/><path id="path696" d="M259 367l1 1-1-1z" fill="#fbc477"/><path id="path697" d="M261 367l1 1-1-1z" fill="#fcb144"/><path id="path698" d="M259 368l1 1-1-1z" fill="#fe9f11"/><path id="path699" d="M261 368l1 1-1-1z" fill="#fea522"/><path id="path702" d="M258 369l1 1-1-1m4 0l1 1-1-1z" fill="#fae3c9"/><path id="path703" d="M267 369l1 1-1-1z" fill="#fbead6"/><path id="path704" d="M268 369l1 1-1-1z" fill="#f9d6aa"/><path id="path706" d="M272 369l1 1-1-1z" fill="#fae3c9"/><path id="path707" d="M273 369l1 1-1-1z" fill="#fef8f1"/><path id="path708" d="M258 370l1 1-1-1z" fill="#f9d099"/><path id="path709" d="M262 370l1 1-1-1z" fill="#fdab33"/><path id="path710" d="M264 370l1 1-1-1z" fill="#fcf1e4"/><path id="path711" d="M265 370l1 1-1-1z" fill="#fbc477"/><path id="path712" d="M266 370l1 1-1-1z" fill="#fea522"/><path id="path713" d="M274 370l1 1-1-1z" fill="#fcb755"/><path id="path714" d="M275 370l1 1-1-1z" fill="#f9d6aa"/><path id="path715" d="M258 371l1 1-1-1z" fill="#faca88"/><path id="path716" d="M263 371l1 1-1-1m13 0l1 1-1-1z" fill="#fea522"/><path id="path717" d="M277 371l1 1-1-1z" fill="#f8dcbb"/><path id="path718" d="M237 372l1 1-1-1z" fill="#f6f6e4"/><path id="path719" d="M258 372l1 1-1-1z" fill="#fbc477"/><path id="path720" d="M278 372l1 1-1-1z" fill="#fbbe66"/><path id="path721" d="M279 372l1 1-1-1z" fill="#f8dcbb"/><path id="path722" d="M258 373l1 1-1-1z" fill="#faca88"/><path id="path723" d="M281 373l1 1-1-1z" fill="#fcb755"/><path id="path724" d="M282 373l1 1-1-1z" fill="#f8dcbb"/><path id="path725" d="M257 374l1 1-1-1z" fill="#fef8f1"/><path id="path726" d="M258 374l1 1-1-1z" fill="#fe9f11"/><path id="path727" d="M286 374l1 1-1-1z" fill="#fdab33"/><path id="path728" d="M287 374l1 1-1-1z" fill="#fcb144"/><path id="path729" d="M288 374l1 1-1-1z" fill="#fbc477"/><path id="path730" d="M289 374l2 2-2-2z" fill="#f9d6aa"/><path id="path731" d="M290 374l1 1-1-1z" fill="#fef8f1"/><path id="path732" d="M257 375l1 1-1-1z" fill="#fcb144"/><path id="path733" d="M271 375l1 1-1-1z" fill="#fdab33"/><path id="path734" d="M272 375l1 1-1-1z" fill="#fbc477"/><path id="path736" d="M276 375l1 1-1-1z" fill="#fbc477"/><path id="path737" d="M277 375l1 1-1-1z" fill="#fea522"/><path id="path738" d="M256 376l1 1-1-1z" fill="#fae3c9"/><path id="path739" d="M269 376l1 1-1-1z" fill="#fcb144"/><path id="path740" d="M270 376l1 1-1-1z" fill="#fae3c9"/><path id="path742" d="M278 376l1 1-1-1z" fill="#f8dcbb"/><path id="path743" d="M279 376l1 1-1-1z" fill="#fdab33"/><path id="path744" d="M285 376l1 1-1-1z" fill="#fe9f11"/><path id="path745" d="M286 376l1 1-1-1z" fill="#fcb755"/><path id="path746" d="M287 376l1 1-1-1z" fill="#f9d099"/><path id="path747" d="M288 376l1 1-1-1z" fill="#fbead6"/><path id="path748" d="M256 377l1 1-1-1z" fill="#fcb144"/><path id="path749" d="M268 377l1 1-1-1z" fill="#fbbe66"/><path id="path750" d="M280 377l1 1-1-1z" fill="#f9d099"/><path id="path751" d="M284 377l1 1-1-1z" fill="#fbead6"/><path id="path752" d="M255 378l1 1-1-1z" fill="#fcf1e4"/><path id="path753" d="M267 378l1 1-1-1z" fill="#fbbe66"/><path id="path754" d="M281 378l1 1-1-1z" fill="#f9d099"/><path id="path755" d="M284 378l1 1-1-1z" fill="#fae3c9"/><path id="path756" d="M255 379l1 1-1-1z" fill="#fbc477"/><path id="path757" d="M266 379l1 1-1-1m16 0l1 1-1-1z" fill="#fcb144"/><path id="path758" d="M284 379l1 1-1-1z" fill="#fbbe66"/><path id="path759" d="M237 380l1 1-1-1z" fill="#f6f6e4"/><path id="path760" d="M255 380l1 1-1-1z" fill="#fea522"/><path id="path761" d="M266 380l1 1-1-1z" fill="#fbead6"/><path id="path762" d="M282 380l1 1-1-1z" fill="#fcf1e4"/><path id="path763" d="M285 380l1 1-1-1z" fill="#fef8f1"/><path id="path765" d="M254 381l1 1-1-1z" fill="#fcf1e4"/><path id="path766" d="M265 381l1 1-1-1z" fill="#fbbe66"/><path id="path767" d="M283 381l1 1-1-1z" fill="#faca88"/><path id="path768" d="M285 381l1 1-1-1z" fill="#f9d099"/><path id="path769" d="M254 382l1 1-1-1z" fill="#f9d6aa"/><path id="path770" d="M265 382l1 1-1-1z" fill="#fcf1e4"/><path id="path771" d="M270 382l1 1-1-1z" fill="#fae3c9"/><path id="path772" d="M271 382l1 1-1-1z" fill="#fea522"/><path id="path773" d="M272 382l1 1-1-1z" fill="#fcb144"/><path id="path774" d="M273 382l1 1-1-1z" fill="#f9d6aa"/><path id="path775" d="M283 382l1 1-1-1z" fill="#fef8f1"/><path id="path776" d="M284 382l1 1-1-1z" fill="#fea522"/><path id="path777" d="M285 382l1 1-1-1z" fill="#fdab33"/><path id="path778" d="M254 383l-1 3 1-3z" fill="#faca88"/><path id="path779" d="M264 383l1 1-1-1z" fill="#fea522"/><path id="path780" d="M265 383l1 1-1-1z" fill="#fef8f1"/><path id="path781" d="M270 383l1 1-1-1z" fill="#f9d099"/><path id="path783" d="M274 383l1 1-1-1z" fill="#fdab33"/><path id="path784" d="M275 383l1 1-1-1z" fill="#fae3c9"/><path id="path785" d="M284 383l1 1-1-1z" fill="#f8dcbb"/><path id="path786" d="M285 383l1 1-1-1z" fill="#f90"/><path id="path787" d="M286.33 383.67l.334.667-.334-.667z" fill="#fbead6"/><path id="path788" d="M266 384l1 1-1-1z" fill="#fea522"/><path id="path789" d="M267 384l1 1-1-1z" fill="#fbbe66"/><path id="path790" d="M268 384l1 1-1-1z" fill="#faca88"/><path id="path791" d="M269 384l1 1-1-1z" fill="#fcb144"/><path id="path792" d="M270 384l1 1-1-1z" fill="#fae3c9"/><path id="path793" d="M271 384l1 1-1-1z" fill="#fe9f11"/><path id="path794" d="M276 384l1 1-1-1z" fill="#fdab33"/><path id="path795" d="M277 384l1 1-1-1z" fill="#fbc477"/><path id="path796" d="M278 384l1 1-1-1z" fill="#faca88"/><path id="path797" d="M279 384l1 1-1-1z" fill="#f9d6aa"/><path id="path798" d="M280.67 384.33l.666.333-.666-.333z" fill="#fae3c9"/><path id="path799" d="M282 384l1 1-1-1z" fill="#fef8f1"/><path id="path800" d="M285 384l1 1-1-1z" fill="#fbc477"/><path id="path801" d="M242 385l1 1-1-1z" fill="#fef8f1"/><path id="path802" d="M243 385l1 1-1-1z" fill="#fcf1e4"/><path id="path804" d="M269 385l1 1-1-1z" fill="#fcb755"/><path id="path806" d="M271 385l1 1-1-1z" fill="#fbead6"/><path id="path807" d="M272 385l1 1-1-1z" fill="#fea522"/><path id="path808" d="M280 385l1 1-1-1z" fill="#fe9f11"/><path id="path809" d="M281 385l-1 2 1-2z" fill="#fcb144"/><path id="path810" d="M283 385l1 1-1-1z" fill="#fe9f11"/><path id="path811" d="M284 385l1 1-1-1z" fill="#fbbe66"/><path id="path812" d="M285 385l1 1-1-1z" fill="#fcf1e4"/><path id="path813" d="M242 386l1 1-1-1z" fill="#fae3c9"/><path id="path814" d="M243 386l2 2-2-2z" fill="#fe9f11"/><path id="path815" d="M244 386l1 1-1-1z" fill="#fbead6"/><path id="path817" d="M253 386l1 1-1-1z" fill="#fbead6"/><path id="path818" d="M254 386l1 1-1-1z" fill="#fae3c9"/><path id="path819" d="M263 386l1 1-1-1z" fill="#fe9f11"/><path id="path820" d="M264 386l1 1-1-1z" fill="#fbc477"/><path id="path821" d="M265 386l1 1-1-1z" fill="#fea522"/><path id="path822" d="M268 386l1 1-1-1z" fill="#fbc477"/><path id="path823" d="M269 386l1 1-1-1z" fill="#fef8f1"/><path id="path824" d="M273 386l1 1-1-1z" fill="#fbc477"/><path id="path825" d="M281 386l1 1-1-1z" fill="#fff"/><path id="path826" d="M282 386l1 1-1-1z" fill="#fdab33"/><path id="path827" d="M286 386l1 1-1-1z" fill="#fbc477"/><path id="path828" d="M242 387l1 1-1-1z" fill="#fef8f1"/><path id="path830" d="M245 387l1 1-1-1z" fill="#fbead6"/><path id="path831" d="M250 387l1 1-1-1z" fill="#f9d6aa"/><path id="path833" d="M255 387l1 1-1-1z" fill="#fe9f11"/><path id="path834" d="M256.67 387.33l.666.333-.666-.333z" fill="#f9d6aa"/><path id="path835" d="M263 387l1 1-1-1z" fill="#f8dcbb"/><path id="path836" d="M266 387l1 1-1-1z" fill="#fcf1e4"/><path id="path837" d="M274 387l1 1-1-1z" fill="#f9d6aa"/><path id="path838" d="M281 387l1 1-1-1z" fill="#fdab33"/><path id="path839" d="M287 387l1 1-1-1z" fill="#fcb755"/><path id="path840" d="M288 387l1 1-1-1z" fill="#fef8f1"/><path id="path841" d="M234 388l1 1-1-1z" fill="#53527c"/><path id="path842" d="M243 388l1 1-1-1z" fill="#fcb755"/><path id="path843" d="M245 388l1 1-1-1z" fill="#fea522"/><path id="path845" d="M249 388l1 1-1-1z" fill="#fbead6"/><path id="path846" d="M251 388l1 1-1-1z" fill="#fe9f11"/><path id="path847" d="M252 388l1 1-1-1z" fill="#fcf1e4"/><path id="path848" d="M255 388l1 1-1-1z" fill="#fbbe66"/><path id="path849" d="M256 388l1 1-1-1z" fill="#fbc477"/><path id="path850" d="M257 388l1 1-1-1z" fill="#fbbe66"/><path id="path851" d="M262 388l1 1-1-1z" fill="#fea522"/><path id="path852" d="M275 388l1 1-1-1z" fill="#f9d6aa"/><path id="path853" d="M288 388l1 1-1-1z" fill="#fcb144"/><path id="path854" d="M304 388l1 1-1-1z" fill="#8d8d5b"/><path id="path856" d="M237 389l1 1-1-1z" fill="#e5e3af"/><path id="path857" d="M243 389l1 1-1-1z" fill="#f8dcbb"/><path id="path858" d="M246 389l1 1-1-1z" fill="#fdab33"/><path id="path859" d="M249 389l1 1-1-1z" fill="#fe9f11"/><path id="path860" d="M251 389l1 1-1-1z" fill="#faca88"/><path id="path861" d="M255 389l1 1-1-1z" fill="#fcf1e4"/><path id="path862" d="M262 389l1 1-1-1m14 0l1 1-1-1z" fill="#f9d099"/><path id="path863" d="M289 389l1 1-1-1z" fill="#fbbe66"/><path id="path866" d="M244 390l1 1-1-1z" fill="#fea522"/><path id="path867" d="M247 390l1 1-1-1z" fill="#fdab33"/><path id="path868" d="M248 390l1 1-1-1z" fill="#fea522"/><path id="path869" d="M250 390l1 1-1-1z" fill="#fe9f11"/><path id="path870" d="M251 390l1 1-1-1z" fill="#fef8f1"/><path id="path871" d="M256 390l1 1-1-1z" fill="#fbbe66"/><path id="path872" d="M262 390l1 1-1-1z" fill="#fef8f1"/><path id="path873" d="M277 390l1 1-1-1z" fill="#fbbe66"/><path id="path874" d="M290 390l1 1-1-1z" fill="#f9d099"/><path id="path875" d="M244 391l1 1-1-1z" fill="#f9d6aa"/><path id="path876" d="M250 391l1 1-1-1z" fill="#f9d099"/><path id="path877" d="M256 391l1 1-1-1z" fill="#fcf1e4"/><path id="path878" d="M261 391l1 1-1-1m17 0l1 1-1-1z" fill="#fdab33"/><path id="path879" d="M291 391l1 1-1-1z" fill="#fbead6"/><path id="path881" d="M245 392l1 1-1-1z" fill="#fea522"/><path id="path882" d="M249 392l1 1-1-1z" fill="#fe9f11"/><path id="path883" d="M257 392l1 1-1-1z" fill="#fcb144"/><path id="path884" d="M261 392l1 1-1-1z" fill="#faca88"/><path id="path885" d="M278 392l1 1-1-1z" fill="#f8dcbb"/><path id="path886" d="M291 392l1 1-1-1z" fill="#fcb144"/><path id="path888" d="M237 393l1 1-1-1z" fill="#d3d079"/><path id="path889" d="M245 393l1 1-1-1z" fill="#faca88"/><path id="path891" d="M257 393l1 1-1-1z" fill="#faca88"/><path id="path892" d="M261 393l1 1-1-1m17 0l1 1-1-1z" fill="#fae3c9"/><path id="path893" d="M292 393l1 1-1-1z" fill="#f8dcbb"/><path id="path894" d="M301 393l1 1-1-1z" fill="#f2f1d7"/><path id="path895" d="M304.33 393.67l.334.667-.334-.667z" fill="#58587b"/><path id="path896" d="M237.33 394.67l.334.667-.334-.667z" fill="#d9d868"/><path id="path897" d="M245 394l1 1-1-1z" fill="#f8dcbb"/><path id="path899" d="M277 394l1 1-1-1z" fill="#f9d6aa"/><path id="path900" d="M278 394l1 1-1-1z" fill="#fe9f11"/><path id="path901" d="M292 394l1 1-1-1z" fill="#fcb144"/><path id="path902" d="M301.33 394.67l.334.667-.334-.667z" fill="#f2f1d2"/><path id="path903" d="M245 395l1 1-1-1z" fill="#fcf1e4"/><path id="path904" d="M276 395l1 1-1-1z" fill="#fef8f1"/><path id="path905" d="M277 395l1 1-1-1z" fill="#fe9f11"/><path id="path906" d="M280 395l-1 2 1-2z" fill="#fdab33"/><path id="path907" d="M281 395l1 1-1-1z" fill="#fcb755"/><path id="path908" d="M293 395l1 1-1-1z" fill="#fea522"/><path id="path909" d="M294 395l1 1-1-1z" fill="#f9d099"/><path id="path910" d="M304 395l1 1-1-1z" fill="#53527c"/><path id="path911" d="M235.33 396.67l.334.666-.334-.666z" fill="#808067"/><path id="path912" d="M246 396l1 1-1-1m3 0l1 1-1-1z" fill="#fea522"/><path id="path913" d="M260 396l1 1-1-1z" fill="#fe9f11"/><path id="path914" d="M276 396l1 1-1-1z" fill="#fae3c9"/><path id="path915" d="M280 396l1 1-1-1z" fill="#fef8f1"/><path id="path917" d="M282 396l1 1-1-1z" fill="#fcb144"/><path id="path918" d="M295 396l1 1-1-1z" fill="#fcb755"/><path id="path919" d="M296 396l2 2-2-2z" fill="#fef8f1"/><path id="path920" d="M301.33 396.67l.334.666-.334-.666z" fill="#e5e59d"/><path id="path921" d="M304.33 396.67l.334.666-.334-.666z" fill="#32327b"/><path id="path922" d="M246.33 397.67l.334.666-.334-.666z" fill="#fcb755"/><path id="path923" d="M250 397l1 1-1-1z" fill="#fef8f1"/><path id="path924" d="M260 397l1 1-1-1z" fill="#fbbe66"/><path id="path925" d="M276 397l1 1-1-1z" fill="#fbead6"/><path id="path926" d="M278 397l1 1-1-1z" fill="#fe9f11"/><path id="path927" d="M279 397l1 1-1-1z" fill="#fcf1e4"/><path id="path928" d="M282 397l1 1-1-1z" fill="#fbead6"/><path id="path929" d="M296 397l1 1-1-1z" fill="#fdab33"/><path id="path931" d="M235 398l1 1-1-1z" fill="#667"/><path id="path932" d="M238 398l1 1-1-1z" fill="#f6f6e4"/><path id="path933" d="M250 398l1 1-1-1z" fill="#f9d6aa"/><path id="path934" d="M258 398l1 1-1-1z" fill="#fdab33"/><path id="path935" d="M259 398l1 1-1-1z" fill="#fe9f11"/><path id="path936" d="M260 398l1 1-1-1z" fill="#fcf1e4"/><path id="path937" d="M277 398l1 1-1-1z" fill="#fea522"/><path id="path938" d="M278 398l1 1-1-1m5 0l1 1-1-1z" fill="#faca88"/><path id="path939" d="M297 398l1 1-1-1z" fill="#fcb144"/><path id="path940" d="M301 398l1 1-1-1z" fill="#dddc7a"/><path id="path941" d="M235 399l1 1-1-1z" fill="#58587b"/><path id="path942" d="M238 399l1 1-1-1z" fill="#f2f1d2"/><path id="path943" d="M246.33 399.67l.334.666-.334-.666z" fill="#fcb144"/><path id="path944" d="M250 399l1 1-1-1z" fill="#fea522"/><path id="path945" d="M260 399l1 1-1-1z" fill="#fef8f1"/><path id="path946" d="M261 399l1 1-1-1z" fill="#fea522"/><path id="path947" d="M263 399l1 1-1-1z" fill="#fcb144"/><path id="path948" d="M264 399l1 1-1-1z" fill="#fbead6"/><path id="path949" d="M277 399l1 1-1-1z" fill="#f8dcbb"/><path id="path950" d="M278 399l1 1-1-1z" fill="#fcf1e4"/><path id="path951" d="M283 399l1 1-1-1z" fill="#fef8f1"/><path id="path952" d="M284 399l1 1-1-1z" fill="#fe9f11"/><path id="path953" d="M298 399l1 1-1-1z" fill="#fbead6"/><path id="path954" d="M301 399l1 1-1-1z" fill="#d9d868"/><path id="path955" d="M235 400l1 1-1-1z" fill="#3a3a7c"/><path id="path956" d="M238 400l1 1-1-1z" fill="#e5e3af"/><path id="path957" d="M251 400l1 1-1-1z" fill="#faca88"/><path id="path958" d="M261 400l1 1-1-1z" fill="#fbead6"/><path id="path959" d="M264 400l1 1-1-1z" fill="#fe9f11"/><path id="path960" d="M265 400l1 1-1-1z" fill="#fcf1e4"/><path id="path961" d="M276 400l1 1-1-1z" fill="#fbead6"/><path id="path962" d="M277 400l1 1-1-1z" fill="#fae3c9"/><path id="path963" d="M278 400l1 1-1-1z" fill="#fbead6"/><path id="path964" d="M284 400l1 1-1-1m8 0l1 1-1-1z" fill="#fbbe66"/><path id="path965" d="M293 400l1 1-1-1z" fill="#fcf1e4"/><path id="path966" d="M294 400l1 1-1-1z" fill="#fef8f1"/><path id="path967" d="M295 400l1 1-1-1z" fill="#f8dcbb"/><path id="path968" d="M296 400l1 1-1-1z" fill="#fcb755"/><path id="path969" d="M298 400l1 1-1-1z" fill="#fae3c9"/><path id="path970" d="M303 400l1 1-1-1z" fill="#808067"/><path id="path971" d="M235 401l1 1-1-1z" fill="#32327b"/><path id="path972" d="M236.33 401.67l.334.666-.334-.666z" fill="#a4a43d"/><path id="path973" d="M238 401l1 1-1-1z" fill="#e5e59d"/><path id="path974" d="M246 401l1 1-1-1z" fill="#fbc477"/><path id="path975" d="M252 401l1 1-1-1z" fill="#f9d6aa"/><path id="path976" d="M262 401l1 1-1-1z" fill="#fbbe66"/><path id="path977" d="M265 401l1 1-1-1z" fill="#f9d099"/><path id="path978" d="M274 401l1 1-1-1z" fill="#fae3c9"/><path id="path979" d="M275 401l1 1-1-1z" fill="#fcb144"/><path id="path980" d="M279 401l1 1-1-1z" fill="#fae3c9"/><path id="path981" d="M284 401l1 1-1-1z" fill="#f8dcbb"/><path id="path982" d="M292 401l1 1-1-1z" fill="#f9d099"/><path id="path983" d="M297 401l1 1-1-1z" fill="#fbc477"/><path id="path984" d="M298 401l1 1-1-1z" fill="#fbead6"/><path id="path985" d="M303 401l1 1-1-1z" fill="#737370"/><path id="path986" d="M238 402l1 1-1-1z" fill="#d9d868"/><path id="path987" d="M246 402l1 1-1-1z" fill="#f9d099"/><path id="path988" d="M253 402l1 1-1-1m9 0l1 1-1-1z" fill="#f9d6aa"/><path id="path989" d="M265 402l1 1-1-1z" fill="#fbc477"/><path id="path990" d="M270 402l1 1-1-1z" fill="#fef8f1"/><path id="path991" d="M271 402l1 1-1-1z" fill="#f8dcbb"/><path id="path992" d="M272 402l1 1-1-1z" fill="#fbc477"/><path id="path993" d="M273 402l1 1-1-1z" fill="#fea522"/><path id="path994" d="M279 402l1 1-1-1z" fill="#fbead6"/><path id="path996" d="M300 402l1 1-1-1z" fill="#f2f1d2"/><path id="path997" d="M303 402l1 1-1-1z" fill="#58587b"/><path id="path998" d="M236 403l1 1-1-1z" fill="#99994e"/><path id="path999" d="M238 403l1 1-1-1z" fill="#d0d045"/><path id="path1001" d="M254 403l1 1-1-1z" fill="#fcb144"/><path id="path1002" d="M255 403l1 1-1-1z" fill="#fae3c9"/><path id="path1003" d="M262 403l1 1-1-1z" fill="#fef8f1"/><path id="path1004" d="M266 403l1 1-1-1z" fill="#fcb755"/><path id="path1005" d="M267 403l1 1-1-1z" fill="#fbc477"/><path id="path1006" d="M268 403l1 1-1-1z" fill="#fcb144"/><path id="path1007" d="M269 403l1 1-1-1z" fill="#fea522"/><path id="path1008" d="M277 403l1 1-1-1z" fill="#fe9f11"/><path id="path1009" d="M278 403l1 1-1-1z" fill="#f9d6aa"/><path id="path1010" d="M292 403l1 1-1-1z" fill="#fef8f1"/><path id="path1011" d="M300 403l1 1-1-1z" fill="#e0dea1"/><path id="path1012" d="M303 403l1 1-1-1z" fill="#3a3a7c"/><path id="path1013" d="M236 404l1 1-1-1z" fill="#737370"/><path id="path1014" d="M239 404l1 1-1-1z" fill="#fbfaf2"/><path id="path1015" d="M247 404l1 1-1-1z" fill="#fea522"/><path id="path1016" d="M256 404l1 1-1-1z" fill="#fe9f11"/><path id="path1017" d="M257 404l1 1-1-1z" fill="#fcb144"/><path id="path1018" d="M258 404l1 1-1-1z" fill="#fbc477"/><path id="path1019" d="M259 404l1 1-1-1z" fill="#faca88"/><path id="path1020" d="M260 404l1 1-1-1z" fill="#fbc477"/><path id="path1021" d="M261 404l1 1-1-1z" fill="#fcb144"/><path id="path1022" d="M262 404l1 1-1-1z" fill="#fdab33"/><path id="path1023" d="M276 404l1 1-1-1z" fill="#fbc477"/><path id="path1024" d="M277 404l1 1-1-1z" fill="#fef8f1"/><path id="path1025" d="M291 404l1 1-1-1z" fill="#fdab33"/><path id="path1026" d="M300 404l1 1-1-1z" fill="#e1e18c"/><path id="path1027" d="M302.33 404.67l.334.666-.334-.666z" fill="#a4a43d"/><path id="path1028" d="M303 404l1 1-1-1z" fill="#262678"/><path id="path1029" d="M236 405l1 1-1-1z" fill="#58587b"/><path id="path1030" d="M239 405l1 1-1-1z" fill="#f2f1d2"/><path id="path1031" d="M247 405l1 1-1-1z" fill="#faca88"/><path id="path1032" d="M274 405l1 1-1-1z" fill="#fe9f11"/><path id="path1033" d="M275 405l1 1-1-1z" fill="#fbead6"/><path id="path1034" d="M284 405l1 1-1-1z" fill="#fbc477"/><path id="path1035" d="M291 405l1 1-1-1z" fill="#faca88"/><path id="path1036" d="M300 405l1 1-1-1z" fill="#d4d456"/><path id="path1037" d="M236 406l1 1-1-1z" fill="#32327b"/><path id="path1038" d="M239 406l1 1-1-1z" fill="#e5e59d"/><path id="path1039" d="M247 406l1 1-1-1z" fill="#fef8f1"/><path id="path1040" d="M248 406l1 1-1-1z" fill="#fe9f11"/><path id="path1041" d="M274 406l1 1-1-1z" fill="#fbead6"/><path id="path1042" d="M284 406l1 1-1-1z" fill="#fea522"/><path id="path1043" d="M291 406l1 1-1-1z" fill="#fcf1e4"/><path id="path1044" d="M302 406l1 1-1-1z" fill="#808067"/><path id="path1045" d="M236 407l1 1-1-1z" fill="#0e0e6e"/><path id="path1046" d="M237 407l1 1-1-1z" fill="#a4a43d"/><path id="path1047" d="M239 407l1 1-1-1z" fill="#d9d868"/><path id="path1048" d="M248 407l1 1-1-1z" fill="#f8dcbb"/><path id="path1050" d="M283 407l1 1-1-1z" fill="#f9d6aa"/><path id="path1051" d="M290 407l1 1-1-1z" fill="#faca88"/><path id="path1052" d="M299 407l1 1-1-1z" fill="#f2f1d2"/><path id="path1053" d="M302 407l1 1-1-1z" fill="#58587b"/><path id="path1054" d="M237 408l1 1-1-1z" fill="#8d8d5b"/><path id="path1055" d="M249 408l1 1-1-1z" fill="#f9d6aa"/><path id="path1056" d="M269 408l1 1-1-1z" fill="#fdab33"/><path id="path1057" d="M270 408l1 1-1-1z" fill="#fff"/><path id="path1058" d="M271.67 408.33l.666.334-.666-.334z" fill="#fcb144"/><path id="path1059" d="M282 408l-1 2 1-2z" fill="#fef8f1"/><path id="path1060" d="M283 408l1 1-1-1z" fill="#fe9f11"/><path id="path1061" d="M289 408l-1 2 1-2z" fill="#fdab33"/><path id="path1062" d="M299 408l1 1-1-1z" fill="#e5e59d"/><path id="path1063" d="M302 408l1 1-1-1z" fill="#3a3a7c"/><path id="path1064" d="M237 409l1 1-1-1z" fill="#667"/><path id="path1065" d="M240 409l1 1-1-1z" fill="#f2f1d2"/><path id="path1066" d="M250 409l1 1-1-1z" fill="#f9d6aa"/><path id="path1067" d="M269 409l1 1-1-1z" fill="#fe9f11"/><path id="path1068" d="M270 409l1 1-1-1z" fill="#faca88"/><path id="path1069" d="M271 409l1 1-1-1z" fill="#fea522"/><path id="path1070" d="M272 409l1 1-1-1z" fill="#fcf1e4"/><path id="path1071" d="M282 409l1 1-1-1z" fill="#fdab33"/><path id="path1072" d="M289 409l1 1-1-1z" fill="#fef8f1"/><path id="path1073" d="M299 409l1 1-1-1z" fill="#d9d868"/><path id="path1074" d="M301 409l1 1-1-1z" fill="#a4a43d"/><path id="path1075" d="M302 409l1 1-1-1z" fill="#0e0e6e"/><path id="path1076" d="M237 410l1 1-1-1z" fill="#3a3a7c"/><path id="path1077" d="M240 410l1 1-1-1z" fill="#e5e59d"/><path id="path1078" d="M251 410l2 2-2-2z" fill="#fae3c9"/><path id="path1079" d="M252 410l1 1-1-1z" fill="#fe9f11"/><path id="path1080" d="M271 410l1 1-1-1z" fill="#f8dcbb"/><path id="path1081" d="M280 410l1 1-1-1z" fill="#fcf1e4"/><path id="path1082" d="M281 410l1 1-1-1z" fill="#fdab33"/><path id="path1083" d="M287 410l1 1-1-1z" fill="#fcb144"/><path id="path1084" d="M288 410l1 1-1-1z" fill="#fef8f1"/><path id="path1085" d="M298 410l1 1-1-1z" fill="#fbfaf2"/><path id="path1086" d="M301 410l1 1-1-1z" fill="#8d8d5b"/><path id="path1087" d="M237 411l1 1-1-1z" fill="#0e0e6e"/><path id="path1088" d="M238 411l1 1-1-1z" fill="#a4a43d"/><path id="path1089" d="M240 411l1 1-1-1z" fill="#d4d456"/><path id="path1090" d="M270 411l1 1-1-1z" fill="#f9d6aa"/><path id="path1091" d="M279 411l1 1-1-1z" fill="#f9d099"/><path id="path1092" d="M280 411l1 1-1-1z" fill="#fe9f11"/><path id="path1093" d="M286 411l1 1-1-1z" fill="#faca88"/><path id="path1094" d="M298 411l1 1-1-1z" fill="#eeedc1"/><path id="path1095" d="M301 411l1 1-1-1z" fill="#58587b"/><path id="path1096" d="M238 412l1 1-1-1z" fill="#737370"/><path id="path1097" d="M241 412l1 1-1-1z" fill="#f6f6e4"/><path id="path1098" d="M252 412l1 1-1-1z" fill="#fbbe66"/><path id="path1099" d="M268 412l1 1-1-1z" fill="#fcb144"/><path id="path1100" d="M269.33 412.67l.334.666-.334-.666z" fill="#f8dcbb"/><path id="path1102" d="M277 412l1 1-1-1z" fill="#fbbe66"/><path id="path1103" d="M278 412l1 1-1-1z" fill="#fe9f11"/><path id="path1104" d="M284 412l1 1-1-1z" fill="#fbc477"/><path id="path1105" d="M285 412l1 1-1-1z" fill="#fcf1e4"/><path id="path1106" d="M298 412l1 1-1-1z" fill="#d3d079"/><path id="path1107" d="M300 412l1 1-1-1z" fill="#a4a43d"/><path id="path1108" d="M301 412l1 1-1-1z" fill="#262678"/><path id="path1109" d="M238 413l1 1-1-1z" fill="#49497d"/><path id="path1110" d="M241 413l1 1-1-1z" fill="#e0dea1"/><path id="path1111" d="M251 413l1 1-1-1z" fill="#fae3c9"/><path id="path1112" d="M265 413l1 1-1-1z" fill="#fdab33"/><path id="path1113" d="M266 413l1 1-1-1z" fill="#fbc477"/><path id="path1114" d="M267 413l1 1-1-1z" fill="#fbead6"/><path id="path1115" d="M270 413l1 1-1-1z" fill="#fcb144"/><path id="path1116" d="M283 413l1 1-1-1z" fill="#f9d6aa"/><path id="path1117" d="M300 413l1 1-1-1z" fill="#99994e"/><path id="path1118" d="M238 414l1 1-1-1z" fill="#0e0e6e"/><path id="path1119" d="M239 414l1 1-1-1z" fill="#a4a43d"/><path id="path1120" d="M241 414l1 1-1-1z" fill="#d4d456"/><path id="path1122" d="M250 414l1 1-1-1z" fill="#f9d099"/><path id="path1123" d="M251 414l1 1-1-1m5 0l1 1-1-1z" fill="#fe9f11"/><path id="path1124" d="M257 414l1 1-1-1z" fill="#f9d6aa"/><path id="path1125" d="M258 414l1 1-1-1z" fill="#f9d099"/><path id="path1127" d="M262 414l1 1-1-1z" fill="#f9d6aa"/><path id="path1128" d="M263 414l1 1-1-1z" fill="#fae3c9"/><path id="path1129" d="M264 414l1 1-1-1z" fill="#fef8f1"/><path id="path1130" d="M272 414l1 1-1-1z" fill="#fbead6"/><path id="path1131" d="M273 414l1 1-1-1z" fill="#fae3c9"/><path id="path1132" d="M274 414l1 1-1-1z" fill="#faca88"/><path id="path1133" d="M275 414l1 1-1-1z" fill="#fbc477"/><path id="path1134" d="M276 414l1 1-1-1z" fill="#fdab33"/><path id="path1135" d="M281 414l1 1-1-1z" fill="#fe9f11"/><path id="path1136" d="M282 414l1 1-1-1z" fill="#f9d6aa"/><path id="path1137" d="M297 414l1 1-1-1z" fill="#e5e3af"/><path id="path1138" d="M300 414l1 1-1-1z" fill="#667"/><path id="path1139" d="M239 415l1 1-1-1z" fill="#737370"/><path id="path1140" d="M242 415l1 1-1-1z" fill="#f2f1d7"/><path id="path1141" d="M249 415l1 1-1-1z" fill="#fea522"/><path id="path1142" d="M254 415l1 1-1-1z" fill="#fe9f11"/><path id="path1143" d="M255 415l1 1-1-1z" fill="#fbbe66"/><path id="path1144" d="M256 415l1 1-1-1z" fill="#fcf1e4"/><path id="path1145" d="M280 415l1 1-1-1z" fill="#fea522"/><path id="path1146" d="M281 415l1 1-1-1z" fill="#fbead6"/><path id="path1147" d="M297 415l1 1-1-1z" fill="#dddc7a"/><path id="path1148" d="M299 415l1 1-1-1z" fill="#a4a43d"/><path id="path1149" d="M300 415l1 1-1-1z" fill="#262678"/><path id="path1150" d="M239 416l1 1-1-1z" fill="#49497d"/><path id="path1151" d="M240.33 416.67l.334.666-.334-.666z" fill="#a4a43d"/><path id="path1152" d="M242 416l1 1-1-1z" fill="#d3d079"/><path id="path1153" d="M250 416l1 1-1-1z" fill="#f9d099"/><path id="path1154" d="M251 416l1 1-1-1z" fill="#fcb144"/><path id="path1155" d="M252 416l1 1-1-1z" fill="#faca88"/><path id="path1156" d="M253 416l1 1-1-1z" fill="#f8dcbb"/><path id="path1157" d="M254 416l1 1-1-1z" fill="#fef8f1"/><path id="path1158" d="M276 416l1 1-1-1z" fill="#f8dcbb"/><path id="path1159" d="M280 416l1 1-1-1z" fill="#fcf1e4"/><path id="path1160" d="M296 416l1 1-1-1z" fill="#f6f6e4"/><path id="path1161" d="M299 416l1 1-1-1z" fill="#8d8d5b"/><path id="path1162" d="M243 417l1 1-1-1z" fill="#fbfaf2"/><path id="path1163" d="M276 417l1 1-1-1z" fill="#fbbe66"/><path id="path1164" d="M279 417l1 1-1-1z" fill="#faca88"/><path id="path1165" d="M296 417l1 1-1-1z" fill="#e1e18c"/><path id="path1166" d="M299 417l1 1-1-1z" fill="#49497d"/><path id="path1167" d="M240 418l1 1-1-1z" fill="#58587b"/><path id="path1168" d="M243 418l1 1-1-1z" fill="#e5e59d"/><path id="path1169" d="M276 418l1 1-1-1z" fill="#fe9f11"/><path id="path1170" d="M278 418l1 1-1-1z" fill="#fdab33"/><path id="path1171" d="M295 418l1 1-1-1z" fill="#fbfaf2"/><path id="path1172" d="M298 418l1 1-1-1z" fill="#a4a43d"/><path id="path1173" d="M299 418l1 1-1-1z" fill="#0e0e6e"/><path id="path1174" d="M240 419l1 1-1-1z" fill="#1b1b74"/><path id="path1175" d="M241 419l1 1-1-1z" fill="#a4a43d"/><path id="path1176" d="M243 419l1 1-1-1z" fill="#d0d045"/><path id="path1177" d="M275 419l1 1-1-1z" fill="#fbead6"/><path id="path1178" d="M277 419l1 1-1-1z" fill="#fe9f11"/><path id="path1179" d="M278 419l1 1-1-1z" fill="#fbead6"/><path id="path1180" d="M295 419l1 1-1-1z" fill="#e5e59d"/><path id="path1181" d="M298 419l1 1-1-1z" fill="#667"/><path id="path1182" d="M241 420l1 1-1-1z" fill="#6e6c70"/><path id="path1183" d="M244 420l1 1-1-1z" fill="#e5e3af"/><path id="path1184" d="M275.33 420.67l.334.666-.334-.666z" fill="#faca88"/><path id="path1185" d="M277 420l1 1-1-1z" fill="#fae3c9"/><path id="path1186" d="M294 420l1 1-1-1z" fill="#fbfaf2"/><path id="path1187" d="M297 420l1 1-1-1z" fill="#a4a43d"/><path id="path1188" d="M298 420l1 1-1-1m-57 1l1 1-1-1z" fill="#1b1b74"/><path id="path1189" d="M242 421l1 1-1-1z" fill="#a4a43d"/><path id="path1190" d="M244 421l1 1-1-1z" fill="#d0d045"/><path id="path1191" d="M245 421l1 1-1-1z" fill="#fbfaf2"/><path id="path1192" d="M276 421l1 1-1-1z" fill="#f9d6aa"/><path id="path1193" d="M294 421l1 1-1-1z" fill="#e5e59d"/><path id="path1194" d="M297 421l1 1-1-1m-55 1l1 1-1-1z" fill="#6e6c70"/><path id="path1195" d="M245 422l1 1-1-1z" fill="#8cbf84"/><path id="path1196" d="M245.43 422c3.473 7.309 15.757 24.553 25.14 24.217 9.113-.326 19.404-17.151 23.43-24.217h-48.57z" fill="#0cf"/><path id="path1197" d="M296 422l1 1-1-1z" fill="#a4a43d"/><path id="path1198" d="M297 422l1 1-1-1m-55 1l1 1-1-1z" fill="#1b1b74"/><path id="path1199" d="M243 423l1 1-1-1z" fill="#a4a43d"/><path id="path1200" d="M245 423l1 1-1-1z" fill="#adb333"/><path id="path1201" d="M246 423l1 1-1-1z" fill="#1ac5b5"/><path id="path1202" d="M293 423l1 1-1-1z" fill="#68b070"/><path id="path1203" d="M296 423l1 1-1-1z" fill="#667"/><path id="path1204" d="M243 424l1 1-1-1z" fill="#58587b"/><path id="path1205" d="M246 424l1 1-1-1z" fill="#7fb15c"/><path id="path1206" d="M292 424l1 1-1-1z" fill="#27c2aa"/><path id="path1207" d="M295 424l-1 2 1-2z" fill="#a4a43d"/><path id="path1208" d="M296 424l1 1-1-1m-53 1l1 1-1-1z" fill="#0e0e6e"/><path id="path1209" d="M244 425l2 2-2-2z" fill="#a4a43d"/><path id="path1210" d="M247 425l1 1-1-1z" fill="#34be9e"/><path id="path1211" d="M292 425l1 1-1-1z" fill="#96b247"/><path id="path1212" d="M295 425l1 1-1-1z" fill="#53527c"/><path id="path1213" d="M244 426l1 1-1-1z" fill="#3a3a7c"/><path id="path1214" d="M247 426l1 1-1-1z" fill="#a2b23d"/><path id="path1215" d="M248 426l1 1-1-1z" fill="#0dc9c1"/><path id="path1216" d="M291 426l1 1-1-1z" fill="#5bb47c"/><path id="path1217" d="M294 426l1 1-1-1z" fill="#8d8d5b"/><path id="path1218" d="M245 427l1 1-1-1z" fill="#737370"/><path id="path1219" d="M248 427l1 1-1-1z" fill="#74b166"/><path id="path1220" d="M290 427l1 1-1-1z" fill="#27c2aa"/><path id="path1221" d="M293 427l-1 2 1-2z" fill="#a4a43d"/><path id="path1222" d="M294 427l1 1-1-1z" fill="#262678"/><path id="path1223" d="M245 428l1 1-1-1z" fill="#0e0e6e"/><path id="path1224" d="M246 428l2 2-2-2z" fill="#a4a43d"/><path id="path1225" d="M249 428l1 1-1-1z" fill="#42bb92"/><path id="path1226" d="M289 428l1 1-1-1z" fill="#0dc9c1"/><path id="path1227" d="M290 428l1 1-1-1z" fill="#96b247"/><path id="path1228" d="M293 428l1 1-1-1z" fill="#58587b"/><path id="path1229" d="M246 429l1 1-1-1z" fill="#3a3a7c"/><path id="path1230" d="M249 429l1 1-1-1z" fill="#adb333"/><path id="path1231" d="M250 429l1 1-1-1z" fill="#27c2aa"/><path id="path1232" d="M289 429l1 1-1-1z" fill="#74b166"/><path id="path1233" d="M292 429l1 1-1-1z" fill="#8d8d5b"/><path id="path1234" d="M247 430l1 1-1-1z" fill="#6e6c70"/><path id="path1235" d="M250 430l1 1-1-1z" fill="#96b247"/><path id="path1236" d="M251 430l1 1-1-1z" fill="#0dc9c1"/><path id="path1237" d="M288 430l1 1-1-1z" fill="#42bb92"/><path id="path1238" d="M291 430l-2 3 2-3z" fill="#a4a43d"/><path id="path1239" d="M292 430l1 1-1-1z" fill="#1b1b74"/><path id="path1240" d="M247 431l1 1-1-1z" fill="#0e0e6e"/><path id="path1241" d="M248 431l1 1-1-1z" fill="#8d8d5b"/><path id="path1242" d="M251 431l1 1-1-1z" fill="#7fb15c"/><path id="path1243" d="M287 431l1 1-1-1z" fill="#34be9e"/><path id="path1244" d="M291 431l1 1-1-1z" fill="#3a3a7c"/><path id="path1245" d="M248 432l1 1-1-1z" fill="#1b1b74"/><path id="path1246" d="M249 432l11 11-11-11z" fill="#a4a43d"/><path id="path1247" d="M252 432l1 1-1-1z" fill="#74b166"/><path id="path1248" d="M286 432l1 1-1-1z" fill="#27c2aa"/><path id="path1249" d="M287 432l1 1-1-1z" fill="#adb333"/><path id="path1250" d="M290 432l1 1-1-1z" fill="#667"/><path id="path1251" d="M249 433l1 1-1-1z" fill="#32327b"/><path id="path1252" d="M253 433l1 1-1-1z" fill="#42bb92"/><path id="path1253" d="M285 433l-4 5 4-5z" fill="#0dc9c1"/><path id="path1254" d="M286 433l1 1-1-1z" fill="#adb333"/><path id="path1255" d="M289 433l1 1-1-1z" fill="#737370"/><path id="path1256" d="M250 434l1 1-1-1z" fill="#49497d"/><path id="path1257" d="M254 434l1 1-1-1z" fill="#42bb92"/><path id="path1258" d="M285 434l1 1-1-1z" fill="#96b247"/><path id="path1259" d="M288 434l-1 2 1-2z" fill="#8d8d5b"/><path id="path1260" d="M289 434l1 1-1-1z" fill="#0e0e6e"/><path id="path1261" d="M251 435l1 1-1-1z" fill="#53527c"/><path id="path1262" d="M255 435l1 1-1-1z" fill="#42bb92"/><path id="path1263" d="M284 435l1 1-1-1z" fill="#96b247"/><path id="path1264" d="M288 435l1 1-1-1z" fill="#0e0e6e"/><path id="path1265" d="M252 436l1 1-1-1z" fill="#6e6c70"/><path id="path1266" d="M256 436l1 1-1-1z" fill="#42bb92"/><path id="path1267" d="M283 436l1 1-1-1z" fill="#96b247"/><path id="path1268" d="M286 436l-2 3 2-3z" fill="#a4a43d"/><path id="path1269" d="M287 436l1 1-1-1z" fill="#262678"/><path id="path1270" d="M253 437l1 1-1-1z" fill="#6e6c70"/><path id="path1271" d="M257 437l1 1-1-1z" fill="#42bb92"/><path id="path1272" d="M282 437l1 1-1-1z" fill="#96b247"/><path id="path1273" d="M286 437l1 1-1-1z" fill="#262678"/><path id="path1274" d="M254 438l1 1-1-1z" fill="#6e6c70"/><path id="path1275" d="M258 438l1 1-1-1z" fill="#68b070"/><path id="path1276" d="M280 438l1 1-1-1z" fill="#27c2aa"/><path id="path1277" d="M281 438l1 1-1-1z" fill="#adb333"/><path id="path1278" d="M285 438l1 1-1-1z" fill="#262678"/><path id="path1279" d="M255 439l1 1-1-1z" fill="#667"/><path id="path1280" d="M259 439l1 1-1-1z" fill="#74b166"/><path id="path1281" d="M279 439l1 1-1-1z" fill="#34be9e"/><path id="path1282" d="M280 439l1 1-1-1z" fill="#adb333"/><path id="path1283" d="M283 439l-1 2 1-2z" fill="#8d8d5b"/><path id="path1284" d="M284 439l1 1-1-1z" fill="#262678"/><path id="path1285" d="M256 440l1 1-1-1z" fill="#49497d"/><path id="path1286" d="M260 440l1 1-1-1z" fill="#96b247"/><path id="path1287" d="M261 440l1 1-1-1z" fill="#0dc9c1"/><path id="path1288" d="M278 440l1 1-1-1z" fill="#42bb92"/><path id="path1289" d="M283 440l1 1-1-1z" fill="#0e0e6e"/><path id="path1290" d="M257 441l1 1-1-1z" fill="#49497d"/><path id="path1291" d="M261 441l1 1-1-1z" fill="#a2b23d"/><path id="path1292" d="M262 441l1 1-1-1z" fill="#27c2aa"/><path id="path1293" d="M277 441l1 1-1-1z" fill="#74b166"/><path id="path1294" d="M280 441l-3 4 3-4z" fill="#a4a43d"/><path id="path1295" d="M281 441l1 1-1-1z" fill="#808067"/><path id="path1296" d="M282 441l1 1-1-1z" fill="#0e0e6e"/><path id="path1297" d="M258 442l1 1-1-1z" fill="#262678"/><path id="path1298" d="M262 442l1 1-1-1z" fill="#adb333"/><path id="path1299" d="M263 442l1 1-1-1z" fill="#42bb92"/><path id="path1300" d="M275 442l1 1-1-1z" fill="#0dc9c1"/><path id="path1301" d="M276 442l1 1-1-1z" fill="#96b247"/><path id="path1302" d="M280 442l1 1-1-1z" fill="#6e6c70"/><path id="path1303" d="M259 443l1 1-1-1z" fill="#1b1b74"/><path id="path1304" d="M260 443l1 1-1-1z" fill="#8d8d5b"/><path id="path1305" d="M264 443l1 1-1-1z" fill="#74b166"/><path id="path1306" d="M265 443l1 1-1-1z" fill="#0dc9c1"/><path id="path1307" d="M274 443l1 1-1-1z" fill="#34be9e"/><path id="path1308" d="M275 443l1 1-1-1z" fill="#adb333"/><path id="path1309" d="M279 443l1 1-1-1z" fill="#49497d"/><path id="path1310" d="M260 444l1 1-1-1z" fill="#0e0e6e"/><path id="path1311" d="M261 444l1 1-1-1z" fill="#6e6c70"/><path id="path1312" d="M262 444l2 2-2-2z" fill="#a4a43d"/><path id="path1313" d="M265 444l1 1-1-1z" fill="#96b247"/><path id="path1314" d="M266 444l1 1-1-1z" fill="#27c2aa"/><path id="path1315" d="M273 444l1 1-1-1z" fill="#68b070"/><path id="path1316" d="M278 444l1 1-1-1z" fill="#32327b"/><path id="path1317" d="M262 445l1 1-1-1z" fill="#49497d"/><path id="path1318" d="M267 445l1 1-1-1z" fill="#5bb47c"/><path id="path1319" d="M271 445l1 1-1-1z" fill="#27c2aa"/><path id="path1320" d="M272 445l1 1-1-1z" fill="#96b247"/><path id="path1321" d="M275 445l-1 2 1-2z" fill="#a4a43d"/><path id="path1322" d="M276 445l1 1-1-1z" fill="#808067"/><path id="path1323" d="M277 445l1 1-1-1z" fill="#0e0e6e"/><path id="path1324" d="M263 446l1 1-1-1z" fill="#262678"/><path id="path1325" d="M264 446l1 1-1-1z" fill="#8d8d5b"/><path id="path1326" d="M268 446l1 1-1-1z" fill="#8bb252"/><path id="path1327" d="M269 446l1 1-1-1z" fill="#1ac5b5"/><path id="path1328" d="M270 446l1 1-1-1z" fill="#5bb47c"/><path id="path1329" d="M275 446l1 1-1-1z" fill="#58587b"/><path id="path1330" d="M264 447l1 1-1-1z" fill="#0e0e6e"/><path id="path1331" d="M265 447l1 1-1-1z" fill="#667"/><path id="path1332" d="M266 447l1 1-1-1z" fill="#a4a43d"/><path id="path1333" d="M273 447l1 1-1-1z" fill="#99994e"/><path id="path1334" d="M274 447l1 1-1-1m-8 1l1 1-1-1z" fill="#32327b"/><path id="path1335" d="M267 448l1 1-1-1z" fill="#99994e"/><path id="path1336" d="M271 448l1 1-1-1z" fill="#a4a43d"/><path id="path1337" d="M272 448l1 1-1-1z" fill="#667"/><path id="path1338" d="M273 448l1 1-1-1m-6 1l1 1-1-1z" fill="#0e0e6e"/><path id="path1339" d="M268 449l1 1-1-1z" fill="#667"/><path id="path1340" d="M269 449l1 1-1-1z" fill="#a4a43d"/><path id="path1341" d="M270 449l1 1-1-1z" fill="#99994e"/><path id="path1342" d="M271 449l1 1-1-1z" fill="#32327b"/><path id="path1343" d="M269 450l1 1-1-1z" fill="#262678"/><path id="path1344" d="M270 450l1 1-1-1z" fill="#0e0e6e"/><g id="g1349" transform="translate(0 296)"><path id="path782" d="M271 87c1.543 3.63 6.49 7.637 7.85 9.601-1.731 1.964-2.077 1.75-1.85 5.399 3.01-3.15 3.064-3.478 5-3 4.241 4.232.759 13.321-2.746 15.297-3.504 2.108-2.868-.073-8.12 2.569 2.408 2.059 5.198-.302 7.478.329 1.239 1.47-.589 4.149.374 6.672 2.015-.194 1.773-4.262 2.242-5.737C282.7 112.726 291.55 108.957 292 104c1.866-.876 3.731-.274 6 1-1.13-4.644-4.868-4.594-5.87-6.044-2.385-3.645-4.499-7.803-9.593-8.881-3.867-.82-3.578.246-6.056-1.444-1.54-1.202-6.23-3.474-5.48-1.631z" fill="#f90"/><path id="path1348" d="M267.04 122.1a.806.806 0 11-1.612 0 .806.806 0 011.612 0z" fill-rule="evenodd" transform="translate(15.078 -30.977)" fill="#fff"/></g><g id="g1352" transform="rotate(-117.85 358.647 246.425)"><path id="path1353" d="M271 87c1.543 3.63 6.49 7.637 7.85 9.601-1.731 1.964-2.077 1.75-1.85 5.399 3.01-3.15 3.064-3.478 5-3 4.241 4.232.759 13.321-2.746 15.297-3.504 2.108-2.868-.073-8.12 2.569 2.408 2.059 5.198-.302 7.478.329 1.239 1.47-.589 4.149.374 6.672 2.015-.194 1.773-4.262 2.242-5.737C282.7 112.726 291.55 108.957 292 104c1.866-.876 3.731-.274 6 1-1.13-4.644-4.868-4.594-5.87-6.044-2.385-3.645-4.499-7.803-9.593-8.881-3.867-.82-3.578.246-6.056-1.444-1.54-1.202-6.23-3.474-5.48-1.631z" fill="#f90"/><path id="path1354" d="M267.04 122.1a.806.806 0 11-1.612 0 .806.806 0 011.612 0z" fill-rule="evenodd" transform="translate(15.078 -30.977)" fill="#fff"/></g><g id="g1355" transform="rotate(121 186.228 245.992)"><path id="path1356" d="M271 87c1.543 3.63 6.49 7.637 7.85 9.601-1.731 1.964-2.077 1.75-1.85 5.399 3.01-3.15 3.064-3.478 5-3 4.241 4.232.759 13.321-2.746 15.297-3.504 2.108-2.868-.073-8.12 2.569 2.408 2.059 5.198-.302 7.478.329 1.239 1.47-.589 4.149.374 6.672 2.015-.194 1.773-4.262 2.242-5.737C282.7 112.726 291.55 108.957 292 104c1.866-.876 3.731-.274 6 1-1.13-4.644-4.868-4.594-5.87-6.044-2.385-3.645-4.499-7.803-9.593-8.881-3.867-.82-3.578.246-6.056-1.444-1.54-1.202-6.23-3.474-5.48-1.631z" fill="#f90"/><path id="path1357" d="M267.04 122.1a.806.806 0 11-1.612 0 .806.806 0 011.612 0z" fill-rule="evenodd" transform="translate(15.078 -30.977)" fill="#fff"/></g></g></g></svg>