<svg id="svg820" xmlns="http://www.w3.org/2000/svg" height="480" width="640" version="1.1"><g id="flag"><g id="g3332" fill-rule="evenodd" stroke-width="1pt" transform="matrix(.86011 0 0 .95321 0 -15.191)"><path id="rect918" fill="red" d="M0 15.937h744.09v255.53H0z"/><path id="rect919" d="M0 263.97h744.09V519.5H0z"/></g><g id="g3311" transform="translate(-113.16 4.863)"><path id="path824" d="M341.83-135.75c165.22 43.304 58.989 255.64-71.216 167.26l-8.817 13.545c76.628 54.658 152.57 10.66 173.9-46.358 22.297-58.788-7.521-141.48-92.511-150.03l-1.355 15.576z" fill-rule="evenodd" transform="translate(0 279.06)" stroke-width="1pt" fill="#ffec00"/><path id="rect825" fill-rule="evenodd" transform="matrix(.90642 .42239 -.42345 .90592 0 279.06)" stroke-width="1pt" fill="#ffec00" d="M276.34-77.07h23.972v23.949H276.34z"/><path id="rect826" fill-rule="evenodd" transform="translate(0 279.06)" stroke-width="1pt" fill="#ffec00" d="M432.1-52.576h23.979v23.942H432.1z"/><path id="rect827" fill-rule="evenodd" transform="rotate(-21.262 743.352 139.536) skewX(.059)" stroke-width="1pt" fill="#ffec00" d="M424.9 67.214h23.974v23.947H424.9z"/><path id="rect828" fill-rule="evenodd" transform="matrix(.71094 -.70325 .70434 .70986 0 279.06)" stroke-width="1pt" fill="#ffec00" d="M365.04 191.67h23.961v23.961H365.04z"/><path id="rect829" fill-rule="evenodd" transform="rotate(20.65 -765.859 139.525) skewX(-.058)" stroke-width="1pt" fill="#ffec00" d="M287.71-280h23.974v23.947H287.71z"/><path id="rect830" fill-rule="evenodd" transform="rotate(21.761 -725.911 139.531) skewX(-.061)" stroke-width="1pt" fill="#ffec00" d="M393.33-172.06h23.974v23.947H393.33z"/><path id="rect831" fill-rule="evenodd" transform="rotate(-23.056 684.1 139.534) skewX(.063)" stroke-width="1pt" fill="#ffec00" d="M308.48 192.4h23.973v23.948H308.48z"/><path id="rect832" fill-rule="evenodd" transform="translate(0 279.06)" stroke-width="1pt" fill="#ffec00" d="M319.88 58.906h23.979v23.942H319.88z"/><path id="path739" d="M361.17-57.03l-20.351-15.006-20.244 14.469 8.034-22.918-20.347-14.957 24.447-.171 8.568-22.551 7.782 22.703 24.702-.242-19.587 15.232 6.996 23.441z" fill-rule="evenodd" transform="translate(0 279.06)" stroke-width="1pt" fill="#ffec00"/><path id="path878" d="M449.19 62.453c-1.211.418-6.229 12.389-9.675 18.248 1.797.51 2.559.597 3.625 1.025 13.655 4.801 20.384 9.181 26.186 17.505 2.888 2.792 7.032 2.932 10.198.698 0 0 2.795-1.116 6.429-5.023 2.969-4.52 2.195-8.11-1.383-11.16-10.944-7.95-22.9-13.9-35.38-21.294z" fill-rule="evenodd" transform="translate(0 279.06)" stroke-width="1pt" fill="#fe0"/><path id="path879" d="M199.62 154.99a1.892 1.892 0 11-3.784 0 1.892 1.892 0 013.784 0z" fill-rule="evenodd" transform="matrix(2.2895 0 0 2.286 21.377 13.672)" stroke-width="1pt"/><path id="path880" d="M199.62 154.99a1.892 1.892 0 11-3.784 0 1.892 1.892 0 013.784 0z" fill-rule="evenodd" transform="scale(2.2895 2.286)" stroke-width="1pt"/><path id="path881" d="M199.62 154.99a1.892 1.892 0 11-3.784 0 1.892 1.892 0 013.784 0z" fill-rule="evenodd" transform="matrix(2.2895 0 0 2.286 10.898 6.975)" stroke-width="1pt"/><path id="path882" d="M437.63 79.744c-42.57-24.273-87.31-50.521-129.88-74.796-18.751-11.636-19.683-33.385-7.17-49.876 1.302-2.336 2.836-1.758 3.514-.523 1.463 8.028 5.969 16.324 11.37 21.495 44.693 28.383 87.732 55.804 131.71 85.613-3.448 5.767-6.104 12.322-9.55 18.087z" fill-rule="evenodd" transform="translate(0 279.06)" stroke-width="1pt" fill="#fe0"/><path id="rect892" fill-rule="evenodd" transform="rotate(41.845 -364.961 139.53) skewX(-.088)" stroke-width="1pt" fill="#ffec00" d="M319.65-257.7h23.963v23.959H319.65z"/><path id="path893" d="M444.7 343.958l-124.96-75.522" stroke="#000" stroke-width="3.05" fill="none"/><path id="path894" d="M429.27 326.53l-42.24-27.279" stroke="#000" stroke-width="3.05" fill="none"/><path id="path895" d="M405.24 341.938l-42.75-24.756" stroke="#000" stroke-width="3.05" fill="none"/></g></g></svg>