<svg id="svg609" xmlns="http://www.w3.org/2000/svg" height="480" viewBox="0 0 512 512" width="640" version="1.0" y="0" x="0"><defs id="defs611"><clipPath id="clipPath3133" clipPathUnits="userSpaceOnUse"><path id="rect3135" fill-opacity=".67" d="M-85.333 0h682.67v512h-682.67z"/></clipPath></defs><g id="flag" fill-rule="evenodd" clip-path="url(#clipPath3133)"><path id="rect614" fill="#009" d="M-85.333 0h682.67v512h-682.67z"/><path id="path615" d="M-85.333 0l682.67 512V0h-682.67z" fill="#fc0"/><path id="polygon621" transform="translate(-188.29 47.624) scale(.43691)" fill="#fff" d="M381.84 62.857L326 22.287l-55.84 40.57 21.33-65.644-55.84-40.57h69.02L326-109l21.33 65.643h69.02l-55.84 40.57z"/><path id="polygon622" transform="translate(-112.34 102.24) scale(.43691)" fill="#fff" d="M326 22.287l-55.84 40.57 21.33-65.644-55.84-40.57h69.02L326-109l21.33 65.643h69.02l-55.84 40.57 21.33 65.644z"/><path id="polygon616" transform="translate(-36.397 156.85) scale(.43691)" fill="#fff" d="M270.16 62.857l21.33-65.644-55.84-40.57h69.02L326-109l21.33 65.643h69.02l-55.84 40.57 21.33 65.644L326 22.287z"/><path id="polygon623" transform="translate(39.551 211.47) scale(.43691)" fill="#fff" d="M291.49-2.787l-55.84-40.57h69.02L326-109l21.33 65.643h69.02l-55.84 40.57 21.33 65.644L326 22.287l-55.84 40.57z"/><path id="polygon624" transform="translate(115.5 266.08) scale(.43691)" fill="#fff" d="M235.65-43.357h69.02L326-109l21.33 65.643h69.02l-55.84 40.57 21.33 65.644L326 22.287l-55.84 40.57 21.33-65.644z"/><path id="polygon625" transform="translate(191.45 320.69) scale(.43691)" fill="#fff" d="M304.67-43.357L326-109l21.33 65.643h69.02l-55.84 40.57 21.33 65.644L326 22.287l-55.84 40.57 21.33-65.644-55.84-40.57z"/><path id="polygon626" transform="translate(267.39 375.31) scale(.43691)" fill="#fff" d="M326-109l21.33 65.643h69.02l-55.84 40.57 21.33 65.644L326 22.287l-55.84 40.57 21.33-65.644-55.84-40.57h69.02z"/><path id="polygon627" transform="translate(343.34 429.92) scale(.43691)" fill="#fff" d="M326-109l21.33 65.643h69.02l-55.84 40.57 21.33 65.644L326 22.287l-55.84 40.57 21.33-65.644-55.84-40.57h69.02z"/><path id="polygon628" transform="translate(419.29 484.54) scale(.43691)" fill="#fff" d="M347.33-43.357h69.02l-55.84 40.57 21.33 65.644L326 22.287l-55.84 40.57 21.33-65.644-55.84-40.57h69.02L326-109z"/></g></svg>