<svg id="svg548" xmlns="http://www.w3.org/2000/svg" height="480" width="640" version="1.1"><defs id="defs550"><clipPath id="clipPath3172" clipPathUnits="userSpaceOnUse"><path id="rect3174" fill-opacity=".67" d="M-90.533 0h682.67v512h-682.67z"/></clipPath></defs><g id="flag" clip-path="url(#clipPath3172)" fill-rule="evenodd" transform="translate(84.875) scale(.9375)"><path id="path551" d="M-178 0l428.8 256L-178 512z" stroke-width="1pt" fill="#00cf00"/><path id="path552" d="M679.6 0L250.8 256l428.8 256z" stroke-width="1pt" fill="#00cf00"/><path id="path556" d="M-178 0l428.8 256L679.6 0z" stroke-width="1pt" fill="red"/><path id="path557" d="M-178 512l428.8-256 428.8 256z" stroke-width="1pt" fill="red"/><path id="path558" d="M679.6 0h-79.902l-777.7 464.3v47.703H-98.1l777.7-464.3z" stroke-width="1pt" fill="#fff"/><path id="path571" d="M196.84 88.136c0 27.948-22.656 50.604-50.604 50.604s-50.604-22.656-50.604-50.604 22.656-50.604 50.604-50.604 50.604 22.656 50.604 50.604z" transform="translate(-177.04 -1.86) scale(2.9257)" fill="#fff"/><path id="path566" d="M-178 0v47.703l777.7 464.3h79.902V464.3L-98.098 0z" stroke-width="1pt" fill="#fff"/><path id="polygon576" stroke="#00de00" stroke-width="3.901" fill="red" d="M279.943 200.164l-19.251.322-9.947 16.442-9.919-16.472-19.221-.41 9.303-16.822-9.245-16.875 19.222-.331 9.977-16.457 9.918 16.495 19.222.41-9.333 16.817z"/><path id="polygon577" stroke="#00de00" stroke-width="3.901" fill="red" d="M215.443 311.784l-19.251.322-9.947 16.442-9.919-16.471-19.221-.41 9.303-16.823-9.245-16.875 19.222-.33 9.977-16.458 9.918 16.495 19.222.41-9.333 16.817z"/><path id="polygon578" stroke="#00de00" stroke-width="3.901" fill="red" d="M346.013 311.784l-19.251.322-9.947 16.442-9.919-16.471-19.221-.41 9.303-16.823-9.245-16.875 19.222-.33 9.977-16.458 9.918 16.495 19.222.41-9.333 16.817z"/></g></svg>