<svg id="canada" xmlns="http://www.w3.org/2000/svg" fill-opacity="14.118" height="480" width="640" version="1.1" fill="#28ff09"><defs id="defs3"><clipPath id="clipPath3087" clipPathUnits="userSpaceOnUse"><path id="rect3089" fill-opacity=".67" fill="#000" d="M-79.06 0h682.67v512H-79.06z"/></clipPath></defs><g id="flag" fill-opacity="1" clip-path="url(#clipPath3087)" transform="translate(74.118) scale(.9375)"><g id="g3531" transform="matrix(.70757 0 0 1 79.779 0)"><path id="mat" fill="#fff" d="M1.919 0h512v512h-512z"/><path id="left" fill="#bf0a30" d="M-254.08 0h256v512h-256z"/><path id="right" fill="#bf0a30" d="M513.92 0h256v512h-256z"/></g><path id="leaf" d="M135.31 247.41l-14.067 4.808 65.456 57.446c4.952 14.764-1.718 19.116-5.968 26.86l71.06-9.02-1.851 71.512 14.718-.423-3.21-70.918 71.13 8.432c-4.402-9.297-8.32-14.233-4.247-29.098l65.413-54.425-11.447-4.144c-9.36-7.222 4.044-34.784 6.066-52.178 0 0-38.195 13.135-40.698 6.262l-9.727-18.685-34.747 38.172c-3.797.91-5.414-.602-6.305-3.809l16.053-79.766-25.419 14.297c-2.128.91-4.256.125-5.658-2.355l-24.45-49.06-25.21 50.95c-1.901 1.826-3.803 2.037-5.382.796l-24.204-13.578 14.53 79.143c-1.156 3.142-3.924 4.026-7.18 2.325l-33.216-37.737c-4.345 6.962-7.29 18.336-13.033 20.885-5.744 2.387-24.98-4.823-37.873-7.637 4.404 15.895 18.176 42.302 9.461 50.957z" fill="#bf0a30"/></g></svg>