<svg id="svg1" xmlns="http://www.w3.org/2000/svg" height="480" width="640" version="1" y="0" x="0"><g id="flag" stroke-width="1pt"><path id="rect124" fill="#006" d="M0 0h640v480H0z"/><g id="g584" transform="scale(6.5589 9.4869)"><path id="path146" d="M0 0v3.354L53.292 30H60v-3.354L6.708 0H0zm60 0v3.354L6.708 30H0v-3.354L53.292 0H60z" fill="#fff"/><path id="path136" d="M25 0v30h10V0H25zM0 10v10h60V10H0z" fill="#fff"/><path id="path141" d="M0 12v6h60v-6H0zM27 0v30h6V0h-6z" fill="#c00"/><path id="path150" d="M0 30l20-10h4.472l-20 10H0zM0 0l20 10h-4.472L0 2.236V0zm35.528 10l20-10H60L40 10h-4.472zM60 30L40 20h4.472L60 27.764V30z" fill="#c00"/></g><path id="polygon589" fill-rule="evenodd" transform="translate(-30.004 11.499) scale(8.1527)" fill="#fff" d="M33.905 53.109L30 49l-3.905 4.109.778-5.615-5.647-.491L26.1 44.11l-3.136-4.721 5.3 2.007L30 36l1.736 5.396 5.3-2.007L33.9 44.11l4.874 2.893-5.647.491z"/><g id="g596" fill-rule="evenodd" transform="translate(-172.51 68.158) scale(7.4378)" fill="#fff"><path id="polygon590" d="M89.174 48.284l.826-2.57.826 2.57 2.525-.956-1.494 2.248 2.321 1.378-2.689.234.371 2.673L90 51.905l-1.86 1.956.371-2.673-2.689-.234 2.321-1.378-1.494-2.248z"/><path id="polygon592" d="M89.174 8.284L90 5.714l.826 2.57 2.525-.956-1.494 2.248 2.321 1.378-2.689.234.371 2.673L90 11.905l-1.86 1.956.371-2.673-2.689-.234 2.321-1.378-1.494-2.248z"/><path id="polygon593" d="M74.174 24.534l.826-2.57.826 2.57 2.525-.956-1.494 2.248 2.321 1.378-2.689.234.371 2.673L75 28.155l-1.86 1.956.371-2.673-2.689-.234 2.321-1.378-1.494-2.248z"/><path id="polygon594" d="M102.51 20.534l.82-2.57.83 2.57 2.52-.956-1.49 2.248 2.32 1.378-2.69.234.37 2.673-1.86-1.956-1.86 1.956.37-2.673-2.685-.234 2.325-1.378-1.497-2.248z"/><path id="polygon595" d="M94.943 32.843l-1.321-1.115 1.725-.127L96 30l.653 1.601 1.725.127-1.321 1.115.413 1.679-1.47-.911-1.47.911z"/></g></g></svg>