<svg id="svg1" xmlns="http://www.w3.org/2000/svg" height="480" width="640" version="1.1"><g id="flag"><path id="rect124" stroke-width="1pt" fill="#006" d="M0 0h640v480H0z"/><g id="g3104" stroke-width="1pt" transform="scale(.81519)"><path id="path146" d="M0 0v30.436l392.24 241.79h49.374V241.79L49.374 0H.004zm441.62 0v30.436L49.37 272.226H0v-30.44L392.24-.004h49.374z" fill="#fff"/><path id="path136" d="M184.01 0v272.23h73.603V0H184.01zM0 90.743v90.743h441.62V90.743H0z" fill="#fff"/><path id="path141" d="M0 108.89v54.446h441.62V108.89H0zM198.73 0v272.23h44.162V0H198.73z" fill="#c00"/><path id="path150" d="M0 272.23l147.21-90.743h32.916l-147.21 90.74H-.004zM0 0l147.21 90.743h-32.916L.004 20.291V0zm261.5 90.743L408.7 0h32.916l-147.21 90.743H261.49zm180.12 181.49L294.41 181.49h32.916l114.29 70.452v20.291z" fill="#c00"/></g><g id="g3087" fill-rule="evenodd" fill="#fff" transform="translate(87.546 62.776) scale(.85925)"><path id="polygon791" transform="matrix(.66592 .0315 -.03025 .65803 13.302 31.285)" d="M659.7 186.57l7.73-29.85-25.29-17.62 30.77-1.87 8.94-29.5 11.28 28.69 30.83-.62-23.8 19.6 10.11 29.13-25.99-16.58z"/><path id="polygon794" transform="matrix(.61693 .25623 -.24608 .60962 134.3 -104.13)" d="M659.7 186.57l7.73-29.85-25.29-17.62 30.77-1.87 8.94-29.5 11.28 28.69 30.83-.62-23.8 19.6 10.11 29.13-25.99-16.58z"/><path id="polygon795" transform="matrix(.63686 -.19987 .19195 .62931 -55.339 205.46)" d="M659.7 186.57l7.73-29.85-25.29-17.62 30.77-1.87 8.94-29.5 11.28 28.69 30.83-.62-23.8 19.6 10.11 29.13-25.99-16.58z"/><path id="polygon796" transform="matrix(.51021 -.43522 .41799 .50416 -48.071 415)" d="M659.7 186.57l7.73-29.85-25.29-17.62 30.77-1.87 8.94-29.5 11.28 28.69 30.83-.62-23.8 19.6 10.11 29.13-25.99-16.58z"/><path id="polygon797" transform="matrix(.27702 -.61506 .5907 .27374 57.965 621.23)" d="M659.7 186.57l7.73-29.85-25.29-17.62 30.77-1.87 8.94-29.5 11.28 28.69 30.83-.62-23.8 19.6 10.11 29.13-25.99-16.58z"/><path id="polygon798" transform="matrix(.01289 -.67608 .64931 .01273 220.9 760.28)" d="M659.7 186.57l7.73-29.85-25.29-17.62 30.77-1.87 8.94-29.5 11.28 28.69 30.83-.62-23.8 19.6 10.11 29.13-25.99-16.58z"/><path id="polygon799" transform="matrix(-.25789 -.62356 .59887 -.25484 431.53 817.88)" d="M659.7 186.57l7.73-29.85-25.29-17.62 30.77-1.87 8.94-29.5 11.28 28.69 30.83-.62-23.8 19.6 10.11 29.13-25.99-16.58z"/><path id="polygon800" transform="matrix(-.45428 -.49489 .4753 -.44889 619.07 802.79)" d="M659.7 186.57l7.73-29.85-25.29-17.62 30.77-1.87 8.94-29.5 11.28 28.69 30.83-.62-23.8 19.6 10.11 29.13-25.99-16.58z"/><path id="polygon801" transform="matrix(-.64713 -.16242 .15599 -.63946 848.5 625.64)" d="M659.7 186.57l7.73-29.85-25.29-17.62 30.77-1.87 8.94-29.5 11.28 28.69 30.83-.62-23.8 19.6 10.11 29.13-25.99-16.58z"/><path id="polygon802" transform="matrix(-.64912 .15404 -.14794 -.64142 954.43 409.88)" d="M659.7 186.57l7.73-29.85-25.29-17.62 30.77-1.87 8.94-29.5 11.28 28.69 30.83-.62-23.8 19.6 10.11 29.13-25.99-16.58z"/><path id="polygon803" transform="matrix(-.34579 .57812 -.55523 -.34169 880.42 -146.58)" d="M659.7 186.57l7.73-29.85-25.29-17.62 30.77-1.87 8.94-29.5 11.28 28.69 30.83-.62-23.8 19.6 10.11 29.13-25.99-16.58z"/><path id="polygon804" transform="matrix(-.5577 .37046 -.35579 -.55109 1024.7 74.614)" d="M659.7 186.57l7.73-29.85-25.29-17.62 30.77-1.87 8.94-29.5 11.28 28.69 30.83-.62-23.8 19.6 10.11 29.13-25.99-16.58z"/><path id="polygon805" transform="matrix(-.65982 .09648 -.09266 -.652 1058.6 332.2)" d="M659.7 186.57l7.73-29.85-25.29-17.62 30.77-1.87 8.94-29.5 11.28 28.69 30.83-.62-23.8 19.6 10.11 29.13-25.99-16.58z"/><path id="polygon806" transform="matrix(-.65232 -.13943 .13391 -.64459 1000.3 547.27)" d="M659.7 186.57l7.73-29.85-25.29-17.62 30.77-1.87 8.94-29.5 11.28 28.69 30.83-.62-23.8 19.6 10.11 29.13-25.99-16.58z"/><path id="polygon807" transform="matrix(-.48374 -.46529 .44686 -.47801 800.73 785.25)" d="M659.7 186.57l7.73-29.85-25.29-17.62 30.77-1.87 8.94-29.5 11.28 28.69 30.83-.62-23.8 19.6 10.11 29.13-25.99-16.58z"/></g></g></svg>