<svg id="svg153" xmlns="http://www.w3.org/2000/svg" height="480" width="640" version="1.1"><defs id="defs155"><clipPath id="clipPath3679" clipPathUnits="userSpaceOnUse"><path id="rect3681" fill-opacity=".67" d="M-123.43 0h682.67v512h-682.67z"/></clipPath></defs><g id="flag" fill-rule="evenodd" clip-path="url(#clipPath3679)" transform="translate(115.72) scale(.9375)"><path id="rect808" stroke-width="1pt" fill="#fff" d="M-123.43 233.05H723.1v205.97h-846.53z"/><path id="rect200" stroke-width="1pt" fill="#081873" d="M-122.76 0h845.95v256.64h-845.95z"/><path id="rect648" stroke-width="1pt" fill="#081873" d="M-122.52 385.87H729.6V512h-852.12z"/><path id="rect728" stroke-width="1pt" fill="#de3929" d="M-122.52 302.55h845.95v39.649h-845.95z"/><path id="polygon723" fill="#ffce08" transform="matrix(7.398 0 0 7.3981 130.92 428.79)" stroke-width=".125" d="M0-4.004l.899 2.767h2.909L1.455.473l.898 2.766L0 1.53l-2.353 1.71.899-2.766-2.354-1.71h2.909z"/><path id="polygon730" fill="#ffce08" transform="matrix(7.398 0 0 7.3981 316.91 280.12)" stroke-width=".125" d="M0-4.004l.899 2.767h2.909L1.455.473l.898 2.766L0 1.53l-2.353 1.71.899-2.766-2.354-1.71h2.909z"/><path id="polygon731" fill="#ffce08" transform="matrix(7.398 0 0 7.3981 88.271 365.07)" stroke-width=".125" d="M0-4.004l.899 2.767h2.909L1.455.473l.898 2.766L0 1.53l-2.353 1.71.899-2.766-2.354-1.71h2.909z"/><path id="polygon732" fill="#ffce08" transform="matrix(7.398 0 0 7.3981 316.91 359.08)" stroke-width=".125" d="M0-4.004l.899 2.767h2.909L1.455.473l.898 2.766L0 1.53l-2.353 1.71.899-2.766-2.354-1.71h2.909z"/><path id="polygon733" fill="#ffce08" transform="matrix(7.398 0 0 7.3981 269.82 217.8)" stroke-width=".125" d="M0-4.004l.899 2.767h2.909L1.455.473l.898 2.766L0 1.53l-2.353 1.71.899-2.766-2.354-1.71h2.909z"/><path id="polygon734" fill="#ffce08" transform="matrix(7.398 0 0 7.3981 198.74 193.05)" stroke-width=".125" d="M0-4.004l.899 2.767h2.909L1.455.473l.898 2.766L0 1.53l-2.353 1.71.899-2.766-2.354-1.71h2.909z"/><path id="polygon735" fill="#ffce08" transform="matrix(7.398 0 0 7.3981 127.65 216.41)" stroke-width=".125" d="M0-4.004l.899 2.767h2.909L1.455.473l.898 2.766L0 1.53l-2.353 1.71.899-2.766-2.354-1.71h2.909z"/><path id="polygon736" fill="#ffce08" transform="matrix(7.398 0 0 7.3981 86.184 280.12)" stroke-width=".125" d="M0-4.004l.899 2.767h2.909L1.455.473l.898 2.766L0 1.53l-2.353 1.71.899-2.766-2.354-1.71h2.909z"/><path id="polygon737" fill="#ffce08" transform="matrix(7.398 0 0 7.3981 198.74 450.03)" stroke-width=".125" d="M0-4.004l.899 2.767h2.909L1.455.473l.898 2.766L0 1.53l-2.353 1.71.899-2.766-2.354-1.71h2.909z"/><path id="polygon738" fill="#ffce08" transform="matrix(7.398 0 0 7.3981 274.26 428.79)" stroke-width=".125" d="M0-4.004l.899 2.767h2.909L1.455.473l.898 2.766L0 1.53l-2.353 1.71.899-2.766-2.354-1.71h2.909z"/></g></svg>