<svg id="svg697" xmlns="http://www.w3.org/2000/svg" height="480" width="640" version="1.1"><defs id="defs699"><clipPath id="clipPath3489" clipPathUnits="userSpaceOnUse"><path id="rect3491" fill-opacity=".67" d="M0 0h640v480H0z"/></clipPath></defs><g id="flag" fill-rule="evenodd" clip-path="url(#clipPath3489)"><path id="rect3447" stroke-width="1pt" fill="#0021ad" d="M0 0h640v480H0z"/><path id="path3446" d="M0 0l640 480L639.63.36 0 0z" fill="#1c8a42"/><path id="path733" d="M227.5 97.284a34.922 34.922 0 11-69.844 0 34.922 34.922 0 1169.844 0z" transform="translate(-287.54 -51.027) scale(3.1467)" fill="#ffc639"/><path id="path732" d="M250.12 206.06c7.517 10.323 18.903 27.606 28.068 23.098 7.143.023 10.838.53 11.807 5.28 16.864 2.875 45.208-4.241 62.832-27.202 0 0 1.49.193.971-8.537.098-3.808 5.2-3.039 5.324-1.811.713 1.89.584 3.31 1.54 3.356 2.181-.73 5.146-5.594 7.632-8.682.68-1.362.31-2.803.468-4.511 1.31-3.23 4.582-2.525 5.275-.838.619 1.089.629 1.929 1.248 3.018 3.32 2.212 9.32.147 9.79.147.588-2.705 2.33-2.451 2.33-2.451 2.211-.49 1.348-.292 2.796.466-1.281 14.605 2.874 15.249 2.53 22.747.149 8.357-2.53 10.734-2.53 13.934.85 3.888 13.185 4.023 8.843 7.322-3.815 2.04.02 5.855-5.728 7.333-16.693 8.478-19.894 15.75-19.894 15.75s-4.194 7.924-4.66 7.924c-2.803 5.287-6.347 2.398-8.313 4.978-.984 3.238-2.09 10.409-.122 14.138.982 5.123-.123 7.918-1.354 13.045-1.106 10.69-5.343 12.31-5.832 16.07-1.968 4.007.413 22.837-1.45 22.837-12.436.245-21.966-2.38-26.884-3.36 4.795-20.653 2.939-38.812 2.939-40.674-1.232-14.774-22.14-11.177-25.334-13.143-2.657-.564-4.324-2.725-5.259-3.658-2.953-.31-4.059-.991-7.012-1.299-1.476.736-.586 1.501-3.876 2.511-8.334 1.006-12.02-7.265-12.02-7.265.406-2.789-18.742.567-29.152-1.848-4.269 2.379-6.131 9.414-9.631 10.253-.1 2.18-5.746-1.792-6.886-3.938-.244-6.243 5.441-9.01 5.441-9.01 4.507-3.168 7.188-3.69 9.36-5.876 1.088-5.437.538-9.457 2.855-13.544 1.961-3.118 4.853-1.655 6.814-3.056 2.114-1.396 3.001-10.54 1.06-13.048 0 0-8.439-7.613-8.904-8.078-2.748-7.877 3.208-12.948 4.918-12.378z" fill="#1c8a42"/><path id="path3443" d="M579.51 72.574c-2.84-11.235-28.252-35.433-47.35-50.832-4.562-3.106-7.534-1.256-6.94 3.173 2.38 3.965 4.162 8.326 6.543 12.292.66 2.643 1.916 4.493 2.577 7.136 0 0 .197 4.56.596 4.956 5.946 6.545 6.74 12.095 6.74 12.095 3.436 6.61 6.475 11.433 12.49 16.852 6.741 4.23 1.782 17.381 1.982 24.388 0 4.428-3.171 3.9-5.947 3.37-21.874-20.09-43.552-20.156-62.653-25.971-7.466-.794-7.599 2.775-5.153 4.756 13.349 14.276 25.907 23.991 42.429 32.12l8.326 5.155 9.516 7.93c7.336 4.759 7.931 9.12 7.931 9.515.197 8.923-4.561 15.861-5.95 18.637-2.504 9.463-7.532 11.103-7.532 11.103-40.842 27.56-62.256 34.696-128.48 26.17-.99-.528-7.336.529 0 3.173 16.854 5.617 58.252 14.623 98.303-4.344 9.617-6.742 16.05-4.53 23.016-8.566 11.437-7.053 27.775-15.837 30.75-16.828 8.921-4.759 33.901-10.112 39.651-14.87 6.609-.53 13.455-1.397 13.918-7.08 2.174-1.401 5.344-.379 7.704-5.005 5.233-.911 4.352-2.787 4.352-2.787-1.321-3.699-6.213-5.22-9.714-7.928-5.156-1.72-8.723-2.248-12.492-.398l-3.568 1.586s-5.551-.792-5.551-1.188c-12.337-.677-11.136-41.56-15.5-58.61z" fill="#ffc639"/><path id="path3445" d="M354.38 73.886a2.07 1.367 0 11-4.14 0 2.07 1.367 0 114.14 0z" transform="matrix(1.4308 .44936 -.4805 1.3381 117.1 -185.57)" fill="#1c8a42"/><path id="polygon3449" transform="translate(6.064 53.133) scale(1.0128)" stroke-width="1pt" fill="#fff" d="M73.826 356.02L60.024 343.1l-13.968 12.74L47.553 337l-18.671-2.98 15.668-10.58-9.315-16.45 18.042 5.65 7.055-17.54 6.83 17.63 18.113-5.42-9.526 16.33 15.531 10.78-18.708 2.74z"/><path id="polygon3451" transform="translate(116.49 18.326) scale(.79767)" stroke-width="1pt" fill="#fff" d="M73.826 356.02L60.024 343.1l-13.968 12.74L47.553 337l-18.671-2.98 15.668-10.58-9.315-16.45 18.042 5.65 7.055-17.54 6.83 17.63 18.113-5.42-9.526 16.33 15.531 10.78-18.708 2.74z"/><path id="polygon3452" transform="translate(2.272 204.54) scale(.7796)" stroke-width="1pt" fill="#fff" d="M240.51 428.32l-23.61-11.9-9.44 24.7-8.27-25.11-24.14 10.79 11.9-23.6-24.69-9.44 25.11-8.28-10.8-24.13 23.61 11.9 9.44-24.7 8.27 25.11 24.14-10.79-11.9 23.61 24.69 9.43-25.11 8.28z"/><path id="polygon3455" transform="rotate(-.844 10721.685 266.085) scale(1.01271)" stroke-width="1pt" fill="#fff" d="M269.57 243.43l-13.75-.61-6.81 11.97-6.35-12.22-13.76.09 7.41-11.6-6.97-11.88 13.76.61 6.8-11.97 6.35 12.22 13.77-.09-7.41 11.6z"/><path id="polygon3461" transform="matrix(.91834 0 0 .89434 38.974 151.64)" stroke-width="1pt" fill="#fff" d="M159.76 320.14l-12.93-8.86-12.59 9.33 4.43-15.03-12.77-9.09 15.67-.43 4.69-14.96 5.26 14.77 15.67-.15-12.42 9.56z"/></g></svg>