<svg id="svg559" xmlns="http://www.w3.org/2000/svg" height="480" width="640" version="1.1"><g id="flag"><path id="rect4964" fill="#fff" d="M0 0h640v480H0z"/><path id="polygon565" fill="gray" fill-rule="evenodd" transform="translate(-93.752 -60.109) scale(.56176)" stroke-width="1pt" d="M699.33 498.15l3.02-3.98-1.57-4.74 4.72 1.64 4.02-2.96-.1 4.99 4.05 2.92-4.77 1.44-1.52 4.76-2.85-4.1z"/><path id="path568" d="M164.84 244.11h.308c-.823 0-.39-.063.926.942 1.076.438 2.023.628 3.701.628 1.472.107 2.746.314 4.32.314 1.447.622 2.271 1.19 3.393 1.57.494.762 1.573 2.471 2.159 3.14 1.086.813 2.397 1.31 3.393 2.197 1.242.345 2.031.882 3.394 1.884 1.025.494 1.995.901 3.393 1.57 1.342.472 2.81 1.104 4.01 1.57 1.057.253 2.47.685 3.393 1.255 1.31.29 2.411.662 4.01.942 1.634.198 2.458.638 4.01.942 1.394.718 2.48 1.254 4.011 1.885.621.929 1.155 1.765 2.468 2.197.674.831 1.793 1.052 2.468 1.884.993.479 2.088.796 3.393 1.256 1.573.114 2.708.569 4.319.628h8.638c1.377.166 2.919.386 4.01.627 1.51 0 2.98.026 4.318-.313 1.727-.021 2.532-.513 4.01-.629 1.65.267 2.77.12 3.394 1.57 1.023 1.041 1.644 2.06 1.85 3.454.326.993.31 2.634.31 4.081 0 1.365.007 2.85.308 3.769.982.964 1.747 1.249 3.085 1.57.991.335 2.818.629 3.701 1.255.73.778 1.086 2.015 2.16 2.826.939.734 2.509.887 4.01.941h4.319c1.348 0 3.137.131 4.01-.313 1.336-.495 1.687-1.415 3.393-1.57 1.608.247 1.575 1.021 2.776 1.57.765 1.122 1.49 1.585 2.468 2.197.634.923 1.464 1.64 2.777 1.885 1.607-.166 3.061-.646 4.319-.942.44-1.121.978-1.894 1.542-2.827.418-.72.616-.905.616-2.197.462-.939.405-2.847 0-4.082-.058-1.597-.425-2.442-.616-4.081 0-1.522.071-2.97.308-4.082.634-.745 1.047-1.963 1.543-2.826.841-1.027 1.62-1.413 2.776-1.883.976-.331 2.588-.315 4.01-.315.755-.23 2.008-.154 1.543-.627-.4.407-1.935.536-.309.627.886-.61 2.5-.892 3.394-1.255 1.317-.202 2.107-.658 3.393-.942.961-.573 2.038-.847 3.393-1.256a51.878 51.878 0 013.702-1.256c1.42-.68 2.296-1.062 3.701-1.256.968-.52 2.183-.627 3.703-.627 1.425.93 2.173 1.659 3.393 2.825.583.873 1.105 1.398 1.542 2.512.987.683 1.515 1.187 3.393 1.255 1.486 0 2.075.259 2.468-.94.812-.737 1.233-2.04 2.16-2.827.92-.92 2.057-1.388 3.085-1.883 1.158-.322 2.094-.748 3.701-.942 1.07-.399 2.176-.483 3.393.313.906 1.288 1.929 2.602 3.085 4.082.785.517 1.746.628 3.085.628.941-.479 2.884-.314 4.319-.314 1.263.37 1.815 1.217 3.085 1.57.71.072 1.092.313 1.85.313 2.257.299 3.196.072 4.936-.313h4.319c1.516.057 2.333.313 4.01.313.937.58 2.544.848 3.702 1.257 1.46.35 1.739.914 3.084 1.57.873.443 2.663.313 4.011.313 1.61-.195 2.68-.473 4.01-.942 1.17-.29 1.666-.591 2.16-1.57.766-.53 1.825-1.379 2.468-2.197a8.25 8.25 0 002.158-2.198c.831-.558 2.228-1.98 2.777-2.825.788-.643 1.63-1.988 2.16-2.826.676-1.024 1.53-1.617 2.159-3.14.48-1.467.544-2.618.925-4.081.318-1.187.902-2.19 1.234-3.768.627-1.374 1.13-2.715 1.542-3.768.758-.864 1.26-1.91 2.16-2.825.516-.812 1.204-1.226 1.851-1.884.735-.713 1.843-1.24 3.084-1.57 1.275-.353 1.826-.922 2.468-1.884 1.166-.395 1.854-.907 3.393-1.256 1.354-.408 2.462-.667 3.703-.942h4.318c1.556 0 2.895.142 4.319.315 1.406.408 2.726.765 4.01.942.883.425 2.352 1.202 3.085 1.883.921.62 1.928 1.619 2.468 2.511.403 1.232 1.058 1.776 1.85 2.827.825 1.091 1.518 1.781 3.085 2.511 1.249.295 2.271.83 3.702.942 1.639 0 2.63.206 4.01.314 1.51 0 2.982.026 4.32-.314 1.346-.792 1.83-1.003 2.775-2.198 1.244-.623 2.148-1.117 3.703-1.255 1.021-.227 2.288-.314 3.701-.314.801.559 1.651.77 2.16 1.57.812.585.866.903 2.159.942.882.525 2.181.775 3.393.942h4.318-4.318 4.318c1.183-1.011 1.543-.896 1.543-2.198.955-.779 1.429-1.87 2.468-3.14.564-.932 1.103-1.706 1.542-2.826.337-1.029.756-2.607.926-3.768.39-1.041.757-2.642.925-4.08.374-1.452.618-2.749.618-4.397v-4.395c-.019-1.553-.248-2.638-.618-3.768-.489-1.387-1.306-2.4-1.85-3.453a36.181 36.181 0 01-2.777-2.512 139.866 139.866 0 00-3.702-2.198c-1.35-.851-2.649-1.59-3.702-2.197-.619-.705-1.624-1.672-2.159-2.198-.422-.86-.422-2.909 0-3.768.036-1.307.173-2.06.925-2.826 1.406-.513 2.343-1.19 3.394-1.884.682-.971 1.75-1.158 3.085-2.197 1.335-.596 2.092-.91 3.085-1.884 1.443-.49 2.79-1.488 4.01-1.884.66-.813 1.897-1.485 3.393-1.884 1.07-.741 2.35-1.53 3.393-1.884 1.453-.783 2.532-1.059 4.01-1.884 1.51-.383 2.856-1.073 4.32-1.57.375-.466.822-.812 1.542-.941 1.92-.116 3.52-.326 4.627-1.256 1.24-.448 1.369-1.354 2.16-2.198.567-1.038 1.186-1.499 1.541-2.825.982-1.073.44-1.388-1.234-1.57-.526-.536-1 .004-1.233-.942-1.107-.506-1.396-1.384-2.16-2.198-.466-1.297-.455-1.88.926-2.512.86-.595 2.084-.795 2.776-1.57 1.286-.197 2.262-.762 3.394-1.255 1.676-.122 2.568-.508 4.01-.942a62.665 62.665 0 013.085-1.57c1.268-.559 2.78-1.348 4.01-1.884 1.105-.75 2.51-1.484 4.01-1.883 1.105-.572 2.463-1.02 3.702-1.57 1.057-.254 2.47-.686 3.393-1.257a20.639 20.639 0 004.01-1.255c1.032-.475 2.248-1.072 3.085-1.57 1.278-.562 2.19-1.236 3.394-1.57.729-.708 1.71-1.209 2.776-1.57.868-.82 2.715-1.953 3.701-2.511.936-.452 2.03-.911 2.777-1.57.718-.082.515-.233 1.234-.314 2.248-.69 3.396-.946 4.627-2.198.956-.461 1.94-.962 2.776-1.57 1.03-.831 1.849-1.584 2.468-2.511 1.123-.406 1.738-1.198 2.776-1.885 1.076-.437 2.024-.628 3.702-.628 1.35 0 3.138.13 4.01-.314 1.936-.023 2.44-.496 3.702-1.255.418-1.199 1.31-1.798 2.468-2.512.683-.634 2.408-1.584 3.085-2.198 1.335-.65 1.912-1.48 3.085-2.511.906-.993 2.04-1.91 3.084-2.512 1.297-.575 2.226-.834 3.394-1.256 1.46-.265 2.928-.538 4.315-.942 1.579-.123 2.136-.593 3.399-.942.873-.848 1.402-1.275 2.466-2.512.521-1.442 1.292-1.97 2.775-2.197 1.49-.793 2.686-.887 3.706-1.884 1.043-1.064 1.762-2.26 2.775-3.454.572-1.353 1.108-2.167 1.233-3.767-.022-1.927-.433-2.204-1.233-3.454-.771-1.125-1.255-1.84-1.85-2.826-.961-.553-2.327-1.102-3.398-1.57-1.468.115-2.371.45-3.391.942-1.05.864-1.777 1.574-2.467 2.826-.47 1.011-.785 2.125-1.233 3.453-.587.854-1.989 1.665-3.09 2.198-1.292.575-2.217.834-3.391 1.256-1.46.514-2.142.958-3.7 1.57-.913.44-2.176 1.115-3.086 1.57a26.893 26.893 0 01-3.701 1.884c-1.369.79-2.15 1.224-3.394 1.57-1.402.849-2.76 1.493-4.01 2.197-1.037.519-2.05 1.192-3.394 1.884-1.09.242-2.633.461-4.01.628h-4.627c-1.319-.31-2.887-.579-4.318-1.256-1.537-.81-2.288-1.322-3.394-2.198-.676-1.34-.904-1.98-.925-3.767-.959-.488-2.285-.61-3.702-.628-1.565 0-3.016-.06-4.01.628a6.506 6.506 0 00-3.394 1.57c-1.42.687-2.348 1.515-3.393 2.197-1.087.667-2.494 1.666-3.702 2.198-1.135.495-2.91 1.038-4.319 1.57-1.811.53-3.121 1.114-4.935 1.256-1.549.713-2.763.925-4.319 1.57-1.58.598-2.695 1.038-4.319 1.57-1.07.554-3.005 1.48-4.01 2.197-1.843.938-3.191 1.734-4.628 2.512-1.443.617-2.49 1.203-4.01 1.884-.747.678-2.227 1.209-3.084 1.884-1.377.35-2.958.928-3.702 1.57-1.217.148-1.893.475-2.468 1.256-1.1 1.342-.618 1.255-1.85 1.255-1.055.652-2.694.629-4.32.629-1.645-.045-2.94-.315-4.627-.315-1.447-.263-2.77-.571-4.319-.627h-26.529c-1.639 0-2.63.206-4.01.313-1.535.112-2.732.452-4.01.629-1.39.213-2.026.744-3.085 1.255-.974.47-1.957.943-3.085 1.256-1.515.815-3.257 1.243-4.936 1.57-1.267.598-3.066.918-4.01 1.57-1.446.113-2.393.51-4.01.628-1.374.632-2.506.97-3.703 1.255-1.109.377-2.176.61-3.701.629-1.427.196-2.214.605-3.702.942-.529.453-1.374.776-2.16.941-1.811.874-2.405.942-4.318.942h-4.319c-2.057-.203-4.1-.465-6.17-.942-2.11-.103-4.125-.374-6.17-.627h-13.571c-1.63-.06-3.078-.377-4.627-.629-1.45-.263-2.983-.391-4.319-.941-1.918-.103-3.859-.368-5.552-.942-1.543-.28-3.022-.808-4.627-.942-.891-.55-2.639-.734-3.394-1.256-1.41-.11-2.583-.556-3.393-1.256-1.443-.218-2.279-.866-3.702-1.256-1.282-.79-2.829-1.054-4.627-1.884-1.532-.334-3.066-.885-4.627-1.255-1.23-.434-2.73-.846-3.702-1.57-1.364-.379-2.146-.787-3.702-1.257-.726-.658-2.156-1.347-3.085-1.883-.674-.612-2.447-1.663-3.393-2.198a71.163 71.163 0 00-3.393-3.767 12.917 12.917 0 00-3.085-2.512 34.29 34.29 0 01-3.702-1.884c-1.168-.324-2.112-1.047-2.777-1.884-1.051-.606-1.738-1.147-2.776-1.883-1.611.621-1.78.314-3.393.314-1.839-.154-3.191-.212-4.935 0-1.509.18-2.984.313-4.628.313h-4.318c-1.952.024-2.268.281-2.777 1.885-.898 1.004-1.273 2.18-2.16 2.825-.76.982-1.859 1.65-3.084 2.198-1.523 1.072-1.983 1.46-2.776 2.826-1.01.9-1.852 2.19-2.468 3.139-.56.975-.936 1.878-1.234 3.454 0 1.502.121 3.083-.308 4.395 0 1.503.121 3.083-.31 4.396v8.791c.644.963 1.51 1.332 1.852 2.826.457 1.24-.39.796-1.234 1.57h-8.638c-1.573 0-2.846-.208-4.318-.314-1.247-.227-3.071-.31-4.01-.628h-4.319c-1.535-.112-2.731-.452-4.01-.628-1.787-.347-3.023-.873-4.628-1.884-1.643-.358-2.897-.988-4.319-1.884-1.532-.408-2.746-1.227-4.318-1.57-1.058-.51-1.815-1.003-3.085-1.57-.746-1.04-1.466-1.62-3.085-1.884-1.24-.648-2.293-.627-4.01-.627-1.607.194-2.543.62-3.702.942-1.285.592-2.96 1.095-4.01 1.57-1.049.427-2.001 1-3.085 1.57-.83 1.085-1.314 1.734-1.85 2.825-.412 0-.31-.104-.31.314-1.661.06-3.409 0-5.243 0-.87.443-2.564.539-3.702.628-.904.711-1.972 1.328-2.776 1.884-.532 1.083-.904 1.371-.926 3.14.066 1.875.728 2.42 1.234 3.767-.371 1.712-1.031 1.854-2.468 2.198-1.091.24-2.514.313-4.01.313h-9.254c-1.777 0-2.613.02-3.394-.94-.536-1.066-.587-2.422-.925-3.455-.92-1.272-1.33-2.126-2.776-3.14-.319-.972-1.083-2.4-1.542-3.453-.495-1.062-.877-2-1.852-2.826-1.025-.969-2.187-1.598-3.085-2.512-1.032-.674-1.86-1.233-3.701-1.256-1.495 0-2.92.073-4.01.314-.752.664-2.01 1.373-3.085 2.198-.853 1.157-1.609 2.001-2.777 3.14-1.316 1.228-2.625 1.974-3.701 2.512-.986.502-1.992 1.12-2.777 2.197-.916.407-1.36 1.089-1.85 2.198-.806.73-1.267 1.948-1.543 3.14-.503 1.537-.572 3.302-.617 5.023v4.396c-.488.59-.751 1.218-1.542 1.884-.755.684-1.89 1.433-2.777 1.883-.86 1.125-1.395 1.786-1.542 3.454 0 1.372-.127 3.194.309 4.082.623.889 1.882 1.503 3.085 2.198 1.155.417 1.755 1.328 2.467 2.511 1.321.604 1.158 1.163 2.776 1.256.98.784 2.483 1.03 3.703 1.57 1.234.343 1.85.913 3.084 1.255.8 1.06 1.68 1.747 2.16 3.454.13 1.097.556 2.197 0 3.14-1.257.761-2.943 1.246-3.702 1.884-.999.053-.924.29-1.542.628-.013 2.098-.288 3.168-.618 4.709-.105 1.404-.308 2.414-.308 4.082v4.396c.656 1.394 1.523 1.654 2.468 2.511.94.684 1.233 1.49 1.542 2.826.529 1.228 1.093 2.252 1.543 3.453.562 1.203.925 2.294.925 4.082-.154 1.72-.86 2.015-2.16 2.825-.69.85-.462 2.355-.925 3.769 0 1.447-.017 3.088.309 4.08.528.718.4 1.018.617 2.199z" fill-rule="evenodd" fill="#ffce00"/><g id="g3317" fill-rule="evenodd" fill="#009a00" transform="translate(25.62)"><g id="g588" transform="matrix(.734 0 0 .74706 -160.21 -163.25)"><path id="path569" d="M460.16 634.92l-.683-.683c1.55 1.549.802.981-.683-2.731-.145-3.936-1.098-4.57-3.413-6.145-2.715-.904-3.875-2.064-4.779-4.779-1.736-1.433-3.042-3.351-4.097-5.462a18.088 18.088 0 01-4.779-4.779 18.103 18.103 0 01-4.779-4.779c-2.594-.906-4.306-2.751-7.51-4.096-1.803-1.719-3.497-2.567-6.145-4.097-2.963-1.419-3.132-2.446-6.827-2.731-1.13 1.244-2.92.755-3.414 2.731.15 4.046.955 4.894 2.731 8.193.138 3.729 1.14 5.484 2.731 8.193 1.939 1.357 3.431 3.769 5.462 5.462 2.168 1.474 3.03 3.04 6.145 4.779 1.627 2.035 4.347 3.126 6.827 4.779 3.054 1.178 5.559 2.087 7.51 3.414 2.74.644 4.611 1.681 6.827 2.731 3.277.307 4.611.673 8.876 0z"/><path id="path570" d="M474.5 654.03l-.682-.682c1.621 1.621.848.958-1.366-2.731-2.524-2.39-3.07-4.221-6.827-4.78-2.006-.802-5.262-1.298-7.51-2.048-3.887 0-5.668-.415-8.876-1.365-2.293-.626-5.194-1.738-7.51-2.731-2.746-.408-5.589-1.482-8.193-2.048h-9.558c-3.067.721-4.793.753-5.462 4.096 1.4 1.695 3.248 3.173 4.779 4.779.863 2.999 2.946 3.714 4.779 5.462 3.161 1.094 3.803 1.911 7.51 2.048 3.143 1.048 5.428 1.324 8.876 1.366 3.657 0 6.287.742 9.558 1.365 2.724.368 5.396.683 8.876.683 2.966 0 6.197-.017 8.193-.683 4.302-3.441 3.413-4.188 3.413.683l1.366 1.365"/><path id="path571" d="M497.71 664.27h-.682c1.843 0 .907.045-2.731-.682-3.405-.973-5.339-1.918-8.876-2.049-2.101-1.228-4.68-1.365-8.193-1.365h-9.558c-3.38.26-4.813 1.105-8.193 1.365-1.794 1.05-5.358 1.912-7.51 2.731-1.92 1.306-3.559 2.929-6.145 4.097.596 3.391 2.479 4.668 4.78 6.144 2.31.925 4.685 1.798 8.192 2.049 3.355.124 5.163.682 8.876.682 3.479 0 6.152-.314 8.876-.682 2.266-1.074 4.194-2.199 7.51-2.731 1.653-1.433 4.073-2.433 6.144-3.414 1.834-.868 4.329-1.669 6.145-2.731l-6.145 2.731c1.834-.868 4.329-1.669 7.51-6.145z"/><path id="path573" d="M529.8 679.98v-.682c0 1.908.085.894-1.365-2.731-2.527-1.332-5.559-2.273-7.511-3.414-2.984 0-6.944-.283-8.875.683-3.448.041-5.733.318-8.876 1.365-2.996.452-4.723 1.5-6.827 2.731-2.378 1.283-5.824 2.934-8.876 4.096-2.698 1.881-3.612 2.984-6.827 4.78-2.025 2.219-4.098 3.552-5.462 5.462-.606 2.304.039 5.022 2.731 6.144 1.702 1.406 4.316 2.14 6.827 2.731 3.187-.118 6.001-.56 8.193-2.048 3.383-.448 5.393-1.44 8.193-2.048 2.396-.851 4.69-1.667 7.51-2.049 1.953-1.324 5.416-2.467 7.51-3.413 3.43-1.389 5.621-3.221 8.193-4.779 1.226-1.419 2.862-2.951 4.779-3.414l-4.779 3.414c1.226-1.419 2.862-2.951 5.462-6.828z" transform="matrix(1 0 0 .85157 1.189 101.1)"/><path id="path574" d="M557.11 693.63c-.127-.032-3.176-1.365-5.461-1.365-2.024-1.184-5.299-1.422-8.193-2.731-3.731 0-6.271.418-8.193 2.048-2.838.383-5.375 1.217-7.51 2.731-2.658.625-5.07 1.21-7.51 2.731-3.294 1.382-4.744 2.679-6.828 4.096-1.405 1.701-4.441 2.652-6.144 4.097-1.529 1.851-1.526 4.299-.683 6.827 1.748 1.076 4.736 2.144 6.827 3.414 3.052.545 6.162.682 9.559.682 3.031-.233 5.588-.741 7.51-2.048 3.434-1.654 4.348-2.876 6.827-4.779 1.434-1.736 3.833-3.133 6.145-4.096 1.742-1.51 3.856-2.614 6.827-3.414a138.941 138.941 0 004.779-4.779c1.909 0 .598.211 2.048-3.414z" transform="matrix(1 0 0 .88839 0 76.96)"/><path id="path575" d="M587.15 696.36c-.164-.025-3.855-.683-6.145-.683-1.931-.965-5.891-.683-8.875-.683-3.762.14-4.925.917-6.828 2.731-1.935 1.191-4.271 2.261-6.144 4.097-2.394 1.467-4.551 3.489-6.828 4.779-2.505 1.073-4.664 2.302-7.51 2.731-1.372 1.661-3.778 3.096-5.462 4.779-1.874 1.406-2.669 2.082-2.731 5.462-1.39 1.121-2.329 3.322-2.048 4.096 2.763 1.419 5.047 2.003 8.876 2.049 3.647.043 6.208.837 9.558 0 3.414-1.012 4.778-1.72 8.193-2.731 1.743-2.271 3.052-3.791 5.462-5.462 1.302-1.915 2.862-3.677 5.462-4.779 1.948-1.772 4.83-3.729 6.827-4.78 1.221-1.709 3.602-3.527 5.462-4.779 1.368-2.315 1.757-2.7 2.731-6.827z" transform="matrix(1 0 0 .86641 -.594 95.81)"/><path id="path577" d="M589.88 693.63v-20.482c-3.17-1.875-3.645-2.997-4.779-6.827-1.683-2.73-2.969-4.447-4.097-6.828-1.581-1.659-2.884-3.812-3.414-6.827-1.304-2.528-2.113-5.07-4.779-6.145-2.415-.525-5.565-.683-8.875-.683-4.522.168-4.097.965-4.097 5.462.318 3.497 1.433 4.412 2.731 7.51 1.003 2.118 2.092 4.294 3.414 6.145 1.021 2.262 2.623 5.174 4.096 6.827 1.196 2.511 2.915 4.786 3.414 7.511 1.871 2.374 3.164 4.451 4.779 6.144 1.337 2.791 2.343 4.37 4.779 5.462 1.393 2.088 3.748 2.26 6.828 2.731z"/><path id="path578" d="M557.11 682.71h.683c-1.908 0-.894.085 2.731-1.365.966-1.932.683-5.891.683-8.876 0-3.887-.643-5.542-1.366-8.193-1.242-2.965-2.255-4.355-2.731-7.51-1.021-2.156-2.049-4.329-2.731-6.827-1.227-1.806-2.104-4.529-2.73-6.827-2.305-1.306-4.433-2.616-6.828-3.414-2.171-1.028-4.193-2.561-6.827-3.414-3.425.627-3.812 1.756-4.097 5.462-.787 2.754.293 5.244 1.366 7.51 1.128 2.694 1.801 5.426 3.414 7.51.984 3.063 1.986 4.131 2.048 7.51 1.175 2.01 1.666 4.969 2.731 7.51 1.371 3.171 2.647 4.538 4.779 6.828 2.915 1.982 3.916 2.814 8.875 4.096z"/><path id="path579" d="M529.8 673.83c0-.327 2.168-1.67 3.414-3.414 1.02-2.041.894-6.191 0-8.876-1.295-3.199-2.706-5.597-3.414-8.192-.72-2.16-.683-5.728-.683-8.876-.623-2.868-1.649-4.988-2.731-8.193-.882-2.206-2.602-4.966-3.413-7.51-1.065-1.006-2.269-3.071-3.414-4.096-1.335-1.092-1.382-1.366-4.096-1.366-3.629.135-5.455.47-7.511 2.731-.719 2.16-.682 5.728-.682 8.876.045 3.762.395 5.541 2.048 8.193 1.206 2.869 3.736 5.663 5.462 8.192 1.415 2.396 2.316 4.675 4.096 6.145.464 3.076 1.621 4.484 2.731 6.827.464 3.076 1.621 4.484 2.731 6.828 1.786.198.952.634 2.048 1.365l-2.048-1.365c1.786.198.952.634 5.462 2.731z"/><path id="path581" d="M502.49 653.35c.417-.939 2.951-4.593 3.413-6.828-.046-3.872-.497-6.515-2.731-8.875-.554-2.389-1.894-5.998-2.731-8.193 0-3.148.038-6.716-.682-8.876 0-3.587-.496-5.742-1.366-8.193-1.542-2.267-3.203-2.931-6.827-4.096-2.937-.979-4.967-.273-8.193.683v9.558c.043 3.613.688 6.193 2.048 8.193 1.11 2.342 2.182 4.016 3.414 6.827.132 3.711 1.116 5.629 1.365 8.876.269 3.491.597 5.298 2.731 7.51 2.907 1.374 3.794 2.703 6.145 3.414l-6.145-3.414c2.907 1.374 3.794 2.703 9.559 3.414z"/><path id="path582" d="M477.92 638.33v-.682c0 1.908-.084.894 1.366-2.731.739-2.96.682-6.218.682-9.559-.211-2.751-.61-5.928-1.365-8.192-.624-3.495-1.339-5.682-2.048-8.876-.488-2.773-2.366-5.834-3.414-8.193-.67-2.01-1.353-6.2-2.048-8.193-.489-2.552-1.715-3.355-4.097-4.096-1.869-.935-6.323-.935-8.193 0-2.009.696-2.006 2.284-2.73 4.096-.253 3.533-.854 6.143 0 9.559 1.155 1.975 2.377 4.071 3.413 6.144 1.342 2.423 2.687 6.059 4.097 8.193 1.027 3.467 1.407 5.068 3.413 8.193.738 2.213 1.902 4.873 3.414 6.827.972 2.43 2.39 4.152 3.414 6.828 1.842 0 .461-.045 4.096.682z"/><path id="path583" d="M618.13 711.13h-11.293c-1.735 1.648-2.339 2.595-5.349 2.972-1.52 1.317-2.96 2.534-5.349 2.971-2.103.458-4.845.595-7.727.595-3.523-.043-4.733.109-5.349-2.972.056-3.063.2-3.234 2.972-3.566 1.484-1.226 3.971-1.807 6.538-2.377 1.962-.697 4.365-1.311 6.538-1.784 2.107-.748 4.118-1.512 5.943-2.377-.454-1.815-1.921-1.417-3.566-.594-2.135 0-4.682.162-5.944-.595-1.483-2.204-2.286-2.927-5.943-2.971-3.47-.042-4.062-.953-7.132-1.189-2.94-.036-4.995-.476-7.133-1.189-3.138-.224-5.246-.702-7.726-1.783-.797-.797 1.094-.962 2.377-1.189 1.758-1.195 3.617-1.675 6.538-1.783h8.321c3.049 0 5.395.49 8.321.595 2.385.825 4.891 1.257 6.538 2.377 2.151.717 3.505 1.978 4.755 3.566 2.091.571 4.195 1.274 6.538 1.783 2.74 0 5.846-.032 7.726.595 1.361 2.268.285 5.986-.594 8.915z"/></g><g id="g601" transform="matrix(-.734 0 0 .74706 748.97 -162.81)"><path id="path602" d="M460.16 634.92l-.683-.683c1.55 1.549.802.981-.683-2.731-.145-3.936-1.098-4.57-3.413-6.145-2.715-.904-3.875-2.064-4.779-4.779-1.736-1.433-3.042-3.351-4.097-5.462a18.088 18.088 0 01-4.779-4.779 18.103 18.103 0 01-4.779-4.779c-2.594-.906-4.306-2.751-7.51-4.096-1.803-1.719-3.497-2.567-6.145-4.097-2.963-1.419-3.132-2.446-6.827-2.731-1.13 1.244-2.92.755-3.414 2.731.15 4.046.955 4.894 2.731 8.193.138 3.729 1.14 5.484 2.731 8.193 1.939 1.357 3.431 3.769 5.462 5.462 2.168 1.474 3.03 3.04 6.145 4.779 1.627 2.035 4.347 3.126 6.827 4.779 3.054 1.178 5.559 2.087 7.51 3.414 2.74.644 4.611 1.681 6.827 2.731 3.277.307 4.611.673 8.876 0z"/><path id="path603" d="M474.5 654.03l-.682-.682c1.621 1.621.848.958-1.366-2.731-2.524-2.39-3.07-4.221-6.827-4.78-2.006-.802-5.262-1.298-7.51-2.048-3.887 0-5.668-.415-8.876-1.365-2.293-.626-5.194-1.738-7.51-2.731-2.746-.408-5.589-1.482-8.193-2.048h-9.558c-3.067.721-4.793.753-5.462 4.096 1.4 1.695 3.248 3.173 4.779 4.779.863 2.999 2.946 3.714 4.779 5.462 3.161 1.094 3.803 1.911 7.51 2.048 3.143 1.048 5.428 1.324 8.876 1.366 3.657 0 6.287.742 9.558 1.365 2.724.368 5.396.683 8.876.683 2.966 0 6.197-.017 8.193-.683 4.302-3.441 3.413-4.188 3.413.683l1.366 1.365"/><path id="path604" d="M497.71 664.27h-.682c1.843 0 .907.045-2.731-.682-3.405-.973-5.339-1.918-8.876-2.049-2.101-1.228-4.68-1.365-8.193-1.365h-9.558c-3.38.26-4.813 1.105-8.193 1.365-1.794 1.05-5.358 1.912-7.51 2.731-1.92 1.306-3.559 2.929-6.145 4.097.596 3.391 2.479 4.668 4.78 6.144 2.31.925 4.685 1.798 8.192 2.049 3.355.124 5.163.682 8.876.682 3.479 0 6.152-.314 8.876-.682 2.266-1.074 4.194-2.199 7.51-2.731 1.653-1.433 4.073-2.433 6.144-3.414 1.834-.868 4.329-1.669 6.145-2.731l-6.145 2.731c1.834-.868 4.329-1.669 7.51-6.145z"/><path id="path605" d="M529.8 679.98v-.682c0 1.908.085.894-1.365-2.731-2.527-1.332-5.559-2.273-7.511-3.414-2.984 0-6.944-.283-8.875.683-3.448.041-5.733.318-8.876 1.365-2.996.452-4.723 1.5-6.827 2.731-2.378 1.283-5.824 2.934-8.876 4.096-2.698 1.881-3.612 2.984-6.827 4.78-2.025 2.219-4.098 3.552-5.462 5.462-.606 2.304.039 5.022 2.731 6.144 1.702 1.406 4.316 2.14 6.827 2.731 3.187-.118 6.001-.56 8.193-2.048 3.383-.448 5.393-1.44 8.193-2.048 2.396-.851 4.69-1.667 7.51-2.049 1.953-1.324 5.416-2.467 7.51-3.413 3.43-1.389 5.621-3.221 8.193-4.779 1.226-1.419 2.862-2.951 4.779-3.414l-4.779 3.414c1.226-1.419 2.862-2.951 5.462-6.828z" transform="matrix(1 0 0 .85157 1.189 101.1)"/><path id="path606" d="M557.11 693.63c-.127-.032-3.176-1.365-5.461-1.365-2.024-1.184-5.299-1.422-8.193-2.731-3.731 0-6.271.418-8.193 2.048-2.838.383-5.375 1.217-7.51 2.731-2.658.625-5.07 1.21-7.51 2.731-3.294 1.382-4.744 2.679-6.828 4.096-1.405 1.701-4.441 2.652-6.144 4.097-1.529 1.851-1.526 4.299-.683 6.827 1.748 1.076 4.736 2.144 6.827 3.414 3.052.545 6.162.682 9.559.682 3.031-.233 5.588-.741 7.51-2.048 3.434-1.654 4.348-2.876 6.827-4.779 1.434-1.736 3.833-3.133 6.145-4.096 1.742-1.51 3.856-2.614 6.827-3.414a138.941 138.941 0 004.779-4.779c1.909 0 .598.211 2.048-3.414z" transform="matrix(1 0 0 .88839 0 76.96)"/><path id="path607" d="M587.15 696.36c-.164-.025-3.855-.683-6.145-.683-1.931-.965-5.891-.683-8.875-.683-3.762.14-4.925.917-6.828 2.731-1.935 1.191-4.271 2.261-6.144 4.097-2.394 1.467-4.551 3.489-6.828 4.779-2.505 1.073-4.664 2.302-7.51 2.731-1.372 1.661-3.778 3.096-5.462 4.779-1.874 1.406-2.669 2.082-2.731 5.462-1.39 1.121-2.329 3.322-2.048 4.096 2.763 1.419 5.047 2.003 8.876 2.049 3.647.043 6.208.837 9.558 0 3.414-1.012 4.778-1.72 8.193-2.731 1.743-2.271 3.052-3.791 5.462-5.462 1.302-1.915 2.862-3.677 5.462-4.779 1.948-1.772 4.83-3.729 6.827-4.78 1.221-1.709 3.602-3.527 5.462-4.779 1.368-2.315 1.757-2.7 2.731-6.827z" transform="matrix(1 0 0 .86641 -.594 95.81)"/><path id="path608" d="M589.88 693.63v-20.482c-3.17-1.875-3.645-2.997-4.779-6.827-1.683-2.73-2.969-4.447-4.097-6.828-1.581-1.659-2.884-3.812-3.414-6.827-1.304-2.528-2.113-5.07-4.779-6.145-2.415-.525-5.565-.683-8.875-.683-4.522.168-4.097.965-4.097 5.462.318 3.497 1.433 4.412 2.731 7.51 1.003 2.118 2.092 4.294 3.414 6.145 1.021 2.262 2.623 5.174 4.096 6.827 1.196 2.511 2.915 4.786 3.414 7.511 1.871 2.374 3.164 4.451 4.779 6.144 1.337 2.791 2.343 4.37 4.779 5.462 1.393 2.088 3.748 2.26 6.828 2.731z"/><path id="path609" d="M557.11 682.71h.683c-1.908 0-.894.085 2.731-1.365.966-1.932.683-5.891.683-8.876 0-3.887-.643-5.542-1.366-8.193-1.242-2.965-2.255-4.355-2.731-7.51-1.021-2.156-2.049-4.329-2.731-6.827-1.227-1.806-2.104-4.529-2.73-6.827-2.305-1.306-4.433-2.616-6.828-3.414-2.171-1.028-4.193-2.561-6.827-3.414-3.425.627-3.812 1.756-4.097 5.462-.787 2.754.293 5.244 1.366 7.51 1.128 2.694 1.801 5.426 3.414 7.51.984 3.063 1.986 4.131 2.048 7.51 1.175 2.01 1.666 4.969 2.731 7.51 1.371 3.171 2.647 4.538 4.779 6.828 2.915 1.982 3.916 2.814 8.875 4.096z"/><path id="path610" d="M529.8 673.83c0-.327 2.168-1.67 3.414-3.414 1.02-2.041.894-6.191 0-8.876-1.295-3.199-2.706-5.597-3.414-8.192-.72-2.16-.683-5.728-.683-8.876-.623-2.868-1.649-4.988-2.731-8.193-.882-2.206-2.602-4.966-3.413-7.51-1.065-1.006-2.269-3.071-3.414-4.096-1.335-1.092-1.382-1.366-4.096-1.366-3.629.135-5.455.47-7.511 2.731-.719 2.16-.682 5.728-.682 8.876.045 3.762.395 5.541 2.048 8.193 1.206 2.869 3.736 5.663 5.462 8.192 1.415 2.396 2.316 4.675 4.096 6.145.464 3.076 1.621 4.484 2.731 6.827.464 3.076 1.621 4.484 2.731 6.828 1.786.198.952.634 2.048 1.365l-2.048-1.365c1.786.198.952.634 5.462 2.731z"/><path id="path611" d="M502.49 653.35c.417-.939 2.951-4.593 3.413-6.828-.046-3.872-.497-6.515-2.731-8.875-.554-2.389-1.894-5.998-2.731-8.193 0-3.148.038-6.716-.682-8.876 0-3.587-.496-5.742-1.366-8.193-1.542-2.267-3.203-2.931-6.827-4.096-2.937-.979-4.967-.273-8.193.683v9.558c.043 3.613.688 6.193 2.048 8.193 1.11 2.342 2.182 4.016 3.414 6.827.132 3.711 1.116 5.629 1.365 8.876.269 3.491.597 5.298 2.731 7.51 2.907 1.374 3.794 2.703 6.145 3.414l-6.145-3.414c2.907 1.374 3.794 2.703 9.559 3.414z"/><path id="path612" d="M477.92 638.33v-.682c0 1.908-.084.894 1.366-2.731.739-2.96.682-6.218.682-9.559-.211-2.751-.61-5.928-1.365-8.192-.624-3.495-1.339-5.682-2.048-8.876-.488-2.773-2.366-5.834-3.414-8.193-.67-2.01-1.353-6.2-2.048-8.193-.489-2.552-1.715-3.355-4.097-4.096-1.869-.935-6.323-.935-8.193 0-2.009.696-2.006 2.284-2.73 4.096-.253 3.533-.854 6.143 0 9.559 1.155 1.975 2.377 4.071 3.413 6.144 1.342 2.423 2.687 6.059 4.097 8.193 1.027 3.467 1.407 5.068 3.413 8.193.738 2.213 1.902 4.873 3.414 6.827.972 2.43 2.39 4.152 3.414 6.828 1.842 0 .461-.045 4.096.682z"/><path id="path613" d="M618.13 711.13h-11.293c-1.735 1.648-2.339 2.595-5.349 2.972-1.52 1.317-2.96 2.534-5.349 2.971-2.103.458-4.845.595-7.727.595-3.523-.043-4.733.109-5.349-2.972.056-3.063.2-3.234 2.972-3.566 1.484-1.226 3.971-1.807 6.538-2.377 1.962-.697 4.365-1.311 6.538-1.784 2.107-.748 4.118-1.512 5.943-2.377-.454-1.815-1.921-1.417-3.566-.594-2.135 0-4.682.162-5.944-.595-1.483-2.204-2.286-2.927-5.943-2.971-3.47-.042-4.062-.953-7.132-1.189-2.94-.036-4.995-.476-7.133-1.189-3.138-.224-5.246-.702-7.726-1.783-.797-.797 1.094-.962 2.377-1.189 1.758-1.195 3.617-1.675 6.538-1.783h8.321c3.049 0 5.395.49 8.321.595 2.385.825 4.891 1.257 6.538 2.377 2.151.717 3.505 1.978 4.755 3.566 2.091.571 4.195 1.274 6.538 1.783 2.74 0 5.846-.032 7.726.595 1.361 2.268.285 5.986-.594 8.915z"/></g></g></g></svg>