<svg id="svg378" xmlns="http://www.w3.org/2000/svg" height="480" width="640" version="1" y="0" x="0"><g id="flag"><g id="g4427" fill-rule="evenodd" stroke-width="1pt" transform="scale(1.25 .9375)"><path id="rect171" fill="#ffe800" d="M0 0h512v512H0z"/><path id="rect403" fill="#00148e" d="M0 256h512v256H0z"/><path id="rect135" fill="#da0010" d="M0 384h512v128H0z"/></g><g id="g1649" transform="matrix(1.2423 0 0 1.4908 -142.19 -129.94)"><g id="g876" fill-rule="evenodd" transform="matrix(-.47007 0 0 .41368 605.23 96.094)"><path id="path877" d="M4.799 403.83l23.793 196.9h3.82L8.62 403.83H4.799z" transform="matrix(.57212 -.69718 .56072 .71411 353.28 164.96)" stroke-width="1pt"/><path id="path878" d="M4.799 403.83L-2.54 633.67h3.822L8.62 403.83H4.799z" transform="matrix(.74475 -.66734 .72991 .68354 197.73 197.43)" stroke-width="1pt"/><path id="path879" d="M478.35 60.236v88.583l17.717 88.583 17.717-88.583V60.236H478.35z" transform="matrix(.11739 -.11008 .15205 .14618 590.2 674.92)" stroke="#000" stroke-width="4.104" fill="gray"/><path id="path880" d="M478.35 60.236v88.583l17.717 88.583 17.717-88.583V60.236H478.35z" transform="matrix(.11739 -.11008 .15205 .14618 632.05 611.64)" stroke="#000" stroke-width="4.104" fill="gray"/></g><g id="g1095" transform="matrix(.47007 0 0 .41368 122.21 80.334)"><path id="path571" d="M301.18 272.84s-17.716 336.61 53.15 336.61 106.3-35.433 106.3-35.433l-.86-185.03-158.59-116.15z" fill-rule="evenodd" transform="matrix(.76821 0 0 1.0447 107.43 -80.403)" stroke="#000" stroke-width="1pt" fill="#ffdf00"/><path id="path572" d="M344.46 304.2c-.001 17.717-7.846 269.82 27.587 269.82s88.583-17.717 88.583-17.717l-.86-167.31-115.31-84.79z" fill-rule="evenodd" transform="matrix(.76821 0 0 1.0447 107.43 -80.403)" stroke="#000" stroke-width="1pt" fill="#0000c4"/><path id="path573" d="M367.52 321.16c-.001 17.717 4.525 217.42 39.958 217.42h53.15l-.859-149.59-92.249-67.833z" fill-rule="evenodd" transform="matrix(.76821 0 0 1.0447 107.43 -80.403)" stroke="#000" stroke-width="1pt" fill="#e10000"/><path id="path574" d="M4.799 403.83l23.793 196.9h3.82L8.62 403.83H4.799z" fill-rule="evenodd" transform="matrix(.57212 -.69718 .56072 .71411 107.43 -80.403)" stroke-width="1pt"/><path id="path551" d="M301.18 272.84s-35.433 336.61 70.866 336.61c88.583 0 88.583-53.15 106.3-53.15l-17.72-124.02-159.45-159.44z" fill-rule="evenodd" stroke="#000" stroke-width="1pt" fill="#ffdf00"/><g id="g1056" stroke="#000" transform="matrix(.51617 -.27185 .21845 .40928 202.4 380.19)"><path id="path1046" d="M269.59 155.24c1.133 0 28.318-94.016 118.94-147.25" transform="matrix(1.0328 .5788 -.58895 .99892 119.61 -225.32)" stroke-width="2.305" fill="none"/><path id="path1036" d="M421.37-20.327c0 18.133-4.567 31.716-11.328 45.309-5.627-18.124-9.061-27.176-9.061-45.309s6.832-35.114 12.459-48.707c2.23 12.46 7.93 30.574 7.93 48.707z" fill-rule="evenodd" transform="matrix(.64661 -.44175 .57085 .93288 81.137 184.9)" stroke-width="1pt" fill="#005b00"/><path id="path1049" d="M454.22-169.28c0 4.066-3.804 7.363-8.495 7.363s-8.496-3.297-8.496-7.363 3.804-7.363 8.496-7.363 8.495 3.297 8.495 7.363z" fill-rule="evenodd" transform="matrix(.6 0 0 .6923 86.54 185.79)" stroke-width="1pt" fill="red"/><path id="path1032" d="M421.37-20.327c0 18.133-4.567 31.716-11.328 45.309-5.627-18.124-9.061-27.176-9.061-45.309s6.832-35.114 12.459-48.707c2.23 12.46 7.93 30.574 7.93 48.707z" fill-rule="evenodd" transform="matrix(.30183 .67129 -.76402 .80884 305.07 -304.02)" stroke-width="1pt" fill="#005b00"/><path id="path1033" d="M421.37-20.327c0 18.133-4.567 31.716-11.328 45.309-5.627-18.124-9.061-27.176-9.061-45.309s6.832-35.114 12.459-48.707c2.23 12.46 7.93 30.574 7.93 48.707z" fill-rule="evenodd" transform="matrix(.49226 .20511 -.50577 .95183 218.44 -112.53)" stroke-width="1pt" fill="#005b00"/><path id="path1034" d="M421.37-20.327c0 18.133-4.567 31.716-11.328 45.309-5.627-18.124-9.061-27.176-9.061-45.309s6.832-35.114 12.459-48.707c2.23 12.46 7.93 30.574 7.93 48.707z" fill-rule="evenodd" transform="matrix(-.16649 .88938 -.69968 .30034 493.42 -380.78)" stroke-width="1pt" fill="#005b00"/><path id="path1035" d="M421.37-20.327c0 18.133-4.567 31.716-11.328 45.309-5.627-18.124-9.061-27.176-9.061-45.309s6.832-35.114 12.459-48.707c2.23 12.46 7.93 30.574 7.93 48.707z" fill-rule="evenodd" transform="matrix(.77794 -.21907 .17683 1.0498 36.133 90.53)" stroke-width="1pt" fill="#005b00"/><path id="path1037" d="M421.37-20.327c0 18.133-4.567 31.716-11.328 45.309-5.627-18.124-9.061-27.176-9.061-45.309s6.832-35.114 12.459-48.707c2.23 12.46 7.93 30.574 7.93 48.707z" fill-rule="evenodd" transform="matrix(.85513 -.32081 .38526 1.0592 -55.632 192.12)" stroke-width="1pt" fill="#005b00"/><path id="path1038" d="M421.37-20.327c0 18.133-4.567 31.716-11.328 45.309-5.627-18.124-9.061-27.176-9.061-45.309s6.832-35.114 12.459-48.707c2.23 12.46 7.93 30.574 7.93 48.707z" fill-rule="evenodd" transform="matrix(.5396 .73688 -.91599 .65671 107.95 -231.91)" stroke-width="1pt" fill="#005b00"/><path id="path1039" d="M421.37-20.327c0 18.133-4.567 31.716-11.328 45.309-5.627-18.124-9.061-27.176-9.061-45.309s6.832-35.114 12.459-48.707c2.23 12.46 7.93 30.574 7.93 48.707z" fill-rule="evenodd" transform="matrix(.11804 .90567 -1.119 .13442 289.51 -286.85)" stroke-width="1pt" fill="#005b00"/><path id="path1040" d="M421.37-20.327c0 18.133-4.567 31.716-11.328 45.309-5.627-18.124-9.061-27.176-9.061-45.309s6.832-35.114 12.459-48.707c2.23 12.46 7.93 30.574 7.93 48.707z" fill-rule="evenodd" transform="matrix(.09502 .40764 -.5638 .27251 477.35 -164.9)" stroke-width="1pt" fill="#005b00"/><path id="path1041" d="M421.37-20.327c0 18.133-4.567 31.716-11.328 45.309-5.627-18.124-9.061-27.176-9.061-45.309s6.832-35.114 12.459-48.707c2.23 12.46 7.93 30.574 7.93 48.707z" fill-rule="evenodd" transform="matrix(.26965 .20212 -.4269 .39695 400.57 -82.108)" stroke-width="1pt" fill="#005b00"/><path id="path1042" d="M421.37-20.327c0 18.133-4.567 31.716-11.328 45.309-5.627-18.124-9.061-27.176-9.061-45.309s6.832-35.114 12.459-48.707c2.23 12.46 7.93 30.574 7.93 48.707z" fill-rule="evenodd" transform="matrix(-.21477 .43025 -.45956 .02053 600.54 -168.3)" stroke-width="1pt" fill="#005b00"/><path id="path1043" d="M421.37-20.327c0 18.133-4.567 31.716-11.328 45.309-5.627-18.124-9.061-27.176-9.061-45.309s6.832-35.114 12.459-48.707c2.23 12.46 7.93 30.574 7.93 48.707z" fill-rule="evenodd" transform="matrix(.0231 .46942 -.84882 .04069 382.72 -176.4)" stroke-width="1pt" fill="#005b00"/><path id="path1044" d="M421.37-20.327c0 18.133-4.567 31.716-11.328 45.309-5.627-18.124-9.061-27.176-9.061-45.309s6.832-35.114 12.459-48.707c2.23 12.46 7.93 30.574 7.93 48.707z" fill-rule="evenodd" transform="matrix(.04541 .9122 -1.1262 .04472 406.9 -340.56)" stroke-width="1pt" fill="#005b00"/><path id="path1045" d="M269.59 155.24c1.133 0 28.318-94.016 118.94-147.25" transform="matrix(1.1714 0 0 1.1077 -46.215 -16.719)" stroke-width="2.37" fill="none"/><path id="path1047" d="M454.22-169.28c0 4.066-3.804 7.363-8.495 7.363s-8.496-3.297-8.496-7.363 3.804-7.363 8.496-7.363 8.495 3.297 8.495 7.363z" fill-rule="evenodd" transform="matrix(.6 0 0 .69231 187.35 125.75)" stroke-width="1pt" fill="red"/><path id="path1048" d="M454.22-169.28c0 4.066-3.804 7.363-8.495 7.363s-8.496-3.297-8.496-7.363 3.804-7.363 8.496-7.363 8.495 3.297 8.495 7.363z" fill-rule="evenodd" transform="matrix(.6 0 0 .69231 223.6 124.62)" stroke-width="1pt" fill="red"/><path id="path1050" d="M454.22-169.28c0 4.066-3.804 7.363-8.495 7.363s-8.496-3.297-8.496-7.363 3.804-7.363 8.496-7.363 8.495 3.297 8.495 7.363z" fill-rule="evenodd" transform="matrix(.62069 0 0 .52 89.954 93.049)" stroke-width="1pt" fill="red"/><path id="path1051" d="M454.22-169.28c0 4.066-3.804 7.363-8.495 7.363s-8.496-3.297-8.496-7.363 3.804-7.363 8.496-7.363 8.495 3.297 8.495 7.363z" fill-rule="evenodd" transform="matrix(.62069 0 0 .52 99.797 94.227)" stroke-width="1pt" fill="red"/><path id="path1052" d="M454.22-169.28c0 4.066-3.804 7.363-8.495 7.363s-8.496-3.297-8.496-7.363 3.804-7.363 8.496-7.363 8.495 3.297 8.495 7.363z" fill-rule="evenodd" transform="matrix(.62069 0 0 .52 91.36 100.12)" stroke-width="1pt" fill="red"/><path id="path1053" d="M454.22-169.28c0 4.066-3.804 7.363-8.495 7.363s-8.496-3.297-8.496-7.363 3.804-7.363 8.496-7.363 8.495 3.297 8.495 7.363z" fill-rule="evenodd" transform="matrix(.66667 0 0 .76923 102.7 156.33)" stroke-width="1pt" fill="red"/><path id="path1054" d="M454.22-169.28c0 4.066-3.804 7.363-8.495 7.363s-8.496-3.297-8.496-7.363 3.804-7.363 8.496-7.363 8.495 3.297 8.495 7.363z" fill-rule="evenodd" transform="matrix(.66667 0 0 .76923 111.76 152.93)" stroke-width="1pt" fill="red"/><path id="path1055" d="M454.22-169.28c0 4.066-3.804 7.363-8.495 7.363s-8.496-3.297-8.496-7.363 3.804-7.363 8.496-7.363 8.495 3.297 8.495 7.363z" fill-rule="evenodd" transform="matrix(.66667 0 0 .76923 111.76 157.46)" stroke-width="1pt" fill="red"/></g><path id="path552" d="M336.61 308.27c-.001 17.717-35.433 212.6 53.15 265.75 35.433 17.716 88.582-17.717 88.582 0l-17.71-141.74-124.02-124.01z" fill-rule="evenodd" stroke="#000" stroke-width="1pt" fill="#0000c4"/><path id="path553" d="M372.05 343.7c-.001 17.717-17.716 159.45 35.433 194.88 35.433 35.433 124.02 25.822 124.02 25.822l-70.87-132.12-88.58-88.58z" fill-rule="evenodd" stroke="#000" stroke-width="1pt" fill="#e10000"/><path id="path570" d="M4.799 403.83L-2.54 633.67h3.822L8.62 403.83H4.799z" fill-rule="evenodd" transform="matrix(.74475 -.66734 .72991 .68354 0 0)" stroke-width="1pt"/><path id="path575" d="M460.63 184.25l17.716 35.433V237.4c-.865-1.305 0 17.716-17.716 17.716-17.717 0-17.717-35.433-17.717-35.433s-17.716 35.433-17.716 70.866 17.716 53.15 17.716 53.15-2.611-36.703 17.717-35.433c20.328 1.271 17.716 17.716 17.716 17.716v35.433h17.717v-141.73l17.717-35.433-27.136-53.15-26.014 53.15z" fill-rule="evenodd" transform="matrix(.23199 -.22936 .17842 .17687 131.38 328.08)" stroke="#000" stroke-width="1pt" fill="#cececc"/><path id="path576" d="M557.82 95.669l-26.323 70.866 17.717 53.15-35.433-17.716 35.433 53.149v35.433h17.716v-35.433l35.433-53.149-35.433 17.716 17.717-53.15-26.827-70.866z" fill-rule="evenodd" transform="matrix(.17862 -.25938 .23884 .15008 178.7 314.58)" stroke="#000" stroke-width="1pt" fill="#cececc"/><path id="path582" d="M422.53 136.96c0 2.068-1.958 3.746-4.371 3.746-2.412 0-4.371-1.678-4.371-3.746s1.959-3.747 4.371-3.747c2.413 0 4.371 1.679 4.371 3.747zm-6.244 7.909c0 35.801 20.917 187.81 22.582 191.56.139 4.44-4.718 6.383-7.077.833-6.551-17.342-20.744-159.91-21.333-193.22-.244-13.734 3.761-14.801 8.326-14.57 3.759.209 8.325 3.725 8.325 7.909 0 4.996-5.828 8.742-10.823 7.493z" fill-rule="evenodd" transform="matrix(.68641 0 0 .50303 58.427 129.68)" stroke="#000" stroke-width="1pt" fill="#e10000"/><path id="path583" d="M422.53 136.96c0 2.068-1.958 3.746-4.371 3.746-2.412 0-4.371-1.678-4.371-3.746s1.959-3.747 4.371-3.747c2.413 0 4.371 1.679 4.371 3.747zm-6.244 7.909c31.488 61.415 48.722 166.77 50.387 170.52.139 4.44-4.718 6.383-7.077.833-2.479-3.315-12.667-100.18-49.138-172.18-.244-13.734 3.761-14.801 8.326-14.57 3.759.209 8.325 3.725 8.325 7.909 0 4.996-5.828 8.742-10.823 7.493z" fill-rule="evenodd" transform="matrix(.64753 .14728 -.2581 .47453 113.74 78.375)" stroke="#000" stroke-width="1pt" fill="#0000c4"/><path id="path586" d="M422.53 136.96c0 2.068-1.958 3.746-4.371 3.746-2.412 0-4.371-1.678-4.371-3.746s1.959-3.747 4.371-3.747c2.413 0 4.371 1.679 4.371 3.747zm-6.244 7.909c0 35.801 20.917 187.81 22.582 191.56.139 4.44-4.718 6.383-7.077.833-6.551-17.342-20.744-159.91-21.333-193.22-.244-13.734 3.761-14.801 8.326-14.57 3.759.209 8.325 3.725 8.325 7.909 0 4.996-5.828 8.742-10.823 7.493z" fill-rule="evenodd" transform="matrix(.87712 0 0 .81837 -58.633 151.18)" stroke="#000" stroke-width="1pt" fill="#e10000"/><path id="path587" d="M422.53 136.96c0 2.068-1.958 3.746-4.371 3.746-2.412 0-4.371-1.678-4.371-3.746s1.959-3.747 4.371-3.747c2.413 0 4.371 1.679 4.371 3.747zm-6.244 7.909c31.488 61.415 48.722 166.77 50.387 170.52.139 4.44-4.718 6.383-7.077.833-2.479-3.315-12.667-100.18-49.138-172.18-.244-13.734 3.761-14.801 8.326-14.57 3.759.209 8.325 3.725 8.325 7.909 0 4.996-5.828 8.742-10.823 7.493z" fill-rule="evenodd" transform="matrix(.82744 .23961 -.3298 .77201 12.05 67.705)" stroke="#000" stroke-width="1pt" fill="#0000c4"/></g><g id="g841" fill-rule="evenodd" transform="matrix(.47007 0 0 .41368 138.86 96.094)"><path id="path840" d="M4.799 403.83l23.793 196.9h3.82L8.62 403.83H4.799z" transform="matrix(.57212 -.69718 .56072 .71411 353.28 164.96)" stroke-width="1pt"/><path id="path839" d="M4.799 403.83L-2.54 633.67h3.822L8.62 403.83H4.799z" transform="matrix(.74475 -.66734 .72991 .68354 197.73 197.43)" stroke-width="1pt"/><path id="path700" d="M478.35 60.236v88.583l17.717 88.583 17.717-88.583V60.236H478.35z" transform="matrix(.11739 -.11008 .15205 .14618 590.2 674.92)" stroke="#000" stroke-width="4.104" fill="gray"/><path id="path701" d="M478.35 60.236v88.583l17.717 88.583 17.717-88.583V60.236H478.35z" transform="matrix(.11739 -.11008 .15205 .14618 632.05 611.64)" stroke="#000" stroke-width="4.104" fill="gray"/></g><g id="g1003" fill-rule="evenodd" stroke-width="1pt" transform="matrix(.47007 0 0 .41368 122.21 80.334)"><path id="path862" d="M301.18 272.84s-17.716 336.61 53.15 336.61 106.3-35.433 106.3-35.433l-.86-185.03-158.59-116.15z" transform="matrix(-.76821 0 0 1.0447 955.56 -80.403)" stroke="#000" fill="#ffdf00"/><path id="path863" d="M344.46 304.2c-.001 17.717-7.846 269.82 27.587 269.82s88.583-17.717 88.583-17.717l-.86-167.31-115.31-84.79z" transform="matrix(-.76821 0 0 1.0447 955.56 -80.403)" stroke="#000" fill="#0000c4"/><path id="path864" d="M367.52 321.16c-.001 17.717 4.525 217.42 39.958 217.42h53.15l-.859-149.59-92.249-67.833z" transform="matrix(-.76821 0 0 1.0447 955.56 -80.403)" stroke="#000" fill="#e10000"/><path id="path865" d="M4.799 403.83l23.793 196.9h3.82L8.62 403.83H4.799z" transform="matrix(-.57212 -.69718 -.56072 .71411 955.56 -80.403)"/><g id="g940" transform="matrix(.52429 -.22358 .16895 .69382 362.76 423.13)" stroke="#000" fill="#005b00"><path id="path922" d="M428.17-16.928s81.556 90.618 111.01 154.05c29.451 63.432 54.371 156.32 54.371 156.32s2.265-86.086-36.247-163.11c-52.1-97.419-131.4-142.73-129.13-147.26z" transform="matrix(.53445 0 0 .82343 287.66 -.293)"/><path id="path923" d="M428.17-16.928s81.556 90.618 111.01 154.05c29.451 63.432 54.371 156.32 54.371 156.32s2.265-86.086-36.247-163.11c-52.1-97.419-131.4-142.73-129.13-147.26z" transform="matrix(.61528 .07875 -.06176 .89037 253.7 -77.628)"/><path id="path924" d="M428.17-16.928s81.556 90.618 111.01 154.05c29.451 63.432 54.371 156.32 54.371 156.32s2.265-86.086-36.247-163.11c-52.1-97.419-131.4-142.73-129.13-147.26z" transform="matrix(.58869 .51998 -.35619 .81397 345.67 -312.47)"/><path id="path925" d="M428.17-16.928s81.556 90.618 111.01 154.05c29.451 63.432 54.371 156.32 54.371 156.32s2.265-86.086-36.247-163.11c-52.1-97.419-131.4-142.73-129.13-147.26z" transform="matrix(.7072 .29774 -.25186 .94875 249.31 -237.18)"/><path id="path926" d="M428.17-16.928s81.556 90.618 111.01 154.05c29.451 63.432 54.371 156.32 54.371 156.32s2.265-86.086-36.247-163.11c-52.1-97.419-131.4-142.73-129.13-147.26z" transform="matrix(.42062 .52704 -.35125 .71621 446.49 -285.66)"/><path id="path927" d="M428.17-16.928s81.556 90.618 111.01 154.05c29.451 63.432 54.371 156.32 54.371 156.32s2.265-86.086-36.247-163.11c-52.1-97.419-131.4-142.73-129.13-147.26z" transform="matrix(.66899 .21888 -.17326 .88554 249.21 -174.23)"/><path id="path934" d="M428.17-16.928s81.556 90.618 111.01 154.05c29.451 63.432 54.371 156.32 54.371 156.32s2.265-86.086-36.247-163.11c-52.1-97.419-131.4-142.73-129.13-147.26z" transform="matrix(.63368 .03827 -.06552 .87865 239.97 -48.721)"/><path id="path935" d="M428.17-16.928s81.556 90.618 111.01 154.05c29.451 63.432 54.371 156.32 54.371 156.32s2.265-86.086-36.247-163.11c-52.1-97.419-131.4-142.73-129.13-147.26z" transform="matrix(.60862 .11977 -.12124 .88424 268.02 -109.93)"/><path id="path936" d="M428.17-16.928s81.556 90.618 111.01 154.05c29.451 63.432 54.371 156.32 54.371 156.32s2.265-86.086-36.247-163.11c-52.1-97.419-131.4-142.73-129.13-147.26z" transform="matrix(.55418 .53394 -.40735 .75026 373.79 -312.51)"/><path id="path937" d="M428.17-16.928s81.556 90.618 111.01 154.05c29.451 63.432 54.371 156.32 54.371 156.32s2.265-86.086-36.247-163.11c-52.1-97.419-131.4-142.73-129.13-147.26z" transform="matrix(.68567 .34443 -.31483 .92976 274.32 -269.42)"/><path id="path938" d="M428.17-16.928s81.556 90.618 111.01 154.05c29.451 63.432 54.371 156.32 54.371 156.32s2.265-86.086-36.247-163.11c-52.1-97.419-131.4-142.73-129.13-147.26z" transform="matrix(.38774 .52048 -.39386 .64347 470.97 -270.71)"/><path id="path939" d="M428.17-16.928s81.556 90.618 111.01 154.05c29.451 63.432 54.371 156.32 54.371 156.32s2.265-86.086-36.247-163.11c-52.1-97.419-131.4-142.73-129.13-147.26z" transform="matrix(.70076 .26126 -.25554 .87905 246.36 -207.5)"/></g><path id="path866" d="M301.18 272.84s-35.433 336.61 70.866 336.61c88.583 0 88.583-53.15 106.3-53.15l-17.72-124.02-159.45-159.44z" transform="matrix(-1 0 0 1 1063 0)" stroke="#000" fill="#ffdf00"/><path id="path867" d="M336.61 308.27c-.001 17.717-35.433 212.6 53.15 265.75 35.433 17.716 88.582-17.717 88.582 0l-17.71-141.74-124.02-124.01z" transform="matrix(-1 0 0 1 1063 0)" stroke="#000" fill="#0000c4"/><path id="path868" d="M372.05 343.7c-.001 17.717-17.716 159.45 35.433 194.88 35.433 35.433 124.02 25.822 124.02 25.822l-70.87-132.12-88.58-88.58z" transform="matrix(-1 0 0 1 1063 0)" stroke="#000" fill="#e10000"/><path id="path869" d="M4.799 403.83L-2.54 633.67h3.822L8.62 403.83H4.799z" transform="matrix(-.74475 -.66734 -.72991 .68354 1063 0)"/><path id="path870" d="M460.63 184.25l17.716 35.433V237.4c-.865-1.305 0 17.716-17.716 17.716-17.717 0-17.717-35.433-17.717-35.433s-17.716 35.433-17.716 70.866 17.716 53.15 17.716 53.15-2.611-36.703 17.717-35.433c20.328 1.271 17.716 17.716 17.716 17.716v35.433h17.717v-141.73l17.717-35.433-27.136-53.15-26.014 53.15z" transform="matrix(-.23199 -.22936 -.17842 .17687 931.61 328.08)" stroke="#000" fill="#cececc"/><path id="path871" d="M557.82 95.669l-26.323 70.866 17.717 53.15-35.433-17.716 35.433 53.149v35.433h17.716v-35.433l35.433-53.149-35.433 17.716 17.717-53.15-26.827-70.866z" transform="matrix(-.17862 -.25938 -.23884 .15008 884.3 314.58)" stroke="#000" fill="#cececc"/><path id="path872" d="M422.53 136.96c0 2.068-1.958 3.746-4.371 3.746-2.412 0-4.371-1.678-4.371-3.746s1.959-3.747 4.371-3.747c2.413 0 4.371 1.679 4.371 3.747zm-6.244 7.909c0 35.801 20.917 187.81 22.582 191.56.139 4.44-4.718 6.383-7.077.833-6.551-17.342-20.744-159.91-21.333-193.22-.244-13.734 3.761-14.801 8.326-14.57 3.759.209 8.325 3.725 8.325 7.909 0 4.996-5.828 8.742-10.823 7.493z" transform="matrix(-.68641 0 0 .50303 1004.6 129.68)" stroke="#000" fill="#e10000"/><path id="path873" d="M422.53 136.96c0 2.068-1.958 3.746-4.371 3.746-2.412 0-4.371-1.678-4.371-3.746s1.959-3.747 4.371-3.747c2.413 0 4.371 1.679 4.371 3.747zm-6.244 7.909c31.488 61.415 48.722 166.77 50.387 170.52.139 4.44-4.718 6.383-7.077.833-2.479-3.315-12.667-100.18-49.138-172.18-.244-13.734 3.761-14.801 8.326-14.57 3.759.209 8.325 3.725 8.325 7.909 0 4.996-5.828 8.742-10.823 7.493z" transform="matrix(-.64753 .14728 .2581 .47453 949.25 78.375)" stroke="#000" fill="#0000c4"/><path id="path874" d="M422.53 136.96c0 2.068-1.958 3.746-4.371 3.746-2.412 0-4.371-1.678-4.371-3.746s1.959-3.747 4.371-3.747c2.413 0 4.371 1.679 4.371 3.747zm-6.244 7.909c0 35.801 20.917 187.81 22.582 191.56.139 4.44-4.718 6.383-7.077.833-6.551-17.342-20.744-159.91-21.333-193.22-.244-13.734 3.761-14.801 8.326-14.57 3.759.209 8.325 3.725 8.325 7.909 0 4.996-5.828 8.742-10.823 7.493z" transform="matrix(-.87712 0 0 .81837 1121.6 151.18)" stroke="#000" fill="#e10000"/><path id="path875" d="M422.53 136.96c0 2.068-1.958 3.746-4.371 3.746-2.412 0-4.371-1.678-4.371-3.746s1.959-3.747 4.371-3.747c2.413 0 4.371 1.679 4.371 3.747zm-6.244 7.909c31.488 61.415 48.722 166.77 50.387 170.52.139 4.44-4.718 6.383-7.077.833-2.479-3.315-12.667-100.18-49.138-172.18-.244-13.734 3.761-14.801 8.326-14.57 3.759.209 8.325 3.725 8.325 7.909 0 4.996-5.828 8.742-10.823 7.493z" transform="matrix(-.82744 .23961 .3298 .77201 1050.9 67.705)" stroke="#000" fill="#0000c4"/></g><g id="g618" fill-rule="evenodd" transform="matrix(.47007 0 0 .41368 122.21 80.334)" stroke="#000" stroke-width="1pt"><path id="path561" d="M478.35 698.03c17.717 10.652 37.089 8.268 53.15 0V556.3h-35.433c17.717 53.15 17.717 106.3-17.717 141.73z" fill="#e10000"/><path id="path559" d="M513.78 609.45c0 88.582-42.466 108.27-42.466 125.98 17.716 0 29.465-8.248 42.466-19.685 17.716-17.717 19.426-107.68 17.716-106.3H513.78z" transform="matrix(.60127 0 0 1.125 194.96 -129.32)" fill="#0000c4"/><path id="path560" d="M478.35 609.45c-.81 51.77-44.794 99.639-36.497 110.24 9.474 9.475 36.497-21.654 71.931-3.937 17.716-17.717 19.426-107.68 17.716-106.3h-53.15z" transform="matrix(.60127 0 0 1.125 194.96 -129.32)" fill="#0000c4"/><path id="path558" d="M513.78 609.45c0 88.582-40.696 94.469-40.696 118.09 17.717 0 40.603-12.912 40.696-11.791 17.716-17.717 19.426-107.68 17.716-106.3H513.78z" transform="matrix(.60127 0 0 .75003 176.18 99.207)" fill="#ffdf00"/><path id="path557" d="M478.35 609.45c-.81 51.77-43.73 95.702-35.433 106.3 9.474 9.475 35.433-17.717 70.867 0 17.716-17.717 19.426-107.68 17.716-106.3h-53.15z" transform="matrix(.60127 0 0 .75003 176.18 99.207)" fill="#ffdf00"/><path id="path562" d="M478.35 698.03c17.717 10.652 37.089 8.252 53.15-.015v-141.72h-35.433c17.717 53.15 17.717 106.3-17.717 141.73z" transform="matrix(-1 0 0 1 1063 .016)" fill="#e10000"/><path id="path563" d="M513.78 609.45c0 88.582-42.466 108.27-42.466 125.98 17.716 0 29.465-8.248 42.466-19.685 17.716-17.717 19.426-107.68 17.716-106.3H513.78z" transform="matrix(-.60127 0 0 1.125 868.03 -129.31)" fill="#0000c4"/><path id="path564" d="M478.35 609.45c-.81 51.77-44.794 99.639-36.497 110.24 9.474 9.475 36.497-21.654 71.931-3.937 17.716-17.717 19.426-107.68 17.716-106.3h-53.15z" transform="matrix(-.60127 0 0 1.125 868.03 -129.31)" fill="#0000c4"/><path id="path565" d="M513.78 609.45c0 88.582-40.696 94.469-40.696 118.09 17.717 0 40.603-12.912 40.696-11.791 17.716-17.717 19.426-107.68 17.716-106.3H513.78z" transform="matrix(-.60127 0 0 .75003 886.82 99.223)" fill="#ffdf00"/><path id="path566" d="M478.35 609.45c-.81 51.77-43.73 95.702-35.433 106.3 9.474 9.475 35.433-17.717 70.867 0 17.716-17.717 19.426-107.68 17.716-106.3h-53.15z" transform="matrix(-.60127 0 0 .75003 886.82 99.207)" fill="#ffdf00"/></g><g id="g751" stroke="#000" fill-rule="evenodd" transform="matrix(.47007 0 0 .41368 122.21 80.334)"><path id="path702" d="M198.56 77.952l-89.676 35.434 89.676 35.434 44.837-17.717 22.419 17.717 22.419 35.433 22.419-35.433 22.419-17.717 1201.9-.002V95.667l-1201.9.002-22.419-17.717c0-17.716 4.703-35.433 22.419-35.433l89.675-.002c0-17.716-44.838-53.15-134.51-53.15-89.675 0-134.51 35.434-134.51 53.15l89.675.002c17.716 0 22.419 17.717 22.419 35.433l-22.44 17.717-44.84-17.716z" transform="matrix(.20636 0 0 .36363 356.48 542.45)" stroke-width="4.467" fill="#908f8a"/><path id="rect651" transform="matrix(.47619 0 0 .44444 353.49 559.05)" stroke-width="1.838" fill="#b74d00" d="M204.35 95.671h336.61v17.717H204.35z"/><path id="rect652" transform="matrix(.47619 0 0 .44444 353.49 559.05)" stroke-width="1.838" fill="#b74d00" d="M204.35 77.955h336.61v17.717H204.35z"/><path id="rect653" transform="matrix(.47619 0 0 .44444 353.49 559.05)" stroke-width="1.838" fill="#b74d00" d="M204.35 60.237h336.61v17.717H204.35z"/><path id="rect654" transform="matrix(.47619 0 0 .44444 353.49 559.05)" stroke-width="1.838" fill="#b74d00" d="M204.35 42.522h336.61v17.717H204.35z"/><path id="rect655" transform="matrix(.47619 0 0 .44444 353.49 559.05)" stroke-width="1.838" fill="#b74d00" d="M204.35 24.805h336.61v17.717H204.35z"/><path id="rect656" transform="matrix(.47619 0 0 .44444 353.49 559.05)" stroke-width="1.838" fill="#b74d00" d="M204.35 7.089h336.61v17.717H204.35z"/><path id="rect657" transform="matrix(.47619 0 0 .44444 353.49 559.05)" stroke-width="1.838" fill="#b74d00" d="M204.35-10.628h336.61V7.089H204.35z"/><path id="path678" d="M423.23 60.236l137.8 124.02h19.686l-137.8-124.02H423.23z" transform="matrix(.42856 0 0 .44444 277.86 527.56)" stroke-width="3.255" fill="#908f8a"/><path id="path680" d="M423.23 60.236l137.8 124.02h19.686l-137.8-124.02H423.23z" transform="matrix(.42856 0 0 -.44444 277.86 636.22)" stroke-width="3.255" fill="#908f8a"/><path id="path672" d="M425.2 60.236v124.02h17.716V60.236H425.2z" transform="matrix(.47621 0 0 .44444 256.75 527.56)" stroke-width="3.087" fill="#908f8a"/><path id="path679" d="M423.23 60.236l137.8 124.02h19.686l-137.8-124.02H423.23z" transform="matrix(.42856 0 0 .44444 353.79 527.56)" stroke-width="3.255" fill="#908f8a"/><path id="path681" d="M423.23 60.236l137.8 124.02h19.686l-137.8-124.02H423.23z" transform="matrix(.42856 0 0 -.44444 353.79 636.22)" stroke-width="3.255" fill="#908f8a"/><path id="path673" d="M425.2 60.236v124.02h17.716V60.236H425.2z" transform="matrix(.4762 0 0 .44444 391.74 527.56)" stroke-width="3.087" fill="#908f8a"/><path id="path674" d="M425.2 60.236v124.02h17.716V60.236H425.2z" transform="matrix(.4762 0 0 .44444 332.68 527.56)" stroke-width="3.087" fill="#908f8a"/><path id="path675" d="M425.2 60.236v124.02h17.716V60.236H425.2z" transform="matrix(.47621 0 0 .44444 315.81 527.56)" stroke-width="3.087" fill="#908f8a"/></g><g id="g967" transform="matrix(.47007 0 0 .41368 122.21 80.334)"><g id="g645" stroke="#000" stroke-width="1pt" fill="#ffdf00" fill-rule="evenodd"><path id="path635" d="M655.51 396.85c0 88.016-55.559 159.45-124.02 159.45-68.456 0-124.02-71.433-124.02-159.45 0-88.015 55.559-159.45 124.02-159.45 68.457 0 124.02 71.433 124.02 159.45zm-17.717.001c0 78.236-47.622 141.73-106.3 141.73-58.677 0-106.3-63.496-106.3-141.73 0-78.237 47.622-141.73 106.3-141.73 58.677 0 106.3 63.496 106.3 141.73z"/><path id="path643" d="M579.75 249.94c-14.836-8.072-31.144-12.537-48.258-12.537s-33.422 4.465-48.257 12.537l6.893 16.323c12.716-7.175 26.695-11.144 41.364-11.144s28.648 3.969 41.364 11.144l6.894-16.323z"/><path id="path644" d="M579.75 249.94c-14.836-8.072-31.144-12.537-48.258-12.537s-33.422 4.465-48.257 12.537l6.893 16.323c12.716-7.175 26.695-11.144 41.364-11.144s28.648 3.969 41.364 11.144l6.894-16.323z" transform="matrix(1 0 0 -1 .205 793.7)"/></g><path id="path883" d="M637.8 396.85c0 78.277-47.592 141.73-106.3 141.73-58.707 0-106.3-63.456-106.3-141.73 0-78.277 47.592-141.73 106.3-141.73 58.707 0 106.3 63.456 106.3 141.73z" fill-rule="evenodd" fill="#a7cfff"/><path id="path889" d="M637.8 396.85c1.133 26.658-4.634 39.635-11.89 67.356-1.912 2.979-10.966-6.537-16.447-11.236s-7.812 4.239-14.537-3.046c-6.725-7.284-11.049 2.058-15.983-4.095s-51.301-7.056-51.366-7.585c4.591-2.276 28.269.152 24.474-11.193-4.3-11.722-31.094-.352-34.692-15.365-2.44-14.907-53.566-15.543-57.219-19.225 1.444 5.664 39.728 8.049 38.814 22.57-.833 5.915-37.693 7.644-41.247 12.651-3.045 6.295 28.927-1.707 30.114 6.032-.078 3.185-4.705.068-21.358 4.99-8.326 2.46 15.454 10.329 6.41 14.637-9.045 4.307-28.261 6.187-27.433 7.997 2.94 8.908 44.693 19.536 40.535 21.065-14.754 6.559-22.552 10.872-29.627 14.652-19.24-25.653-31.146-61.087-31.146-100.2 31.716-11.405 24.968-13.735 83.645-13.735s77.981 2.33 128.95 13.735z" fill-rule="evenodd" stroke="#000" stroke-width="1pt" fill="#afff7b"/><path id="path887" d="M637.8 396.85c-8.07 0-16.454 3.399-25.07 3.399-8.617 0-17.465-3.398-26.466-3.398s-19.287 4.531-28.512 4.531c-9.224 0-17.388-4.531-26.676-4.531-9.287 0-18.566 3.398-27.755 3.398s-18.289-3.398-27.219-3.398-17.691 3.398-26.201 3.398-16.77-3.399-24.699-3.399c0-19.559 2.976-38.197 8.358-55.151 27.075 2.002 11.042-15.715 27.075-15.715 8.655 0 17.434 1.859 25.238 9.788 2.447 0 14.479-11.373 27.912-9.788 13.432 1.586 8.492 27.272 26.371 28.637 9.062 6.796 14.392 11.133 26.778 13.871 17.717 1.606 68.351-2.5 68.705-.194a188.08 188.08 0 012.161 28.552z" fill-rule="evenodd" stroke="#000" stroke-width="1pt" fill="#fff"/><path id="path891" d="M549.85 473.94c0-5.664 13.512-9.462 13.512-18.524s-11.914-9.349-12.379-17.86c-.2-3.461 10.319-7.046 14.914-7.335s8.493 7.42 8.493 9.119-4.662-4.192-8.578-4.378-12.313.631-12.313 2.33c0 3.399 14.851 7.598 13.718 18.925-1.132 11.327-12.71 14.657-12.71 18.055s5.056 12.86 5.056 12.86-9.713-7.529-9.713-13.192z" fill-rule="evenodd" transform="matrix(.35108 0 0 .78038 355.49 112.99)" stroke="#000" stroke-width="1pt"/><path id="path892" d="M549.85 473.94c0-5.664 13.512-9.462 13.512-18.524s-11.949-9.348-12.379-17.86c-.947-3.962 11.813-6.544 16.408-6.833s9.986 7.921 9.986 9.62-5.409-5.195-9.325-5.381-14.553.631-14.553 2.33c0 3.399 14.851 7.598 13.718 18.925-1.132 11.327-12.71 14.657-12.71 18.055s5.056 12.86 5.056 12.86-9.713-7.529-9.713-13.192z" fill-rule="evenodd" transform="matrix(-.35108 0 0 .78038 746.95 112.36)" stroke="#000" stroke-width="1pt"/><path id="path893" d="M555.86 443.24c0 2.212-1.703 4.005-3.804 4.005-2.102 0-3.805-1.793-3.805-4.005s1.703-4.005 3.805-4.005c2.1 0 3.804 1.793 3.804 4.005z" fill-rule="evenodd" transform="matrix(.65465 0 0 .97703 189.79 12.892)"/><path id="rect894" fill-rule="evenodd" stroke-width="1pt" d="M586.7 458.05h.801v31.638h-.801z"/><path id="rect895" fill-rule="evenodd" stroke-width="1pt" d="M593.91 455.65h.801v31.638h-.801z"/><path id="rect896" fill-rule="evenodd" transform="matrix(.00756 -.99997 .987 .16074 0 0)" stroke-width="1pt" d="M-376.42 597.92h.8v6.9h-.8z"/><path id="path890" d="M492.73 479.203s26.051 11.328 31.715 18.124c5.664 6.797 3.398 6.796 3.398 6.796l57.77 2.266c0-3.398 10.193-3.4 12.46-11.328 2.264-7.93 2.264-10.194 2.264-10.194l-18.123 5.664 1.132-10.194-15.858-.001-2.265 10.195-33.982-1.133 2.266-27.186-6.796 1.133-1.133 26.053c-1.133 0-31.717-7.93-32.849-10.195z" fill-rule="evenodd" stroke="#000" stroke-width="1pt" fill="#b74d00"/><path id="path897" d="M440.53 316.28s37.645-11.214 92.11-10.413 92.11 12.815 91.309 12.815-10.413-18.422-10.413-18.422-38.446-10.412-81.697-11.213c-43.252-.801-80.897 8.01-80.096 8.811L440.53 316.28z" fill-rule="evenodd" stroke="#fede00" stroke-width="1pt" fill="#fede00"/><path id="rect898" fill-rule="evenodd" transform="rotate(-1.05)" stroke-width="1pt" fill="#38a9f9" d="M502.2 301.17h23.228v12.815H502.2z"/><path id="path905" d="M395.32 373.11l-10.255 11.01 27.822 1.622v-12.815l-17.567.183z" fill-rule="evenodd" transform="rotate(-9.987)" stroke-width="1pt" fill="#38a9f9"/><path id="rect900" fill-rule="evenodd" transform="rotate(-4.757)" stroke-width="1pt" fill="#38a9f9" d="M451.6 332.64h23.228v12.815H451.6z"/><path id="rect901" fill-rule="evenodd" transform="scale(-1 1) rotate(-3.639)" stroke-width="1pt" fill="#38a9f9" d="M-578.71 256.52h23.228v12.815h-23.228z"/><path id="path904" d="M-662.06 160.45l-11.642 13.5 25.748-.258v-12.815l-14.106-.427z" fill-rule="evenodd" transform="scale(-1 1) rotate(-12.577)" stroke-width="1pt" fill="#38a9f9"/><path id="rect903" fill-rule="evenodd" transform="scale(-1 1) rotate(-7.347)" stroke-width="1pt" fill="#38a9f9" d="M-624.16 218.17h23.228v12.815h-23.228z"/><path id="polygon906" fill-rule="evenodd" stroke="#000" stroke-width="1pt" fill="#ffdf00" d="M532.64 323.49l-2.58-13.47-7.54 11.46 2.77-13.43-11.34 7.7 7.7-11.35-13.43 2.78 11.45-7.54-13.47-2.58 13.47-2.58-11.45-7.53 13.43 2.77-7.7-11.35 11.34 7.7-2.77-13.43 7.54 11.46 2.58-13.47 2.57 13.47 7.54-11.46-2.77 13.43 11.35-7.7-7.71 11.35 13.44-2.77-11.46 7.53 13.47 2.58-13.47 2.58 11.46 7.54-13.44-2.78 7.71 11.35-11.35-7.7 2.77 13.43-7.54-11.46z"/><path id="path907" d="M547.05 293.86c0 9.29-6.634 16.82-14.818 16.82s-14.818-7.53-14.818-16.82 6.634-16.82 14.818-16.82 14.818 7.53 14.818 16.82z" fill-rule="evenodd" transform="matrix(.97297 0 0 .83333 14.786 51.779)" stroke="#000" stroke-width="1pt" fill="#ffdf00"/><path id="path908" d="M533.44 291.85c0 1.106-2.152 2.002-4.806 2.002s-4.805-.896-4.805-2.002 2.151-2.002 4.805-2.002 4.806.896 4.806 2.002z" fill-rule="evenodd" transform="matrix(1 0 0 .80001 -.801 59.57)"/><path id="path909" d="M543.85 291.45c0 .885-1.614 1.602-3.604 1.602s-3.605-.717-3.605-1.602c0-.885 1.614-1.602 3.605-1.602s3.604.717 3.604 1.602z" fill-rule="evenodd" transform="translate(-.8 1.602)"/><path id="path911" d="M529.989 298.667l.995.54c-2.363-1.283-1.274-.797 2.446 2.616 2.154-1.154 2.57-2.21 3.926-3.67" stroke="#000" stroke-width="1pt" fill="none"/><path id="path912" d="M526.228 304.27l.801.801c-1.902-1.902-1.124-.995 3.204 1.602 4.027.544 8.092-1.196 10.412-4.005" stroke="#000" stroke-width="1pt" fill="none"/><path id="path914" d="M468.56 330.7s1.602 12.815-8.81 28.834c-10.413 16.019-8.811 10.413-8.811 10.413s4.806 8.81 4.005 8.81-8.009-8.009-8.009-8.009l-8.811 8.81s8.01-13.616 7.209-13.616-2.403-4.806-2.403-4.806l6.407-2.403s9.612-16.82 9.612-16.019-28.835 18.422-28.835 18.422L468.56 330.7z" fill-rule="evenodd" fill="#b7e1ff"/><path id="path915" d="M474.97 335.51c-.801 0 4.005 12.816 8.01 19.223 4.004 6.408 4.004 14.418 4.004 14.418l13.617 6.407-17.621-24.829 11.213 4.004-19.223-19.223z" fill-rule="evenodd" fill="#b7e1ff"/><path id="path916" d="M474.97 369.15s9.611 9.611 10.412 12.815.801 10.412.801 10.412l-4.004-8.009-5.607 7.208s4.005-11.213 3.204-12.014-6.408 4.005-6.408 4.005 2.403-6.408 2.403-7.209 0-4.806-.801-7.208z" fill-rule="evenodd" fill="#b7e1ff"/><path id="path917" d="M426.91 391.57c3.203-2.402 9.611-4.004 9.611-4.004s-4.005 6.407-4.806 6.407-3.203 0-4.805-2.403z" fill-rule="evenodd" fill="#b7e1ff"/><path id="path918" d="M537.44 356.33s20.824 12.015 20.824 12.816-13.616-5.607-13.616-5.607l-7.208-7.209z" fill-rule="evenodd" fill="#b7e1ff"/><path id="path919" d="M499.8 331.5c1.602.801 30.436 23.227 29.635 23.227s-12.815-6.407-12.815-5.606v5.606l-6.408-12.815-1.602 4.806-8.81-15.218z" fill-rule="evenodd" fill="#b7e1ff"/><path id="path920" d="M507 367.54l8.01 15.218 8.009-1.602S507.801 367.54 507 367.54z" fill-rule="evenodd" fill="#b7e1ff"/><path id="path921" d="M531.84 357.93c0 2.403.801 14.417.801 14.417s4.806 4.005 4.806 3.204-4.806-16.82-5.607-17.621z" fill-rule="evenodd" fill="#b7e1ff"/></g><g id="g1032" transform="matrix(.42172 0 0 .40723 143.48 81.974)"><path id="path1021" d="M-66.605 93.247s69.103-39.131 147.78-68.27c78.677-29.14 166.93-48.289 178.59-48.289 23.312 0 63.275 59.945 69.936 59.945 6.66 0 33.302-16.651 66.605-16.651s53.284 26.642 59.945 26.642h59.944c6.661 0-19.981-66.605 0-63.275 9.991 1.665 94.913 14.986 174.01 41.212 79.093 26.226 191.37 72.523 191.37 72.523s-183.5 25.082-232.16 17.663c-6.661 3.33-.33 44.052-9.662 26.137-15.332-3.583-71.616-12.563-81.607-12.563s-28.621 11.551-55.263 18.211c-26.642 6.661-59.944 16.652-59.944 16.652l43.293 69.935-53.284 26.642s-33.303-79.926-46.624-79.926-19.981 56.614-36.633 53.284c-16.651-3.33-23.311-53.284-36.633-66.605-13.321-13.321-83.553-18.169-110.2-24.829-26.642-6.661-69.639-11.804-92.95-18.464-23.312-6.661-46.624 16.651-56.615 16.651-9.99 0 13.321-19.982 3.33-23.312s-16.65 9.991-23.312 9.991c-6.66 0-76.596-13.321-83.256-16.651-6.66-3.331 16.651-16.652 9.991-16.652h-26.642z" fill-rule="evenodd" transform="matrix(.57953 0 0 .48866 318.34 114.63)" fill="#984000"/><path id="path1022" d="M462.91-64.94c0 21.151-20.501 38.298-45.791 38.298s-45.791-17.147-45.791-38.298 20.501-38.298 45.791-38.298S462.91-86.091 462.91-64.94z" fill-rule="evenodd" transform="matrix(.41772 0 0 .43433 373.3 171.72)" stroke="#772600" stroke-width="3.706" fill="gray"/><path id="path1023" d="M284.74-59.945c6.661-6.66 14.987-16.651 36.633-16.651 4.996-1.665 4.996-11.656 16.651-11.656 11.656 0 8.326 9.99 16.652 13.321 8.325 3.33 76.596-3.33 76.596-3.33s6.66 4.995 6.66 11.656c0 6.66-4.995 11.656-6.66 11.656s-68.271-4.996-73.266-3.33c-4.995 1.665-8.326 3.33-19.982 3.33-11.655 0-14.986-11.656-23.311-11.656-8.326 0-16.652-1.665-29.973 6.66z" fill-rule="evenodd" transform="matrix(.52215 0 0 .52577 323.22 178.53)" stroke="#772600" stroke-width="5.25" fill="#984000"/><path id="path1025" d="M487.88-76.597h26.642c9.572.114 12.873 3.005 21.647 3.33h23.312c8.475-.314 12.951-2.295 21.647-3.33 14.504-.175 9.555-1.306 6.66-9.99-2.625-6.565-2.949-9.61-6.66-13.322-1.396-7.945-4.655-10.772-4.996-19.982-1.527-7.026-4.342-11.752-1.665-19.982 3.84 5.647 5.387 7.97 14.986 8.326 10.045 0 13.937-.206 19.982 3.33 4.663 4.891 10.886 3.331 19.982 3.331 7.677 1.405 8.96 5.312 14.986 8.325 7.103 3.936 11.694 4.996 21.646 4.996 7.968 1.422 14.88 2.578 19.982 4.995 4.25 5.08 10.951 6.338 19.982 6.66 5.049 0 8.949-.524 13.321-1.665 7.677.37 15.473 0 24.977 0 6.162 7.21 7.586 9.862 18.316 9.991 7.338 5.154 13.527 6.036 19.982 8.326h24.977c8.928.687 11.789 4.35 19.981 6.66 8.114 3.768 15.721 6.35 21.647 8.326 5.891 1.28 13.574 1.665 21.646 1.665 6.183 3.175 13.609 3.46 18.317 6.66 6.89 1.477 16.302 3.215 21.647 4.996 8.816 1.169 12.187 3.942 19.981 4.996 6.703 1.915-2.224 3.56-6.66 4.995-9.827-.364-10.537-3.946-19.982-4.995-5.023-2.939-12.639-2.548-19.981-4.996h-1.666c6.6 3.904 12.948 6.423 9.991 13.321-8.492 0-15.367-1.097-23.312-1.665-8.384-1.616-12.226-3.33-21.646-3.33 9.395-2.264 11.855.27 18.316 3.33 2.396 8.059-2.725 4.996-11.656 4.996-7.608-2.731-12.173-5.984-21.647-6.66h-19.981c9.89.365 11.977 4.098 18.316 8.325.518 2.59-.132 2.472-4.995 3.33-5.16-4.478-11.889-6.013-19.982-8.326-7.879-.281-16.217-.965-23.311-3.33-4.867-.304-4.116-6.177 6.66 3.33 6.533 3.843 8.833 6.946 8.326 9.991-8.576-2.144-12.825-5.58-18.317-8.325-7.736-2.855-14.128-3.33-23.312-3.33-8.609-2.266.894-3.574 6.661 4.995 12.379 8.768-1.633 5.006-6.661 3.33-7.507-2.145-15.284-5.185-21.646-6.66-5.046-1.442-9.441-2.856-14.986-3.33 8.631.784 11.571 3.822 14.986 9.99 8.755 6.031-.384 3.1-8.326 1.665-5.071-4.402-11.487-6.658-14.986-11.656-8.351-4.176-8.563-8.982-3.33 1.665 1.363 3.407 1.111 10.795 1.665 11.656-6.136-6.626-4.825-8.326-11.656-8.326-4.634-3.244-11.496-5.765-14.986-9.99-6.436-.604-6.842-2.9-13.321-4.996 5.341 6.274 12.389 12.48 16.651 18.316 7.597 4.242 9.7 8.061 14.986 11.656 2.14 3.638 7.904 6.656 1.665 1.665-7.144-7.043-12.46-8.67-23.312-13.32-6.149-4.96-8.37-7.045-14.986-11.657-9.003-2.904-5.508-4.542 0 4.996 6.318 5.769 11.169 12.23 16.652 16.65 3.767 4.908 10.136 10.119 14.986 13.322 1.501 2.251 5.991 2.664 0 3.33-5.091-4.598-12.398-7.531-18.317-11.656-8.302-2.342-12.191-6.653-18.316-11.656-3.9-5.85-10.382-10.381-14.986-14.986-9.631-3.769 1.899 3.637 4.995 8.326 2.153 6.068 4.788 11.035 6.661 16.65 2.78 5.561-8.47-1.327-11.656-3.33-7.321-4.157-12.674-6.937-21.647-8.325-5.98-1.3-13.602-2.468-19.982-3.33-7.614-2.05 4.042 4.8 8.326 11.656 8.418 7.908-8.332 1.425-13.321 0-8.223-1.645-16.287-1.666-24.977-1.666-10.67.628-3.05 1.947 0 6.66 3.287 2.53 5.637 7.855 4.995 9.992-7.032-.95-13.025-3.023-21.646-3.33-6.962 2.32-15.345 1.665-23.312 1.665-.381 4.19 1.444.654 4.995 4.995 5.763 2.341 9.585 5.177 8.326 8.326h-48.289c-5.29 1.447 1.14.704 5 6.663-2.161 5.402-4.95 3.33-11.656 3.33-4.545-1.817-13.598-2.635-18.317-4.995-4.689 0-4.336-1.221-8.325-1.665 14.035 9.928 7.073 7.45 14.986 14.986 1.367.456 4.524 1.665 1.665 1.665" transform="matrix(.52215 0 0 .52577 323.22 185.53)" stroke="#772600" stroke-width="3.5" fill="none"/><path id="path1027" d="M371.32 73.265c-.997 0-3.199-5.375-6.66-9.99-2.327-6.05-5.392-2.589-8.326-11.657.348-9.402.684-11.094 0-19.982-6.863-4.783-9.714-6.27-14.986-14.986-8.46-7.078 1.236-19.063 2.845-27.849-7.375-1.639-11.001 11.476-22.341 16.193-8.155 5.492-.911-11.354-4.891-21.188-2.775-13.872-10.826 6.956-13.911 12.862-5.467 3.718-7.128 8.542-14.986 1.665 0-5.144 4.937-19.489 2.845-22.279-7.814 3.814-18.087 15.49-26.157 17.283-8.131-1.767 1.769-14.828 1.769-24.518-2.937-.979-14.695 25.756-19.519 26.003-4.824.248-2.713-25.993-4.972-25.428-3.542 4.96-10.649 15.43-15.576 18.948-9.454-1.22 1.398-17.435 2.845-23.427 1.629-7.168-8.904 13.751-14.501 15.102-4.101 3.554-12.237 6.072-14.986 6.661 3.239-6.132 19.076-18.713 17.935-22.279-9.21.341-23.311 12.557-31.256 13.953-5.192 0-12.388 1.758-13.321 1.665.448-7.926 19.418-14.65 22.445-19.465-9.306 1.494-27.186 9.706-32.436 16.135-6.145 1.336-13.943 3.02-19.982 0 .897-7.475 14.856-21.998 17.936-26.758-8.396 3.698-12.642 6.59-21.647 8.326-1.652 1.652-6.524 5.231-4.995 1.665 2.655-6.945 6.675-10.11 9.99-14.986-7.45 1.364-10.28 5.634-18.316 9.99-5.094.222-19.646 14.855-24.596 15.103-11.449 8.382-16.009 9.807-28.307 13.32-7.587 1.356-11.259 2.934-14.986 6.661 3.796-6.688 9.597-13.093 14.986-16.65 3.677-5.568 7.121-10.196 14.986-13.322 1.897-2.318 7.188-2.905 1.665-3.33-4.746 4.237-12.696 8.966-16.65 11.656-5.102 3.207-11.01 6.481-13.322 4.995 2.618-7.197 7.437-8.902 11.656-14.986 8.81-5.605.042-1.915-6.66 0-4.338 3.867-12.122 6.726-18.316 9.991-7.114 1.856-11.704 6.132-19.982 8.326 0 2.375 2.365-4.249 3.33-6.66 6.831-7.41 8.657-9.476 16.651-11.657 1.912-2.867 4.419-1.665-1.665-1.665-4.514 4.024-10.811 6.212-16.651 9.991-5.891 1.28-13.574 1.665-21.647 1.665-10.355 1.243-9.46 2.025 0-3.33 5.357-5.042 9.769-3.775 9.99-9.99C10.394-40.428 2.78-37.1-4.998-33.304c-6.435.19-8.134 1.665-14.986 1.665 3.298-3.415 5.277-7.633 9.99-9.99 6.896-7.663-4.377-1.478-6.66 0h-24.977c-4.465 5.581-.23.05 3.33-3.33 4.306-2.24 8.756-5.155 8.326-6.661-4.972 4.315-10.726 6.298-14.986 9.99-4.64 1.392-9.991 2.085-9.991 3.331 3.627-5.346 9.525-8.576 13.321-13.321 5.612-1.22 10.396-2.935 11.656-4.995h-23.312 16.651c8.399 0 15.628-.75 23.312-1.665 13.263-2.211-1.159-3.33-8.326-3.33-1.39-2.549 4.112-3.988 9.991-4.996 5.024-2.38 11.233-4.493 16.651-6.66 5.256-1.434 12.706-5.81 13.321-6.661-5.015.264-4.975 1.401-9.99 1.665 7.446-.573 12.8-1.665 21.646-1.665 8.028-2.58 14.906-5.411 21.647-8.326 2.936-3.588 4.24-3.33-3.33-3.33 6.713-2.158 16.238-3.193 21.647-4.995 7.872-1.687 14.899-4.253 19.982-6.661 4.876-3.315 7.69-7.175 13.321-9.99 6.527 4.438 6.601 4.995 18.317 4.995 9.409-.112 15.171-2.373 19.981-6.661 7.207-1.965 8.482-5.43 16.651-6.66 7.444 1.329 15.029 1.665 23.312 1.665 8.096-2.12 15.677-6.011 21.647-9.991 5.093-2.502 11.139-6.121 16.651-8.326 6.07 3.133 10.843 5.65 18.317 6.66 7.727-1.148 11.746-4.868 18.316-6.66 3.577-4.33 8.777-6.632 14.986-8.325 9.671-4.748 8.913 1.574 13.321 6.66 4.895 5.133 11.373 2.68 18.317 4.996 3.83 5.893 6.646 9.914 11.656 13.32 3.889 4.709 8.508 6.035 16.651 6.66 2.967 3.958.601 6.812 6.661 8.327 2.388 2.529 6.518 3.606 9.99 4.995" transform="matrix(.52215 0 0 .52577 323.22 185.53)" stroke="#772600" stroke-width="3.5" fill="none"/><path id="path1028" d="M468.74 30.803v.833c0-2.327-.103-1.091 1.665 3.33.595 3.64-.809 3.219-2.498 5.828-.286 3.723-.832 6.4-.832 10.823-.537 3.612-2.571 7.04-4.163 9.99-1.604 3.133-8.555 4.87-8.326 9.159-3.99 1.14-4.084-1.445-4.162-5.828-2.386-2.727-3.212-6.467-4.996-9.991-1.108-3.476-3.469-6.032-4.995-9.99-2.459-3.787-4.546-4.876-6.661-9.159-.826-2.066-.682-4.618-2.497-5.828-2.72-3.438-4.489-3.99-9.159-4.163-3.592.845-4.971 2.416-8.325 3.33-2.57.857-7.57.581-10.824 1.666-.808 1.314 1.6 1.94 2.498 4.995-2.135 1.764-2.926 4.883-4.163 7.493-1.965 2.486-3.283 3.705-4.163 7.493 1.363 2.316.201 5.387-1.665 7.493-.574 3.864-2.434 5.874-3.33 9.159-2.686 1.826-3.652 3.538-5.828 6.66-1.914 2.68-3.636 2.498-8.326 2.498-3.667-1-4.181-2.988-7.493-4.163-.352-1.057-.608-1.313-1.665-1.665" transform="matrix(.52215 0 0 .52577 323.22 185.53)" stroke="#782600" stroke-width="3.125" fill="none"/><path id="path1029" d="M369.66 93.245s-1.665 22.48-13.321 37.466-35.801 32.47-35.801 32.47 32.47-19.149 35.8-14.986c3.331 4.163-20.814 37.465-20.814 37.465s31.638-34.968 35.801-34.968 13.321 34.135 16.651 33.303c3.33-.833-7.493-43.294-5.828-49.954 1.665-6.661 0-42.461 0-42.461l-12.488 1.665z" fill-rule="evenodd" transform="matrix(.52215 0 0 .36307 325.39 185.66)" fill="#812e00"/><path id="path1030" d="M369.66 93.245s-1.665 22.48-13.321 37.466-35.801 32.47-35.801 32.47 32.47-19.149 35.8-14.986c3.331 4.163-20.814 37.465-20.814 37.465s31.638-34.968 35.801-34.968 13.321 34.135 16.651 33.303c3.33-.833-7.493-43.294-5.828-49.954 1.665-6.661 0-42.461 0-42.461l-12.488 1.665z" fill-rule="evenodd" transform="matrix(.52215 0 0 .3881 364.51 182.22)" fill="#812e00"/><path id="path1031" d="M502.76 139.27c0 1.626-1.845 2.944-4.121 2.944s-4.121-1.318-4.121-2.944 1.845-2.944 4.121-2.944 4.121 1.318 4.121 2.944z" fill-rule="evenodd" fill="#812e00"/></g></g></g></svg>