<svg id="svg555" xmlns="http://www.w3.org/2000/svg" height="480" width="640" version="1.0" y="0" x="0"><defs id="defs557"><clipPath id="clipPath3605" clipPathUnits="userSpaceOnUse"><path id="rect3607" fill-opacity=".67" d="M-19.451 0h682.67v512h-682.67z"/></clipPath></defs><g id="flag" fill-rule="evenodd" clip-path="url(#clipPath3605)" transform="translate(18.235) scale(.9375)" stroke-width="1pt"><path id="rect565" fill="#fff" d="M-105.62 325.66h249.35V512h-249.35z"/><path id="rect566" fill="#0062da" d="M143.57 0h149.94v512H143.57z"/><path id="rect567" fill="#0062da" d="M-105.62 186.18h897.67v139.64h-897.67z"/><path id="rect568" fill="#fff" d="M-105.62.003h249.35v186.34h-249.35z"/><path id="rect570" fill="#fff" d="M293.35 325.66h498.7V512h-498.7z"/><path id="rect574" fill="#fff" d="M293.35.002h498.7v186.34h-498.7z"/><path id="rect564" fill="#fff" d="M-105.62 325.66h249.35V512h-249.35z"/><path id="rect569" fill="#0062da" d="M143.57 0h149.94v512H143.57z"/><path id="rect572" fill="#fff" d="M-105.62.003h249.35v186.34h-249.35z"/><path id="rect573" fill="#fff" d="M293.35 325.66h498.7V512h-498.7z"/><path id="rect575" fill="#fff" d="M293.35.002h498.7v186.34h-498.7z"/></g></svg>