<svg id="svg986" xmlns="http://www.w3.org/2000/svg" height="480" width="640" version="1.1"><defs id="defs988"><clipPath id="clipPath3752" clipPathUnits="userSpaceOnUse"><path id="rect3754" fill-opacity=".67" d="M-81.333 0h682.67v512h-682.67z"/></clipPath></defs><g id="flag" fill-rule="evenodd" clip-path="url(#clipPath3752)" transform="translate(76.25) scale(.9375)" stroke-width="1pt"><path id="rect1390" fill="#6797d6" d="M-252 0H772v512H-252z"/><path id="polygon1351" transform="matrix(.56646 0 0 .5331 -42.572 -85.713)" fill="#fff" d="M533.77 391.48l-57.27 41.67 21.95-67.34-57.33-41.6 70.83.07 21.83-67.38 21.83 67.38 70.83-.05-57.34 41.58 21.94 67.35z"/><path id="polygon1387" transform="matrix(.56646 0 0 -.5331 -42.572 598.75)" fill="#fff" d="M533.77 391.48l-57.27 41.67 21.95-67.34-57.33-41.6 70.83.07 21.83-67.38 21.83 67.38 70.83-.05-57.34 41.58 21.94 67.35z"/><path id="polygon1388" transform="matrix(.54171 -.16562 .15586 .50981 -246.32 164.19)" fill="#fff" d="M533.77 391.48l-57.27 41.67 21.95-67.34-57.33-41.6 70.83.07 21.83-67.38 21.83 67.38 70.83-.05-57.34 41.58 21.94 67.35z"/><path id="polygon1389" transform="matrix(-.54171 -.16562 -.15586 .50981 765.81 164.19)" fill="#fff" d="M533.77 391.48l-57.27 41.67 21.95-67.34-57.33-41.6 70.83.07 21.83-67.38 21.83 67.38 70.83-.05-57.34 41.58 21.94 67.35z"/></g></svg>