<svg id="svg559" xmlns="http://www.w3.org/2000/svg" height="480" width="640" version="1.1"><g id="flag" fill-rule="evenodd"><path id="rect575" stroke-width="1pt" fill="red" d="M0 0h640v480H0z"/><g id="g8567" transform="translate(83.911 -.155)"><path id="rect567" stroke-width="1pt" fill="#009a00" d="M62.085 83.609h360.91v314.41H62.085z"/><path id="path571" d="M62.085 398.02h360.91l-180.46-157.19-180.46 157.19z" stroke-width="1pt" fill="#ffca00"/><path id="path570" d="M62.085 83.683l180.46 157.19 180.45-157.19H62.085z" stroke-width="1pt" fill="#ffca00"/><path id="polygon578" fill="#ffce00" transform="translate(-151.84 6.704) scale(.95788)" stroke-width="1pt" d="M256.44 57.228l-17.17-12.243-17.19 12.213 6.34-20.109-16.92-12.573 21.08-.185 6.73-19.983L246 24.343l21.08.222-16.95 12.543z"/><path id="polygon579" fill="#ffce00" transform="translate(13.047 7.193) scale(.95788)" stroke-width="1pt" d="M256.44 57.228l-17.17-12.243-17.19 12.213 6.34-20.109-16.92-12.573 21.08-.185 6.73-19.983L246 24.343l21.08.222-16.95 12.543z"/><path id="polygon581" fill="#ffce00" transform="translate(178.04 6.928) scale(.95788)" stroke-width="1pt" d="M256.44 57.228l-17.17-12.243-17.19 12.213 6.34-20.109-16.92-12.573 21.08-.185 6.73-19.983L246 24.343l21.08.222-16.95 12.543z"/><path id="polygon583" fill="#ffce00" transform="translate(-151.84 414.13) scale(.95788)" stroke-width="1pt" d="M256.44 57.228l-17.17-12.243-17.19 12.213 6.34-20.109-16.92-12.573 21.08-.185 6.73-19.983L246 24.343l21.08.222-16.95 12.543z"/><path id="polygon584" fill="#ffce00" transform="translate(13.047 414.62) scale(.95788)" stroke-width="1pt" d="M256.44 57.228l-17.17-12.243-17.19 12.213 6.34-20.109-16.92-12.573 21.08-.185 6.73-19.983L246 24.343l21.08.222-16.95 12.543z"/><path id="polygon585" fill="#ffce00" transform="translate(178.04 414.36) scale(.95788)" stroke-width="1pt" d="M256.44 57.228l-17.17-12.243-17.19 12.213 6.34-20.109-16.92-12.573 21.08-.185 6.73-19.983L246 24.343l21.08.222-16.95 12.543z"/><path id="path577" d="M455.81 246.95c0 25.234-20.456 45.689-45.689 45.689-25.234 0-45.689-20.456-45.689-45.689 0-25.234 20.456-45.689 45.689-45.689 25.234 0 45.689 20.456 45.689 45.689z" transform="translate(-150.8 6.704) scale(.95788)" fill="red"/><path id="polygon586" fill="#ffce00" transform="translate(-29.933 205.08) scale(1.1378)" stroke-width="1pt" d="M256.44 57.228l-17.17-12.243-17.19 12.213 6.34-20.109-16.92-12.573 21.08-.185 6.73-19.983L246 24.343l21.08.222-16.95 12.543z"/><g id="g3182" transform="translate(88.677 -6.832) scale(.93812)"><path id="path588" d="M-2.789 298.95s2.367-19.607 1.015-32.791c-1.353-13.184-35.158-16.903-35.158-16.903l-.338 30.763s27.045 21.974 34.481 18.931z" fill="red"/><path id="path587" d="M-52.145 221.2s3.258 17.276-1.352 51.723c-2.463 18.703 17.917 31.439 42.933 37.186-5.07-8.79-18.592-22.988-15.212-49.018C-7.52 263.457 9.72 298.953 9.72 298.953s13.658-50.331-13.86-58.145c-26.744-7.514-48.004-19.269-48.004-19.607z" fill="#ffce00"/></g></g></g></svg>