<svg id="svg2" xmlns="http://www.w3.org/2000/svg" height="480" width="640" version="1.1" xmlns:xlink="http://www.w3.org/1999/xlink" viewBox="0 0 213.333 160"><defs id="defs4"><g id="smallcross"><clipPath id="vclip"><path id="path8" d="M-109 104a104 104 0 000-208h218a104 104 0 000 208z"/></clipPath><path id="varm" clip-path="url(#vclip)" d="M-55 74a55 55 0 01110 0V-74a55 55 0 01-110 0z"/><use id="use11" xlink:href="#varm" transform="rotate(90)" height="200" width="300" y="0" x="0"/></g></defs><g id="flag"><path id="rect3009" fill="#fff" d="M0 0h213.33v160H0z"/><g id="g3001"><path id="rect13" fill="#fff" d="M6.385 13.192h200.56v133.71H6.385z"/><path id="path15" fill="red" d="M93.296 13.192v53.484H6.385v26.742h86.911v53.484h26.742V93.418h86.911V66.676h-86.911V13.192H93.296z"/><use id="use17" xlink:href="#smallcross" transform="translate(49.472 39.566) scale(.66855)" height="200" width="300" y="0" x="0" fill="red"/><use id="use19" xlink:href="#smallcross" transform="translate(163.86 120.53) scale(.66855)" height="200" width="300" y="0" x="0" fill="red"/><use id="use21" xlink:href="#smallcross" transform="translate(163.86 39.566) scale(.66855)" height="200" width="300" y="0" x="0" fill="red"/><use id="use23" xlink:href="#smallcross" transform="translate(49.472 120.53) scale(.66855)" height="200" width="300" y="0" x="0" fill="red"/></g></g></svg>