<svg id="svg1387" xmlns="http://www.w3.org/2000/svg" height="480" width="640" version="1.1"><defs id="defs1389"><clipPath id="clipPath8171" clipPathUnits="userSpaceOnUse"><path id="rect8173" fill-opacity=".67" d="M-85.241 0h682.67v512h-682.67z"/></clipPath></defs><g id="flag" clip-path="url(#clipPath8171)" transform="translate(79.914) scale(.9375)"><path id="rect848" fill-rule="evenodd" stroke-width="1pt" fill="#fff" d="M-254.55 0h1021.8v510.88h-1021.8z"/><path id="path8052" d="M405.2 175.1zm-71.913-62.795l-12.743 64.988 88.979-.909-9.558-64.072" fill="#a11011"/><path id="rect7926" fill-rule="evenodd" stroke-width="1pt" fill="#a11011" d="M276.15 77.584h27.309v6.827H276.15z"/><path id="rect7925" fill-rule="evenodd" stroke-width="1pt" fill="#a11011" d="M243.38 77.584h26.398v6.827H243.38z"/><path id="rect7924" fill-rule="evenodd" stroke-width="1pt" fill="#a11011" d="M209.7 77.129h26.398v6.372H209.7z"/><path id="path7920" d="M301.84 99.559zm-91.904-16.391v16.749h93.536V83.526l-93.536-.358" fill="#a11011"/><path id="path7918" d="M221.33 106.84l-10.926 69.082 94.438.458-12.743-69.082m2.962 66.43z" fill="#a11011"/><path id="rect3065" fill-rule="evenodd" fill="#d61517" d="M-256 384.54H768.2V512H-256z"/><path id="rect7787" fill-rule="evenodd" stroke-width="1pt" fill="#a11011" d="M82.674 175.2h347.88v26.356H82.674z"/><path id="path7415" d="M95.911 198.65l-7.36 131.63-37.823.455v21.157h413.49v-21.157l-37.822.455-7.357-131.92-323.12-.628z" fill="#a11011"/><path id="path1018" fill="#d61517" d="M204.56 234.3v21.755h5.338V234.3h-5.338m8.008 0v21.755h42.707V234.3h-42.707m45.377 0v21.755h40.038V234.3h-40.038m42.707 0v21.755h8.007V234.3h-8.007z"/><path id="path1233" d="M366.97 256.01zm-38.317-21.736v22.21h38.997v-21.736l-38.997-.475" fill="#d61517"/><path id="path1236" fill="#d61517" d="M316.67 306.19v23.548h29.361V306.19H316.67m32.031 0v14.718h5.338V306.19h-5.338m37.369 0v14.718h5.338V306.19h-5.338m8.008 0v23.548h29.36V306.19h-29.36z"/><path id="path1175" fill="#d61517" d="M319.33 282.23v21.3h5.338v-21.3h-5.338m8.008 0v21.3h18.684v-21.3h-18.684z"/><path id="path1180" fill="#d61517" d="M394.07 282.23v21.3h19.135v-21.3H394.07m21.869 0v21.3h5.467v-21.3h-5.467z"/><path id="path961" fill="#d61517" d="M317.91 201.89v5.78h102.92v-5.78H317.91z"/><path id="path1167" d="M101.56 282.68v21.3h18.041v-21.3H101.56z" fill="#d61517"/><path id="path1171" fill="#d61517" d="M167.19 282.23v22.21h18.684v-22.21H167.19m21.354 0v22.21h5.338v-22.21h-5.338z"/><path id="path7814" fill="#d61517" d="M203.21 202.35v5.325h106.1v-5.325h-106.1z"/><path id="path7815" fill="#d61517" d="M95.343 202.81v5.325h97.002v-5.325H95.343z"/><path id="path958" d="M313.08 200.53c-10.186.754 1.348 96.039 1.367 125.75 0 0 12.182-119.51-1.367-125.75z" fill="#fff"/><path id="path942" fill="#d61517" d="M84.444 184.62v14.61h344.33v-14.61H84.444z"/><path id="path7819" d="M196.57 200.98c-10.186.767 1.348 97.777 1.367 128.03 0 0 12.182-121.67-1.367-128.03z" fill="#fff"/><path id="path7821" d="M90.901 282.68v21.3h8.216v-21.3h-8.216z" fill="#d61517"/><path id="path7826" d="M90.693 305.73v24.031h29.361l-.16-24.001-29.201-.03m28.849 23.517z" fill="#d61517"/><path id="path7827" d="M454.7 349.85zM51.55 331.678v18.569h410.32v-18.172l-410.32-.397" fill="#d61517"/><path id="path7828" d="M167.16 306.19v23.226h28.451v-23.203l-28.451-.023m27.954 22.73z" fill="#d61517"/><path id="path7829" d="M201.75 305.73v23.548h29.361l-.16-23.519-29.201-.03m28.849 23.046z" fill="#d61517"/><path id="path7830" d="M279.58 306.19v23.548h32.547l-.16-23.519-32.388-.03m31.98 23.046z" fill="#d61517"/><path id="path7831" d="M139.48 256.45zm-38.208-22.626v23.121h38.887v-22.626l-38.887-.494" fill="#d61517"/><path id="path7832" d="M97.684 256.46zm-3.806-22.181v22.665h3.874v-22.181l-3.874-.484" fill="#d61517"/><path id="path7833" d="M183.51 256.9zm-40.476-22.626v23.121h41.195v-22.626l-41.195-.494" fill="#d61517"/><path id="path7834" d="M190.97 256.91zm-4.7-22.181v22.665h4.783v-22.181l-4.783-.484" fill="#d61517"/><path id="path7835" d="M346.23 279.7zm-27.06-20.845v21.3h27.541V259.31l-27.541-.455" fill="#d61517"/><path id="path7836" d="M420.87 279.26zm-27.507-19.954v20.39h27.996v-19.954l-27.996-.436" fill="#d61517"/><path id="path7837" d="M390.15 279.71zm-39.92-20.399v20.845h40.629v-20.399l-40.629-.446" fill="#d61517"/><path id="path7838" d="M315.23 183.92zm-4.7-9.264v9.466h4.783v-9.264l-4.783-.202" fill="#fff"/><path id="path7839" d="M325.23 255.57zm-5.147-21.29v21.755h5.238v-21.29l-5.238-.465" fill="#d61517"/><path id="path7840" d="M408.49 256.02zm-37.052-21.29v21.755h37.71v-21.29l-37.71-.465" fill="#d61517"/><path id="path7841" d="M419.86 256.02zm-7.383-21.29v21.755h7.514v-21.29l-7.514-.465" fill="#d61517"/><path id="path7842" d="M343.11 231.89zm-23.482-21.736v22.21h23.9v-21.736l-23.9-.475" fill="#d61517"/><path id="path7843" d="M389.21 231.9zm-41.894-21.29v21.755h42.639v-21.29l-42.639-.465" fill="#d61517"/><path id="path7844" d="M417.72 231.89zm-25.271-21.736v22.21h25.72v-21.736l-25.72-.475" fill="#d61517"/><path id="path7845" d="M201.75 281.15v21.755h12.066v-21.611l-12.066-.144m11.855 21.29z" fill="#d61517"/><path id="path7846" d="M216.31 281.61v21.755h14.93v-21.611l-14.93-.144m14.669 21.29z" fill="#d61517"/><path id="path7847" d="M279.58 282.07v21.755h19.348v-21.774l-19.348.019m19.011 21.29z" fill="#d61517"/><path id="path7848" d="M311.04 303.36zm-9.62-21.29v21.755h9.79v-21.29l-9.79-.465" fill="#d61517"/><path id="path7849" fill="#d61517" d="M92.612 201.44v4.415h102.92v-4.415H92.612z"/><path id="path7850" fill="#d61517" d="M198.2 201.44v4.415h113.84v-4.415H198.2z"/><path id="path7852" fill="#d61517" d="M314.64 200.98v4.415h108.91v-4.415H314.64z"/><path id="path7853" d="M119.12 280.14zm-27.06-21.29v21.755h27.541v-21.29l-27.541-.465" fill="#d61517"/><path id="path7854" d="M192.44 280.14zm-24.824-21.29v21.755h25.265v-21.29l-25.265-.465" fill="#d61517"/><path id="path7855" d="M122.93 259.31v21.755h42.183l.161-21.611-42.344-.144m41.447 21.29z" fill="#d61517"/><path id="path7856" d="M203.57 257.94v21.755h27.996l.16-21.611-28.156-.144m27.507 21.29z" fill="#d61517"/><path id="path7857" d="M276.77 279.23zm-43.159-21.29v21.755h43.926l-.16-21.451-43.766-.305" fill="#d61517"/><path id="path7858" d="M280.03 258.4v21.755h28.451l.16-21.774-28.61.019m27.953 21.29z" fill="#d61517"/><path id="path7859" d="M232.42 230.99zm-28.402-21.29v21.755h28.906v-21.29l-28.906-.465" fill="#d61517"/><path id="path7860" d="M277.76 231.43zm-42.789-21.736v22.21h43.549v-21.736l-43.549-.475" fill="#d61517"/><path id="path7861" d="M306.67 231.43zm-25.271-21.736v22.21h25.72v-21.736l-25.72-.475" fill="#d61517"/><path id="path7862" d="M186.73 182.38zM113 119.585l-10.926 64.988 88.979-.909-10.014-65.439" fill="#a11011"/><path id="path714" fill="#d61517" d="M220.62 123.84l-2.718 10.65h38.052v-10.65H220.62m38.052 0v10.65h35.334v-10.65h-35.334z"/><path id="path756" fill="#d61517" d="M217.9 137.15v10.65h13.503v-10.65H217.9m16.204 0v10.65h43.21v-10.65h-43.21m45.91 0v10.65h16.204v-10.65h-16.204z"/><path id="path658" fill="#d61517" d="M223.3 110.53l-2.722 10.65h10.887v-10.65H223.3m10.887 0v10.65h43.548v-10.65h-43.548m46.27 0v10.65h10.886v-10.65h-10.887z"/><path id="path579" fill="#d61517" d="M209.9 86.565v5.325h45.832v-5.325H209.9m48.528 0v5.325h43.136v-5.325h-43.136z"/><path id="path600" fill="#d61517" d="M209.9 94.553v5.325h21.354v-5.325H209.9m24.023 0v5.325h42.707v-5.325h-42.707m45.377 0v5.325h21.354v-5.325H279.3z"/><path id="path561" fill="#d61517" d="M244.6 78.578v5.325h24.023v-5.325H244.6z"/><path id="path912" fill="#d61517" d="M84.444 177.09v5.325h21.354v-5.325H84.444z"/><path id="path927" fill="#d61517" d="M407.42 177.09v5.325h21.354v-5.325H407.42z"/><path id="path7890" d="M127.43 182.66zm-20.352-4.364v4.46h20.714v-4.365l-20.714-.095" fill="#d61517"/><path id="path7892" d="M172.99 183.13zm-17.669-3.735v3.817h17.983v-3.735l-17.983-.081" fill="#d61517"/><path id="path7893" d="M203.25 184.34zm-5.147-10.6v10.832h5.238v-10.6l-5.238-.232" fill="#fff"/><path id="path7894" d="M124.29 176.09zm-17.669-13.088v13.374h17.983v-13.088l-17.983-.286" fill="#d61517"/><path id="path7895" d="M134.91 176.1zm-9.172-12.643v12.919h9.335v-12.643l-9.335-.276" fill="#d61517"/><path id="path7898" d="M187.13 177.42zm-15.88-14.87v15.195h16.162v-14.87l-16.162-.325" fill="#d61517"/><path id="path7899" d="M168.16 176.18zm-12.379-12.98v13.264h12.599v-12.98l-12.599-.284" fill="#d61517"/><path id="path7921" d="M192.98 181.7zm-19.905-6.591v6.735h20.258v-6.591l-20.258-.144" fill="#a11011"/><path id="path7919" d="M295.06 173.73zm-74.187-66.43l-11.383-7.384h93.534l-10.47 8.293" fill="#a11011"/><path id="path7922" fill="#d61517" d="M210.92 78.578v5.325h24.023v-5.325H210.92z"/><path id="path7923" fill="#d61517" d="M276.91 79.033v5.325h25.388v-5.325H276.91z"/><g id="g7933" fill="#d61517" transform="translate(-145.31 -9.103) scale(1.0299)"><path id="path7934" d="M139.81 122.83zM129 115v8h11v-7.829l-11-.17" transform="matrix(6.0068 0 0 .20985 -418.88 88.002)"/><path id="path7935" d="M139.81 122.83zM129 115v8h11v-7.829l-11-.17" transform="matrix(6.6496 0 0 .20985 -505.34 87.118)"/><path id="path7936" d="M139.81 122.83zM129 115v8h11v-7.829l-11-.17" transform="matrix(6.971 0 0 .20985 -547.25 85.792)"/><path id="path7937" d="M139.81 122.83zM129 115v8h11v-7.829l-11-.17" transform="matrix(6.971 0 0 .20985 -547.25 85.792)"/><path id="path7938" d="M139.81 122.83zM129 115v8h11v-7.829l-11-.17" transform="matrix(7.2523 0 0 .20985 -584.41 84.024)"/></g><path id="path7958" d="M243.12 182.68zm-15.88-3.474v3.55h16.162v-3.474l-16.162-.076" fill="#d61517"/><path id="path7959" d="M283.21 182.68zm-13.644-3.474v3.55h13.887v-3.474l-13.887-.076" fill="#d61517"/><path id="path7960" d="M117.39 231.88zm-21.694-22.181v22.665h22.079v-22.181l-22.079-.484" fill="#d61517"/><path id="path7961" d="M242.86 177.45zm-30.19-13.718v14.018h30.727v-13.718l-30.727-.3" fill="#d61517"/><path id="path7962" d="M302.57 177.45zm-25.61-13.718v14.018h26.065v-13.718l-26.065-.3" fill="#d61517"/><path id="path7963" d="M273.31 177.45zm-7.383-13.718v14.018h7.514v-13.718l-7.514-.3" fill="#d61517"/><path id="path7964" d="M226.71 182.14zm-16.774-7.037v7.19h17.072v-7.036l-17.072-.154" fill="#a11011"/><path id="path917" fill="#d61517" d="M175.2 177.09v5.78h21.354v-5.78H175.2m29.361 0v5.78h21.354v-5.78h-21.354z"/><path id="path7965" d="M304.02 182.15zm-20.352-6.591v6.735h20.714v-6.591l-20.714-.144" fill="#a11011"/><path id="path7966" d="M165.23 231.89zm-44.578-21.736v22.21h45.369v-21.736l-45.369-.475" fill="#d61517"/><path id="path7967" d="M191.1 231.89zm-23.035-21.736v22.21h23.444v-21.736l-23.444-.475" fill="#d61517"/><path id="path7968" d="M254.98 161.56zm-40.029-11.936v12.197h40.74v-11.936l-40.74-.26" fill="#d61517"/><path id="path7969" d="M298.21 162.01zm-40.029-11.936v12.197h40.74v-11.936l-40.74-.26" fill="#d61517"/><path id="rect7889" fill-rule="evenodd" stroke-width="1pt" fill="#a11011" d="M168.74 88.962h23.667v6.827H168.74z"/><path id="rect7888" fill-rule="evenodd" stroke-width="1pt" fill="#a11011" d="M134.15 88.507h26.398v7.737H134.15z"/><path id="rect7887" fill-rule="evenodd" stroke-width="1pt" fill="#a11011" d="M105.02 88.962h20.937v6.827H105.02z"/><path id="path7885" d="M189.57 109.24zm-76.616 10.801l-8.146-11.473 87.616.455-10.497 9.576" fill="#a11011"/><path id="path624" fill="#d61517" d="M105.8 102.54v5.325h18.684v-5.325H105.8m21.354 0v5.325h42.707v-5.325h-42.707m45.377 0v5.325h18.684v-5.325h-18.684z"/><path id="path586" fill="#d61517" d="M105.8 90.138v4.681h18.684v-4.681H105.8m29.361 0v4.681h24.023v-4.681h-24.023z"/><path id="path588" fill="#d61517" d="M169.86 90.593v4.038h21.354v-4.038H169.86z"/><path id="rect7886" fill-rule="evenodd" stroke-width="1pt" fill="#a11011" d="M105.02 95.79h87.387v13.654H105.02z"/><path id="path7896" d="M142.29 160.22zm-33.845-10.416v10.643h34.446v-10.416l-34.446-.228" fill="#d61517"/><path id="path7897" d="M184.89 160.22zm-39.788-10.416v10.643h40.495v-10.416l-40.495-.228" fill="#d61517"/><path id="path7900" d="M146.64 101.2zm-40.476-3.919v4.005h41.195v-3.92l-41.195-.085" fill="#d61517"/><path id="path7901" d="M124.8 147.01zm-14.539-11.046v11.287h14.797v-11.046l-14.797-.241" fill="#d61517"/><path id="path7902" d="M167.22 147.04zm-39.288-9.786v10h39.986v-9.786l-39.986-.214" fill="#d61517"/><path id="path7903" d="M183.55 147.47zm-12.75-11.046v11.287h12.976v-11.046l-12.976-.241" fill="#d61517"/><path id="path7904" d="M145.03 134.75zm-32.95-9.786v10h33.536v-9.786l-33.536-.214" fill="#d61517"/><path id="path7905" d="M181.82 134.75zm-33.321-9.786v10h33.913v-9.786l-33.913-.214" fill="#d61517"/><path id="path7906" d="M171.53 122.59zm-48.973-3.92v4.006H172.4v-3.92l-49.843-.085" fill="#d61517"/><path id="path7907" d="M180.46 122.59zm-6.936-3.92v4.006h7.06v-3.92l-7.06-.085" fill="#d61517"/><path id="path7908" d="M120.82 122.59zm-7.83-3.92v4.006h7.97v-3.92l-7.97-.085" fill="#d61517"/><path id="path7914" d="M190.79 101.2zm-40.553-3.919v4.005h41.273v-3.92l-41.273-.085" fill="#d61517"/><path id="path7915" d="M126.53 109.81zm-19.905-5.593v5.715h20.258v-5.592l-20.258-.123" fill="#d61517"/><path id="path7916" d="M166.76 109.17zm-35.263-5.147v5.26h35.89v-5.148l-35.89-.112" fill="#d61517"/><path id="path7917" d="M190.7 109.18zm-19.796-4.963v5.071h20.148v-4.962l-20.148-.109" fill="#d61517"/><g id="g7927" fill="#d61517" transform="matrix(1.0299 0 0 .91607 -254.55 12.308)"><path id="path7909" d="M139.81 122.83zM129 115v8h11v-7.829l-11-.17" transform="matrix(6.0068 0 0 .20985 -418.88 88.002)"/><path id="path7910" d="M139.81 122.83zM129 115v8h11v-7.829l-11-.17" transform="matrix(6.6496 0 0 .20985 -505.34 87.118)"/><path id="path7911" d="M139.81 122.83zM129 115v8h11v-7.829l-11-.17" transform="matrix(6.971 0 0 .20985 -547.25 85.792)"/><path id="path7912" d="M139.81 122.83zM129 115v8h11v-7.829l-11-.17" transform="matrix(6.971 0 0 .20985 -547.25 85.792)"/><path id="path7913" d="M139.81 122.83zM129 115v8h11v-7.829l-11-.17" transform="matrix(7.2523 0 0 .20985 -584.41 84.024)"/></g><path id="path8053" d="M354.19 182.67zm-14.986-3.919v4.005h15.252v-3.92l-15.252-.085" fill="#d61517"/><path id="path8054" d="M404.57 182.21zm-22.588-3.919v4.005h22.99v-3.92l-22.99-.085" fill="#d61517"/><path id="path8055" d="M406.89 176.57zm-20.167-12.305v12.574h20.525v-12.305l-20.525-.269" fill="#d61517"/><path id="path8056" d="M383.89 176.56zm-8.243-12.751v13.029h8.39v-12.751l-8.39-.279" fill="#d61517"/><path id="path8057" d="M340.5 176.99zm-16.775-13.642v13.94h17.073v-13.642l-17.073-.298" fill="#d61517"/><path id="path8058" d="M354.26 176.99zm-10.591-13.826v14.128h10.779v-13.826l-10.779-.302" fill="#d61517"/><path id="path8059" d="M338.66 183.03zm-17.669-7.928v8.101h17.983v-7.927l-17.983-.174" fill="#a11011"/><path id="path922" fill="#d61517" d="M285.54 177.09v5.78h23.613v-5.78H285.54m31.484 0v5.78h20.99v-5.78h-20.99z"/><path id="path8060" d="M298.25 162.01zm-38.132-11.936v12.197h38.809v-11.936l-38.809-.26" fill="#d61517"/><path id="rect8007" fill-rule="evenodd" stroke-width="1pt" fill="#a11011" d="M387.66 88.852h23.667v6.827H387.66z"/><path id="rect8008" fill-rule="evenodd" stroke-width="1pt" fill="#a11011" d="M353.07 88.397h26.398v7.737H353.07z"/><path id="rect8009" fill-rule="evenodd" stroke-width="1pt" fill="#a11011" d="M323.94 88.852h20.937v6.827H323.94z"/><path id="path8010" d="M408.49 109.13zm-76.616 10.801l-8.146-11.473 87.617.455-10.497 9.576" fill="#a11011"/><path id="path8011" fill="#d61517" d="M324.72 102.43v5.325h18.684v-5.325H324.72m21.354 0v5.325h42.707v-5.325h-42.707m45.377 0v5.325h18.684v-5.325h-18.684z"/><path id="path8012" fill="#d61517" d="M324.72 90.027v4.038h18.684v-4.038H324.72m29.361 0v4.038h24.023v-4.038h-24.023z"/><path id="path8013" fill="#d61517" d="M388.78 90.483v3.394h21.354v-3.394H388.78z"/><path id="rect8014" fill-rule="evenodd" stroke-width="1pt" fill="#a11011" d="M323.94 95.679h87.387v13.654H323.94z"/><path id="path8015" d="M361.83 160.1zm-35.372-11.046v11.287h36v-11.046l-36-.241" fill="#d61517"/><path id="path8016" d="M403.84 160.1zm-38.055-11.046v11.287h38.731v-11.046l-38.731-.241" fill="#d61517"/><path id="path8017" d="M363.04 101.09zm-37.946-3.919v4.005h38.62v-3.92l-38.62-.085" fill="#d61517"/><path id="path8018" d="M343.73 146.9zm-14.539-11.046v11.287h14.797v-11.046l-14.797-.241" fill="#d61517"/><path id="path8019" d="M386.16 146.9zm-38.655-11.046v11.287h39.342v-11.046l-39.342-.241" fill="#d61517"/><path id="path8020" d="M402.47 147.35zm-12.75-11.046v11.287h12.976v-11.046l-12.976-.241" fill="#d61517"/><path id="path8021" d="M364.59 133.39zm-33.583-7.896v8.068h34.179v-7.896l-34.179-.172" fill="#d61517"/><path id="path8022" d="M400.75 133.39zm-32.688-7.896v8.068h33.269v-7.896l-33.269-.172" fill="#d61517"/><path id="path8023" d="M390.45 122.48zm-48.973-3.92v4.006h49.843v-3.92l-49.843-.085" fill="#d61517"/><path id="path8024" d="M399.39 122.48zm-6.936-3.92v4.006h7.06v-3.92l-7.06-.085" fill="#d61517"/><path id="path8025" d="M339.75 122.48zm-7.83-3.92v4.006h7.97v-3.92l-7.97-.085" fill="#d61517"/><path id="path8026" d="M409.69 101.09zm-41.818-3.919v4.005h42.56v-3.92l-42.56-.085" fill="#d61517"/><path id="path8027" d="M344.19 108.4zm-18.64-6.223v6.359h18.971v-6.223l-18.971-.136" fill="#d61517"/><path id="path8028" d="M384.38 108.41zm-36.528-5.777v5.903h37.177v-5.777l-37.177-.126" fill="#d61517"/><path id="path8029" d="M409.59 108.41zm-21.694-5.593v5.715h22.079v-5.592l-22.079-.123" fill="#d61517"/><g id="g8030" fill="#d61517" transform="matrix(1.0299 0 0 .91607 -35.622 12.197)"><path id="path8031" d="M139.81 122.83zM129 115v8h11v-7.829l-11-.17" transform="matrix(6.0068 0 0 .20985 -418.88 88.002)"/><path id="path8032" d="M139.81 122.83zM129 115v8h11v-7.829l-11-.17" transform="matrix(6.6496 0 0 .20985 -505.34 87.118)"/><path id="path8033" d="M139.81 122.83zM129 115v8h11v-7.829l-11-.17" transform="matrix(6.971 0 0 .20985 -547.25 85.792)"/><path id="path8034" d="M139.81 122.83zM129 115v8h11v-7.829l-11-.17" transform="matrix(6.971 0 0 .20985 -547.25 85.792)"/><path id="path8035" d="M139.81 122.83zM129 115v8h11v-7.829l-11-.17" transform="matrix(7.2523 0 0 .20985 -584.41 84.024)"/></g><g id="g8036" fill="#d61517" transform="matrix(1.0299 0 0 .23327 -35.622 88.621)"><path id="path8037" d="M139.81 122.83zM129 115v8h11v-7.829l-11-.17" transform="matrix(6.0068 0 0 .20985 -418.88 88.002)"/><path id="path8038" d="M139.81 122.83zM129 115v8h11v-7.829l-11-.17" transform="matrix(6.6496 0 0 .20985 -505.34 87.118)"/><path id="path8039" d="M139.81 122.83zM129 115v8h11v-7.829l-11-.17" transform="matrix(6.971 0 0 .20985 -547.25 85.792)"/><path id="path8040" d="M139.81 122.83zM129 115v8h11v-7.829l-11-.17" transform="matrix(6.971 0 0 .20985 -547.25 85.792)"/><path id="path8041" d="M139.81 122.83zM129 115v8h11v-7.829l-11-.17" transform="matrix(7.2523 0 0 .20985 -584.41 84.024)"/></g><path id="rect9122" fill-rule="evenodd" stroke-width="1pt" fill="gray" d="M232.07 462.6h19.954v28.965H232.07z"/><path id="rect9123" fill-rule="evenodd" stroke-width="1pt" fill="#ffc500" d="M234.64 464.54h17.379v25.103H234.64z"/><path id="rect9127" fill-rule="evenodd" stroke-width="1pt" fill="gray" d="M237.86 469.68h11.586v17.379H237.86z"/><path id="rect9126" fill-rule="evenodd" stroke-width="1pt" fill="#d61517" d="M240.44 471.62h7.08v13.517h-7.08z"/><g id="g9128" fill-rule="evenodd" stroke-width="1pt" transform="translate(-257.76 -50.207) scale(1.0299)"><path id="rect9125" fill="gray" d="M475 509.19h7.5v8.75H475z"/><path id="rect9124" fill="#d61517" d="M475 511.06h8.125v5H475z"/></g><g id="g752" fill-rule="evenodd" stroke-width="1pt" transform="translate(-397.6 -225.98) scale(1.0299)"><path id="rect747" transform="rotate(180 564.3 597.25)" fill="gray" d="M488.75 486.69h9.375v73.125h-9.375z"/><path id="rect748" transform="rotate(180 564.3 597.25)" fill="#ffc500" d="M490.63 488.56h5.625v69.375h-5.625z"/></g><path id="rect761" fill-rule="evenodd" transform="scale(-1.02699 -.97226) rotate(-45)" stroke-width="1pt" fill="gray" d="M101.42-491.28h6.46v34.697h-6.46z"/><path id="rect771" fill-rule="evenodd" transform="scale(-.9537 -1.04424) rotate(45)" stroke-width="1pt" fill="gray" d="M-486.13-99.08h6.574v32.527h-6.574z"/><path id="rect758" fill-rule="evenodd" transform="scale(1.02075 .9788) rotate(-45)" stroke-width="1pt" fill="#ffc500" d="M-104.4 456.76h5.312v33.052h-5.312z"/><path id="rect766" fill-rule="evenodd" transform="scale(-.94823 -1.04922) rotate(45)" stroke-width="1pt" fill="#ffc500" d="M-484.94-97.62h5.295v32.948h-5.295z"/><path id="rect768" fill-rule="evenodd" transform="scale(1.00867 .99125) rotate(-45)" stroke-width="1pt" fill="gray" d="M-131.02 454.71h6.216v30.755h-6.216z"/><path id="rect769" fill-rule="evenodd" transform="scale(1.015 .98477) rotate(45)" stroke-width="1pt" fill="gray" d="M453.17 98.053h6.686v35.909h-6.686z"/><path id="rect762" fill-rule="evenodd" transform="rotate(225)" stroke-width="1pt" fill="#ffc500" d="M-457.36-124.58h5.288v32.906h-5.288z"/><path id="rect9112" fill-rule="evenodd" stroke-width="1pt" fill="gray" d="M254.14 336.22h5.149v62.156h-5.149z"/><path id="rect9113" fill-rule="evenodd" stroke-width="1pt" fill="#ffc500" d="M255.01 337.05h3.54v60.114h-3.54z"/><path id="rect765" fill-rule="evenodd" transform="rotate(-45)" stroke-width="1pt" fill="#ffc500" d="M-126.24 452.12h5.645v35.125h-5.645z"/><g id="g813" fill-rule="evenodd" transform="matrix(1.3111 0 0 1.0558 -279.63 -7.672)" stroke-width="1pt" fill="#a11011"><path id="rect814" d="M477.98 275.98h34.57v44.301h-34.57z"/><rect id="rect815" ry="18.298" height="36.596" width="34.311" y="258.3" x="478.13"/></g><g id="g810" fill-rule="evenodd" transform="matrix(1.2413 0 0 1.0195 -244.64 3.97)" stroke-width="1pt" fill="#d61517"><path id="rect811" d="M477.98 275.98h34.57v44.301h-34.57z"/><rect id="rect812" ry="18.298" height="36.596" width="34.311" y="258.3" x="478.13"/></g><g id="g807" fill-rule="evenodd" transform="matrix(.92478 0 0 .95717 -87.879 23.926)" stroke-width="1pt" fill="#a11011"><path id="rect808" d="M477.98 275.98h34.57v44.301h-34.57z"/><rect id="rect809" ry="18.298" height="36.596" width="34.311" y="258.3" x="478.13"/></g><path id="rect793" fill-rule="evenodd" stroke-width="1pt" fill="#d61517" d="M355.98 289.23h28.039v40.449H355.98z"/><rect id="rect794" fill-rule="evenodd" ry="16.707" height="33.414" width="27.829" y="273.09" x="356.11" stroke-width="1pt" fill="#d61517"/><g id="g984" fill-rule="evenodd" transform="matrix(1.3484 0 0 1.0558 -412.97 -8.717)" stroke-width="1pt" fill="#a11011"><path id="rect985" d="M477.98 275.98h34.57v44.301h-34.57z"/><rect id="rect986" ry="18.298" height="36.596" width="34.311" y="258.3" x="478.13"/></g><g id="g987" fill-rule="evenodd" transform="matrix(1.2766 0 0 1.0195 -376.99 2.924)" stroke-width="1pt" fill="#d61517"><path id="rect988" d="M477.98 275.98h34.57v44.301h-34.57z"/><rect id="rect989" ry="18.298" height="36.596" width="34.311" y="258.3" x="478.13"/></g><g id="g990" fill-rule="evenodd" transform="matrix(.95104 0 0 .95717 -215.77 22.881)" stroke-width="1pt" fill="#a11011"><path id="rect991" d="M477.98 275.98h34.57v44.301h-34.57z"/><rect id="rect992" ry="18.298" height="36.596" width="34.311" y="258.3" x="478.13"/></g><g id="g993" fill-rule="evenodd" transform="matrix(.83413 0 0 .91304 -158 36.213)" stroke-width="1pt" fill="#d61517"><path id="rect994" d="M477.98 275.98h34.57v44.301h-34.57z"/><rect id="rect995" ry="18.298" height="36.596" width="34.311" y="258.3" x="478.13"/></g><g id="g997" fill-rule="evenodd" transform="matrix(1.3298 0 0 1.0558 -515.42 -8.556)" stroke-width="1pt" fill="#a11011"><path id="rect998" d="M477.98 275.98h34.57v44.301h-34.57z"/><rect id="rect999" ry="18.298" height="36.596" width="34.311" y="258.3" x="478.13"/></g><g id="g1000" fill-rule="evenodd" transform="matrix(1.2589 0 0 1.0195 -479.94 3.085)" stroke-width="1pt" fill="#d61517"><path id="rect1001" d="M477.98 275.98h34.57v44.301h-34.57z"/><rect id="rect1002" ry="18.298" height="36.596" width="34.311" y="258.3" x="478.13"/></g><g id="g1003" fill-rule="evenodd" transform="matrix(.93791 0 0 .95717 -320.95 23.042)" stroke-width="1pt" fill="#a11011"><path id="rect1004" d="M477.98 275.98h34.57v44.301h-34.57z"/><rect id="rect1005" ry="18.298" height="36.596" width="34.311" y="258.3" x="478.13"/></g><g id="g1006" fill-rule="evenodd" transform="matrix(.82261 0 0 .91304 -263.97 36.374)" stroke-width="1pt" fill="#d61517"><path id="rect1007" d="M477.98 275.98h34.57v44.301h-34.57z"/><rect id="rect1008" ry="18.298" height="36.596" width="34.311" y="258.3" x="478.13"/></g><path id="path1009" d="M233.03 322.27v2.312h6.294v-2.312h-6.294z" fill="#a11011"/><path id="path1010" d="M121.19 320.66v2.312h6.294v-2.312h-6.294z" fill="#a11011"/><path id="path1011" d="M121.19 303.44v2.312h6.294v-2.312h-6.294z" fill="#a11011"/><path id="path1012" d="M121.35 287.19v2.312h6.294v-2.312h-6.294z" fill="#a11011"/><path id="path1013" d="M159.65 321.3v2.312h6.294V321.3h-6.294z" fill="#a11011"/><path id="path1014" d="M159.49 303.92v2.312h6.294v-2.312h-6.294z" fill="#a11011"/><path id="path1015" d="M159.01 287.51v2.312h6.294v-2.312h-6.294z" fill="#a11011"/><path id="path1016" d="M242.09 278.03l1.635-1.635-4.45-4.45-1.635 1.635 4.45 4.45z" fill="#a11011"/><path id="path1017" d="M271.16 322.11v2.312h6.294v-2.312h-6.294z" fill="#a11011"/><path id="path1019" d="M233.19 303.6v2.312h6.294V303.6h-6.294z" fill="#a11011"/><path id="path1020" d="M232.71 287.03v2.312h6.294v-2.312h-6.294z" fill="#a11011"/><path id="path1021" d="M271.16 303.92v2.312h6.294v-2.312h-6.294z" fill="#a11011"/><path id="path1022" d="M271.49 286.22v2.312h6.294v-2.312h-6.294z" fill="#a11011"/><path id="path1023" d="M348.24 322.91v2.312h6.294v-2.312h-6.294z" fill="#a11011"/><path id="path1024" d="M348.24 303.6v2.312h6.294V303.6h-6.294z" fill="#a11011"/><path id="path1025" d="M348.4 285.26v2.312h6.294v-2.312H348.4z" fill="#a11011"/><path id="path1026" d="M385.58 323.07v2.312h6.294v-2.312h-6.294z" fill="#a11011"/><path id="path1027" d="M385.42 303.76v2.312h6.294v-2.312h-6.294z" fill="#a11011"/><path id="path1028" d="M385.58 285.9v2.312h6.294V285.9h-6.294z" fill="#a11011"/><g id="g1065" fill-rule="evenodd" transform="matrix(.55913 0 0 .46281 88.214 34.398)" stroke-width="1pt" fill="#a11011"><path id="rect1066" d="M477.98 275.98h34.57v44.301h-34.57z"/><rect id="rect1067" ry="18.298" height="36.596" width="34.311" y="258.3" x="478.13"/></g><g id="g1068" fill-rule="evenodd" transform="matrix(.52936 0 0 .44688 103.13 39.501)" stroke-width="1pt" fill="#d61517"><path id="rect1069" d="M477.98 275.98h34.57v44.301h-34.57z"/><rect id="rect1070" ry="18.298" height="36.596" width="34.311" y="258.3" x="478.13"/></g><g id="g1071" fill-rule="evenodd" transform="matrix(.39437 0 0 .41957 169.98 48.249)" stroke-width="1pt" fill="#a11011"><path id="rect1072" d="M477.98 275.98h34.57v44.301h-34.57z"/><rect id="rect1073" ry="18.298" height="36.596" width="34.311" y="258.3" x="478.13"/></g><g id="g792" fill-rule="evenodd" transform="matrix(.34589 0 0 .40022 193.94 54.093)" stroke-width="1pt" fill="#d61517"><path id="rect1075" d="M477.98 275.98h34.57v44.301h-34.57z"/><rect id="rect1076" ry="18.298" height="36.596" width="34.311" y="258.3" x="478.13"/></g><path id="path1029" d="M371.21 265.24h-2.312v6.294h2.312v-6.294z" fill="#a11011"/><path id="path1030" d="M273.33 274.06l-1.635-1.635-4.45 4.45 1.635 1.635 4.45-4.45z" fill="#a11011"/><path id="path1031" d="M386.46 273.9l-1.635-1.635-4.45 4.45 1.635 1.635 4.45-4.45z" fill="#a11011"/><path id="path1032" d="M358.27 278.19l1.635-1.635-4.45-4.45-1.635 1.635 4.45 4.45z" fill="#a11011"/><path id="path1033" d="M129.37 270.66l-1.635 1.635 4.45 4.45 1.635-1.635-4.45-4.45z" fill="#a11011"/><path id="path1034" d="M256.48 264.76h-2.312v6.294h2.312v-6.294z" fill="#a11011"/><path id="path1035" d="M142.33 272.02h2.312v-6.294h-2.312v6.294z" fill="#a11011"/><path id="path1036" d="M154.77 276.23l1.635 1.635 4.45-4.45-1.635-1.635-4.45 4.45z" fill="#a11011"/><path id="path1128" d="M358.63 175.86v7.006h22.902v-7.006H358.63z" fill="#a11011"/><path id="path925" fill="#d61517" d="M359.37 177.09v5.325h21.354v-5.325H359.37z"/><g id="g1101" fill-rule="evenodd" stroke-width="1pt" transform="translate(-357.65 -111.23) scale(1.0299)"><g id="g1115" transform="matrix(.61374 0 0 .46256 290.81 137.49)" fill="#a11011"><path id="rect1116" d="M477.98 275.98h34.57v44.301h-34.57z"/><rect id="rect1117" ry="18.298" height="36.596" width="34.311" y="258.3" x="478.13"/></g><g id="g1118" transform="matrix(.58106 0 0 .44663 307.18 142.59)" fill="#d61517"><path id="rect1119" d="M477.98 275.98h34.57v44.301h-34.57z"/><rect id="rect1120" ry="18.298" height="36.596" width="34.311" y="258.3" x="478.13"/></g><g id="g1121" transform="matrix(.43289 0 0 .41934 380.56 151.34)" fill="#a11011"><path id="rect1122" d="M477.98 275.98h34.57v44.301h-34.57z"/><rect id="rect1123" ry="18.298" height="36.596" width="34.311" y="258.3" x="478.13"/></g><g id="g1124" transform="matrix(.37967 0 0 .4 406.86 157.18)" fill="#d61517"><path id="rect1125" d="M477.98 275.98h34.57v44.301h-34.57z"/><rect id="rect1126" ry="18.298" height="36.596" width="34.311" y="258.3" x="478.13"/></g></g><path id="path1127" d="M244.32 176.14v7.006h25.424v-7.006H244.32z" fill="#a11011"/><path id="path919" fill="#d61517" d="M244.6 177.55v5.325h24.023v-5.325H244.6z"/><g id="g1129" fill-rule="evenodd" stroke-width="1pt" transform="translate(-469.44 -111.23) scale(1.0299)"><g id="g1130" transform="matrix(.61374 0 0 .46256 290.81 137.49)" fill="#a11011"><path id="rect1131" d="M477.98 275.98h34.57v44.301h-34.57z"/><rect id="rect1132" ry="18.298" height="36.596" width="34.311" y="258.3" x="478.13"/></g><g id="g1133" transform="matrix(.58106 0 0 .44663 307.18 142.59)" fill="#d61517"><path id="rect1134" d="M477.98 275.98h34.57v44.301h-34.57z"/><rect id="rect1135" ry="18.298" height="36.596" width="34.311" y="258.3" x="478.13"/></g><g id="g1136" transform="matrix(.43289 0 0 .41934 380.56 151.34)" fill="#a11011"><path id="rect1137" d="M477.98 275.98h34.57v44.301h-34.57z"/><rect id="rect1138" ry="18.298" height="36.596" width="34.311" y="258.3" x="478.13"/></g><g id="g1139" transform="matrix(.37967 0 0 .4 406.86 157.18)" fill="#d61517"><path id="rect1140" d="M477.98 275.98h34.57v44.301h-34.57z"/><rect id="rect1141" ry="18.298" height="36.596" width="34.311" y="258.3" x="478.13"/></g></g><path id="path1142" d="M128.32 173.9v8.407h22.342V173.9H128.32z" fill="#a11011"/><path id="path7891" d="M149.29 182.59zm-19.458-7.482v7.645h19.803v-7.482l-19.803-.163" fill="#d61517"/></g></svg>