<svg id="svg378" xmlns="http://www.w3.org/2000/svg" height="480" width="640" version="1" y="0" x="0"><defs id="defs380"><clipPath id="clipPath6337" clipPathUnits="userSpaceOnUse"><path id="rect6339" fill-opacity=".67" d="M-62.883 0h682.67v512h-682.67z"/></clipPath></defs><g id="flag" fill-rule="evenodd" clip-path="url(#clipPath6337)" transform="translate(58.952) scale(.9375)"><path id="rect149" transform="scale(-1)" fill="#fff" d="M-661.1-512h766.65V0H-661.1z"/><path id="rect148" transform="scale(-1)" stroke-width="1pt" fill="#df0000" d="M-661.1-512h766.65v255.55H-661.1z"/><path id="path567" d="M628.27 506.38c0 120.04-97.314 217.36-217.36 217.36-120.04 0-217.36-97.314-217.36-217.36" transform="matrix(.72122 0 0 -.72122 -105.55 621.06)" stroke-width="1pt" fill="#df0000"/><path id="path568" d="M628.27 506.38c0 120.04-97.314 217.36-217.36 217.36-120.04 0-217.36-97.314-217.36-217.36" transform="translate(-105.55 -109.46) scale(.72122)" stroke-width="1pt" fill="#fff"/></g></svg>