<svg id="svg611" xmlns="http://www.w3.org/2000/svg" height="480" width="640" version="1.1"><defs id="defs613"><clipPath id="clipPath4935" clipPathUnits="userSpaceOnUse"><path id="rect4937" fill-opacity=".67" d="M0 0h120v90H0z"/></clipPath></defs><g id="flag" fill-rule="evenodd" clip-path="url(#clipPath4935)" transform="scale(5.3333)" stroke-width="1pt"><g id="g626"><path id="rect614" fill="#0061f3" d="M0 0h135v10H0z"/><path id="rect615" fill="#fff" d="M0 10h135v10H0z"/><path id="rect616" fill="#0061f3" d="M0 20h135v10H0z"/><path id="rect617" fill="#fff" d="M0 30h135v10H0z"/><path id="rect618" fill="#0061f3" d="M0 40h135v10H0z"/><path id="rect619" fill="#fff" d="M0 50h135v10H0z"/><path id="rect620" fill="#0061f3" d="M0 60h135v10H0z"/><path id="rect621" fill="#fff" d="M0 70h135v10H0z"/><path id="rect622" fill="#0061f3" d="M0 80h135v10H0z"/></g><g id="g639"><path id="rect623" fill="#0061f3" d="M0 0h50v50H0z"/><g id="g636" fill="#fff"><path id="rect624" d="M20 0h10v50H20z"/><path id="rect625" d="M0 20h50v10H0z"/></g></g></g></svg>