<svg id="svg548" xmlns="http://www.w3.org/2000/svg" height="480" width="640" version="1.0" xmlns:xlink="http://www.w3.org/1999/xlink"><defs id="defs550"><linearGradient id="linearGradient795"><stop id="stop796" stop-color="#d5dfff" offset="0"/><stop id="stop797" stop-color="#fff" offset="1"/></linearGradient><linearGradient id="linearGradient783"><stop id="stop784" stop-color="#474747" offset="0"/><stop id="stop785" stop-color="#f50" offset="1"/></linearGradient><linearGradient id="linearGradient3491" y2="173.45" xlink:href="#linearGradient783" gradientUnits="userSpaceOnUse" x2="110.94" gradientTransform="matrix(1.5101 0 0 .65184 40.513 .006)" y1="218.47" x1="109.34"/><linearGradient id="linearGradient3493" y2="337.23" gradientUnits="userSpaceOnUse" x2="126.02" gradientTransform="matrix(1.2315 0 0 .79928 40.513 .006)" y1="316.38" x1="125.91"><stop id="stop744" stop-color="#b50000" offset="0"/><stop id="stop745" stop-color="#ffc500" offset="1"/></linearGradient><linearGradient id="linearGradient3495" y2="147.35" xlink:href="#linearGradient795" gradientUnits="userSpaceOnUse" x2="456.4" gradientTransform="matrix(.55904 0 0 1.7607 40.513 .006)" y1="149.38" x1="407.87"/><linearGradient id="linearGradient3497" y2="102.99" xlink:href="#linearGradient783" gradientUnits="userSpaceOnUse" x2="228.97" gradientTransform="matrix(.74087 0 0 1.3286 40.513 .006)" y1="102.99" x1="215.83"/><linearGradient id="linearGradient3499" y2="1003.7" xlink:href="#linearGradient795" gradientUnits="userSpaceOnUse" x2="78.221" gradientTransform="matrix(2.5627 0 0 .38409 40.513 .006)" y1="1040.4" x1="117.6"/><linearGradient id="linearGradient3501" y2="226.38" xlink:href="#linearGradient795" gradientUnits="userSpaceOnUse" x2="255.03" gradientTransform="matrix(.88634 0 0 1.1105 40.513 .006)" y1="245.98" x1="264.72"/></defs><g id="flag"><path id="rect877" stroke-width="1pt" fill="#006" d="M0 0h640v480H0z"/><g id="g878" stroke-width="1pt" transform="scale(7.5663 9.8227)"><path id="path879" fill="#fff" d="M0 0v3.354L53.292 30H60v-3.354L6.708 0H0zm60 0v3.354L6.708 30H0v-3.354L53.292 0H60z"/><path id="path2296" fill="#fff" d="M25 0v30h10V0H25zM0 10v10h60V10H0z"/><path id="path881" fill="#c00" d="M0 12v6h60v-6H0zM27 0v30h6V0h-6z"/><path id="path882" fill="#c00" d="M0 30l20-10h4.472l-20 10H0zM0 0l20 10h-4.472L0 2.236V0zm35.528 10l20-10H60L40 10h-4.472zM60 30L40 20h4.472L60 27.764V30z"/></g><g id="g1223" transform="translate(337.27 11.701) scale(.86059)"><path id="path802" d="M146.97 393.04s-3.346 8.842-5.257 8.842c-1.912 0-8.842-3.824-8.842-3.824s-5.019 8.125-7.647 8.603c-2.629.478-9.56-1.195-9.56-1.195s-6.69 0-6.93-.955c-.238-.956.24-2.868.24-2.868s-9.56 7.647-11.71 7.17c-2.151-.479-9.32-9.56-9.32-9.56l-1.198 4.79-13.621-.48-11.95-7.65s-6.69 10.993-6.93 10.754c-.238-.239-11.71 2.629-11.71 2.629l-.716-2.15-7.647-4.541s5.974-8.364 5.974-8.603c0-.239-2.868-1.195-2.868-1.195l-4.301 3.585-8.842 5.735-8.842-4.063 3.824-7.169.478-5.257 6.93-10.515 84.835-82.445 41.82 77.188-6.213 23.18z" fill-rule="evenodd" stroke="#000" stroke-width="1pt" fill="#6a4c2d"/><path id="path798" d="M207.24 398.04l22.083-.793-9.4-4.643 84.14-3.17-11.89-4.53-10.532-14.27-43.6-3.283s-3.283-2.492-8.606-1.246c-.226-3.397-4.303-7.814-4.303-7.814l-26.84-2.038-16.76 11.438 11.325 28.99 14.382 1.359z" fill-rule="evenodd" stroke="#000" stroke-width="1pt" fill="#fff"/><path id="path782" d="M121.32 150.76l2.224-7.561s3.892-6.561 3.892-9.453c0-2.89 2.891-6.338 2.891-6.338s8.896-2.558 10.786 2.891c9.563-14.456 20.794-.667 20.794-.667l3.114-3.67 6.338-7.783s9.007 8.45 9.119 9.896 1.556.445 1.556.445l9.786-.778s4.644 3.635 3.67 10.564c3.448 2.034 6.56 14.01 6.56 14.01l-80.73-1.556z" fill-rule="evenodd" stroke="#000" stroke-width="1pt" fill="url(#linearGradient3491)"/><path id="path770" d="M207.25 240.72c1.686-1.038 7.004-2.724 6.355-10.505-.648-7.782-7.393-8.69-11.154-8.43-3.761.26-7.133 3.502-7.133 3.502l-12.451-7.912s6.225-39.298 12.84-41.762c6.282-4.527 7.393-6.485 7.393-7.522s-2.335-3.632-2.335-3.632l-40.595-4.798-38.39 4.539s-2.983 4.54-2.594 6.355.519 3.761 7.393 9.079c7.606 5.85 12.84 39.428 12.84 39.428s-10.765 5.317-11.413 4.669c-.649-.649-3.89-1.297-5.577-1.038-1.686.26-7.263 3.113-7.263 10.505 0 7.393 5.577 11.673 5.577 11.673s36.704-4.28 42.151 5.837c5.317-12.191 40.206-7.912 44.356-9.987z" fill-rule="evenodd" stroke="#000" stroke-width="1pt" fill="#656263"/><path id="path1163" stroke-linejoin="round" d="M246.79 199.87s.407-4.266 3.453-6.297c3.047-2.031 23.359-3.047 28.234 0s6.703 18.078 6.703 18.078 3.047 5.281 3.25 9.14.609 6.5.609 6.5 16.25 21.125 16.453 40.218c1.829 13 1.422 47.733-3.656 60.936-.203 16.452-7.109 27.218-7.109 27.218s1.625 2.843 1.422 5.89c-.204 3.047-1.829 5.891-1.829 5.891l23.765 11.781-8.734-3.25s8.938 7.515 8.734 7.312c-.203-.203-9.952-4.672-9.952-4.672l5.89 5.891c-.203-.204-14.421-6.5-14.421-6.5s6.702 6.297 6.296 6.093c-.406-.203-10.765-5.078-10.765-5.078s6.5 6.906 6.297 6.5-9.344-4.062-9.344-4.062l.406 3.453s-7.312-.406-7.312-5.891c-3.656-2.031-6.094-4.875-6.094-4.875l-16.858-2.843-19.094-57.077 4.469-96.482 1.219-4.875-2.032-12.999z" stroke-opacity=".979" fill-rule="evenodd" stroke="#000" stroke-width="1.25"/><path id="path837" d="M234.03 508.2s-9.779-20.579-14.656-20.867c-4.4-8.387 15.291-76.962 53.381-80.871 20.941 1.725 1.722 24.141-12.047 17.243 1.72 6.035 8.605 14.657 8.605 14.657s-27.252 11.783-35.283 69.838z" fill-rule="evenodd" stroke="#000" stroke-width="1.324" fill="#fb0"/><path id="path834" d="M102.91 511.2s8.094-23.416 13.009-23.705c4.914-.289-13.009-78.053-52.035-78.631-21.103 1.735-1.734 24.283 12.142 17.345-1.734 6.071-8.672 14.743-8.672 14.743s27.462 11.853 35.556 70.248z" fill-rule="evenodd" stroke="#000" stroke-width="1pt" fill="#fb0"/><g id="g932"><path id="path839" d="M138.71 364.93c-.094-.188-9.686 3.009-3.479 13.448.47-4.044 4.796-6.489 4.796-6.489s-6.583 7.805.376 14.388c.846-6.206 4.796-8.181 4.796-8.181s-4.89 14.388.094 17.303c.564-5.737 4.232-8.276 4.232-8.276s-4.42 12.884-.47 15.799c.47-4.89 3.761-7.053 3.761-7.053s-1.975 13.354 3.198 14.294c.094-4.701 3.855-9.31 3.855-9.31s-1.693 10.909 6.395 11.379c.094-4.138 1.599-8.84 1.599-8.84s3.667 11.567 9.027 9.686c-.093-3.385.094-9.78 0-9.78s3.386 11.003 9.78 8.934c-.94-3.103.377-6.771.377-6.771s3.385 6.865 9.498 4.608c1.034-2.069-.283-6.112-.283-6.112s8.934 9.216 11.661 3.667c2.728-5.548-7.147-7.429-7.147-7.429h6.677s-2.163-5.642-11.191-6.865c3.104-1.41 6.301-.376 6.301-.376s-1.881-7.053-11.097-7.805c3.574-1.223 7.524-.377 7.524-.377s-1.223-6.676-11.379-8.557c1.599-1.787 5.924-1.223 5.924-1.223s-4.043-6.3-8.651-5.924-46.268-4.232-46.174-4.138z" fill-rule="evenodd" stroke="#000" stroke-width="1pt" fill="#00713d"/><g id="g906" stroke="#3ec26d" stroke-linecap="round" stroke-width="1.25" fill="none"><path id="path855" d="M179.8 398.88s3.667 1.787 3.573 3.386"/><path id="path856" d="M181.97 395.97s4.702 3.291 4.608 5.736"/><path id="path857" d="M186.1 394.27s3.762 2.351 3.95 6.019"/><path id="path858" d="M192.4 395.78s1.881 4.044 1.222 4.796"/><path id="path859" d="M196.17 397.94c.282 3.197-.283 3.479-.283 3.479"/><path id="path840" d="M149.8 377.72s4.42 2.821 4.044 6.771"/><path id="path841" d="M149.52 381.11s2.069 1.974 1.599 3.291"/><path id="path842" d="M154.98 377.82s2.915 4.044 1.975 6.865"/><path id="path843" d="M159.96 380.45s1.317 2.539.094 3.95"/><path id="path844" d="M162.31 381.67s1.599 2.539.188 3.385"/><path id="path845" d="M160.53 390.04s4.137.941 4.702 4.044"/><path id="path846" d="M162.97 387.22s4.325.282 4.796 4.89"/><path id="path847" d="M168.71 385.62c.094 0 2.915 4.984 2.445 6.582"/><path id="path848" d="M174.26 386.09s1.129 4.796.282 6.3"/><path id="path849" d="M177.83 387.97c0 .094.094 5.548.094 5.548"/><path id="path850" d="M172.38 380.45s2.727 1.035 2.539 3.668"/><path id="path851" d="M174.91 378s3.479 1.975 3.103 5.737"/><path id="path852" d="M178.96 376.41s3.01 3.573 1.881 7.523"/><path id="path853" d="M184.22 377.25s-1.129 4.42-.659 6.207"/><path id="path854" d="M187.42 380.26s-1.975 1.505-.941 3.386"/><path id="path860" d="M170.31 397.47s.658 3.385 0 3.949"/><path id="path861" d="M165.98 395.5s2.163 3.761 1.41 5.642"/><path id="path862" d="M161.37 395.31s2.445 2.821 2.351 5.078"/><path id="path863" d="M157.61 395.87s2.257 2.163 2.069 3.385"/><path id="path864" d="M155.64 399.16s2.163 2.257 2.069 2.727"/></g></g><path id="path552" d="M108.86 244.78l31.103-.555s20.551 0 22.773 6.665c3.887-8.887 21.661-8.331 21.661-8.331l32.214-1.111.556 77.759c-6.295 30.178-28.142 51.469-52.21 60.541-28.696-9.258-46.841-33.511-52.765-61.097l-3.332-73.871z" fill-rule="evenodd" stroke="#000" stroke-width="1pt" fill="#fff"/><path id="path553" d="M119.94 244.49l45.307 120.74 40.93-123.37c-12.696.819-39.939-1.998-43.323 9.587-5.236-10.369-33.895-6.189-42.914-6.956z" fill-rule="evenodd" stroke="#000" stroke-width="1pt" fill="#006b00"/><path id="path567" d="M150.78 309.86c1.742.912 1.695-32.768 3.983-33.813.654-2.789.982-4.01 1.799-6.972-1.962-3.487-10.79-3.312-14.06-.349 1.471 4.706 2.125 6.275 2.125 6.275 4.415 7.146 3.538 35.619 6.153 34.859z" fill-rule="evenodd" stroke="#006b00" stroke-linecap="round" stroke-width=".689" fill="#ffc900"/><path id="path560" stroke-linejoin="round" d="M138.64 49.548s3.201-3.637 3.346-4.51c.146-.873 14.549-1.455 23.132-17.458 4.801-8.438 0-3.491 0-3.491l-.291-4.074s5.965-5.674 3.783-8.73c-2.182-3.054-1.455 3.929-4.947 3.784-3.491-.146-1.6-7.565-1.6-7.565s-.29-.873-1.309-1.31c-1.455.146-1.019 2.764-2.328 3.055-1.309.291-2.473-6.11-2.473-6.11s-2.182-2.91-4.074 6.256c1.019 9.747 7.274 7.856 7.274 14.257 0 6.4-5.528 11.348-7.128 11.493-1.601.145-1.019-5.383-1.019-5.383s-.872-2.619-1.454-2.619 3.2-.582 2.619-7.856c-1.31-8.729-2.328 2.037-4.656 1.6s-.582-8.001.291-8.874-1.019-4.51-6.111 4.8c-.436 4.51-1.018-1.163-2.036-.872-1.746 3.637-1.455 6.256 1.018 9.602 3.637 3.346 5.965 6.692 5.819 8.438-.145 1.746-2.036 5.674-4.655 5.674s.145-4.801 0-6.402c-.146-1.6-4.51-7.42-4.51-7.42s-3.055-4.946-2.764-5.091c.291-.146-.291-.873-1.746 4.219s-3.201-3.346-3.201-3.346-2.036 6.256 2.328 10.038c-3.346-.437-3.637.873-3.637.873 0 1.746 4.51 2.473 5.092 5.528s-4.655 4.801-4.655 4.801 2.182 3.055 8.292-2.91c.146 3.783-2.328 6.402-2.328 6.402 2.037.921 3.637.824 3.928 3.2z" fill-rule="evenodd" stroke="#000" stroke-width="1.25" fill="#cdad56"/><path id="path561" stroke-linejoin="round" d="M118.68 49.548s-2.718-4.037-2.842-4.831c-.123-.794-13.375 1.004-19.646-15.158-4.077-7.678 0-3.177 0-3.177l.247-3.707s-4.338-5.308-2.485-8.088c1.853-2.78 1.09 3.574 3.474 3.587 2.965-.132 1.359-6.884 1.359-6.884s.246-.794 1.112-1.191c1.235.132 1.738 4.115 2.85 4.38 1.112.265 3.409-4.687 4.137-5.705 1.018-.146.98-4.103 2.587 4.237-.865 8.87-8.214 7.149-8.214 12.973 0 5.825 4.695 10.326 6.053 10.458 1.36.133.865-4.898.865-4.898s.74-2.383 1.235-2.383c.495 0-4.317.926-3.824-5.693 1.113-6.197 3.578.398 5.554 0 1.978-.396-.231-6.553.335-7.492.132-.94 3.047-4.977 4.172 3.932.37 4.104 2.61-3.533 3.475-3.268 1.483 3.31-.656 7.73-2.756 10.774-3.088 3.045-4.484 6.38-4.36 7.97.123 1.588.856 3.562 3.08 3.562 2.225 0 .75-2.768.874-4.225.123-1.456 3.83-6.169 3.83-6.169.727-1.164.122-3.337.893-4.342 1.207.013 1.702-1.668 2.938 2.966 1.235 4.633 2.717-3.045 2.717-3.045s1.73 5.692-1.976 9.134c2.842-.397 3.088.795 3.088.795 0 1.588-1.356 2.25-1.851 5.03-.495 2.78 1.48 4.369 1.48 4.369s-1.853 2.78-7.042-2.648c-.124 3.442 1.977 5.825 1.977 5.825-1.73.838-3.088.75-3.336 2.912z" fill-rule="evenodd" stroke="#000" stroke-width="1.099" fill="#cdad56"/><path id="path564" d="M198.62 262.5c-2.71-2.459-3.032-.311-4.365-.861-.653-.274-1.165-.886-1.733-1.442-.494-.507-1.081-.717-1.734-.992l-.739 2.185c-.247.728.686 1.934.665 3.027-.185 1.625-.847 2.969-2.885 3.526.581-1.152.911-1.208.734-2.613-.088-.702-2.053-1.948-1.811-2.613.361-1.068.975-2.304.521-3.371-.838.571-1.929.272-2.767.62-.702.314-.75 1.621-1.728 2.165-1.002.469-3.213.237-5.058-.811 1.128-.855 2.06-.278 3.188-1.134.564-.428.538-2.26 1.102-2.688s1.915-.884 2.479-1.312c-.507-.578-.48-1.493-.987-2.07-.508-.578-2.757-.453-3.265-1.031-1.014-1.155-.821-2.676-1.836-3.831 2.626.942 2.245 2.222 2.904 2.125 1.244-.596 2.486-.715 3.138-.441.653.275 1.895 1.898 2.548 2.173.246-.728.605-1.653.852-2.381.247-.729-1.108-1.991-.861-2.719.493-1.456 1.717-2.744 2.21-4.201.177 1.405.41 2.586.587 3.991.088.702 1.469 1.067 1.558 1.77.088.702-.722 2.332-.633 3.034.754-.15 1.845-.048 2.598-.199.754-.15 1.255-1.902 2.009-2.052 1.508-.301 2.594-.209 4.13.08-1.128 1.052-2.003.981-2.71 1.949-.564.428.22 1.839-1.411 2.829-.613.355-2.224-.072-2.788.356l1.522 1.733c.507.578 2.785.846 3.292 1.424 1.014 1.156 1.552 2.536 1.274 3.775z" fill-rule="evenodd" stroke-width="1pt" fill="#ffc900"/><path id="path565" d="M128.95 263.69c2.71-2.46 3.032-.312 4.365-.861.652-.275 1.165-.887 1.733-1.442.494-.508 1.08-.718 1.733-.993l.74 2.185c.247.728-.687 1.934-.665 3.027.184 1.625.846 2.969 2.884 3.527-.581-1.152-.91-1.209-.733-2.613.088-.703 2.052-1.948 1.81-2.614-.36-1.067-.974-2.303-.52-3.371.838.572 1.929.273 2.767.62.702.314.75 1.621 1.728 2.165 1.002.47 3.213.237 5.058-.81-1.129-.856-2.061-.279-3.188-1.135-.564-.428-.538-2.26-1.102-2.688-.565-.428-1.916-.884-2.48-1.312.508-.577.481-1.492.988-2.07.508-.577 2.757-.453 3.264-1.031 1.015-1.155.822-2.676 1.836-3.831-2.625.943-2.244 2.222-2.904 2.125-1.243-.596-2.485-.715-3.138-.44-.652.274-1.894 1.898-2.547 2.172-.247-.728-.606-1.653-.852-2.381-.247-.728 1.108-1.99.861-2.718-.493-1.457-1.717-2.745-2.21-4.201-.177 1.405-.41 2.585-.587 3.99-.089.702-1.47 1.068-1.559 1.77-.088.703.722 2.332.634 3.035-.754-.151-1.845-.049-2.599-.199-.753-.151-1.254-1.902-2.009-2.053-1.508-.301-2.593-.209-4.13.08 1.128 1.053 2.004.981 2.711 1.949.564.428-.221 1.839 1.411 2.829.612.355 2.224-.071 2.788.357l-1.522 1.733c-.507.577-2.785.846-3.292 1.424-1.015 1.155-1.552 2.535-1.274 3.775z" fill-rule="evenodd" stroke-width="1pt" fill="#ffc900"/><path id="path566" stroke-linejoin="round" d="M196.19 270.28c-2.453 1.917-18.311 5.925-18.474 19.695-.163 13.769 2.78 16.907-.163 17.256-5.723 0-6.54-15.338-6.376-22.136.162-6.798.326-5.752.326-5.752s3.923 1.045 3.597 4.358c-.327 3.311 3.923-8.192 2.453-11.33 2.615 2.615 6.048 1.569 6.048 1.394 0-.174-1.961-2.265-2.779-3.834-.817-1.569 2.943.871 2.943.871s.163-2.614-3.107-2.44c-4.25 0 .655-1.394.655-1.394s2.452 2.265 4.087-.175c-1.799-1.916-4.414-2.963-4.414-2.963s-2.289-4.357-5.395-5.228c-3.597-.872-3.107 1.568-7.194 1.22-.817 1.568-.817 1.743.818 2.265-2.779 1.918-1.308 5.752-1.308 5.752s4.414-1.917 4.25 1.22c-.163 3.138-2.616 2.615-4.25.698-1.471-.872-1.962.871-1.962.871l2.289 2.44s-4.415-.174-5.559 2.789c2.453-.174 3.761.523 3.761.523s-5.069 2.266-5.56 3.486c-.489 1.22-.653-1.395-.817-1.395-.163 0-4.904-1.742-4.904-1.742l-1.637 7.537s3.272 3.269 5.07 2.223c1.799-1.046 5.068-4.183 7.03-3.312-5.722 4.358-11.444 10.632-14.55 11.504-.818-.697-3.597-3.486-4.741-2.092-1.145 1.395-.328 3.138 1.144 2.963 1.471-.174-4.741 1.395-3.433 4.009 1.308 2.615 1.144 2.44 2.289 1.744 1.144-.698-.981-.872 3.269-2.092 4.251-1.22 4.087-2.441 4.087-2.441s-.817 1.918-3.105 2.441c-2.289.523-4.088.523-3.597 1.22.49.697 1.47 1.917 1.144 2.615-.327.696 4.741-3.661 6.049-.175 3.434-.174 5.722-4.357 4.087-6.797.164 2.614 1.798 3.485.817 4.705s7.684-4.009 3.433-7.146c1.146 2.615 1.308 4.706 1.308 4.706s1.962-.174 2.453-.871c.49-.698-.981 1.917-.327 2.44.653.523 3.76 3.486 2.452 5.578-.817-1.22-.981-3.138-1.961-2.964-.982.175-5.069 3.138-7.521 3.312s2.943 9.064 2.943 9.064-3.761-.523-4.25-.175c-.491.349-2.943-3.137-3.434-1.045-.818 2.614.817 1.568.817 1.568s-2.125-1.046-3.269.175c-1.144 1.22-2.289 2.44-1.472 2.962.818.523 4.415.523 4.905.349s-4.087.349-4.414.872c-.328.522-.981 2.44 0 3.137s3.433-.349 3.596-.871c.164-.524.328 1.917.328 1.917s4.25.348 4.25-4.009.328 3.137.328 3.137 4.25.697 4.413-3.66.49 2.963.49 2.963 2.78-.872 2.78-1.568c0-.698-.164 8.714-2.125 11.329-3.107-2.092-5.069 1.394-5.069 1.394s.164 5.055-.163 6.275c-.326 1.22 2.125-.698 2.289-1.22.163-.523 3.106-1.918 3.27-2.266l.98-2.092s-.654 2.44-1.798 2.789-2.289 1.569-1.799 2.615c.491 1.045 2.29 1.743 2.943 2.788.654 1.046 2.943-6.1 2.943-6.1l.163 1.568s2.943-.696 3.27-2.091c.327-1.394-3.106-2.614-.327-4.881 2.779-2.265 0 2.092 0 2.092s.981 3.312 1.635 3.312 2.288-6.275.654-7.844c-1.635-1.568 2.452 1.918 2.452 1.918s2.29-6.449-.163-7.321c-2.452-.871-3.597-1.22-3.597-1.22s1.308-1.743.654-1.917 3.433 3.835 4.087 2.789 1.635-4.184-3.105-5.926c-4.742-1.743-.164-6.624-.164-6.624s2.943 3.486 5.068 1.568c2.125-1.916-.164-1.916-.164-1.916s6.049-3.834 6.212-5.752c-1.144-.175-3.106.174-3.106.174s3.434-2.265 2.617-5.926c-1.309 1.917-3.107 1.918-3.107 1.918s2.943-2.964 2.452-5.752c-1.798 1.394-1.635 2.439-2.779 2.091s-3.106-11.329 1.471-12.027c4.578-.696 2.125 5.404 2.289 5.404.163 0 6.867-2.789 0-7.321 1.635-.523 5.068 2.615 5.068 2.615s-1.471-7.67-8.828-2.963c1.799-1.917 2.943-3.138 4.414-2.789 1.472.349 6.704-.174 6.704-1.743-1.308-1.046-4.088.523-5.56 0-1.471-.523 10.463-1.395 9.483-7.32z" fill-rule="evenodd" stroke="#006b00" stroke-linecap="round" stroke-width=".689" fill="#ffc900"/><path id="path568" d="M481.3 118.54s12.247-6.43 18.37 1.531" transform="matrix(.53397 0 0 .56928 -112.64 207.32)" stroke="#006b00" stroke-linecap="round" stroke-width="1.25" fill="none"/><path id="path569" d="M504.57 132.32c-.306 0-4.286 3.98-5.205 3.98" transform="matrix(.53397 0 0 .56928 -112.64 207.32)" stroke="#006b00" stroke-linecap="round" stroke-width="1.25" fill="none"/><path id="path570" d="M512.84 145.18s11.328.918 18.676-10.41" transform="matrix(.53397 0 0 .56928 -112.64 207.32)" stroke="#006b00" stroke-linecap="round" stroke-width="1.25" fill="none"/><path id="path571" d="M525.08 141.81s.919 6.123 2.756 6.123-3.062 1.531-4.899.306c2.143 2.756 3.368 7.655 0 9.492" transform="matrix(.53397 0 0 .56928 -112.64 207.32)" stroke="#006b00" stroke-linecap="round" stroke-width="1.25" fill="none"/><path id="path572" d="M519.26 218.97s-3.98 4.286-8.879 4.592" fill-rule="evenodd" transform="matrix(.53397 0 0 .56928 -112.64 207.32)" stroke="#006b00" stroke-linecap="round" stroke-width="1.25" fill="#e80000"/><path id="path573" d="M523.86 199.37s-2.45-12.247-.919-15.309c.919-3.979 4.899-5.511 7.961-10.716" transform="matrix(.53397 0 0 .56928 -112.64 207.32)" stroke="#006b00" stroke-linecap="round" stroke-width="1.25" fill="none"/><path id="path574" d="M522.63 190.49s-3.062 7.348-16.533 4.899" transform="matrix(.53397 0 0 .56928 -112.64 207.32)" stroke="#006b00" stroke-linecap="round" stroke-width="1.25" fill="none"/><path id="path575" d="M526.31 172.12s.919 9.797-11.328 6.123" transform="matrix(.53397 0 0 .56928 -112.64 207.32)" stroke="#006b00" stroke-linecap="round" stroke-width="1.25" fill="none"/><path id="path576" d="M511.3 128.04s-4.899 4.287-3.062 10.104" transform="matrix(.53397 0 0 .56928 -112.64 207.32)" stroke="#006b00" stroke-linecap="round" stroke-width="1.25" fill="none"/><path id="path577" d="M529.67 117.32s6.43-2.449 7.654-3.674c1.225-1.224 3.368-3.674 3.98-5.511.613-1.837-4.285-4.593-1.837-8.573 1.531-1.837 3.674-2.143 7.348 0 3.675 2.144-3.367-6.735-7.041-7.042s-6.124 2.45-7.042 1.838c-.919-.613.306 2.449-1.225 2.449s3.062 2.45 2.756 3.98c-.307 1.531 4.898 6.736 4.592 7.961-.306 1.224-7.654 8.266-9.185 8.572z" fill-rule="evenodd" transform="matrix(.53397 0 0 .56928 -112.64 207.32)" stroke-linecap="round" stroke-width="1.25" fill="#006b00"/><path id="path578" stroke-linejoin="round" d="M534.27 97.112c2.794-.636 3.243.07 2.755 2.45-1.309-.66-1.79-1.218-2.755-2.45z" fill-rule="evenodd" transform="matrix(.53397 0 0 .56928 -112.64 207.32)" stroke="#ffc900" stroke-linecap="round" stroke-width="1.25" fill="#ffc900"/><path id="path579" stroke-linejoin="round" d="M514.71 233.52s-1.033 6.409 1.489 6.946c-.124-2.48.538-4.176 1.158-4.837-.538-.249-2.522-2.067-2.647-2.109z" fill-rule="evenodd" transform="matrix(.53397 0 0 .56928 -112.64 207.32)" stroke="#006b00" stroke-width="1.25" fill="#e80000"/><path id="path580" stroke-linejoin="round" d="M509.03 225.63c-2.316-.331-6.23 1.591-5.105 3.911 1.881-1.621 3.626.134 4.941-1.519.404-.453.29-1.812.164-2.392z" fill-rule="evenodd" transform="matrix(.53397 0 0 .56928 -112.64 207.32)" stroke="#006b00" stroke-width="1.25" fill="#e80000"/><path id="path581" stroke-linejoin="round" d="M509.01 221.05s-3.651-.581-4.157 1.948c2.52-.32 3.274-.59 4.109-.06.242-.541.008-1.762.048-1.888z" fill-rule="evenodd" transform="matrix(.53397 0 0 .56928 -112.64 207.32)" stroke="#006b00" stroke-width="1.25" fill="#e80000"/><path id="path582" stroke-linejoin="round" d="M493.54 184.94s2.191.828 2.811 3.06c1.736-1.075 2.564-5.83-2.811-3.06z" fill-rule="evenodd" transform="matrix(.53397 0 0 .56928 -112.64 207.32)" stroke="#006b00" stroke-width="1pt" fill="#e80000"/><path id="path583" stroke-linejoin="round" d="M488.12 190.39c.083-.041 4.59-2.77 5.045-.165-.952.95-1.365 1.57-2.109 1.778-.579-.001-1.737-1.778-2.936-1.613z" fill-rule="evenodd" transform="matrix(.53397 0 0 .56928 -112.64 207.32)" stroke="#006b00" stroke-width="1pt" fill="#e80000"/><path id="path584" stroke-linejoin="round" d="M487.67 199.24c.082-.042 2.894-2.522 3.969-.868 1.075 1.653-.868 1.571-.868 1.571s-.993-.455-3.101-.703z" fill-rule="evenodd" transform="matrix(.53397 0 0 .56928 -112.64 207.32)" stroke="#006b00" stroke-width="1pt" fill="#e80000"/><path id="path585" stroke-linejoin="round" d="M483.7 149.96c-.041 0-3.597-1.364-5.085 1.116 2.357.29 3.184 1.117 4.258 1.944-.289-1.034-.785-2.605.827-3.06z" fill-rule="evenodd" transform="matrix(.53397 0 0 .56928 -112.64 207.32)" stroke="#006b00" stroke-width="1pt" fill="#e80000"/><path id="path586" stroke-linejoin="round" d="M476.8 168.52s.165-4.176 2.15-5.871c1.116.62 1.446 1.612 2.191 2.853-1.488.33-3.473.413-4.341 3.018z" fill-rule="evenodd" transform="matrix(.53397 0 0 .56928 -112.64 207.32)" stroke="#006b00" stroke-width="1pt" fill="#e80000"/><path id="path587" stroke-linejoin="round" d="M486.3 165.54s-3.928 1.82-2.646 3.804c1.282-1.364 2.688-.951 2.688-.992s0-2.77-.042-2.812z" fill-rule="evenodd" transform="matrix(.53397 0 0 .56928 -112.64 207.32)" stroke="#006b00" stroke-width="1pt" fill="#e80000"/><path id="path588" stroke-linejoin="round" d="M480.64 125.6c-1.406 1.571 1.736 5.003 5.044 4.507.827-3.72-4.217-5.664-5.044-4.507z" fill-rule="evenodd" transform="matrix(.53397 0 0 .56928 -112.64 207.32)" stroke="#006b00" stroke-width="1pt" fill="#ffc900"/><path id="path589" stroke-linejoin="round" d="M480.6 118.41c-.689 1.75 2.053 4.203 3.638 3.514.648-1.792-2.922-4.906-3.638-3.514z" transform="matrix(.53397 0 0 .56928 -112.64 207.32)" stroke-width="1pt" fill="none"/><path id="path590" stroke-linejoin="round" d="M484.28 122.75s.62 2.936 3.473 2.15c-.455-2.274-2.439-3.969-2.439-3.969-.124.662.413 1.695-1.034 1.819z" fill-rule="evenodd" transform="matrix(.53397 0 0 .56928 -112.64 207.32)" stroke="#006b00" stroke-width="1pt" fill="#e80000"/><path id="path591" stroke-linejoin="round" d="M486.18 131.27s1.571 1.695 4.672-1.778c-1.405.413-3.886-.827-3.886-.827s0 2.398-.786 2.605z" fill-rule="evenodd" transform="matrix(.53397 0 0 .56928 -112.64 207.32)" stroke="#006b00" stroke-width="1pt" fill="#e80000"/><path id="path592" stroke-linejoin="round" d="M480.46 118.86c-1.406 1.571.583 3.762 3.891 3.266.827-3.72-3.064-4.423-3.891-3.266z" fill-rule="evenodd" transform="matrix(.53397 0 0 .56928 -112.64 207.32)" stroke="#006b00" stroke-width="1pt" fill="#ffc900"/><path id="path742" d="M144.62 266.62s7.037-2.011 10.771 1.005 3.734.287 3.734.287 5.457 2.011 7.037 1.58-1.148.144 1.006-1.149c2.154-1.292-4.309.288-4.883-2.441-1.006-1.724.143-3.878-2.154-3.16-1.58-2.011 1.005-3.446.43-5.601-1.579 1.149-2.441-.431-3.734 2.442-3.015-.575-.431-4.74-3.734-5.171 0 3.016-2.442 3.16-2.585 4.883-1.436 1.006-7.755 4.74-5.888 7.325z" fill-rule="evenodd" fill="url(#linearGradient3493)"/><path id="path833" d="M63.624 495.58c4.566-1.102 29.306 5.462 38.844 15.689-2.024-18.213-7.07-32.166-7.07-32.166s-14.743-4.205-16.767-2.181c-2.968 3.126-11.884 12.492-15.007 18.658z" fill-rule="evenodd" stroke="#000" stroke-width="1pt" fill="#c01500"/><path id="path835" d="M56.082 411.46c-1.734.289-3.469 1.446-5.204 4.336-2.023 4.914-3.468 17.345-6.36 20.236-2.89 2.891-5.492 3.18-5.492 5.782 0 2.601.29 8.672 8.094 10.985 7.806.289 20.236-12.431 20.236-12.431s6.36-6.938 8.962-14.454c-15.032 5.204-25.728-8.673-20.236-14.454z" fill-rule="evenodd" stroke="#000" stroke-width="1pt" fill="#c01500"/><path id="path836" d="M273.49 492.68c-4.531-1.096-29.556 5.43-39.02 15.597 2.009-18.106 7.016-31.978 7.016-31.978 1.747-.476 14.47-4.18 16.479-2.168 2.945 3.108 12.426 12.419 15.525 18.549z" fill-rule="evenodd" stroke="#000" stroke-width="1.324" fill="#c01500"/><path id="path838" d="M280.5 409.05c1.722.287 2.33 2.549 3.735 5.422 2.007 4.885 4.077 12.003 6.946 14.876 2.868 2.875 5.45 7.132 5.45 9.719 0 2.585-.605 6.081-8.35 8.379-7.745.288-18.968-9.657-18.968-9.657s-6.311-6.898-8.893-14.37c14.917 5.174 24.578-8.146 20.08-14.369z" fill-rule="evenodd" stroke="#000" stroke-width="1.324" fill="#c01500"/><path id="path832" d="M47.41 479.69s15.61 10.696 15.9 15.61c41.918-62.153 148.88-81.522 209.88-4.336 8.094-10.696 16.478-14.165 16.478-14.165-64.18-83.84-191.96-73.43-242.26 2.89z" fill-rule="evenodd" stroke="#000" stroke-width="1pt" fill="#fb0"/><g id="g971" fill="#3fa4d5"><g id="g3239" stroke="#000" fill-rule="evenodd" fill="#1e5aa6"><path id="path555" d="M206.44 241.88l6.11-.145-10.911 13.82 13.094 15.276-25.751 32.443 24.296 29.242c-2.667 6.547-5.771 12.512-9.893 17.894l-13.966-15.421 25.314-31.57-20.804-23.568 12.511-37.971z" stroke-width="1pt"/><path id="path556" d="M119.15 244.64l-6.546.146 12.22 13.238-12.949 16.149 26.915 29.242-22.259 29.824c2.667 6.547 6.498 13.821 10.62 19.203l13.239-16.73-27.205-30.261 19.931-25.313-13.966-35.498z" stroke-width="1pt"/><path id="path557" d="M149.41 323.2l-9.602 12.803 34.334 39.716c6.062-3.055 10.815-6.546 16.003-10.765l-17.894-20.659 7.274-21.386L190 334.984l-32.733 41.754c-5.48-2.328-11.542-5.965-17.022-10.475l17.312-21.968-8.147-21.095z" stroke-width="1pt"/><path id="path558" d="M138.79 303.27l6.256 7.856-4.073-10.62-2.183 2.764z" stroke-width="1pt"/><path id="path559" d="M183.6 310.22c.137-.146 5.049-6.693 5.049-6.693l-1.911-2.618-3.138 9.311z" stroke-width="1.291"/></g></g><text id="text1025" font-weight="bold" transform="rotate(-49.557)" font-size="14" y="362.397" x="-328.344" font-family="Timmons" fill="#000"><tspan id="tspan1032" y="362.397" x="-328.344">L</tspan></text><text id="text1034" font-weight="bold" transform="rotate(-45.392)" font-size="14" y="384.266" x="-292.335" font-family="Timmons" fill="#000"><tspan id="tspan1037" y="384.266" x="-292.335">E</tspan></text><text id="text1039" font-weight="bold" transform="matrix(.7628 -.54464 .56769 .75422 0 0)" font-size="14" y="451.681" x="-239.78" font-family="Timmons" fill="#000"><tspan id="tspan1042" y="451.681" x="-239.78">O</tspan></text><text id="text1044" font-weight="bold" transform="rotate(-34.061)" font-size="14" y="429.958" x="-188.526" font-family="Timmons" fill="#000"><tspan id="tspan1049" y="429.958" x="-188.526">T</tspan></text><text id="text1051" font-weight="bold" transform="rotate(-25.549)" font-size="14" y="451.479" x="-115.426" font-family="Timmons" fill="#000"><tspan id="tspan1052" y="451.479" x="-115.426">E</tspan></text><text id="text1054" font-weight="bold" transform="rotate(-23.988)" font-size="14" y="453.046" x="-94.111" font-family="Timmons" fill="#000"><tspan id="tspan1057" y="453.046" x="-94.111">R</tspan></text><text id="text1065" font-weight="bold" transform="rotate(-21.911)" font-size="14" y="454.982" x="-68.371" font-family="Timmons" fill="#000"><tspan id="tspan1066" y="454.982" x="-68.371">R</tspan></text><text id="text1068" font-weight="bold" transform="rotate(-4.763)" font-size="14" y="445.666" x="112.016" font-family="Timmons" fill="#000"><tspan id="tspan1069" y="445.666" x="112.016">R</tspan></text><text id="text1071" font-weight="bold" transform="rotate(.856)" font-size="14" y="430.793" x="180.225" font-family="Timmons" fill="#000"><tspan id="tspan1072" y="430.793" x="180.225">R</tspan></text><text id="text1074" font-weight="bold" transform="rotate(29.645)" font-size="14" y="275.217" x="414.759" font-family="Timmons" fill="#000"><tspan id="tspan1075" y="275.217" x="414.759">R</tspan></text><text id="text1080" font-weight="bold" transform="rotate(39.802)" font-size="14" y="193.05" x="483.878" font-family="Timmons" fill="#000"><tspan id="tspan1081" y="193.05" x="483.878">E</tspan></text><text id="text1083" font-weight="bold" transform="matrix(.96356 .18112 -.15531 .95184 0 0)" font-size="14" y="414.028" x="309.116" font-family="Timmons" fill="#000"><tspan id="tspan1084" y="414.028" x="309.116">O</tspan></text><text id="text1086" font-weight="bold" transform="matrix(.90188 -.1316 .13648 .975 0 0)" font-size="14" y="459.272" x="105.058" font-family="Timmons" fill="#000"><tspan id="tspan1087" y="459.272" x="105.058">O</tspan></text><text id="text1089" font-weight="bold" transform="rotate(-20.292)" font-size="14" y="455.835" x="-45.708" font-family="Timmons" fill="#000"><tspan id="tspan1092" y="455.835" x="-45.708">A</tspan></text><text id="text1094" font-weight="bold" transform="rotate(45.196)" font-size="14" y="144.724" x="518.35" font-family="Timmons" fill="#000"><tspan id="tspan1095" y="144.724" x="518.35">A</tspan></text><text id="text1097" font-weight="bold" transform="rotate(11.357)" font-size="14" y="388.298" x="271.188" font-family="Timmons" fill="#000"><tspan id="tspan1098" y="388.298" x="271.188">A</tspan></text><text id="text1100" font-weight="bold" transform="rotate(-10.645)" font-size="14" y="455.168" x="40.322" font-family="Timmons" fill="#000"><tspan id="tspan1103" y="455.168" x="40.322">M</tspan></text><text id="text1105" font-weight="bold" transform="rotate(-5.94)" font-size="14" y="448.079" x="94.429" font-family="Timmons" fill="#000"><tspan id="tspan1108" y="448.079" x="94.429">P</tspan></text><text id="text1113" font-weight="bold" transform="rotate(-1.463)" font-size="14" y="437.607" x="155.088" font-family="Timmons" fill="#000"><tspan id="tspan1114" y="437.607" x="155.088">P</tspan></text><text id="text1116" font-weight="bold" transform="rotate(29.499)" font-size="14" y="276.665" x="405.134" font-family="Timmons" fill="#000"><tspan id="tspan1117" y="276.665" x="405.134">P</tspan></text><text id="text1119" font-weight="bold" transform="rotate(6.586)" font-size="14" y="409.793" x="232.095" font-family="Timmons" fill="#000"><tspan id="tspan1122" y="409.793" x="232.095">I</tspan></text><text id="text1124" font-weight="bold" transform="rotate(46.586)" font-size="14" y="132.089" x="530.392" font-family="Timmons" fill="#000"><tspan id="tspan1125" y="132.089" x="530.392">T</tspan></text><text id="text1127" font-weight="bold" transform="rotate(36.816)" font-size="14" y="218.519" x="464.158" font-family="Timmons" fill="#000"><tspan id="tspan1128" y="218.519" x="464.158">T</tspan></text><text id="text1130" font-weight="bold" transform="rotate(16.412)" font-size="14" y="361.961" x="313.725" font-family="Timmons" fill="#000"><tspan id="tspan1131" y="361.961" x="313.725">M</tspan></text><text id="text1133" font-weight="bold" transform="rotate(47.66)" font-size="14" y="123.248" x="513.704" font-family="Timmons" fill="#000"><tspan id="tspan1136" y="123.248" x="513.704">G</tspan></text><g id="g1148" stroke="#fff700" stroke-linecap="round" stroke-width="1pt" fill="none"><path id="path1138" d="M255.94 200.94s6.032-5.171 10.341-5.315"/><path id="path1139" d="M256.81 200.22c.143-.143 36.05-5.17 37.199-6.319"/><path id="path1140" d="M256.95 200.51c.144-.144 40.216-3.447 40.216-3.447"/><path id="path1141" d="M256.81 200.65s42.657-2.011 45.242.144"/><path id="path1142" d="M256.66 200.51s41.796.287 42.514 1.292"/><path id="path1143" d="M256.81 200.51l40.215 3.303"/><path id="path1144" d="M256.38 200.8c.143 0 40.934 3.591 44.955 8.761"/><path id="path1145" d="M303.48 216.88c-.143-.143-13.931-16.517-47.253-16.23"/><path id="path1146" d="M256.38 200.94s23.124 1.579 30.449 9.623"/><path id="path1147" d="M256.81 200.65s14.937-2.872 30.592 15.943"/></g><path id="path1159" d="M247.4 217.74s20.718.813 20.718 2.844-15.437 5.89-15.64 14.422c-.203 8.531 11.781 9.14 12.593 19.905.813 10.766-9.343 12.39-11.375 15.234-2.031 1.422-6.906 16.656-6.296 25.593.609 8.938 3.249 39.203 7.921 45.296 3.657 2.844 9.141 11.984 15.031 9.14 5.891-2.843 1.828-13.202 1.219-16.046s2.437-7.516 2.437-11.781c0-4.266-2.234-7.719-2.031-8.734.203-1.016 16.453 3.859 15.437 19.906-1.015 16.046-7.515 11.171-7.515 11.171s2.031 19.703-3.047 22.343c-9.14 4.875-15.843-1.015-15.843-1.015l.859 4.007-6.953-3.601s-8.937-12.797-10.968-18.484-4.469-31.077-3.656-36.561c.812-5.485 1.421-37.578 1.015-39.203s-2.031-28.436-1.015-32.499c1.015-4.062 7.312-21.937 7.109-21.937z" fill-rule="evenodd" stroke="#000" stroke-width="1pt" fill="url(#linearGradient3495)"/><path id="path1160" d="M225.06 212.46s14.421-14.015 22.749-12.39c4.266 0 .203 3.047.203 3.047s7.312.609 8.328 3.859c.203 1.422-3.453 1.828-3.453 1.828s3.047.609 3.25 3.25-30.874.609-31.077.406z" fill-rule="evenodd" stroke="#000" stroke-width="1pt" fill="#ff7000"/><path id="path1161" d="M225.87 211.85s15.437-2.031 21.937-8.531" stroke="#000" stroke-width="1pt" fill="none"/><path id="path1162" d="M241.51 207.59s11.375-.406 11.375 1.219" stroke="#000" stroke-width="1pt" fill="none"/><path id="path1164" stroke-linejoin="round" d="M281.93 373.74s9.75-2.234 12.39-5.687c1.626-1.219 10.157 12.796-12.39 5.687z" fill-rule="evenodd" stroke="#000" stroke-width="1.25" fill="#fff"/><path id="path1165" d="M279.29 293.1s1.219 7.515-2.235 12.593c-1.828 2.031-7.312 5.484-7.312 7.922 0 2.437 2.031 5.687 1.625 8.531s-3.453 5.688-3.25 8.125c0 2.437 3.453 15.437 3.047 15.64" stroke="#fff" stroke-linecap="round" stroke-width="1.25" fill="none"/><path id="path1166" d="M261.42 268.73s-7.718 2.641-9.343 10.36" stroke="#fff" stroke-linecap="round" stroke-width="1.25" fill="none"/><path id="path1167" d="M258.16 207.59s2.641 7.313 11.172.407c-5.484-7.515-11.172-.204-11.172-.407z" fill-rule="evenodd" stroke="#000" stroke-width="1pt" fill="#c75b00"/><path id="path1168" d="M264.87 206.47c0 .393-.41.711-.914.711s-.914-.318-.914-.711c0-.393.41-.71.914-.71s.914.317.914.71z" fill-rule="evenodd" transform="translate(-.406 .813)"/><path id="path743" d="M188.41 190.62s16.177 17.509 26.644 17.319c1.903 5.138-4.752 9.919-7.416 12.202-5.33-1.713-10.145.312-22.515-14.913.76-9.706 3.477-14.227 3.287-14.608z" fill-rule="evenodd" stroke="#000" stroke-width="1pt" fill="#fff"/><path id="path744" d="M210.3 149.89c2.094-6.47 6.28-11.609 9.896-12.18-.951-4.948 7.613-26.834 32.544-35.208 1.523 11.228-10.658 22.267-10.658 22.267s36.731-6.28 44.153-15.606c-.76 4.187-8.183 30.26-47.388 30.07 14.845 14.083-4.757 25.312-13.132 21.886 15.416-11.8-4.377-18.841-15.416-11.229z" fill-rule="evenodd" stroke="#000" stroke-width="1pt" fill="#fff"/><path id="path745" d="M222.86 140.76c7.422-4.758 10.087-4.758 16.177-3.806-4.377.57-4.377.761-4.377.761s-.38.571 2.284 3.045c-3.045-.761-5.71-2.474-14.083 0z" fill-rule="evenodd" stroke="#ccc" stroke-width="1pt" fill="#cccccd"/><path id="path746" d="M220 137.71s14.654-7.803 22.838-13.132" stroke="#000" stroke-width="1pt" fill="none"/><path id="path747" d="M207.44 220.12s20.173 5.519 22.457-23.409c-4.377-12.561-10.467-39.585-1.142-47.388-8.564-5.9-17.89.19-17.89.19-.57 1.333-8.183 12.18 2.093 31.212-24.36-6.47-14.464 16.557-14.464 16.557.952-3.616 13.893-7.041 17.128 11.42 1.333 4.567-8.754 11.608-8.183 11.418z" fill-rule="evenodd" stroke="#000" stroke-width="1pt" fill="#00f"/><path id="path748" d="M230.09 196.9s21.315-11.419 20.744-38.253c-18.08.38-24.55 23.789-24.55 23.789l3.806 14.464z" fill-rule="evenodd" stroke="#000" stroke-width="1pt" fill="#00f"/><path id="path749" d="M134.55 195.57s-15.796 13.703-24.741 9.325c-6.661 3.997-14.464-3.045-14.464-3.045s9.135 33.686 41.869 9.326c-.57-7.422-2.284-15.035-2.664-15.606z" fill-rule="evenodd" stroke="#000" stroke-width="1pt" fill="#fff"/><path id="path750" d="M109.62 204.32c1.332-7.042 6.851-10.467 11.229-3.806 5.9 1.142 11.8-23.028-9.135-19.031 5.9-31.592-11.8-43.392-11.8-43.392s-6.28 35.018-3.425 41.489c2.855 6.47-4.187-11.99-26.834-17.128-.38 26.454 25.312 38.824 25.312 38.824s7.232 6.66 14.654 3.045z" fill-rule="evenodd" stroke="#000" stroke-width="1pt" fill="#00f"/><path id="path751" d="M111.71 181.29s-9.896 8.374-7.613 19.793" stroke="#000" stroke-width="1pt" fill="none"/><path id="path752" d="M96.68 180.15s-2.284 8.184 2.664 19.793" stroke="#000" stroke-width="1pt" fill="none"/><path id="path753" d="M95.157 202.61s4.568-7.422 14.464 2.094" stroke="#000" stroke-width="1pt" fill="none"/><path id="path755" d="M97.06 151.22c0-.19-15.035 0-6.09 15.225-6.661 2.094-21.506-7.613-11.23-20.554-33.685-.761-47.387-16.938-47.387-31.782 9.896 10.277 33.495 6.09 41.869 12.37-10.277-9.516-8.184-22.647-8.184-22.647s28.738 8.564 33.876 34.066c-1.712 4.948-2.474 13.703-2.854 13.322z" fill-rule="evenodd" stroke="#000" stroke-width="1pt" fill="#fff"/><path id="path756" d="M73.942 125.82c5.546 5.643 19.796 7.329 27.028 13.609" stroke="#000" stroke-width="1pt" fill="none"/><path id="path757" d="M80.503 142.47s11.797-1.523 15.216 2.664c-4.616 0-6.155-1.142-12.823 1.333 1.88-.952 1.368-2.665 2.394-2.665s-4.275-1.332-4.788-1.332z" fill-rule="evenodd" stroke="#ccc" stroke-width=".948" fill="#cccccd"/><path id="path758" d="M139.31 50.166s6.47-5.71 13.512-.571c-3.181 9.507-14.654 5.9-14.654 5.9s.38 4.758-.761 7.041c2.297 1.727 4.187 7.423 4.187 7.423s11.8-2.855 14.274 2.283c4.518-.623 7.803 0 7.803 0s9.135-2.283 12.37-2.283c3.235 0 13.512 2.664 14.464 4.567.951 1.903 4.377 14.654 6.66 14.464 2.284-.19-5.518 3.045-7.612-.19-2.093-3.235-1.522 4.187-1.522 4.187s6.47 6.851 7.231 8.374c.762 1.522-3.996 13.893-.38 22.457-3.169.292-3.426 3.616-3.426 3.616-.174 3.77-4.948 4.757-4.948 4.757l-1.142-5.138-3.235 1.903 1.332-3.997s4.377-10.658 4.758-14.083c.38-3.425-3.997-9.515-7.422-9.515-3.426 0-5.9 10.848-5.9 10.848s-1.713 8.183-1.142 8.944c.57.762-2.284-2.664-2.284-2.664s-1.522 4.948-2.664 6.47c-1.142 1.523-3.616 2.094-3.616 2.094s-1.713-4.948-1.142-6.851c.57-1.903 9.325-9.326 8.564-14.654-.761-5.329 0-3.997-.19-4.187-.19-.19-4.568-3.997-4.758-6.09-.19-2.094-5.71 2.664-12.941 1.142-2.214 3.868-2.474 13.512-2.474 13.512s-.761 11.609.761 12.94c1.523 1.333-3.806 4.188-3.806 4.188l-3.807 5.138s-1.332-3.235-1.332-3.045c0 .19-2.664 1.903-2.664 1.903l1.522-3.806c-.092-2.881 3.7-10.75 3.7-17.412 0-6.661.487-13.8.487-13.8s-7.041-.38-6.851 6.851c.19 7.232-1.713 7.613-1.332 9.706.38 2.094 2.284 7.994 1.713 9.706-.571 1.713-2.855 2.284-2.855 2.284l-.571.952s-7.042 3.235-6.851 4.567c.19 1.332-.19-3.806-.19-3.806l-.381-5.52s4.187-2.664 4.187-9.325c0-6.66-.965-7.608-.775-9.13.19-1.523 1.155-7.046.965-7.617-.19-.571-3.997 1.522-5.139 1.522s2.094-3.996 2.474-6.851c.381-2.855-3.806 2.664-7.231-.571 1.592-3.514 3.996-4.568 4.377-7.232s-2.665 2.284-5.329.38c.217-2.553 2.855-4.757 2.855-4.757s-2.169-.266-3.045 0c-1.713-.571 1.903-3.236 2.093-7.042.19-3.806-2.093-5.329-2.093-5.519 0-.19-3.807-3.426-4.378-4.758-.57-1.332-.57-2.855-.57-2.855s-6.28 4.568-13.704-5.138c6.797-5.803 14.083-1.523 14.083-1.523s1.904-5.328 10.658-4.948c8.755.38 10.467 5.329 10.087 4.758z" fill-rule="evenodd" stroke="#000" stroke-width="1pt" fill="#923f00"/><path id="path763" d="M187.19 148.61c.159 0 16.167.475 16.325 9.034.159 8.56-4.913 6.34-5.072 6.34s-11.729-1.426-11.729-1.426l.475-13.948z" fill-rule="evenodd" stroke="#000" stroke-width="1pt" fill="#00f"/><path id="path764" d="M171.65 146.23s19.971-.159 18.861 8.559c-1.11 8.717-6.181 6.974-6.181 6.974l-9.669-.793-3.011-14.74z" fill-rule="evenodd" stroke="#000" stroke-width="1pt" fill="#fffeff"/><path id="path765" d="M160.4 145.28l11.57.951s6.974.95 6.657 7.608c-.317 6.657-7.133 6.815-7.133 6.815l-11.252-.634.158-14.74z" fill-rule="evenodd" stroke="#000" stroke-width="1pt" fill="#00f"/><path id="path766" d="M133.3 148.61c-.159 0-16.167.475-16.325 9.034-.158 8.56 4.914 6.34 5.072 6.34s11.729-1.426 11.729-1.426l-.48-13.95z" fill-rule="evenodd" stroke="#000" stroke-width="1pt" fill="#fff"/><path id="path767" d="M148.83 146.23s-19.971-.159-18.861 8.559c1.11 8.717 6.181 6.974 6.181 6.974l9.669-.793 3.011-14.74z" fill-rule="evenodd" stroke="#000" stroke-width="1pt" fill="#00f"/><path id="path768" d="M160.09 145.28l-11.57.951s-6.974.95-6.657 7.608c.317 6.657 7.133 6.815 7.133 6.815l11.252-.634-.158-14.74z" fill-rule="evenodd" stroke="#000" stroke-width="1pt" fill="#fff"/><path id="path950" d="M191.07 241.51s8.32-12.261 11.823-10.948c3.065 1.022.73 10.51-.73 11.386l-11.094-.438z" fill-rule="evenodd" stroke="#000" stroke-width="1pt" fill="#5e0043"/><path id="path951" d="M134.04 243.7c-2.627-3.65-6.423-13.721-9.926-10.948-3.065 1.022-.73 10.51.73 11.386l9.196-.438z" fill-rule="evenodd" stroke="#000" stroke-width="1pt" fill="#5e0043"/><path id="path772" d="M139.55 219.45s16.212 9.987 21.53 10.246c5.318.26 22.178-12.97 22.178-12.97" stroke="#000" stroke-width="1pt" fill="none"/><path id="path777" d="M141.11 180.29l3.113-3.89 15.564 7.91 15.823-7.003 3.112 3.242L161.083 193l-19.973-12.71z" fill-rule="evenodd" stroke="#000" stroke-width="1pt" fill="#5e0043"/><path id="path778" stroke-linejoin="round" d="M128.75 180.08c1.264 1.597 11.323 13.828 13.139 23.944 1.816 10.116-1.038-13.878-1.038-13.878s12.451 6.096 12.84 9.987c.39 3.89 5.953-.263 6.22-.928l-36.049-23.414 4.888 4.289z" fill-rule="evenodd" stroke="#474747" stroke-width="1.25" fill="#474747"/><path id="path779" stroke-linejoin="round" d="M190.26 179.38s-13.099 17.25-11.543 36.055c-2.702-9.004-.519-23.864-.519-23.864l-2.853 1.816s-2.983 12.71-6.744 14.656c-.635-1.514-.52-2.075-.52-2.075s-4.02 5.187-4.798 5.706c-.778.519.26 17.51.26 17.51s1.35 12.313 2.906 12.184c-1.77.868-3.944 2.215-3.944 2.215l-1.614-32.882 3.69-3.695s4.927-5.966 5.317-11.802c-2.14 1.814-4.54 2.334-4.54 2.334s-.648 8.3-2.594 9.468c-1.945 1.167-1.998 3.333-1.998 3.333l-.463-10.848 29.956-20.11z" fill-rule="evenodd" stroke="#474747" stroke-width="1.25" fill="#474747"/><path id="path773" d="M160.3 199.35l2.53 51.872" stroke="#000" stroke-linecap="round" stroke-width="1.25" fill="none"/><path id="path771" d="M128.4 224.12s5.966 3.502 8.17 14.137c19.455-1.427 25.55 5.447 25.55 5.447s15.954-7.652 23.346-6.225c2.594-5.447 9.986-12.451 9.986-12.451" stroke="#000" stroke-width="1pt" fill="none"/><path id="path775" d="M120.26 173.28l40.045 26.199 36.056-24.253s7.522-4.15 6.874-7.133-3.243-1.816-4.54-1.297c-1.296.519-37.742 26.328-37.742 26.328l-38.779-24.512s-2.853-.908-3.372.908 1.069 2.853 1.458 3.76z" fill-rule="evenodd" stroke="#000" stroke-width="1pt" fill="#b4b6b9"/><path id="path780" stroke-linejoin="round" d="M191.87 166.48s-10.246-4.35-10.246-.58c0 3.77.29 4.156 1.933 6.573 1.643 2.416-1.256 3.963-1.256 3.963s-.387-1.063-.967-2.707c-.58-1.643-6.09-2.803-6.573-4.736-.483-1.933 1.16-5.026-2.126-5.413-3.287-.387-6.477 1.353-7.153 5.123-.677 3.77-4.93 12.566-4.93 12.566l.58-20.009c7.217.516 20.621 2.094 30.931 3.287-3.093-.484 1.16.193 1.063 1.256-.29.87-1.353.967-1.256.677z" fill-rule="evenodd" stroke="#474747" stroke-width="1.25" fill="#474747"/><path id="path781" stroke-linejoin="round" d="M155.62 161.45c-1.837 0-11.019 1.063-13.339 2.417-2.32 1.353 3.77 3.48 2.997 5.316-.774 1.836-.87 5.51-3.77 4.736-2.9-.773-12.662-5.606-12.952-7.25-.29-1.642-2.32-1.74-2.32-1.74s28.031-3.769 29.385-3.479z" fill-rule="evenodd" stroke="#474747" stroke-width="1.25" fill="#474747"/><path id="path776" d="M160.04 159.15l-.07 24.582" stroke="#000" stroke-width="1pt" fill="none"/><path id="path786" d="M141.11 130.19s-11.231 18.237-11.454 18.793" stroke="#000" stroke-width="1pt" fill="none"/><path id="path787" d="M161.8 129.74s4.893 6.672 4.337 8.562c2.001 1.557 4.225 7.784 4.225 7.784" fill-rule="evenodd" stroke="#000" stroke-width="1pt" fill="url(#linearGradient3497)"/><path id="path788" d="M180.7 128.63s-10.564 14.901-10.23 16.013" stroke="#000" stroke-width="1pt" fill="none"/><path id="path791" d="M126.5 56.748c0 .794-1.134 1.438-2.533 1.438s-2.532-.644-2.532-1.438c0-.794 1.133-1.438 2.532-1.438s2.533.644 2.533 1.438z" fill-rule="evenodd" transform="matrix(1.0161 .31118 -.30126 1.0495 15.15 -41.141)"/><path id="path789" d="M126.5 56.748c0 .794-1.134 1.438-2.533 1.438s-2.532-.644-2.532-1.438c0-.794 1.133-1.438 2.532-1.438s2.533.644 2.533 1.438z" fill-rule="evenodd" transform="matrix(-1.0161 .31118 .30126 1.0495 242.3 -41.435)"/><path id="path790" stroke-linejoin="round" d="M254.49 366.13s-3.917.735-3.795 1.102-11.384.734-11.629.367c-.244-.367-1.713 1.959-1.713 1.959l1.836-1.102s2.815 2.938 3.672 2.693c.857-.245-.367 1.101-.122 1.346.245.245 1.101-.49 1.101-.49l19.023-.318-8.373-5.557z" fill-rule="evenodd" stroke="#000" stroke-width="1pt" fill="#ff7000"/><path id="path792" stroke-linejoin="round" d="M261.58 372.05l-15.537.45s-3.917 3.55-4.162 4.406 2.57 1.102 2.57 1.102l.858 2.938 1.958-.734s13.211 1.964 25.34-.735c6.12-2.142 7.19-4.713 2.906-6.273-4.284-1.561-13.81-1.093-13.933-1.154z" fill-rule="evenodd" stroke="#000" stroke-width="1.25" fill="#ff7000"/><path id="path793" d="M208.37 403.93l27.971-1.246-5.21-4.416 75.648-3.058-2.605-6.002-84.707 3.398 10.192 4.756-22.875.68.68 2.377-6.002-.226s6.681 2.605 6.908 3.737z" fill-rule="evenodd" stroke="#000" stroke-width="1pt" fill="url(#linearGradient3499)"/><path id="path799" d="M239.73 249.42c-2.222-1.11-11.998-2.444-22.884 4.666l.444 25.106s15.997-8.665 23.773-6.666c-.444-7.776-.444-17.774-1.333-23.106z" fill-rule="evenodd" stroke="#000" stroke-width="1pt" fill="url(#linearGradient3501)"/><path id="path803" d="M85.074 325.65l-65.956 65.478" stroke="#000" stroke-width="1pt" fill="none"/><path id="path804" d="M114.47 326.13l-53.532 70.5" stroke="#000" stroke-width="1pt" fill="none"/><path id="path805" d="M112.08 307.73l-71.455 86.51" stroke="#000" stroke-width="1pt" fill="none"/><path id="path806" d="M38.474 393.04l6.93-8.125" stroke="#000" stroke-width="1pt" fill="none"/><path id="path807" d="M125.7 351.22l-27.722 38.24" stroke="#000" stroke-width="1pt" fill="none"/><path id="path808" d="M96.783 394.48l.717 14.57" stroke="#000" stroke-width="1pt" fill="none"/><path id="path809" d="M138.36 364.6l-29.393 36.802" stroke="#000" stroke-width="1pt" fill="none"/><path id="path810" d="M133.11 398.54l11.949-19.596" stroke="#000" stroke-width="1pt" fill="none"/><path id="path811" d="M137.65 375.12l-14.338 16.25" stroke="#000" stroke-width="1pt" fill="none"/><path id="path812" d="M133.35 359.83l-9.798 11.949" stroke="#000" stroke-width="1pt" fill="none"/><path id="path813" d="M120.68 342.38s-29.871 43.732-29.393 47.316" stroke="#000" stroke-width="1pt" fill="none"/><path id="path814" d="M117.57 336.65c-.717.478-25.809 33.695-25.809 33.695" stroke="#000" stroke-width="1pt" fill="none"/><path id="path815" d="M90.331 380.85l-4.54 5.496" stroke="#000" stroke-width="1pt" fill="none"/><path id="path816" d="M80.055 394.72l-6.93 9.08" stroke="#000" stroke-width="1pt" fill="none"/><path id="path831" d="M81.811 225s-2.024 6.36 0 9.54 14.743 28.908 14.743 28.908 8.673-10.696 11.853-10.985c3.18-.289 1.734 27.752 1.734 27.752s-5.203 4.915-8.383 4.626c-3.18-.289 7.805 10.985 7.516 20.525s-14.454 56.949-19.658 57.817c-5.204.867 2.313-8.673 2.024-11.275-.29-2.601-1.735-.867-2.891-3.758-1.157-2.891 1.734-7.227 1.156-10.118s-3.18-2.312-3.469-4.336 1.735-2.602 1.446-4.914c-.29-2.313-3.47-1.735-3.18-3.759.289-2.023.578-1.156.289-4.914-.29-3.758-.868 2.602-4.048 2.891-3.18.289-5.781 7.516-5.781 7.516s-6.36 8.962-12.72 4.914c3.758 8.095.867 11.564-.578 11.853s1.156 6.36-2.313 6.649 2.602 13.587-1.446 14.743c4.337 2.024.868 4.626.868 4.626s-10.021.832-7.806 13.876c-29.487-10.39-43.94-28.31-43.652-46.52.29-18.212 6.071-34.69 20.236-40.761 4.048-15.033 10.985-31.221 10.985-31.221s-1.156-6.649-.289-10.986c.868-4.336 4.915-8.672 4.915-8.672s-.578-10.407-.29-15.61c.29-5.204 2.313-7.517 2.603-10.407.289-2.891-.868-17.635 2.023-20.236 2.891-2.602 8.384-2.313 11.274-4.048 2.891-1.734 6.65-4.914 10.407-4.625s6.938 2.891 6.938 2.891 14.165 0 15.032 5.493c.867 5.492-2.89 7.516-2.89 7.516s2.023 7.805-6.65 15.032z" fill-rule="evenodd" stroke="#2b2b2b" stroke-width="1pt" fill="#8a9396"/><path id="path817" d="M69.234 204.971c.454.838-.58 2.276-2.308 3.212s-3.498 1.015-3.951.177c-.454-.838.58-2.276 2.308-3.212s3.497-1.015 3.951-.177z" fill-rule="evenodd" stroke="#2b2b2b" stroke-width="1pt" fill="#cecfcf"/><path id="path818" d="M66.68 206.44c0 .356-.446.645-.996.645s-.996-.289-.996-.645c0-.356.446-.645.996-.645s.996.289.996.645z" fill-rule="evenodd" transform="matrix(1.0784 0 0 1.4848 -5.074 -100.09)"/><path id="path819" d="M87.971 216s3.51 15.676-.688 26.504" stroke="#2b2b2b" stroke-width=".625" fill="none"/><path id="path820" d="M89.051 209.14s6.85 9.06 5.966 20.329" stroke="#2b2b2b" stroke-width=".625" fill="none"/><path id="path821" d="M89.714 207.15c.221 0 5.745 4.862 5.524 8.176" stroke="#2b2b2b" stroke-width=".625" fill="none"/><path id="path822" d="M91.04 205.16s3.756 2.652 4.64 5.303" stroke="#2b2b2b" stroke-width=".625" fill="none"/><path id="path823" d="M89.272 203.61s-13.479 21.876-11.711 35.576" stroke="#000" stroke-width="1pt" fill="none"/><path id="path824" d="M90.156 202.95s-17.899 10.607-21.213 45.299" stroke="#2b2b2b" stroke-width=".625" fill="none"/><path id="path825" d="M88.167 209.36l-7.071 5.303" stroke="#000" stroke-width="1pt" fill="none"/><path id="path826" d="M62.314 250.24s9.944-41.322 27.621-47.288" stroke="#2b2b2b" stroke-width=".625" fill="none"/><path id="path827" d="M96.785 264.16s9.502-11.932 11.711-11.49c2.21.442 1.547 27.621 1.547 27.621s-7.071 5.303-8.618 5.082c-1.547-.22 7.955 12.816 7.734 17.678-.221 4.862-.442 4.862-.442 4.862s0-2.873-2.21-7.513-.884-9.944-15.247-21.655c-3.535-7.293 7.071 4.419 9.281 2.651 2.21-1.768-3.977-17.015-3.756-17.236z" fill-rule="evenodd" stroke="#2b2b2b" stroke-width="1pt" fill="#2b2b2b"/><path id="path829" d="M79.893 196.96s-3.995 1.09-4.54 2.724c-.544 1.634-2.905 3.268-4.176 2.723-1.27-.544-3.631-2.542-3.631-2.542" stroke="#2b2b2b" stroke-width="1pt" fill="none"/><path id="path830" stroke-linejoin="round" d="M57.196 210.94s-5.992 5.992-3.087 6.718c2.905.727 5.992-4.72 5.992-4.72s0 9.26 2.542 7.807 9.987-6.718 9.987-6.718 2.542-.182 3.087 0c.545.181 6.9 5.629 11.076 3.631-2.36 6.174-5.084 6.9-5.084 6.9s-4.358 5.63-9.987 4.358c-5.629-1.271-7.082-3.632-7.082-3.632s-4.72.364-6.173-1.815c-1.453-2.18-1.997-3.45-1.997-3.45s-2.724 2.723-3.45 1.452c-.727-1.27 0-8.715 4.176-10.53z" fill-rule="evenodd" stroke="#2b2b2b" stroke-width="1.25" fill="#2b2b2b"/><path id="path865" d="M91.151 202.59s-11.076-3.268-14.889 2.179c-3.813 5.447-2.905 8.534-.908 9.079" stroke="#2b2b2b" stroke-width="1pt" fill="none"/><path id="path866" d="M92.86 202.28c0 1.306-.935 2.365-2.088 2.365s-2.088-1.06-2.088-2.365.935-2.365 2.088-2.365 2.088 1.06 2.088 2.365z" fill-rule="evenodd"/><path id="path867" d="M60.624 230.54s4.516 6.948 9.901 8.86-3.734 3.56-9.12-.088c-3.908-5.298-2.865-9.12-2.865-9.12s1.042-1.042 2.084.348z" fill-rule="evenodd" stroke="#2b2b2b" stroke-width="1pt" fill="#2b2b2b"/><path id="path868" d="M99.275 271.54s-12.681-17.631-16.329-18.587c-3.648-.955 2.78-1.737 6.688 1.998 3.908 3.735-1.043-6.08-1.043-6.08l10.684 22.669z" fill-rule="evenodd" stroke="#2b2b2b" stroke-width="1pt" fill="#2b2b2b"/><path id="path869" stroke-linejoin="round" d="M59.409 373.42c4.864-1.303 26.056 12.16 30.833 15.547 4.777 3.387 14.765 1.216 14.765 1.216s-4.603 2.78-7.47 3.474 8.512.695 8.512.695-27.099 7.47-54.632-7.035c-2.519-11.291 5.906-13.81 7.99-13.897z" fill-rule="evenodd" stroke="#2b2b2b" stroke-width="1.25" fill="#2b2b2b"/><path id="path870" d="M90.416 275.88s-3.561-.695-5.385-2.78c-1.824-2.084-4.43-7.208-7.122-9.38s-16.155-9.554-21.02-9.033c-4.863.522-6.34-.52-6.948-1.129-.607-.608-2.605.26-2.258 2.78.348 2.518-3.734 8.077-2.258 10.683 1.477 2.605 8.425 13.202 9.815 13.549 1.39.347.52 6.166.52 6.166s6.168 6.254 7.73 6.601c1.564.348 3.128 1.477 2.954 2.953-.174 1.477-6.775 9.554-6.775 9.554s-7.122 3.735-7.209 5.82c-.087 2.084 1.737 6.427 7.383 7.817 5.646 1.39 20.845.26 21.627-1.043s1.998-9.12 1.476-9.901c-.52-.782-4.255-3.127-6.166-2.78-1.911.348-3.648 1.911-3.474 2.259.173.347-2.693 1.824-2.693.434 0-1.39 5.646-7.643 6.167-7.122.52.521 8.512 1.303 9.988 5.298s1.477 6.862 5.646 6.427c4.169-.434 9.988-4.256 10.509-12.246.52-7.99-4.69-13.376-5.993-14.157-1.303-.781-5.646-3.387-5.993-4.603-.348-1.216-1.216-5.211-.522-6.167z" fill-rule="evenodd" stroke="#2b2b2b" stroke-width="1pt" fill="#2b2b2b"/><path id="path871" d="M15.286 311.15s13.462-3.474 16.937-3.387c3.474.087 16.589 6.166 20.411 9.901 3.822 3.735 11.638 12.594 16.763 11.812 5.124-.781 6.6-1.824 6.6-1.824L74 331.474s-4.169 1.129-6.253.608c-2.085-.521-6.167-1.824-10.25-5.82-4.081-3.995-16.675-14.764-27.358-13.983-10.683.781-16.85 11.29-16.85 11.29s.087-5.124.52-6.253c.435-1.13-2.257 2.432-2.257 2.432l3.735-8.599z" fill-rule="evenodd" stroke="#2b2b2b" stroke-width="1pt" fill="#2b2b2b"/><path id="path872" d="M64.88 321.57c.087.087 3.387.955 8.946.955s8.512-2.432 8.512-2.432l-.348-2.171.869-3.04s4.256 4.343 4.169 5.211c-.087.869-1.737 1.216-1.737 1.216l-.608-2.084-1.477 1.824s-8.077 6.427-12.507 5.472c-4.43-.956-8.511-3.822-7.382-4.517s1.737-.434 1.563-.434z" fill-rule="evenodd" stroke="#2b2b2b" stroke-width="1pt" fill="#2b2b2b"/><path id="path873" d="M45.251 332.95s-4.864-.087-7.035.955c-2.172 1.043-2.953 2.346-4.43 2.172-1.476-.174-2.605-2.085-2.171-2.867.608-1.216 3.474-2.779 8.946-2.345s4.69 2.085 4.69 2.085z" fill-rule="evenodd" stroke="#2b2b2b" stroke-width="1pt" fill="#2b2b2b"/><path id="path874" d="M62.275 346.15c0-.26-.347-7.122-3.04-9.901s-5.993-2.78-7.47-2.432c-1.476.347 5.472 3.387 6.167 5.385.695 1.997 2.953 7.556 2.345 8.946-.608 1.39-1.737-3.909-5.993-5.385s-10.162-.695-8.946 1.216 5.993.173 8.425 4.255 4.256 8.425 4.256 8.425l.782-2.953 2.171-.608.26-5.645 1.043-1.303z" fill-rule="evenodd" stroke="#2b2b2b" stroke-width="1pt" fill="#2b2b2b"/><path id="path875" stroke-linejoin="round" d="M58.801 368.38l-4.43-8.86s-1.39-5.645-5.124-7.208c-3.735-1.563-8.685-1.303-8.772.608-.087 1.91 7.99 4.343 8.511 5.385.522 1.042.261 2.78-.434 2.866-.695.087-4.256-1.303-6.08-.868-1.824.434-2.866 2.779-5.558 2.084-2.693-.695-4.951-9.293-3.909-10.162 1.043-.869-1.997 1.563-2.605-.695-.608-2.258.868-9.293-.174-10.162-1.042-.868-6.08-3.908-6.167-4.516-.087-.608.26-34.568 28.662-6.427-12.16-14.418-16.937-12.854-19.195-12.941-1.65 0-12.68.955-15.46 15.026-2.78 14.07-6.08 5.298-6.08 5.298s-.608 6.08 2.346 7.817c2.953 1.737-1.39 6.774-1.39 6.774s-5.298-12.94-4.517-18.587c-1.042 4.517-.955 15.721 5.733 27.967 7.817 8.251 15.2 15.894 34.829 24.493 10.336-15.808 9.814-17.718 9.814-17.892z" fill-rule="evenodd" stroke="#2b2b2b" stroke-width="1.25" fill="#2b2b2b"/><path id="path876" stroke-linejoin="round" d="M40.214 368.47s5.732.695 7.296 3.648c1.563 2.953 2.258 7.47 2.258 7.47.955-1.911 1.39-3.562 3.3-4.951s3.301-1.564 3.214-2.606c-.087-1.042-6.08-7.382-9.12-7.73-3.04-.347-8.338 3.3-8.338 3.3s-.955 1.39 1.39.869z" fill-rule="evenodd" stroke="#2b2b2b" stroke-width="1.25" fill="#8a9396"/><path id="path877" d="M53.307 383.41s14.856 6.772 39.325 7.21" stroke="#8a9396" stroke-linecap="round" stroke-width="1.25" fill="none"/><path id="path878" d="M102.9 314.45s-1.278 12.464-10.866 37.071" stroke="#2b2b2b" stroke-linecap="round" stroke-width="1.25" fill="none"/><path id="path880" d="M100.99 322.12s-2.876 8.948-10.866 15.659" stroke="#2b2b2b" stroke-width="1pt" fill="none"/></g></g></svg>