<svg id="svg378" xmlns="http://www.w3.org/2000/svg" height="480" width="640" version="1" y="0" x="0"><defs id="defs380"><clipPath id="clipPath3395" clipPathUnits="userSpaceOnUse"><path id="rect3397" fill-opacity=".67" d="M-89.048 0h682.67v512h-682.67z"/></clipPath></defs><g id="flag" clip-path="url(#clipPath3395)" transform="translate(83.483) scale(.9375)"><path id="rect148" fill-rule="evenodd" transform="scale(-1)" stroke-width="1pt" fill="#ba0000" d="M-618-512h731.43V0H-618z"/><g id="g694" transform="translate(-123.29 4.546) scale(.68808)"><g id="g669" transform="translate(6.25 -3.75)"><path id="path573" d="M524.45 357.28s-75.02-32.301-64.255-116c10.421-40.29 28.828-67.727 62.17-82.661 15.629-4.863 31.607-6.947 47.93-8.336-4.284 4.052-7.872 8.104-9.724 13.198-3.59 9.146-.927 17.945 3.819 26.743 6.02 10.188 9.607 20.723 10.766 34.384 2.199 19.218-6.02 37.743-21.186 48.973-9.61 7.409-20.954 9.956-30.217 18.407-7.177 7.063-11.576 14.126-13.197 26.396-.232 23.386 6.137 26.629 13.894 38.9z" fill-rule="evenodd" fill="#fff"/><path id="path574" d="M510.21 236.18v-.347" fill-rule="evenodd" stroke="#000" stroke-width="3.127" fill="#ba0000"/><path id="path575" d="M514.95 348.59c-29.18-25.82-26.63-90.76-4.4-112.41" stroke="#ba0000" stroke-width="3.127" fill="none"/><path id="polygon638" fill-rule="evenodd" transform="matrix(.13567 -.03068 .02698 .12909 441.38 191.89)" fill="#ba0000" d="M569.1 365.81l21.94 67.35-57.27-41.68-57.27 41.67 21.95-67.34-57.33-41.6 70.83.07 21.83-67.38 21.83 67.38 70.83-.05z"/></g><g id="g674" transform="rotate(72.961 537.043 361.171)"><path id="path675" d="M524.45 357.28s-75.02-32.301-64.255-116c10.421-40.29 28.828-67.727 62.17-82.661 15.629-4.863 31.607-6.947 47.93-8.336-4.284 4.052-7.872 8.104-9.724 13.198-3.59 9.146-.927 17.945 3.819 26.743 6.02 10.188 9.607 20.723 10.766 34.384 2.199 19.218-6.02 37.743-21.186 48.973-9.61 7.409-20.954 9.956-30.217 18.407-7.177 7.063-11.576 14.126-13.197 26.396-.232 23.386 6.137 26.629 13.894 38.9z" fill-rule="evenodd" fill="#fff"/><path id="path676" d="M510.21 236.18v-.347" fill-rule="evenodd" stroke="#000" stroke-width="3.127" fill="#ba0000"/><path id="path677" d="M514.95 348.59c-29.18-25.82-26.63-90.76-4.4-112.41" stroke="#ba0000" stroke-width="3.127" fill="none"/><path id="polygon678" fill-rule="evenodd" transform="matrix(.13567 -.03068 .02698 .12909 441.38 191.89)" fill="#ba0000" d="M569.1 365.81l21.94 67.35-57.27-41.68-57.27 41.67 21.95-67.34-57.33-41.6 70.83.07 21.83-67.38 21.83 67.38 70.83-.05z"/></g><g id="g679" transform="rotate(144.444 534.11 358.489)"><path id="path680" d="M524.45 357.28s-75.02-32.301-64.255-116c10.421-40.29 28.828-67.727 62.17-82.661 15.629-4.863 31.607-6.947 47.93-8.336-4.284 4.052-7.872 8.104-9.724 13.198-3.59 9.146-.927 17.945 3.819 26.743 6.02 10.188 9.607 20.723 10.766 34.384 2.199 19.218-6.02 37.743-21.186 48.973-9.61 7.409-20.954 9.956-30.217 18.407-7.177 7.063-11.576 14.126-13.197 26.396-.232 23.386 6.137 26.629 13.894 38.9z" fill-rule="evenodd" fill="#fff"/><path id="path681" d="M510.21 236.18v-.347" fill-rule="evenodd" stroke="#000" stroke-width="3.127" fill="#ba0000"/><path id="path682" d="M514.95 348.59c-29.18-25.82-26.63-90.76-4.4-112.41" stroke="#ba0000" stroke-width="3.127" fill="none"/><path id="polygon683" fill-rule="evenodd" transform="matrix(.13567 -.03068 .02698 .12909 441.38 191.89)" fill="#ba0000" d="M569.1 365.81l21.94 67.35-57.27-41.68-57.27 41.67 21.95-67.34-57.33-41.6 70.83.07 21.83-67.38 21.83 67.38 70.83-.05z"/></g><g id="g684" transform="rotate(-141.866 533.498 356.843)"><path id="path685" d="M524.45 357.28s-75.02-32.301-64.255-116c10.421-40.29 28.828-67.727 62.17-82.661 15.629-4.863 31.607-6.947 47.93-8.336-4.284 4.052-7.872 8.104-9.724 13.198-3.59 9.146-.927 17.945 3.819 26.743 6.02 10.188 9.607 20.723 10.766 34.384 2.199 19.218-6.02 37.743-21.186 48.973-9.61 7.409-20.954 9.956-30.217 18.407-7.177 7.063-11.576 14.126-13.197 26.396-.232 23.386 6.137 26.629 13.894 38.9z" fill-rule="evenodd" fill="#fff"/><path id="path686" d="M510.21 236.18v-.347" fill-rule="evenodd" stroke="#000" stroke-width="3.127" fill="#ba0000"/><path id="path687" d="M514.95 348.59c-29.18-25.82-26.63-90.76-4.4-112.41" stroke="#ba0000" stroke-width="3.127" fill="none"/><path id="polygon688" fill-rule="evenodd" transform="matrix(.13567 -.03068 .02698 .12909 441.38 191.89)" fill="#ba0000" d="M569.1 365.81l21.94 67.35-57.27-41.68-57.27 41.67 21.95-67.34-57.33-41.6 70.83.07 21.83-67.38 21.83 67.38 70.83-.05z"/></g><g id="g689" transform="rotate(-71.272 530.513 353.615)"><path id="path690" d="M524.45 357.28s-75.02-32.301-64.255-116c10.421-40.29 28.828-67.727 62.17-82.661 15.629-4.863 31.607-6.947 47.93-8.336-4.284 4.052-7.872 8.104-9.724 13.198-3.59 9.146-.927 17.945 3.819 26.743 6.02 10.188 9.607 20.723 10.766 34.384 2.199 19.218-6.02 37.743-21.186 48.973-9.61 7.409-20.954 9.956-30.217 18.407-7.177 7.063-11.576 14.126-13.197 26.396-.232 23.386 6.137 26.629 13.894 38.9z" fill-rule="evenodd" fill="#fff"/><path id="path691" d="M510.21 236.18v-.347" fill-rule="evenodd" stroke="#000" stroke-width="3.127" fill="#ba0000"/><path id="path692" d="M514.95 348.59c-29.18-25.82-26.63-90.76-4.4-112.41" stroke="#ba0000" stroke-width="3.127" fill="none"/><path id="polygon693" fill-rule="evenodd" transform="matrix(.13567 -.03068 .02698 .12909 441.38 191.89)" fill="#ba0000" d="M569.1 365.81l21.94 67.35-57.27-41.68-57.27 41.67 21.95-67.34-57.33-41.6 70.83.07 21.83-67.38 21.83 67.38 70.83-.05z"/></g></g></g></svg>