<svg id="svg1" xmlns="http://www.w3.org/2000/svg" height="480" width="640" version="1" y="0" x="0"><g id="flag" stroke-width="1pt"><path id="rect124" fill="#006" d="M0 0h640v480H0z"/><g id="g584" transform="scale(6.9913 9.1204)"><path id="path146" d="M0 0v3.354L53.292 30H60v-3.354L6.708 0H0zm60 0v3.354L6.708 30H0v-3.354L53.292 0H60z" fill="#fff"/><path id="path136" d="M25 0v30h10V0H25zM0 10v10h60V10H0z" fill="#fff"/><path id="path141" d="M0 12v6h60v-6H0zM27 0v30h6V0h-6z" fill="#c00"/><path id="path150" d="M0 30l20-10h4.472l-20 10H0zM0 0l20 10h-4.472L0 2.236V0zm35.528 10l20-10H60L40 10h-4.472zM60 30L40 20h4.472L60 27.764V30z" fill="#c00"/></g><path id="polygon589" fill-rule="evenodd" transform="translate(-5.25 185.38) scale(4.8659)" fill="#fff" d="M26.873 47.494l-5.647-.491L26.1 44.11l-3.136-4.721 5.3 2.007L30 36l1.736 5.396 5.3-2.007L33.9 44.11l4.874 2.893-5.647.491.778 5.615L30 49l-3.905 4.109z"/><g id="g596" fill-rule="evenodd" transform="translate(-144.62 77.43) scale(7.1944)" fill="#fff"><path id="polygon590" d="M88.511 51.188l-2.689-.234 2.321-1.378-1.494-2.248 2.525.956.826-2.57.826 2.57 2.525-.956-1.494 2.248 2.321 1.378-2.689.234.371 2.673L90 51.905l-1.86 1.956z"/><path id="polygon592" d="M88.511 11.188l-2.689-.234 2.321-1.378-1.494-2.248 2.525.956.826-2.57.826 2.57 2.525-.956-1.494 2.248 2.321 1.378-2.689.234.371 2.673L90 11.905l-1.86 1.956z"/><path id="polygon593" d="M73.511 27.438l-2.689-.234 2.321-1.378-1.494-2.248 2.525.956.826-2.57.826 2.57 2.525-.956-1.494 2.248 2.321 1.378-2.689.234.371 2.673L75 28.155l-1.86 1.956z"/><path id="polygon594" d="M101.84 23.438l-2.685-.234 2.325-1.378-1.497-2.248 2.527.956.82-2.57.83 2.57 2.52-.956-1.49 2.248 2.32 1.378-2.69.234.37 2.673-1.86-1.956-1.86 1.956z"/><path id="polygon595" d="M98.378 31.728l-1.321 1.115.413 1.679-1.47-.911-1.47.911.413-1.679-1.321-1.115 1.725-.127L96 30l.653 1.601z"/></g></g></svg>