<svg id="svg378" xmlns="http://www.w3.org/2000/svg" viewBox="0 0 512 512" height="480" width="640" version="1" y="0" x="0"><defs id="defs380"><clipPath id="clipPath4393" clipPathUnits="userSpaceOnUse"><path id="rect4395" fill-opacity=".67" d="M-85.333 0h682.67v512h-682.67z"/></clipPath></defs><g id="flag" clip-path="url(#clipPath4393)" fill-rule="evenodd" stroke-width="1pt"><path id="rect649" fill="#fff" d="M-226.62 139.08h993.54v216.28h-993.54z"/><path id="rect148" transform="scale(-1)" fill="#087bce" d="M-765.11-512h989.67v172.87h-989.67z"/><path id="rect585" transform="scale(-1)" fill="#087bce" d="M-767.53-168.1h994.15V0h-994.15z"/><path id="polygon671" transform="matrix(.3451 -.00168 -.00376 .32718 88.666 141.87)" fill="#087bce" d="M498.45 365.81l-57.33-41.6 70.83.07 21.83-67.38 21.83 67.38 70.83-.05-57.34 41.58 21.94 67.35-57.27-41.68-57.27 41.67z"/><path id="polygon637" transform="matrix(.3451 -.00168 -.00376 .32718 231.61 178.67)" fill="#087bce" d="M498.45 365.81l-57.33-41.6 70.83.07 21.83-67.38 21.83 67.38 70.83-.05-57.34 41.58 21.94 67.35-57.27-41.68-57.27 41.67z"/><path id="polygon638" transform="matrix(.3451 -.00168 -.00376 .32718 231.61 102.24)" fill="#087bce" d="M498.45 365.81l-57.33-41.6 70.83.07 21.83-67.38 21.83 67.38 70.83-.05-57.34 41.58 21.94 67.35-57.27-41.68-57.27 41.67z"/><path id="polygon639" transform="matrix(.3451 -.00168 -.00376 .32718 -84.003 178.67)" fill="#087bce" d="M498.45 365.81l-57.33-41.6 70.83.07 21.83-67.38 21.83 67.38 70.83-.05-57.34 41.58 21.94 67.35-57.27-41.68-57.27 41.67z"/><path id="polygon640" transform="matrix(.3451 -.00168 -.00376 .32718 -84.003 102.24)" fill="#087bce" d="M498.45 365.81l-57.33-41.6 70.83.07 21.83-67.38 21.83 67.38 70.83-.05-57.34 41.58 21.94 67.35-57.27-41.68-57.27 41.67z"/></g></svg>