<svg id="svg378" xmlns="http://www.w3.org/2000/svg" height="480" width="640" version="1" y="0" x="0"><defs id="defs380"><clipPath id="clipPath8588" clipPathUnits="userSpaceOnUse"><path id="rect8590" fill-opacity=".67" d="M-77.62 0h682.67v512H-77.62z"/></clipPath></defs><g id="flag" clip-path="url(#clipPath8588)" transform="translate(72.769) scale(.9375)"><path id="rect148" fill-rule="evenodd" transform="scale(-1)" stroke-width="1pt" fill="#ba0000" d="M-629.43-512H102V0h-731.43z"/><path id="path747" d="M281.02 376.01c.2-.605.603-6.844.402-6.844s-9.46-10.867-9.258-10.867c.202 0 11.874 2.617 11.874 2.214 0-.402 4.629-11.471 4.629-11.672 0-.2 5.635 13.484 5.635 13.484l11.471 5.032-8.05 6.64s1.812 12.881 1.812 13.083c0 .2-8.051-7.649-8.051-7.649l-8.856 1.007s-1.206-4.025-1.608-4.427z" fill-rule="evenodd" fill-opacity=".988" stroke="#000" stroke-width="2.204" fill="#ffef00"/><path id="path724" d="M218.66 206.89c-7.647 3.938-36.996 37.486-41.021 42.718-3.372 7.596-9.968 17.205-16.762 23.391-7.252 5.487-11.282 12.982-10.284 20.078-.081 8.83 4.87 14.843 8.814 21.057 2.335 2.838 5.475 4.673 8.815 4.896 6.85.905 7.458 3.014 10.887 4.32 13.506 18.389 33.654 31.949 48.164 42.691 9.249 4.875 15.68 9.75 17.885 12.411 4.248 8.112 3.466 16.022 2.884 19.908-3.59 13.549-7.182 27.097-10.773 40.646-1.812 11.069 7.808 8.58 8.325 6.366 4.341-5.635 10.82-1.678 20.077-34.28l12.732-17.139s4.898-1.959 4.898-2.448c7.447-8.942 1.777-14.06-2.45-15.67l-9.303-3.429s-10.773-10.773-11.263-10.773c-5.12-14.893-30.248-46.687-36.085-51.114-4.04-4.21-5.963-6.004-9.798-8.346-5.897-2.82-7.8-3.738-11.411-5.18-3.007-1.206-.866-4.507 1.046-6.016 19.903-10.834 35.68-22.875 54.778-35.118.979-.653 1.96-1.306 2.938-1.96l-6.856-39.174-31.83-11.264c-1.67 1.142-2.937 2.286-4.407 3.428z" fill-rule="evenodd" stroke="#000" stroke-width="2.636" fill="#fff"/><path id="path745" d="M245.29 413.15c.1-.402 19.923-4.025 19.923-4.025s-2.314 7.346-2.415 7.346l-19.721 5.936 2.213-9.257z" fill-rule="evenodd" stroke-width="1pt" fill="#ffec00"/><path id="path725" d="M193.64 338.51c3.824-10.163 14.438-18.21 21.568-20.431" stroke="#000" stroke-width="2.204" fill="none"/><path id="path744" d="M244.58 413.32c1.28-.36 6.961-2.018 8.616-2.276a66.432 66.432 0 005.22-1.424c1.96-.4 3.186-.768 5.22-1.139 1.595-.608 3.17-1.024 4.874-1.423m-27.519 18.518c.166-.221 1.516-1.415 2.486-1.992 1.143-.36 5.049-2.018 6.527-2.276a54.306 54.306 0 004.662-1.424c1.75-.4 2.845-.768 4.663-1.139 1.423-.608 2.83-1.024 4.35-1.423" stroke="#000" stroke-width="2.437" fill="none"/><path id="path726" d="M249.04 341.38h-.284c.89 0 .344-.074-.855 1.423-.426 1.15-4.08 3.7-6.83 3.7-1.328.142-3.368.284-4.697.284-.379 0-.9-.284-1.281-.284" stroke="#000" stroke-width="2.204" fill="none"/><path id="path728" d="M248.76 400.02h1.422c1.476 0 2.957.263 4.27.284 1.423 0 2.846.404 4.27.404 1.436.203 3.167.137 4.653.348 1.666.057 3.004.386 4.738.386 1.398.053 2.152.286 3.7.286l-3.7-.286c1.398.053 2.152.286 3.7.286" stroke="#000" stroke-width="2.204" fill="none"/><path id="path727" d="M239.08 434.74c.152-.222 1.389-1.415 2.276-1.992 1.047-.36 4.624-2.018 5.978-2.276a46.795 46.795 0 004.268-1.424c1.604-.4 2.606-.768 4.27-1.139 1.304-.608 2.592-1.024 3.984-1.423" stroke="#000" stroke-width="2.204" fill="none"/><path id="path729" d="M265.73 385.27c-.805 2.337.238 2.924.67 3.933.75.977 2.666 2.466 5.693 3.415 1.167.314 2.064.622 3.415 1.139.894.083 1.334.306 1.992.569" stroke="#000" stroke-width="2.204" fill="none"/><path id="path730" d="M153.13 299.55h.284c-.892 0-.357.058 1.14-1.139.923-1.033 1.695-1.501 2.56-2.56" stroke="#000" stroke-width="2.204" fill="none"/><path id="path731" d="M171.55 319.82c.19 0 16.557-8.249 18.305-10.011 1.238-.898 2.176-1.845 3.681-2.865.966-.504 1.658-1.15 2.563-1.707.752-1.09 1.734-1.748 2.276-2.745 1.005-.87.574-1.815 1.389-2.864.385-1.075 1.105-2.885 1.34-3.869" stroke="#000" stroke-width="2.204" fill="none"/><path id="path733" d="M221.95 308c.09.589-.261 2.402-.236 3.782-.057 1.6-2.115 6.543-4.603 8.02" stroke="#000" stroke-width="2.204" fill="none"/><path id="path734" d="M192.55 307.82c.096 0 2.587.81 6.751 2.091 5.012 1.802 15.437 8.372 16.471 9.276 1.057.831 2.946 1.573 3.67 2.56 1.133.979 1.962 2.108 2.847 3.131 1.04 1.268 1.926 2.341 2.56 3.416 3.166 2.567 11.681 20.343 11.954 21.346.478.939 1.07 2.246 1.424 3.13.631.728 1.06 1.756 1.707 2.847.595 1.415 1.262 2.06 1.994 3.131.942.655 2.212 1.898 3.415 2.56 1.283 1.098 2.486 1.545 3.415 2.279 1.343.57 16.342 10.052 17.038 10.527 1.37 1.1 5.555 5.437 2.617 8.59-1.246 1.067-2.369 2.479-3.433 3.082-1.085 1.086-2.594 1.572-3.84 2.134-6.758 1.997-10.2 1.282-11.53 1.282h-1.423" stroke="#000" stroke-width="2.204" fill="none"/><path id="path735" d="M159.42 274.29c1.92.752 1.146.197 2.875.984 1.162.509 1.927.522 3.07.939 1.211.388 4.597.998 6.223 2.631 1.194 1.078 2.105 1.989 3.416 2.776 1.55 1.07 2.67 1.545 4.592 2.347 1.622.607 3.435 1.28 5.075 1.338 1.704.099 2.113.014 3.748.014h3.985-3.985 3.985" stroke="#000" stroke-width="2.204" fill="none"/><path id="path738" d="M158.96 293.28c4.268-.284 11.383.997 11.525.997l9.393-.142c4.934-.476 6.024-2.373 6.83-3.702 1.85-2.845 3.132-3.841 4.555-5.976 2.276-1.707 5.409 2.277 5.55 2.277 7.969 7.543 1.565 16.792 1.138 17.076-3.984 3.653-4.838 3.89-7.257 1.565-2.42-2.846-3.13-4.126-5.123-5.123-3.842-1.85-11.81-.426-11.955-.426-.142 0-4.126 1.565-4.126 1.565-1.946.711-3.179 2.42-6.546 2.987-3.415.238-4.554-.094-6.262-2.845-2.276-3.557-1.139-7.827 2.278-8.253z" fill-rule="evenodd" stroke="#000" stroke-width="2.204" fill="#ffe606"/><path id="path770" d="M381.8 120.66c-.625.122-6.261 2.828-6.162 3.004.098.176-4.837 13.57-4.936 13.395-.1-.176-3.539-11.633-3.89-11.435-.35.197-12.267 1.587-12.443 1.686-.175.098 8.992-11.521 8.992-11.521l-1.236-12.465 9.734 3.763s10.34-7.892 10.516-7.991c.175-.098-2.722 10.766-2.722 10.766l5.218 7.226s-2.917 3.024-3.07 3.571z" fill-rule="evenodd" fill-opacity=".988" stroke="#000" stroke-width="2.204" fill="#ffef00"/><path id="path771" d="M264.93 257.9c7.18 4.736 50.806 13.878 57.34 14.822 8.274-.783 19.883.257 28.605 3.148 8.337 3.632 16.845 3.472 22.542-.876 7.737-4.258 10.552-11.52 14.035-18.003 1.33-3.426 1.39-7.063-.052-10.083-2.569-6.415-1.028-7.979-1.57-11.607 9.41-20.785 11.356-44.993 13.608-62.906-.284-10.451.814-18.447 2.054-21.672 4.988-7.68 12.267-10.874 15.94-12.271l40.71-10.53c10.537-3.845 3.652-11.01 1.469-10.376-7.04-1.022-6.765-8.61-39.72-.7l-21.18-2.7s-4.108-3.309-4.535-3.069c-11.444-2.11-13.126 5.342-12.458 9.815l1.571 9.79s-4.11 14.671-3.871 15.097c-10.473 11.761-26.062 49.53-27.06 56.786-.473 6.82-3.048 5.588-2.357 12.217.025 5.18-.577 1.946 1.152 12.618.422 3.213-3.505 2.965-5.758 2.037-19.198-12.04-37.426-19.891-57.458-30.538-1.049-.533-2.098-1.068-3.147-1.6l-30.788 25.174 5.78 33.266c1.815.896 3.433 1.44 5.15 2.162z" fill-rule="evenodd" stroke="#000" stroke-width="2.636" fill="#fff"/><path id="path772" d="M431.67 133.6c-.4.109-13.273-15.394-13.273-15.394s7.538-1.583 7.587-1.495l14.84 14.28-9.154 2.608z" fill-rule="evenodd" stroke-width="1pt" fill="#ffec00"/><path id="path773" d="M391.93 215.21c-10.733 1.648-22.949-3.66-28.379-8.787" stroke="#000" stroke-width="2.204" fill="none"/><path id="path774" d="M432.18 134.14c-.941-.939-5.171-5.079-6.207-6.395a66.445 66.445 0 00-3.799-3.853c-1.309-1.511-2.231-2.4-3.551-3.992-1.311-1.091-2.447-2.26-3.63-3.55m29.629 14.911c-.274-.035-1.977-.627-2.955-1.19-.874-.82-4.234-3.412-5.183-4.574a54.291 54.291 0 00-3.525-3.366c-1.207-1.33-2.064-2.103-3.278-3.507-1.228-.942-2.28-1.964-3.373-3.095" stroke="#000" stroke-width="2.437" fill="none"/><path id="path775" d="M367.28 165.51l.14.248c-.437-.777-.234-.263 1.659.047 1.212-.192 5.224 1.743 6.572 4.141.775 1.088 1.898 2.796 2.55 3.955.185.33.193.924.38 1.256" stroke="#000" stroke-width="2.204" fill="none"/><path id="path776" d="M418.53 137.02l-.14-.248-.557-.991c-.723-1.287-1.22-2.707-1.845-3.862-.697-1.24-1.043-2.679-1.74-3.92-.527-1.351-1.433-2.827-1.977-4.226-.768-1.48-1.136-2.807-1.986-4.319-.64-1.245-.806-2.016-1.565-3.367l1.565 3.367c-.64-1.245-.806-2.016-1.565-3.367" stroke="#000" stroke-width="2.204" fill="none"/><path id="path777" d="M453.54 128.44c-.268-.024-1.914-.517-2.852-1.008-.827-.736-4.025-3.041-4.914-4.095a46.787 46.787 0 00-3.332-3.023c-1.135-1.202-1.947-1.894-3.086-3.164-1.17-.838-2.163-1.757-3.193-2.775" stroke="#000" stroke-width="2.204" fill="none"/><path id="path778" d="M397.35 129.45c2.432-.444 2.432-1.64 3.1-2.511.484-1.133.843-3.533.187-6.636-.298-1.172-.47-2.105-.681-3.536-.366-.82-.387-1.312-.48-2.015" stroke="#000" stroke-width="2.204" fill="none"/><path id="path779" d="M377.82 269.62a426.5 426.5 0 01-.14-.248c.438.778.226.283-1.55-.434-1.354-.3-2.14-.743-3.487-.978" stroke="#000" stroke-width="2.204" fill="none"/><path id="path780" d="M386.46 243.62c-.093-.166-15.305-10.39-17.697-11.049-1.39-.64-2.674-.992-4.301-1.805-.913-.594-1.816-.881-2.745-1.397-1.318-.121-2.372-.655-3.507-.639-1.252-.45-1.864.39-3.178.194-1.125.19-3.056.45-4.029.727" stroke="#000" stroke-width="2.204" fill="none"/><path id="path781" d="M351.46 205.48c.47-.366 2.222-.95 3.413-1.648 1.422-.735 6.74-1.363 9.245.082" stroke="#000" stroke-width="2.204" fill="none"/><path id="path782" d="M365.71 231.2c-.047-.084-.562-2.652-1.486-6.91-.886-5.252-.268-17.558.013-18.904.207-1.328-.072-3.339.433-4.454.298-1.466.876-2.743 1.334-4.015.596-1.528 1.097-2.826 1.723-3.906.686-4.018 12.008-20.152 12.749-20.881a43.68 43.68 0 012.031-2.775c.325-.907 1.011-1.784 1.645-2.884.941-1.212 1.177-2.109 1.752-3.272.109-1.142.57-2.858.558-4.232.328-1.656.127-2.924.312-4.094-.16-1.45.753-19.172.826-20.01.288-1.735 2.017-7.507 6.206-6.492 1.54.564 3.32.85 4.368 1.483 1.479.413 2.642 1.49 3.743 2.301 5.052 4.912 6.115 8.263 6.766 9.422l.698 1.24" stroke="#000" stroke-width="2.204" fill="none"/><path id="path783" d="M352.64 275.94l-.14-.248c.377.67.169.336-.31-1.132-.125-1.263-.515-2.97-.712-4.17-.255-1.247-.839-2.667-.68-3.536-.447-1.266-.166-2.311-.046-3.566.354-1.568.514-2.703.558-4.232.172-1.875.034-3.205.14-4.977-.494-1.46-.594-2.681-1.348-4.139-.67-1.394-1.182-2.684-1.984-4.11l-1.953-3.473 1.953 3.474-1.953-3.474" stroke="#000" stroke-width="2.204" fill="none"/><path id="path785" d="M369.5 267.6c-2.34-3.581-4.71-10.411-4.78-10.535l-4.727-8.118c-2.833-4.068-5.02-4.088-6.574-4.14-3.386-.218-4.883-.846-7.44-1.041-2.605-1.147-.667-5.83-.737-5.954 2.67-10.642 13.871-9.593 14.328-9.36 5.137 1.682 5.762 2.31 4.921 5.558-1.295 3.505-2.062 4.751-1.955 6.976.27 4.256 5.417 10.505 5.488 10.63.07.124 3.386 2.83 3.386 2.83 1.574 1.347 3.668 1.585 5.812 4.242 1.882 2.86 2.15 4.016.59 6.852-1.986 3.728-6.265 4.83-8.312 2.06z" fill-rule="evenodd" stroke="#000" stroke-width="2.204" fill="#ffe606"/><g id="g786" transform="rotate(117.438 311.542 181.915) scale(1.65306)"><path id="path787" d="M238.86 224.5c.121-.366.365-4.14.243-4.14s-5.722-6.574-5.6-6.574 7.183 1.583 7.183 1.339c0-.243 2.8-6.939 2.8-7.061 0-.121 3.409 8.157 3.409 8.157l6.939 3.044-4.87 4.017s1.096 7.792 1.096 7.914c0 .121-4.87-4.627-4.87-4.627l-5.357.609s-.73-2.435-.973-2.678z" fill-rule="evenodd" fill-opacity=".988" stroke="#000" stroke-width="1pt" fill="#ffef00"/><path id="path788" d="M201.14 122.2c-4.626 2.382-22.38 22.676-24.815 25.841-2.04 4.595-6.03 10.408-10.14 14.15-4.387 3.319-6.825 7.853-6.221 12.146-.049 5.342 2.946 8.979 5.332 12.738 1.412 1.717 3.312 2.827 5.332 2.962 4.144.547 4.512 1.823 6.586 2.613 8.17 11.124 20.358 19.327 29.136 25.825 5.595 2.949 9.486 5.898 10.819 7.508 2.57 4.907 2.097 9.692 1.745 12.043l-6.517 24.588c-1.096 6.696 4.723 5.19 5.036 3.851 2.626-3.409 6.545-1.015 12.145-20.737l7.702-10.368s2.963-1.185 2.963-1.481c4.505-5.409 1.075-8.505-1.482-9.479l-5.628-2.074s-6.517-6.517-6.813-6.517c-3.097-9.009-18.39-28.426-21.921-31.104-3.456-2.271-2.043-3.264-5.743-4.865-2.739-1.522-.855-.881-6.995-3.133-1.819-.73-.524-2.727.633-3.64 12.04-6.554 21.584-13.838 33.137-21.244l1.777-1.185-4.147-23.698-19.255-6.814c-1.01.691-1.777 1.383-2.666 2.074z" fill-rule="evenodd" stroke="#000" stroke-width="1.595" fill="#fff"/><path id="path789" d="M217.25 246.97c.061-.243 12.052-2.435 12.052-2.435s-1.4 4.444-1.461 4.444l-11.93 3.591 1.339-5.6z" fill-rule="evenodd" stroke-width="1pt" fill="#ffec00"/><path id="path790" d="M186 201.82c2.313-6.148 8.734-11.016 13.047-12.359" stroke="#000" stroke-width="1pt" fill="none"/><path id="path791" d="M216.82 247.07c.774-.218 4.211-1.221 5.212-1.377 1.068-.25 2.131-.53 3.158-.861 1.185-.242 1.927-.465 3.158-.689.964-.368 1.917-.62 2.948-.861m-16.647 11.202c.1-.134.917-.856 1.504-1.205.691-.218 3.054-1.221 3.948-1.377.954-.25 1.903-.53 2.82-.861 1.059-.242 1.721-.465 2.821-.689.861-.368 1.712-.62 2.632-.861" stroke="#000" stroke-width="1.474" fill="none"/><path id="path792" d="M219.52 203.56h-.172c.539 0 .208-.045-.517.861-.258.696-2.468 2.238-4.132 2.238-.803.086-2.037.172-2.841.172-.229 0-.545-.172-.775-.172" stroke="#000" stroke-width="1pt" fill="none"/><path id="path793" d="M219.35 239.02h.86c.893 0 1.789.159 2.583.172.861 0 1.722.244 2.583.244.869.123 1.916.083 2.815.211 1.008.034 1.817.233 2.866.233.846.032 1.302.173 2.239.173l-2.239-.173c.846.032 1.302.173 2.239.173" stroke="#000" stroke-width="1pt" fill="none"/><path id="path794" d="M213.49 260.03c.092-.134.84-.856 1.377-1.205.633-.218 2.797-1.221 3.616-1.377.873-.25 1.742-.53 2.582-.861.97-.242 1.576-.465 2.583-.689.789-.368 1.568-.62 2.41-.861" stroke="#000" stroke-width="1pt" fill="none"/><path id="path795" d="M229.62 230.1c-.487 1.414.144 1.769.405 2.379.454.591 1.613 1.492 3.444 2.066.706.19 1.249.376 2.066.689.541.05.807.185 1.205.344" stroke="#000" stroke-width="1pt" fill="none"/><path id="path796" d="M161.5 178.25h.172c-.54 0-.216.035.689-.689.559-.625 1.026-.908 1.549-1.549" stroke="#000" stroke-width="1pt" fill="none"/><path id="path797" d="M172.64 190.51c.115 0 10.016-4.99 11.073-6.056.749-.543 1.316-1.116 2.227-1.733.584-.305 1.003-.696 1.55-1.033.455-.659 1.049-1.057 1.377-1.66.608-.527.347-1.098.84-1.733.233-.65.669-1.745.811-2.34" stroke="#000" stroke-width="1pt" fill="none"/><path id="path798" d="M203.13 183.36c.054.356-.158 1.453-.143 2.288-.034.968-1.279 3.958-2.784 4.851" stroke="#000" stroke-width="1pt" fill="none"/><path id="path799" d="M185.34 183.25c.058 0 1.565.49 4.084 1.265 3.032 1.09 9.338 5.064 9.964 5.611.639.503 1.782.952 2.22 1.549.685.592 1.187 1.275 1.722 1.894.629.767 1.165 1.416 1.549 2.066 1.915 1.553 7.066 12.306 7.231 12.913.289.568.647 1.359.861 1.894.382.44.641 1.062 1.033 1.722.36.856.763 1.246 1.206 1.894.57.396 1.338 1.148 2.066 1.549.776.664 1.504.934 2.066 1.378.812.345 9.886 6.081 10.307 6.368.829.666 3.36 3.289 1.583 5.197-.754.645-1.433 1.499-2.077 1.864-.656.657-1.569.951-2.323 1.291-4.088 1.208-6.17.775-6.974.775h-.861" stroke="#000" stroke-width="1pt" fill="none"/><path id="path800" d="M165.63 163.1h.172c-.465 0-.227-.011.689.172.703.308 1.719.609 2.41.861.733.235 1.655.348 2.066.689.8.14 1.268.598 1.894 1.033.722.652 1.273 1.073 2.066 1.549.938.647 1.68.968 2.583 1.55.916.172 1.59.481 2.582.516.934.06 1.766.172 2.755.172h2.411-2.411 2.411" stroke="#000" stroke-width="1pt" fill="none"/><path id="path801" d="M221.24 142.95h-.345c.637 0 .458-.023-.516.172-1.017.525-2.371.922-3.272 1.377-1.028.34-2.133.717-3.099 1.206-1.094.641-2.102 1.162-3.099 1.893-.991.531-1.965 1.185-2.927 1.722-.959.521-1.751 1.024-2.582 1.722-.694.385-1.637.93-2.411 1.549-.727.261-1.252.779-1.721 1.206-.911.807-1.469 1.226-2.411 2.066-.495.468-1.153 1.018-1.894 1.721-.778.519-1.62 1.517-2.238 2.066-.396.517-.976 1.132-1.549 1.55-.441.555-.952 1.285-1.55 1.722-.355.528-.976 1.216-1.55 1.894-.465.569-1.105 1.142-1.549 1.721-.598.662-1.056 1.329-1.722 1.894-.119.398-.369.604-.516.861" stroke="#000" stroke-width="1pt" fill="none"/><path id="path802" d="M165.03 174.46c2.582-.172 6.886.603 6.972.603l5.682-.086c2.985-.288 3.644-1.435 4.132-2.239 1.119-1.721 1.894-2.324 2.755-3.615 1.377-1.033 3.272 1.377 3.358 1.377 4.82 4.563.946 10.158.688 10.33-2.41 2.21-2.927 2.353-4.39.947-1.464-1.722-1.894-2.496-3.099-3.099-2.324-1.119-7.145-.258-7.232-.258-.086 0-2.496.947-2.496.947-1.177.43-1.923 1.464-3.96 1.807-2.066.144-2.755-.057-3.788-1.721-1.377-2.152-.689-4.735 1.378-4.993z" fill-rule="evenodd" stroke="#000" stroke-width="1pt" fill="#ffe606"/></g><path id="path746" d="M221.29 199.65c-1.566-1.422 29.458 11.241 33.726 11.385 5.836-2.134 29.886-22.484 29.886-22.484.237 1.992 1.09 7.162 3.414 8.254-9.296 7.543-17.74 14.8-27.037 22.341.664 11.954-1.518 24.62 4.553 37.997 0 0-7.256.141-7.256 0-6.404-6.404-8.682-37.284-8.682-37.284-10.198-4.554-20.398-8.965-30.596-13.519 1.47-.95 2.656-3.889 1.992-6.69z" fill-rule="evenodd" fill-opacity=".987" stroke="#000" stroke-width="2.204" fill="#ffef00"/><path id="path920" d="M250.81 231.3c.496-.36-5.596 2.83-7.16 3.631-28.186 15.035-42.69 36.905-43.594 37.731-.487.932-1.384 2.174-2.204 3.392-.661 1.02-1.61 2.076-2.234 3.108-.864 1.196-2.679 3.558-3.67 4.606-.124.676.47-.23.276.219" stroke="#000" stroke-width="2.204" fill="none"/><path id="path923" d="M270.07 213.43c-.547-.277 5.077 3.682 6.505 4.707 26.26 18.187 52.344 21.082 53.492 21.507 1.05.007 2.566.236 4.023.409 1.21.12 2.583.48 3.787.564 1.458.22 4.389.754 5.775 1.157.656-.2-.42-.312.067-.346" stroke="#000" stroke-width="2.204" fill="none"/></g></svg>