<svg id="svg1" xmlns="http://www.w3.org/2000/svg" height="480" width="640" version="1.1"><defs id="defs3"><clipPath id="clipPath7218" clipPathUnits="userSpaceOnUse"><path id="rect7220" fill-opacity=".67" d="M0 0h640v480H0z"/></clipPath></defs><g id="flag" clip-path="url(#clipPath7218)"><path id="rect124" fill="#006" d="M0 0h960v480H0z"/><g id="g7141" transform="scale(.66667)"><path id="path146" d="M0 0v26.833l426.33 213.17H480v-26.83L53.67.003H0zm480 0v26.832L53.67 240.002H0v-26.83L426.33.002H480z" fill="#fff"/><path id="path136" stroke-width="1pt" fill="#fff" d="M200 0v240h80V0h-80zM0 80v80h480V80H0z"/><path id="path141" d="M0 96v48h480V96H0zM216 0v240h48V0h-48z" stroke-width="1pt" fill="#c00"/><path id="path150" d="M0 240l160-80h35.777l-160 80H-.003zM0 0l160 80h-35.78L0 17.889V0zm284.22 80l160-80H480L320 80h-35.78zM480 240l-160-80h35.78L480 222.11V240z" fill="#c00"/></g><g id="g5930" transform="translate(-192.09 65.009) scale(.8807)"><g id="g141" transform="scale(8.5333)"><path id="path133" d="M90 7.995l.9 2.767h2.909l-2.354 1.71.9 2.768L90 13.531l-2.354 1.71.9-2.767-2.355-1.71h2.91z" fill="#fff"/><path id="path132" d="M90 8.846l.708 2.18H93l-1.854 1.346.708 2.18L90 13.205l-1.854 1.347.708-2.18L87 11.025h2.292z" fill="#c00"/></g><g id="g132" transform="translate(-118.3 119.03) scale(8.5333)"><path id="path134" d="M90 7.995l.9 2.767h2.909l-2.354 1.71.9 2.768L90 13.531l-2.354 1.71.9-2.767-2.355-1.71h2.91z" fill="#fff"/><path id="path135" d="M90 8.846l.708 2.18H93l-1.854 1.346.708 2.18L90 13.205l-1.854 1.347.708-2.18L87 11.025h2.292z" fill="#c00"/></g><g id="g139" transform="translate(101.4 -14.251) scale(8.5333)"><path id="path138" d="M90 20.648l.753 2.316h2.435l-1.97 1.432.752 2.316-1.972-1.432-1.97 1.432.753-2.316-1.97-1.432h2.435z" fill="#fff"/><path id="path137" d="M90 21.371l.59 1.816h1.91l-1.545 1.123.59 1.816L90 25.004l-1.545 1.123.59-1.816-1.545-1.123h1.91z" fill="#c00"/></g><path id="path142" d="M768 372.02l8.437 25.966h27.302l-22.088 16.048L790.088 440l-22.09-16.06-22.088 16.048 8.437-25.966-22.088-16.048h27.302z" fill-rule="evenodd" fill="#fff"/><path id="path143" d="M768 378.2l7.05 21.699h22.817l-18.46 13.411 7.051 21.699-18.46-13.41-18.459 13.411 7.05-21.699-18.458-13.411h22.816z" fill-rule="evenodd" fill="#c00"/></g></g></svg>