<svg id="svg548" xmlns="http://www.w3.org/2000/svg" height="480" width="640" version="1.1"><g id="flag" fill-rule="evenodd"><path id="rect551" stroke-width="1pt" fill="#f31930" d="M0 0h640v480H0z"/><g id="g3005" transform="translate(132.01 7.246) scale(.9375)"><path id="path614" d="M178.37 445.64c0 100.69-81.622 182.31-182.31 182.31s-182.31-81.622-182.31-182.31 81.622-182.31 182.31-182.31 182.31 81.622 182.31 182.31z" transform="matrix(.71362 0 0 .70145 166.01 -56.352)" fill="#fff"/><path id="path615" d="M-15.739 157.09c0 44.186-35.82 80.006-80.006 80.006s-80.006-35.82-80.006-80.006 35.82-80.006 80.006-80.006 80.006 35.82 80.006 80.006z" transform="matrix(1.3009 0 0 1.2787 320.28 55.365)" fill="#f31830"/><path id="path563" d="M318.63 196.5l-1.05 47.273-44.103 11.973 43.473 15.482-1.05 43.351 28.352-33.854 42.842 14.863-24.782-36.332 30.242-36.125-46.413 12.798-27.512-39.428z" stroke-width="1pt" fill="#fff"/></g></g></svg>